G04 Layer_Color=8421504*
%FSLAX43Y43*%
%MOMM*%
G71*
G01*
G75*
%ADD10R,0.790X0.800*%
%ADD11R,0.790X1.700*%
%ADD12R,1.200X1.400*%
%ADD13C,0.254*%
D10*
X51157Y11306D02*
D03*
X80157D02*
D03*
X83157D02*
D03*
X112157D02*
D03*
X115157D02*
D03*
X144157D02*
D03*
X51157Y17306D02*
D03*
X80157D02*
D03*
X83157D02*
D03*
X112157D02*
D03*
X115157D02*
D03*
X144157D02*
D03*
X51157Y23306D02*
D03*
X80157D02*
D03*
X83157D02*
D03*
X112157D02*
D03*
X115157D02*
D03*
X144157D02*
D03*
X51157Y29306D02*
D03*
X80157D02*
D03*
X83157D02*
D03*
X112157D02*
D03*
X115157D02*
D03*
X144157D02*
D03*
X51157Y35306D02*
D03*
X80157D02*
D03*
X83157D02*
D03*
X112157D02*
D03*
X115157D02*
D03*
X144157D02*
D03*
X51157Y41306D02*
D03*
X80157D02*
D03*
X83157D02*
D03*
X112157D02*
D03*
X115157D02*
D03*
X144157D02*
D03*
X51157Y47306D02*
D03*
X80157D02*
D03*
X83157D02*
D03*
X112157D02*
D03*
X115157D02*
D03*
X144157D02*
D03*
X51157Y53306D02*
D03*
X80157D02*
D03*
X83157D02*
D03*
X112157D02*
D03*
X115157D02*
D03*
X144157D02*
D03*
X51157Y59306D02*
D03*
X80157D02*
D03*
X83157D02*
D03*
X112157D02*
D03*
X115157D02*
D03*
X144157D02*
D03*
X51157Y65306D02*
D03*
X80157D02*
D03*
X83157D02*
D03*
X112157D02*
D03*
X115157D02*
D03*
X144157D02*
D03*
X51157Y71306D02*
D03*
X80157D02*
D03*
X83157D02*
D03*
X112157D02*
D03*
X115157D02*
D03*
X144157D02*
D03*
X51157Y77306D02*
D03*
X80157D02*
D03*
X83157D02*
D03*
X112157D02*
D03*
X115157D02*
D03*
X144157D02*
D03*
X51157Y83306D02*
D03*
X80157D02*
D03*
X83157D02*
D03*
X112157D02*
D03*
X115157D02*
D03*
X144157D02*
D03*
X51157Y89306D02*
D03*
X80157D02*
D03*
X83157D02*
D03*
X112157D02*
D03*
X115157D02*
D03*
X144157D02*
D03*
X51157Y95306D02*
D03*
X80157D02*
D03*
X83157D02*
D03*
X112157D02*
D03*
X115157D02*
D03*
X144157D02*
D03*
X51157Y101306D02*
D03*
X80157D02*
D03*
X83157D02*
D03*
X112157D02*
D03*
X115157D02*
D03*
X144157D02*
D03*
D11*
X51157Y13906D02*
D03*
X80157D02*
D03*
X83157D02*
D03*
X112157D02*
D03*
X115157D02*
D03*
X144157D02*
D03*
X51157Y19906D02*
D03*
X80157D02*
D03*
X83157D02*
D03*
X112157D02*
D03*
X115157D02*
D03*
X144157D02*
D03*
X51157Y25906D02*
D03*
X80157D02*
D03*
X83157D02*
D03*
X112157D02*
D03*
X115157D02*
D03*
X144157D02*
D03*
X51157Y31906D02*
D03*
X80157D02*
D03*
X83157D02*
D03*
X112157D02*
D03*
X115157D02*
D03*
X144157D02*
D03*
X51157Y37906D02*
D03*
X80157D02*
D03*
X83157D02*
D03*
X112157D02*
D03*
X115157D02*
D03*
X144157D02*
D03*
X51157Y43906D02*
D03*
X80157D02*
D03*
X83157D02*
D03*
X112157D02*
D03*
X115157D02*
D03*
X144157D02*
D03*
X51157Y49906D02*
D03*
X80157D02*
D03*
X83157D02*
D03*
X112157D02*
D03*
X115157D02*
D03*
X144157D02*
D03*
X51157Y55906D02*
D03*
X80157D02*
D03*
X83157D02*
D03*
X112157D02*
D03*
X115157D02*
D03*
X144157D02*
D03*
X51157Y61906D02*
D03*
X80157D02*
D03*
X83157D02*
D03*
X112157D02*
D03*
X115157D02*
D03*
X144157D02*
D03*
X51157Y67906D02*
D03*
X80157D02*
D03*
X83157D02*
D03*
X112157D02*
D03*
X115157D02*
D03*
X144157D02*
D03*
X51157Y73906D02*
D03*
X80157D02*
D03*
X83157D02*
D03*
X112157D02*
D03*
X115157D02*
D03*
X144157D02*
D03*
X51157Y79906D02*
D03*
X80157D02*
D03*
X83157D02*
D03*
X112157D02*
D03*
X115157D02*
D03*
X144157D02*
D03*
X51157Y85906D02*
D03*
X80157D02*
D03*
X83157D02*
D03*
X112157D02*
D03*
X115157D02*
D03*
X144157D02*
D03*
X51157Y91906D02*
D03*
X80157D02*
D03*
X83157D02*
D03*
X112157D02*
D03*
X115157D02*
D03*
X144157D02*
D03*
X51157Y97906D02*
D03*
X80157D02*
D03*
X83157D02*
D03*
X112157D02*
D03*
X115157D02*
D03*
X144157D02*
D03*
X51157Y103906D02*
D03*
X80157D02*
D03*
X83157D02*
D03*
X112157D02*
D03*
X115157D02*
D03*
X144157D02*
D03*
D12*
X55891Y11406D02*
D03*
X54091D02*
D03*
X75300Y11406D02*
D03*
X77100D02*
D03*
X87891Y11406D02*
D03*
X86091D02*
D03*
X107300Y11406D02*
D03*
X109100D02*
D03*
X119891Y11406D02*
D03*
X118091D02*
D03*
X139300Y11406D02*
D03*
X141100D02*
D03*
X55891Y17406D02*
D03*
X54091D02*
D03*
X75300Y17406D02*
D03*
X77100D02*
D03*
X87891Y17406D02*
D03*
X86091D02*
D03*
X107300Y17406D02*
D03*
X109100D02*
D03*
X119891Y17406D02*
D03*
X118091D02*
D03*
X139300Y17406D02*
D03*
X141100D02*
D03*
X55891Y23406D02*
D03*
X54091D02*
D03*
X75300Y23406D02*
D03*
X77100D02*
D03*
X87891Y23406D02*
D03*
X86091D02*
D03*
X107300Y23406D02*
D03*
X109100D02*
D03*
X119891Y23406D02*
D03*
X118091D02*
D03*
X139300Y23406D02*
D03*
X141100D02*
D03*
X55891Y29406D02*
D03*
X54091D02*
D03*
X75300Y29406D02*
D03*
X77100D02*
D03*
X87891Y29406D02*
D03*
X86091D02*
D03*
X107300Y29406D02*
D03*
X109100D02*
D03*
X119891Y29406D02*
D03*
X118091D02*
D03*
X139300Y29406D02*
D03*
X141100D02*
D03*
X55891Y35406D02*
D03*
X54091D02*
D03*
X75300Y35406D02*
D03*
X77100D02*
D03*
X87891Y35406D02*
D03*
X86091D02*
D03*
X107300Y35406D02*
D03*
X109100D02*
D03*
X119891Y35406D02*
D03*
X118091D02*
D03*
X139300Y35406D02*
D03*
X141100D02*
D03*
X55891Y41406D02*
D03*
X54091D02*
D03*
X75300Y41406D02*
D03*
X77100D02*
D03*
X87891Y41406D02*
D03*
X86091D02*
D03*
X107300Y41406D02*
D03*
X109100D02*
D03*
X119891Y41406D02*
D03*
X118091D02*
D03*
X139300Y41406D02*
D03*
X141100D02*
D03*
X55891Y47406D02*
D03*
X54091D02*
D03*
X75300Y47406D02*
D03*
X77100D02*
D03*
X87891Y47406D02*
D03*
X86091D02*
D03*
X107300Y47406D02*
D03*
X109100D02*
D03*
X119891Y47406D02*
D03*
X118091D02*
D03*
X139300Y47406D02*
D03*
X141100D02*
D03*
X55891Y53406D02*
D03*
X54091D02*
D03*
X75300Y53406D02*
D03*
X77100D02*
D03*
X87891Y53406D02*
D03*
X86091D02*
D03*
X107300Y53406D02*
D03*
X109100D02*
D03*
X119891Y53406D02*
D03*
X118091D02*
D03*
X139300Y53406D02*
D03*
X141100D02*
D03*
X55891Y59406D02*
D03*
X54091D02*
D03*
X75300Y59406D02*
D03*
X77100D02*
D03*
X87891Y59406D02*
D03*
X86091D02*
D03*
X107300Y59406D02*
D03*
X109100D02*
D03*
X119891Y59406D02*
D03*
X118091D02*
D03*
X139300Y59406D02*
D03*
X141100D02*
D03*
X55891Y65406D02*
D03*
X54091D02*
D03*
X75300Y65406D02*
D03*
X77100D02*
D03*
X87891Y65406D02*
D03*
X86091D02*
D03*
X107300Y65406D02*
D03*
X109100D02*
D03*
X119891Y65406D02*
D03*
X118091D02*
D03*
X139300Y65406D02*
D03*
X141100D02*
D03*
X55891Y71406D02*
D03*
X54091D02*
D03*
X75300Y71406D02*
D03*
X77100D02*
D03*
X87891Y71406D02*
D03*
X86091D02*
D03*
X107300Y71406D02*
D03*
X109100D02*
D03*
X119891Y71406D02*
D03*
X118091D02*
D03*
X139300Y71406D02*
D03*
X141100D02*
D03*
X55891Y77406D02*
D03*
X54091D02*
D03*
X75300Y77406D02*
D03*
X77100D02*
D03*
X87891Y77406D02*
D03*
X86091D02*
D03*
X107300Y77406D02*
D03*
X109100D02*
D03*
X119891Y77406D02*
D03*
X118091D02*
D03*
X139300Y77406D02*
D03*
X141100D02*
D03*
X55891Y83406D02*
D03*
X54091D02*
D03*
X75300Y83406D02*
D03*
X77100D02*
D03*
X87891Y83406D02*
D03*
X86091D02*
D03*
X107300Y83406D02*
D03*
X109100D02*
D03*
X119891Y83406D02*
D03*
X118091D02*
D03*
X139300Y83406D02*
D03*
X141100D02*
D03*
X55891Y89406D02*
D03*
X54091D02*
D03*
X75300Y89406D02*
D03*
X77100D02*
D03*
X87891Y89406D02*
D03*
X86091D02*
D03*
X107300Y89406D02*
D03*
X109100D02*
D03*
X119891Y89406D02*
D03*
X118091D02*
D03*
X139300Y89406D02*
D03*
X141100D02*
D03*
X55891Y95406D02*
D03*
X54091D02*
D03*
X75300Y95406D02*
D03*
X77100D02*
D03*
X87891Y95406D02*
D03*
X86091D02*
D03*
X107300Y95406D02*
D03*
X109100D02*
D03*
X119891Y95406D02*
D03*
X118091D02*
D03*
X139300Y95406D02*
D03*
X141100D02*
D03*
X55891Y101406D02*
D03*
X54091D02*
D03*
X75300Y101406D02*
D03*
X77100D02*
D03*
X87891Y101406D02*
D03*
X86091D02*
D03*
X107300Y101406D02*
D03*
X109100D02*
D03*
X119891Y101406D02*
D03*
X118091D02*
D03*
X139300Y101406D02*
D03*
X141100D02*
D03*
D13*
X49657Y9906D02*
X145669D01*
Y105918D01*
X49657D02*
X145669D01*
X49657Y9906D02*
Y105918D01*
X81657Y9906D02*
Y15906D01*
X49657Y9906D02*
X81657D01*
X49657Y15906D02*
X81657D01*
X49657Y9906D02*
Y15906D01*
X113657Y9906D02*
Y15906D01*
X81657Y9906D02*
X113657D01*
X81657Y15906D02*
X113657D01*
X81657Y9906D02*
Y15906D01*
X145657Y9906D02*
Y15906D01*
X113657Y9906D02*
X145657D01*
X113657Y15906D02*
X145657D01*
X113657Y9906D02*
Y15906D01*
X81657D02*
Y21906D01*
X49657Y15906D02*
X81657D01*
X49657Y21906D02*
X81657D01*
X49657Y15906D02*
Y21906D01*
X113657Y15906D02*
Y21906D01*
X81657Y15906D02*
X113657D01*
X81657Y21906D02*
X113657D01*
X81657Y15906D02*
Y21906D01*
X145657Y15906D02*
Y21906D01*
X113657Y15906D02*
X145657D01*
X113657Y21906D02*
X145657D01*
X113657Y15906D02*
Y21906D01*
X81657D02*
Y27906D01*
X49657Y21906D02*
X81657D01*
X49657Y27906D02*
X81657D01*
X49657Y21906D02*
Y27906D01*
X113657Y21906D02*
Y27906D01*
X81657Y21906D02*
X113657D01*
X81657Y27906D02*
X113657D01*
X81657Y21906D02*
Y27906D01*
X145657Y21906D02*
Y27906D01*
X113657Y21906D02*
X145657D01*
X113657Y27906D02*
X145657D01*
X113657Y21906D02*
Y27906D01*
X81657D02*
Y33906D01*
X49657Y27906D02*
X81657D01*
X49657Y33906D02*
X81657D01*
X49657Y27906D02*
Y33906D01*
X113657Y27906D02*
Y33906D01*
X81657Y27906D02*
X113657D01*
X81657Y33906D02*
X113657D01*
X81657Y27906D02*
Y33906D01*
X145657Y27906D02*
Y33906D01*
X113657Y27906D02*
X145657D01*
X113657Y33906D02*
X145657D01*
X113657Y27906D02*
Y33906D01*
X81657D02*
Y39906D01*
X49657Y33906D02*
X81657D01*
X49657Y39906D02*
X81657D01*
X49657Y33906D02*
Y39906D01*
X113657Y33906D02*
Y39906D01*
X81657Y33906D02*
X113657D01*
X81657Y39906D02*
X113657D01*
X81657Y33906D02*
Y39906D01*
X145657Y33906D02*
Y39906D01*
X113657Y33906D02*
X145657D01*
X113657Y39906D02*
X145657D01*
X113657Y33906D02*
Y39906D01*
X81657D02*
Y45906D01*
X49657Y39906D02*
X81657D01*
X49657Y45906D02*
X81657D01*
X49657Y39906D02*
Y45906D01*
X113657Y39906D02*
Y45906D01*
X81657Y39906D02*
X113657D01*
X81657Y45906D02*
X113657D01*
X81657Y39906D02*
Y45906D01*
X145657Y39906D02*
Y45906D01*
X113657Y39906D02*
X145657D01*
X113657Y45906D02*
X145657D01*
X113657Y39906D02*
Y45906D01*
X81657D02*
Y51906D01*
X49657Y45906D02*
X81657D01*
X49657Y51906D02*
X81657D01*
X49657Y45906D02*
Y51906D01*
X113657Y45906D02*
Y51906D01*
X81657Y45906D02*
X113657D01*
X81657Y51906D02*
X113657D01*
X81657Y45906D02*
Y51906D01*
X145657Y45906D02*
Y51906D01*
X113657Y45906D02*
X145657D01*
X113657Y51906D02*
X145657D01*
X113657Y45906D02*
Y51906D01*
X81657D02*
Y57906D01*
X49657Y51906D02*
X81657D01*
X49657Y57906D02*
X81657D01*
X49657Y51906D02*
Y57906D01*
X113657Y51906D02*
Y57906D01*
X81657Y51906D02*
X113657D01*
X81657Y57906D02*
X113657D01*
X81657Y51906D02*
Y57906D01*
X145657Y51906D02*
Y57906D01*
X113657Y51906D02*
X145657D01*
X113657Y57906D02*
X145657D01*
X113657Y51906D02*
Y57906D01*
X81657D02*
Y63906D01*
X49657Y57906D02*
X81657D01*
X49657Y63906D02*
X81657D01*
X49657Y57906D02*
Y63906D01*
X113657Y57906D02*
Y63906D01*
X81657Y57906D02*
X113657D01*
X81657Y63906D02*
X113657D01*
X81657Y57906D02*
Y63906D01*
X145657Y57906D02*
Y63906D01*
X113657Y57906D02*
X145657D01*
X113657Y63906D02*
X145657D01*
X113657Y57906D02*
Y63906D01*
X81657D02*
Y69906D01*
X49657Y63906D02*
X81657D01*
X49657Y69906D02*
X81657D01*
X49657Y63906D02*
Y69906D01*
X113657Y63906D02*
Y69906D01*
X81657Y63906D02*
X113657D01*
X81657Y69906D02*
X113657D01*
X81657Y63906D02*
Y69906D01*
X145657Y63906D02*
Y69906D01*
X113657Y63906D02*
X145657D01*
X113657Y69906D02*
X145657D01*
X113657Y63906D02*
Y69906D01*
X81657D02*
Y75906D01*
X49657Y69906D02*
X81657D01*
X49657Y75906D02*
X81657D01*
X49657Y69906D02*
Y75906D01*
X113657Y69906D02*
Y75906D01*
X81657Y69906D02*
X113657D01*
X81657Y75906D02*
X113657D01*
X81657Y69906D02*
Y75906D01*
X145657Y69906D02*
Y75906D01*
X113657Y69906D02*
X145657D01*
X113657Y75906D02*
X145657D01*
X113657Y69906D02*
Y75906D01*
X81657D02*
Y81906D01*
X49657Y75906D02*
X81657D01*
X49657Y81906D02*
X81657D01*
X49657Y75906D02*
Y81906D01*
X113657Y75906D02*
Y81906D01*
X81657Y75906D02*
X113657D01*
X81657Y81906D02*
X113657D01*
X81657Y75906D02*
Y81906D01*
X145657Y75906D02*
Y81906D01*
X113657Y75906D02*
X145657D01*
X113657Y81906D02*
X145657D01*
X113657Y75906D02*
Y81906D01*
X81657D02*
Y87906D01*
X49657Y81906D02*
X81657D01*
X49657Y87906D02*
X81657D01*
X49657Y81906D02*
Y87906D01*
X113657Y81906D02*
Y87906D01*
X81657Y81906D02*
X113657D01*
X81657Y87906D02*
X113657D01*
X81657Y81906D02*
Y87906D01*
X145657Y81906D02*
Y87906D01*
X113657Y81906D02*
X145657D01*
X113657Y87906D02*
X145657D01*
X113657Y81906D02*
Y87906D01*
X81657D02*
Y93906D01*
X49657Y87906D02*
X81657D01*
X49657Y93906D02*
X81657D01*
X49657Y87906D02*
Y93906D01*
X113657Y87906D02*
Y93906D01*
X81657Y87906D02*
X113657D01*
X81657Y93906D02*
X113657D01*
X81657Y87906D02*
Y93906D01*
X145657Y87906D02*
Y93906D01*
X113657Y87906D02*
X145657D01*
X113657Y93906D02*
X145657D01*
X113657Y87906D02*
Y93906D01*
X81657D02*
Y99906D01*
X49657Y93906D02*
X81657D01*
X49657Y99906D02*
X81657D01*
X49657Y93906D02*
Y99906D01*
X113657Y93906D02*
Y99906D01*
X81657Y93906D02*
X113657D01*
X81657Y99906D02*
X113657D01*
X81657Y93906D02*
Y99906D01*
X145657Y93906D02*
Y99906D01*
X113657Y93906D02*
X145657D01*
X113657Y99906D02*
X145657D01*
X113657Y93906D02*
Y99906D01*
X81657D02*
Y105906D01*
X49657Y99906D02*
X81657D01*
X49657Y105906D02*
X81657D01*
X49657Y99906D02*
Y105906D01*
X113657Y99906D02*
Y105906D01*
X81657Y99906D02*
X113657D01*
X81657Y105906D02*
X113657D01*
X81657Y99906D02*
Y105906D01*
X145657Y99906D02*
Y105906D01*
X113657Y99906D02*
X145657D01*
X113657Y105906D02*
X145657D01*
X113657Y99906D02*
Y105906D01*
M02*
