G04 Layer_Color=16711935*
%FSLAX24Y24*%
%MOIN*%
G70*
G01*
G75*
%ADD13C,0.0100*%
%ADD21C,0.0671*%
%ADD22R,0.0671X0.0671*%
D13*
X19550Y3900D02*
Y41700D01*
X57350D01*
Y3900D02*
Y41700D01*
X19550Y3900D02*
X57350D01*
X19550D02*
Y6262D01*
X32148D01*
X19550Y3900D02*
X32148D01*
Y6262D01*
Y3900D02*
Y6262D01*
X44747D01*
X32148Y3900D02*
X44747D01*
Y6262D01*
Y3900D02*
Y6262D01*
X57345D01*
X44747Y3900D02*
X57345D01*
Y6262D01*
X19550D02*
Y8624D01*
X32148D01*
X19550Y6262D02*
X32148D01*
Y8624D01*
Y6262D02*
Y8624D01*
X44747D01*
X32148Y6262D02*
X44747D01*
Y8624D01*
Y6262D02*
Y8624D01*
X57345D01*
X44747Y6262D02*
X57345D01*
Y8624D01*
X19550D02*
Y10987D01*
X32148D01*
X19550Y8624D02*
X32148D01*
Y10987D01*
Y8624D02*
Y10987D01*
X44747D01*
X32148Y8624D02*
X44747D01*
Y10987D01*
Y8624D02*
Y10987D01*
X57345D01*
X44747Y8624D02*
X57345D01*
Y10987D01*
X19550D02*
Y13349D01*
X32148D01*
X19550Y10987D02*
X32148D01*
Y13349D01*
Y10987D02*
Y13349D01*
X44747D01*
X32148Y10987D02*
X44747D01*
Y13349D01*
Y10987D02*
Y13349D01*
X57345D01*
X44747Y10987D02*
X57345D01*
Y13349D01*
X19550D02*
Y15711D01*
X32148D01*
X19550Y13349D02*
X32148D01*
Y15711D01*
Y13349D02*
Y15711D01*
X44747D01*
X32148Y13349D02*
X44747D01*
Y15711D01*
Y13349D02*
Y15711D01*
X57345D01*
X44747Y13349D02*
X57345D01*
Y15711D01*
X19550D02*
Y18073D01*
X32148D01*
X19550Y15711D02*
X32148D01*
Y18073D01*
Y15711D02*
Y18073D01*
X44747D01*
X32148Y15711D02*
X44747D01*
Y18073D01*
Y15711D02*
Y18073D01*
X57345D01*
X44747Y15711D02*
X57345D01*
Y18073D01*
X19550D02*
Y20435D01*
X32148D01*
X19550Y18073D02*
X32148D01*
Y20435D01*
Y18073D02*
Y20435D01*
X44747D01*
X32148Y18073D02*
X44747D01*
Y20435D01*
Y18073D02*
Y20435D01*
X57345D01*
X44747Y18073D02*
X57345D01*
Y20435D01*
X19550D02*
Y22798D01*
X32148D01*
X19550Y20435D02*
X32148D01*
Y22798D01*
Y20435D02*
Y22798D01*
X44747D01*
X32148Y20435D02*
X44747D01*
Y22798D01*
Y20435D02*
Y22798D01*
X57345D01*
X44747Y20435D02*
X57345D01*
Y22798D01*
X19550D02*
Y25160D01*
X32148D01*
X19550Y22798D02*
X32148D01*
Y25160D01*
Y22798D02*
Y25160D01*
X44747D01*
X32148Y22798D02*
X44747D01*
Y25160D01*
Y22798D02*
Y25160D01*
X57345D01*
X44747Y22798D02*
X57345D01*
Y25160D01*
X19550D02*
Y27522D01*
X32148D01*
X19550Y25160D02*
X32148D01*
Y27522D01*
Y25160D02*
Y27522D01*
X44747D01*
X32148Y25160D02*
X44747D01*
Y27522D01*
Y25160D02*
Y27522D01*
X57345D01*
X44747Y25160D02*
X57345D01*
Y27522D01*
X19550D02*
Y29884D01*
X32148D01*
X19550Y27522D02*
X32148D01*
Y29884D01*
Y27522D02*
Y29884D01*
X44747D01*
X32148Y27522D02*
X44747D01*
Y29884D01*
Y27522D02*
Y29884D01*
X57345D01*
X44747Y27522D02*
X57345D01*
Y29884D01*
X19550D02*
Y32246D01*
X32148D01*
X19550Y29884D02*
X32148D01*
Y32246D01*
Y29884D02*
Y32246D01*
X44747D01*
X32148Y29884D02*
X44747D01*
Y32246D01*
Y29884D02*
Y32246D01*
X57345D01*
X44747Y29884D02*
X57345D01*
Y32246D01*
X19550D02*
Y34609D01*
X32148D01*
X19550Y32246D02*
X32148D01*
Y34609D01*
Y32246D02*
Y34609D01*
X44747D01*
X32148Y32246D02*
X44747D01*
Y34609D01*
Y32246D02*
Y34609D01*
X57345D01*
X44747Y32246D02*
X57345D01*
Y34609D01*
X19550D02*
Y36971D01*
X32148D01*
X19550Y34609D02*
X32148D01*
Y36971D01*
Y34609D02*
Y36971D01*
X44747D01*
X32148Y34609D02*
X44747D01*
Y36971D01*
Y34609D02*
Y36971D01*
X57345D01*
X44747Y34609D02*
X57345D01*
Y36971D01*
X19550D02*
Y39333D01*
X32148D01*
X19550Y36971D02*
X32148D01*
Y39333D01*
Y36971D02*
Y39333D01*
X44747D01*
X32148Y36971D02*
X44747D01*
Y39333D01*
Y36971D02*
Y39333D01*
X57345D01*
X44747Y36971D02*
X57345D01*
Y39333D01*
X19550D02*
Y41695D01*
X32148D01*
X19550Y39333D02*
X32148D01*
Y41695D01*
Y39333D02*
Y41695D01*
X44747D01*
X32148Y39333D02*
X44747D01*
Y41695D01*
Y39333D02*
Y41695D01*
X57345D01*
X44747Y39333D02*
X57345D01*
Y41695D01*
D21*
X25849Y5530D02*
D03*
X38448D02*
D03*
X51046D02*
D03*
X25849Y7892D02*
D03*
X38448D02*
D03*
X51046D02*
D03*
X25849Y10254D02*
D03*
X38448D02*
D03*
X51046D02*
D03*
X25849Y12617D02*
D03*
X38448D02*
D03*
X51046D02*
D03*
X25849Y14979D02*
D03*
X38448D02*
D03*
X51046D02*
D03*
X25849Y17341D02*
D03*
X38448D02*
D03*
X51046D02*
D03*
X25849Y19703D02*
D03*
X38448D02*
D03*
X51046D02*
D03*
X25849Y22065D02*
D03*
X38448D02*
D03*
X51046D02*
D03*
X25849Y24428D02*
D03*
X38448D02*
D03*
X51046D02*
D03*
X25849Y26790D02*
D03*
X38448D02*
D03*
X51046D02*
D03*
X25849Y29152D02*
D03*
X38448D02*
D03*
X51046D02*
D03*
X25849Y31514D02*
D03*
X38448D02*
D03*
X51046D02*
D03*
X25849Y33876D02*
D03*
X38448D02*
D03*
X51046D02*
D03*
X25849Y36239D02*
D03*
X38448D02*
D03*
X51046D02*
D03*
X25849Y38601D02*
D03*
X38448D02*
D03*
X51046D02*
D03*
X25849Y40963D02*
D03*
X38448D02*
D03*
X51046D02*
D03*
D22*
X25849Y4530D02*
D03*
X38448D02*
D03*
X51046D02*
D03*
X25849Y6892D02*
D03*
X38448D02*
D03*
X51046D02*
D03*
X25849Y9254D02*
D03*
X38448D02*
D03*
X51046D02*
D03*
X25849Y11617D02*
D03*
X38448D02*
D03*
X51046D02*
D03*
X25849Y13979D02*
D03*
X38448D02*
D03*
X51046D02*
D03*
X25849Y16341D02*
D03*
X38448D02*
D03*
X51046D02*
D03*
X25849Y18703D02*
D03*
X38448D02*
D03*
X51046D02*
D03*
X25849Y21065D02*
D03*
X38448D02*
D03*
X51046D02*
D03*
X25849Y23428D02*
D03*
X38448D02*
D03*
X51046D02*
D03*
X25849Y25790D02*
D03*
X38448D02*
D03*
X51046D02*
D03*
X25849Y28152D02*
D03*
X38448D02*
D03*
X51046D02*
D03*
X25849Y30514D02*
D03*
X38448D02*
D03*
X51046D02*
D03*
X25849Y32876D02*
D03*
X38448D02*
D03*
X51046D02*
D03*
X25849Y35239D02*
D03*
X38448D02*
D03*
X51046D02*
D03*
X25849Y37601D02*
D03*
X38448D02*
D03*
X51046D02*
D03*
X25849Y39963D02*
D03*
X38448D02*
D03*
X51046D02*
D03*
M02*
