G04 Layer_Color=2752767*
%FSLAX24Y24*%
%MOIN*%
G70*
G01*
G75*
%ADD13C,0.0100*%
%ADD23C,0.0020*%
D13*
X19550Y3900D02*
Y41700D01*
X57350D01*
Y3900D02*
Y41700D01*
X19550Y3900D02*
X57350D01*
X19550D02*
Y6262D01*
X32148D01*
X19550Y3900D02*
X32148D01*
Y6262D01*
Y3900D02*
Y6262D01*
X44747D01*
X32148Y3900D02*
X44747D01*
Y6262D01*
Y3900D02*
Y6262D01*
X57345D01*
X44747Y3900D02*
X57345D01*
Y6262D01*
X19550D02*
Y8624D01*
X32148D01*
X19550Y6262D02*
X32148D01*
Y8624D01*
Y6262D02*
Y8624D01*
X44747D01*
X32148Y6262D02*
X44747D01*
Y8624D01*
Y6262D02*
Y8624D01*
X57345D01*
X44747Y6262D02*
X57345D01*
Y8624D01*
X19550D02*
Y10987D01*
X32148D01*
X19550Y8624D02*
X32148D01*
Y10987D01*
Y8624D02*
Y10987D01*
X44747D01*
X32148Y8624D02*
X44747D01*
Y10987D01*
Y8624D02*
Y10987D01*
X57345D01*
X44747Y8624D02*
X57345D01*
Y10987D01*
X19550D02*
Y13349D01*
X32148D01*
X19550Y10987D02*
X32148D01*
Y13349D01*
Y10987D02*
Y13349D01*
X44747D01*
X32148Y10987D02*
X44747D01*
Y13349D01*
Y10987D02*
Y13349D01*
X57345D01*
X44747Y10987D02*
X57345D01*
Y13349D01*
X19550D02*
Y15711D01*
X32148D01*
X19550Y13349D02*
X32148D01*
Y15711D01*
Y13349D02*
Y15711D01*
X44747D01*
X32148Y13349D02*
X44747D01*
Y15711D01*
Y13349D02*
Y15711D01*
X57345D01*
X44747Y13349D02*
X57345D01*
Y15711D01*
X19550D02*
Y18073D01*
X32148D01*
X19550Y15711D02*
X32148D01*
Y18073D01*
Y15711D02*
Y18073D01*
X44747D01*
X32148Y15711D02*
X44747D01*
Y18073D01*
Y15711D02*
Y18073D01*
X57345D01*
X44747Y15711D02*
X57345D01*
Y18073D01*
X19550D02*
Y20435D01*
X32148D01*
X19550Y18073D02*
X32148D01*
Y20435D01*
Y18073D02*
Y20435D01*
X44747D01*
X32148Y18073D02*
X44747D01*
Y20435D01*
Y18073D02*
Y20435D01*
X57345D01*
X44747Y18073D02*
X57345D01*
Y20435D01*
X19550D02*
Y22798D01*
X32148D01*
X19550Y20435D02*
X32148D01*
Y22798D01*
Y20435D02*
Y22798D01*
X44747D01*
X32148Y20435D02*
X44747D01*
Y22798D01*
Y20435D02*
Y22798D01*
X57345D01*
X44747Y20435D02*
X57345D01*
Y22798D01*
X19550D02*
Y25160D01*
X32148D01*
X19550Y22798D02*
X32148D01*
Y25160D01*
Y22798D02*
Y25160D01*
X44747D01*
X32148Y22798D02*
X44747D01*
Y25160D01*
Y22798D02*
Y25160D01*
X57345D01*
X44747Y22798D02*
X57345D01*
Y25160D01*
X19550D02*
Y27522D01*
X32148D01*
X19550Y25160D02*
X32148D01*
Y27522D01*
Y25160D02*
Y27522D01*
X44747D01*
X32148Y25160D02*
X44747D01*
Y27522D01*
Y25160D02*
Y27522D01*
X57345D01*
X44747Y25160D02*
X57345D01*
Y27522D01*
X19550D02*
Y29884D01*
X32148D01*
X19550Y27522D02*
X32148D01*
Y29884D01*
Y27522D02*
Y29884D01*
X44747D01*
X32148Y27522D02*
X44747D01*
Y29884D01*
Y27522D02*
Y29884D01*
X57345D01*
X44747Y27522D02*
X57345D01*
Y29884D01*
X19550D02*
Y32246D01*
X32148D01*
X19550Y29884D02*
X32148D01*
Y32246D01*
Y29884D02*
Y32246D01*
X44747D01*
X32148Y29884D02*
X44747D01*
Y32246D01*
Y29884D02*
Y32246D01*
X57345D01*
X44747Y29884D02*
X57345D01*
Y32246D01*
X19550D02*
Y34609D01*
X32148D01*
X19550Y32246D02*
X32148D01*
Y34609D01*
Y32246D02*
Y34609D01*
X44747D01*
X32148Y32246D02*
X44747D01*
Y34609D01*
Y32246D02*
Y34609D01*
X57345D01*
X44747Y32246D02*
X57345D01*
Y34609D01*
X19550D02*
Y36971D01*
X32148D01*
X19550Y34609D02*
X32148D01*
Y36971D01*
Y34609D02*
Y36971D01*
X44747D01*
X32148Y34609D02*
X44747D01*
Y36971D01*
Y34609D02*
Y36971D01*
X57345D01*
X44747Y34609D02*
X57345D01*
Y36971D01*
X19550D02*
Y39333D01*
X32148D01*
X19550Y36971D02*
X32148D01*
Y39333D01*
Y36971D02*
Y39333D01*
X44747D01*
X32148Y36971D02*
X44747D01*
Y39333D01*
Y36971D02*
Y39333D01*
X57345D01*
X44747Y36971D02*
X57345D01*
Y39333D01*
X19550D02*
Y41695D01*
X32148D01*
X19550Y39333D02*
X32148D01*
Y41695D01*
Y39333D02*
Y41695D01*
X44747D01*
X32148Y39333D02*
X44747D01*
Y41695D01*
Y39333D02*
Y41695D01*
X57345D01*
X44747Y39333D02*
X57345D01*
Y41695D01*
D23*
X25769Y5450D02*
Y5610D01*
X25929D01*
Y5450D01*
X25769D01*
Y4450D02*
Y4610D01*
X25929D01*
Y4450D01*
X25769D01*
X38368Y5450D02*
Y5610D01*
X38528D01*
Y5450D01*
X38368D01*
Y4450D02*
Y4610D01*
X38528D01*
Y4450D01*
X38368D01*
X50966Y5450D02*
Y5610D01*
X51126D01*
Y5450D01*
X50966D01*
Y4450D02*
Y4610D01*
X51126D01*
Y4450D01*
X50966D01*
X25769Y7812D02*
Y7972D01*
X25929D01*
Y7812D01*
X25769D01*
Y6812D02*
Y6972D01*
X25929D01*
Y6812D01*
X25769D01*
X38368Y7812D02*
Y7972D01*
X38528D01*
Y7812D01*
X38368D01*
Y6812D02*
Y6972D01*
X38528D01*
Y6812D01*
X38368D01*
X50966Y7812D02*
Y7972D01*
X51126D01*
Y7812D01*
X50966D01*
Y6812D02*
Y6972D01*
X51126D01*
Y6812D01*
X50966D01*
X25769Y10174D02*
Y10334D01*
X25929D01*
Y10174D01*
X25769D01*
Y9174D02*
Y9334D01*
X25929D01*
Y9174D01*
X25769D01*
X38368Y10174D02*
Y10334D01*
X38528D01*
Y10174D01*
X38368D01*
Y9174D02*
Y9334D01*
X38528D01*
Y9174D01*
X38368D01*
X50966Y10174D02*
Y10334D01*
X51126D01*
Y10174D01*
X50966D01*
Y9174D02*
Y9334D01*
X51126D01*
Y9174D01*
X50966D01*
X25769Y12537D02*
Y12697D01*
X25929D01*
Y12537D01*
X25769D01*
Y11537D02*
Y11697D01*
X25929D01*
Y11537D01*
X25769D01*
X38368Y12537D02*
Y12697D01*
X38528D01*
Y12537D01*
X38368D01*
Y11537D02*
Y11697D01*
X38528D01*
Y11537D01*
X38368D01*
X50966Y12537D02*
Y12697D01*
X51126D01*
Y12537D01*
X50966D01*
Y11537D02*
Y11697D01*
X51126D01*
Y11537D01*
X50966D01*
X25769Y14899D02*
Y15059D01*
X25929D01*
Y14899D01*
X25769D01*
Y13899D02*
Y14059D01*
X25929D01*
Y13899D01*
X25769D01*
X38368Y14899D02*
Y15059D01*
X38528D01*
Y14899D01*
X38368D01*
Y13899D02*
Y14059D01*
X38528D01*
Y13899D01*
X38368D01*
X50966Y14899D02*
Y15059D01*
X51126D01*
Y14899D01*
X50966D01*
Y13899D02*
Y14059D01*
X51126D01*
Y13899D01*
X50966D01*
X25769Y17261D02*
Y17421D01*
X25929D01*
Y17261D01*
X25769D01*
Y16261D02*
Y16421D01*
X25929D01*
Y16261D01*
X25769D01*
X38368Y17261D02*
Y17421D01*
X38528D01*
Y17261D01*
X38368D01*
Y16261D02*
Y16421D01*
X38528D01*
Y16261D01*
X38368D01*
X50966Y17261D02*
Y17421D01*
X51126D01*
Y17261D01*
X50966D01*
Y16261D02*
Y16421D01*
X51126D01*
Y16261D01*
X50966D01*
X25769Y19623D02*
Y19783D01*
X25929D01*
Y19623D01*
X25769D01*
Y18623D02*
Y18783D01*
X25929D01*
Y18623D01*
X25769D01*
X38368Y19623D02*
Y19783D01*
X38528D01*
Y19623D01*
X38368D01*
Y18623D02*
Y18783D01*
X38528D01*
Y18623D01*
X38368D01*
X50966Y19623D02*
Y19783D01*
X51126D01*
Y19623D01*
X50966D01*
Y18623D02*
Y18783D01*
X51126D01*
Y18623D01*
X50966D01*
X25769Y21985D02*
Y22145D01*
X25929D01*
Y21985D01*
X25769D01*
Y20985D02*
Y21145D01*
X25929D01*
Y20985D01*
X25769D01*
X38368Y21985D02*
Y22145D01*
X38528D01*
Y21985D01*
X38368D01*
Y20985D02*
Y21145D01*
X38528D01*
Y20985D01*
X38368D01*
X50966Y21985D02*
Y22145D01*
X51126D01*
Y21985D01*
X50966D01*
Y20985D02*
Y21145D01*
X51126D01*
Y20985D01*
X50966D01*
X25769Y24348D02*
Y24508D01*
X25929D01*
Y24348D01*
X25769D01*
Y23348D02*
Y23508D01*
X25929D01*
Y23348D01*
X25769D01*
X38368Y24348D02*
Y24508D01*
X38528D01*
Y24348D01*
X38368D01*
Y23348D02*
Y23508D01*
X38528D01*
Y23348D01*
X38368D01*
X50966Y24348D02*
Y24508D01*
X51126D01*
Y24348D01*
X50966D01*
Y23348D02*
Y23508D01*
X51126D01*
Y23348D01*
X50966D01*
X25769Y26710D02*
Y26870D01*
X25929D01*
Y26710D01*
X25769D01*
Y25710D02*
Y25870D01*
X25929D01*
Y25710D01*
X25769D01*
X38368Y26710D02*
Y26870D01*
X38528D01*
Y26710D01*
X38368D01*
Y25710D02*
Y25870D01*
X38528D01*
Y25710D01*
X38368D01*
X50966Y26710D02*
Y26870D01*
X51126D01*
Y26710D01*
X50966D01*
Y25710D02*
Y25870D01*
X51126D01*
Y25710D01*
X50966D01*
X25769Y29072D02*
Y29232D01*
X25929D01*
Y29072D01*
X25769D01*
Y28072D02*
Y28232D01*
X25929D01*
Y28072D01*
X25769D01*
X38368Y29072D02*
Y29232D01*
X38528D01*
Y29072D01*
X38368D01*
Y28072D02*
Y28232D01*
X38528D01*
Y28072D01*
X38368D01*
X50966Y29072D02*
Y29232D01*
X51126D01*
Y29072D01*
X50966D01*
Y28072D02*
Y28232D01*
X51126D01*
Y28072D01*
X50966D01*
X25769Y31434D02*
Y31594D01*
X25929D01*
Y31434D01*
X25769D01*
Y30434D02*
Y30594D01*
X25929D01*
Y30434D01*
X25769D01*
X38368Y31434D02*
Y31594D01*
X38528D01*
Y31434D01*
X38368D01*
Y30434D02*
Y30594D01*
X38528D01*
Y30434D01*
X38368D01*
X50966Y31434D02*
Y31594D01*
X51126D01*
Y31434D01*
X50966D01*
Y30434D02*
Y30594D01*
X51126D01*
Y30434D01*
X50966D01*
X25769Y33796D02*
Y33956D01*
X25929D01*
Y33796D01*
X25769D01*
Y32796D02*
Y32956D01*
X25929D01*
Y32796D01*
X25769D01*
X38368Y33796D02*
Y33956D01*
X38528D01*
Y33796D01*
X38368D01*
Y32796D02*
Y32956D01*
X38528D01*
Y32796D01*
X38368D01*
X50966Y33796D02*
Y33956D01*
X51126D01*
Y33796D01*
X50966D01*
Y32796D02*
Y32956D01*
X51126D01*
Y32796D01*
X50966D01*
X25769Y36159D02*
Y36319D01*
X25929D01*
Y36159D01*
X25769D01*
Y35159D02*
Y35319D01*
X25929D01*
Y35159D01*
X25769D01*
X38368Y36159D02*
Y36319D01*
X38528D01*
Y36159D01*
X38368D01*
Y35159D02*
Y35319D01*
X38528D01*
Y35159D01*
X38368D01*
X50966Y36159D02*
Y36319D01*
X51126D01*
Y36159D01*
X50966D01*
Y35159D02*
Y35319D01*
X51126D01*
Y35159D01*
X50966D01*
X25769Y38521D02*
Y38681D01*
X25929D01*
Y38521D01*
X25769D01*
Y37521D02*
Y37681D01*
X25929D01*
Y37521D01*
X25769D01*
X38368Y38521D02*
Y38681D01*
X38528D01*
Y38521D01*
X38368D01*
Y37521D02*
Y37681D01*
X38528D01*
Y37521D01*
X38368D01*
X50966Y38521D02*
Y38681D01*
X51126D01*
Y38521D01*
X50966D01*
Y37521D02*
Y37681D01*
X51126D01*
Y37521D01*
X50966D01*
X25769Y40883D02*
Y41043D01*
X25929D01*
Y40883D01*
X25769D01*
Y39883D02*
Y40043D01*
X25929D01*
Y39883D01*
X25769D01*
X38368Y40883D02*
Y41043D01*
X38528D01*
Y40883D01*
X38368D01*
Y39883D02*
Y40043D01*
X38528D01*
Y39883D01*
X38368D01*
X50966Y40883D02*
Y41043D01*
X51126D01*
Y40883D01*
X50966D01*
Y39883D02*
Y40043D01*
X51126D01*
Y39883D01*
X50966D01*
M02*
