G04 Layer_Color=8388736*
%FSLAX24Y24*%
%MOIN*%
G70*
G01*
G75*
%ADD13C,0.0100*%
%ADD18R,0.0552X0.0631*%
%ADD19R,0.0391X0.0749*%
%ADD20R,0.0391X0.0395*%
%ADD21C,0.0671*%
%ADD22R,0.0671X0.0671*%
D13*
X19550Y3900D02*
Y41700D01*
X57350D01*
Y3900D02*
Y41700D01*
X19550Y3900D02*
X57350D01*
X19550D02*
Y6262D01*
X32148D01*
X19550Y3900D02*
X32148D01*
Y6262D01*
Y3900D02*
Y6262D01*
X44747D01*
X32148Y3900D02*
X44747D01*
Y6262D01*
Y3900D02*
Y6262D01*
X57345D01*
X44747Y3900D02*
X57345D01*
Y6262D01*
X19550D02*
Y8624D01*
X32148D01*
X19550Y6262D02*
X32148D01*
Y8624D01*
Y6262D02*
Y8624D01*
X44747D01*
X32148Y6262D02*
X44747D01*
Y8624D01*
Y6262D02*
Y8624D01*
X57345D01*
X44747Y6262D02*
X57345D01*
Y8624D01*
X19550D02*
Y10987D01*
X32148D01*
X19550Y8624D02*
X32148D01*
Y10987D01*
Y8624D02*
Y10987D01*
X44747D01*
X32148Y8624D02*
X44747D01*
Y10987D01*
Y8624D02*
Y10987D01*
X57345D01*
X44747Y8624D02*
X57345D01*
Y10987D01*
X19550D02*
Y13349D01*
X32148D01*
X19550Y10987D02*
X32148D01*
Y13349D01*
Y10987D02*
Y13349D01*
X44747D01*
X32148Y10987D02*
X44747D01*
Y13349D01*
Y10987D02*
Y13349D01*
X57345D01*
X44747Y10987D02*
X57345D01*
Y13349D01*
X19550D02*
Y15711D01*
X32148D01*
X19550Y13349D02*
X32148D01*
Y15711D01*
Y13349D02*
Y15711D01*
X44747D01*
X32148Y13349D02*
X44747D01*
Y15711D01*
Y13349D02*
Y15711D01*
X57345D01*
X44747Y13349D02*
X57345D01*
Y15711D01*
X19550D02*
Y18073D01*
X32148D01*
X19550Y15711D02*
X32148D01*
Y18073D01*
Y15711D02*
Y18073D01*
X44747D01*
X32148Y15711D02*
X44747D01*
Y18073D01*
Y15711D02*
Y18073D01*
X57345D01*
X44747Y15711D02*
X57345D01*
Y18073D01*
X19550D02*
Y20435D01*
X32148D01*
X19550Y18073D02*
X32148D01*
Y20435D01*
Y18073D02*
Y20435D01*
X44747D01*
X32148Y18073D02*
X44747D01*
Y20435D01*
Y18073D02*
Y20435D01*
X57345D01*
X44747Y18073D02*
X57345D01*
Y20435D01*
X19550D02*
Y22798D01*
X32148D01*
X19550Y20435D02*
X32148D01*
Y22798D01*
Y20435D02*
Y22798D01*
X44747D01*
X32148Y20435D02*
X44747D01*
Y22798D01*
Y20435D02*
Y22798D01*
X57345D01*
X44747Y20435D02*
X57345D01*
Y22798D01*
X19550D02*
Y25160D01*
X32148D01*
X19550Y22798D02*
X32148D01*
Y25160D01*
Y22798D02*
Y25160D01*
X44747D01*
X32148Y22798D02*
X44747D01*
Y25160D01*
Y22798D02*
Y25160D01*
X57345D01*
X44747Y22798D02*
X57345D01*
Y25160D01*
X19550D02*
Y27522D01*
X32148D01*
X19550Y25160D02*
X32148D01*
Y27522D01*
Y25160D02*
Y27522D01*
X44747D01*
X32148Y25160D02*
X44747D01*
Y27522D01*
Y25160D02*
Y27522D01*
X57345D01*
X44747Y25160D02*
X57345D01*
Y27522D01*
X19550D02*
Y29884D01*
X32148D01*
X19550Y27522D02*
X32148D01*
Y29884D01*
Y27522D02*
Y29884D01*
X44747D01*
X32148Y27522D02*
X44747D01*
Y29884D01*
Y27522D02*
Y29884D01*
X57345D01*
X44747Y27522D02*
X57345D01*
Y29884D01*
X19550D02*
Y32246D01*
X32148D01*
X19550Y29884D02*
X32148D01*
Y32246D01*
Y29884D02*
Y32246D01*
X44747D01*
X32148Y29884D02*
X44747D01*
Y32246D01*
Y29884D02*
Y32246D01*
X57345D01*
X44747Y29884D02*
X57345D01*
Y32246D01*
X19550D02*
Y34609D01*
X32148D01*
X19550Y32246D02*
X32148D01*
Y34609D01*
Y32246D02*
Y34609D01*
X44747D01*
X32148Y32246D02*
X44747D01*
Y34609D01*
Y32246D02*
Y34609D01*
X57345D01*
X44747Y32246D02*
X57345D01*
Y34609D01*
X19550D02*
Y36971D01*
X32148D01*
X19550Y34609D02*
X32148D01*
Y36971D01*
Y34609D02*
Y36971D01*
X44747D01*
X32148Y34609D02*
X44747D01*
Y36971D01*
Y34609D02*
Y36971D01*
X57345D01*
X44747Y34609D02*
X57345D01*
Y36971D01*
X19550D02*
Y39333D01*
X32148D01*
X19550Y36971D02*
X32148D01*
Y39333D01*
Y36971D02*
Y39333D01*
X44747D01*
X32148Y36971D02*
X44747D01*
Y39333D01*
Y36971D02*
Y39333D01*
X57345D01*
X44747Y36971D02*
X57345D01*
Y39333D01*
X19550D02*
Y41695D01*
X32148D01*
X19550Y39333D02*
X32148D01*
Y41695D01*
Y39333D02*
Y41695D01*
X44747D01*
X32148Y39333D02*
X44747D01*
Y41695D01*
Y39333D02*
Y41695D01*
X57345D01*
X44747Y39333D02*
X57345D01*
Y41695D01*
D18*
X30354Y4491D02*
D03*
X29646D02*
D03*
X21296Y4491D02*
D03*
X22004D02*
D03*
X42953Y4491D02*
D03*
X42244D02*
D03*
X33894Y4491D02*
D03*
X34603D02*
D03*
X55551Y4491D02*
D03*
X54843D02*
D03*
X46493Y4491D02*
D03*
X47201D02*
D03*
X30354Y6853D02*
D03*
X29646D02*
D03*
X21296Y6853D02*
D03*
X22004D02*
D03*
X42953Y6853D02*
D03*
X42244D02*
D03*
X33894Y6853D02*
D03*
X34603D02*
D03*
X55551Y6853D02*
D03*
X54843D02*
D03*
X46493Y6853D02*
D03*
X47201D02*
D03*
X30354Y9215D02*
D03*
X29646D02*
D03*
X21296Y9215D02*
D03*
X22004D02*
D03*
X42953Y9215D02*
D03*
X42244D02*
D03*
X33894Y9215D02*
D03*
X34603D02*
D03*
X55551Y9215D02*
D03*
X54843D02*
D03*
X46493Y9215D02*
D03*
X47201D02*
D03*
X30354Y11577D02*
D03*
X29646D02*
D03*
X21296Y11577D02*
D03*
X22004D02*
D03*
X42953Y11577D02*
D03*
X42244D02*
D03*
X33894Y11577D02*
D03*
X34603D02*
D03*
X55551Y11577D02*
D03*
X54843D02*
D03*
X46493Y11577D02*
D03*
X47201D02*
D03*
X30354Y13939D02*
D03*
X29646D02*
D03*
X21296Y13939D02*
D03*
X22004D02*
D03*
X42953Y13939D02*
D03*
X42244D02*
D03*
X33894Y13939D02*
D03*
X34603D02*
D03*
X55551Y13939D02*
D03*
X54843D02*
D03*
X46493Y13939D02*
D03*
X47201D02*
D03*
X30354Y16302D02*
D03*
X29646D02*
D03*
X21296Y16302D02*
D03*
X22004D02*
D03*
X42953Y16302D02*
D03*
X42244D02*
D03*
X33894Y16302D02*
D03*
X34603D02*
D03*
X55551Y16302D02*
D03*
X54843D02*
D03*
X46493Y16302D02*
D03*
X47201D02*
D03*
X30354Y18664D02*
D03*
X29646D02*
D03*
X21296Y18664D02*
D03*
X22004D02*
D03*
X42953Y18664D02*
D03*
X42244D02*
D03*
X33894Y18664D02*
D03*
X34603D02*
D03*
X55551Y18664D02*
D03*
X54843D02*
D03*
X46493Y18664D02*
D03*
X47201D02*
D03*
X30354Y21026D02*
D03*
X29646D02*
D03*
X21296Y21026D02*
D03*
X22004D02*
D03*
X42953Y21026D02*
D03*
X42244D02*
D03*
X33894Y21026D02*
D03*
X34603D02*
D03*
X55551Y21026D02*
D03*
X54843D02*
D03*
X46493Y21026D02*
D03*
X47201D02*
D03*
X30354Y23388D02*
D03*
X29646D02*
D03*
X21296Y23388D02*
D03*
X22004D02*
D03*
X42953Y23388D02*
D03*
X42244D02*
D03*
X33894Y23388D02*
D03*
X34603D02*
D03*
X55551Y23388D02*
D03*
X54843D02*
D03*
X46493Y23388D02*
D03*
X47201D02*
D03*
X30354Y25750D02*
D03*
X29646D02*
D03*
X21296Y25750D02*
D03*
X22004D02*
D03*
X42953Y25750D02*
D03*
X42244D02*
D03*
X33894Y25750D02*
D03*
X34603D02*
D03*
X55551Y25750D02*
D03*
X54843D02*
D03*
X46493Y25750D02*
D03*
X47201D02*
D03*
X30354Y28113D02*
D03*
X29646D02*
D03*
X21296Y28113D02*
D03*
X22004D02*
D03*
X42953Y28113D02*
D03*
X42244D02*
D03*
X33894Y28113D02*
D03*
X34603D02*
D03*
X55551Y28113D02*
D03*
X54843D02*
D03*
X46493Y28113D02*
D03*
X47201D02*
D03*
X30354Y30475D02*
D03*
X29646D02*
D03*
X21296Y30475D02*
D03*
X22004D02*
D03*
X42953Y30475D02*
D03*
X42244D02*
D03*
X33894Y30475D02*
D03*
X34603D02*
D03*
X55551Y30475D02*
D03*
X54843D02*
D03*
X46493Y30475D02*
D03*
X47201D02*
D03*
X30354Y32837D02*
D03*
X29646D02*
D03*
X21296Y32837D02*
D03*
X22004D02*
D03*
X42953Y32837D02*
D03*
X42244D02*
D03*
X33894Y32837D02*
D03*
X34603D02*
D03*
X55551Y32837D02*
D03*
X54843D02*
D03*
X46493Y32837D02*
D03*
X47201D02*
D03*
X30354Y35199D02*
D03*
X29646D02*
D03*
X21296Y35199D02*
D03*
X22004D02*
D03*
X42953Y35199D02*
D03*
X42244D02*
D03*
X33894Y35199D02*
D03*
X34603D02*
D03*
X55551Y35199D02*
D03*
X54843D02*
D03*
X46493Y35199D02*
D03*
X47201D02*
D03*
X30354Y37561D02*
D03*
X29646D02*
D03*
X21296Y37561D02*
D03*
X22004D02*
D03*
X42953Y37561D02*
D03*
X42244D02*
D03*
X33894Y37561D02*
D03*
X34603D02*
D03*
X55551Y37561D02*
D03*
X54843D02*
D03*
X46493Y37561D02*
D03*
X47201D02*
D03*
X30354Y39924D02*
D03*
X29646D02*
D03*
X21296Y39924D02*
D03*
X22004D02*
D03*
X42953Y39924D02*
D03*
X42244D02*
D03*
X33894Y39924D02*
D03*
X34603D02*
D03*
X55551Y39924D02*
D03*
X54843D02*
D03*
X46493Y39924D02*
D03*
X47201D02*
D03*
D19*
X31558Y5475D02*
D03*
X20141D02*
D03*
X44156D02*
D03*
X32739D02*
D03*
X56755D02*
D03*
X45337D02*
D03*
X31558Y7837D02*
D03*
X20141D02*
D03*
X44156D02*
D03*
X32739D02*
D03*
X56755D02*
D03*
X45337D02*
D03*
X31558Y10199D02*
D03*
X20141D02*
D03*
X44156D02*
D03*
X32739D02*
D03*
X56755D02*
D03*
X45337D02*
D03*
X31558Y12561D02*
D03*
X20141D02*
D03*
X44156D02*
D03*
X32739D02*
D03*
X56755D02*
D03*
X45337D02*
D03*
X31558Y14924D02*
D03*
X20141D02*
D03*
X44156D02*
D03*
X32739D02*
D03*
X56755D02*
D03*
X45337D02*
D03*
X31558Y17286D02*
D03*
X20141D02*
D03*
X44156D02*
D03*
X32739D02*
D03*
X56755D02*
D03*
X45337D02*
D03*
X31558Y19648D02*
D03*
X20141D02*
D03*
X44156D02*
D03*
X32739D02*
D03*
X56755D02*
D03*
X45337D02*
D03*
X31558Y22010D02*
D03*
X20141D02*
D03*
X44156D02*
D03*
X32739D02*
D03*
X56755D02*
D03*
X45337D02*
D03*
X31558Y24372D02*
D03*
X20141D02*
D03*
X44156D02*
D03*
X32739D02*
D03*
X56755D02*
D03*
X45337D02*
D03*
X31558Y26735D02*
D03*
X20141D02*
D03*
X44156D02*
D03*
X32739D02*
D03*
X56755D02*
D03*
X45337D02*
D03*
X31558Y29097D02*
D03*
X20141D02*
D03*
X44156D02*
D03*
X32739D02*
D03*
X56755D02*
D03*
X45337D02*
D03*
X31558Y31459D02*
D03*
X20141D02*
D03*
X44156D02*
D03*
X32739D02*
D03*
X56755D02*
D03*
X45337D02*
D03*
X31558Y33821D02*
D03*
X20141D02*
D03*
X44156D02*
D03*
X32739D02*
D03*
X56755D02*
D03*
X45337D02*
D03*
X31558Y36183D02*
D03*
X20141D02*
D03*
X44156D02*
D03*
X32739D02*
D03*
X56755D02*
D03*
X45337D02*
D03*
X31558Y38546D02*
D03*
X20141D02*
D03*
X44156D02*
D03*
X32739D02*
D03*
X56755D02*
D03*
X45337D02*
D03*
X31558Y40908D02*
D03*
X20141D02*
D03*
X44156D02*
D03*
X32739D02*
D03*
X56755D02*
D03*
X45337D02*
D03*
D20*
X31558Y4451D02*
D03*
X20141D02*
D03*
X44156D02*
D03*
X32739D02*
D03*
X56755D02*
D03*
X45337D02*
D03*
X31558Y6813D02*
D03*
X20141D02*
D03*
X44156D02*
D03*
X32739D02*
D03*
X56755D02*
D03*
X45337D02*
D03*
X31558Y9176D02*
D03*
X20141D02*
D03*
X44156D02*
D03*
X32739D02*
D03*
X56755D02*
D03*
X45337D02*
D03*
X31558Y11538D02*
D03*
X20141D02*
D03*
X44156D02*
D03*
X32739D02*
D03*
X56755D02*
D03*
X45337D02*
D03*
X31558Y13900D02*
D03*
X20141D02*
D03*
X44156D02*
D03*
X32739D02*
D03*
X56755D02*
D03*
X45337D02*
D03*
X31558Y16262D02*
D03*
X20141D02*
D03*
X44156D02*
D03*
X32739D02*
D03*
X56755D02*
D03*
X45337D02*
D03*
X31558Y18624D02*
D03*
X20141D02*
D03*
X44156D02*
D03*
X32739D02*
D03*
X56755D02*
D03*
X45337D02*
D03*
X31558Y20987D02*
D03*
X20141D02*
D03*
X44156D02*
D03*
X32739D02*
D03*
X56755D02*
D03*
X45337D02*
D03*
X31558Y23349D02*
D03*
X20141D02*
D03*
X44156D02*
D03*
X32739D02*
D03*
X56755D02*
D03*
X45337D02*
D03*
X31558Y25711D02*
D03*
X20141D02*
D03*
X44156D02*
D03*
X32739D02*
D03*
X56755D02*
D03*
X45337D02*
D03*
X31558Y28073D02*
D03*
X20141D02*
D03*
X44156D02*
D03*
X32739D02*
D03*
X56755D02*
D03*
X45337D02*
D03*
X31558Y30435D02*
D03*
X20141D02*
D03*
X44156D02*
D03*
X32739D02*
D03*
X56755D02*
D03*
X45337D02*
D03*
X31558Y32798D02*
D03*
X20141D02*
D03*
X44156D02*
D03*
X32739D02*
D03*
X56755D02*
D03*
X45337D02*
D03*
X31558Y35160D02*
D03*
X20141D02*
D03*
X44156D02*
D03*
X32739D02*
D03*
X56755D02*
D03*
X45337D02*
D03*
X31558Y37522D02*
D03*
X20141D02*
D03*
X44156D02*
D03*
X32739D02*
D03*
X56755D02*
D03*
X45337D02*
D03*
X31558Y39884D02*
D03*
X20141D02*
D03*
X44156D02*
D03*
X32739D02*
D03*
X56755D02*
D03*
X45337D02*
D03*
D21*
X25849Y5530D02*
D03*
X38448D02*
D03*
X51046D02*
D03*
X25849Y7892D02*
D03*
X38448D02*
D03*
X51046D02*
D03*
X25849Y10254D02*
D03*
X38448D02*
D03*
X51046D02*
D03*
X25849Y12617D02*
D03*
X38448D02*
D03*
X51046D02*
D03*
X25849Y14979D02*
D03*
X38448D02*
D03*
X51046D02*
D03*
X25849Y17341D02*
D03*
X38448D02*
D03*
X51046D02*
D03*
X25849Y19703D02*
D03*
X38448D02*
D03*
X51046D02*
D03*
X25849Y22065D02*
D03*
X38448D02*
D03*
X51046D02*
D03*
X25849Y24428D02*
D03*
X38448D02*
D03*
X51046D02*
D03*
X25849Y26790D02*
D03*
X38448D02*
D03*
X51046D02*
D03*
X25849Y29152D02*
D03*
X38448D02*
D03*
X51046D02*
D03*
X25849Y31514D02*
D03*
X38448D02*
D03*
X51046D02*
D03*
X25849Y33876D02*
D03*
X38448D02*
D03*
X51046D02*
D03*
X25849Y36239D02*
D03*
X38448D02*
D03*
X51046D02*
D03*
X25849Y38601D02*
D03*
X38448D02*
D03*
X51046D02*
D03*
X25849Y40963D02*
D03*
X38448D02*
D03*
X51046D02*
D03*
D22*
X25849Y4530D02*
D03*
X38448D02*
D03*
X51046D02*
D03*
X25849Y6892D02*
D03*
X38448D02*
D03*
X51046D02*
D03*
X25849Y9254D02*
D03*
X38448D02*
D03*
X51046D02*
D03*
X25849Y11617D02*
D03*
X38448D02*
D03*
X51046D02*
D03*
X25849Y13979D02*
D03*
X38448D02*
D03*
X51046D02*
D03*
X25849Y16341D02*
D03*
X38448D02*
D03*
X51046D02*
D03*
X25849Y18703D02*
D03*
X38448D02*
D03*
X51046D02*
D03*
X25849Y21065D02*
D03*
X38448D02*
D03*
X51046D02*
D03*
X25849Y23428D02*
D03*
X38448D02*
D03*
X51046D02*
D03*
X25849Y25790D02*
D03*
X38448D02*
D03*
X51046D02*
D03*
X25849Y28152D02*
D03*
X38448D02*
D03*
X51046D02*
D03*
X25849Y30514D02*
D03*
X38448D02*
D03*
X51046D02*
D03*
X25849Y32876D02*
D03*
X38448D02*
D03*
X51046D02*
D03*
X25849Y35239D02*
D03*
X38448D02*
D03*
X51046D02*
D03*
X25849Y37601D02*
D03*
X38448D02*
D03*
X51046D02*
D03*
X25849Y39963D02*
D03*
X38448D02*
D03*
X51046D02*
D03*
M02*
