M48
;Layer_Color=9474304
;FILE_FORMAT=2:4
INCH,LZ
;TYPE=PLATED
T1F00S00C0.0354
%
T01
X025849Y00453
Y00553
Y006892
Y007892
Y009254
Y010254
Y011617
Y012617
Y013979
Y014979
X038448
Y013979
Y012617
Y011617
Y010254
Y009254
Y007892
Y006892
Y00553
Y00453
X051046
Y00553
Y006892
Y007892
Y009254
Y010254
Y011617
Y012617
Y013979
Y014979
Y016341
Y017341
Y018703
Y019703
Y021065
Y022065
Y023428
Y024428
Y02579
Y02679
Y028152
Y029152
Y030514
X038448
Y029152
Y028152
Y02679
Y02579
Y024428
Y023428
Y022065
Y021065
Y019703
Y018703
Y017341
Y016341
X025849
Y017341
Y018703
Y019703
Y021065
Y022065
Y023428
Y024428
Y02579
Y02679
Y028152
Y029152
Y030514
Y031514
Y032876
Y033876
Y035239
Y036239
Y037601
Y038601
Y039963
Y040963
X038448
Y039963
Y038601
Y037601
Y036239
Y035239
Y033876
Y032876
Y031514
X051046
Y032876
Y033876
Y035239
Y036239
Y037601
Y038601
Y039963
Y040963
M30
