G04 Layer_Color=128*
%FSLAX43Y43*%
%MOMM*%
G71*
G01*
G75*
%ADD13C,0.254*%
D13*
X49657Y9906D02*
X145669D01*
Y105918D01*
X49657D02*
X145669D01*
X49657Y9906D02*
Y105918D01*
X81657Y9906D02*
Y15906D01*
X49657Y9906D02*
X81657D01*
X49657Y15906D02*
X81657D01*
X49657Y9906D02*
Y15906D01*
X113657Y9906D02*
Y15906D01*
X81657Y9906D02*
X113657D01*
X81657Y15906D02*
X113657D01*
X81657Y9906D02*
Y15906D01*
X145657Y9906D02*
Y15906D01*
X113657Y9906D02*
X145657D01*
X113657Y15906D02*
X145657D01*
X113657Y9906D02*
Y15906D01*
X81657D02*
Y21906D01*
X49657Y15906D02*
X81657D01*
X49657Y21906D02*
X81657D01*
X49657Y15906D02*
Y21906D01*
X113657Y15906D02*
Y21906D01*
X81657Y15906D02*
X113657D01*
X81657Y21906D02*
X113657D01*
X81657Y15906D02*
Y21906D01*
X145657Y15906D02*
Y21906D01*
X113657Y15906D02*
X145657D01*
X113657Y21906D02*
X145657D01*
X113657Y15906D02*
Y21906D01*
X81657D02*
Y27906D01*
X49657Y21906D02*
X81657D01*
X49657Y27906D02*
X81657D01*
X49657Y21906D02*
Y27906D01*
X113657Y21906D02*
Y27906D01*
X81657Y21906D02*
X113657D01*
X81657Y27906D02*
X113657D01*
X81657Y21906D02*
Y27906D01*
X145657Y21906D02*
Y27906D01*
X113657Y21906D02*
X145657D01*
X113657Y27906D02*
X145657D01*
X113657Y21906D02*
Y27906D01*
X81657D02*
Y33906D01*
X49657Y27906D02*
X81657D01*
X49657Y33906D02*
X81657D01*
X49657Y27906D02*
Y33906D01*
X113657Y27906D02*
Y33906D01*
X81657Y27906D02*
X113657D01*
X81657Y33906D02*
X113657D01*
X81657Y27906D02*
Y33906D01*
X145657Y27906D02*
Y33906D01*
X113657Y27906D02*
X145657D01*
X113657Y33906D02*
X145657D01*
X113657Y27906D02*
Y33906D01*
X81657D02*
Y39906D01*
X49657Y33906D02*
X81657D01*
X49657Y39906D02*
X81657D01*
X49657Y33906D02*
Y39906D01*
X113657Y33906D02*
Y39906D01*
X81657Y33906D02*
X113657D01*
X81657Y39906D02*
X113657D01*
X81657Y33906D02*
Y39906D01*
X145657Y33906D02*
Y39906D01*
X113657Y33906D02*
X145657D01*
X113657Y39906D02*
X145657D01*
X113657Y33906D02*
Y39906D01*
X81657D02*
Y45906D01*
X49657Y39906D02*
X81657D01*
X49657Y45906D02*
X81657D01*
X49657Y39906D02*
Y45906D01*
X113657Y39906D02*
Y45906D01*
X81657Y39906D02*
X113657D01*
X81657Y45906D02*
X113657D01*
X81657Y39906D02*
Y45906D01*
X145657Y39906D02*
Y45906D01*
X113657Y39906D02*
X145657D01*
X113657Y45906D02*
X145657D01*
X113657Y39906D02*
Y45906D01*
X81657D02*
Y51906D01*
X49657Y45906D02*
X81657D01*
X49657Y51906D02*
X81657D01*
X49657Y45906D02*
Y51906D01*
X113657Y45906D02*
Y51906D01*
X81657Y45906D02*
X113657D01*
X81657Y51906D02*
X113657D01*
X81657Y45906D02*
Y51906D01*
X145657Y45906D02*
Y51906D01*
X113657Y45906D02*
X145657D01*
X113657Y51906D02*
X145657D01*
X113657Y45906D02*
Y51906D01*
X81657D02*
Y57906D01*
X49657Y51906D02*
X81657D01*
X49657Y57906D02*
X81657D01*
X49657Y51906D02*
Y57906D01*
X113657Y51906D02*
Y57906D01*
X81657Y51906D02*
X113657D01*
X81657Y57906D02*
X113657D01*
X81657Y51906D02*
Y57906D01*
X145657Y51906D02*
Y57906D01*
X113657Y51906D02*
X145657D01*
X113657Y57906D02*
X145657D01*
X113657Y51906D02*
Y57906D01*
X81657D02*
Y63906D01*
X49657Y57906D02*
X81657D01*
X49657Y63906D02*
X81657D01*
X49657Y57906D02*
Y63906D01*
X113657Y57906D02*
Y63906D01*
X81657Y57906D02*
X113657D01*
X81657Y63906D02*
X113657D01*
X81657Y57906D02*
Y63906D01*
X145657Y57906D02*
Y63906D01*
X113657Y57906D02*
X145657D01*
X113657Y63906D02*
X145657D01*
X113657Y57906D02*
Y63906D01*
X81657D02*
Y69906D01*
X49657Y63906D02*
X81657D01*
X49657Y69906D02*
X81657D01*
X49657Y63906D02*
Y69906D01*
X113657Y63906D02*
Y69906D01*
X81657Y63906D02*
X113657D01*
X81657Y69906D02*
X113657D01*
X81657Y63906D02*
Y69906D01*
X145657Y63906D02*
Y69906D01*
X113657Y63906D02*
X145657D01*
X113657Y69906D02*
X145657D01*
X113657Y63906D02*
Y69906D01*
X81657D02*
Y75906D01*
X49657Y69906D02*
X81657D01*
X49657Y75906D02*
X81657D01*
X49657Y69906D02*
Y75906D01*
X113657Y69906D02*
Y75906D01*
X81657Y69906D02*
X113657D01*
X81657Y75906D02*
X113657D01*
X81657Y69906D02*
Y75906D01*
X145657Y69906D02*
Y75906D01*
X113657Y69906D02*
X145657D01*
X113657Y75906D02*
X145657D01*
X113657Y69906D02*
Y75906D01*
X81657D02*
Y81906D01*
X49657Y75906D02*
X81657D01*
X49657Y81906D02*
X81657D01*
X49657Y75906D02*
Y81906D01*
X113657Y75906D02*
Y81906D01*
X81657Y75906D02*
X113657D01*
X81657Y81906D02*
X113657D01*
X81657Y75906D02*
Y81906D01*
X145657Y75906D02*
Y81906D01*
X113657Y75906D02*
X145657D01*
X113657Y81906D02*
X145657D01*
X113657Y75906D02*
Y81906D01*
X81657D02*
Y87906D01*
X49657Y81906D02*
X81657D01*
X49657Y87906D02*
X81657D01*
X49657Y81906D02*
Y87906D01*
X113657Y81906D02*
Y87906D01*
X81657Y81906D02*
X113657D01*
X81657Y87906D02*
X113657D01*
X81657Y81906D02*
Y87906D01*
X145657Y81906D02*
Y87906D01*
X113657Y81906D02*
X145657D01*
X113657Y87906D02*
X145657D01*
X113657Y81906D02*
Y87906D01*
X81657D02*
Y93906D01*
X49657Y87906D02*
X81657D01*
X49657Y93906D02*
X81657D01*
X49657Y87906D02*
Y93906D01*
X113657Y87906D02*
Y93906D01*
X81657Y87906D02*
X113657D01*
X81657Y93906D02*
X113657D01*
X81657Y87906D02*
Y93906D01*
X145657Y87906D02*
Y93906D01*
X113657Y87906D02*
X145657D01*
X113657Y93906D02*
X145657D01*
X113657Y87906D02*
Y93906D01*
X81657D02*
Y99906D01*
X49657Y93906D02*
X81657D01*
X49657Y99906D02*
X81657D01*
X49657Y93906D02*
Y99906D01*
X113657Y93906D02*
Y99906D01*
X81657Y93906D02*
X113657D01*
X81657Y99906D02*
X113657D01*
X81657Y93906D02*
Y99906D01*
X145657Y93906D02*
Y99906D01*
X113657Y93906D02*
X145657D01*
X113657Y99906D02*
X145657D01*
X113657Y93906D02*
Y99906D01*
X81657D02*
Y105906D01*
X49657Y99906D02*
X81657D01*
X49657Y105906D02*
X81657D01*
X49657Y99906D02*
Y105906D01*
X113657Y99906D02*
Y105906D01*
X81657Y99906D02*
X113657D01*
X81657Y105906D02*
X113657D01*
X81657Y99906D02*
Y105906D01*
X145657Y99906D02*
Y105906D01*
X113657Y99906D02*
X145657D01*
X113657Y105906D02*
X145657D01*
X113657Y99906D02*
Y105906D01*
M02*
