G04 Layer_Color=128*
%FSLAX24Y24*%
%MOIN*%
G70*
G01*
G75*
%ADD13C,0.0100*%
%ADD23C,0.0020*%
D13*
X19550Y3900D02*
Y41700D01*
X57350D01*
Y3900D02*
Y41700D01*
X19550Y3900D02*
X57350D01*
X19550D02*
Y6262D01*
X32148D01*
X19550Y3900D02*
X32148D01*
Y6262D01*
Y3900D02*
Y6262D01*
X44747D01*
X32148Y3900D02*
X44747D01*
Y6262D01*
Y3900D02*
Y6262D01*
X57345D01*
X44747Y3900D02*
X57345D01*
Y6262D01*
X19550D02*
Y8624D01*
X32148D01*
X19550Y6262D02*
X32148D01*
Y8624D01*
Y6262D02*
Y8624D01*
X44747D01*
X32148Y6262D02*
X44747D01*
Y8624D01*
Y6262D02*
Y8624D01*
X57345D01*
X44747Y6262D02*
X57345D01*
Y8624D01*
X19550D02*
Y10987D01*
X32148D01*
X19550Y8624D02*
X32148D01*
Y10987D01*
Y8624D02*
Y10987D01*
X44747D01*
X32148Y8624D02*
X44747D01*
Y10987D01*
Y8624D02*
Y10987D01*
X57345D01*
X44747Y8624D02*
X57345D01*
Y10987D01*
X19550D02*
Y13349D01*
X32148D01*
X19550Y10987D02*
X32148D01*
Y13349D01*
Y10987D02*
Y13349D01*
X44747D01*
X32148Y10987D02*
X44747D01*
Y13349D01*
Y10987D02*
Y13349D01*
X57345D01*
X44747Y10987D02*
X57345D01*
Y13349D01*
X19550D02*
Y15711D01*
X32148D01*
X19550Y13349D02*
X32148D01*
Y15711D01*
Y13349D02*
Y15711D01*
X44747D01*
X32148Y13349D02*
X44747D01*
Y15711D01*
Y13349D02*
Y15711D01*
X57345D01*
X44747Y13349D02*
X57345D01*
Y15711D01*
X19550D02*
Y18073D01*
X32148D01*
X19550Y15711D02*
X32148D01*
Y18073D01*
Y15711D02*
Y18073D01*
X44747D01*
X32148Y15711D02*
X44747D01*
Y18073D01*
Y15711D02*
Y18073D01*
X57345D01*
X44747Y15711D02*
X57345D01*
Y18073D01*
X19550D02*
Y20435D01*
X32148D01*
X19550Y18073D02*
X32148D01*
Y20435D01*
Y18073D02*
Y20435D01*
X44747D01*
X32148Y18073D02*
X44747D01*
Y20435D01*
Y18073D02*
Y20435D01*
X57345D01*
X44747Y18073D02*
X57345D01*
Y20435D01*
X19550D02*
Y22798D01*
X32148D01*
X19550Y20435D02*
X32148D01*
Y22798D01*
Y20435D02*
Y22798D01*
X44747D01*
X32148Y20435D02*
X44747D01*
Y22798D01*
Y20435D02*
Y22798D01*
X57345D01*
X44747Y20435D02*
X57345D01*
Y22798D01*
X19550D02*
Y25160D01*
X32148D01*
X19550Y22798D02*
X32148D01*
Y25160D01*
Y22798D02*
Y25160D01*
X44747D01*
X32148Y22798D02*
X44747D01*
Y25160D01*
Y22798D02*
Y25160D01*
X57345D01*
X44747Y22798D02*
X57345D01*
Y25160D01*
X19550D02*
Y27522D01*
X32148D01*
X19550Y25160D02*
X32148D01*
Y27522D01*
Y25160D02*
Y27522D01*
X44747D01*
X32148Y25160D02*
X44747D01*
Y27522D01*
Y25160D02*
Y27522D01*
X57345D01*
X44747Y25160D02*
X57345D01*
Y27522D01*
X19550D02*
Y29884D01*
X32148D01*
X19550Y27522D02*
X32148D01*
Y29884D01*
Y27522D02*
Y29884D01*
X44747D01*
X32148Y27522D02*
X44747D01*
Y29884D01*
Y27522D02*
Y29884D01*
X57345D01*
X44747Y27522D02*
X57345D01*
Y29884D01*
X19550D02*
Y32246D01*
X32148D01*
X19550Y29884D02*
X32148D01*
Y32246D01*
Y29884D02*
Y32246D01*
X44747D01*
X32148Y29884D02*
X44747D01*
Y32246D01*
Y29884D02*
Y32246D01*
X57345D01*
X44747Y29884D02*
X57345D01*
Y32246D01*
X19550D02*
Y34609D01*
X32148D01*
X19550Y32246D02*
X32148D01*
Y34609D01*
Y32246D02*
Y34609D01*
X44747D01*
X32148Y32246D02*
X44747D01*
Y34609D01*
Y32246D02*
Y34609D01*
X57345D01*
X44747Y32246D02*
X57345D01*
Y34609D01*
X19550D02*
Y36971D01*
X32148D01*
X19550Y34609D02*
X32148D01*
Y36971D01*
Y34609D02*
Y36971D01*
X44747D01*
X32148Y34609D02*
X44747D01*
Y36971D01*
Y34609D02*
Y36971D01*
X57345D01*
X44747Y34609D02*
X57345D01*
Y36971D01*
X19550D02*
Y39333D01*
X32148D01*
X19550Y36971D02*
X32148D01*
Y39333D01*
Y36971D02*
Y39333D01*
X44747D01*
X32148Y36971D02*
X44747D01*
Y39333D01*
Y36971D02*
Y39333D01*
X57345D01*
X44747Y36971D02*
X57345D01*
Y39333D01*
X19550D02*
Y41695D01*
X32148D01*
X19550Y39333D02*
X32148D01*
Y41695D01*
Y39333D02*
Y41695D01*
X44747D01*
X32148Y39333D02*
X44747D01*
Y41695D01*
Y39333D02*
Y41695D01*
X57345D01*
X44747Y39333D02*
X57345D01*
Y41695D01*
D23*
X25672Y5530D02*
X26026D01*
X25849Y5353D02*
Y5707D01*
X25672Y4530D02*
X26026D01*
X25849Y4353D02*
Y4707D01*
X38270Y5530D02*
X38625D01*
X38448Y5353D02*
Y5707D01*
X38270Y4530D02*
X38625D01*
X38448Y4353D02*
Y4707D01*
X50869Y5530D02*
X51223D01*
X51046Y5353D02*
Y5707D01*
X50869Y4530D02*
X51223D01*
X51046Y4353D02*
Y4707D01*
X25672Y7892D02*
X26026D01*
X25849Y7715D02*
Y8069D01*
X25672Y6892D02*
X26026D01*
X25849Y6715D02*
Y7069D01*
X38270Y7892D02*
X38625D01*
X38448Y7715D02*
Y8069D01*
X38270Y6892D02*
X38625D01*
X38448Y6715D02*
Y7069D01*
X50869Y7892D02*
X51223D01*
X51046Y7715D02*
Y8069D01*
X50869Y6892D02*
X51223D01*
X51046Y6715D02*
Y7069D01*
X25672Y10254D02*
X26026D01*
X25849Y10077D02*
Y10431D01*
X25672Y9254D02*
X26026D01*
X25849Y9077D02*
Y9431D01*
X38270Y10254D02*
X38625D01*
X38448Y10077D02*
Y10431D01*
X38270Y9254D02*
X38625D01*
X38448Y9077D02*
Y9431D01*
X50869Y10254D02*
X51223D01*
X51046Y10077D02*
Y10431D01*
X50869Y9254D02*
X51223D01*
X51046Y9077D02*
Y9431D01*
X25672Y12617D02*
X26026D01*
X25849Y12439D02*
Y12794D01*
X25672Y11617D02*
X26026D01*
X25849Y11439D02*
Y11794D01*
X38270Y12617D02*
X38625D01*
X38448Y12439D02*
Y12794D01*
X38270Y11617D02*
X38625D01*
X38448Y11439D02*
Y11794D01*
X50869Y12617D02*
X51223D01*
X51046Y12439D02*
Y12794D01*
X50869Y11617D02*
X51223D01*
X51046Y11439D02*
Y11794D01*
X25672Y14979D02*
X26026D01*
X25849Y14802D02*
Y15156D01*
X25672Y13979D02*
X26026D01*
X25849Y13802D02*
Y14156D01*
X38270Y14979D02*
X38625D01*
X38448Y14802D02*
Y15156D01*
X38270Y13979D02*
X38625D01*
X38448Y13802D02*
Y14156D01*
X50869Y14979D02*
X51223D01*
X51046Y14802D02*
Y15156D01*
X50869Y13979D02*
X51223D01*
X51046Y13802D02*
Y14156D01*
X25672Y17341D02*
X26026D01*
X25849Y17164D02*
Y17518D01*
X25672Y16341D02*
X26026D01*
X25849Y16164D02*
Y16518D01*
X38270Y17341D02*
X38625D01*
X38448Y17164D02*
Y17518D01*
X38270Y16341D02*
X38625D01*
X38448Y16164D02*
Y16518D01*
X50869Y17341D02*
X51223D01*
X51046Y17164D02*
Y17518D01*
X50869Y16341D02*
X51223D01*
X51046Y16164D02*
Y16518D01*
X25672Y19703D02*
X26026D01*
X25849Y19526D02*
Y19880D01*
X25672Y18703D02*
X26026D01*
X25849Y18526D02*
Y18880D01*
X38270Y19703D02*
X38625D01*
X38448Y19526D02*
Y19880D01*
X38270Y18703D02*
X38625D01*
X38448Y18526D02*
Y18880D01*
X50869Y19703D02*
X51223D01*
X51046Y19526D02*
Y19880D01*
X50869Y18703D02*
X51223D01*
X51046Y18526D02*
Y18880D01*
X25672Y22065D02*
X26026D01*
X25849Y21888D02*
Y22243D01*
X25672Y21065D02*
X26026D01*
X25849Y20888D02*
Y21243D01*
X38270Y22065D02*
X38625D01*
X38448Y21888D02*
Y22243D01*
X38270Y21065D02*
X38625D01*
X38448Y20888D02*
Y21243D01*
X50869Y22065D02*
X51223D01*
X51046Y21888D02*
Y22243D01*
X50869Y21065D02*
X51223D01*
X51046Y20888D02*
Y21243D01*
X25672Y24428D02*
X26026D01*
X25849Y24250D02*
Y24605D01*
X25672Y23428D02*
X26026D01*
X25849Y23250D02*
Y23605D01*
X38270Y24428D02*
X38625D01*
X38448Y24250D02*
Y24605D01*
X38270Y23428D02*
X38625D01*
X38448Y23250D02*
Y23605D01*
X50869Y24428D02*
X51223D01*
X51046Y24250D02*
Y24605D01*
X50869Y23428D02*
X51223D01*
X51046Y23250D02*
Y23605D01*
X25672Y26790D02*
X26026D01*
X25849Y26613D02*
Y26967D01*
X25672Y25790D02*
X26026D01*
X25849Y25613D02*
Y25967D01*
X38270Y26790D02*
X38625D01*
X38448Y26613D02*
Y26967D01*
X38270Y25790D02*
X38625D01*
X38448Y25613D02*
Y25967D01*
X50869Y26790D02*
X51223D01*
X51046Y26613D02*
Y26967D01*
X50869Y25790D02*
X51223D01*
X51046Y25613D02*
Y25967D01*
X25672Y29152D02*
X26026D01*
X25849Y28975D02*
Y29329D01*
X25672Y28152D02*
X26026D01*
X25849Y27975D02*
Y28329D01*
X38270Y29152D02*
X38625D01*
X38448Y28975D02*
Y29329D01*
X38270Y28152D02*
X38625D01*
X38448Y27975D02*
Y28329D01*
X50869Y29152D02*
X51223D01*
X51046Y28975D02*
Y29329D01*
X50869Y28152D02*
X51223D01*
X51046Y27975D02*
Y28329D01*
X25672Y31514D02*
X26026D01*
X25849Y31337D02*
Y31691D01*
X25672Y30514D02*
X26026D01*
X25849Y30337D02*
Y30691D01*
X38270Y31514D02*
X38625D01*
X38448Y31337D02*
Y31691D01*
X38270Y30514D02*
X38625D01*
X38448Y30337D02*
Y30691D01*
X50869Y31514D02*
X51223D01*
X51046Y31337D02*
Y31691D01*
X50869Y30514D02*
X51223D01*
X51046Y30337D02*
Y30691D01*
X25672Y33876D02*
X26026D01*
X25849Y33699D02*
Y34054D01*
X25672Y32876D02*
X26026D01*
X25849Y32699D02*
Y33054D01*
X38270Y33876D02*
X38625D01*
X38448Y33699D02*
Y34054D01*
X38270Y32876D02*
X38625D01*
X38448Y32699D02*
Y33054D01*
X50869Y33876D02*
X51223D01*
X51046Y33699D02*
Y34054D01*
X50869Y32876D02*
X51223D01*
X51046Y32699D02*
Y33054D01*
X25672Y36239D02*
X26026D01*
X25849Y36061D02*
Y36416D01*
X25672Y35239D02*
X26026D01*
X25849Y35061D02*
Y35416D01*
X38270Y36239D02*
X38625D01*
X38448Y36061D02*
Y36416D01*
X38270Y35239D02*
X38625D01*
X38448Y35061D02*
Y35416D01*
X50869Y36239D02*
X51223D01*
X51046Y36061D02*
Y36416D01*
X50869Y35239D02*
X51223D01*
X51046Y35061D02*
Y35416D01*
X25672Y38601D02*
X26026D01*
X25849Y38424D02*
Y38778D01*
X25672Y37601D02*
X26026D01*
X25849Y37424D02*
Y37778D01*
X38270Y38601D02*
X38625D01*
X38448Y38424D02*
Y38778D01*
X38270Y37601D02*
X38625D01*
X38448Y37424D02*
Y37778D01*
X50869Y38601D02*
X51223D01*
X51046Y38424D02*
Y38778D01*
X50869Y37601D02*
X51223D01*
X51046Y37424D02*
Y37778D01*
X25672Y40963D02*
X26026D01*
X25849Y40786D02*
Y41140D01*
X25672Y39963D02*
X26026D01*
X25849Y39786D02*
Y40140D01*
X38270Y40963D02*
X38625D01*
X38448Y40786D02*
Y41140D01*
X38270Y39963D02*
X38625D01*
X38448Y39786D02*
Y40140D01*
X50869Y40963D02*
X51223D01*
X51046Y40786D02*
Y41140D01*
X50869Y39963D02*
X51223D01*
X51046Y39786D02*
Y40140D01*
M02*
