G04 Layer_Color=32896*
%FSLAX24Y24*%
%MOIN*%
G70*
G01*
G75*
%ADD13C,0.0100*%
%ADD17C,0.0060*%
D13*
X19550Y3900D02*
Y41700D01*
X57350D01*
Y3900D02*
Y41700D01*
X19550Y3900D02*
X57350D01*
X19550D02*
Y6262D01*
X32148D01*
X19550Y3900D02*
X32148D01*
Y6262D01*
Y3900D02*
Y6262D01*
X44747D01*
X32148Y3900D02*
X44747D01*
Y6262D01*
Y3900D02*
Y6262D01*
X57345D01*
X44747Y3900D02*
X57345D01*
Y6262D01*
X19550D02*
Y8624D01*
X32148D01*
X19550Y6262D02*
X32148D01*
Y8624D01*
Y6262D02*
Y8624D01*
X44747D01*
X32148Y6262D02*
X44747D01*
Y8624D01*
Y6262D02*
Y8624D01*
X57345D01*
X44747Y6262D02*
X57345D01*
Y8624D01*
X19550D02*
Y10987D01*
X32148D01*
X19550Y8624D02*
X32148D01*
Y10987D01*
Y8624D02*
Y10987D01*
X44747D01*
X32148Y8624D02*
X44747D01*
Y10987D01*
Y8624D02*
Y10987D01*
X57345D01*
X44747Y8624D02*
X57345D01*
Y10987D01*
X19550D02*
Y13349D01*
X32148D01*
X19550Y10987D02*
X32148D01*
Y13349D01*
Y10987D02*
Y13349D01*
X44747D01*
X32148Y10987D02*
X44747D01*
Y13349D01*
Y10987D02*
Y13349D01*
X57345D01*
X44747Y10987D02*
X57345D01*
Y13349D01*
X19550D02*
Y15711D01*
X32148D01*
X19550Y13349D02*
X32148D01*
Y15711D01*
Y13349D02*
Y15711D01*
X44747D01*
X32148Y13349D02*
X44747D01*
Y15711D01*
Y13349D02*
Y15711D01*
X57345D01*
X44747Y13349D02*
X57345D01*
Y15711D01*
X19550D02*
Y18073D01*
X32148D01*
X19550Y15711D02*
X32148D01*
Y18073D01*
Y15711D02*
Y18073D01*
X44747D01*
X32148Y15711D02*
X44747D01*
Y18073D01*
Y15711D02*
Y18073D01*
X57345D01*
X44747Y15711D02*
X57345D01*
Y18073D01*
X19550D02*
Y20435D01*
X32148D01*
X19550Y18073D02*
X32148D01*
Y20435D01*
Y18073D02*
Y20435D01*
X44747D01*
X32148Y18073D02*
X44747D01*
Y20435D01*
Y18073D02*
Y20435D01*
X57345D01*
X44747Y18073D02*
X57345D01*
Y20435D01*
X19550D02*
Y22798D01*
X32148D01*
X19550Y20435D02*
X32148D01*
Y22798D01*
Y20435D02*
Y22798D01*
X44747D01*
X32148Y20435D02*
X44747D01*
Y22798D01*
Y20435D02*
Y22798D01*
X57345D01*
X44747Y20435D02*
X57345D01*
Y22798D01*
X19550D02*
Y25160D01*
X32148D01*
X19550Y22798D02*
X32148D01*
Y25160D01*
Y22798D02*
Y25160D01*
X44747D01*
X32148Y22798D02*
X44747D01*
Y25160D01*
Y22798D02*
Y25160D01*
X57345D01*
X44747Y22798D02*
X57345D01*
Y25160D01*
X19550D02*
Y27522D01*
X32148D01*
X19550Y25160D02*
X32148D01*
Y27522D01*
Y25160D02*
Y27522D01*
X44747D01*
X32148Y25160D02*
X44747D01*
Y27522D01*
Y25160D02*
Y27522D01*
X57345D01*
X44747Y25160D02*
X57345D01*
Y27522D01*
X19550D02*
Y29884D01*
X32148D01*
X19550Y27522D02*
X32148D01*
Y29884D01*
Y27522D02*
Y29884D01*
X44747D01*
X32148Y27522D02*
X44747D01*
Y29884D01*
Y27522D02*
Y29884D01*
X57345D01*
X44747Y27522D02*
X57345D01*
Y29884D01*
X19550D02*
Y32246D01*
X32148D01*
X19550Y29884D02*
X32148D01*
Y32246D01*
Y29884D02*
Y32246D01*
X44747D01*
X32148Y29884D02*
X44747D01*
Y32246D01*
Y29884D02*
Y32246D01*
X57345D01*
X44747Y29884D02*
X57345D01*
Y32246D01*
X19550D02*
Y34609D01*
X32148D01*
X19550Y32246D02*
X32148D01*
Y34609D01*
Y32246D02*
Y34609D01*
X44747D01*
X32148Y32246D02*
X44747D01*
Y34609D01*
Y32246D02*
Y34609D01*
X57345D01*
X44747Y32246D02*
X57345D01*
Y34609D01*
X19550D02*
Y36971D01*
X32148D01*
X19550Y34609D02*
X32148D01*
Y36971D01*
Y34609D02*
Y36971D01*
X44747D01*
X32148Y34609D02*
X44747D01*
Y36971D01*
Y34609D02*
Y36971D01*
X57345D01*
X44747Y34609D02*
X57345D01*
Y36971D01*
X19550D02*
Y39333D01*
X32148D01*
X19550Y36971D02*
X32148D01*
Y39333D01*
Y36971D02*
Y39333D01*
X44747D01*
X32148Y36971D02*
X44747D01*
Y39333D01*
Y36971D02*
Y39333D01*
X57345D01*
X44747Y36971D02*
X57345D01*
Y39333D01*
X19550D02*
Y41695D01*
X32148D01*
X19550Y39333D02*
X32148D01*
Y41695D01*
Y39333D02*
Y41695D01*
X44747D01*
X32148Y39333D02*
X44747D01*
Y41695D01*
Y39333D02*
Y41695D01*
X57345D01*
X44747Y39333D02*
X57345D01*
Y41695D01*
D17*
X31800Y5500D02*
Y5900D01*
X31600D01*
X31533Y5833D01*
Y5700D01*
X31600Y5633D01*
X31800D01*
X31667D02*
X31533Y5500D01*
X31200D02*
X31333D01*
X31400Y5567D01*
Y5700D01*
X31333Y5767D01*
X31200D01*
X31134Y5700D01*
Y5633D01*
X31400D01*
X31000Y5767D02*
X30867Y5500D01*
X30734Y5767D01*
X30201Y5500D02*
X30067D01*
X30134D01*
Y5900D01*
X30201Y5833D01*
X44398Y5500D02*
Y5900D01*
X44198D01*
X44132Y5833D01*
Y5700D01*
X44198Y5633D01*
X44398D01*
X44265D02*
X44132Y5500D01*
X43799D02*
X43932D01*
X43999Y5567D01*
Y5700D01*
X43932Y5767D01*
X43799D01*
X43732Y5700D01*
Y5633D01*
X43999D01*
X43599Y5767D02*
X43465Y5500D01*
X43332Y5767D01*
X42799Y5500D02*
X42666D01*
X42732D01*
Y5900D01*
X42799Y5833D01*
X56997Y5500D02*
Y5900D01*
X56797D01*
X56730Y5833D01*
Y5700D01*
X56797Y5633D01*
X56997D01*
X56864D02*
X56730Y5500D01*
X56397D02*
X56530D01*
X56597Y5567D01*
Y5700D01*
X56530Y5767D01*
X56397D01*
X56330Y5700D01*
Y5633D01*
X56597D01*
X56197Y5767D02*
X56064Y5500D01*
X55931Y5767D01*
X55397Y5500D02*
X55264D01*
X55331D01*
Y5900D01*
X55397Y5833D01*
X31800Y7862D02*
Y8262D01*
X31600D01*
X31533Y8195D01*
Y8062D01*
X31600Y7995D01*
X31800D01*
X31667D02*
X31533Y7862D01*
X31200D02*
X31333D01*
X31400Y7929D01*
Y8062D01*
X31333Y8129D01*
X31200D01*
X31134Y8062D01*
Y7995D01*
X31400D01*
X31000Y8129D02*
X30867Y7862D01*
X30734Y8129D01*
X30201Y7862D02*
X30067D01*
X30134D01*
Y8262D01*
X30201Y8195D01*
X44398Y7862D02*
Y8262D01*
X44198D01*
X44132Y8195D01*
Y8062D01*
X44198Y7995D01*
X44398D01*
X44265D02*
X44132Y7862D01*
X43799D02*
X43932D01*
X43999Y7929D01*
Y8062D01*
X43932Y8129D01*
X43799D01*
X43732Y8062D01*
Y7995D01*
X43999D01*
X43599Y8129D02*
X43465Y7862D01*
X43332Y8129D01*
X42799Y7862D02*
X42666D01*
X42732D01*
Y8262D01*
X42799Y8195D01*
X56997Y7862D02*
Y8262D01*
X56797D01*
X56730Y8195D01*
Y8062D01*
X56797Y7995D01*
X56997D01*
X56864D02*
X56730Y7862D01*
X56397D02*
X56530D01*
X56597Y7929D01*
Y8062D01*
X56530Y8129D01*
X56397D01*
X56330Y8062D01*
Y7995D01*
X56597D01*
X56197Y8129D02*
X56064Y7862D01*
X55931Y8129D01*
X55397Y7862D02*
X55264D01*
X55331D01*
Y8262D01*
X55397Y8195D01*
X31800Y10224D02*
Y10624D01*
X31600D01*
X31533Y10558D01*
Y10424D01*
X31600Y10358D01*
X31800D01*
X31667D02*
X31533Y10224D01*
X31200D02*
X31333D01*
X31400Y10291D01*
Y10424D01*
X31333Y10491D01*
X31200D01*
X31134Y10424D01*
Y10358D01*
X31400D01*
X31000Y10491D02*
X30867Y10224D01*
X30734Y10491D01*
X30201Y10224D02*
X30067D01*
X30134D01*
Y10624D01*
X30201Y10558D01*
X44398Y10224D02*
Y10624D01*
X44198D01*
X44132Y10558D01*
Y10424D01*
X44198Y10358D01*
X44398D01*
X44265D02*
X44132Y10224D01*
X43799D02*
X43932D01*
X43999Y10291D01*
Y10424D01*
X43932Y10491D01*
X43799D01*
X43732Y10424D01*
Y10358D01*
X43999D01*
X43599Y10491D02*
X43465Y10224D01*
X43332Y10491D01*
X42799Y10224D02*
X42666D01*
X42732D01*
Y10624D01*
X42799Y10558D01*
X56997Y10224D02*
Y10624D01*
X56797D01*
X56730Y10558D01*
Y10424D01*
X56797Y10358D01*
X56997D01*
X56864D02*
X56730Y10224D01*
X56397D02*
X56530D01*
X56597Y10291D01*
Y10424D01*
X56530Y10491D01*
X56397D01*
X56330Y10424D01*
Y10358D01*
X56597D01*
X56197Y10491D02*
X56064Y10224D01*
X55931Y10491D01*
X55397Y10224D02*
X55264D01*
X55331D01*
Y10624D01*
X55397Y10558D01*
X31800Y12587D02*
Y12986D01*
X31600D01*
X31533Y12920D01*
Y12787D01*
X31600Y12720D01*
X31800D01*
X31667D02*
X31533Y12587D01*
X31200D02*
X31333D01*
X31400Y12653D01*
Y12787D01*
X31333Y12853D01*
X31200D01*
X31134Y12787D01*
Y12720D01*
X31400D01*
X31000Y12853D02*
X30867Y12587D01*
X30734Y12853D01*
X30201Y12587D02*
X30067D01*
X30134D01*
Y12986D01*
X30201Y12920D01*
X44398Y12587D02*
Y12986D01*
X44198D01*
X44132Y12920D01*
Y12787D01*
X44198Y12720D01*
X44398D01*
X44265D02*
X44132Y12587D01*
X43799D02*
X43932D01*
X43999Y12653D01*
Y12787D01*
X43932Y12853D01*
X43799D01*
X43732Y12787D01*
Y12720D01*
X43999D01*
X43599Y12853D02*
X43465Y12587D01*
X43332Y12853D01*
X42799Y12587D02*
X42666D01*
X42732D01*
Y12986D01*
X42799Y12920D01*
X56997Y12587D02*
Y12986D01*
X56797D01*
X56730Y12920D01*
Y12787D01*
X56797Y12720D01*
X56997D01*
X56864D02*
X56730Y12587D01*
X56397D02*
X56530D01*
X56597Y12653D01*
Y12787D01*
X56530Y12853D01*
X56397D01*
X56330Y12787D01*
Y12720D01*
X56597D01*
X56197Y12853D02*
X56064Y12587D01*
X55931Y12853D01*
X55397Y12587D02*
X55264D01*
X55331D01*
Y12986D01*
X55397Y12920D01*
X31800Y14949D02*
Y15349D01*
X31600D01*
X31533Y15282D01*
Y15149D01*
X31600Y15082D01*
X31800D01*
X31667D02*
X31533Y14949D01*
X31200D02*
X31333D01*
X31400Y15015D01*
Y15149D01*
X31333Y15215D01*
X31200D01*
X31134Y15149D01*
Y15082D01*
X31400D01*
X31000Y15215D02*
X30867Y14949D01*
X30734Y15215D01*
X30201Y14949D02*
X30067D01*
X30134D01*
Y15349D01*
X30201Y15282D01*
X44398Y14949D02*
Y15349D01*
X44198D01*
X44132Y15282D01*
Y15149D01*
X44198Y15082D01*
X44398D01*
X44265D02*
X44132Y14949D01*
X43799D02*
X43932D01*
X43999Y15015D01*
Y15149D01*
X43932Y15215D01*
X43799D01*
X43732Y15149D01*
Y15082D01*
X43999D01*
X43599Y15215D02*
X43465Y14949D01*
X43332Y15215D01*
X42799Y14949D02*
X42666D01*
X42732D01*
Y15349D01*
X42799Y15282D01*
X56997Y14949D02*
Y15349D01*
X56797D01*
X56730Y15282D01*
Y15149D01*
X56797Y15082D01*
X56997D01*
X56864D02*
X56730Y14949D01*
X56397D02*
X56530D01*
X56597Y15015D01*
Y15149D01*
X56530Y15215D01*
X56397D01*
X56330Y15149D01*
Y15082D01*
X56597D01*
X56197Y15215D02*
X56064Y14949D01*
X55931Y15215D01*
X55397Y14949D02*
X55264D01*
X55331D01*
Y15349D01*
X55397Y15282D01*
X31800Y17311D02*
Y17711D01*
X31600D01*
X31533Y17644D01*
Y17511D01*
X31600Y17444D01*
X31800D01*
X31667D02*
X31533Y17311D01*
X31200D02*
X31333D01*
X31400Y17378D01*
Y17511D01*
X31333Y17578D01*
X31200D01*
X31134Y17511D01*
Y17444D01*
X31400D01*
X31000Y17578D02*
X30867Y17311D01*
X30734Y17578D01*
X30201Y17311D02*
X30067D01*
X30134D01*
Y17711D01*
X30201Y17644D01*
X44398Y17311D02*
Y17711D01*
X44198D01*
X44132Y17644D01*
Y17511D01*
X44198Y17444D01*
X44398D01*
X44265D02*
X44132Y17311D01*
X43799D02*
X43932D01*
X43999Y17378D01*
Y17511D01*
X43932Y17578D01*
X43799D01*
X43732Y17511D01*
Y17444D01*
X43999D01*
X43599Y17578D02*
X43465Y17311D01*
X43332Y17578D01*
X42799Y17311D02*
X42666D01*
X42732D01*
Y17711D01*
X42799Y17644D01*
X56997Y17311D02*
Y17711D01*
X56797D01*
X56730Y17644D01*
Y17511D01*
X56797Y17444D01*
X56997D01*
X56864D02*
X56730Y17311D01*
X56397D02*
X56530D01*
X56597Y17378D01*
Y17511D01*
X56530Y17578D01*
X56397D01*
X56330Y17511D01*
Y17444D01*
X56597D01*
X56197Y17578D02*
X56064Y17311D01*
X55931Y17578D01*
X55397Y17311D02*
X55264D01*
X55331D01*
Y17711D01*
X55397Y17644D01*
X31800Y19673D02*
Y20073D01*
X31600D01*
X31533Y20006D01*
Y19873D01*
X31600Y19807D01*
X31800D01*
X31667D02*
X31533Y19673D01*
X31200D02*
X31333D01*
X31400Y19740D01*
Y19873D01*
X31333Y19940D01*
X31200D01*
X31134Y19873D01*
Y19807D01*
X31400D01*
X31000Y19940D02*
X30867Y19673D01*
X30734Y19940D01*
X30201Y19673D02*
X30067D01*
X30134D01*
Y20073D01*
X30201Y20006D01*
X44398Y19673D02*
Y20073D01*
X44198D01*
X44132Y20006D01*
Y19873D01*
X44198Y19807D01*
X44398D01*
X44265D02*
X44132Y19673D01*
X43799D02*
X43932D01*
X43999Y19740D01*
Y19873D01*
X43932Y19940D01*
X43799D01*
X43732Y19873D01*
Y19807D01*
X43999D01*
X43599Y19940D02*
X43465Y19673D01*
X43332Y19940D01*
X42799Y19673D02*
X42666D01*
X42732D01*
Y20073D01*
X42799Y20006D01*
X56997Y19673D02*
Y20073D01*
X56797D01*
X56730Y20006D01*
Y19873D01*
X56797Y19807D01*
X56997D01*
X56864D02*
X56730Y19673D01*
X56397D02*
X56530D01*
X56597Y19740D01*
Y19873D01*
X56530Y19940D01*
X56397D01*
X56330Y19873D01*
Y19807D01*
X56597D01*
X56197Y19940D02*
X56064Y19673D01*
X55931Y19940D01*
X55397Y19673D02*
X55264D01*
X55331D01*
Y20073D01*
X55397Y20006D01*
X31800Y22035D02*
Y22435D01*
X31600D01*
X31533Y22369D01*
Y22235D01*
X31600Y22169D01*
X31800D01*
X31667D02*
X31533Y22035D01*
X31200D02*
X31333D01*
X31400Y22102D01*
Y22235D01*
X31333Y22302D01*
X31200D01*
X31134Y22235D01*
Y22169D01*
X31400D01*
X31000Y22302D02*
X30867Y22035D01*
X30734Y22302D01*
X30201Y22035D02*
X30067D01*
X30134D01*
Y22435D01*
X30201Y22369D01*
X44398Y22035D02*
Y22435D01*
X44198D01*
X44132Y22369D01*
Y22235D01*
X44198Y22169D01*
X44398D01*
X44265D02*
X44132Y22035D01*
X43799D02*
X43932D01*
X43999Y22102D01*
Y22235D01*
X43932Y22302D01*
X43799D01*
X43732Y22235D01*
Y22169D01*
X43999D01*
X43599Y22302D02*
X43465Y22035D01*
X43332Y22302D01*
X42799Y22035D02*
X42666D01*
X42732D01*
Y22435D01*
X42799Y22369D01*
X56997Y22035D02*
Y22435D01*
X56797D01*
X56730Y22369D01*
Y22235D01*
X56797Y22169D01*
X56997D01*
X56864D02*
X56730Y22035D01*
X56397D02*
X56530D01*
X56597Y22102D01*
Y22235D01*
X56530Y22302D01*
X56397D01*
X56330Y22235D01*
Y22169D01*
X56597D01*
X56197Y22302D02*
X56064Y22035D01*
X55931Y22302D01*
X55397Y22035D02*
X55264D01*
X55331D01*
Y22435D01*
X55397Y22369D01*
X31800Y24398D02*
Y24798D01*
X31600D01*
X31533Y24731D01*
Y24598D01*
X31600Y24531D01*
X31800D01*
X31667D02*
X31533Y24398D01*
X31200D02*
X31333D01*
X31400Y24464D01*
Y24598D01*
X31333Y24664D01*
X31200D01*
X31134Y24598D01*
Y24531D01*
X31400D01*
X31000Y24664D02*
X30867Y24398D01*
X30734Y24664D01*
X30201Y24398D02*
X30067D01*
X30134D01*
Y24798D01*
X30201Y24731D01*
X44398Y24398D02*
Y24798D01*
X44198D01*
X44132Y24731D01*
Y24598D01*
X44198Y24531D01*
X44398D01*
X44265D02*
X44132Y24398D01*
X43799D02*
X43932D01*
X43999Y24464D01*
Y24598D01*
X43932Y24664D01*
X43799D01*
X43732Y24598D01*
Y24531D01*
X43999D01*
X43599Y24664D02*
X43465Y24398D01*
X43332Y24664D01*
X42799Y24398D02*
X42666D01*
X42732D01*
Y24798D01*
X42799Y24731D01*
X56997Y24398D02*
Y24798D01*
X56797D01*
X56730Y24731D01*
Y24598D01*
X56797Y24531D01*
X56997D01*
X56864D02*
X56730Y24398D01*
X56397D02*
X56530D01*
X56597Y24464D01*
Y24598D01*
X56530Y24664D01*
X56397D01*
X56330Y24598D01*
Y24531D01*
X56597D01*
X56197Y24664D02*
X56064Y24398D01*
X55931Y24664D01*
X55397Y24398D02*
X55264D01*
X55331D01*
Y24798D01*
X55397Y24731D01*
X31800Y26760D02*
Y27160D01*
X31600D01*
X31533Y27093D01*
Y26960D01*
X31600Y26893D01*
X31800D01*
X31667D02*
X31533Y26760D01*
X31200D02*
X31333D01*
X31400Y26826D01*
Y26960D01*
X31333Y27026D01*
X31200D01*
X31134Y26960D01*
Y26893D01*
X31400D01*
X31000Y27026D02*
X30867Y26760D01*
X30734Y27026D01*
X30201Y26760D02*
X30067D01*
X30134D01*
Y27160D01*
X30201Y27093D01*
X44398Y26760D02*
Y27160D01*
X44198D01*
X44132Y27093D01*
Y26960D01*
X44198Y26893D01*
X44398D01*
X44265D02*
X44132Y26760D01*
X43799D02*
X43932D01*
X43999Y26826D01*
Y26960D01*
X43932Y27026D01*
X43799D01*
X43732Y26960D01*
Y26893D01*
X43999D01*
X43599Y27026D02*
X43465Y26760D01*
X43332Y27026D01*
X42799Y26760D02*
X42666D01*
X42732D01*
Y27160D01*
X42799Y27093D01*
X56997Y26760D02*
Y27160D01*
X56797D01*
X56730Y27093D01*
Y26960D01*
X56797Y26893D01*
X56997D01*
X56864D02*
X56730Y26760D01*
X56397D02*
X56530D01*
X56597Y26826D01*
Y26960D01*
X56530Y27026D01*
X56397D01*
X56330Y26960D01*
Y26893D01*
X56597D01*
X56197Y27026D02*
X56064Y26760D01*
X55931Y27026D01*
X55397Y26760D02*
X55264D01*
X55331D01*
Y27160D01*
X55397Y27093D01*
X31800Y29122D02*
Y29522D01*
X31600D01*
X31533Y29455D01*
Y29322D01*
X31600Y29255D01*
X31800D01*
X31667D02*
X31533Y29122D01*
X31200D02*
X31333D01*
X31400Y29189D01*
Y29322D01*
X31333Y29389D01*
X31200D01*
X31134Y29322D01*
Y29255D01*
X31400D01*
X31000Y29389D02*
X30867Y29122D01*
X30734Y29389D01*
X30201Y29122D02*
X30067D01*
X30134D01*
Y29522D01*
X30201Y29455D01*
X44398Y29122D02*
Y29522D01*
X44198D01*
X44132Y29455D01*
Y29322D01*
X44198Y29255D01*
X44398D01*
X44265D02*
X44132Y29122D01*
X43799D02*
X43932D01*
X43999Y29189D01*
Y29322D01*
X43932Y29389D01*
X43799D01*
X43732Y29322D01*
Y29255D01*
X43999D01*
X43599Y29389D02*
X43465Y29122D01*
X43332Y29389D01*
X42799Y29122D02*
X42666D01*
X42732D01*
Y29522D01*
X42799Y29455D01*
X56997Y29122D02*
Y29522D01*
X56797D01*
X56730Y29455D01*
Y29322D01*
X56797Y29255D01*
X56997D01*
X56864D02*
X56730Y29122D01*
X56397D02*
X56530D01*
X56597Y29189D01*
Y29322D01*
X56530Y29389D01*
X56397D01*
X56330Y29322D01*
Y29255D01*
X56597D01*
X56197Y29389D02*
X56064Y29122D01*
X55931Y29389D01*
X55397Y29122D02*
X55264D01*
X55331D01*
Y29522D01*
X55397Y29455D01*
X31800Y31484D02*
Y31884D01*
X31600D01*
X31533Y31817D01*
Y31684D01*
X31600Y31618D01*
X31800D01*
X31667D02*
X31533Y31484D01*
X31200D02*
X31333D01*
X31400Y31551D01*
Y31684D01*
X31333Y31751D01*
X31200D01*
X31134Y31684D01*
Y31618D01*
X31400D01*
X31000Y31751D02*
X30867Y31484D01*
X30734Y31751D01*
X30201Y31484D02*
X30067D01*
X30134D01*
Y31884D01*
X30201Y31817D01*
X44398Y31484D02*
Y31884D01*
X44198D01*
X44132Y31817D01*
Y31684D01*
X44198Y31618D01*
X44398D01*
X44265D02*
X44132Y31484D01*
X43799D02*
X43932D01*
X43999Y31551D01*
Y31684D01*
X43932Y31751D01*
X43799D01*
X43732Y31684D01*
Y31618D01*
X43999D01*
X43599Y31751D02*
X43465Y31484D01*
X43332Y31751D01*
X42799Y31484D02*
X42666D01*
X42732D01*
Y31884D01*
X42799Y31817D01*
X56997Y31484D02*
Y31884D01*
X56797D01*
X56730Y31817D01*
Y31684D01*
X56797Y31618D01*
X56997D01*
X56864D02*
X56730Y31484D01*
X56397D02*
X56530D01*
X56597Y31551D01*
Y31684D01*
X56530Y31751D01*
X56397D01*
X56330Y31684D01*
Y31618D01*
X56597D01*
X56197Y31751D02*
X56064Y31484D01*
X55931Y31751D01*
X55397Y31484D02*
X55264D01*
X55331D01*
Y31884D01*
X55397Y31817D01*
X31800Y33846D02*
Y34246D01*
X31600D01*
X31533Y34180D01*
Y34046D01*
X31600Y33980D01*
X31800D01*
X31667D02*
X31533Y33846D01*
X31200D02*
X31333D01*
X31400Y33913D01*
Y34046D01*
X31333Y34113D01*
X31200D01*
X31134Y34046D01*
Y33980D01*
X31400D01*
X31000Y34113D02*
X30867Y33846D01*
X30734Y34113D01*
X30201Y33846D02*
X30067D01*
X30134D01*
Y34246D01*
X30201Y34180D01*
X44398Y33846D02*
Y34246D01*
X44198D01*
X44132Y34180D01*
Y34046D01*
X44198Y33980D01*
X44398D01*
X44265D02*
X44132Y33846D01*
X43799D02*
X43932D01*
X43999Y33913D01*
Y34046D01*
X43932Y34113D01*
X43799D01*
X43732Y34046D01*
Y33980D01*
X43999D01*
X43599Y34113D02*
X43465Y33846D01*
X43332Y34113D01*
X42799Y33846D02*
X42666D01*
X42732D01*
Y34246D01*
X42799Y34180D01*
X56997Y33846D02*
Y34246D01*
X56797D01*
X56730Y34180D01*
Y34046D01*
X56797Y33980D01*
X56997D01*
X56864D02*
X56730Y33846D01*
X56397D02*
X56530D01*
X56597Y33913D01*
Y34046D01*
X56530Y34113D01*
X56397D01*
X56330Y34046D01*
Y33980D01*
X56597D01*
X56197Y34113D02*
X56064Y33846D01*
X55931Y34113D01*
X55397Y33846D02*
X55264D01*
X55331D01*
Y34246D01*
X55397Y34180D01*
X31800Y36209D02*
Y36609D01*
X31600D01*
X31533Y36542D01*
Y36409D01*
X31600Y36342D01*
X31800D01*
X31667D02*
X31533Y36209D01*
X31200D02*
X31333D01*
X31400Y36275D01*
Y36409D01*
X31333Y36475D01*
X31200D01*
X31134Y36409D01*
Y36342D01*
X31400D01*
X31000Y36475D02*
X30867Y36209D01*
X30734Y36475D01*
X30201Y36209D02*
X30067D01*
X30134D01*
Y36609D01*
X30201Y36542D01*
X44398Y36209D02*
Y36609D01*
X44198D01*
X44132Y36542D01*
Y36409D01*
X44198Y36342D01*
X44398D01*
X44265D02*
X44132Y36209D01*
X43799D02*
X43932D01*
X43999Y36275D01*
Y36409D01*
X43932Y36475D01*
X43799D01*
X43732Y36409D01*
Y36342D01*
X43999D01*
X43599Y36475D02*
X43465Y36209D01*
X43332Y36475D01*
X42799Y36209D02*
X42666D01*
X42732D01*
Y36609D01*
X42799Y36542D01*
X56997Y36209D02*
Y36609D01*
X56797D01*
X56730Y36542D01*
Y36409D01*
X56797Y36342D01*
X56997D01*
X56864D02*
X56730Y36209D01*
X56397D02*
X56530D01*
X56597Y36275D01*
Y36409D01*
X56530Y36475D01*
X56397D01*
X56330Y36409D01*
Y36342D01*
X56597D01*
X56197Y36475D02*
X56064Y36209D01*
X55931Y36475D01*
X55397Y36209D02*
X55264D01*
X55331D01*
Y36609D01*
X55397Y36542D01*
X31800Y38571D02*
Y38971D01*
X31600D01*
X31533Y38904D01*
Y38771D01*
X31600Y38704D01*
X31800D01*
X31667D02*
X31533Y38571D01*
X31200D02*
X31333D01*
X31400Y38638D01*
Y38771D01*
X31333Y38837D01*
X31200D01*
X31134Y38771D01*
Y38704D01*
X31400D01*
X31000Y38837D02*
X30867Y38571D01*
X30734Y38837D01*
X30201Y38571D02*
X30067D01*
X30134D01*
Y38971D01*
X30201Y38904D01*
X44398Y38571D02*
Y38971D01*
X44198D01*
X44132Y38904D01*
Y38771D01*
X44198Y38704D01*
X44398D01*
X44265D02*
X44132Y38571D01*
X43799D02*
X43932D01*
X43999Y38638D01*
Y38771D01*
X43932Y38837D01*
X43799D01*
X43732Y38771D01*
Y38704D01*
X43999D01*
X43599Y38837D02*
X43465Y38571D01*
X43332Y38837D01*
X42799Y38571D02*
X42666D01*
X42732D01*
Y38971D01*
X42799Y38904D01*
X56997Y38571D02*
Y38971D01*
X56797D01*
X56730Y38904D01*
Y38771D01*
X56797Y38704D01*
X56997D01*
X56864D02*
X56730Y38571D01*
X56397D02*
X56530D01*
X56597Y38638D01*
Y38771D01*
X56530Y38837D01*
X56397D01*
X56330Y38771D01*
Y38704D01*
X56597D01*
X56197Y38837D02*
X56064Y38571D01*
X55931Y38837D01*
X55397Y38571D02*
X55264D01*
X55331D01*
Y38971D01*
X55397Y38904D01*
X31800Y40933D02*
Y41333D01*
X31600D01*
X31533Y41266D01*
Y41133D01*
X31600Y41066D01*
X31800D01*
X31667D02*
X31533Y40933D01*
X31200D02*
X31333D01*
X31400Y41000D01*
Y41133D01*
X31333Y41200D01*
X31200D01*
X31134Y41133D01*
Y41066D01*
X31400D01*
X31000Y41200D02*
X30867Y40933D01*
X30734Y41200D01*
X30201Y40933D02*
X30067D01*
X30134D01*
Y41333D01*
X30201Y41266D01*
X44398Y40933D02*
Y41333D01*
X44198D01*
X44132Y41266D01*
Y41133D01*
X44198Y41066D01*
X44398D01*
X44265D02*
X44132Y40933D01*
X43799D02*
X43932D01*
X43999Y41000D01*
Y41133D01*
X43932Y41200D01*
X43799D01*
X43732Y41133D01*
Y41066D01*
X43999D01*
X43599Y41200D02*
X43465Y40933D01*
X43332Y41200D01*
X42799Y40933D02*
X42666D01*
X42732D01*
Y41333D01*
X42799Y41266D01*
X56997Y40933D02*
Y41333D01*
X56797D01*
X56730Y41266D01*
Y41133D01*
X56797Y41066D01*
X56997D01*
X56864D02*
X56730Y40933D01*
X56397D02*
X56530D01*
X56597Y41000D01*
Y41133D01*
X56530Y41200D01*
X56397D01*
X56330Y41133D01*
Y41066D01*
X56597D01*
X56197Y41200D02*
X56064Y40933D01*
X55931Y41200D01*
X55397Y40933D02*
X55264D01*
X55331D01*
Y41333D01*
X55397Y41266D01*
M02*
