G04 Layer_Color=65535*
%FSLAX24Y24*%
%MOIN*%
G70*
G01*
G75*
%ADD13C,0.0100*%
%ADD16C,0.0079*%
%ADD17C,0.0060*%
D13*
X24800Y4400D02*
X25200D01*
X25000Y4600D02*
Y4200D01*
X24800Y5500D02*
X25200D01*
X37398Y4400D02*
X37798D01*
X37598Y4600D02*
Y4200D01*
X37398Y5500D02*
X37798D01*
X49997Y4400D02*
X50397D01*
X50197Y4600D02*
Y4200D01*
X49997Y5500D02*
X50397D01*
X24800Y6762D02*
X25200D01*
X25000Y6962D02*
Y6562D01*
X24800Y7862D02*
X25200D01*
X37398Y6762D02*
X37798D01*
X37598Y6962D02*
Y6562D01*
X37398Y7862D02*
X37798D01*
X49997Y6762D02*
X50397D01*
X50197Y6962D02*
Y6562D01*
X49997Y7862D02*
X50397D01*
X24800Y9124D02*
X25200D01*
X25000Y9324D02*
Y8924D01*
X24800Y10224D02*
X25200D01*
X37398Y9124D02*
X37798D01*
X37598Y9324D02*
Y8924D01*
X37398Y10224D02*
X37798D01*
X49997Y9124D02*
X50397D01*
X50197Y9324D02*
Y8924D01*
X49997Y10224D02*
X50397D01*
X24800Y11487D02*
X25200D01*
X25000Y11686D02*
Y11287D01*
X24800Y12587D02*
X25200D01*
X37398Y11487D02*
X37798D01*
X37598Y11686D02*
Y11287D01*
X37398Y12587D02*
X37798D01*
X49997Y11487D02*
X50397D01*
X50197Y11686D02*
Y11287D01*
X49997Y12587D02*
X50397D01*
X24800Y13849D02*
X25200D01*
X25000Y14049D02*
Y13649D01*
X24800Y14949D02*
X25200D01*
X37398Y13849D02*
X37798D01*
X37598Y14049D02*
Y13649D01*
X37398Y14949D02*
X37798D01*
X49997Y13849D02*
X50397D01*
X50197Y14049D02*
Y13649D01*
X49997Y14949D02*
X50397D01*
X24800Y16211D02*
X25200D01*
X25000Y16411D02*
Y16011D01*
X24800Y17311D02*
X25200D01*
X37398Y16211D02*
X37798D01*
X37598Y16411D02*
Y16011D01*
X37398Y17311D02*
X37798D01*
X49997Y16211D02*
X50397D01*
X50197Y16411D02*
Y16011D01*
X49997Y17311D02*
X50397D01*
X24800Y18573D02*
X25200D01*
X25000Y18773D02*
Y18373D01*
X24800Y19673D02*
X25200D01*
X37398Y18573D02*
X37798D01*
X37598Y18773D02*
Y18373D01*
X37398Y19673D02*
X37798D01*
X49997Y18573D02*
X50397D01*
X50197Y18773D02*
Y18373D01*
X49997Y19673D02*
X50397D01*
X24800Y20935D02*
X25200D01*
X25000Y21135D02*
Y20735D01*
X24800Y22035D02*
X25200D01*
X37398Y20935D02*
X37798D01*
X37598Y21135D02*
Y20735D01*
X37398Y22035D02*
X37798D01*
X49997Y20935D02*
X50397D01*
X50197Y21135D02*
Y20735D01*
X49997Y22035D02*
X50397D01*
X24800Y23298D02*
X25200D01*
X25000Y23497D02*
Y23098D01*
X24800Y24398D02*
X25200D01*
X37398Y23298D02*
X37798D01*
X37598Y23497D02*
Y23098D01*
X37398Y24398D02*
X37798D01*
X49997Y23298D02*
X50397D01*
X50197Y23497D02*
Y23098D01*
X49997Y24398D02*
X50397D01*
X24800Y25660D02*
X25200D01*
X25000Y25860D02*
Y25460D01*
X24800Y26760D02*
X25200D01*
X37398Y25660D02*
X37798D01*
X37598Y25860D02*
Y25460D01*
X37398Y26760D02*
X37798D01*
X49997Y25660D02*
X50397D01*
X50197Y25860D02*
Y25460D01*
X49997Y26760D02*
X50397D01*
X24800Y28022D02*
X25200D01*
X25000Y28222D02*
Y27822D01*
X24800Y29122D02*
X25200D01*
X37398Y28022D02*
X37798D01*
X37598Y28222D02*
Y27822D01*
X37398Y29122D02*
X37798D01*
X49997Y28022D02*
X50397D01*
X50197Y28222D02*
Y27822D01*
X49997Y29122D02*
X50397D01*
X24800Y30384D02*
X25200D01*
X25000Y30584D02*
Y30184D01*
X24800Y31484D02*
X25200D01*
X37398Y30384D02*
X37798D01*
X37598Y30584D02*
Y30184D01*
X37398Y31484D02*
X37798D01*
X49997Y30384D02*
X50397D01*
X50197Y30584D02*
Y30184D01*
X49997Y31484D02*
X50397D01*
X24800Y32746D02*
X25200D01*
X25000Y32946D02*
Y32546D01*
X24800Y33846D02*
X25200D01*
X37398Y32746D02*
X37798D01*
X37598Y32946D02*
Y32546D01*
X37398Y33846D02*
X37798D01*
X49997Y32746D02*
X50397D01*
X50197Y32946D02*
Y32546D01*
X49997Y33846D02*
X50397D01*
X24800Y35109D02*
X25200D01*
X25000Y35308D02*
Y34909D01*
X24800Y36209D02*
X25200D01*
X37398Y35109D02*
X37798D01*
X37598Y35308D02*
Y34909D01*
X37398Y36209D02*
X37798D01*
X49997Y35109D02*
X50397D01*
X50197Y35308D02*
Y34909D01*
X49997Y36209D02*
X50397D01*
X24800Y37471D02*
X25200D01*
X25000Y37671D02*
Y37271D01*
X24800Y38571D02*
X25200D01*
X37398Y37471D02*
X37798D01*
X37598Y37671D02*
Y37271D01*
X37398Y38571D02*
X37798D01*
X49997Y37471D02*
X50397D01*
X50197Y37671D02*
Y37271D01*
X49997Y38571D02*
X50397D01*
X24800Y39833D02*
X25200D01*
X25000Y40033D02*
Y39633D01*
X24800Y40933D02*
X25200D01*
X37398Y39833D02*
X37798D01*
X37598Y40033D02*
Y39633D01*
X37398Y40933D02*
X37798D01*
X49997Y39833D02*
X50397D01*
X50197Y40033D02*
Y39633D01*
X49997Y40933D02*
X50397D01*
X19550Y3900D02*
Y41700D01*
X57350D01*
Y3900D02*
Y41700D01*
X19550Y3900D02*
X57350D01*
X19550D02*
Y6262D01*
X32148D01*
X19550Y3900D02*
X32148D01*
Y6262D01*
Y3900D02*
Y6262D01*
X44747D01*
X32148Y3900D02*
X44747D01*
Y6262D01*
Y3900D02*
Y6262D01*
X57345D01*
X44747Y3900D02*
X57345D01*
Y6262D01*
X19550D02*
Y8624D01*
X32148D01*
X19550Y6262D02*
X32148D01*
Y8624D01*
Y6262D02*
Y8624D01*
X44747D01*
X32148Y6262D02*
X44747D01*
Y8624D01*
Y6262D02*
Y8624D01*
X57345D01*
X44747Y6262D02*
X57345D01*
Y8624D01*
X19550D02*
Y10987D01*
X32148D01*
X19550Y8624D02*
X32148D01*
Y10987D01*
Y8624D02*
Y10987D01*
X44747D01*
X32148Y8624D02*
X44747D01*
Y10987D01*
Y8624D02*
Y10987D01*
X57345D01*
X44747Y8624D02*
X57345D01*
Y10987D01*
X19550D02*
Y13349D01*
X32148D01*
X19550Y10987D02*
X32148D01*
Y13349D01*
Y10987D02*
Y13349D01*
X44747D01*
X32148Y10987D02*
X44747D01*
Y13349D01*
Y10987D02*
Y13349D01*
X57345D01*
X44747Y10987D02*
X57345D01*
Y13349D01*
X19550D02*
Y15711D01*
X32148D01*
X19550Y13349D02*
X32148D01*
Y15711D01*
Y13349D02*
Y15711D01*
X44747D01*
X32148Y13349D02*
X44747D01*
Y15711D01*
Y13349D02*
Y15711D01*
X57345D01*
X44747Y13349D02*
X57345D01*
Y15711D01*
X19550D02*
Y18073D01*
X32148D01*
X19550Y15711D02*
X32148D01*
Y18073D01*
Y15711D02*
Y18073D01*
X44747D01*
X32148Y15711D02*
X44747D01*
Y18073D01*
Y15711D02*
Y18073D01*
X57345D01*
X44747Y15711D02*
X57345D01*
Y18073D01*
X19550D02*
Y20435D01*
X32148D01*
X19550Y18073D02*
X32148D01*
Y20435D01*
Y18073D02*
Y20435D01*
X44747D01*
X32148Y18073D02*
X44747D01*
Y20435D01*
Y18073D02*
Y20435D01*
X57345D01*
X44747Y18073D02*
X57345D01*
Y20435D01*
X19550D02*
Y22798D01*
X32148D01*
X19550Y20435D02*
X32148D01*
Y22798D01*
Y20435D02*
Y22798D01*
X44747D01*
X32148Y20435D02*
X44747D01*
Y22798D01*
Y20435D02*
Y22798D01*
X57345D01*
X44747Y20435D02*
X57345D01*
Y22798D01*
X19550D02*
Y25160D01*
X32148D01*
X19550Y22798D02*
X32148D01*
Y25160D01*
Y22798D02*
Y25160D01*
X44747D01*
X32148Y22798D02*
X44747D01*
Y25160D01*
Y22798D02*
Y25160D01*
X57345D01*
X44747Y22798D02*
X57345D01*
Y25160D01*
X19550D02*
Y27522D01*
X32148D01*
X19550Y25160D02*
X32148D01*
Y27522D01*
Y25160D02*
Y27522D01*
X44747D01*
X32148Y25160D02*
X44747D01*
Y27522D01*
Y25160D02*
Y27522D01*
X57345D01*
X44747Y25160D02*
X57345D01*
Y27522D01*
X19550D02*
Y29884D01*
X32148D01*
X19550Y27522D02*
X32148D01*
Y29884D01*
Y27522D02*
Y29884D01*
X44747D01*
X32148Y27522D02*
X44747D01*
Y29884D01*
Y27522D02*
Y29884D01*
X57345D01*
X44747Y27522D02*
X57345D01*
Y29884D01*
X19550D02*
Y32246D01*
X32148D01*
X19550Y29884D02*
X32148D01*
Y32246D01*
Y29884D02*
Y32246D01*
X44747D01*
X32148Y29884D02*
X44747D01*
Y32246D01*
Y29884D02*
Y32246D01*
X57345D01*
X44747Y29884D02*
X57345D01*
Y32246D01*
X19550D02*
Y34609D01*
X32148D01*
X19550Y32246D02*
X32148D01*
Y34609D01*
Y32246D02*
Y34609D01*
X44747D01*
X32148Y32246D02*
X44747D01*
Y34609D01*
Y32246D02*
Y34609D01*
X57345D01*
X44747Y32246D02*
X57345D01*
Y34609D01*
X19550D02*
Y36971D01*
X32148D01*
X19550Y34609D02*
X32148D01*
Y36971D01*
Y34609D02*
Y36971D01*
X44747D01*
X32148Y34609D02*
X44747D01*
Y36971D01*
Y34609D02*
Y36971D01*
X57345D01*
X44747Y34609D02*
X57345D01*
Y36971D01*
X19550D02*
Y39333D01*
X32148D01*
X19550Y36971D02*
X32148D01*
Y39333D01*
Y36971D02*
Y39333D01*
X44747D01*
X32148Y36971D02*
X44747D01*
Y39333D01*
Y36971D02*
Y39333D01*
X57345D01*
X44747Y36971D02*
X57345D01*
Y39333D01*
X19550D02*
Y41695D01*
X32148D01*
X19550Y39333D02*
X32148D01*
Y41695D01*
Y39333D02*
Y41695D01*
X44747D01*
X32148Y39333D02*
X44747D01*
Y41695D01*
Y39333D02*
Y41695D01*
X57345D01*
X44747Y39333D02*
X57345D01*
Y41695D01*
D16*
X30000Y4254D02*
Y4727D01*
X21650Y4254D02*
Y4727D01*
X25349Y4030D02*
Y6030D01*
Y4030D02*
X26349D01*
Y6030D01*
X25349D02*
X26349D01*
X31361Y5908D02*
X31755D01*
X19944D02*
X20337D01*
X42598Y4254D02*
Y4727D01*
X34248Y4254D02*
Y4727D01*
X37948Y4030D02*
Y6030D01*
Y4030D02*
X38948D01*
Y6030D01*
X37948D02*
X38948D01*
X43959Y5908D02*
X44353D01*
X32542D02*
X32936D01*
X55197Y4254D02*
Y4727D01*
X46847Y4254D02*
Y4727D01*
X50546Y4030D02*
Y6030D01*
Y4030D02*
X51546D01*
Y6030D01*
X50546D02*
X51546D01*
X56558Y5908D02*
X56952D01*
X45141D02*
X45534D01*
X30000Y6617D02*
Y7089D01*
X21650Y6617D02*
Y7089D01*
X25349Y6392D02*
Y8392D01*
Y6392D02*
X26349D01*
Y8392D01*
X25349D02*
X26349D01*
X31361Y8270D02*
X31755D01*
X19944D02*
X20337D01*
X42598Y6617D02*
Y7089D01*
X34248Y6617D02*
Y7089D01*
X37948Y6392D02*
Y8392D01*
Y6392D02*
X38948D01*
Y8392D01*
X37948D02*
X38948D01*
X43959Y8270D02*
X44353D01*
X32542D02*
X32936D01*
X55197Y6617D02*
Y7089D01*
X46847Y6617D02*
Y7089D01*
X50546Y6392D02*
Y8392D01*
Y6392D02*
X51546D01*
Y8392D01*
X50546D02*
X51546D01*
X56558Y8270D02*
X56952D01*
X45141D02*
X45534D01*
X30000Y8979D02*
Y9451D01*
X21650Y8979D02*
Y9451D01*
X25349Y8754D02*
Y10754D01*
Y8754D02*
X26349D01*
Y10754D01*
X25349D02*
X26349D01*
X31361Y10632D02*
X31755D01*
X19944D02*
X20337D01*
X42598Y8979D02*
Y9451D01*
X34248Y8979D02*
Y9451D01*
X37948Y8754D02*
Y10754D01*
Y8754D02*
X38948D01*
Y10754D01*
X37948D02*
X38948D01*
X43959Y10632D02*
X44353D01*
X32542D02*
X32936D01*
X55197Y8979D02*
Y9451D01*
X46847Y8979D02*
Y9451D01*
X50546Y8754D02*
Y10754D01*
Y8754D02*
X51546D01*
Y10754D01*
X50546D02*
X51546D01*
X56558Y10632D02*
X56952D01*
X45141D02*
X45534D01*
X30000Y11341D02*
Y11813D01*
X21650Y11341D02*
Y11813D01*
X25349Y11117D02*
Y13117D01*
Y11117D02*
X26349D01*
Y13117D01*
X25349D02*
X26349D01*
X31361Y12994D02*
X31755D01*
X19944D02*
X20337D01*
X42598Y11341D02*
Y11813D01*
X34248Y11341D02*
Y11813D01*
X37948Y11117D02*
Y13117D01*
Y11117D02*
X38948D01*
Y13117D01*
X37948D02*
X38948D01*
X43959Y12994D02*
X44353D01*
X32542D02*
X32936D01*
X55197Y11341D02*
Y11813D01*
X46847Y11341D02*
Y11813D01*
X50546Y11117D02*
Y13117D01*
Y11117D02*
X51546D01*
Y13117D01*
X50546D02*
X51546D01*
X56558Y12994D02*
X56952D01*
X45141D02*
X45534D01*
X30000Y13703D02*
Y14176D01*
X21650Y13703D02*
Y14176D01*
X25349Y13479D02*
Y15479D01*
Y13479D02*
X26349D01*
Y15479D01*
X25349D02*
X26349D01*
X31361Y15357D02*
X31755D01*
X19944D02*
X20337D01*
X42598Y13703D02*
Y14176D01*
X34248Y13703D02*
Y14176D01*
X37948Y13479D02*
Y15479D01*
Y13479D02*
X38948D01*
Y15479D01*
X37948D02*
X38948D01*
X43959Y15357D02*
X44353D01*
X32542D02*
X32936D01*
X55197Y13703D02*
Y14176D01*
X46847Y13703D02*
Y14176D01*
X50546Y13479D02*
Y15479D01*
Y13479D02*
X51546D01*
Y15479D01*
X50546D02*
X51546D01*
X56558Y15357D02*
X56952D01*
X45141D02*
X45534D01*
X30000Y16065D02*
Y16538D01*
X21650Y16065D02*
Y16538D01*
X25349Y15841D02*
Y17841D01*
Y15841D02*
X26349D01*
Y17841D01*
X25349D02*
X26349D01*
X31361Y17719D02*
X31755D01*
X19944D02*
X20337D01*
X42598Y16065D02*
Y16538D01*
X34248Y16065D02*
Y16538D01*
X37948Y15841D02*
Y17841D01*
Y15841D02*
X38948D01*
Y17841D01*
X37948D02*
X38948D01*
X43959Y17719D02*
X44353D01*
X32542D02*
X32936D01*
X55197Y16065D02*
Y16538D01*
X46847Y16065D02*
Y16538D01*
X50546Y15841D02*
Y17841D01*
Y15841D02*
X51546D01*
Y17841D01*
X50546D02*
X51546D01*
X56558Y17719D02*
X56952D01*
X45141D02*
X45534D01*
X30000Y18428D02*
Y18900D01*
X21650Y18428D02*
Y18900D01*
X25349Y18203D02*
Y20203D01*
Y18203D02*
X26349D01*
Y20203D01*
X25349D02*
X26349D01*
X31361Y20081D02*
X31755D01*
X19944D02*
X20337D01*
X42598Y18428D02*
Y18900D01*
X34248Y18428D02*
Y18900D01*
X37948Y18203D02*
Y20203D01*
Y18203D02*
X38948D01*
Y20203D01*
X37948D02*
X38948D01*
X43959Y20081D02*
X44353D01*
X32542D02*
X32936D01*
X55197Y18428D02*
Y18900D01*
X46847Y18428D02*
Y18900D01*
X50546Y18203D02*
Y20203D01*
Y18203D02*
X51546D01*
Y20203D01*
X50546D02*
X51546D01*
X56558Y20081D02*
X56952D01*
X45141D02*
X45534D01*
X30000Y20790D02*
Y21262D01*
X21650Y20790D02*
Y21262D01*
X25349Y20565D02*
Y22565D01*
Y20565D02*
X26349D01*
Y22565D01*
X25349D02*
X26349D01*
X31361Y22443D02*
X31755D01*
X19944D02*
X20337D01*
X42598Y20790D02*
Y21262D01*
X34248Y20790D02*
Y21262D01*
X37948Y20565D02*
Y22565D01*
Y20565D02*
X38948D01*
Y22565D01*
X37948D02*
X38948D01*
X43959Y22443D02*
X44353D01*
X32542D02*
X32936D01*
X55197Y20790D02*
Y21262D01*
X46847Y20790D02*
Y21262D01*
X50546Y20565D02*
Y22565D01*
Y20565D02*
X51546D01*
Y22565D01*
X50546D02*
X51546D01*
X56558Y22443D02*
X56952D01*
X45141D02*
X45534D01*
X30000Y23152D02*
Y23624D01*
X21650Y23152D02*
Y23624D01*
X25349Y22928D02*
Y24928D01*
Y22928D02*
X26349D01*
Y24928D01*
X25349D02*
X26349D01*
X31361Y24806D02*
X31755D01*
X19944D02*
X20337D01*
X42598Y23152D02*
Y23624D01*
X34248Y23152D02*
Y23624D01*
X37948Y22928D02*
Y24928D01*
Y22928D02*
X38948D01*
Y24928D01*
X37948D02*
X38948D01*
X43959Y24806D02*
X44353D01*
X32542D02*
X32936D01*
X55197Y23152D02*
Y23624D01*
X46847Y23152D02*
Y23624D01*
X50546Y22928D02*
Y24928D01*
Y22928D02*
X51546D01*
Y24928D01*
X50546D02*
X51546D01*
X56558Y24806D02*
X56952D01*
X45141D02*
X45534D01*
X30000Y25514D02*
Y25987D01*
X21650Y25514D02*
Y25987D01*
X25349Y25290D02*
Y27290D01*
Y25290D02*
X26349D01*
Y27290D01*
X25349D02*
X26349D01*
X31361Y27168D02*
X31755D01*
X19944D02*
X20337D01*
X42598Y25514D02*
Y25987D01*
X34248Y25514D02*
Y25987D01*
X37948Y25290D02*
Y27290D01*
Y25290D02*
X38948D01*
Y27290D01*
X37948D02*
X38948D01*
X43959Y27168D02*
X44353D01*
X32542D02*
X32936D01*
X55197Y25514D02*
Y25987D01*
X46847Y25514D02*
Y25987D01*
X50546Y25290D02*
Y27290D01*
Y25290D02*
X51546D01*
Y27290D01*
X50546D02*
X51546D01*
X56558Y27168D02*
X56952D01*
X45141D02*
X45534D01*
X30000Y27876D02*
Y28349D01*
X21650Y27876D02*
Y28349D01*
X25349Y27652D02*
Y29652D01*
Y27652D02*
X26349D01*
Y29652D01*
X25349D02*
X26349D01*
X31361Y29530D02*
X31755D01*
X19944D02*
X20337D01*
X42598Y27876D02*
Y28349D01*
X34248Y27876D02*
Y28349D01*
X37948Y27652D02*
Y29652D01*
Y27652D02*
X38948D01*
Y29652D01*
X37948D02*
X38948D01*
X43959Y29530D02*
X44353D01*
X32542D02*
X32936D01*
X55197Y27876D02*
Y28349D01*
X46847Y27876D02*
Y28349D01*
X50546Y27652D02*
Y29652D01*
Y27652D02*
X51546D01*
Y29652D01*
X50546D02*
X51546D01*
X56558Y29530D02*
X56952D01*
X45141D02*
X45534D01*
X30000Y30239D02*
Y30711D01*
X21650Y30239D02*
Y30711D01*
X25349Y30014D02*
Y32014D01*
Y30014D02*
X26349D01*
Y32014D01*
X25349D02*
X26349D01*
X31361Y31892D02*
X31755D01*
X19944D02*
X20337D01*
X42598Y30239D02*
Y30711D01*
X34248Y30239D02*
Y30711D01*
X37948Y30014D02*
Y32014D01*
Y30014D02*
X38948D01*
Y32014D01*
X37948D02*
X38948D01*
X43959Y31892D02*
X44353D01*
X32542D02*
X32936D01*
X55197Y30239D02*
Y30711D01*
X46847Y30239D02*
Y30711D01*
X50546Y30014D02*
Y32014D01*
Y30014D02*
X51546D01*
Y32014D01*
X50546D02*
X51546D01*
X56558Y31892D02*
X56952D01*
X45141D02*
X45534D01*
X30000Y32601D02*
Y33073D01*
X21650Y32601D02*
Y33073D01*
X25349Y32376D02*
Y34376D01*
Y32376D02*
X26349D01*
Y34376D01*
X25349D02*
X26349D01*
X31361Y34254D02*
X31755D01*
X19944D02*
X20337D01*
X42598Y32601D02*
Y33073D01*
X34248Y32601D02*
Y33073D01*
X37948Y32376D02*
Y34376D01*
Y32376D02*
X38948D01*
Y34376D01*
X37948D02*
X38948D01*
X43959Y34254D02*
X44353D01*
X32542D02*
X32936D01*
X55197Y32601D02*
Y33073D01*
X46847Y32601D02*
Y33073D01*
X50546Y32376D02*
Y34376D01*
Y32376D02*
X51546D01*
Y34376D01*
X50546D02*
X51546D01*
X56558Y34254D02*
X56952D01*
X45141D02*
X45534D01*
X30000Y34963D02*
Y35435D01*
X21650Y34963D02*
Y35435D01*
X25349Y34739D02*
Y36739D01*
Y34739D02*
X26349D01*
Y36739D01*
X25349D02*
X26349D01*
X31361Y36617D02*
X31755D01*
X19944D02*
X20337D01*
X42598Y34963D02*
Y35435D01*
X34248Y34963D02*
Y35435D01*
X37948Y34739D02*
Y36739D01*
Y34739D02*
X38948D01*
Y36739D01*
X37948D02*
X38948D01*
X43959Y36617D02*
X44353D01*
X32542D02*
X32936D01*
X55197Y34963D02*
Y35435D01*
X46847Y34963D02*
Y35435D01*
X50546Y34739D02*
Y36739D01*
Y34739D02*
X51546D01*
Y36739D01*
X50546D02*
X51546D01*
X56558Y36617D02*
X56952D01*
X45141D02*
X45534D01*
X30000Y37325D02*
Y37798D01*
X21650Y37325D02*
Y37798D01*
X25349Y37101D02*
Y39101D01*
Y37101D02*
X26349D01*
Y39101D01*
X25349D02*
X26349D01*
X31361Y38979D02*
X31755D01*
X19944D02*
X20337D01*
X42598Y37325D02*
Y37798D01*
X34248Y37325D02*
Y37798D01*
X37948Y37101D02*
Y39101D01*
Y37101D02*
X38948D01*
Y39101D01*
X37948D02*
X38948D01*
X43959Y38979D02*
X44353D01*
X32542D02*
X32936D01*
X55197Y37325D02*
Y37798D01*
X46847Y37325D02*
Y37798D01*
X50546Y37101D02*
Y39101D01*
Y37101D02*
X51546D01*
Y39101D01*
X50546D02*
X51546D01*
X56558Y38979D02*
X56952D01*
X45141D02*
X45534D01*
X30000Y39687D02*
Y40160D01*
X21650Y39687D02*
Y40160D01*
X25349Y39463D02*
Y41463D01*
Y39463D02*
X26349D01*
Y41463D01*
X25349D02*
X26349D01*
X31361Y41341D02*
X31755D01*
X19944D02*
X20337D01*
X42598Y39687D02*
Y40160D01*
X34248Y39687D02*
Y40160D01*
X37948Y39463D02*
Y41463D01*
Y39463D02*
X38948D01*
Y41463D01*
X37948D02*
X38948D01*
X43959Y41341D02*
X44353D01*
X32542D02*
X32936D01*
X55197Y39687D02*
Y40160D01*
X46847Y39687D02*
Y40160D01*
X50546Y39463D02*
Y41463D01*
Y39463D02*
X51546D01*
Y41463D01*
X50546D02*
X51546D01*
X56558Y41341D02*
X56952D01*
X45141D02*
X45534D01*
D17*
X30556Y5692D02*
Y5292D01*
X30755D01*
X30822Y5359D01*
Y5625D01*
X30755Y5692D01*
X30556D01*
X30955D02*
X31222D01*
Y5625D01*
X30955Y5359D01*
Y5292D01*
X20706Y5892D02*
Y5492D01*
X20905D01*
X20972Y5559D01*
Y5825D01*
X20905Y5892D01*
X20706D01*
X21105Y5825D02*
X21172Y5892D01*
X21305D01*
X21372Y5825D01*
Y5759D01*
X21305Y5692D01*
X21372Y5625D01*
Y5559D01*
X21305Y5492D01*
X21172D01*
X21105Y5559D01*
Y5625D01*
X21172Y5692D01*
X21105Y5759D01*
Y5825D01*
X21172Y5692D02*
X21305D01*
X26606Y5471D02*
Y5871D01*
X26805D01*
X26872Y5804D01*
Y5671D01*
X26805Y5604D01*
X26606D01*
X27005Y5804D02*
X27072Y5871D01*
X27205D01*
X27272Y5804D01*
Y5737D01*
X27205Y5671D01*
X27139D01*
X27205D01*
X27272Y5604D01*
Y5538D01*
X27205Y5471D01*
X27072D01*
X27005Y5538D01*
X28550Y4241D02*
Y4640D01*
X28750D01*
X28817Y4574D01*
Y4440D01*
X28750Y4374D01*
X28550D01*
X28683D02*
X28817Y4241D01*
X28950Y4574D02*
X29017Y4640D01*
X29150D01*
X29216Y4574D01*
Y4507D01*
X29150Y4440D01*
X29216Y4374D01*
Y4307D01*
X29150Y4241D01*
X29017D01*
X28950Y4307D01*
Y4374D01*
X29017Y4440D01*
X28950Y4507D01*
Y4574D01*
X29017Y4440D02*
X29150D01*
X22500Y4291D02*
Y4690D01*
X22700D01*
X22767Y4624D01*
Y4490D01*
X22700Y4424D01*
X22500D01*
X22633D02*
X22767Y4291D01*
X22900Y4357D02*
X22967Y4291D01*
X23100D01*
X23166Y4357D01*
Y4624D01*
X23100Y4690D01*
X22967D01*
X22900Y4624D01*
Y4557D01*
X22967Y4490D01*
X23166D01*
X43154Y5692D02*
Y5292D01*
X43354D01*
X43421Y5359D01*
Y5625D01*
X43354Y5692D01*
X43154D01*
X43554D02*
X43820D01*
Y5625D01*
X43554Y5359D01*
Y5292D01*
X33304Y5892D02*
Y5492D01*
X33504D01*
X33571Y5559D01*
Y5825D01*
X33504Y5892D01*
X33304D01*
X33704Y5825D02*
X33770Y5892D01*
X33904D01*
X33970Y5825D01*
Y5759D01*
X33904Y5692D01*
X33970Y5625D01*
Y5559D01*
X33904Y5492D01*
X33770D01*
X33704Y5559D01*
Y5625D01*
X33770Y5692D01*
X33704Y5759D01*
Y5825D01*
X33770Y5692D02*
X33904D01*
X39204Y5471D02*
Y5871D01*
X39404D01*
X39471Y5804D01*
Y5671D01*
X39404Y5604D01*
X39204D01*
X39604Y5804D02*
X39670Y5871D01*
X39804D01*
X39870Y5804D01*
Y5737D01*
X39804Y5671D01*
X39737D01*
X39804D01*
X39870Y5604D01*
Y5538D01*
X39804Y5471D01*
X39670D01*
X39604Y5538D01*
X41148Y4241D02*
Y4640D01*
X41348D01*
X41415Y4574D01*
Y4440D01*
X41348Y4374D01*
X41148D01*
X41282D02*
X41415Y4241D01*
X41548Y4574D02*
X41615Y4640D01*
X41748D01*
X41815Y4574D01*
Y4507D01*
X41748Y4440D01*
X41815Y4374D01*
Y4307D01*
X41748Y4241D01*
X41615D01*
X41548Y4307D01*
Y4374D01*
X41615Y4440D01*
X41548Y4507D01*
Y4574D01*
X41615Y4440D02*
X41748D01*
X35098Y4291D02*
Y4690D01*
X35298D01*
X35365Y4624D01*
Y4490D01*
X35298Y4424D01*
X35098D01*
X35232D02*
X35365Y4291D01*
X35498Y4357D02*
X35565Y4291D01*
X35698D01*
X35765Y4357D01*
Y4624D01*
X35698Y4690D01*
X35565D01*
X35498Y4624D01*
Y4557D01*
X35565Y4490D01*
X35765D01*
X55752Y5692D02*
Y5292D01*
X55952D01*
X56019Y5359D01*
Y5625D01*
X55952Y5692D01*
X55752D01*
X56152D02*
X56419D01*
Y5625D01*
X56152Y5359D01*
Y5292D01*
X45902Y5892D02*
Y5492D01*
X46102D01*
X46169Y5559D01*
Y5825D01*
X46102Y5892D01*
X45902D01*
X46302Y5825D02*
X46369Y5892D01*
X46502D01*
X46569Y5825D01*
Y5759D01*
X46502Y5692D01*
X46569Y5625D01*
Y5559D01*
X46502Y5492D01*
X46369D01*
X46302Y5559D01*
Y5625D01*
X46369Y5692D01*
X46302Y5759D01*
Y5825D01*
X46369Y5692D02*
X46502D01*
X51802Y5471D02*
Y5871D01*
X52002D01*
X52069Y5804D01*
Y5671D01*
X52002Y5604D01*
X51802D01*
X52202Y5804D02*
X52269Y5871D01*
X52402D01*
X52469Y5804D01*
Y5737D01*
X52402Y5671D01*
X52336D01*
X52402D01*
X52469Y5604D01*
Y5538D01*
X52402Y5471D01*
X52269D01*
X52202Y5538D01*
X53747Y4241D02*
Y4640D01*
X53947D01*
X54013Y4574D01*
Y4440D01*
X53947Y4374D01*
X53747D01*
X53880D02*
X54013Y4241D01*
X54147Y4574D02*
X54213Y4640D01*
X54347D01*
X54413Y4574D01*
Y4507D01*
X54347Y4440D01*
X54413Y4374D01*
Y4307D01*
X54347Y4241D01*
X54213D01*
X54147Y4307D01*
Y4374D01*
X54213Y4440D01*
X54147Y4507D01*
Y4574D01*
X54213Y4440D02*
X54347D01*
X47697Y4291D02*
Y4690D01*
X47897D01*
X47963Y4624D01*
Y4490D01*
X47897Y4424D01*
X47697D01*
X47830D02*
X47963Y4291D01*
X48097Y4357D02*
X48163Y4291D01*
X48297D01*
X48363Y4357D01*
Y4624D01*
X48297Y4690D01*
X48163D01*
X48097Y4624D01*
Y4557D01*
X48163Y4490D01*
X48363D01*
X30556Y8054D02*
Y7654D01*
X30755D01*
X30822Y7721D01*
Y7988D01*
X30755Y8054D01*
X30556D01*
X30955D02*
X31222D01*
Y7988D01*
X30955Y7721D01*
Y7654D01*
X20706Y8254D02*
Y7854D01*
X20905D01*
X20972Y7921D01*
Y8188D01*
X20905Y8254D01*
X20706D01*
X21105Y8188D02*
X21172Y8254D01*
X21305D01*
X21372Y8188D01*
Y8121D01*
X21305Y8054D01*
X21372Y7988D01*
Y7921D01*
X21305Y7854D01*
X21172D01*
X21105Y7921D01*
Y7988D01*
X21172Y8054D01*
X21105Y8121D01*
Y8188D01*
X21172Y8054D02*
X21305D01*
X26606Y7833D02*
Y8233D01*
X26805D01*
X26872Y8166D01*
Y8033D01*
X26805Y7966D01*
X26606D01*
X27005Y8166D02*
X27072Y8233D01*
X27205D01*
X27272Y8166D01*
Y8100D01*
X27205Y8033D01*
X27139D01*
X27205D01*
X27272Y7966D01*
Y7900D01*
X27205Y7833D01*
X27072D01*
X27005Y7900D01*
X28550Y6603D02*
Y7003D01*
X28750D01*
X28817Y6936D01*
Y6803D01*
X28750Y6736D01*
X28550D01*
X28683D02*
X28817Y6603D01*
X28950Y6936D02*
X29017Y7003D01*
X29150D01*
X29216Y6936D01*
Y6869D01*
X29150Y6803D01*
X29216Y6736D01*
Y6669D01*
X29150Y6603D01*
X29017D01*
X28950Y6669D01*
Y6736D01*
X29017Y6803D01*
X28950Y6869D01*
Y6936D01*
X29017Y6803D02*
X29150D01*
X22500Y6653D02*
Y7053D01*
X22700D01*
X22767Y6986D01*
Y6853D01*
X22700Y6786D01*
X22500D01*
X22633D02*
X22767Y6653D01*
X22900Y6719D02*
X22967Y6653D01*
X23100D01*
X23166Y6719D01*
Y6986D01*
X23100Y7053D01*
X22967D01*
X22900Y6986D01*
Y6919D01*
X22967Y6853D01*
X23166D01*
X43154Y8054D02*
Y7654D01*
X43354D01*
X43421Y7721D01*
Y7988D01*
X43354Y8054D01*
X43154D01*
X43554D02*
X43820D01*
Y7988D01*
X43554Y7721D01*
Y7654D01*
X33304Y8254D02*
Y7854D01*
X33504D01*
X33571Y7921D01*
Y8188D01*
X33504Y8254D01*
X33304D01*
X33704Y8188D02*
X33770Y8254D01*
X33904D01*
X33970Y8188D01*
Y8121D01*
X33904Y8054D01*
X33970Y7988D01*
Y7921D01*
X33904Y7854D01*
X33770D01*
X33704Y7921D01*
Y7988D01*
X33770Y8054D01*
X33704Y8121D01*
Y8188D01*
X33770Y8054D02*
X33904D01*
X39204Y7833D02*
Y8233D01*
X39404D01*
X39471Y8166D01*
Y8033D01*
X39404Y7966D01*
X39204D01*
X39604Y8166D02*
X39670Y8233D01*
X39804D01*
X39870Y8166D01*
Y8100D01*
X39804Y8033D01*
X39737D01*
X39804D01*
X39870Y7966D01*
Y7900D01*
X39804Y7833D01*
X39670D01*
X39604Y7900D01*
X41148Y6603D02*
Y7003D01*
X41348D01*
X41415Y6936D01*
Y6803D01*
X41348Y6736D01*
X41148D01*
X41282D02*
X41415Y6603D01*
X41548Y6936D02*
X41615Y7003D01*
X41748D01*
X41815Y6936D01*
Y6869D01*
X41748Y6803D01*
X41815Y6736D01*
Y6669D01*
X41748Y6603D01*
X41615D01*
X41548Y6669D01*
Y6736D01*
X41615Y6803D01*
X41548Y6869D01*
Y6936D01*
X41615Y6803D02*
X41748D01*
X35098Y6653D02*
Y7053D01*
X35298D01*
X35365Y6986D01*
Y6853D01*
X35298Y6786D01*
X35098D01*
X35232D02*
X35365Y6653D01*
X35498Y6719D02*
X35565Y6653D01*
X35698D01*
X35765Y6719D01*
Y6986D01*
X35698Y7053D01*
X35565D01*
X35498Y6986D01*
Y6919D01*
X35565Y6853D01*
X35765D01*
X55752Y8054D02*
Y7654D01*
X55952D01*
X56019Y7721D01*
Y7988D01*
X55952Y8054D01*
X55752D01*
X56152D02*
X56419D01*
Y7988D01*
X56152Y7721D01*
Y7654D01*
X45902Y8254D02*
Y7854D01*
X46102D01*
X46169Y7921D01*
Y8188D01*
X46102Y8254D01*
X45902D01*
X46302Y8188D02*
X46369Y8254D01*
X46502D01*
X46569Y8188D01*
Y8121D01*
X46502Y8054D01*
X46569Y7988D01*
Y7921D01*
X46502Y7854D01*
X46369D01*
X46302Y7921D01*
Y7988D01*
X46369Y8054D01*
X46302Y8121D01*
Y8188D01*
X46369Y8054D02*
X46502D01*
X51802Y7833D02*
Y8233D01*
X52002D01*
X52069Y8166D01*
Y8033D01*
X52002Y7966D01*
X51802D01*
X52202Y8166D02*
X52269Y8233D01*
X52402D01*
X52469Y8166D01*
Y8100D01*
X52402Y8033D01*
X52336D01*
X52402D01*
X52469Y7966D01*
Y7900D01*
X52402Y7833D01*
X52269D01*
X52202Y7900D01*
X53747Y6603D02*
Y7003D01*
X53947D01*
X54013Y6936D01*
Y6803D01*
X53947Y6736D01*
X53747D01*
X53880D02*
X54013Y6603D01*
X54147Y6936D02*
X54213Y7003D01*
X54347D01*
X54413Y6936D01*
Y6869D01*
X54347Y6803D01*
X54413Y6736D01*
Y6669D01*
X54347Y6603D01*
X54213D01*
X54147Y6669D01*
Y6736D01*
X54213Y6803D01*
X54147Y6869D01*
Y6936D01*
X54213Y6803D02*
X54347D01*
X47697Y6653D02*
Y7053D01*
X47897D01*
X47963Y6986D01*
Y6853D01*
X47897Y6786D01*
X47697D01*
X47830D02*
X47963Y6653D01*
X48097Y6719D02*
X48163Y6653D01*
X48297D01*
X48363Y6719D01*
Y6986D01*
X48297Y7053D01*
X48163D01*
X48097Y6986D01*
Y6919D01*
X48163Y6853D01*
X48363D01*
X30556Y10416D02*
Y10017D01*
X30755D01*
X30822Y10083D01*
Y10350D01*
X30755Y10416D01*
X30556D01*
X30955D02*
X31222D01*
Y10350D01*
X30955Y10083D01*
Y10017D01*
X20706Y10616D02*
Y10217D01*
X20905D01*
X20972Y10283D01*
Y10550D01*
X20905Y10616D01*
X20706D01*
X21105Y10550D02*
X21172Y10616D01*
X21305D01*
X21372Y10550D01*
Y10483D01*
X21305Y10416D01*
X21372Y10350D01*
Y10283D01*
X21305Y10217D01*
X21172D01*
X21105Y10283D01*
Y10350D01*
X21172Y10416D01*
X21105Y10483D01*
Y10550D01*
X21172Y10416D02*
X21305D01*
X26606Y10195D02*
Y10595D01*
X26805D01*
X26872Y10529D01*
Y10395D01*
X26805Y10329D01*
X26606D01*
X27005Y10529D02*
X27072Y10595D01*
X27205D01*
X27272Y10529D01*
Y10462D01*
X27205Y10395D01*
X27139D01*
X27205D01*
X27272Y10329D01*
Y10262D01*
X27205Y10195D01*
X27072D01*
X27005Y10262D01*
X28550Y8965D02*
Y9365D01*
X28750D01*
X28817Y9298D01*
Y9165D01*
X28750Y9098D01*
X28550D01*
X28683D02*
X28817Y8965D01*
X28950Y9298D02*
X29017Y9365D01*
X29150D01*
X29216Y9298D01*
Y9232D01*
X29150Y9165D01*
X29216Y9098D01*
Y9032D01*
X29150Y8965D01*
X29017D01*
X28950Y9032D01*
Y9098D01*
X29017Y9165D01*
X28950Y9232D01*
Y9298D01*
X29017Y9165D02*
X29150D01*
X22500Y9015D02*
Y9415D01*
X22700D01*
X22767Y9348D01*
Y9215D01*
X22700Y9148D01*
X22500D01*
X22633D02*
X22767Y9015D01*
X22900Y9082D02*
X22967Y9015D01*
X23100D01*
X23166Y9082D01*
Y9348D01*
X23100Y9415D01*
X22967D01*
X22900Y9348D01*
Y9282D01*
X22967Y9215D01*
X23166D01*
X43154Y10416D02*
Y10017D01*
X43354D01*
X43421Y10083D01*
Y10350D01*
X43354Y10416D01*
X43154D01*
X43554D02*
X43820D01*
Y10350D01*
X43554Y10083D01*
Y10017D01*
X33304Y10616D02*
Y10217D01*
X33504D01*
X33571Y10283D01*
Y10550D01*
X33504Y10616D01*
X33304D01*
X33704Y10550D02*
X33770Y10616D01*
X33904D01*
X33970Y10550D01*
Y10483D01*
X33904Y10416D01*
X33970Y10350D01*
Y10283D01*
X33904Y10217D01*
X33770D01*
X33704Y10283D01*
Y10350D01*
X33770Y10416D01*
X33704Y10483D01*
Y10550D01*
X33770Y10416D02*
X33904D01*
X39204Y10195D02*
Y10595D01*
X39404D01*
X39471Y10529D01*
Y10395D01*
X39404Y10329D01*
X39204D01*
X39604Y10529D02*
X39670Y10595D01*
X39804D01*
X39870Y10529D01*
Y10462D01*
X39804Y10395D01*
X39737D01*
X39804D01*
X39870Y10329D01*
Y10262D01*
X39804Y10195D01*
X39670D01*
X39604Y10262D01*
X41148Y8965D02*
Y9365D01*
X41348D01*
X41415Y9298D01*
Y9165D01*
X41348Y9098D01*
X41148D01*
X41282D02*
X41415Y8965D01*
X41548Y9298D02*
X41615Y9365D01*
X41748D01*
X41815Y9298D01*
Y9232D01*
X41748Y9165D01*
X41815Y9098D01*
Y9032D01*
X41748Y8965D01*
X41615D01*
X41548Y9032D01*
Y9098D01*
X41615Y9165D01*
X41548Y9232D01*
Y9298D01*
X41615Y9165D02*
X41748D01*
X35098Y9015D02*
Y9415D01*
X35298D01*
X35365Y9348D01*
Y9215D01*
X35298Y9148D01*
X35098D01*
X35232D02*
X35365Y9015D01*
X35498Y9082D02*
X35565Y9015D01*
X35698D01*
X35765Y9082D01*
Y9348D01*
X35698Y9415D01*
X35565D01*
X35498Y9348D01*
Y9282D01*
X35565Y9215D01*
X35765D01*
X55752Y10416D02*
Y10017D01*
X55952D01*
X56019Y10083D01*
Y10350D01*
X55952Y10416D01*
X55752D01*
X56152D02*
X56419D01*
Y10350D01*
X56152Y10083D01*
Y10017D01*
X45902Y10616D02*
Y10217D01*
X46102D01*
X46169Y10283D01*
Y10550D01*
X46102Y10616D01*
X45902D01*
X46302Y10550D02*
X46369Y10616D01*
X46502D01*
X46569Y10550D01*
Y10483D01*
X46502Y10416D01*
X46569Y10350D01*
Y10283D01*
X46502Y10217D01*
X46369D01*
X46302Y10283D01*
Y10350D01*
X46369Y10416D01*
X46302Y10483D01*
Y10550D01*
X46369Y10416D02*
X46502D01*
X51802Y10195D02*
Y10595D01*
X52002D01*
X52069Y10529D01*
Y10395D01*
X52002Y10329D01*
X51802D01*
X52202Y10529D02*
X52269Y10595D01*
X52402D01*
X52469Y10529D01*
Y10462D01*
X52402Y10395D01*
X52336D01*
X52402D01*
X52469Y10329D01*
Y10262D01*
X52402Y10195D01*
X52269D01*
X52202Y10262D01*
X53747Y8965D02*
Y9365D01*
X53947D01*
X54013Y9298D01*
Y9165D01*
X53947Y9098D01*
X53747D01*
X53880D02*
X54013Y8965D01*
X54147Y9298D02*
X54213Y9365D01*
X54347D01*
X54413Y9298D01*
Y9232D01*
X54347Y9165D01*
X54413Y9098D01*
Y9032D01*
X54347Y8965D01*
X54213D01*
X54147Y9032D01*
Y9098D01*
X54213Y9165D01*
X54147Y9232D01*
Y9298D01*
X54213Y9165D02*
X54347D01*
X47697Y9015D02*
Y9415D01*
X47897D01*
X47963Y9348D01*
Y9215D01*
X47897Y9148D01*
X47697D01*
X47830D02*
X47963Y9015D01*
X48097Y9082D02*
X48163Y9015D01*
X48297D01*
X48363Y9082D01*
Y9348D01*
X48297Y9415D01*
X48163D01*
X48097Y9348D01*
Y9282D01*
X48163Y9215D01*
X48363D01*
X30556Y12779D02*
Y12379D01*
X30755D01*
X30822Y12445D01*
Y12712D01*
X30755Y12779D01*
X30556D01*
X30955D02*
X31222D01*
Y12712D01*
X30955Y12445D01*
Y12379D01*
X20706Y12979D02*
Y12579D01*
X20905D01*
X20972Y12645D01*
Y12912D01*
X20905Y12979D01*
X20706D01*
X21105Y12912D02*
X21172Y12979D01*
X21305D01*
X21372Y12912D01*
Y12845D01*
X21305Y12779D01*
X21372Y12712D01*
Y12645D01*
X21305Y12579D01*
X21172D01*
X21105Y12645D01*
Y12712D01*
X21172Y12779D01*
X21105Y12845D01*
Y12912D01*
X21172Y12779D02*
X21305D01*
X26606Y12557D02*
Y12957D01*
X26805D01*
X26872Y12891D01*
Y12757D01*
X26805Y12691D01*
X26606D01*
X27005Y12891D02*
X27072Y12957D01*
X27205D01*
X27272Y12891D01*
Y12824D01*
X27205Y12757D01*
X27139D01*
X27205D01*
X27272Y12691D01*
Y12624D01*
X27205Y12557D01*
X27072D01*
X27005Y12624D01*
X28550Y11327D02*
Y11727D01*
X28750D01*
X28817Y11660D01*
Y11527D01*
X28750Y11460D01*
X28550D01*
X28683D02*
X28817Y11327D01*
X28950Y11660D02*
X29017Y11727D01*
X29150D01*
X29216Y11660D01*
Y11594D01*
X29150Y11527D01*
X29216Y11460D01*
Y11394D01*
X29150Y11327D01*
X29017D01*
X28950Y11394D01*
Y11460D01*
X29017Y11527D01*
X28950Y11594D01*
Y11660D01*
X29017Y11527D02*
X29150D01*
X22500Y11377D02*
Y11777D01*
X22700D01*
X22767Y11710D01*
Y11577D01*
X22700Y11510D01*
X22500D01*
X22633D02*
X22767Y11377D01*
X22900Y11444D02*
X22967Y11377D01*
X23100D01*
X23166Y11444D01*
Y11710D01*
X23100Y11777D01*
X22967D01*
X22900Y11710D01*
Y11644D01*
X22967Y11577D01*
X23166D01*
X43154Y12779D02*
Y12379D01*
X43354D01*
X43421Y12445D01*
Y12712D01*
X43354Y12779D01*
X43154D01*
X43554D02*
X43820D01*
Y12712D01*
X43554Y12445D01*
Y12379D01*
X33304Y12979D02*
Y12579D01*
X33504D01*
X33571Y12645D01*
Y12912D01*
X33504Y12979D01*
X33304D01*
X33704Y12912D02*
X33770Y12979D01*
X33904D01*
X33970Y12912D01*
Y12845D01*
X33904Y12779D01*
X33970Y12712D01*
Y12645D01*
X33904Y12579D01*
X33770D01*
X33704Y12645D01*
Y12712D01*
X33770Y12779D01*
X33704Y12845D01*
Y12912D01*
X33770Y12779D02*
X33904D01*
X39204Y12557D02*
Y12957D01*
X39404D01*
X39471Y12891D01*
Y12757D01*
X39404Y12691D01*
X39204D01*
X39604Y12891D02*
X39670Y12957D01*
X39804D01*
X39870Y12891D01*
Y12824D01*
X39804Y12757D01*
X39737D01*
X39804D01*
X39870Y12691D01*
Y12624D01*
X39804Y12557D01*
X39670D01*
X39604Y12624D01*
X41148Y11327D02*
Y11727D01*
X41348D01*
X41415Y11660D01*
Y11527D01*
X41348Y11460D01*
X41148D01*
X41282D02*
X41415Y11327D01*
X41548Y11660D02*
X41615Y11727D01*
X41748D01*
X41815Y11660D01*
Y11594D01*
X41748Y11527D01*
X41815Y11460D01*
Y11394D01*
X41748Y11327D01*
X41615D01*
X41548Y11394D01*
Y11460D01*
X41615Y11527D01*
X41548Y11594D01*
Y11660D01*
X41615Y11527D02*
X41748D01*
X35098Y11377D02*
Y11777D01*
X35298D01*
X35365Y11710D01*
Y11577D01*
X35298Y11510D01*
X35098D01*
X35232D02*
X35365Y11377D01*
X35498Y11444D02*
X35565Y11377D01*
X35698D01*
X35765Y11444D01*
Y11710D01*
X35698Y11777D01*
X35565D01*
X35498Y11710D01*
Y11644D01*
X35565Y11577D01*
X35765D01*
X55752Y12779D02*
Y12379D01*
X55952D01*
X56019Y12445D01*
Y12712D01*
X55952Y12779D01*
X55752D01*
X56152D02*
X56419D01*
Y12712D01*
X56152Y12445D01*
Y12379D01*
X45902Y12979D02*
Y12579D01*
X46102D01*
X46169Y12645D01*
Y12912D01*
X46102Y12979D01*
X45902D01*
X46302Y12912D02*
X46369Y12979D01*
X46502D01*
X46569Y12912D01*
Y12845D01*
X46502Y12779D01*
X46569Y12712D01*
Y12645D01*
X46502Y12579D01*
X46369D01*
X46302Y12645D01*
Y12712D01*
X46369Y12779D01*
X46302Y12845D01*
Y12912D01*
X46369Y12779D02*
X46502D01*
X51802Y12557D02*
Y12957D01*
X52002D01*
X52069Y12891D01*
Y12757D01*
X52002Y12691D01*
X51802D01*
X52202Y12891D02*
X52269Y12957D01*
X52402D01*
X52469Y12891D01*
Y12824D01*
X52402Y12757D01*
X52336D01*
X52402D01*
X52469Y12691D01*
Y12624D01*
X52402Y12557D01*
X52269D01*
X52202Y12624D01*
X53747Y11327D02*
Y11727D01*
X53947D01*
X54013Y11660D01*
Y11527D01*
X53947Y11460D01*
X53747D01*
X53880D02*
X54013Y11327D01*
X54147Y11660D02*
X54213Y11727D01*
X54347D01*
X54413Y11660D01*
Y11594D01*
X54347Y11527D01*
X54413Y11460D01*
Y11394D01*
X54347Y11327D01*
X54213D01*
X54147Y11394D01*
Y11460D01*
X54213Y11527D01*
X54147Y11594D01*
Y11660D01*
X54213Y11527D02*
X54347D01*
X47697Y11377D02*
Y11777D01*
X47897D01*
X47963Y11710D01*
Y11577D01*
X47897Y11510D01*
X47697D01*
X47830D02*
X47963Y11377D01*
X48097Y11444D02*
X48163Y11377D01*
X48297D01*
X48363Y11444D01*
Y11710D01*
X48297Y11777D01*
X48163D01*
X48097Y11710D01*
Y11644D01*
X48163Y11577D01*
X48363D01*
X30556Y15141D02*
Y14741D01*
X30755D01*
X30822Y14808D01*
Y15074D01*
X30755Y15141D01*
X30556D01*
X30955D02*
X31222D01*
Y15074D01*
X30955Y14808D01*
Y14741D01*
X20706Y15341D02*
Y14941D01*
X20905D01*
X20972Y15008D01*
Y15274D01*
X20905Y15341D01*
X20706D01*
X21105Y15274D02*
X21172Y15341D01*
X21305D01*
X21372Y15274D01*
Y15208D01*
X21305Y15141D01*
X21372Y15074D01*
Y15008D01*
X21305Y14941D01*
X21172D01*
X21105Y15008D01*
Y15074D01*
X21172Y15141D01*
X21105Y15208D01*
Y15274D01*
X21172Y15141D02*
X21305D01*
X26606Y14920D02*
Y15320D01*
X26805D01*
X26872Y15253D01*
Y15120D01*
X26805Y15053D01*
X26606D01*
X27005Y15253D02*
X27072Y15320D01*
X27205D01*
X27272Y15253D01*
Y15186D01*
X27205Y15120D01*
X27139D01*
X27205D01*
X27272Y15053D01*
Y14986D01*
X27205Y14920D01*
X27072D01*
X27005Y14986D01*
X28550Y13689D02*
Y14089D01*
X28750D01*
X28817Y14023D01*
Y13889D01*
X28750Y13823D01*
X28550D01*
X28683D02*
X28817Y13689D01*
X28950Y14023D02*
X29017Y14089D01*
X29150D01*
X29216Y14023D01*
Y13956D01*
X29150Y13889D01*
X29216Y13823D01*
Y13756D01*
X29150Y13689D01*
X29017D01*
X28950Y13756D01*
Y13823D01*
X29017Y13889D01*
X28950Y13956D01*
Y14023D01*
X29017Y13889D02*
X29150D01*
X22500Y13739D02*
Y14139D01*
X22700D01*
X22767Y14073D01*
Y13939D01*
X22700Y13873D01*
X22500D01*
X22633D02*
X22767Y13739D01*
X22900Y13806D02*
X22967Y13739D01*
X23100D01*
X23166Y13806D01*
Y14073D01*
X23100Y14139D01*
X22967D01*
X22900Y14073D01*
Y14006D01*
X22967Y13939D01*
X23166D01*
X43154Y15141D02*
Y14741D01*
X43354D01*
X43421Y14808D01*
Y15074D01*
X43354Y15141D01*
X43154D01*
X43554D02*
X43820D01*
Y15074D01*
X43554Y14808D01*
Y14741D01*
X33304Y15341D02*
Y14941D01*
X33504D01*
X33571Y15008D01*
Y15274D01*
X33504Y15341D01*
X33304D01*
X33704Y15274D02*
X33770Y15341D01*
X33904D01*
X33970Y15274D01*
Y15208D01*
X33904Y15141D01*
X33970Y15074D01*
Y15008D01*
X33904Y14941D01*
X33770D01*
X33704Y15008D01*
Y15074D01*
X33770Y15141D01*
X33704Y15208D01*
Y15274D01*
X33770Y15141D02*
X33904D01*
X39204Y14920D02*
Y15320D01*
X39404D01*
X39471Y15253D01*
Y15120D01*
X39404Y15053D01*
X39204D01*
X39604Y15253D02*
X39670Y15320D01*
X39804D01*
X39870Y15253D01*
Y15186D01*
X39804Y15120D01*
X39737D01*
X39804D01*
X39870Y15053D01*
Y14986D01*
X39804Y14920D01*
X39670D01*
X39604Y14986D01*
X41148Y13689D02*
Y14089D01*
X41348D01*
X41415Y14023D01*
Y13889D01*
X41348Y13823D01*
X41148D01*
X41282D02*
X41415Y13689D01*
X41548Y14023D02*
X41615Y14089D01*
X41748D01*
X41815Y14023D01*
Y13956D01*
X41748Y13889D01*
X41815Y13823D01*
Y13756D01*
X41748Y13689D01*
X41615D01*
X41548Y13756D01*
Y13823D01*
X41615Y13889D01*
X41548Y13956D01*
Y14023D01*
X41615Y13889D02*
X41748D01*
X35098Y13739D02*
Y14139D01*
X35298D01*
X35365Y14073D01*
Y13939D01*
X35298Y13873D01*
X35098D01*
X35232D02*
X35365Y13739D01*
X35498Y13806D02*
X35565Y13739D01*
X35698D01*
X35765Y13806D01*
Y14073D01*
X35698Y14139D01*
X35565D01*
X35498Y14073D01*
Y14006D01*
X35565Y13939D01*
X35765D01*
X55752Y15141D02*
Y14741D01*
X55952D01*
X56019Y14808D01*
Y15074D01*
X55952Y15141D01*
X55752D01*
X56152D02*
X56419D01*
Y15074D01*
X56152Y14808D01*
Y14741D01*
X45902Y15341D02*
Y14941D01*
X46102D01*
X46169Y15008D01*
Y15274D01*
X46102Y15341D01*
X45902D01*
X46302Y15274D02*
X46369Y15341D01*
X46502D01*
X46569Y15274D01*
Y15208D01*
X46502Y15141D01*
X46569Y15074D01*
Y15008D01*
X46502Y14941D01*
X46369D01*
X46302Y15008D01*
Y15074D01*
X46369Y15141D01*
X46302Y15208D01*
Y15274D01*
X46369Y15141D02*
X46502D01*
X51802Y14920D02*
Y15320D01*
X52002D01*
X52069Y15253D01*
Y15120D01*
X52002Y15053D01*
X51802D01*
X52202Y15253D02*
X52269Y15320D01*
X52402D01*
X52469Y15253D01*
Y15186D01*
X52402Y15120D01*
X52336D01*
X52402D01*
X52469Y15053D01*
Y14986D01*
X52402Y14920D01*
X52269D01*
X52202Y14986D01*
X53747Y13689D02*
Y14089D01*
X53947D01*
X54013Y14023D01*
Y13889D01*
X53947Y13823D01*
X53747D01*
X53880D02*
X54013Y13689D01*
X54147Y14023D02*
X54213Y14089D01*
X54347D01*
X54413Y14023D01*
Y13956D01*
X54347Y13889D01*
X54413Y13823D01*
Y13756D01*
X54347Y13689D01*
X54213D01*
X54147Y13756D01*
Y13823D01*
X54213Y13889D01*
X54147Y13956D01*
Y14023D01*
X54213Y13889D02*
X54347D01*
X47697Y13739D02*
Y14139D01*
X47897D01*
X47963Y14073D01*
Y13939D01*
X47897Y13873D01*
X47697D01*
X47830D02*
X47963Y13739D01*
X48097Y13806D02*
X48163Y13739D01*
X48297D01*
X48363Y13806D01*
Y14073D01*
X48297Y14139D01*
X48163D01*
X48097Y14073D01*
Y14006D01*
X48163Y13939D01*
X48363D01*
X30556Y17503D02*
Y17103D01*
X30755D01*
X30822Y17170D01*
Y17436D01*
X30755Y17503D01*
X30556D01*
X30955D02*
X31222D01*
Y17436D01*
X30955Y17170D01*
Y17103D01*
X20706Y17703D02*
Y17303D01*
X20905D01*
X20972Y17370D01*
Y17636D01*
X20905Y17703D01*
X20706D01*
X21105Y17636D02*
X21172Y17703D01*
X21305D01*
X21372Y17636D01*
Y17570D01*
X21305Y17503D01*
X21372Y17436D01*
Y17370D01*
X21305Y17303D01*
X21172D01*
X21105Y17370D01*
Y17436D01*
X21172Y17503D01*
X21105Y17570D01*
Y17636D01*
X21172Y17503D02*
X21305D01*
X26606Y17282D02*
Y17682D01*
X26805D01*
X26872Y17615D01*
Y17482D01*
X26805Y17415D01*
X26606D01*
X27005Y17615D02*
X27072Y17682D01*
X27205D01*
X27272Y17615D01*
Y17548D01*
X27205Y17482D01*
X27139D01*
X27205D01*
X27272Y17415D01*
Y17349D01*
X27205Y17282D01*
X27072D01*
X27005Y17349D01*
X28550Y16052D02*
Y16451D01*
X28750D01*
X28817Y16385D01*
Y16252D01*
X28750Y16185D01*
X28550D01*
X28683D02*
X28817Y16052D01*
X28950Y16385D02*
X29017Y16451D01*
X29150D01*
X29216Y16385D01*
Y16318D01*
X29150Y16252D01*
X29216Y16185D01*
Y16118D01*
X29150Y16052D01*
X29017D01*
X28950Y16118D01*
Y16185D01*
X29017Y16252D01*
X28950Y16318D01*
Y16385D01*
X29017Y16252D02*
X29150D01*
X22500Y16102D02*
Y16501D01*
X22700D01*
X22767Y16435D01*
Y16302D01*
X22700Y16235D01*
X22500D01*
X22633D02*
X22767Y16102D01*
X22900Y16168D02*
X22967Y16102D01*
X23100D01*
X23166Y16168D01*
Y16435D01*
X23100Y16501D01*
X22967D01*
X22900Y16435D01*
Y16368D01*
X22967Y16302D01*
X23166D01*
X43154Y17503D02*
Y17103D01*
X43354D01*
X43421Y17170D01*
Y17436D01*
X43354Y17503D01*
X43154D01*
X43554D02*
X43820D01*
Y17436D01*
X43554Y17170D01*
Y17103D01*
X33304Y17703D02*
Y17303D01*
X33504D01*
X33571Y17370D01*
Y17636D01*
X33504Y17703D01*
X33304D01*
X33704Y17636D02*
X33770Y17703D01*
X33904D01*
X33970Y17636D01*
Y17570D01*
X33904Y17503D01*
X33970Y17436D01*
Y17370D01*
X33904Y17303D01*
X33770D01*
X33704Y17370D01*
Y17436D01*
X33770Y17503D01*
X33704Y17570D01*
Y17636D01*
X33770Y17503D02*
X33904D01*
X39204Y17282D02*
Y17682D01*
X39404D01*
X39471Y17615D01*
Y17482D01*
X39404Y17415D01*
X39204D01*
X39604Y17615D02*
X39670Y17682D01*
X39804D01*
X39870Y17615D01*
Y17548D01*
X39804Y17482D01*
X39737D01*
X39804D01*
X39870Y17415D01*
Y17349D01*
X39804Y17282D01*
X39670D01*
X39604Y17349D01*
X41148Y16052D02*
Y16451D01*
X41348D01*
X41415Y16385D01*
Y16252D01*
X41348Y16185D01*
X41148D01*
X41282D02*
X41415Y16052D01*
X41548Y16385D02*
X41615Y16451D01*
X41748D01*
X41815Y16385D01*
Y16318D01*
X41748Y16252D01*
X41815Y16185D01*
Y16118D01*
X41748Y16052D01*
X41615D01*
X41548Y16118D01*
Y16185D01*
X41615Y16252D01*
X41548Y16318D01*
Y16385D01*
X41615Y16252D02*
X41748D01*
X35098Y16102D02*
Y16501D01*
X35298D01*
X35365Y16435D01*
Y16302D01*
X35298Y16235D01*
X35098D01*
X35232D02*
X35365Y16102D01*
X35498Y16168D02*
X35565Y16102D01*
X35698D01*
X35765Y16168D01*
Y16435D01*
X35698Y16501D01*
X35565D01*
X35498Y16435D01*
Y16368D01*
X35565Y16302D01*
X35765D01*
X55752Y17503D02*
Y17103D01*
X55952D01*
X56019Y17170D01*
Y17436D01*
X55952Y17503D01*
X55752D01*
X56152D02*
X56419D01*
Y17436D01*
X56152Y17170D01*
Y17103D01*
X45902Y17703D02*
Y17303D01*
X46102D01*
X46169Y17370D01*
Y17636D01*
X46102Y17703D01*
X45902D01*
X46302Y17636D02*
X46369Y17703D01*
X46502D01*
X46569Y17636D01*
Y17570D01*
X46502Y17503D01*
X46569Y17436D01*
Y17370D01*
X46502Y17303D01*
X46369D01*
X46302Y17370D01*
Y17436D01*
X46369Y17503D01*
X46302Y17570D01*
Y17636D01*
X46369Y17503D02*
X46502D01*
X51802Y17282D02*
Y17682D01*
X52002D01*
X52069Y17615D01*
Y17482D01*
X52002Y17415D01*
X51802D01*
X52202Y17615D02*
X52269Y17682D01*
X52402D01*
X52469Y17615D01*
Y17548D01*
X52402Y17482D01*
X52336D01*
X52402D01*
X52469Y17415D01*
Y17349D01*
X52402Y17282D01*
X52269D01*
X52202Y17349D01*
X53747Y16052D02*
Y16451D01*
X53947D01*
X54013Y16385D01*
Y16252D01*
X53947Y16185D01*
X53747D01*
X53880D02*
X54013Y16052D01*
X54147Y16385D02*
X54213Y16451D01*
X54347D01*
X54413Y16385D01*
Y16318D01*
X54347Y16252D01*
X54413Y16185D01*
Y16118D01*
X54347Y16052D01*
X54213D01*
X54147Y16118D01*
Y16185D01*
X54213Y16252D01*
X54147Y16318D01*
Y16385D01*
X54213Y16252D02*
X54347D01*
X47697Y16102D02*
Y16501D01*
X47897D01*
X47963Y16435D01*
Y16302D01*
X47897Y16235D01*
X47697D01*
X47830D02*
X47963Y16102D01*
X48097Y16168D02*
X48163Y16102D01*
X48297D01*
X48363Y16168D01*
Y16435D01*
X48297Y16501D01*
X48163D01*
X48097Y16435D01*
Y16368D01*
X48163Y16302D01*
X48363D01*
X30556Y19865D02*
Y19465D01*
X30755D01*
X30822Y19532D01*
Y19799D01*
X30755Y19865D01*
X30556D01*
X30955D02*
X31222D01*
Y19799D01*
X30955Y19532D01*
Y19465D01*
X20706Y20065D02*
Y19665D01*
X20905D01*
X20972Y19732D01*
Y19999D01*
X20905Y20065D01*
X20706D01*
X21105Y19999D02*
X21172Y20065D01*
X21305D01*
X21372Y19999D01*
Y19932D01*
X21305Y19865D01*
X21372Y19799D01*
Y19732D01*
X21305Y19665D01*
X21172D01*
X21105Y19732D01*
Y19799D01*
X21172Y19865D01*
X21105Y19932D01*
Y19999D01*
X21172Y19865D02*
X21305D01*
X26606Y19644D02*
Y20044D01*
X26805D01*
X26872Y19977D01*
Y19844D01*
X26805Y19777D01*
X26606D01*
X27005Y19977D02*
X27072Y20044D01*
X27205D01*
X27272Y19977D01*
Y19911D01*
X27205Y19844D01*
X27139D01*
X27205D01*
X27272Y19777D01*
Y19711D01*
X27205Y19644D01*
X27072D01*
X27005Y19711D01*
X28550Y18414D02*
Y18814D01*
X28750D01*
X28817Y18747D01*
Y18614D01*
X28750Y18547D01*
X28550D01*
X28683D02*
X28817Y18414D01*
X28950Y18747D02*
X29017Y18814D01*
X29150D01*
X29216Y18747D01*
Y18680D01*
X29150Y18614D01*
X29216Y18547D01*
Y18480D01*
X29150Y18414D01*
X29017D01*
X28950Y18480D01*
Y18547D01*
X29017Y18614D01*
X28950Y18680D01*
Y18747D01*
X29017Y18614D02*
X29150D01*
X22500Y18464D02*
Y18864D01*
X22700D01*
X22767Y18797D01*
Y18664D01*
X22700Y18597D01*
X22500D01*
X22633D02*
X22767Y18464D01*
X22900Y18530D02*
X22967Y18464D01*
X23100D01*
X23166Y18530D01*
Y18797D01*
X23100Y18864D01*
X22967D01*
X22900Y18797D01*
Y18730D01*
X22967Y18664D01*
X23166D01*
X43154Y19865D02*
Y19465D01*
X43354D01*
X43421Y19532D01*
Y19799D01*
X43354Y19865D01*
X43154D01*
X43554D02*
X43820D01*
Y19799D01*
X43554Y19532D01*
Y19465D01*
X33304Y20065D02*
Y19665D01*
X33504D01*
X33571Y19732D01*
Y19999D01*
X33504Y20065D01*
X33304D01*
X33704Y19999D02*
X33770Y20065D01*
X33904D01*
X33970Y19999D01*
Y19932D01*
X33904Y19865D01*
X33970Y19799D01*
Y19732D01*
X33904Y19665D01*
X33770D01*
X33704Y19732D01*
Y19799D01*
X33770Y19865D01*
X33704Y19932D01*
Y19999D01*
X33770Y19865D02*
X33904D01*
X39204Y19644D02*
Y20044D01*
X39404D01*
X39471Y19977D01*
Y19844D01*
X39404Y19777D01*
X39204D01*
X39604Y19977D02*
X39670Y20044D01*
X39804D01*
X39870Y19977D01*
Y19911D01*
X39804Y19844D01*
X39737D01*
X39804D01*
X39870Y19777D01*
Y19711D01*
X39804Y19644D01*
X39670D01*
X39604Y19711D01*
X41148Y18414D02*
Y18814D01*
X41348D01*
X41415Y18747D01*
Y18614D01*
X41348Y18547D01*
X41148D01*
X41282D02*
X41415Y18414D01*
X41548Y18747D02*
X41615Y18814D01*
X41748D01*
X41815Y18747D01*
Y18680D01*
X41748Y18614D01*
X41815Y18547D01*
Y18480D01*
X41748Y18414D01*
X41615D01*
X41548Y18480D01*
Y18547D01*
X41615Y18614D01*
X41548Y18680D01*
Y18747D01*
X41615Y18614D02*
X41748D01*
X35098Y18464D02*
Y18864D01*
X35298D01*
X35365Y18797D01*
Y18664D01*
X35298Y18597D01*
X35098D01*
X35232D02*
X35365Y18464D01*
X35498Y18530D02*
X35565Y18464D01*
X35698D01*
X35765Y18530D01*
Y18797D01*
X35698Y18864D01*
X35565D01*
X35498Y18797D01*
Y18730D01*
X35565Y18664D01*
X35765D01*
X55752Y19865D02*
Y19465D01*
X55952D01*
X56019Y19532D01*
Y19799D01*
X55952Y19865D01*
X55752D01*
X56152D02*
X56419D01*
Y19799D01*
X56152Y19532D01*
Y19465D01*
X45902Y20065D02*
Y19665D01*
X46102D01*
X46169Y19732D01*
Y19999D01*
X46102Y20065D01*
X45902D01*
X46302Y19999D02*
X46369Y20065D01*
X46502D01*
X46569Y19999D01*
Y19932D01*
X46502Y19865D01*
X46569Y19799D01*
Y19732D01*
X46502Y19665D01*
X46369D01*
X46302Y19732D01*
Y19799D01*
X46369Y19865D01*
X46302Y19932D01*
Y19999D01*
X46369Y19865D02*
X46502D01*
X51802Y19644D02*
Y20044D01*
X52002D01*
X52069Y19977D01*
Y19844D01*
X52002Y19777D01*
X51802D01*
X52202Y19977D02*
X52269Y20044D01*
X52402D01*
X52469Y19977D01*
Y19911D01*
X52402Y19844D01*
X52336D01*
X52402D01*
X52469Y19777D01*
Y19711D01*
X52402Y19644D01*
X52269D01*
X52202Y19711D01*
X53747Y18414D02*
Y18814D01*
X53947D01*
X54013Y18747D01*
Y18614D01*
X53947Y18547D01*
X53747D01*
X53880D02*
X54013Y18414D01*
X54147Y18747D02*
X54213Y18814D01*
X54347D01*
X54413Y18747D01*
Y18680D01*
X54347Y18614D01*
X54413Y18547D01*
Y18480D01*
X54347Y18414D01*
X54213D01*
X54147Y18480D01*
Y18547D01*
X54213Y18614D01*
X54147Y18680D01*
Y18747D01*
X54213Y18614D02*
X54347D01*
X47697Y18464D02*
Y18864D01*
X47897D01*
X47963Y18797D01*
Y18664D01*
X47897Y18597D01*
X47697D01*
X47830D02*
X47963Y18464D01*
X48097Y18530D02*
X48163Y18464D01*
X48297D01*
X48363Y18530D01*
Y18797D01*
X48297Y18864D01*
X48163D01*
X48097Y18797D01*
Y18730D01*
X48163Y18664D01*
X48363D01*
X30556Y22227D02*
Y21828D01*
X30755D01*
X30822Y21894D01*
Y22161D01*
X30755Y22227D01*
X30556D01*
X30955D02*
X31222D01*
Y22161D01*
X30955Y21894D01*
Y21828D01*
X20706Y22427D02*
Y22028D01*
X20905D01*
X20972Y22094D01*
Y22361D01*
X20905Y22427D01*
X20706D01*
X21105Y22361D02*
X21172Y22427D01*
X21305D01*
X21372Y22361D01*
Y22294D01*
X21305Y22227D01*
X21372Y22161D01*
Y22094D01*
X21305Y22028D01*
X21172D01*
X21105Y22094D01*
Y22161D01*
X21172Y22227D01*
X21105Y22294D01*
Y22361D01*
X21172Y22227D02*
X21305D01*
X26606Y22006D02*
Y22406D01*
X26805D01*
X26872Y22340D01*
Y22206D01*
X26805Y22140D01*
X26606D01*
X27005Y22340D02*
X27072Y22406D01*
X27205D01*
X27272Y22340D01*
Y22273D01*
X27205Y22206D01*
X27139D01*
X27205D01*
X27272Y22140D01*
Y22073D01*
X27205Y22006D01*
X27072D01*
X27005Y22073D01*
X28550Y20776D02*
Y21176D01*
X28750D01*
X28817Y21109D01*
Y20976D01*
X28750Y20909D01*
X28550D01*
X28683D02*
X28817Y20776D01*
X28950Y21109D02*
X29017Y21176D01*
X29150D01*
X29216Y21109D01*
Y21043D01*
X29150Y20976D01*
X29216Y20909D01*
Y20843D01*
X29150Y20776D01*
X29017D01*
X28950Y20843D01*
Y20909D01*
X29017Y20976D01*
X28950Y21043D01*
Y21109D01*
X29017Y20976D02*
X29150D01*
X22500Y20826D02*
Y21226D01*
X22700D01*
X22767Y21159D01*
Y21026D01*
X22700Y20959D01*
X22500D01*
X22633D02*
X22767Y20826D01*
X22900Y20893D02*
X22967Y20826D01*
X23100D01*
X23166Y20893D01*
Y21159D01*
X23100Y21226D01*
X22967D01*
X22900Y21159D01*
Y21093D01*
X22967Y21026D01*
X23166D01*
X43154Y22227D02*
Y21828D01*
X43354D01*
X43421Y21894D01*
Y22161D01*
X43354Y22227D01*
X43154D01*
X43554D02*
X43820D01*
Y22161D01*
X43554Y21894D01*
Y21828D01*
X33304Y22427D02*
Y22028D01*
X33504D01*
X33571Y22094D01*
Y22361D01*
X33504Y22427D01*
X33304D01*
X33704Y22361D02*
X33770Y22427D01*
X33904D01*
X33970Y22361D01*
Y22294D01*
X33904Y22227D01*
X33970Y22161D01*
Y22094D01*
X33904Y22028D01*
X33770D01*
X33704Y22094D01*
Y22161D01*
X33770Y22227D01*
X33704Y22294D01*
Y22361D01*
X33770Y22227D02*
X33904D01*
X39204Y22006D02*
Y22406D01*
X39404D01*
X39471Y22340D01*
Y22206D01*
X39404Y22140D01*
X39204D01*
X39604Y22340D02*
X39670Y22406D01*
X39804D01*
X39870Y22340D01*
Y22273D01*
X39804Y22206D01*
X39737D01*
X39804D01*
X39870Y22140D01*
Y22073D01*
X39804Y22006D01*
X39670D01*
X39604Y22073D01*
X41148Y20776D02*
Y21176D01*
X41348D01*
X41415Y21109D01*
Y20976D01*
X41348Y20909D01*
X41148D01*
X41282D02*
X41415Y20776D01*
X41548Y21109D02*
X41615Y21176D01*
X41748D01*
X41815Y21109D01*
Y21043D01*
X41748Y20976D01*
X41815Y20909D01*
Y20843D01*
X41748Y20776D01*
X41615D01*
X41548Y20843D01*
Y20909D01*
X41615Y20976D01*
X41548Y21043D01*
Y21109D01*
X41615Y20976D02*
X41748D01*
X35098Y20826D02*
Y21226D01*
X35298D01*
X35365Y21159D01*
Y21026D01*
X35298Y20959D01*
X35098D01*
X35232D02*
X35365Y20826D01*
X35498Y20893D02*
X35565Y20826D01*
X35698D01*
X35765Y20893D01*
Y21159D01*
X35698Y21226D01*
X35565D01*
X35498Y21159D01*
Y21093D01*
X35565Y21026D01*
X35765D01*
X55752Y22227D02*
Y21828D01*
X55952D01*
X56019Y21894D01*
Y22161D01*
X55952Y22227D01*
X55752D01*
X56152D02*
X56419D01*
Y22161D01*
X56152Y21894D01*
Y21828D01*
X45902Y22427D02*
Y22028D01*
X46102D01*
X46169Y22094D01*
Y22361D01*
X46102Y22427D01*
X45902D01*
X46302Y22361D02*
X46369Y22427D01*
X46502D01*
X46569Y22361D01*
Y22294D01*
X46502Y22227D01*
X46569Y22161D01*
Y22094D01*
X46502Y22028D01*
X46369D01*
X46302Y22094D01*
Y22161D01*
X46369Y22227D01*
X46302Y22294D01*
Y22361D01*
X46369Y22227D02*
X46502D01*
X51802Y22006D02*
Y22406D01*
X52002D01*
X52069Y22340D01*
Y22206D01*
X52002Y22140D01*
X51802D01*
X52202Y22340D02*
X52269Y22406D01*
X52402D01*
X52469Y22340D01*
Y22273D01*
X52402Y22206D01*
X52336D01*
X52402D01*
X52469Y22140D01*
Y22073D01*
X52402Y22006D01*
X52269D01*
X52202Y22073D01*
X53747Y20776D02*
Y21176D01*
X53947D01*
X54013Y21109D01*
Y20976D01*
X53947Y20909D01*
X53747D01*
X53880D02*
X54013Y20776D01*
X54147Y21109D02*
X54213Y21176D01*
X54347D01*
X54413Y21109D01*
Y21043D01*
X54347Y20976D01*
X54413Y20909D01*
Y20843D01*
X54347Y20776D01*
X54213D01*
X54147Y20843D01*
Y20909D01*
X54213Y20976D01*
X54147Y21043D01*
Y21109D01*
X54213Y20976D02*
X54347D01*
X47697Y20826D02*
Y21226D01*
X47897D01*
X47963Y21159D01*
Y21026D01*
X47897Y20959D01*
X47697D01*
X47830D02*
X47963Y20826D01*
X48097Y20893D02*
X48163Y20826D01*
X48297D01*
X48363Y20893D01*
Y21159D01*
X48297Y21226D01*
X48163D01*
X48097Y21159D01*
Y21093D01*
X48163Y21026D01*
X48363D01*
X30556Y24590D02*
Y24190D01*
X30755D01*
X30822Y24256D01*
Y24523D01*
X30755Y24590D01*
X30556D01*
X30955D02*
X31222D01*
Y24523D01*
X30955Y24256D01*
Y24190D01*
X20706Y24790D02*
Y24390D01*
X20905D01*
X20972Y24456D01*
Y24723D01*
X20905Y24790D01*
X20706D01*
X21105Y24723D02*
X21172Y24790D01*
X21305D01*
X21372Y24723D01*
Y24656D01*
X21305Y24590D01*
X21372Y24523D01*
Y24456D01*
X21305Y24390D01*
X21172D01*
X21105Y24456D01*
Y24523D01*
X21172Y24590D01*
X21105Y24656D01*
Y24723D01*
X21172Y24590D02*
X21305D01*
X26606Y24369D02*
Y24768D01*
X26805D01*
X26872Y24702D01*
Y24568D01*
X26805Y24502D01*
X26606D01*
X27005Y24702D02*
X27072Y24768D01*
X27205D01*
X27272Y24702D01*
Y24635D01*
X27205Y24568D01*
X27139D01*
X27205D01*
X27272Y24502D01*
Y24435D01*
X27205Y24369D01*
X27072D01*
X27005Y24435D01*
X28550Y23138D02*
Y23538D01*
X28750D01*
X28817Y23471D01*
Y23338D01*
X28750Y23271D01*
X28550D01*
X28683D02*
X28817Y23138D01*
X28950Y23471D02*
X29017Y23538D01*
X29150D01*
X29216Y23471D01*
Y23405D01*
X29150Y23338D01*
X29216Y23271D01*
Y23205D01*
X29150Y23138D01*
X29017D01*
X28950Y23205D01*
Y23271D01*
X29017Y23338D01*
X28950Y23405D01*
Y23471D01*
X29017Y23338D02*
X29150D01*
X22500Y23188D02*
Y23588D01*
X22700D01*
X22767Y23521D01*
Y23388D01*
X22700Y23321D01*
X22500D01*
X22633D02*
X22767Y23188D01*
X22900Y23255D02*
X22967Y23188D01*
X23100D01*
X23166Y23255D01*
Y23521D01*
X23100Y23588D01*
X22967D01*
X22900Y23521D01*
Y23455D01*
X22967Y23388D01*
X23166D01*
X43154Y24590D02*
Y24190D01*
X43354D01*
X43421Y24256D01*
Y24523D01*
X43354Y24590D01*
X43154D01*
X43554D02*
X43820D01*
Y24523D01*
X43554Y24256D01*
Y24190D01*
X33304Y24790D02*
Y24390D01*
X33504D01*
X33571Y24456D01*
Y24723D01*
X33504Y24790D01*
X33304D01*
X33704Y24723D02*
X33770Y24790D01*
X33904D01*
X33970Y24723D01*
Y24656D01*
X33904Y24590D01*
X33970Y24523D01*
Y24456D01*
X33904Y24390D01*
X33770D01*
X33704Y24456D01*
Y24523D01*
X33770Y24590D01*
X33704Y24656D01*
Y24723D01*
X33770Y24590D02*
X33904D01*
X39204Y24369D02*
Y24768D01*
X39404D01*
X39471Y24702D01*
Y24568D01*
X39404Y24502D01*
X39204D01*
X39604Y24702D02*
X39670Y24768D01*
X39804D01*
X39870Y24702D01*
Y24635D01*
X39804Y24568D01*
X39737D01*
X39804D01*
X39870Y24502D01*
Y24435D01*
X39804Y24369D01*
X39670D01*
X39604Y24435D01*
X41148Y23138D02*
Y23538D01*
X41348D01*
X41415Y23471D01*
Y23338D01*
X41348Y23271D01*
X41148D01*
X41282D02*
X41415Y23138D01*
X41548Y23471D02*
X41615Y23538D01*
X41748D01*
X41815Y23471D01*
Y23405D01*
X41748Y23338D01*
X41815Y23271D01*
Y23205D01*
X41748Y23138D01*
X41615D01*
X41548Y23205D01*
Y23271D01*
X41615Y23338D01*
X41548Y23405D01*
Y23471D01*
X41615Y23338D02*
X41748D01*
X35098Y23188D02*
Y23588D01*
X35298D01*
X35365Y23521D01*
Y23388D01*
X35298Y23321D01*
X35098D01*
X35232D02*
X35365Y23188D01*
X35498Y23255D02*
X35565Y23188D01*
X35698D01*
X35765Y23255D01*
Y23521D01*
X35698Y23588D01*
X35565D01*
X35498Y23521D01*
Y23455D01*
X35565Y23388D01*
X35765D01*
X55752Y24590D02*
Y24190D01*
X55952D01*
X56019Y24256D01*
Y24523D01*
X55952Y24590D01*
X55752D01*
X56152D02*
X56419D01*
Y24523D01*
X56152Y24256D01*
Y24190D01*
X45902Y24790D02*
Y24390D01*
X46102D01*
X46169Y24456D01*
Y24723D01*
X46102Y24790D01*
X45902D01*
X46302Y24723D02*
X46369Y24790D01*
X46502D01*
X46569Y24723D01*
Y24656D01*
X46502Y24590D01*
X46569Y24523D01*
Y24456D01*
X46502Y24390D01*
X46369D01*
X46302Y24456D01*
Y24523D01*
X46369Y24590D01*
X46302Y24656D01*
Y24723D01*
X46369Y24590D02*
X46502D01*
X51802Y24369D02*
Y24768D01*
X52002D01*
X52069Y24702D01*
Y24568D01*
X52002Y24502D01*
X51802D01*
X52202Y24702D02*
X52269Y24768D01*
X52402D01*
X52469Y24702D01*
Y24635D01*
X52402Y24568D01*
X52336D01*
X52402D01*
X52469Y24502D01*
Y24435D01*
X52402Y24369D01*
X52269D01*
X52202Y24435D01*
X53747Y23138D02*
Y23538D01*
X53947D01*
X54013Y23471D01*
Y23338D01*
X53947Y23271D01*
X53747D01*
X53880D02*
X54013Y23138D01*
X54147Y23471D02*
X54213Y23538D01*
X54347D01*
X54413Y23471D01*
Y23405D01*
X54347Y23338D01*
X54413Y23271D01*
Y23205D01*
X54347Y23138D01*
X54213D01*
X54147Y23205D01*
Y23271D01*
X54213Y23338D01*
X54147Y23405D01*
Y23471D01*
X54213Y23338D02*
X54347D01*
X47697Y23188D02*
Y23588D01*
X47897D01*
X47963Y23521D01*
Y23388D01*
X47897Y23321D01*
X47697D01*
X47830D02*
X47963Y23188D01*
X48097Y23255D02*
X48163Y23188D01*
X48297D01*
X48363Y23255D01*
Y23521D01*
X48297Y23588D01*
X48163D01*
X48097Y23521D01*
Y23455D01*
X48163Y23388D01*
X48363D01*
X30556Y26952D02*
Y26552D01*
X30755D01*
X30822Y26619D01*
Y26885D01*
X30755Y26952D01*
X30556D01*
X30955D02*
X31222D01*
Y26885D01*
X30955Y26619D01*
Y26552D01*
X20706Y27152D02*
Y26752D01*
X20905D01*
X20972Y26819D01*
Y27085D01*
X20905Y27152D01*
X20706D01*
X21105Y27085D02*
X21172Y27152D01*
X21305D01*
X21372Y27085D01*
Y27019D01*
X21305Y26952D01*
X21372Y26885D01*
Y26819D01*
X21305Y26752D01*
X21172D01*
X21105Y26819D01*
Y26885D01*
X21172Y26952D01*
X21105Y27019D01*
Y27085D01*
X21172Y26952D02*
X21305D01*
X26606Y26731D02*
Y27131D01*
X26805D01*
X26872Y27064D01*
Y26931D01*
X26805Y26864D01*
X26606D01*
X27005Y27064D02*
X27072Y27131D01*
X27205D01*
X27272Y27064D01*
Y26997D01*
X27205Y26931D01*
X27139D01*
X27205D01*
X27272Y26864D01*
Y26797D01*
X27205Y26731D01*
X27072D01*
X27005Y26797D01*
X28550Y25500D02*
Y25900D01*
X28750D01*
X28817Y25834D01*
Y25700D01*
X28750Y25634D01*
X28550D01*
X28683D02*
X28817Y25500D01*
X28950Y25834D02*
X29017Y25900D01*
X29150D01*
X29216Y25834D01*
Y25767D01*
X29150Y25700D01*
X29216Y25634D01*
Y25567D01*
X29150Y25500D01*
X29017D01*
X28950Y25567D01*
Y25634D01*
X29017Y25700D01*
X28950Y25767D01*
Y25834D01*
X29017Y25700D02*
X29150D01*
X22500Y25550D02*
Y25950D01*
X22700D01*
X22767Y25884D01*
Y25750D01*
X22700Y25684D01*
X22500D01*
X22633D02*
X22767Y25550D01*
X22900Y25617D02*
X22967Y25550D01*
X23100D01*
X23166Y25617D01*
Y25884D01*
X23100Y25950D01*
X22967D01*
X22900Y25884D01*
Y25817D01*
X22967Y25750D01*
X23166D01*
X43154Y26952D02*
Y26552D01*
X43354D01*
X43421Y26619D01*
Y26885D01*
X43354Y26952D01*
X43154D01*
X43554D02*
X43820D01*
Y26885D01*
X43554Y26619D01*
Y26552D01*
X33304Y27152D02*
Y26752D01*
X33504D01*
X33571Y26819D01*
Y27085D01*
X33504Y27152D01*
X33304D01*
X33704Y27085D02*
X33770Y27152D01*
X33904D01*
X33970Y27085D01*
Y27019D01*
X33904Y26952D01*
X33970Y26885D01*
Y26819D01*
X33904Y26752D01*
X33770D01*
X33704Y26819D01*
Y26885D01*
X33770Y26952D01*
X33704Y27019D01*
Y27085D01*
X33770Y26952D02*
X33904D01*
X39204Y26731D02*
Y27131D01*
X39404D01*
X39471Y27064D01*
Y26931D01*
X39404Y26864D01*
X39204D01*
X39604Y27064D02*
X39670Y27131D01*
X39804D01*
X39870Y27064D01*
Y26997D01*
X39804Y26931D01*
X39737D01*
X39804D01*
X39870Y26864D01*
Y26797D01*
X39804Y26731D01*
X39670D01*
X39604Y26797D01*
X41148Y25500D02*
Y25900D01*
X41348D01*
X41415Y25834D01*
Y25700D01*
X41348Y25634D01*
X41148D01*
X41282D02*
X41415Y25500D01*
X41548Y25834D02*
X41615Y25900D01*
X41748D01*
X41815Y25834D01*
Y25767D01*
X41748Y25700D01*
X41815Y25634D01*
Y25567D01*
X41748Y25500D01*
X41615D01*
X41548Y25567D01*
Y25634D01*
X41615Y25700D01*
X41548Y25767D01*
Y25834D01*
X41615Y25700D02*
X41748D01*
X35098Y25550D02*
Y25950D01*
X35298D01*
X35365Y25884D01*
Y25750D01*
X35298Y25684D01*
X35098D01*
X35232D02*
X35365Y25550D01*
X35498Y25617D02*
X35565Y25550D01*
X35698D01*
X35765Y25617D01*
Y25884D01*
X35698Y25950D01*
X35565D01*
X35498Y25884D01*
Y25817D01*
X35565Y25750D01*
X35765D01*
X55752Y26952D02*
Y26552D01*
X55952D01*
X56019Y26619D01*
Y26885D01*
X55952Y26952D01*
X55752D01*
X56152D02*
X56419D01*
Y26885D01*
X56152Y26619D01*
Y26552D01*
X45902Y27152D02*
Y26752D01*
X46102D01*
X46169Y26819D01*
Y27085D01*
X46102Y27152D01*
X45902D01*
X46302Y27085D02*
X46369Y27152D01*
X46502D01*
X46569Y27085D01*
Y27019D01*
X46502Y26952D01*
X46569Y26885D01*
Y26819D01*
X46502Y26752D01*
X46369D01*
X46302Y26819D01*
Y26885D01*
X46369Y26952D01*
X46302Y27019D01*
Y27085D01*
X46369Y26952D02*
X46502D01*
X51802Y26731D02*
Y27131D01*
X52002D01*
X52069Y27064D01*
Y26931D01*
X52002Y26864D01*
X51802D01*
X52202Y27064D02*
X52269Y27131D01*
X52402D01*
X52469Y27064D01*
Y26997D01*
X52402Y26931D01*
X52336D01*
X52402D01*
X52469Y26864D01*
Y26797D01*
X52402Y26731D01*
X52269D01*
X52202Y26797D01*
X53747Y25500D02*
Y25900D01*
X53947D01*
X54013Y25834D01*
Y25700D01*
X53947Y25634D01*
X53747D01*
X53880D02*
X54013Y25500D01*
X54147Y25834D02*
X54213Y25900D01*
X54347D01*
X54413Y25834D01*
Y25767D01*
X54347Y25700D01*
X54413Y25634D01*
Y25567D01*
X54347Y25500D01*
X54213D01*
X54147Y25567D01*
Y25634D01*
X54213Y25700D01*
X54147Y25767D01*
Y25834D01*
X54213Y25700D02*
X54347D01*
X47697Y25550D02*
Y25950D01*
X47897D01*
X47963Y25884D01*
Y25750D01*
X47897Y25684D01*
X47697D01*
X47830D02*
X47963Y25550D01*
X48097Y25617D02*
X48163Y25550D01*
X48297D01*
X48363Y25617D01*
Y25884D01*
X48297Y25950D01*
X48163D01*
X48097Y25884D01*
Y25817D01*
X48163Y25750D01*
X48363D01*
X30556Y29314D02*
Y28914D01*
X30755D01*
X30822Y28981D01*
Y29247D01*
X30755Y29314D01*
X30556D01*
X30955D02*
X31222D01*
Y29247D01*
X30955Y28981D01*
Y28914D01*
X20706Y29514D02*
Y29114D01*
X20905D01*
X20972Y29181D01*
Y29447D01*
X20905Y29514D01*
X20706D01*
X21105Y29447D02*
X21172Y29514D01*
X21305D01*
X21372Y29447D01*
Y29381D01*
X21305Y29314D01*
X21372Y29247D01*
Y29181D01*
X21305Y29114D01*
X21172D01*
X21105Y29181D01*
Y29247D01*
X21172Y29314D01*
X21105Y29381D01*
Y29447D01*
X21172Y29314D02*
X21305D01*
X26606Y29093D02*
Y29493D01*
X26805D01*
X26872Y29426D01*
Y29293D01*
X26805Y29226D01*
X26606D01*
X27005Y29426D02*
X27072Y29493D01*
X27205D01*
X27272Y29426D01*
Y29360D01*
X27205Y29293D01*
X27139D01*
X27205D01*
X27272Y29226D01*
Y29160D01*
X27205Y29093D01*
X27072D01*
X27005Y29160D01*
X28550Y27863D02*
Y28262D01*
X28750D01*
X28817Y28196D01*
Y28063D01*
X28750Y27996D01*
X28550D01*
X28683D02*
X28817Y27863D01*
X28950Y28196D02*
X29017Y28262D01*
X29150D01*
X29216Y28196D01*
Y28129D01*
X29150Y28063D01*
X29216Y27996D01*
Y27929D01*
X29150Y27863D01*
X29017D01*
X28950Y27929D01*
Y27996D01*
X29017Y28063D01*
X28950Y28129D01*
Y28196D01*
X29017Y28063D02*
X29150D01*
X22500Y27913D02*
Y28312D01*
X22700D01*
X22767Y28246D01*
Y28113D01*
X22700Y28046D01*
X22500D01*
X22633D02*
X22767Y27913D01*
X22900Y27979D02*
X22967Y27913D01*
X23100D01*
X23166Y27979D01*
Y28246D01*
X23100Y28312D01*
X22967D01*
X22900Y28246D01*
Y28179D01*
X22967Y28113D01*
X23166D01*
X43154Y29314D02*
Y28914D01*
X43354D01*
X43421Y28981D01*
Y29247D01*
X43354Y29314D01*
X43154D01*
X43554D02*
X43820D01*
Y29247D01*
X43554Y28981D01*
Y28914D01*
X33304Y29514D02*
Y29114D01*
X33504D01*
X33571Y29181D01*
Y29447D01*
X33504Y29514D01*
X33304D01*
X33704Y29447D02*
X33770Y29514D01*
X33904D01*
X33970Y29447D01*
Y29381D01*
X33904Y29314D01*
X33970Y29247D01*
Y29181D01*
X33904Y29114D01*
X33770D01*
X33704Y29181D01*
Y29247D01*
X33770Y29314D01*
X33704Y29381D01*
Y29447D01*
X33770Y29314D02*
X33904D01*
X39204Y29093D02*
Y29493D01*
X39404D01*
X39471Y29426D01*
Y29293D01*
X39404Y29226D01*
X39204D01*
X39604Y29426D02*
X39670Y29493D01*
X39804D01*
X39870Y29426D01*
Y29360D01*
X39804Y29293D01*
X39737D01*
X39804D01*
X39870Y29226D01*
Y29160D01*
X39804Y29093D01*
X39670D01*
X39604Y29160D01*
X41148Y27863D02*
Y28262D01*
X41348D01*
X41415Y28196D01*
Y28063D01*
X41348Y27996D01*
X41148D01*
X41282D02*
X41415Y27863D01*
X41548Y28196D02*
X41615Y28262D01*
X41748D01*
X41815Y28196D01*
Y28129D01*
X41748Y28063D01*
X41815Y27996D01*
Y27929D01*
X41748Y27863D01*
X41615D01*
X41548Y27929D01*
Y27996D01*
X41615Y28063D01*
X41548Y28129D01*
Y28196D01*
X41615Y28063D02*
X41748D01*
X35098Y27913D02*
Y28312D01*
X35298D01*
X35365Y28246D01*
Y28113D01*
X35298Y28046D01*
X35098D01*
X35232D02*
X35365Y27913D01*
X35498Y27979D02*
X35565Y27913D01*
X35698D01*
X35765Y27979D01*
Y28246D01*
X35698Y28312D01*
X35565D01*
X35498Y28246D01*
Y28179D01*
X35565Y28113D01*
X35765D01*
X55752Y29314D02*
Y28914D01*
X55952D01*
X56019Y28981D01*
Y29247D01*
X55952Y29314D01*
X55752D01*
X56152D02*
X56419D01*
Y29247D01*
X56152Y28981D01*
Y28914D01*
X45902Y29514D02*
Y29114D01*
X46102D01*
X46169Y29181D01*
Y29447D01*
X46102Y29514D01*
X45902D01*
X46302Y29447D02*
X46369Y29514D01*
X46502D01*
X46569Y29447D01*
Y29381D01*
X46502Y29314D01*
X46569Y29247D01*
Y29181D01*
X46502Y29114D01*
X46369D01*
X46302Y29181D01*
Y29247D01*
X46369Y29314D01*
X46302Y29381D01*
Y29447D01*
X46369Y29314D02*
X46502D01*
X51802Y29093D02*
Y29493D01*
X52002D01*
X52069Y29426D01*
Y29293D01*
X52002Y29226D01*
X51802D01*
X52202Y29426D02*
X52269Y29493D01*
X52402D01*
X52469Y29426D01*
Y29360D01*
X52402Y29293D01*
X52336D01*
X52402D01*
X52469Y29226D01*
Y29160D01*
X52402Y29093D01*
X52269D01*
X52202Y29160D01*
X53747Y27863D02*
Y28262D01*
X53947D01*
X54013Y28196D01*
Y28063D01*
X53947Y27996D01*
X53747D01*
X53880D02*
X54013Y27863D01*
X54147Y28196D02*
X54213Y28262D01*
X54347D01*
X54413Y28196D01*
Y28129D01*
X54347Y28063D01*
X54413Y27996D01*
Y27929D01*
X54347Y27863D01*
X54213D01*
X54147Y27929D01*
Y27996D01*
X54213Y28063D01*
X54147Y28129D01*
Y28196D01*
X54213Y28063D02*
X54347D01*
X47697Y27913D02*
Y28312D01*
X47897D01*
X47963Y28246D01*
Y28113D01*
X47897Y28046D01*
X47697D01*
X47830D02*
X47963Y27913D01*
X48097Y27979D02*
X48163Y27913D01*
X48297D01*
X48363Y27979D01*
Y28246D01*
X48297Y28312D01*
X48163D01*
X48097Y28246D01*
Y28179D01*
X48163Y28113D01*
X48363D01*
X30556Y31676D02*
Y31276D01*
X30755D01*
X30822Y31343D01*
Y31610D01*
X30755Y31676D01*
X30556D01*
X30955D02*
X31222D01*
Y31610D01*
X30955Y31343D01*
Y31276D01*
X20706Y31876D02*
Y31476D01*
X20905D01*
X20972Y31543D01*
Y31810D01*
X20905Y31876D01*
X20706D01*
X21105Y31810D02*
X21172Y31876D01*
X21305D01*
X21372Y31810D01*
Y31743D01*
X21305Y31676D01*
X21372Y31610D01*
Y31543D01*
X21305Y31476D01*
X21172D01*
X21105Y31543D01*
Y31610D01*
X21172Y31676D01*
X21105Y31743D01*
Y31810D01*
X21172Y31676D02*
X21305D01*
X26606Y31455D02*
Y31855D01*
X26805D01*
X26872Y31788D01*
Y31655D01*
X26805Y31588D01*
X26606D01*
X27005Y31788D02*
X27072Y31855D01*
X27205D01*
X27272Y31788D01*
Y31722D01*
X27205Y31655D01*
X27139D01*
X27205D01*
X27272Y31588D01*
Y31522D01*
X27205Y31455D01*
X27072D01*
X27005Y31522D01*
X28550Y30225D02*
Y30625D01*
X28750D01*
X28817Y30558D01*
Y30425D01*
X28750Y30358D01*
X28550D01*
X28683D02*
X28817Y30225D01*
X28950Y30558D02*
X29017Y30625D01*
X29150D01*
X29216Y30558D01*
Y30491D01*
X29150Y30425D01*
X29216Y30358D01*
Y30291D01*
X29150Y30225D01*
X29017D01*
X28950Y30291D01*
Y30358D01*
X29017Y30425D01*
X28950Y30491D01*
Y30558D01*
X29017Y30425D02*
X29150D01*
X22500Y30275D02*
Y30675D01*
X22700D01*
X22767Y30608D01*
Y30475D01*
X22700Y30408D01*
X22500D01*
X22633D02*
X22767Y30275D01*
X22900Y30341D02*
X22967Y30275D01*
X23100D01*
X23166Y30341D01*
Y30608D01*
X23100Y30675D01*
X22967D01*
X22900Y30608D01*
Y30541D01*
X22967Y30475D01*
X23166D01*
X43154Y31676D02*
Y31276D01*
X43354D01*
X43421Y31343D01*
Y31610D01*
X43354Y31676D01*
X43154D01*
X43554D02*
X43820D01*
Y31610D01*
X43554Y31343D01*
Y31276D01*
X33304Y31876D02*
Y31476D01*
X33504D01*
X33571Y31543D01*
Y31810D01*
X33504Y31876D01*
X33304D01*
X33704Y31810D02*
X33770Y31876D01*
X33904D01*
X33970Y31810D01*
Y31743D01*
X33904Y31676D01*
X33970Y31610D01*
Y31543D01*
X33904Y31476D01*
X33770D01*
X33704Y31543D01*
Y31610D01*
X33770Y31676D01*
X33704Y31743D01*
Y31810D01*
X33770Y31676D02*
X33904D01*
X39204Y31455D02*
Y31855D01*
X39404D01*
X39471Y31788D01*
Y31655D01*
X39404Y31588D01*
X39204D01*
X39604Y31788D02*
X39670Y31855D01*
X39804D01*
X39870Y31788D01*
Y31722D01*
X39804Y31655D01*
X39737D01*
X39804D01*
X39870Y31588D01*
Y31522D01*
X39804Y31455D01*
X39670D01*
X39604Y31522D01*
X41148Y30225D02*
Y30625D01*
X41348D01*
X41415Y30558D01*
Y30425D01*
X41348Y30358D01*
X41148D01*
X41282D02*
X41415Y30225D01*
X41548Y30558D02*
X41615Y30625D01*
X41748D01*
X41815Y30558D01*
Y30491D01*
X41748Y30425D01*
X41815Y30358D01*
Y30291D01*
X41748Y30225D01*
X41615D01*
X41548Y30291D01*
Y30358D01*
X41615Y30425D01*
X41548Y30491D01*
Y30558D01*
X41615Y30425D02*
X41748D01*
X35098Y30275D02*
Y30675D01*
X35298D01*
X35365Y30608D01*
Y30475D01*
X35298Y30408D01*
X35098D01*
X35232D02*
X35365Y30275D01*
X35498Y30341D02*
X35565Y30275D01*
X35698D01*
X35765Y30341D01*
Y30608D01*
X35698Y30675D01*
X35565D01*
X35498Y30608D01*
Y30541D01*
X35565Y30475D01*
X35765D01*
X55752Y31676D02*
Y31276D01*
X55952D01*
X56019Y31343D01*
Y31610D01*
X55952Y31676D01*
X55752D01*
X56152D02*
X56419D01*
Y31610D01*
X56152Y31343D01*
Y31276D01*
X45902Y31876D02*
Y31476D01*
X46102D01*
X46169Y31543D01*
Y31810D01*
X46102Y31876D01*
X45902D01*
X46302Y31810D02*
X46369Y31876D01*
X46502D01*
X46569Y31810D01*
Y31743D01*
X46502Y31676D01*
X46569Y31610D01*
Y31543D01*
X46502Y31476D01*
X46369D01*
X46302Y31543D01*
Y31610D01*
X46369Y31676D01*
X46302Y31743D01*
Y31810D01*
X46369Y31676D02*
X46502D01*
X51802Y31455D02*
Y31855D01*
X52002D01*
X52069Y31788D01*
Y31655D01*
X52002Y31588D01*
X51802D01*
X52202Y31788D02*
X52269Y31855D01*
X52402D01*
X52469Y31788D01*
Y31722D01*
X52402Y31655D01*
X52336D01*
X52402D01*
X52469Y31588D01*
Y31522D01*
X52402Y31455D01*
X52269D01*
X52202Y31522D01*
X53747Y30225D02*
Y30625D01*
X53947D01*
X54013Y30558D01*
Y30425D01*
X53947Y30358D01*
X53747D01*
X53880D02*
X54013Y30225D01*
X54147Y30558D02*
X54213Y30625D01*
X54347D01*
X54413Y30558D01*
Y30491D01*
X54347Y30425D01*
X54413Y30358D01*
Y30291D01*
X54347Y30225D01*
X54213D01*
X54147Y30291D01*
Y30358D01*
X54213Y30425D01*
X54147Y30491D01*
Y30558D01*
X54213Y30425D02*
X54347D01*
X47697Y30275D02*
Y30675D01*
X47897D01*
X47963Y30608D01*
Y30475D01*
X47897Y30408D01*
X47697D01*
X47830D02*
X47963Y30275D01*
X48097Y30341D02*
X48163Y30275D01*
X48297D01*
X48363Y30341D01*
Y30608D01*
X48297Y30675D01*
X48163D01*
X48097Y30608D01*
Y30541D01*
X48163Y30475D01*
X48363D01*
X30556Y34038D02*
Y33639D01*
X30755D01*
X30822Y33705D01*
Y33972D01*
X30755Y34038D01*
X30556D01*
X30955D02*
X31222D01*
Y33972D01*
X30955Y33705D01*
Y33639D01*
X20706Y34238D02*
Y33839D01*
X20905D01*
X20972Y33905D01*
Y34172D01*
X20905Y34238D01*
X20706D01*
X21105Y34172D02*
X21172Y34238D01*
X21305D01*
X21372Y34172D01*
Y34105D01*
X21305Y34039D01*
X21372Y33972D01*
Y33905D01*
X21305Y33839D01*
X21172D01*
X21105Y33905D01*
Y33972D01*
X21172Y34039D01*
X21105Y34105D01*
Y34172D01*
X21172Y34039D02*
X21305D01*
X26606Y33817D02*
Y34217D01*
X26805D01*
X26872Y34151D01*
Y34017D01*
X26805Y33951D01*
X26606D01*
X27005Y34151D02*
X27072Y34217D01*
X27205D01*
X27272Y34151D01*
Y34084D01*
X27205Y34017D01*
X27139D01*
X27205D01*
X27272Y33951D01*
Y33884D01*
X27205Y33817D01*
X27072D01*
X27005Y33884D01*
X28550Y32587D02*
Y32987D01*
X28750D01*
X28817Y32920D01*
Y32787D01*
X28750Y32720D01*
X28550D01*
X28683D02*
X28817Y32587D01*
X28950Y32920D02*
X29017Y32987D01*
X29150D01*
X29216Y32920D01*
Y32854D01*
X29150Y32787D01*
X29216Y32720D01*
Y32654D01*
X29150Y32587D01*
X29017D01*
X28950Y32654D01*
Y32720D01*
X29017Y32787D01*
X28950Y32854D01*
Y32920D01*
X29017Y32787D02*
X29150D01*
X22500Y32637D02*
Y33037D01*
X22700D01*
X22767Y32970D01*
Y32837D01*
X22700Y32770D01*
X22500D01*
X22633D02*
X22767Y32637D01*
X22900Y32704D02*
X22967Y32637D01*
X23100D01*
X23166Y32704D01*
Y32970D01*
X23100Y33037D01*
X22967D01*
X22900Y32970D01*
Y32904D01*
X22967Y32837D01*
X23166D01*
X43154Y34038D02*
Y33639D01*
X43354D01*
X43421Y33705D01*
Y33972D01*
X43354Y34038D01*
X43154D01*
X43554D02*
X43820D01*
Y33972D01*
X43554Y33705D01*
Y33639D01*
X33304Y34238D02*
Y33839D01*
X33504D01*
X33571Y33905D01*
Y34172D01*
X33504Y34238D01*
X33304D01*
X33704Y34172D02*
X33770Y34238D01*
X33904D01*
X33970Y34172D01*
Y34105D01*
X33904Y34039D01*
X33970Y33972D01*
Y33905D01*
X33904Y33839D01*
X33770D01*
X33704Y33905D01*
Y33972D01*
X33770Y34039D01*
X33704Y34105D01*
Y34172D01*
X33770Y34039D02*
X33904D01*
X39204Y33817D02*
Y34217D01*
X39404D01*
X39471Y34151D01*
Y34017D01*
X39404Y33951D01*
X39204D01*
X39604Y34151D02*
X39670Y34217D01*
X39804D01*
X39870Y34151D01*
Y34084D01*
X39804Y34017D01*
X39737D01*
X39804D01*
X39870Y33951D01*
Y33884D01*
X39804Y33817D01*
X39670D01*
X39604Y33884D01*
X41148Y32587D02*
Y32987D01*
X41348D01*
X41415Y32920D01*
Y32787D01*
X41348Y32720D01*
X41148D01*
X41282D02*
X41415Y32587D01*
X41548Y32920D02*
X41615Y32987D01*
X41748D01*
X41815Y32920D01*
Y32854D01*
X41748Y32787D01*
X41815Y32720D01*
Y32654D01*
X41748Y32587D01*
X41615D01*
X41548Y32654D01*
Y32720D01*
X41615Y32787D01*
X41548Y32854D01*
Y32920D01*
X41615Y32787D02*
X41748D01*
X35098Y32637D02*
Y33037D01*
X35298D01*
X35365Y32970D01*
Y32837D01*
X35298Y32770D01*
X35098D01*
X35232D02*
X35365Y32637D01*
X35498Y32704D02*
X35565Y32637D01*
X35698D01*
X35765Y32704D01*
Y32970D01*
X35698Y33037D01*
X35565D01*
X35498Y32970D01*
Y32904D01*
X35565Y32837D01*
X35765D01*
X55752Y34038D02*
Y33639D01*
X55952D01*
X56019Y33705D01*
Y33972D01*
X55952Y34038D01*
X55752D01*
X56152D02*
X56419D01*
Y33972D01*
X56152Y33705D01*
Y33639D01*
X45902Y34238D02*
Y33839D01*
X46102D01*
X46169Y33905D01*
Y34172D01*
X46102Y34238D01*
X45902D01*
X46302Y34172D02*
X46369Y34238D01*
X46502D01*
X46569Y34172D01*
Y34105D01*
X46502Y34039D01*
X46569Y33972D01*
Y33905D01*
X46502Y33839D01*
X46369D01*
X46302Y33905D01*
Y33972D01*
X46369Y34039D01*
X46302Y34105D01*
Y34172D01*
X46369Y34039D02*
X46502D01*
X51802Y33817D02*
Y34217D01*
X52002D01*
X52069Y34151D01*
Y34017D01*
X52002Y33951D01*
X51802D01*
X52202Y34151D02*
X52269Y34217D01*
X52402D01*
X52469Y34151D01*
Y34084D01*
X52402Y34017D01*
X52336D01*
X52402D01*
X52469Y33951D01*
Y33884D01*
X52402Y33817D01*
X52269D01*
X52202Y33884D01*
X53747Y32587D02*
Y32987D01*
X53947D01*
X54013Y32920D01*
Y32787D01*
X53947Y32720D01*
X53747D01*
X53880D02*
X54013Y32587D01*
X54147Y32920D02*
X54213Y32987D01*
X54347D01*
X54413Y32920D01*
Y32854D01*
X54347Y32787D01*
X54413Y32720D01*
Y32654D01*
X54347Y32587D01*
X54213D01*
X54147Y32654D01*
Y32720D01*
X54213Y32787D01*
X54147Y32854D01*
Y32920D01*
X54213Y32787D02*
X54347D01*
X47697Y32637D02*
Y33037D01*
X47897D01*
X47963Y32970D01*
Y32837D01*
X47897Y32770D01*
X47697D01*
X47830D02*
X47963Y32637D01*
X48097Y32704D02*
X48163Y32637D01*
X48297D01*
X48363Y32704D01*
Y32970D01*
X48297Y33037D01*
X48163D01*
X48097Y32970D01*
Y32904D01*
X48163Y32837D01*
X48363D01*
X30556Y36401D02*
Y36001D01*
X30755D01*
X30822Y36067D01*
Y36334D01*
X30755Y36401D01*
X30556D01*
X30955D02*
X31222D01*
Y36334D01*
X30955Y36067D01*
Y36001D01*
X20706Y36601D02*
Y36201D01*
X20905D01*
X20972Y36267D01*
Y36534D01*
X20905Y36601D01*
X20706D01*
X21105Y36534D02*
X21172Y36601D01*
X21305D01*
X21372Y36534D01*
Y36467D01*
X21305Y36401D01*
X21372Y36334D01*
Y36267D01*
X21305Y36201D01*
X21172D01*
X21105Y36267D01*
Y36334D01*
X21172Y36401D01*
X21105Y36467D01*
Y36534D01*
X21172Y36401D02*
X21305D01*
X26606Y36180D02*
Y36579D01*
X26805D01*
X26872Y36513D01*
Y36379D01*
X26805Y36313D01*
X26606D01*
X27005Y36513D02*
X27072Y36579D01*
X27205D01*
X27272Y36513D01*
Y36446D01*
X27205Y36379D01*
X27139D01*
X27205D01*
X27272Y36313D01*
Y36246D01*
X27205Y36180D01*
X27072D01*
X27005Y36246D01*
X28550Y34949D02*
Y35349D01*
X28750D01*
X28817Y35282D01*
Y35149D01*
X28750Y35083D01*
X28550D01*
X28683D02*
X28817Y34949D01*
X28950Y35282D02*
X29017Y35349D01*
X29150D01*
X29216Y35282D01*
Y35216D01*
X29150Y35149D01*
X29216Y35083D01*
Y35016D01*
X29150Y34949D01*
X29017D01*
X28950Y35016D01*
Y35083D01*
X29017Y35149D01*
X28950Y35216D01*
Y35282D01*
X29017Y35149D02*
X29150D01*
X22500Y34999D02*
Y35399D01*
X22700D01*
X22767Y35332D01*
Y35199D01*
X22700Y35133D01*
X22500D01*
X22633D02*
X22767Y34999D01*
X22900Y35066D02*
X22967Y34999D01*
X23100D01*
X23166Y35066D01*
Y35332D01*
X23100Y35399D01*
X22967D01*
X22900Y35332D01*
Y35266D01*
X22967Y35199D01*
X23166D01*
X43154Y36401D02*
Y36001D01*
X43354D01*
X43421Y36067D01*
Y36334D01*
X43354Y36401D01*
X43154D01*
X43554D02*
X43820D01*
Y36334D01*
X43554Y36067D01*
Y36001D01*
X33304Y36601D02*
Y36201D01*
X33504D01*
X33571Y36267D01*
Y36534D01*
X33504Y36601D01*
X33304D01*
X33704Y36534D02*
X33770Y36601D01*
X33904D01*
X33970Y36534D01*
Y36467D01*
X33904Y36401D01*
X33970Y36334D01*
Y36267D01*
X33904Y36201D01*
X33770D01*
X33704Y36267D01*
Y36334D01*
X33770Y36401D01*
X33704Y36467D01*
Y36534D01*
X33770Y36401D02*
X33904D01*
X39204Y36180D02*
Y36579D01*
X39404D01*
X39471Y36513D01*
Y36379D01*
X39404Y36313D01*
X39204D01*
X39604Y36513D02*
X39670Y36579D01*
X39804D01*
X39870Y36513D01*
Y36446D01*
X39804Y36379D01*
X39737D01*
X39804D01*
X39870Y36313D01*
Y36246D01*
X39804Y36180D01*
X39670D01*
X39604Y36246D01*
X41148Y34949D02*
Y35349D01*
X41348D01*
X41415Y35282D01*
Y35149D01*
X41348Y35083D01*
X41148D01*
X41282D02*
X41415Y34949D01*
X41548Y35282D02*
X41615Y35349D01*
X41748D01*
X41815Y35282D01*
Y35216D01*
X41748Y35149D01*
X41815Y35083D01*
Y35016D01*
X41748Y34949D01*
X41615D01*
X41548Y35016D01*
Y35083D01*
X41615Y35149D01*
X41548Y35216D01*
Y35282D01*
X41615Y35149D02*
X41748D01*
X35098Y34999D02*
Y35399D01*
X35298D01*
X35365Y35332D01*
Y35199D01*
X35298Y35133D01*
X35098D01*
X35232D02*
X35365Y34999D01*
X35498Y35066D02*
X35565Y34999D01*
X35698D01*
X35765Y35066D01*
Y35332D01*
X35698Y35399D01*
X35565D01*
X35498Y35332D01*
Y35266D01*
X35565Y35199D01*
X35765D01*
X55752Y36401D02*
Y36001D01*
X55952D01*
X56019Y36067D01*
Y36334D01*
X55952Y36401D01*
X55752D01*
X56152D02*
X56419D01*
Y36334D01*
X56152Y36067D01*
Y36001D01*
X45902Y36601D02*
Y36201D01*
X46102D01*
X46169Y36267D01*
Y36534D01*
X46102Y36601D01*
X45902D01*
X46302Y36534D02*
X46369Y36601D01*
X46502D01*
X46569Y36534D01*
Y36467D01*
X46502Y36401D01*
X46569Y36334D01*
Y36267D01*
X46502Y36201D01*
X46369D01*
X46302Y36267D01*
Y36334D01*
X46369Y36401D01*
X46302Y36467D01*
Y36534D01*
X46369Y36401D02*
X46502D01*
X51802Y36180D02*
Y36579D01*
X52002D01*
X52069Y36513D01*
Y36379D01*
X52002Y36313D01*
X51802D01*
X52202Y36513D02*
X52269Y36579D01*
X52402D01*
X52469Y36513D01*
Y36446D01*
X52402Y36379D01*
X52336D01*
X52402D01*
X52469Y36313D01*
Y36246D01*
X52402Y36180D01*
X52269D01*
X52202Y36246D01*
X53747Y34949D02*
Y35349D01*
X53947D01*
X54013Y35282D01*
Y35149D01*
X53947Y35083D01*
X53747D01*
X53880D02*
X54013Y34949D01*
X54147Y35282D02*
X54213Y35349D01*
X54347D01*
X54413Y35282D01*
Y35216D01*
X54347Y35149D01*
X54413Y35083D01*
Y35016D01*
X54347Y34949D01*
X54213D01*
X54147Y35016D01*
Y35083D01*
X54213Y35149D01*
X54147Y35216D01*
Y35282D01*
X54213Y35149D02*
X54347D01*
X47697Y34999D02*
Y35399D01*
X47897D01*
X47963Y35332D01*
Y35199D01*
X47897Y35133D01*
X47697D01*
X47830D02*
X47963Y34999D01*
X48097Y35066D02*
X48163Y34999D01*
X48297D01*
X48363Y35066D01*
Y35332D01*
X48297Y35399D01*
X48163D01*
X48097Y35332D01*
Y35266D01*
X48163Y35199D01*
X48363D01*
X30556Y38763D02*
Y38363D01*
X30755D01*
X30822Y38430D01*
Y38696D01*
X30755Y38763D01*
X30556D01*
X30955D02*
X31222D01*
Y38696D01*
X30955Y38430D01*
Y38363D01*
X20706Y38963D02*
Y38563D01*
X20905D01*
X20972Y38630D01*
Y38896D01*
X20905Y38963D01*
X20706D01*
X21105Y38896D02*
X21172Y38963D01*
X21305D01*
X21372Y38896D01*
Y38830D01*
X21305Y38763D01*
X21372Y38696D01*
Y38630D01*
X21305Y38563D01*
X21172D01*
X21105Y38630D01*
Y38696D01*
X21172Y38763D01*
X21105Y38830D01*
Y38896D01*
X21172Y38763D02*
X21305D01*
X26606Y38542D02*
Y38942D01*
X26805D01*
X26872Y38875D01*
Y38742D01*
X26805Y38675D01*
X26606D01*
X27005Y38875D02*
X27072Y38942D01*
X27205D01*
X27272Y38875D01*
Y38808D01*
X27205Y38742D01*
X27139D01*
X27205D01*
X27272Y38675D01*
Y38608D01*
X27205Y38542D01*
X27072D01*
X27005Y38608D01*
X28550Y37311D02*
Y37711D01*
X28750D01*
X28817Y37645D01*
Y37511D01*
X28750Y37445D01*
X28550D01*
X28683D02*
X28817Y37311D01*
X28950Y37645D02*
X29017Y37711D01*
X29150D01*
X29216Y37645D01*
Y37578D01*
X29150Y37511D01*
X29216Y37445D01*
Y37378D01*
X29150Y37311D01*
X29017D01*
X28950Y37378D01*
Y37445D01*
X29017Y37511D01*
X28950Y37578D01*
Y37645D01*
X29017Y37511D02*
X29150D01*
X22500Y37361D02*
Y37761D01*
X22700D01*
X22767Y37695D01*
Y37561D01*
X22700Y37495D01*
X22500D01*
X22633D02*
X22767Y37361D01*
X22900Y37428D02*
X22967Y37361D01*
X23100D01*
X23166Y37428D01*
Y37695D01*
X23100Y37761D01*
X22967D01*
X22900Y37695D01*
Y37628D01*
X22967Y37561D01*
X23166D01*
X43154Y38763D02*
Y38363D01*
X43354D01*
X43421Y38430D01*
Y38696D01*
X43354Y38763D01*
X43154D01*
X43554D02*
X43820D01*
Y38696D01*
X43554Y38430D01*
Y38363D01*
X33304Y38963D02*
Y38563D01*
X33504D01*
X33571Y38630D01*
Y38896D01*
X33504Y38963D01*
X33304D01*
X33704Y38896D02*
X33770Y38963D01*
X33904D01*
X33970Y38896D01*
Y38830D01*
X33904Y38763D01*
X33970Y38696D01*
Y38630D01*
X33904Y38563D01*
X33770D01*
X33704Y38630D01*
Y38696D01*
X33770Y38763D01*
X33704Y38830D01*
Y38896D01*
X33770Y38763D02*
X33904D01*
X39204Y38542D02*
Y38942D01*
X39404D01*
X39471Y38875D01*
Y38742D01*
X39404Y38675D01*
X39204D01*
X39604Y38875D02*
X39670Y38942D01*
X39804D01*
X39870Y38875D01*
Y38808D01*
X39804Y38742D01*
X39737D01*
X39804D01*
X39870Y38675D01*
Y38608D01*
X39804Y38542D01*
X39670D01*
X39604Y38608D01*
X41148Y37311D02*
Y37711D01*
X41348D01*
X41415Y37645D01*
Y37511D01*
X41348Y37445D01*
X41148D01*
X41282D02*
X41415Y37311D01*
X41548Y37645D02*
X41615Y37711D01*
X41748D01*
X41815Y37645D01*
Y37578D01*
X41748Y37511D01*
X41815Y37445D01*
Y37378D01*
X41748Y37311D01*
X41615D01*
X41548Y37378D01*
Y37445D01*
X41615Y37511D01*
X41548Y37578D01*
Y37645D01*
X41615Y37511D02*
X41748D01*
X35098Y37361D02*
Y37761D01*
X35298D01*
X35365Y37695D01*
Y37561D01*
X35298Y37495D01*
X35098D01*
X35232D02*
X35365Y37361D01*
X35498Y37428D02*
X35565Y37361D01*
X35698D01*
X35765Y37428D01*
Y37695D01*
X35698Y37761D01*
X35565D01*
X35498Y37695D01*
Y37628D01*
X35565Y37561D01*
X35765D01*
X55752Y38763D02*
Y38363D01*
X55952D01*
X56019Y38430D01*
Y38696D01*
X55952Y38763D01*
X55752D01*
X56152D02*
X56419D01*
Y38696D01*
X56152Y38430D01*
Y38363D01*
X45902Y38963D02*
Y38563D01*
X46102D01*
X46169Y38630D01*
Y38896D01*
X46102Y38963D01*
X45902D01*
X46302Y38896D02*
X46369Y38963D01*
X46502D01*
X46569Y38896D01*
Y38830D01*
X46502Y38763D01*
X46569Y38696D01*
Y38630D01*
X46502Y38563D01*
X46369D01*
X46302Y38630D01*
Y38696D01*
X46369Y38763D01*
X46302Y38830D01*
Y38896D01*
X46369Y38763D02*
X46502D01*
X51802Y38542D02*
Y38942D01*
X52002D01*
X52069Y38875D01*
Y38742D01*
X52002Y38675D01*
X51802D01*
X52202Y38875D02*
X52269Y38942D01*
X52402D01*
X52469Y38875D01*
Y38808D01*
X52402Y38742D01*
X52336D01*
X52402D01*
X52469Y38675D01*
Y38608D01*
X52402Y38542D01*
X52269D01*
X52202Y38608D01*
X53747Y37311D02*
Y37711D01*
X53947D01*
X54013Y37645D01*
Y37511D01*
X53947Y37445D01*
X53747D01*
X53880D02*
X54013Y37311D01*
X54147Y37645D02*
X54213Y37711D01*
X54347D01*
X54413Y37645D01*
Y37578D01*
X54347Y37511D01*
X54413Y37445D01*
Y37378D01*
X54347Y37311D01*
X54213D01*
X54147Y37378D01*
Y37445D01*
X54213Y37511D01*
X54147Y37578D01*
Y37645D01*
X54213Y37511D02*
X54347D01*
X47697Y37361D02*
Y37761D01*
X47897D01*
X47963Y37695D01*
Y37561D01*
X47897Y37495D01*
X47697D01*
X47830D02*
X47963Y37361D01*
X48097Y37428D02*
X48163Y37361D01*
X48297D01*
X48363Y37428D01*
Y37695D01*
X48297Y37761D01*
X48163D01*
X48097Y37695D01*
Y37628D01*
X48163Y37561D01*
X48363D01*
X30556Y41125D02*
Y40725D01*
X30755D01*
X30822Y40792D01*
Y41058D01*
X30755Y41125D01*
X30556D01*
X30955D02*
X31222D01*
Y41058D01*
X30955Y40792D01*
Y40725D01*
X20706Y41325D02*
Y40925D01*
X20905D01*
X20972Y40992D01*
Y41258D01*
X20905Y41325D01*
X20706D01*
X21105Y41258D02*
X21172Y41325D01*
X21305D01*
X21372Y41258D01*
Y41192D01*
X21305Y41125D01*
X21372Y41058D01*
Y40992D01*
X21305Y40925D01*
X21172D01*
X21105Y40992D01*
Y41058D01*
X21172Y41125D01*
X21105Y41192D01*
Y41258D01*
X21172Y41125D02*
X21305D01*
X26606Y40904D02*
Y41304D01*
X26805D01*
X26872Y41237D01*
Y41104D01*
X26805Y41037D01*
X26606D01*
X27005Y41237D02*
X27072Y41304D01*
X27205D01*
X27272Y41237D01*
Y41171D01*
X27205Y41104D01*
X27139D01*
X27205D01*
X27272Y41037D01*
Y40971D01*
X27205Y40904D01*
X27072D01*
X27005Y40971D01*
X28550Y39674D02*
Y40073D01*
X28750D01*
X28817Y40007D01*
Y39874D01*
X28750Y39807D01*
X28550D01*
X28683D02*
X28817Y39674D01*
X28950Y40007D02*
X29017Y40073D01*
X29150D01*
X29216Y40007D01*
Y39940D01*
X29150Y39874D01*
X29216Y39807D01*
Y39740D01*
X29150Y39674D01*
X29017D01*
X28950Y39740D01*
Y39807D01*
X29017Y39874D01*
X28950Y39940D01*
Y40007D01*
X29017Y39874D02*
X29150D01*
X22500Y39724D02*
Y40124D01*
X22700D01*
X22767Y40057D01*
Y39924D01*
X22700Y39857D01*
X22500D01*
X22633D02*
X22767Y39724D01*
X22900Y39790D02*
X22967Y39724D01*
X23100D01*
X23166Y39790D01*
Y40057D01*
X23100Y40124D01*
X22967D01*
X22900Y40057D01*
Y39990D01*
X22967Y39924D01*
X23166D01*
X43154Y41125D02*
Y40725D01*
X43354D01*
X43421Y40792D01*
Y41058D01*
X43354Y41125D01*
X43154D01*
X43554D02*
X43820D01*
Y41058D01*
X43554Y40792D01*
Y40725D01*
X33304Y41325D02*
Y40925D01*
X33504D01*
X33571Y40992D01*
Y41258D01*
X33504Y41325D01*
X33304D01*
X33704Y41258D02*
X33770Y41325D01*
X33904D01*
X33970Y41258D01*
Y41192D01*
X33904Y41125D01*
X33970Y41058D01*
Y40992D01*
X33904Y40925D01*
X33770D01*
X33704Y40992D01*
Y41058D01*
X33770Y41125D01*
X33704Y41192D01*
Y41258D01*
X33770Y41125D02*
X33904D01*
X39204Y40904D02*
Y41304D01*
X39404D01*
X39471Y41237D01*
Y41104D01*
X39404Y41037D01*
X39204D01*
X39604Y41237D02*
X39670Y41304D01*
X39804D01*
X39870Y41237D01*
Y41171D01*
X39804Y41104D01*
X39737D01*
X39804D01*
X39870Y41037D01*
Y40971D01*
X39804Y40904D01*
X39670D01*
X39604Y40971D01*
X41148Y39674D02*
Y40073D01*
X41348D01*
X41415Y40007D01*
Y39874D01*
X41348Y39807D01*
X41148D01*
X41282D02*
X41415Y39674D01*
X41548Y40007D02*
X41615Y40073D01*
X41748D01*
X41815Y40007D01*
Y39940D01*
X41748Y39874D01*
X41815Y39807D01*
Y39740D01*
X41748Y39674D01*
X41615D01*
X41548Y39740D01*
Y39807D01*
X41615Y39874D01*
X41548Y39940D01*
Y40007D01*
X41615Y39874D02*
X41748D01*
X35098Y39724D02*
Y40124D01*
X35298D01*
X35365Y40057D01*
Y39924D01*
X35298Y39857D01*
X35098D01*
X35232D02*
X35365Y39724D01*
X35498Y39790D02*
X35565Y39724D01*
X35698D01*
X35765Y39790D01*
Y40057D01*
X35698Y40124D01*
X35565D01*
X35498Y40057D01*
Y39990D01*
X35565Y39924D01*
X35765D01*
X55752Y41125D02*
Y40725D01*
X55952D01*
X56019Y40792D01*
Y41058D01*
X55952Y41125D01*
X55752D01*
X56152D02*
X56419D01*
Y41058D01*
X56152Y40792D01*
Y40725D01*
X45902Y41325D02*
Y40925D01*
X46102D01*
X46169Y40992D01*
Y41258D01*
X46102Y41325D01*
X45902D01*
X46302Y41258D02*
X46369Y41325D01*
X46502D01*
X46569Y41258D01*
Y41192D01*
X46502Y41125D01*
X46569Y41058D01*
Y40992D01*
X46502Y40925D01*
X46369D01*
X46302Y40992D01*
Y41058D01*
X46369Y41125D01*
X46302Y41192D01*
Y41258D01*
X46369Y41125D02*
X46502D01*
X51802Y40904D02*
Y41304D01*
X52002D01*
X52069Y41237D01*
Y41104D01*
X52002Y41037D01*
X51802D01*
X52202Y41237D02*
X52269Y41304D01*
X52402D01*
X52469Y41237D01*
Y41171D01*
X52402Y41104D01*
X52336D01*
X52402D01*
X52469Y41037D01*
Y40971D01*
X52402Y40904D01*
X52269D01*
X52202Y40971D01*
X53747Y39674D02*
Y40073D01*
X53947D01*
X54013Y40007D01*
Y39874D01*
X53947Y39807D01*
X53747D01*
X53880D02*
X54013Y39674D01*
X54147Y40007D02*
X54213Y40073D01*
X54347D01*
X54413Y40007D01*
Y39940D01*
X54347Y39874D01*
X54413Y39807D01*
Y39740D01*
X54347Y39674D01*
X54213D01*
X54147Y39740D01*
Y39807D01*
X54213Y39874D01*
X54147Y39940D01*
Y40007D01*
X54213Y39874D02*
X54347D01*
X47697Y39724D02*
Y40124D01*
X47897D01*
X47963Y40057D01*
Y39924D01*
X47897Y39857D01*
X47697D01*
X47830D02*
X47963Y39724D01*
X48097Y39790D02*
X48163Y39724D01*
X48297D01*
X48363Y39790D01*
Y40057D01*
X48297Y40124D01*
X48163D01*
X48097Y40057D01*
Y39990D01*
X48163Y39924D01*
X48363D01*
M02*
