G04 Layer_Physical_Order=2*
G04 Layer_Color=16711680*
%FSLAX24Y24*%
%MOIN*%
G70*
G01*
G75*
%ADD13C,0.0100*%
%ADD14C,0.0591*%
%ADD15R,0.0591X0.0591*%
G36*
X32100Y4000D02*
X32104Y3996D01*
X32085Y3950D01*
X19550D01*
Y6229D01*
X19600Y6250D01*
X32100D01*
Y4000D01*
D02*
G37*
%LPC*%
G36*
X26244Y4480D02*
X25899D01*
Y4135D01*
X26244D01*
Y4480D01*
D02*
G37*
G36*
X25799D02*
X25454D01*
Y4135D01*
X25799D01*
Y4480D01*
D02*
G37*
G36*
X25849Y5929D02*
X25746Y5915D01*
X25650Y5875D01*
X25567Y5812D01*
X25504Y5729D01*
X25464Y5633D01*
X25451Y5530D01*
X25464Y5427D01*
X25504Y5331D01*
X25567Y5248D01*
X25650Y5185D01*
X25746Y5145D01*
X25849Y5131D01*
X25952Y5145D01*
X26049Y5185D01*
X26131Y5248D01*
X26194Y5331D01*
X26234Y5427D01*
X26248Y5530D01*
X26234Y5633D01*
X26194Y5729D01*
X26131Y5812D01*
X26049Y5875D01*
X25952Y5915D01*
X25849Y5929D01*
D02*
G37*
G36*
X26244Y4925D02*
X25899D01*
Y4580D01*
X26244D01*
Y4925D01*
D02*
G37*
G36*
X25799D02*
X25454D01*
Y4580D01*
X25799D01*
Y4925D01*
D02*
G37*
%LPD*%
G36*
X44698Y4000D02*
X44702Y3996D01*
X44683Y3950D01*
X32148D01*
Y6229D01*
X32198Y6250D01*
X44698D01*
Y4000D01*
D02*
G37*
%LPC*%
G36*
X38843Y4480D02*
X38498D01*
Y4135D01*
X38843D01*
Y4480D01*
D02*
G37*
G36*
X38398D02*
X38052D01*
Y4135D01*
X38398D01*
Y4480D01*
D02*
G37*
G36*
X38448Y5929D02*
X38344Y5915D01*
X38248Y5875D01*
X38166Y5812D01*
X38102Y5729D01*
X38063Y5633D01*
X38049Y5530D01*
X38063Y5427D01*
X38102Y5331D01*
X38166Y5248D01*
X38248Y5185D01*
X38344Y5145D01*
X38448Y5131D01*
X38551Y5145D01*
X38647Y5185D01*
X38730Y5248D01*
X38793Y5331D01*
X38833Y5427D01*
X38846Y5530D01*
X38833Y5633D01*
X38793Y5729D01*
X38730Y5812D01*
X38647Y5875D01*
X38551Y5915D01*
X38448Y5929D01*
D02*
G37*
G36*
X38843Y4925D02*
X38498D01*
Y4580D01*
X38843D01*
Y4925D01*
D02*
G37*
G36*
X38398D02*
X38052D01*
Y4580D01*
X38398D01*
Y4925D01*
D02*
G37*
%LPD*%
G36*
X57297Y4000D02*
X57301Y3996D01*
X57282Y3950D01*
X44747D01*
Y6229D01*
X44797Y6250D01*
X57297D01*
Y4000D01*
D02*
G37*
%LPC*%
G36*
X51441Y4480D02*
X51096D01*
Y4135D01*
X51441D01*
Y4480D01*
D02*
G37*
G36*
X50996D02*
X50651D01*
Y4135D01*
X50996D01*
Y4480D01*
D02*
G37*
G36*
X51046Y5929D02*
X50943Y5915D01*
X50847Y5875D01*
X50764Y5812D01*
X50701Y5729D01*
X50661Y5633D01*
X50647Y5530D01*
X50661Y5427D01*
X50701Y5331D01*
X50764Y5248D01*
X50847Y5185D01*
X50943Y5145D01*
X51046Y5131D01*
X51149Y5145D01*
X51245Y5185D01*
X51328Y5248D01*
X51391Y5331D01*
X51431Y5427D01*
X51445Y5530D01*
X51431Y5633D01*
X51391Y5729D01*
X51328Y5812D01*
X51245Y5875D01*
X51149Y5915D01*
X51046Y5929D01*
D02*
G37*
G36*
X51441Y4925D02*
X51096D01*
Y4580D01*
X51441D01*
Y4925D01*
D02*
G37*
G36*
X50996D02*
X50651D01*
Y4580D01*
X50996D01*
Y4925D01*
D02*
G37*
%LPD*%
G36*
X32100Y6362D02*
X32104Y6358D01*
X32085Y6312D01*
X19550D01*
Y8591D01*
X19600Y8612D01*
X32100D01*
Y6362D01*
D02*
G37*
%LPC*%
G36*
X26244Y6842D02*
X25899D01*
Y6497D01*
X26244D01*
Y6842D01*
D02*
G37*
G36*
X25799D02*
X25454D01*
Y6497D01*
X25799D01*
Y6842D01*
D02*
G37*
G36*
X25849Y8291D02*
X25746Y8277D01*
X25650Y8237D01*
X25567Y8174D01*
X25504Y8091D01*
X25464Y7995D01*
X25451Y7892D01*
X25464Y7789D01*
X25504Y7693D01*
X25567Y7610D01*
X25650Y7547D01*
X25746Y7507D01*
X25849Y7493D01*
X25952Y7507D01*
X26049Y7547D01*
X26131Y7610D01*
X26194Y7693D01*
X26234Y7789D01*
X26248Y7892D01*
X26234Y7995D01*
X26194Y8091D01*
X26131Y8174D01*
X26049Y8237D01*
X25952Y8277D01*
X25849Y8291D01*
D02*
G37*
G36*
X26244Y7287D02*
X25899D01*
Y6942D01*
X26244D01*
Y7287D01*
D02*
G37*
G36*
X25799D02*
X25454D01*
Y6942D01*
X25799D01*
Y7287D01*
D02*
G37*
%LPD*%
G36*
X44698Y6362D02*
X44702Y6358D01*
X44683Y6312D01*
X32148D01*
Y8591D01*
X32198Y8612D01*
X44698D01*
Y6362D01*
D02*
G37*
%LPC*%
G36*
X38843Y6842D02*
X38498D01*
Y6497D01*
X38843D01*
Y6842D01*
D02*
G37*
G36*
X38398D02*
X38052D01*
Y6497D01*
X38398D01*
Y6842D01*
D02*
G37*
G36*
X38448Y8291D02*
X38344Y8277D01*
X38248Y8237D01*
X38166Y8174D01*
X38102Y8091D01*
X38063Y7995D01*
X38049Y7892D01*
X38063Y7789D01*
X38102Y7693D01*
X38166Y7610D01*
X38248Y7547D01*
X38344Y7507D01*
X38448Y7493D01*
X38551Y7507D01*
X38647Y7547D01*
X38730Y7610D01*
X38793Y7693D01*
X38833Y7789D01*
X38846Y7892D01*
X38833Y7995D01*
X38793Y8091D01*
X38730Y8174D01*
X38647Y8237D01*
X38551Y8277D01*
X38448Y8291D01*
D02*
G37*
G36*
X38843Y7287D02*
X38498D01*
Y6942D01*
X38843D01*
Y7287D01*
D02*
G37*
G36*
X38398D02*
X38052D01*
Y6942D01*
X38398D01*
Y7287D01*
D02*
G37*
%LPD*%
G36*
X57297Y6362D02*
X57301Y6358D01*
X57282Y6312D01*
X44747D01*
Y8591D01*
X44797Y8612D01*
X57297D01*
Y6362D01*
D02*
G37*
%LPC*%
G36*
X51441Y6842D02*
X51096D01*
Y6497D01*
X51441D01*
Y6842D01*
D02*
G37*
G36*
X50996D02*
X50651D01*
Y6497D01*
X50996D01*
Y6842D01*
D02*
G37*
G36*
X51046Y8291D02*
X50943Y8277D01*
X50847Y8237D01*
X50764Y8174D01*
X50701Y8091D01*
X50661Y7995D01*
X50647Y7892D01*
X50661Y7789D01*
X50701Y7693D01*
X50764Y7610D01*
X50847Y7547D01*
X50943Y7507D01*
X51046Y7493D01*
X51149Y7507D01*
X51245Y7547D01*
X51328Y7610D01*
X51391Y7693D01*
X51431Y7789D01*
X51445Y7892D01*
X51431Y7995D01*
X51391Y8091D01*
X51328Y8174D01*
X51245Y8237D01*
X51149Y8277D01*
X51046Y8291D01*
D02*
G37*
G36*
X51441Y7287D02*
X51096D01*
Y6942D01*
X51441D01*
Y7287D01*
D02*
G37*
G36*
X50996D02*
X50651D01*
Y6942D01*
X50996D01*
Y7287D01*
D02*
G37*
%LPD*%
G36*
X32100Y8724D02*
X32104Y8721D01*
X32085Y8674D01*
X19550D01*
Y10954D01*
X19600Y10974D01*
X32100D01*
Y8724D01*
D02*
G37*
%LPC*%
G36*
X26244Y9204D02*
X25899D01*
Y8859D01*
X26244D01*
Y9204D01*
D02*
G37*
G36*
X25799D02*
X25454D01*
Y8859D01*
X25799D01*
Y9204D01*
D02*
G37*
G36*
X25849Y10653D02*
X25746Y10639D01*
X25650Y10600D01*
X25567Y10536D01*
X25504Y10454D01*
X25464Y10358D01*
X25451Y10254D01*
X25464Y10151D01*
X25504Y10055D01*
X25567Y9972D01*
X25650Y9909D01*
X25746Y9869D01*
X25849Y9856D01*
X25952Y9869D01*
X26049Y9909D01*
X26131Y9972D01*
X26194Y10055D01*
X26234Y10151D01*
X26248Y10254D01*
X26234Y10358D01*
X26194Y10454D01*
X26131Y10536D01*
X26049Y10600D01*
X25952Y10639D01*
X25849Y10653D01*
D02*
G37*
G36*
X26244Y9650D02*
X25899D01*
Y9304D01*
X26244D01*
Y9650D01*
D02*
G37*
G36*
X25799D02*
X25454D01*
Y9304D01*
X25799D01*
Y9650D01*
D02*
G37*
%LPD*%
G36*
X44698Y8724D02*
X44702Y8721D01*
X44683Y8674D01*
X32148D01*
Y10954D01*
X32198Y10974D01*
X44698D01*
Y8724D01*
D02*
G37*
%LPC*%
G36*
X38843Y9204D02*
X38498D01*
Y8859D01*
X38843D01*
Y9204D01*
D02*
G37*
G36*
X38398D02*
X38052D01*
Y8859D01*
X38398D01*
Y9204D01*
D02*
G37*
G36*
X38448Y10653D02*
X38344Y10639D01*
X38248Y10600D01*
X38166Y10536D01*
X38102Y10454D01*
X38063Y10358D01*
X38049Y10254D01*
X38063Y10151D01*
X38102Y10055D01*
X38166Y9972D01*
X38248Y9909D01*
X38344Y9869D01*
X38448Y9856D01*
X38551Y9869D01*
X38647Y9909D01*
X38730Y9972D01*
X38793Y10055D01*
X38833Y10151D01*
X38846Y10254D01*
X38833Y10358D01*
X38793Y10454D01*
X38730Y10536D01*
X38647Y10600D01*
X38551Y10639D01*
X38448Y10653D01*
D02*
G37*
G36*
X38843Y9650D02*
X38498D01*
Y9304D01*
X38843D01*
Y9650D01*
D02*
G37*
G36*
X38398D02*
X38052D01*
Y9304D01*
X38398D01*
Y9650D01*
D02*
G37*
%LPD*%
G36*
X57297Y8724D02*
X57301Y8721D01*
X57282Y8674D01*
X44747D01*
Y10954D01*
X44797Y10974D01*
X57297D01*
Y8724D01*
D02*
G37*
%LPC*%
G36*
X51441Y9204D02*
X51096D01*
Y8859D01*
X51441D01*
Y9204D01*
D02*
G37*
G36*
X50996D02*
X50651D01*
Y8859D01*
X50996D01*
Y9204D01*
D02*
G37*
G36*
X51046Y10653D02*
X50943Y10639D01*
X50847Y10600D01*
X50764Y10536D01*
X50701Y10454D01*
X50661Y10358D01*
X50647Y10254D01*
X50661Y10151D01*
X50701Y10055D01*
X50764Y9972D01*
X50847Y9909D01*
X50943Y9869D01*
X51046Y9856D01*
X51149Y9869D01*
X51245Y9909D01*
X51328Y9972D01*
X51391Y10055D01*
X51431Y10151D01*
X51445Y10254D01*
X51431Y10358D01*
X51391Y10454D01*
X51328Y10536D01*
X51245Y10600D01*
X51149Y10639D01*
X51046Y10653D01*
D02*
G37*
G36*
X51441Y9650D02*
X51096D01*
Y9304D01*
X51441D01*
Y9650D01*
D02*
G37*
G36*
X50996D02*
X50651D01*
Y9304D01*
X50996D01*
Y9650D01*
D02*
G37*
%LPD*%
G36*
X32100Y11087D02*
X32104Y11083D01*
X32085Y11037D01*
X19550D01*
Y13316D01*
X19600Y13337D01*
X32100D01*
Y11087D01*
D02*
G37*
%LPC*%
G36*
X26244Y11567D02*
X25899D01*
Y11221D01*
X26244D01*
Y11567D01*
D02*
G37*
G36*
X25799D02*
X25454D01*
Y11221D01*
X25799D01*
Y11567D01*
D02*
G37*
G36*
X25849Y13015D02*
X25746Y13002D01*
X25650Y12962D01*
X25567Y12898D01*
X25504Y12816D01*
X25464Y12720D01*
X25451Y12617D01*
X25464Y12513D01*
X25504Y12417D01*
X25567Y12335D01*
X25650Y12271D01*
X25746Y12231D01*
X25849Y12218D01*
X25952Y12231D01*
X26049Y12271D01*
X26131Y12335D01*
X26194Y12417D01*
X26234Y12513D01*
X26248Y12617D01*
X26234Y12720D01*
X26194Y12816D01*
X26131Y12898D01*
X26049Y12962D01*
X25952Y13002D01*
X25849Y13015D01*
D02*
G37*
G36*
X26244Y12012D02*
X25899D01*
Y11667D01*
X26244D01*
Y12012D01*
D02*
G37*
G36*
X25799D02*
X25454D01*
Y11667D01*
X25799D01*
Y12012D01*
D02*
G37*
%LPD*%
G36*
X44698Y11087D02*
X44702Y11083D01*
X44683Y11037D01*
X32148D01*
Y13316D01*
X32198Y13337D01*
X44698D01*
Y11087D01*
D02*
G37*
%LPC*%
G36*
X38843Y11567D02*
X38498D01*
Y11221D01*
X38843D01*
Y11567D01*
D02*
G37*
G36*
X38398D02*
X38052D01*
Y11221D01*
X38398D01*
Y11567D01*
D02*
G37*
G36*
X38448Y13015D02*
X38344Y13002D01*
X38248Y12962D01*
X38166Y12898D01*
X38102Y12816D01*
X38063Y12720D01*
X38049Y12617D01*
X38063Y12513D01*
X38102Y12417D01*
X38166Y12335D01*
X38248Y12271D01*
X38344Y12231D01*
X38448Y12218D01*
X38551Y12231D01*
X38647Y12271D01*
X38730Y12335D01*
X38793Y12417D01*
X38833Y12513D01*
X38846Y12617D01*
X38833Y12720D01*
X38793Y12816D01*
X38730Y12898D01*
X38647Y12962D01*
X38551Y13002D01*
X38448Y13015D01*
D02*
G37*
G36*
X38843Y12012D02*
X38498D01*
Y11667D01*
X38843D01*
Y12012D01*
D02*
G37*
G36*
X38398D02*
X38052D01*
Y11667D01*
X38398D01*
Y12012D01*
D02*
G37*
%LPD*%
G36*
X57297Y11087D02*
X57301Y11083D01*
X57282Y11037D01*
X44747D01*
Y13316D01*
X44797Y13337D01*
X57297D01*
Y11087D01*
D02*
G37*
%LPC*%
G36*
X51441Y11567D02*
X51096D01*
Y11221D01*
X51441D01*
Y11567D01*
D02*
G37*
G36*
X50996D02*
X50651D01*
Y11221D01*
X50996D01*
Y11567D01*
D02*
G37*
G36*
X51046Y13015D02*
X50943Y13002D01*
X50847Y12962D01*
X50764Y12898D01*
X50701Y12816D01*
X50661Y12720D01*
X50647Y12617D01*
X50661Y12513D01*
X50701Y12417D01*
X50764Y12335D01*
X50847Y12271D01*
X50943Y12231D01*
X51046Y12218D01*
X51149Y12231D01*
X51245Y12271D01*
X51328Y12335D01*
X51391Y12417D01*
X51431Y12513D01*
X51445Y12617D01*
X51431Y12720D01*
X51391Y12816D01*
X51328Y12898D01*
X51245Y12962D01*
X51149Y13002D01*
X51046Y13015D01*
D02*
G37*
G36*
X51441Y12012D02*
X51096D01*
Y11667D01*
X51441D01*
Y12012D01*
D02*
G37*
G36*
X50996D02*
X50651D01*
Y11667D01*
X50996D01*
Y12012D01*
D02*
G37*
%LPD*%
G36*
X32100Y13449D02*
X32104Y13445D01*
X32085Y13399D01*
X19550D01*
Y15678D01*
X19600Y15699D01*
X32100D01*
Y13449D01*
D02*
G37*
%LPC*%
G36*
X26244Y13929D02*
X25899D01*
Y13583D01*
X26244D01*
Y13929D01*
D02*
G37*
G36*
X25799D02*
X25454D01*
Y13583D01*
X25799D01*
Y13929D01*
D02*
G37*
G36*
X25849Y15377D02*
X25746Y15364D01*
X25650Y15324D01*
X25567Y15261D01*
X25504Y15178D01*
X25464Y15082D01*
X25451Y14979D01*
X25464Y14876D01*
X25504Y14779D01*
X25567Y14697D01*
X25650Y14633D01*
X25746Y14594D01*
X25849Y14580D01*
X25952Y14594D01*
X26049Y14633D01*
X26131Y14697D01*
X26194Y14779D01*
X26234Y14876D01*
X26248Y14979D01*
X26234Y15082D01*
X26194Y15178D01*
X26131Y15261D01*
X26049Y15324D01*
X25952Y15364D01*
X25849Y15377D01*
D02*
G37*
G36*
X26244Y14374D02*
X25899D01*
Y14029D01*
X26244D01*
Y14374D01*
D02*
G37*
G36*
X25799D02*
X25454D01*
Y14029D01*
X25799D01*
Y14374D01*
D02*
G37*
%LPD*%
G36*
X44698Y13449D02*
X44702Y13445D01*
X44683Y13399D01*
X32148D01*
Y15678D01*
X32198Y15699D01*
X44698D01*
Y13449D01*
D02*
G37*
%LPC*%
G36*
X38843Y13929D02*
X38498D01*
Y13583D01*
X38843D01*
Y13929D01*
D02*
G37*
G36*
X38398D02*
X38052D01*
Y13583D01*
X38398D01*
Y13929D01*
D02*
G37*
G36*
X38448Y15377D02*
X38344Y15364D01*
X38248Y15324D01*
X38166Y15261D01*
X38102Y15178D01*
X38063Y15082D01*
X38049Y14979D01*
X38063Y14876D01*
X38102Y14779D01*
X38166Y14697D01*
X38248Y14633D01*
X38344Y14594D01*
X38448Y14580D01*
X38551Y14594D01*
X38647Y14633D01*
X38730Y14697D01*
X38793Y14779D01*
X38833Y14876D01*
X38846Y14979D01*
X38833Y15082D01*
X38793Y15178D01*
X38730Y15261D01*
X38647Y15324D01*
X38551Y15364D01*
X38448Y15377D01*
D02*
G37*
G36*
X38843Y14374D02*
X38498D01*
Y14029D01*
X38843D01*
Y14374D01*
D02*
G37*
G36*
X38398D02*
X38052D01*
Y14029D01*
X38398D01*
Y14374D01*
D02*
G37*
%LPD*%
G36*
X57297Y13449D02*
X57301Y13445D01*
X57282Y13399D01*
X44747D01*
Y15678D01*
X44797Y15699D01*
X57297D01*
Y13449D01*
D02*
G37*
%LPC*%
G36*
X51441Y13929D02*
X51096D01*
Y13583D01*
X51441D01*
Y13929D01*
D02*
G37*
G36*
X50996D02*
X50651D01*
Y13583D01*
X50996D01*
Y13929D01*
D02*
G37*
G36*
X51046Y15377D02*
X50943Y15364D01*
X50847Y15324D01*
X50764Y15261D01*
X50701Y15178D01*
X50661Y15082D01*
X50647Y14979D01*
X50661Y14876D01*
X50701Y14779D01*
X50764Y14697D01*
X50847Y14633D01*
X50943Y14594D01*
X51046Y14580D01*
X51149Y14594D01*
X51245Y14633D01*
X51328Y14697D01*
X51391Y14779D01*
X51431Y14876D01*
X51445Y14979D01*
X51431Y15082D01*
X51391Y15178D01*
X51328Y15261D01*
X51245Y15324D01*
X51149Y15364D01*
X51046Y15377D01*
D02*
G37*
G36*
X51441Y14374D02*
X51096D01*
Y14029D01*
X51441D01*
Y14374D01*
D02*
G37*
G36*
X50996D02*
X50651D01*
Y14029D01*
X50996D01*
Y14374D01*
D02*
G37*
%LPD*%
G36*
X32100Y15811D02*
X32104Y15807D01*
X32085Y15761D01*
X19550D01*
Y18040D01*
X19600Y18061D01*
X32100D01*
Y15811D01*
D02*
G37*
%LPC*%
G36*
X26244Y16291D02*
X25899D01*
Y15946D01*
X26244D01*
Y16291D01*
D02*
G37*
G36*
X25799D02*
X25454D01*
Y15946D01*
X25799D01*
Y16291D01*
D02*
G37*
G36*
X25849Y17740D02*
X25746Y17726D01*
X25650Y17686D01*
X25567Y17623D01*
X25504Y17540D01*
X25464Y17444D01*
X25451Y17341D01*
X25464Y17238D01*
X25504Y17142D01*
X25567Y17059D01*
X25650Y16996D01*
X25746Y16956D01*
X25849Y16942D01*
X25952Y16956D01*
X26049Y16996D01*
X26131Y17059D01*
X26194Y17142D01*
X26234Y17238D01*
X26248Y17341D01*
X26234Y17444D01*
X26194Y17540D01*
X26131Y17623D01*
X26049Y17686D01*
X25952Y17726D01*
X25849Y17740D01*
D02*
G37*
G36*
X26244Y16736D02*
X25899D01*
Y16391D01*
X26244D01*
Y16736D01*
D02*
G37*
G36*
X25799D02*
X25454D01*
Y16391D01*
X25799D01*
Y16736D01*
D02*
G37*
%LPD*%
G36*
X44698Y15811D02*
X44702Y15807D01*
X44683Y15761D01*
X32148D01*
Y18040D01*
X32198Y18061D01*
X44698D01*
Y15811D01*
D02*
G37*
%LPC*%
G36*
X38843Y16291D02*
X38498D01*
Y15946D01*
X38843D01*
Y16291D01*
D02*
G37*
G36*
X38398D02*
X38052D01*
Y15946D01*
X38398D01*
Y16291D01*
D02*
G37*
G36*
X38448Y17740D02*
X38344Y17726D01*
X38248Y17686D01*
X38166Y17623D01*
X38102Y17540D01*
X38063Y17444D01*
X38049Y17341D01*
X38063Y17238D01*
X38102Y17142D01*
X38166Y17059D01*
X38248Y16996D01*
X38344Y16956D01*
X38448Y16942D01*
X38551Y16956D01*
X38647Y16996D01*
X38730Y17059D01*
X38793Y17142D01*
X38833Y17238D01*
X38846Y17341D01*
X38833Y17444D01*
X38793Y17540D01*
X38730Y17623D01*
X38647Y17686D01*
X38551Y17726D01*
X38448Y17740D01*
D02*
G37*
G36*
X38843Y16736D02*
X38498D01*
Y16391D01*
X38843D01*
Y16736D01*
D02*
G37*
G36*
X38398D02*
X38052D01*
Y16391D01*
X38398D01*
Y16736D01*
D02*
G37*
%LPD*%
G36*
X57297Y15811D02*
X57301Y15807D01*
X57282Y15761D01*
X44747D01*
Y18040D01*
X44797Y18061D01*
X57297D01*
Y15811D01*
D02*
G37*
%LPC*%
G36*
X51441Y16291D02*
X51096D01*
Y15946D01*
X51441D01*
Y16291D01*
D02*
G37*
G36*
X50996D02*
X50651D01*
Y15946D01*
X50996D01*
Y16291D01*
D02*
G37*
G36*
X51046Y17740D02*
X50943Y17726D01*
X50847Y17686D01*
X50764Y17623D01*
X50701Y17540D01*
X50661Y17444D01*
X50647Y17341D01*
X50661Y17238D01*
X50701Y17142D01*
X50764Y17059D01*
X50847Y16996D01*
X50943Y16956D01*
X51046Y16942D01*
X51149Y16956D01*
X51245Y16996D01*
X51328Y17059D01*
X51391Y17142D01*
X51431Y17238D01*
X51445Y17341D01*
X51431Y17444D01*
X51391Y17540D01*
X51328Y17623D01*
X51245Y17686D01*
X51149Y17726D01*
X51046Y17740D01*
D02*
G37*
G36*
X51441Y16736D02*
X51096D01*
Y16391D01*
X51441D01*
Y16736D01*
D02*
G37*
G36*
X50996D02*
X50651D01*
Y16391D01*
X50996D01*
Y16736D01*
D02*
G37*
%LPD*%
G36*
X32100Y18173D02*
X32104Y18169D01*
X32085Y18123D01*
X19550D01*
Y20403D01*
X19600Y20423D01*
X32100D01*
Y18173D01*
D02*
G37*
%LPC*%
G36*
X26244Y18653D02*
X25899D01*
Y18308D01*
X26244D01*
Y18653D01*
D02*
G37*
G36*
X25799D02*
X25454D01*
Y18308D01*
X25799D01*
Y18653D01*
D02*
G37*
G36*
X25849Y20102D02*
X25746Y20088D01*
X25650Y20048D01*
X25567Y19985D01*
X25504Y19902D01*
X25464Y19806D01*
X25451Y19703D01*
X25464Y19600D01*
X25504Y19504D01*
X25567Y19421D01*
X25650Y19358D01*
X25746Y19318D01*
X25849Y19304D01*
X25952Y19318D01*
X26049Y19358D01*
X26131Y19421D01*
X26194Y19504D01*
X26234Y19600D01*
X26248Y19703D01*
X26234Y19806D01*
X26194Y19902D01*
X26131Y19985D01*
X26049Y20048D01*
X25952Y20088D01*
X25849Y20102D01*
D02*
G37*
G36*
X26244Y19098D02*
X25899D01*
Y18753D01*
X26244D01*
Y19098D01*
D02*
G37*
G36*
X25799D02*
X25454D01*
Y18753D01*
X25799D01*
Y19098D01*
D02*
G37*
%LPD*%
G36*
X44698Y18173D02*
X44702Y18169D01*
X44683Y18123D01*
X32148D01*
Y20403D01*
X32198Y20423D01*
X44698D01*
Y18173D01*
D02*
G37*
%LPC*%
G36*
X38843Y18653D02*
X38498D01*
Y18308D01*
X38843D01*
Y18653D01*
D02*
G37*
G36*
X38398D02*
X38052D01*
Y18308D01*
X38398D01*
Y18653D01*
D02*
G37*
G36*
X38448Y20102D02*
X38344Y20088D01*
X38248Y20048D01*
X38166Y19985D01*
X38102Y19902D01*
X38063Y19806D01*
X38049Y19703D01*
X38063Y19600D01*
X38102Y19504D01*
X38166Y19421D01*
X38248Y19358D01*
X38344Y19318D01*
X38448Y19304D01*
X38551Y19318D01*
X38647Y19358D01*
X38730Y19421D01*
X38793Y19504D01*
X38833Y19600D01*
X38846Y19703D01*
X38833Y19806D01*
X38793Y19902D01*
X38730Y19985D01*
X38647Y20048D01*
X38551Y20088D01*
X38448Y20102D01*
D02*
G37*
G36*
X38843Y19098D02*
X38498D01*
Y18753D01*
X38843D01*
Y19098D01*
D02*
G37*
G36*
X38398D02*
X38052D01*
Y18753D01*
X38398D01*
Y19098D01*
D02*
G37*
%LPD*%
G36*
X57297Y18173D02*
X57301Y18169D01*
X57282Y18123D01*
X44747D01*
Y20403D01*
X44797Y20423D01*
X57297D01*
Y18173D01*
D02*
G37*
%LPC*%
G36*
X51441Y18653D02*
X51096D01*
Y18308D01*
X51441D01*
Y18653D01*
D02*
G37*
G36*
X50996D02*
X50651D01*
Y18308D01*
X50996D01*
Y18653D01*
D02*
G37*
G36*
X51046Y20102D02*
X50943Y20088D01*
X50847Y20048D01*
X50764Y19985D01*
X50701Y19902D01*
X50661Y19806D01*
X50647Y19703D01*
X50661Y19600D01*
X50701Y19504D01*
X50764Y19421D01*
X50847Y19358D01*
X50943Y19318D01*
X51046Y19304D01*
X51149Y19318D01*
X51245Y19358D01*
X51328Y19421D01*
X51391Y19504D01*
X51431Y19600D01*
X51445Y19703D01*
X51431Y19806D01*
X51391Y19902D01*
X51328Y19985D01*
X51245Y20048D01*
X51149Y20088D01*
X51046Y20102D01*
D02*
G37*
G36*
X51441Y19098D02*
X51096D01*
Y18753D01*
X51441D01*
Y19098D01*
D02*
G37*
G36*
X50996D02*
X50651D01*
Y18753D01*
X50996D01*
Y19098D01*
D02*
G37*
%LPD*%
G36*
X32100Y20535D02*
X32104Y20532D01*
X32085Y20485D01*
X19550D01*
Y22765D01*
X19600Y22785D01*
X32100D01*
Y20535D01*
D02*
G37*
%LPC*%
G36*
X26244Y21015D02*
X25899D01*
Y20670D01*
X26244D01*
Y21015D01*
D02*
G37*
G36*
X25799D02*
X25454D01*
Y20670D01*
X25799D01*
Y21015D01*
D02*
G37*
G36*
X25849Y22464D02*
X25746Y22450D01*
X25650Y22411D01*
X25567Y22347D01*
X25504Y22265D01*
X25464Y22169D01*
X25451Y22065D01*
X25464Y21962D01*
X25504Y21866D01*
X25567Y21783D01*
X25650Y21720D01*
X25746Y21680D01*
X25849Y21667D01*
X25952Y21680D01*
X26049Y21720D01*
X26131Y21783D01*
X26194Y21866D01*
X26234Y21962D01*
X26248Y22065D01*
X26234Y22169D01*
X26194Y22265D01*
X26131Y22347D01*
X26049Y22411D01*
X25952Y22450D01*
X25849Y22464D01*
D02*
G37*
G36*
X26244Y21461D02*
X25899D01*
Y21115D01*
X26244D01*
Y21461D01*
D02*
G37*
G36*
X25799D02*
X25454D01*
Y21115D01*
X25799D01*
Y21461D01*
D02*
G37*
%LPD*%
G36*
X44698Y20535D02*
X44702Y20532D01*
X44683Y20485D01*
X32148D01*
Y22765D01*
X32198Y22785D01*
X44698D01*
Y20535D01*
D02*
G37*
%LPC*%
G36*
X38843Y21015D02*
X38498D01*
Y20670D01*
X38843D01*
Y21015D01*
D02*
G37*
G36*
X38398D02*
X38052D01*
Y20670D01*
X38398D01*
Y21015D01*
D02*
G37*
G36*
X38448Y22464D02*
X38344Y22450D01*
X38248Y22411D01*
X38166Y22347D01*
X38102Y22265D01*
X38063Y22169D01*
X38049Y22065D01*
X38063Y21962D01*
X38102Y21866D01*
X38166Y21783D01*
X38248Y21720D01*
X38344Y21680D01*
X38448Y21667D01*
X38551Y21680D01*
X38647Y21720D01*
X38730Y21783D01*
X38793Y21866D01*
X38833Y21962D01*
X38846Y22065D01*
X38833Y22169D01*
X38793Y22265D01*
X38730Y22347D01*
X38647Y22411D01*
X38551Y22450D01*
X38448Y22464D01*
D02*
G37*
G36*
X38843Y21461D02*
X38498D01*
Y21115D01*
X38843D01*
Y21461D01*
D02*
G37*
G36*
X38398D02*
X38052D01*
Y21115D01*
X38398D01*
Y21461D01*
D02*
G37*
%LPD*%
G36*
X57297Y20535D02*
X57301Y20532D01*
X57282Y20485D01*
X44747D01*
Y22765D01*
X44797Y22785D01*
X57297D01*
Y20535D01*
D02*
G37*
%LPC*%
G36*
X51441Y21015D02*
X51096D01*
Y20670D01*
X51441D01*
Y21015D01*
D02*
G37*
G36*
X50996D02*
X50651D01*
Y20670D01*
X50996D01*
Y21015D01*
D02*
G37*
G36*
X51046Y22464D02*
X50943Y22450D01*
X50847Y22411D01*
X50764Y22347D01*
X50701Y22265D01*
X50661Y22169D01*
X50647Y22065D01*
X50661Y21962D01*
X50701Y21866D01*
X50764Y21783D01*
X50847Y21720D01*
X50943Y21680D01*
X51046Y21667D01*
X51149Y21680D01*
X51245Y21720D01*
X51328Y21783D01*
X51391Y21866D01*
X51431Y21962D01*
X51445Y22065D01*
X51431Y22169D01*
X51391Y22265D01*
X51328Y22347D01*
X51245Y22411D01*
X51149Y22450D01*
X51046Y22464D01*
D02*
G37*
G36*
X51441Y21461D02*
X51096D01*
Y21115D01*
X51441D01*
Y21461D01*
D02*
G37*
G36*
X50996D02*
X50651D01*
Y21115D01*
X50996D01*
Y21461D01*
D02*
G37*
%LPD*%
G36*
X32100Y22898D02*
X32104Y22894D01*
X32085Y22848D01*
X19550D01*
Y25127D01*
X19600Y25148D01*
X32100D01*
Y22898D01*
D02*
G37*
%LPC*%
G36*
X26244Y23378D02*
X25899D01*
Y23032D01*
X26244D01*
Y23378D01*
D02*
G37*
G36*
X25799D02*
X25454D01*
Y23032D01*
X25799D01*
Y23378D01*
D02*
G37*
G36*
X25849Y24826D02*
X25746Y24813D01*
X25650Y24773D01*
X25567Y24709D01*
X25504Y24627D01*
X25464Y24531D01*
X25451Y24428D01*
X25464Y24324D01*
X25504Y24228D01*
X25567Y24146D01*
X25650Y24082D01*
X25746Y24042D01*
X25849Y24029D01*
X25952Y24042D01*
X26049Y24082D01*
X26131Y24146D01*
X26194Y24228D01*
X26234Y24324D01*
X26248Y24428D01*
X26234Y24531D01*
X26194Y24627D01*
X26131Y24709D01*
X26049Y24773D01*
X25952Y24813D01*
X25849Y24826D01*
D02*
G37*
G36*
X26244Y23823D02*
X25899D01*
Y23478D01*
X26244D01*
Y23823D01*
D02*
G37*
G36*
X25799D02*
X25454D01*
Y23478D01*
X25799D01*
Y23823D01*
D02*
G37*
%LPD*%
G36*
X44698Y22898D02*
X44702Y22894D01*
X44683Y22848D01*
X32148D01*
Y25127D01*
X32198Y25148D01*
X44698D01*
Y22898D01*
D02*
G37*
%LPC*%
G36*
X38843Y23378D02*
X38498D01*
Y23032D01*
X38843D01*
Y23378D01*
D02*
G37*
G36*
X38398D02*
X38052D01*
Y23032D01*
X38398D01*
Y23378D01*
D02*
G37*
G36*
X38448Y24826D02*
X38344Y24813D01*
X38248Y24773D01*
X38166Y24709D01*
X38102Y24627D01*
X38063Y24531D01*
X38049Y24428D01*
X38063Y24324D01*
X38102Y24228D01*
X38166Y24146D01*
X38248Y24082D01*
X38344Y24042D01*
X38448Y24029D01*
X38551Y24042D01*
X38647Y24082D01*
X38730Y24146D01*
X38793Y24228D01*
X38833Y24324D01*
X38846Y24428D01*
X38833Y24531D01*
X38793Y24627D01*
X38730Y24709D01*
X38647Y24773D01*
X38551Y24813D01*
X38448Y24826D01*
D02*
G37*
G36*
X38843Y23823D02*
X38498D01*
Y23478D01*
X38843D01*
Y23823D01*
D02*
G37*
G36*
X38398D02*
X38052D01*
Y23478D01*
X38398D01*
Y23823D01*
D02*
G37*
%LPD*%
G36*
X57297Y22898D02*
X57301Y22894D01*
X57282Y22848D01*
X44747D01*
Y25127D01*
X44797Y25148D01*
X57297D01*
Y22898D01*
D02*
G37*
%LPC*%
G36*
X51441Y23378D02*
X51096D01*
Y23032D01*
X51441D01*
Y23378D01*
D02*
G37*
G36*
X50996D02*
X50651D01*
Y23032D01*
X50996D01*
Y23378D01*
D02*
G37*
G36*
X51046Y24826D02*
X50943Y24813D01*
X50847Y24773D01*
X50764Y24709D01*
X50701Y24627D01*
X50661Y24531D01*
X50647Y24428D01*
X50661Y24324D01*
X50701Y24228D01*
X50764Y24146D01*
X50847Y24082D01*
X50943Y24042D01*
X51046Y24029D01*
X51149Y24042D01*
X51245Y24082D01*
X51328Y24146D01*
X51391Y24228D01*
X51431Y24324D01*
X51445Y24428D01*
X51431Y24531D01*
X51391Y24627D01*
X51328Y24709D01*
X51245Y24773D01*
X51149Y24813D01*
X51046Y24826D01*
D02*
G37*
G36*
X51441Y23823D02*
X51096D01*
Y23478D01*
X51441D01*
Y23823D01*
D02*
G37*
G36*
X50996D02*
X50651D01*
Y23478D01*
X50996D01*
Y23823D01*
D02*
G37*
%LPD*%
G36*
X32100Y25260D02*
X32104Y25256D01*
X32085Y25210D01*
X19550D01*
Y27489D01*
X19600Y27510D01*
X32100D01*
Y25260D01*
D02*
G37*
%LPC*%
G36*
X26244Y25740D02*
X25899D01*
Y25394D01*
X26244D01*
Y25740D01*
D02*
G37*
G36*
X25799D02*
X25454D01*
Y25394D01*
X25799D01*
Y25740D01*
D02*
G37*
G36*
X25849Y27188D02*
X25746Y27175D01*
X25650Y27135D01*
X25567Y27072D01*
X25504Y26989D01*
X25464Y26893D01*
X25451Y26790D01*
X25464Y26687D01*
X25504Y26590D01*
X25567Y26508D01*
X25650Y26444D01*
X25746Y26405D01*
X25849Y26391D01*
X25952Y26405D01*
X26049Y26444D01*
X26131Y26508D01*
X26194Y26590D01*
X26234Y26687D01*
X26248Y26790D01*
X26234Y26893D01*
X26194Y26989D01*
X26131Y27072D01*
X26049Y27135D01*
X25952Y27175D01*
X25849Y27188D01*
D02*
G37*
G36*
X26244Y26185D02*
X25899D01*
Y25840D01*
X26244D01*
Y26185D01*
D02*
G37*
G36*
X25799D02*
X25454D01*
Y25840D01*
X25799D01*
Y26185D01*
D02*
G37*
%LPD*%
G36*
X44698Y25260D02*
X44702Y25256D01*
X44683Y25210D01*
X32148D01*
Y27489D01*
X32198Y27510D01*
X44698D01*
Y25260D01*
D02*
G37*
%LPC*%
G36*
X38843Y25740D02*
X38498D01*
Y25394D01*
X38843D01*
Y25740D01*
D02*
G37*
G36*
X38398D02*
X38052D01*
Y25394D01*
X38398D01*
Y25740D01*
D02*
G37*
G36*
X38448Y27188D02*
X38344Y27175D01*
X38248Y27135D01*
X38166Y27072D01*
X38102Y26989D01*
X38063Y26893D01*
X38049Y26790D01*
X38063Y26687D01*
X38102Y26590D01*
X38166Y26508D01*
X38248Y26444D01*
X38344Y26405D01*
X38448Y26391D01*
X38551Y26405D01*
X38647Y26444D01*
X38730Y26508D01*
X38793Y26590D01*
X38833Y26687D01*
X38846Y26790D01*
X38833Y26893D01*
X38793Y26989D01*
X38730Y27072D01*
X38647Y27135D01*
X38551Y27175D01*
X38448Y27188D01*
D02*
G37*
G36*
X38843Y26185D02*
X38498D01*
Y25840D01*
X38843D01*
Y26185D01*
D02*
G37*
G36*
X38398D02*
X38052D01*
Y25840D01*
X38398D01*
Y26185D01*
D02*
G37*
%LPD*%
G36*
X57297Y25260D02*
X57301Y25256D01*
X57282Y25210D01*
X44747D01*
Y27489D01*
X44797Y27510D01*
X57297D01*
Y25260D01*
D02*
G37*
%LPC*%
G36*
X51441Y25740D02*
X51096D01*
Y25394D01*
X51441D01*
Y25740D01*
D02*
G37*
G36*
X50996D02*
X50651D01*
Y25394D01*
X50996D01*
Y25740D01*
D02*
G37*
G36*
X51046Y27188D02*
X50943Y27175D01*
X50847Y27135D01*
X50764Y27072D01*
X50701Y26989D01*
X50661Y26893D01*
X50647Y26790D01*
X50661Y26687D01*
X50701Y26590D01*
X50764Y26508D01*
X50847Y26444D01*
X50943Y26405D01*
X51046Y26391D01*
X51149Y26405D01*
X51245Y26444D01*
X51328Y26508D01*
X51391Y26590D01*
X51431Y26687D01*
X51445Y26790D01*
X51431Y26893D01*
X51391Y26989D01*
X51328Y27072D01*
X51245Y27135D01*
X51149Y27175D01*
X51046Y27188D01*
D02*
G37*
G36*
X51441Y26185D02*
X51096D01*
Y25840D01*
X51441D01*
Y26185D01*
D02*
G37*
G36*
X50996D02*
X50651D01*
Y25840D01*
X50996D01*
Y26185D01*
D02*
G37*
%LPD*%
G36*
X32100Y27622D02*
X32104Y27618D01*
X32085Y27572D01*
X19550D01*
Y29851D01*
X19600Y29872D01*
X32100D01*
Y27622D01*
D02*
G37*
%LPC*%
G36*
X26244Y28102D02*
X25899D01*
Y27757D01*
X26244D01*
Y28102D01*
D02*
G37*
G36*
X25799D02*
X25454D01*
Y27757D01*
X25799D01*
Y28102D01*
D02*
G37*
G36*
X25849Y29551D02*
X25746Y29537D01*
X25650Y29497D01*
X25567Y29434D01*
X25504Y29351D01*
X25464Y29255D01*
X25451Y29152D01*
X25464Y29049D01*
X25504Y28953D01*
X25567Y28870D01*
X25650Y28807D01*
X25746Y28767D01*
X25849Y28753D01*
X25952Y28767D01*
X26049Y28807D01*
X26131Y28870D01*
X26194Y28953D01*
X26234Y29049D01*
X26248Y29152D01*
X26234Y29255D01*
X26194Y29351D01*
X26131Y29434D01*
X26049Y29497D01*
X25952Y29537D01*
X25849Y29551D01*
D02*
G37*
G36*
X26244Y28547D02*
X25899D01*
Y28202D01*
X26244D01*
Y28547D01*
D02*
G37*
G36*
X25799D02*
X25454D01*
Y28202D01*
X25799D01*
Y28547D01*
D02*
G37*
%LPD*%
G36*
X44698Y27622D02*
X44702Y27618D01*
X44683Y27572D01*
X32148D01*
Y29851D01*
X32198Y29872D01*
X44698D01*
Y27622D01*
D02*
G37*
%LPC*%
G36*
X38843Y28102D02*
X38498D01*
Y27757D01*
X38843D01*
Y28102D01*
D02*
G37*
G36*
X38398D02*
X38052D01*
Y27757D01*
X38398D01*
Y28102D01*
D02*
G37*
G36*
X38448Y29551D02*
X38344Y29537D01*
X38248Y29497D01*
X38166Y29434D01*
X38102Y29351D01*
X38063Y29255D01*
X38049Y29152D01*
X38063Y29049D01*
X38102Y28953D01*
X38166Y28870D01*
X38248Y28807D01*
X38344Y28767D01*
X38448Y28753D01*
X38551Y28767D01*
X38647Y28807D01*
X38730Y28870D01*
X38793Y28953D01*
X38833Y29049D01*
X38846Y29152D01*
X38833Y29255D01*
X38793Y29351D01*
X38730Y29434D01*
X38647Y29497D01*
X38551Y29537D01*
X38448Y29551D01*
D02*
G37*
G36*
X38843Y28547D02*
X38498D01*
Y28202D01*
X38843D01*
Y28547D01*
D02*
G37*
G36*
X38398D02*
X38052D01*
Y28202D01*
X38398D01*
Y28547D01*
D02*
G37*
%LPD*%
G36*
X57297Y27622D02*
X57301Y27618D01*
X57282Y27572D01*
X44747D01*
Y29851D01*
X44797Y29872D01*
X57297D01*
Y27622D01*
D02*
G37*
%LPC*%
G36*
X51441Y28102D02*
X51096D01*
Y27757D01*
X51441D01*
Y28102D01*
D02*
G37*
G36*
X50996D02*
X50651D01*
Y27757D01*
X50996D01*
Y28102D01*
D02*
G37*
G36*
X51046Y29551D02*
X50943Y29537D01*
X50847Y29497D01*
X50764Y29434D01*
X50701Y29351D01*
X50661Y29255D01*
X50647Y29152D01*
X50661Y29049D01*
X50701Y28953D01*
X50764Y28870D01*
X50847Y28807D01*
X50943Y28767D01*
X51046Y28753D01*
X51149Y28767D01*
X51245Y28807D01*
X51328Y28870D01*
X51391Y28953D01*
X51431Y29049D01*
X51445Y29152D01*
X51431Y29255D01*
X51391Y29351D01*
X51328Y29434D01*
X51245Y29497D01*
X51149Y29537D01*
X51046Y29551D01*
D02*
G37*
G36*
X51441Y28547D02*
X51096D01*
Y28202D01*
X51441D01*
Y28547D01*
D02*
G37*
G36*
X50996D02*
X50651D01*
Y28202D01*
X50996D01*
Y28547D01*
D02*
G37*
%LPD*%
G36*
X32100Y29984D02*
X32104Y29980D01*
X32085Y29934D01*
X19550D01*
Y32214D01*
X19600Y32234D01*
X32100D01*
Y29984D01*
D02*
G37*
%LPC*%
G36*
X26244Y30464D02*
X25899D01*
Y30119D01*
X26244D01*
Y30464D01*
D02*
G37*
G36*
X25799D02*
X25454D01*
Y30119D01*
X25799D01*
Y30464D01*
D02*
G37*
G36*
X25849Y31913D02*
X25746Y31899D01*
X25650Y31859D01*
X25567Y31796D01*
X25504Y31714D01*
X25464Y31617D01*
X25451Y31514D01*
X25464Y31411D01*
X25504Y31315D01*
X25567Y31232D01*
X25650Y31169D01*
X25746Y31129D01*
X25849Y31115D01*
X25952Y31129D01*
X26049Y31169D01*
X26131Y31232D01*
X26194Y31315D01*
X26234Y31411D01*
X26248Y31514D01*
X26234Y31617D01*
X26194Y31714D01*
X26131Y31796D01*
X26049Y31859D01*
X25952Y31899D01*
X25849Y31913D01*
D02*
G37*
G36*
X26244Y30909D02*
X25899D01*
Y30564D01*
X26244D01*
Y30909D01*
D02*
G37*
G36*
X25799D02*
X25454D01*
Y30564D01*
X25799D01*
Y30909D01*
D02*
G37*
%LPD*%
G36*
X44698Y29984D02*
X44702Y29980D01*
X44683Y29934D01*
X32148D01*
Y32214D01*
X32198Y32234D01*
X44698D01*
Y29984D01*
D02*
G37*
%LPC*%
G36*
X38843Y30464D02*
X38498D01*
Y30119D01*
X38843D01*
Y30464D01*
D02*
G37*
G36*
X38398D02*
X38052D01*
Y30119D01*
X38398D01*
Y30464D01*
D02*
G37*
G36*
X38448Y31913D02*
X38344Y31899D01*
X38248Y31859D01*
X38166Y31796D01*
X38102Y31714D01*
X38063Y31617D01*
X38049Y31514D01*
X38063Y31411D01*
X38102Y31315D01*
X38166Y31232D01*
X38248Y31169D01*
X38344Y31129D01*
X38448Y31115D01*
X38551Y31129D01*
X38647Y31169D01*
X38730Y31232D01*
X38793Y31315D01*
X38833Y31411D01*
X38846Y31514D01*
X38833Y31617D01*
X38793Y31714D01*
X38730Y31796D01*
X38647Y31859D01*
X38551Y31899D01*
X38448Y31913D01*
D02*
G37*
G36*
X38843Y30909D02*
X38498D01*
Y30564D01*
X38843D01*
Y30909D01*
D02*
G37*
G36*
X38398D02*
X38052D01*
Y30564D01*
X38398D01*
Y30909D01*
D02*
G37*
%LPD*%
G36*
X57297Y29984D02*
X57301Y29980D01*
X57282Y29934D01*
X44747D01*
Y32214D01*
X44797Y32234D01*
X57297D01*
Y29984D01*
D02*
G37*
%LPC*%
G36*
X51441Y30464D02*
X51096D01*
Y30119D01*
X51441D01*
Y30464D01*
D02*
G37*
G36*
X50996D02*
X50651D01*
Y30119D01*
X50996D01*
Y30464D01*
D02*
G37*
G36*
X51046Y31913D02*
X50943Y31899D01*
X50847Y31859D01*
X50764Y31796D01*
X50701Y31714D01*
X50661Y31617D01*
X50647Y31514D01*
X50661Y31411D01*
X50701Y31315D01*
X50764Y31232D01*
X50847Y31169D01*
X50943Y31129D01*
X51046Y31115D01*
X51149Y31129D01*
X51245Y31169D01*
X51328Y31232D01*
X51391Y31315D01*
X51431Y31411D01*
X51445Y31514D01*
X51431Y31617D01*
X51391Y31714D01*
X51328Y31796D01*
X51245Y31859D01*
X51149Y31899D01*
X51046Y31913D01*
D02*
G37*
G36*
X51441Y30909D02*
X51096D01*
Y30564D01*
X51441D01*
Y30909D01*
D02*
G37*
G36*
X50996D02*
X50651D01*
Y30564D01*
X50996D01*
Y30909D01*
D02*
G37*
%LPD*%
G36*
X32100Y32346D02*
X32104Y32343D01*
X32085Y32296D01*
X19550D01*
Y34576D01*
X19600Y34596D01*
X32100D01*
Y32346D01*
D02*
G37*
%LPC*%
G36*
X26244Y32826D02*
X25899D01*
Y32481D01*
X26244D01*
Y32826D01*
D02*
G37*
G36*
X25799D02*
X25454D01*
Y32481D01*
X25799D01*
Y32826D01*
D02*
G37*
G36*
X25849Y34275D02*
X25746Y34261D01*
X25650Y34222D01*
X25567Y34158D01*
X25504Y34076D01*
X25464Y33980D01*
X25451Y33876D01*
X25464Y33773D01*
X25504Y33677D01*
X25567Y33594D01*
X25650Y33531D01*
X25746Y33491D01*
X25849Y33478D01*
X25952Y33491D01*
X26049Y33531D01*
X26131Y33594D01*
X26194Y33677D01*
X26234Y33773D01*
X26248Y33876D01*
X26234Y33980D01*
X26194Y34076D01*
X26131Y34158D01*
X26049Y34222D01*
X25952Y34261D01*
X25849Y34275D01*
D02*
G37*
G36*
X26244Y33272D02*
X25899D01*
Y32926D01*
X26244D01*
Y33272D01*
D02*
G37*
G36*
X25799D02*
X25454D01*
Y32926D01*
X25799D01*
Y33272D01*
D02*
G37*
%LPD*%
G36*
X44698Y32346D02*
X44702Y32343D01*
X44683Y32296D01*
X32148D01*
Y34576D01*
X32198Y34596D01*
X44698D01*
Y32346D01*
D02*
G37*
%LPC*%
G36*
X38843Y32826D02*
X38498D01*
Y32481D01*
X38843D01*
Y32826D01*
D02*
G37*
G36*
X38398D02*
X38052D01*
Y32481D01*
X38398D01*
Y32826D01*
D02*
G37*
G36*
X38448Y34275D02*
X38344Y34261D01*
X38248Y34222D01*
X38166Y34158D01*
X38102Y34076D01*
X38063Y33980D01*
X38049Y33876D01*
X38063Y33773D01*
X38102Y33677D01*
X38166Y33594D01*
X38248Y33531D01*
X38344Y33491D01*
X38448Y33478D01*
X38551Y33491D01*
X38647Y33531D01*
X38730Y33594D01*
X38793Y33677D01*
X38833Y33773D01*
X38846Y33876D01*
X38833Y33980D01*
X38793Y34076D01*
X38730Y34158D01*
X38647Y34222D01*
X38551Y34261D01*
X38448Y34275D01*
D02*
G37*
G36*
X38843Y33272D02*
X38498D01*
Y32926D01*
X38843D01*
Y33272D01*
D02*
G37*
G36*
X38398D02*
X38052D01*
Y32926D01*
X38398D01*
Y33272D01*
D02*
G37*
%LPD*%
G36*
X57297Y32346D02*
X57301Y32343D01*
X57282Y32296D01*
X44747D01*
Y34576D01*
X44797Y34596D01*
X57297D01*
Y32346D01*
D02*
G37*
%LPC*%
G36*
X51441Y32826D02*
X51096D01*
Y32481D01*
X51441D01*
Y32826D01*
D02*
G37*
G36*
X50996D02*
X50651D01*
Y32481D01*
X50996D01*
Y32826D01*
D02*
G37*
G36*
X51046Y34275D02*
X50943Y34261D01*
X50847Y34222D01*
X50764Y34158D01*
X50701Y34076D01*
X50661Y33980D01*
X50647Y33876D01*
X50661Y33773D01*
X50701Y33677D01*
X50764Y33594D01*
X50847Y33531D01*
X50943Y33491D01*
X51046Y33478D01*
X51149Y33491D01*
X51245Y33531D01*
X51328Y33594D01*
X51391Y33677D01*
X51431Y33773D01*
X51445Y33876D01*
X51431Y33980D01*
X51391Y34076D01*
X51328Y34158D01*
X51245Y34222D01*
X51149Y34261D01*
X51046Y34275D01*
D02*
G37*
G36*
X51441Y33272D02*
X51096D01*
Y32926D01*
X51441D01*
Y33272D01*
D02*
G37*
G36*
X50996D02*
X50651D01*
Y32926D01*
X50996D01*
Y33272D01*
D02*
G37*
%LPD*%
G36*
X32100Y34709D02*
X32104Y34705D01*
X32085Y34659D01*
X19550D01*
Y36938D01*
X19600Y36959D01*
X32100D01*
Y34709D01*
D02*
G37*
%LPC*%
G36*
X26244Y35189D02*
X25899D01*
Y34843D01*
X26244D01*
Y35189D01*
D02*
G37*
G36*
X25799D02*
X25454D01*
Y34843D01*
X25799D01*
Y35189D01*
D02*
G37*
G36*
X25849Y36637D02*
X25746Y36624D01*
X25650Y36584D01*
X25567Y36521D01*
X25504Y36438D01*
X25464Y36342D01*
X25451Y36239D01*
X25464Y36135D01*
X25504Y36039D01*
X25567Y35957D01*
X25650Y35893D01*
X25746Y35853D01*
X25849Y35840D01*
X25952Y35853D01*
X26049Y35893D01*
X26131Y35957D01*
X26194Y36039D01*
X26234Y36135D01*
X26248Y36239D01*
X26234Y36342D01*
X26194Y36438D01*
X26131Y36521D01*
X26049Y36584D01*
X25952Y36624D01*
X25849Y36637D01*
D02*
G37*
G36*
X26244Y35634D02*
X25899D01*
Y35289D01*
X26244D01*
Y35634D01*
D02*
G37*
G36*
X25799D02*
X25454D01*
Y35289D01*
X25799D01*
Y35634D01*
D02*
G37*
%LPD*%
G36*
X44698Y34709D02*
X44702Y34705D01*
X44683Y34659D01*
X32148D01*
Y36938D01*
X32198Y36959D01*
X44698D01*
Y34709D01*
D02*
G37*
%LPC*%
G36*
X38843Y35189D02*
X38498D01*
Y34843D01*
X38843D01*
Y35189D01*
D02*
G37*
G36*
X38398D02*
X38052D01*
Y34843D01*
X38398D01*
Y35189D01*
D02*
G37*
G36*
X38448Y36637D02*
X38344Y36624D01*
X38248Y36584D01*
X38166Y36521D01*
X38102Y36438D01*
X38063Y36342D01*
X38049Y36239D01*
X38063Y36135D01*
X38102Y36039D01*
X38166Y35957D01*
X38248Y35893D01*
X38344Y35853D01*
X38448Y35840D01*
X38551Y35853D01*
X38647Y35893D01*
X38730Y35957D01*
X38793Y36039D01*
X38833Y36135D01*
X38846Y36239D01*
X38833Y36342D01*
X38793Y36438D01*
X38730Y36521D01*
X38647Y36584D01*
X38551Y36624D01*
X38448Y36637D01*
D02*
G37*
G36*
X38843Y35634D02*
X38498D01*
Y35289D01*
X38843D01*
Y35634D01*
D02*
G37*
G36*
X38398D02*
X38052D01*
Y35289D01*
X38398D01*
Y35634D01*
D02*
G37*
%LPD*%
G36*
X57297Y34709D02*
X57301Y34705D01*
X57282Y34659D01*
X44747D01*
Y36938D01*
X44797Y36959D01*
X57297D01*
Y34709D01*
D02*
G37*
%LPC*%
G36*
X51441Y35189D02*
X51096D01*
Y34843D01*
X51441D01*
Y35189D01*
D02*
G37*
G36*
X50996D02*
X50651D01*
Y34843D01*
X50996D01*
Y35189D01*
D02*
G37*
G36*
X51046Y36637D02*
X50943Y36624D01*
X50847Y36584D01*
X50764Y36521D01*
X50701Y36438D01*
X50661Y36342D01*
X50647Y36239D01*
X50661Y36135D01*
X50701Y36039D01*
X50764Y35957D01*
X50847Y35893D01*
X50943Y35853D01*
X51046Y35840D01*
X51149Y35853D01*
X51245Y35893D01*
X51328Y35957D01*
X51391Y36039D01*
X51431Y36135D01*
X51445Y36239D01*
X51431Y36342D01*
X51391Y36438D01*
X51328Y36521D01*
X51245Y36584D01*
X51149Y36624D01*
X51046Y36637D01*
D02*
G37*
G36*
X51441Y35634D02*
X51096D01*
Y35289D01*
X51441D01*
Y35634D01*
D02*
G37*
G36*
X50996D02*
X50651D01*
Y35289D01*
X50996D01*
Y35634D01*
D02*
G37*
%LPD*%
G36*
X32100Y37071D02*
X32104Y37067D01*
X32085Y37021D01*
X19550D01*
Y39300D01*
X19600Y39321D01*
X32100D01*
Y37071D01*
D02*
G37*
%LPC*%
G36*
X26244Y37551D02*
X25899D01*
Y37206D01*
X26244D01*
Y37551D01*
D02*
G37*
G36*
X25799D02*
X25454D01*
Y37206D01*
X25799D01*
Y37551D01*
D02*
G37*
G36*
X25849Y38999D02*
X25746Y38986D01*
X25650Y38946D01*
X25567Y38883D01*
X25504Y38800D01*
X25464Y38704D01*
X25451Y38601D01*
X25464Y38498D01*
X25504Y38401D01*
X25567Y38319D01*
X25650Y38256D01*
X25746Y38216D01*
X25849Y38202D01*
X25952Y38216D01*
X26049Y38256D01*
X26131Y38319D01*
X26194Y38401D01*
X26234Y38498D01*
X26248Y38601D01*
X26234Y38704D01*
X26194Y38800D01*
X26131Y38883D01*
X26049Y38946D01*
X25952Y38986D01*
X25849Y38999D01*
D02*
G37*
G36*
X26244Y37996D02*
X25899D01*
Y37651D01*
X26244D01*
Y37996D01*
D02*
G37*
G36*
X25799D02*
X25454D01*
Y37651D01*
X25799D01*
Y37996D01*
D02*
G37*
%LPD*%
G36*
X44698Y37071D02*
X44702Y37067D01*
X44683Y37021D01*
X32148D01*
Y39300D01*
X32198Y39321D01*
X44698D01*
Y37071D01*
D02*
G37*
%LPC*%
G36*
X38843Y37551D02*
X38498D01*
Y37206D01*
X38843D01*
Y37551D01*
D02*
G37*
G36*
X38398D02*
X38052D01*
Y37206D01*
X38398D01*
Y37551D01*
D02*
G37*
G36*
X38448Y38999D02*
X38344Y38986D01*
X38248Y38946D01*
X38166Y38883D01*
X38102Y38800D01*
X38063Y38704D01*
X38049Y38601D01*
X38063Y38498D01*
X38102Y38401D01*
X38166Y38319D01*
X38248Y38256D01*
X38344Y38216D01*
X38448Y38202D01*
X38551Y38216D01*
X38647Y38256D01*
X38730Y38319D01*
X38793Y38401D01*
X38833Y38498D01*
X38846Y38601D01*
X38833Y38704D01*
X38793Y38800D01*
X38730Y38883D01*
X38647Y38946D01*
X38551Y38986D01*
X38448Y38999D01*
D02*
G37*
G36*
X38843Y37996D02*
X38498D01*
Y37651D01*
X38843D01*
Y37996D01*
D02*
G37*
G36*
X38398D02*
X38052D01*
Y37651D01*
X38398D01*
Y37996D01*
D02*
G37*
%LPD*%
G36*
X57297Y37071D02*
X57301Y37067D01*
X57282Y37021D01*
X44747D01*
Y39300D01*
X44797Y39321D01*
X57297D01*
Y37071D01*
D02*
G37*
%LPC*%
G36*
X51441Y37551D02*
X51096D01*
Y37206D01*
X51441D01*
Y37551D01*
D02*
G37*
G36*
X50996D02*
X50651D01*
Y37206D01*
X50996D01*
Y37551D01*
D02*
G37*
G36*
X51046Y38999D02*
X50943Y38986D01*
X50847Y38946D01*
X50764Y38883D01*
X50701Y38800D01*
X50661Y38704D01*
X50647Y38601D01*
X50661Y38498D01*
X50701Y38401D01*
X50764Y38319D01*
X50847Y38256D01*
X50943Y38216D01*
X51046Y38202D01*
X51149Y38216D01*
X51245Y38256D01*
X51328Y38319D01*
X51391Y38401D01*
X51431Y38498D01*
X51445Y38601D01*
X51431Y38704D01*
X51391Y38800D01*
X51328Y38883D01*
X51245Y38946D01*
X51149Y38986D01*
X51046Y38999D01*
D02*
G37*
G36*
X51441Y37996D02*
X51096D01*
Y37651D01*
X51441D01*
Y37996D01*
D02*
G37*
G36*
X50996D02*
X50651D01*
Y37651D01*
X50996D01*
Y37996D01*
D02*
G37*
%LPD*%
G36*
X32100Y39433D02*
X32104Y39429D01*
X32085Y39383D01*
X19550D01*
Y41662D01*
X19600Y41683D01*
X32100D01*
Y39433D01*
D02*
G37*
%LPC*%
G36*
X26244Y39913D02*
X25899D01*
Y39568D01*
X26244D01*
Y39913D01*
D02*
G37*
G36*
X25799D02*
X25454D01*
Y39568D01*
X25799D01*
Y39913D01*
D02*
G37*
G36*
X25849Y41362D02*
X25746Y41348D01*
X25650Y41308D01*
X25567Y41245D01*
X25504Y41162D01*
X25464Y41066D01*
X25451Y40963D01*
X25464Y40860D01*
X25504Y40764D01*
X25567Y40681D01*
X25650Y40618D01*
X25746Y40578D01*
X25849Y40564D01*
X25952Y40578D01*
X26049Y40618D01*
X26131Y40681D01*
X26194Y40764D01*
X26234Y40860D01*
X26248Y40963D01*
X26234Y41066D01*
X26194Y41162D01*
X26131Y41245D01*
X26049Y41308D01*
X25952Y41348D01*
X25849Y41362D01*
D02*
G37*
G36*
X26244Y40358D02*
X25899D01*
Y40013D01*
X26244D01*
Y40358D01*
D02*
G37*
G36*
X25799D02*
X25454D01*
Y40013D01*
X25799D01*
Y40358D01*
D02*
G37*
%LPD*%
G36*
X44698Y39433D02*
X44702Y39429D01*
X44683Y39383D01*
X32148D01*
Y41662D01*
X32198Y41683D01*
X44698D01*
Y39433D01*
D02*
G37*
%LPC*%
G36*
X38843Y39913D02*
X38498D01*
Y39568D01*
X38843D01*
Y39913D01*
D02*
G37*
G36*
X38398D02*
X38052D01*
Y39568D01*
X38398D01*
Y39913D01*
D02*
G37*
G36*
X38448Y41362D02*
X38344Y41348D01*
X38248Y41308D01*
X38166Y41245D01*
X38102Y41162D01*
X38063Y41066D01*
X38049Y40963D01*
X38063Y40860D01*
X38102Y40764D01*
X38166Y40681D01*
X38248Y40618D01*
X38344Y40578D01*
X38448Y40564D01*
X38551Y40578D01*
X38647Y40618D01*
X38730Y40681D01*
X38793Y40764D01*
X38833Y40860D01*
X38846Y40963D01*
X38833Y41066D01*
X38793Y41162D01*
X38730Y41245D01*
X38647Y41308D01*
X38551Y41348D01*
X38448Y41362D01*
D02*
G37*
G36*
X38843Y40358D02*
X38498D01*
Y40013D01*
X38843D01*
Y40358D01*
D02*
G37*
G36*
X38398D02*
X38052D01*
Y40013D01*
X38398D01*
Y40358D01*
D02*
G37*
%LPD*%
G36*
X57297Y39433D02*
X57301Y39429D01*
X57282Y39383D01*
X44747D01*
Y41662D01*
X44797Y41683D01*
X57297D01*
Y39433D01*
D02*
G37*
%LPC*%
G36*
X51441Y39913D02*
X51096D01*
Y39568D01*
X51441D01*
Y39913D01*
D02*
G37*
G36*
X50996D02*
X50651D01*
Y39568D01*
X50996D01*
Y39913D01*
D02*
G37*
G36*
X51046Y41362D02*
X50943Y41348D01*
X50847Y41308D01*
X50764Y41245D01*
X50701Y41162D01*
X50661Y41066D01*
X50647Y40963D01*
X50661Y40860D01*
X50701Y40764D01*
X50764Y40681D01*
X50847Y40618D01*
X50943Y40578D01*
X51046Y40564D01*
X51149Y40578D01*
X51245Y40618D01*
X51328Y40681D01*
X51391Y40764D01*
X51431Y40860D01*
X51445Y40963D01*
X51431Y41066D01*
X51391Y41162D01*
X51328Y41245D01*
X51245Y41308D01*
X51149Y41348D01*
X51046Y41362D01*
D02*
G37*
G36*
X51441Y40358D02*
X51096D01*
Y40013D01*
X51441D01*
Y40358D01*
D02*
G37*
G36*
X50996D02*
X50651D01*
Y40013D01*
X50996D01*
Y40358D01*
D02*
G37*
%LPD*%
D13*
X19550Y3900D02*
Y41700D01*
X57350D01*
Y3900D02*
Y41700D01*
X19550Y3900D02*
X57350D01*
X19550D02*
Y6262D01*
X32148D01*
X19550Y3900D02*
X32148D01*
Y6262D01*
Y3900D02*
Y6262D01*
X44747D01*
X32148Y3900D02*
X44747D01*
Y6262D01*
Y3900D02*
Y6262D01*
X57345D01*
X44747Y3900D02*
X57345D01*
Y6262D01*
X19550D02*
Y8624D01*
X32148D01*
X19550Y6262D02*
X32148D01*
Y8624D01*
Y6262D02*
Y8624D01*
X44747D01*
X32148Y6262D02*
X44747D01*
Y8624D01*
Y6262D02*
Y8624D01*
X57345D01*
X44747Y6262D02*
X57345D01*
Y8624D01*
X19550D02*
Y10987D01*
X32148D01*
X19550Y8624D02*
X32148D01*
Y10987D01*
Y8624D02*
Y10987D01*
X44747D01*
X32148Y8624D02*
X44747D01*
Y10987D01*
Y8624D02*
Y10987D01*
X57345D01*
X44747Y8624D02*
X57345D01*
Y10987D01*
X19550D02*
Y13349D01*
X32148D01*
X19550Y10987D02*
X32148D01*
Y13349D01*
Y10987D02*
Y13349D01*
X44747D01*
X32148Y10987D02*
X44747D01*
Y13349D01*
Y10987D02*
Y13349D01*
X57345D01*
X44747Y10987D02*
X57345D01*
Y13349D01*
X19550D02*
Y15711D01*
X32148D01*
X19550Y13349D02*
X32148D01*
Y15711D01*
Y13349D02*
Y15711D01*
X44747D01*
X32148Y13349D02*
X44747D01*
Y15711D01*
Y13349D02*
Y15711D01*
X57345D01*
X44747Y13349D02*
X57345D01*
Y15711D01*
X19550D02*
Y18073D01*
X32148D01*
X19550Y15711D02*
X32148D01*
Y18073D01*
Y15711D02*
Y18073D01*
X44747D01*
X32148Y15711D02*
X44747D01*
Y18073D01*
Y15711D02*
Y18073D01*
X57345D01*
X44747Y15711D02*
X57345D01*
Y18073D01*
X19550D02*
Y20435D01*
X32148D01*
X19550Y18073D02*
X32148D01*
Y20435D01*
Y18073D02*
Y20435D01*
X44747D01*
X32148Y18073D02*
X44747D01*
Y20435D01*
Y18073D02*
Y20435D01*
X57345D01*
X44747Y18073D02*
X57345D01*
Y20435D01*
X19550D02*
Y22798D01*
X32148D01*
X19550Y20435D02*
X32148D01*
Y22798D01*
Y20435D02*
Y22798D01*
X44747D01*
X32148Y20435D02*
X44747D01*
Y22798D01*
Y20435D02*
Y22798D01*
X57345D01*
X44747Y20435D02*
X57345D01*
Y22798D01*
X19550D02*
Y25160D01*
X32148D01*
X19550Y22798D02*
X32148D01*
Y25160D01*
Y22798D02*
Y25160D01*
X44747D01*
X32148Y22798D02*
X44747D01*
Y25160D01*
Y22798D02*
Y25160D01*
X57345D01*
X44747Y22798D02*
X57345D01*
Y25160D01*
X19550D02*
Y27522D01*
X32148D01*
X19550Y25160D02*
X32148D01*
Y27522D01*
Y25160D02*
Y27522D01*
X44747D01*
X32148Y25160D02*
X44747D01*
Y27522D01*
Y25160D02*
Y27522D01*
X57345D01*
X44747Y25160D02*
X57345D01*
Y27522D01*
X19550D02*
Y29884D01*
X32148D01*
X19550Y27522D02*
X32148D01*
Y29884D01*
Y27522D02*
Y29884D01*
X44747D01*
X32148Y27522D02*
X44747D01*
Y29884D01*
Y27522D02*
Y29884D01*
X57345D01*
X44747Y27522D02*
X57345D01*
Y29884D01*
X19550D02*
Y32246D01*
X32148D01*
X19550Y29884D02*
X32148D01*
Y32246D01*
Y29884D02*
Y32246D01*
X44747D01*
X32148Y29884D02*
X44747D01*
Y32246D01*
Y29884D02*
Y32246D01*
X57345D01*
X44747Y29884D02*
X57345D01*
Y32246D01*
X19550D02*
Y34609D01*
X32148D01*
X19550Y32246D02*
X32148D01*
Y34609D01*
Y32246D02*
Y34609D01*
X44747D01*
X32148Y32246D02*
X44747D01*
Y34609D01*
Y32246D02*
Y34609D01*
X57345D01*
X44747Y32246D02*
X57345D01*
Y34609D01*
X19550D02*
Y36971D01*
X32148D01*
X19550Y34609D02*
X32148D01*
Y36971D01*
Y34609D02*
Y36971D01*
X44747D01*
X32148Y34609D02*
X44747D01*
Y36971D01*
Y34609D02*
Y36971D01*
X57345D01*
X44747Y34609D02*
X57345D01*
Y36971D01*
X19550D02*
Y39333D01*
X32148D01*
X19550Y36971D02*
X32148D01*
Y39333D01*
Y36971D02*
Y39333D01*
X44747D01*
X32148Y36971D02*
X44747D01*
Y39333D01*
Y36971D02*
Y39333D01*
X57345D01*
X44747Y36971D02*
X57345D01*
Y39333D01*
X19550D02*
Y41695D01*
X32148D01*
X19550Y39333D02*
X32148D01*
Y41695D01*
Y39333D02*
Y41695D01*
X44747D01*
X32148Y39333D02*
X44747D01*
Y41695D01*
Y39333D02*
Y41695D01*
X57345D01*
X44747Y39333D02*
X57345D01*
Y41695D01*
D14*
X25849Y5530D02*
D03*
X38448D02*
D03*
X51046D02*
D03*
X25849Y7892D02*
D03*
X38448D02*
D03*
X51046D02*
D03*
X25849Y10254D02*
D03*
X38448D02*
D03*
X51046D02*
D03*
X25849Y12617D02*
D03*
X38448D02*
D03*
X51046D02*
D03*
X25849Y14979D02*
D03*
X38448D02*
D03*
X51046D02*
D03*
X25849Y17341D02*
D03*
X38448D02*
D03*
X51046D02*
D03*
X25849Y19703D02*
D03*
X38448D02*
D03*
X51046D02*
D03*
X25849Y22065D02*
D03*
X38448D02*
D03*
X51046D02*
D03*
X25849Y24428D02*
D03*
X38448D02*
D03*
X51046D02*
D03*
X25849Y26790D02*
D03*
X38448D02*
D03*
X51046D02*
D03*
X25849Y29152D02*
D03*
X38448D02*
D03*
X51046D02*
D03*
X25849Y31514D02*
D03*
X38448D02*
D03*
X51046D02*
D03*
X25849Y33876D02*
D03*
X38448D02*
D03*
X51046D02*
D03*
X25849Y36239D02*
D03*
X38448D02*
D03*
X51046D02*
D03*
X25849Y38601D02*
D03*
X38448D02*
D03*
X51046D02*
D03*
X25849Y40963D02*
D03*
X38448D02*
D03*
X51046D02*
D03*
D15*
X25849Y4530D02*
D03*
X38448D02*
D03*
X51046D02*
D03*
X25849Y6892D02*
D03*
X38448D02*
D03*
X51046D02*
D03*
X25849Y9254D02*
D03*
X38448D02*
D03*
X51046D02*
D03*
X25849Y11617D02*
D03*
X38448D02*
D03*
X51046D02*
D03*
X25849Y13979D02*
D03*
X38448D02*
D03*
X51046D02*
D03*
X25849Y16341D02*
D03*
X38448D02*
D03*
X51046D02*
D03*
X25849Y18703D02*
D03*
X38448D02*
D03*
X51046D02*
D03*
X25849Y21065D02*
D03*
X38448D02*
D03*
X51046D02*
D03*
X25849Y23428D02*
D03*
X38448D02*
D03*
X51046D02*
D03*
X25849Y25790D02*
D03*
X38448D02*
D03*
X51046D02*
D03*
X25849Y28152D02*
D03*
X38448D02*
D03*
X51046D02*
D03*
X25849Y30514D02*
D03*
X38448D02*
D03*
X51046D02*
D03*
X25849Y32876D02*
D03*
X38448D02*
D03*
X51046D02*
D03*
X25849Y35239D02*
D03*
X38448D02*
D03*
X51046D02*
D03*
X25849Y37601D02*
D03*
X38448D02*
D03*
X51046D02*
D03*
X25849Y39963D02*
D03*
X38448D02*
D03*
X51046D02*
D03*
M02*
