G04 Layer_Color=8388736*
%FSLAX24Y24*%
%MOIN*%
G70*
G01*
G75*
%ADD10C,0.0100*%
%ADD24R,0.0513X0.0651*%
%ADD25R,0.0651X0.0513*%
%ADD26R,0.0867X0.0552*%
%ADD27O,0.0867X0.0552*%
%ADD28O,0.1261X0.1064*%
%ADD29O,0.1064X0.0867*%
%ADD30C,0.0434*%
%ADD31C,0.1064*%
D10*
X54146Y11500D02*
Y50870D01*
X22650D02*
X54146D01*
X22650Y11500D02*
Y50870D01*
Y19374D02*
X54146D01*
X22650Y11500D02*
X54146D01*
Y19374D01*
X22650Y11500D02*
Y19374D01*
Y27248D02*
X54146D01*
X22650Y19374D02*
X54146D01*
Y27248D01*
X22650Y19374D02*
Y27248D01*
Y35122D02*
X54146D01*
X22650Y27248D02*
X54146D01*
Y35122D01*
X22650Y27248D02*
Y35122D01*
Y42996D02*
X54146D01*
X22650Y35122D02*
X54146D01*
Y42996D01*
X22650Y35122D02*
Y42996D01*
Y50870D02*
X54146D01*
X22650Y42996D02*
X54146D01*
Y50870D01*
X22650Y42996D02*
Y50870D01*
D24*
X48906Y12081D02*
D03*
X49694D02*
D03*
X42406Y12031D02*
D03*
X43194D02*
D03*
X29144Y17981D02*
D03*
X28356D02*
D03*
Y12681D02*
D03*
X29144D02*
D03*
X48906Y19955D02*
D03*
X49694D02*
D03*
X42406Y19905D02*
D03*
X43194D02*
D03*
X29144Y25855D02*
D03*
X28356D02*
D03*
Y20555D02*
D03*
X29144D02*
D03*
X48906Y27829D02*
D03*
X49694D02*
D03*
X42406Y27779D02*
D03*
X43194D02*
D03*
X29144Y33729D02*
D03*
X28356D02*
D03*
Y28429D02*
D03*
X29144D02*
D03*
X48906Y35703D02*
D03*
X49694D02*
D03*
X42406Y35653D02*
D03*
X43194D02*
D03*
X29144Y41603D02*
D03*
X28356D02*
D03*
Y36303D02*
D03*
X29144D02*
D03*
X48906Y43577D02*
D03*
X49694D02*
D03*
X42406Y43527D02*
D03*
X43194D02*
D03*
X29144Y49477D02*
D03*
X28356D02*
D03*
Y44177D02*
D03*
X29144D02*
D03*
D25*
X25367Y14887D02*
D03*
Y15674D02*
D03*
X32100D02*
D03*
Y14887D02*
D03*
X25367Y22761D02*
D03*
Y23548D02*
D03*
X32100D02*
D03*
Y22761D02*
D03*
X25367Y30635D02*
D03*
Y31422D02*
D03*
X32100D02*
D03*
Y30635D02*
D03*
X25367Y38509D02*
D03*
Y39296D02*
D03*
X32100D02*
D03*
Y38509D02*
D03*
X25367Y46383D02*
D03*
Y47170D02*
D03*
X32100D02*
D03*
Y46383D02*
D03*
D26*
X35550Y17450D02*
D03*
Y25324D02*
D03*
Y33198D02*
D03*
Y41072D02*
D03*
Y48946D02*
D03*
D27*
Y16450D02*
D03*
Y15450D02*
D03*
Y14450D02*
D03*
Y13450D02*
D03*
X34550Y17450D02*
D03*
Y16450D02*
D03*
Y15450D02*
D03*
Y14450D02*
D03*
Y13450D02*
D03*
X35550Y24324D02*
D03*
Y23324D02*
D03*
Y22324D02*
D03*
Y21324D02*
D03*
X34550Y25324D02*
D03*
Y24324D02*
D03*
Y23324D02*
D03*
Y22324D02*
D03*
Y21324D02*
D03*
X35550Y32198D02*
D03*
Y31198D02*
D03*
Y30198D02*
D03*
Y29198D02*
D03*
X34550Y33198D02*
D03*
Y32198D02*
D03*
Y31198D02*
D03*
Y30198D02*
D03*
Y29198D02*
D03*
X35550Y40072D02*
D03*
Y39072D02*
D03*
Y38072D02*
D03*
Y37072D02*
D03*
X34550Y41072D02*
D03*
Y40072D02*
D03*
Y39072D02*
D03*
Y38072D02*
D03*
Y37072D02*
D03*
X35550Y47946D02*
D03*
Y46946D02*
D03*
Y45946D02*
D03*
Y44946D02*
D03*
X34550Y48946D02*
D03*
Y47946D02*
D03*
Y46946D02*
D03*
Y45946D02*
D03*
Y44946D02*
D03*
D28*
X50111Y16343D02*
D03*
Y14374D02*
D03*
X45189D02*
D03*
Y16343D02*
D03*
X43615D02*
D03*
Y14374D02*
D03*
X38693D02*
D03*
Y16343D02*
D03*
X50111Y24217D02*
D03*
Y22248D02*
D03*
X45189D02*
D03*
Y24217D02*
D03*
X43615D02*
D03*
Y22248D02*
D03*
X38693D02*
D03*
Y24217D02*
D03*
X50111Y32091D02*
D03*
Y30122D02*
D03*
X45189D02*
D03*
Y32091D02*
D03*
X43615D02*
D03*
Y30122D02*
D03*
X38693D02*
D03*
Y32091D02*
D03*
X50111Y39965D02*
D03*
Y37996D02*
D03*
X45189D02*
D03*
Y39965D02*
D03*
X43615D02*
D03*
Y37996D02*
D03*
X38693D02*
D03*
Y39965D02*
D03*
X50111Y47839D02*
D03*
Y45870D02*
D03*
X45189D02*
D03*
Y47839D02*
D03*
X43615D02*
D03*
Y45870D02*
D03*
X38693D02*
D03*
Y47839D02*
D03*
D29*
X30760Y16638D02*
D03*
Y15181D02*
D03*
Y14079D02*
D03*
X26705D02*
D03*
Y15181D02*
D03*
Y16638D02*
D03*
X30760Y24512D02*
D03*
Y23055D02*
D03*
Y21953D02*
D03*
X26705D02*
D03*
Y23055D02*
D03*
Y24512D02*
D03*
X30760Y32386D02*
D03*
Y30929D02*
D03*
Y29827D02*
D03*
X26705D02*
D03*
Y30929D02*
D03*
Y32386D02*
D03*
X30760Y40260D02*
D03*
Y38803D02*
D03*
Y37701D02*
D03*
X26705D02*
D03*
Y38803D02*
D03*
Y40260D02*
D03*
X30760Y48134D02*
D03*
Y46677D02*
D03*
Y45575D02*
D03*
X26705D02*
D03*
Y46677D02*
D03*
Y48134D02*
D03*
D30*
X24865Y14881D02*
D03*
X29681Y18019D02*
D03*
X27919Y12681D02*
D03*
X32450Y17750D02*
D03*
X48350Y12200D02*
D03*
X41887Y12550D02*
D03*
X39850Y12200D02*
D03*
X46450D02*
D03*
X48400Y18300D02*
D03*
X41950Y18350D02*
D03*
X32550Y12900D02*
D03*
X26650Y13250D02*
D03*
X23800Y15650D02*
D03*
X31600Y18000D02*
D03*
X32450Y16550D02*
D03*
X24865Y22755D02*
D03*
X29681Y25893D02*
D03*
X27919Y20555D02*
D03*
X32450Y25624D02*
D03*
X48350Y20074D02*
D03*
X41887Y20424D02*
D03*
X39850Y20074D02*
D03*
X46450D02*
D03*
X48400Y26174D02*
D03*
X41950Y26224D02*
D03*
X32550Y20774D02*
D03*
X26650Y21124D02*
D03*
X23800Y23524D02*
D03*
X31600Y25874D02*
D03*
X32450Y24424D02*
D03*
X24865Y30629D02*
D03*
X29681Y33767D02*
D03*
X27919Y28429D02*
D03*
X32450Y33498D02*
D03*
X48350Y27948D02*
D03*
X41887Y28298D02*
D03*
X39850Y27948D02*
D03*
X46450D02*
D03*
X48400Y34048D02*
D03*
X41950Y34098D02*
D03*
X32550Y28648D02*
D03*
X26650Y28998D02*
D03*
X23800Y31398D02*
D03*
X31600Y33748D02*
D03*
X32450Y32298D02*
D03*
X24865Y38503D02*
D03*
X29681Y41641D02*
D03*
X27919Y36303D02*
D03*
X32450Y41372D02*
D03*
X48350Y35822D02*
D03*
X41887Y36172D02*
D03*
X39850Y35822D02*
D03*
X46450D02*
D03*
X48400Y41922D02*
D03*
X41950Y41972D02*
D03*
X32550Y36522D02*
D03*
X26650Y36872D02*
D03*
X23800Y39272D02*
D03*
X31600Y41622D02*
D03*
X32450Y40172D02*
D03*
X24865Y46377D02*
D03*
X29681Y49515D02*
D03*
X27919Y44177D02*
D03*
X32450Y49246D02*
D03*
X48350Y43696D02*
D03*
X41887Y44046D02*
D03*
X39850Y43696D02*
D03*
X46450D02*
D03*
X48400Y49796D02*
D03*
X41950Y49846D02*
D03*
X32550Y44396D02*
D03*
X26650Y44746D02*
D03*
X23800Y47146D02*
D03*
X31600Y49496D02*
D03*
X32450Y48046D02*
D03*
D31*
X23437Y12287D02*
D03*
Y18587D02*
D03*
X53359Y12287D02*
D03*
Y18587D02*
D03*
X23437Y20161D02*
D03*
Y26461D02*
D03*
X53359Y20161D02*
D03*
Y26461D02*
D03*
X23437Y28035D02*
D03*
Y34335D02*
D03*
X53359Y28035D02*
D03*
Y34335D02*
D03*
X23437Y35909D02*
D03*
Y42209D02*
D03*
X53359Y35909D02*
D03*
Y42209D02*
D03*
X23437Y43783D02*
D03*
Y50083D02*
D03*
X53359Y43783D02*
D03*
Y50083D02*
D03*
M02*
