M48
;Layer_Color=9474304
;FILE_FORMAT=2:4
INCH,LZ
;TYPE=PLATED
T1F00S00C0.0157
T2F00S00C0.0276
T3F00S00C0.0472
T4F00S00C0.0787
%
T01
X024865Y014881
X02665Y01325
X027919Y012681
X03255Y0129
X03985Y0122
X041887Y01255
X04645Y0122
X04835
X0484Y0183
X04835Y020074
X0484Y026174
X04835Y027948
X04645
X041887Y028298
X04195Y026224
X03985Y027948
Y020074
X041887Y020424
X04195Y01835
X04645Y020074
X03255Y020774
X03245Y01775
X0316Y018
X03245Y01655
Y024424
Y025624
X0316Y025874
X03255Y028648
X027919Y028429
X02665Y028998
X024865Y030629
Y022755
X0238Y023524
X02665Y021124
X027919Y020555
X029681Y018019
Y025893
X0238Y01565
Y031398
Y039272
X024865Y038503
X02665Y036872
X027919Y036303
X029681Y033767
Y041641
X027919Y044177
X02665Y044746
X024865Y046377
X03255Y044396
X03245Y041372
X0316Y041622
X03245Y040172
X03255Y036522
X03245Y033498
X0316Y033748
X03245Y032298
X03985Y035822
X041887Y036172
X04195Y034098
X04645Y035822
Y043696
X041887Y044046
X04195Y041972
X03985Y043696
X04835
X0484Y041922
X04835Y035822
X0484Y034048
Y049796
X04195Y049846
X03245Y049246
X0316Y049496
X03245Y048046
X029681Y049515
X0238Y047146
T02
X03455Y01345
X03555
Y01445
Y01545
X03455
Y01445
Y01645
X03555
Y01745
X03455
Y021324
X03555
Y022324
Y023324
Y024324
Y025324
X03455
Y024324
Y023324
Y022324
Y029198
X03555
Y030198
Y031198
X03455
Y030198
Y032198
X03555
Y033198
X03455
Y037072
X03555
Y038072
Y039072
Y040072
Y041072
X03455
Y040072
Y039072
Y038072
Y044946
X03555
Y045946
X03455
Y046946
X03555
Y047946
Y048946
X03455
Y047946
T03
X026705Y014079
Y015181
X03076
Y014079
X038693Y014374
X043615
X045189
X050111
Y016343
Y022248
Y024217
Y030122
X045189
X043615
X038693
Y024217
Y022248
X043615
X045189
Y024217
X043615
Y016343
X045189
X038693
X03076Y016638
X026705
Y021953
Y023055
Y024512
X03076
Y023055
Y021953
Y029827
Y030929
X026705
Y029827
Y032386
X03076
Y037701
Y038803
Y04026
X026705
Y038803
Y037701
Y045575
Y046677
X03076
Y045575
X038693Y04587
X043615
X045189
Y039965
X043615
Y037996
X045189
Y032091
X043615
X038693
Y037996
Y039965
X050111
Y037996
Y032091
Y04587
Y047839
X045189
X043615
X038693
X03076Y048134
X026705
T04
X023437Y012287
X053359
Y018587
Y020161
Y026461
Y028035
X023437
Y026461
Y020161
Y018587
Y034335
Y035909
Y042209
Y043783
X053359
Y042209
Y035909
Y034335
Y050083
X023437
M30
