G04 Layer_Color=2752767*
%FSLAX24Y24*%
%MOIN*%
G70*
G01*
G75*
%ADD10C,0.0100*%
%ADD34C,0.0020*%
%ADD35C,0.0027*%
D10*
X54146Y11500D02*
Y50870D01*
X22650D02*
X54146D01*
X22650Y11500D02*
Y50870D01*
Y19374D02*
X54146D01*
X22650Y11500D02*
X54146D01*
Y19374D01*
X22650Y11500D02*
Y19374D01*
Y27248D02*
X54146D01*
X22650Y19374D02*
X54146D01*
Y27248D01*
X22650Y19374D02*
Y27248D01*
Y35122D02*
X54146D01*
X22650Y27248D02*
X54146D01*
Y35122D01*
X22650Y27248D02*
Y35122D01*
Y42996D02*
X54146D01*
X22650Y35122D02*
X54146D01*
Y42996D01*
X22650Y35122D02*
Y42996D01*
Y50870D02*
X54146D01*
X22650Y42996D02*
X54146D01*
Y50870D01*
X22650Y42996D02*
Y50870D01*
D34*
X35470Y17370D02*
Y17530D01*
X35630D01*
Y17370D01*
X35470D01*
Y16370D02*
Y16530D01*
X35630D01*
Y16370D01*
X35470D01*
Y15370D02*
Y15530D01*
X35630D01*
Y15370D01*
X35470D01*
Y14370D02*
Y14530D01*
X35630D01*
Y14370D01*
X35470D01*
Y13370D02*
Y13530D01*
X35630D01*
Y13370D01*
X35470D01*
X34470Y17370D02*
Y17530D01*
X34630D01*
Y17370D01*
X34470D01*
Y16370D02*
Y16530D01*
X34630D01*
Y16370D01*
X34470D01*
Y15370D02*
Y15530D01*
X34630D01*
Y15370D01*
X34470D01*
Y14370D02*
Y14530D01*
X34630D01*
Y14370D01*
X34470D01*
Y13370D02*
Y13530D01*
X34630D01*
Y13370D01*
X34470D01*
X24865Y14801D02*
X24785Y14961D01*
X24945D01*
X24865Y14801D01*
X29681Y17939D02*
X29601Y18099D01*
X29761D01*
X29681Y17939D01*
X27919Y12601D02*
X27839Y12761D01*
X27999D01*
X27919Y12601D01*
X32450Y17670D02*
X32370Y17830D01*
X32530D01*
X32450Y17670D01*
X48350Y12120D02*
X48270Y12280D01*
X48430D01*
X48350Y12120D01*
X41887Y12470D02*
X41807Y12630D01*
X41967D01*
X41887Y12470D01*
X39850Y12120D02*
X39770Y12280D01*
X39930D01*
X39850Y12120D01*
X46450D02*
X46370Y12280D01*
X46530D01*
X46450Y12120D01*
X48400Y18220D02*
X48320Y18380D01*
X48480D01*
X48400Y18220D01*
X41950Y18270D02*
X41870Y18430D01*
X42030D01*
X41950Y18270D01*
X32550Y12820D02*
X32470Y12980D01*
X32630D01*
X32550Y12820D01*
X26650Y13170D02*
X26570Y13330D01*
X26730D01*
X26650Y13170D01*
X23800Y15570D02*
X23720Y15730D01*
X23880D01*
X23800Y15570D01*
X31600Y17920D02*
X31520Y18080D01*
X31680D01*
X31600Y17920D01*
X32450Y16470D02*
X32370Y16630D01*
X32530D01*
X32450Y16470D01*
X23437Y12207D02*
X23477Y12247D01*
X23517D01*
X23477Y12287D01*
X23517Y12327D01*
X23477D01*
X23437Y12367D01*
X23397Y12327D01*
X23357D01*
X23397Y12287D01*
X23357Y12247D01*
X23397D01*
X23437Y12207D01*
Y18507D02*
X23477Y18547D01*
X23517D01*
X23477Y18587D01*
X23517Y18627D01*
X23477D01*
X23437Y18667D01*
X23397Y18627D01*
X23357D01*
X23397Y18587D01*
X23357Y18547D01*
X23397D01*
X23437Y18507D01*
X53359Y12207D02*
X53399Y12247D01*
X53439D01*
X53399Y12287D01*
X53439Y12327D01*
X53399D01*
X53359Y12367D01*
X53319Y12327D01*
X53279D01*
X53319Y12287D01*
X53279Y12247D01*
X53319D01*
X53359Y12207D01*
Y18507D02*
X53399Y18547D01*
X53439D01*
X53399Y18587D01*
X53439Y18627D01*
X53399D01*
X53359Y18667D01*
X53319Y18627D01*
X53279D01*
X53319Y18587D01*
X53279Y18547D01*
X53319D01*
X53359Y18507D01*
X35470Y25244D02*
Y25404D01*
X35630D01*
Y25244D01*
X35470D01*
Y24244D02*
Y24404D01*
X35630D01*
Y24244D01*
X35470D01*
Y23244D02*
Y23404D01*
X35630D01*
Y23244D01*
X35470D01*
Y22244D02*
Y22404D01*
X35630D01*
Y22244D01*
X35470D01*
Y21244D02*
Y21404D01*
X35630D01*
Y21244D01*
X35470D01*
X34470Y25244D02*
Y25404D01*
X34630D01*
Y25244D01*
X34470D01*
Y24244D02*
Y24404D01*
X34630D01*
Y24244D01*
X34470D01*
Y23244D02*
Y23404D01*
X34630D01*
Y23244D01*
X34470D01*
Y22244D02*
Y22404D01*
X34630D01*
Y22244D01*
X34470D01*
Y21244D02*
Y21404D01*
X34630D01*
Y21244D01*
X34470D01*
X24865Y22675D02*
X24785Y22835D01*
X24945D01*
X24865Y22675D01*
X29681Y25813D02*
X29601Y25973D01*
X29761D01*
X29681Y25813D01*
X27919Y20475D02*
X27839Y20635D01*
X27999D01*
X27919Y20475D01*
X32450Y25544D02*
X32370Y25704D01*
X32530D01*
X32450Y25544D01*
X48350Y19994D02*
X48270Y20154D01*
X48430D01*
X48350Y19994D01*
X41887Y20344D02*
X41807Y20504D01*
X41967D01*
X41887Y20344D01*
X39850Y19994D02*
X39770Y20154D01*
X39930D01*
X39850Y19994D01*
X46450D02*
X46370Y20154D01*
X46530D01*
X46450Y19994D01*
X48400Y26094D02*
X48320Y26254D01*
X48480D01*
X48400Y26094D01*
X41950Y26144D02*
X41870Y26304D01*
X42030D01*
X41950Y26144D01*
X32550Y20694D02*
X32470Y20854D01*
X32630D01*
X32550Y20694D01*
X26650Y21044D02*
X26570Y21204D01*
X26730D01*
X26650Y21044D01*
X23800Y23444D02*
X23720Y23604D01*
X23880D01*
X23800Y23444D01*
X31600Y25794D02*
X31520Y25954D01*
X31680D01*
X31600Y25794D01*
X32450Y24344D02*
X32370Y24504D01*
X32530D01*
X32450Y24344D01*
X23437Y20081D02*
X23477Y20121D01*
X23517D01*
X23477Y20161D01*
X23517Y20201D01*
X23477D01*
X23437Y20241D01*
X23397Y20201D01*
X23357D01*
X23397Y20161D01*
X23357Y20121D01*
X23397D01*
X23437Y20081D01*
Y26381D02*
X23477Y26421D01*
X23517D01*
X23477Y26461D01*
X23517Y26501D01*
X23477D01*
X23437Y26541D01*
X23397Y26501D01*
X23357D01*
X23397Y26461D01*
X23357Y26421D01*
X23397D01*
X23437Y26381D01*
X53359Y20081D02*
X53399Y20121D01*
X53439D01*
X53399Y20161D01*
X53439Y20201D01*
X53399D01*
X53359Y20241D01*
X53319Y20201D01*
X53279D01*
X53319Y20161D01*
X53279Y20121D01*
X53319D01*
X53359Y20081D01*
Y26381D02*
X53399Y26421D01*
X53439D01*
X53399Y26461D01*
X53439Y26501D01*
X53399D01*
X53359Y26541D01*
X53319Y26501D01*
X53279D01*
X53319Y26461D01*
X53279Y26421D01*
X53319D01*
X53359Y26381D01*
X35470Y33118D02*
Y33278D01*
X35630D01*
Y33118D01*
X35470D01*
Y32118D02*
Y32278D01*
X35630D01*
Y32118D01*
X35470D01*
Y31118D02*
Y31278D01*
X35630D01*
Y31118D01*
X35470D01*
Y30118D02*
Y30278D01*
X35630D01*
Y30118D01*
X35470D01*
Y29118D02*
Y29278D01*
X35630D01*
Y29118D01*
X35470D01*
X34470Y33118D02*
Y33278D01*
X34630D01*
Y33118D01*
X34470D01*
Y32118D02*
Y32278D01*
X34630D01*
Y32118D01*
X34470D01*
Y31118D02*
Y31278D01*
X34630D01*
Y31118D01*
X34470D01*
Y30118D02*
Y30278D01*
X34630D01*
Y30118D01*
X34470D01*
Y29118D02*
Y29278D01*
X34630D01*
Y29118D01*
X34470D01*
X24865Y30549D02*
X24785Y30709D01*
X24945D01*
X24865Y30549D01*
X29681Y33687D02*
X29601Y33847D01*
X29761D01*
X29681Y33687D01*
X27919Y28349D02*
X27839Y28509D01*
X27999D01*
X27919Y28349D01*
X32450Y33418D02*
X32370Y33578D01*
X32530D01*
X32450Y33418D01*
X48350Y27868D02*
X48270Y28028D01*
X48430D01*
X48350Y27868D01*
X41887Y28218D02*
X41807Y28378D01*
X41967D01*
X41887Y28218D01*
X39850Y27868D02*
X39770Y28028D01*
X39930D01*
X39850Y27868D01*
X46450D02*
X46370Y28028D01*
X46530D01*
X46450Y27868D01*
X48400Y33968D02*
X48320Y34128D01*
X48480D01*
X48400Y33968D01*
X41950Y34018D02*
X41870Y34178D01*
X42030D01*
X41950Y34018D01*
X32550Y28568D02*
X32470Y28728D01*
X32630D01*
X32550Y28568D01*
X26650Y28918D02*
X26570Y29078D01*
X26730D01*
X26650Y28918D01*
X23800Y31318D02*
X23720Y31478D01*
X23880D01*
X23800Y31318D01*
X31600Y33668D02*
X31520Y33828D01*
X31680D01*
X31600Y33668D01*
X32450Y32218D02*
X32370Y32378D01*
X32530D01*
X32450Y32218D01*
X23437Y27955D02*
X23477Y27995D01*
X23517D01*
X23477Y28035D01*
X23517Y28075D01*
X23477D01*
X23437Y28115D01*
X23397Y28075D01*
X23357D01*
X23397Y28035D01*
X23357Y27995D01*
X23397D01*
X23437Y27955D01*
Y34255D02*
X23477Y34295D01*
X23517D01*
X23477Y34335D01*
X23517Y34375D01*
X23477D01*
X23437Y34415D01*
X23397Y34375D01*
X23357D01*
X23397Y34335D01*
X23357Y34295D01*
X23397D01*
X23437Y34255D01*
X53359Y27955D02*
X53399Y27995D01*
X53439D01*
X53399Y28035D01*
X53439Y28075D01*
X53399D01*
X53359Y28115D01*
X53319Y28075D01*
X53279D01*
X53319Y28035D01*
X53279Y27995D01*
X53319D01*
X53359Y27955D01*
Y34255D02*
X53399Y34295D01*
X53439D01*
X53399Y34335D01*
X53439Y34375D01*
X53399D01*
X53359Y34415D01*
X53319Y34375D01*
X53279D01*
X53319Y34335D01*
X53279Y34295D01*
X53319D01*
X53359Y34255D01*
X35470Y40992D02*
Y41152D01*
X35630D01*
Y40992D01*
X35470D01*
Y39992D02*
Y40152D01*
X35630D01*
Y39992D01*
X35470D01*
Y38992D02*
Y39152D01*
X35630D01*
Y38992D01*
X35470D01*
Y37992D02*
Y38152D01*
X35630D01*
Y37992D01*
X35470D01*
Y36992D02*
Y37152D01*
X35630D01*
Y36992D01*
X35470D01*
X34470Y40992D02*
Y41152D01*
X34630D01*
Y40992D01*
X34470D01*
Y39992D02*
Y40152D01*
X34630D01*
Y39992D01*
X34470D01*
Y38992D02*
Y39152D01*
X34630D01*
Y38992D01*
X34470D01*
Y37992D02*
Y38152D01*
X34630D01*
Y37992D01*
X34470D01*
Y36992D02*
Y37152D01*
X34630D01*
Y36992D01*
X34470D01*
X24865Y38423D02*
X24785Y38583D01*
X24945D01*
X24865Y38423D01*
X29681Y41561D02*
X29601Y41721D01*
X29761D01*
X29681Y41561D01*
X27919Y36223D02*
X27839Y36383D01*
X27999D01*
X27919Y36223D01*
X32450Y41292D02*
X32370Y41452D01*
X32530D01*
X32450Y41292D01*
X48350Y35742D02*
X48270Y35902D01*
X48430D01*
X48350Y35742D01*
X41887Y36092D02*
X41807Y36252D01*
X41967D01*
X41887Y36092D01*
X39850Y35742D02*
X39770Y35902D01*
X39930D01*
X39850Y35742D01*
X46450D02*
X46370Y35902D01*
X46530D01*
X46450Y35742D01*
X48400Y41842D02*
X48320Y42002D01*
X48480D01*
X48400Y41842D01*
X41950Y41892D02*
X41870Y42052D01*
X42030D01*
X41950Y41892D01*
X32550Y36442D02*
X32470Y36602D01*
X32630D01*
X32550Y36442D01*
X26650Y36792D02*
X26570Y36952D01*
X26730D01*
X26650Y36792D01*
X23800Y39192D02*
X23720Y39352D01*
X23880D01*
X23800Y39192D01*
X31600Y41542D02*
X31520Y41702D01*
X31680D01*
X31600Y41542D01*
X32450Y40092D02*
X32370Y40252D01*
X32530D01*
X32450Y40092D01*
X23437Y35829D02*
X23477Y35869D01*
X23517D01*
X23477Y35909D01*
X23517Y35949D01*
X23477D01*
X23437Y35989D01*
X23397Y35949D01*
X23357D01*
X23397Y35909D01*
X23357Y35869D01*
X23397D01*
X23437Y35829D01*
Y42129D02*
X23477Y42169D01*
X23517D01*
X23477Y42209D01*
X23517Y42249D01*
X23477D01*
X23437Y42289D01*
X23397Y42249D01*
X23357D01*
X23397Y42209D01*
X23357Y42169D01*
X23397D01*
X23437Y42129D01*
X53359Y35829D02*
X53399Y35869D01*
X53439D01*
X53399Y35909D01*
X53439Y35949D01*
X53399D01*
X53359Y35989D01*
X53319Y35949D01*
X53279D01*
X53319Y35909D01*
X53279Y35869D01*
X53319D01*
X53359Y35829D01*
Y42129D02*
X53399Y42169D01*
X53439D01*
X53399Y42209D01*
X53439Y42249D01*
X53399D01*
X53359Y42289D01*
X53319Y42249D01*
X53279D01*
X53319Y42209D01*
X53279Y42169D01*
X53319D01*
X53359Y42129D01*
X35470Y48866D02*
Y49026D01*
X35630D01*
Y48866D01*
X35470D01*
Y47866D02*
Y48026D01*
X35630D01*
Y47866D01*
X35470D01*
Y46866D02*
Y47026D01*
X35630D01*
Y46866D01*
X35470D01*
Y45866D02*
Y46026D01*
X35630D01*
Y45866D01*
X35470D01*
Y44866D02*
Y45026D01*
X35630D01*
Y44866D01*
X35470D01*
X34470Y48866D02*
Y49026D01*
X34630D01*
Y48866D01*
X34470D01*
Y47866D02*
Y48026D01*
X34630D01*
Y47866D01*
X34470D01*
Y46866D02*
Y47026D01*
X34630D01*
Y46866D01*
X34470D01*
Y45866D02*
Y46026D01*
X34630D01*
Y45866D01*
X34470D01*
Y44866D02*
Y45026D01*
X34630D01*
Y44866D01*
X34470D01*
X24865Y46297D02*
X24785Y46457D01*
X24945D01*
X24865Y46297D01*
X29681Y49435D02*
X29601Y49595D01*
X29761D01*
X29681Y49435D01*
X27919Y44097D02*
X27839Y44257D01*
X27999D01*
X27919Y44097D01*
X32450Y49166D02*
X32370Y49326D01*
X32530D01*
X32450Y49166D01*
X48350Y43616D02*
X48270Y43776D01*
X48430D01*
X48350Y43616D01*
X41887Y43966D02*
X41807Y44126D01*
X41967D01*
X41887Y43966D01*
X39850Y43616D02*
X39770Y43776D01*
X39930D01*
X39850Y43616D01*
X46450D02*
X46370Y43776D01*
X46530D01*
X46450Y43616D01*
X48400Y49716D02*
X48320Y49876D01*
X48480D01*
X48400Y49716D01*
X41950Y49766D02*
X41870Y49926D01*
X42030D01*
X41950Y49766D01*
X32550Y44316D02*
X32470Y44476D01*
X32630D01*
X32550Y44316D01*
X26650Y44666D02*
X26570Y44826D01*
X26730D01*
X26650Y44666D01*
X23800Y47066D02*
X23720Y47226D01*
X23880D01*
X23800Y47066D01*
X31600Y49416D02*
X31520Y49576D01*
X31680D01*
X31600Y49416D01*
X32450Y47966D02*
X32370Y48126D01*
X32530D01*
X32450Y47966D01*
X23437Y43703D02*
X23477Y43743D01*
X23517D01*
X23477Y43783D01*
X23517Y43823D01*
X23477D01*
X23437Y43863D01*
X23397Y43823D01*
X23357D01*
X23397Y43783D01*
X23357Y43743D01*
X23397D01*
X23437Y43703D01*
Y50003D02*
X23477Y50043D01*
X23517D01*
X23477Y50083D01*
X23517Y50123D01*
X23477D01*
X23437Y50163D01*
X23397Y50123D01*
X23357D01*
X23397Y50083D01*
X23357Y50043D01*
X23397D01*
X23437Y50003D01*
X53359Y43703D02*
X53399Y43743D01*
X53439D01*
X53399Y43783D01*
X53439Y43823D01*
X53399D01*
X53359Y43863D01*
X53319Y43823D01*
X53279D01*
X53319Y43783D01*
X53279Y43743D01*
X53319D01*
X53359Y43703D01*
Y50003D02*
X53399Y50043D01*
X53439D01*
X53399Y50083D01*
X53439Y50123D01*
X53399D01*
X53359Y50163D01*
X53319Y50123D01*
X53279D01*
X53319Y50083D01*
X53279Y50043D01*
X53319D01*
X53359Y50003D01*
D35*
X50191Y16343D02*
G03*
X50191Y16343I-80J0D01*
G01*
Y14374D02*
G03*
X50191Y14374I-80J0D01*
G01*
X45269D02*
G03*
X45269Y14374I-80J0D01*
G01*
Y16343D02*
G03*
X45269Y16343I-80J0D01*
G01*
X30840Y16638D02*
G03*
X30840Y16638I-80J0D01*
G01*
Y15181D02*
G03*
X30840Y15181I-80J0D01*
G01*
Y14079D02*
G03*
X30840Y14079I-80J0D01*
G01*
X26785D02*
G03*
X26785Y14079I-80J0D01*
G01*
Y15181D02*
G03*
X26785Y15181I-80J0D01*
G01*
Y16638D02*
G03*
X26785Y16638I-80J0D01*
G01*
X43695Y16343D02*
G03*
X43695Y16343I-80J0D01*
G01*
Y14374D02*
G03*
X43695Y14374I-80J0D01*
G01*
X38773D02*
G03*
X38773Y14374I-80J0D01*
G01*
Y16343D02*
G03*
X38773Y16343I-80J0D01*
G01*
X50191Y24217D02*
G03*
X50191Y24217I-80J0D01*
G01*
Y22248D02*
G03*
X50191Y22248I-80J0D01*
G01*
X45269D02*
G03*
X45269Y22248I-80J0D01*
G01*
Y24217D02*
G03*
X45269Y24217I-80J0D01*
G01*
X30840Y24512D02*
G03*
X30840Y24512I-80J0D01*
G01*
Y23055D02*
G03*
X30840Y23055I-80J0D01*
G01*
Y21953D02*
G03*
X30840Y21953I-80J0D01*
G01*
X26785D02*
G03*
X26785Y21953I-80J0D01*
G01*
Y23055D02*
G03*
X26785Y23055I-80J0D01*
G01*
Y24512D02*
G03*
X26785Y24512I-80J0D01*
G01*
X43695Y24217D02*
G03*
X43695Y24217I-80J0D01*
G01*
Y22248D02*
G03*
X43695Y22248I-80J0D01*
G01*
X38773D02*
G03*
X38773Y22248I-80J0D01*
G01*
Y24217D02*
G03*
X38773Y24217I-80J0D01*
G01*
X50191Y32091D02*
G03*
X50191Y32091I-80J0D01*
G01*
Y30122D02*
G03*
X50191Y30122I-80J0D01*
G01*
X45269D02*
G03*
X45269Y30122I-80J0D01*
G01*
Y32091D02*
G03*
X45269Y32091I-80J0D01*
G01*
X30840Y32386D02*
G03*
X30840Y32386I-80J0D01*
G01*
Y30929D02*
G03*
X30840Y30929I-80J0D01*
G01*
Y29827D02*
G03*
X30840Y29827I-80J0D01*
G01*
X26785D02*
G03*
X26785Y29827I-80J0D01*
G01*
Y30929D02*
G03*
X26785Y30929I-80J0D01*
G01*
Y32386D02*
G03*
X26785Y32386I-80J0D01*
G01*
X43695Y32091D02*
G03*
X43695Y32091I-80J0D01*
G01*
Y30122D02*
G03*
X43695Y30122I-80J0D01*
G01*
X38773D02*
G03*
X38773Y30122I-80J0D01*
G01*
Y32091D02*
G03*
X38773Y32091I-80J0D01*
G01*
X50191Y39965D02*
G03*
X50191Y39965I-80J0D01*
G01*
Y37996D02*
G03*
X50191Y37996I-80J0D01*
G01*
X45269D02*
G03*
X45269Y37996I-80J0D01*
G01*
Y39965D02*
G03*
X45269Y39965I-80J0D01*
G01*
X30840Y40260D02*
G03*
X30840Y40260I-80J0D01*
G01*
Y38803D02*
G03*
X30840Y38803I-80J0D01*
G01*
Y37701D02*
G03*
X30840Y37701I-80J0D01*
G01*
X26785D02*
G03*
X26785Y37701I-80J0D01*
G01*
Y38803D02*
G03*
X26785Y38803I-80J0D01*
G01*
Y40260D02*
G03*
X26785Y40260I-80J0D01*
G01*
X43695Y39965D02*
G03*
X43695Y39965I-80J0D01*
G01*
Y37996D02*
G03*
X43695Y37996I-80J0D01*
G01*
X38773D02*
G03*
X38773Y37996I-80J0D01*
G01*
Y39965D02*
G03*
X38773Y39965I-80J0D01*
G01*
X50191Y47839D02*
G03*
X50191Y47839I-80J0D01*
G01*
Y45870D02*
G03*
X50191Y45870I-80J0D01*
G01*
X45269D02*
G03*
X45269Y45870I-80J0D01*
G01*
Y47839D02*
G03*
X45269Y47839I-80J0D01*
G01*
X30840Y48134D02*
G03*
X30840Y48134I-80J0D01*
G01*
Y46677D02*
G03*
X30840Y46677I-80J0D01*
G01*
Y45575D02*
G03*
X30840Y45575I-80J0D01*
G01*
X26785D02*
G03*
X26785Y45575I-80J0D01*
G01*
Y46677D02*
G03*
X26785Y46677I-80J0D01*
G01*
Y48134D02*
G03*
X26785Y48134I-80J0D01*
G01*
X43695Y47839D02*
G03*
X43695Y47839I-80J0D01*
G01*
Y45870D02*
G03*
X43695Y45870I-80J0D01*
G01*
X38773D02*
G03*
X38773Y45870I-80J0D01*
G01*
Y47839D02*
G03*
X38773Y47839I-80J0D01*
G01*
M02*
