G04 Layer_Color=32896*
%FSLAX24Y24*%
%MOIN*%
G70*
G01*
G75*
%ADD10C,0.0100*%
%ADD23C,0.0079*%
D10*
X54146Y11500D02*
Y50870D01*
X22650D02*
X54146D01*
X22650Y11500D02*
Y50870D01*
Y19374D02*
X54146D01*
X22650Y11500D02*
X54146D01*
Y19374D01*
X22650Y11500D02*
Y19374D01*
Y27248D02*
X54146D01*
X22650Y19374D02*
X54146D01*
Y27248D01*
X22650Y19374D02*
Y27248D01*
Y35122D02*
X54146D01*
X22650Y27248D02*
X54146D01*
Y35122D01*
X22650Y27248D02*
Y35122D01*
Y42996D02*
X54146D01*
X22650Y35122D02*
X54146D01*
Y42996D01*
X22650Y35122D02*
Y42996D01*
Y50870D02*
X54146D01*
X22650Y42996D02*
X54146D01*
Y50870D01*
X22650Y42996D02*
Y50870D01*
D23*
X42900Y18114D02*
Y18586D01*
X49400Y18064D02*
Y18536D01*
X31600Y12664D02*
Y13136D01*
X47400Y11964D02*
Y12436D01*
X40800Y11964D02*
Y12436D01*
X27000Y12464D02*
Y12936D01*
X31464Y16900D02*
X31936D01*
X24164Y15300D02*
X24636D01*
X30600Y17764D02*
Y18236D01*
X34015Y17950D02*
X35300D01*
X34800D02*
X36101D01*
Y12950D02*
Y17950D01*
X34015Y12950D02*
X36101D01*
X34015D02*
Y17950D01*
X35838Y18544D02*
X35969D01*
X35903D01*
Y18216D01*
X35969Y18150D01*
X36034D01*
X36100Y18216D01*
X35706Y18150D02*
X35575D01*
X35641D01*
Y18544D01*
X35706Y18478D01*
X43450Y17500D02*
Y17894D01*
X43253D01*
X43188Y17828D01*
Y17697D01*
X43253Y17631D01*
X43450D01*
X43319D02*
X43188Y17500D01*
X43056Y17566D02*
X42991Y17500D01*
X42860D01*
X42794Y17566D01*
Y17828D01*
X42860Y17894D01*
X42991D01*
X43056Y17828D01*
Y17762D01*
X42991Y17697D01*
X42794D01*
X49850Y17400D02*
Y17794D01*
X49653D01*
X49588Y17728D01*
Y17597D01*
X49653Y17531D01*
X49850D01*
X49719D02*
X49588Y17400D01*
X49456Y17728D02*
X49391Y17794D01*
X49260D01*
X49194Y17728D01*
Y17662D01*
X49260Y17597D01*
X49194Y17531D01*
Y17466D01*
X49260Y17400D01*
X49391D01*
X49456Y17466D01*
Y17531D01*
X49391Y17597D01*
X49456Y17662D01*
Y17728D01*
X49391Y17597D02*
X49260D01*
X32050Y12100D02*
Y12494D01*
X31853D01*
X31788Y12428D01*
Y12297D01*
X31853Y12231D01*
X32050D01*
X31919D02*
X31788Y12100D01*
X31656D02*
X31525D01*
X31591D01*
Y12494D01*
X31656Y12428D01*
X48100Y12750D02*
Y13144D01*
X47903D01*
X47838Y13078D01*
Y12947D01*
X47903Y12881D01*
X48100D01*
X47969D02*
X47838Y12750D01*
X47444D02*
X47706D01*
X47444Y13012D01*
Y13078D01*
X47510Y13144D01*
X47641D01*
X47706Y13078D01*
X41350Y12650D02*
Y13044D01*
X41153D01*
X41088Y12978D01*
Y12847D01*
X41153Y12781D01*
X41350D01*
X41219D02*
X41088Y12650D01*
X40956Y12978D02*
X40891Y13044D01*
X40760D01*
X40694Y12978D01*
Y12912D01*
X40760Y12847D01*
X40825D01*
X40760D01*
X40694Y12781D01*
Y12716D01*
X40760Y12650D01*
X40891D01*
X40956Y12716D01*
X31150Y18450D02*
Y18844D01*
X30953D01*
X30888Y18778D01*
Y18647D01*
X30953Y18581D01*
X31150D01*
X31019D02*
X30888Y18450D01*
X30560D02*
Y18844D01*
X30756Y18647D01*
X30494D01*
X31500Y15450D02*
X31894D01*
Y15647D01*
X31828Y15712D01*
X31697D01*
X31631Y15647D01*
Y15450D01*
Y15581D02*
X31500Y15712D01*
X31894Y16106D02*
Y15844D01*
X31697D01*
X31762Y15975D01*
Y16040D01*
X31697Y16106D01*
X31566D01*
X31500Y16040D01*
Y15909D01*
X31566Y15844D01*
X24700Y13950D02*
Y14344D01*
X24503D01*
X24438Y14278D01*
Y14147D01*
X24503Y14081D01*
X24700D01*
X24569D02*
X24438Y13950D01*
X24044Y14344D02*
X24175Y14278D01*
X24306Y14147D01*
Y14016D01*
X24241Y13950D01*
X24110D01*
X24044Y14016D01*
Y14081D01*
X24110Y14147D01*
X24306D01*
X27500Y11850D02*
Y12244D01*
X27303D01*
X27238Y12178D01*
Y12047D01*
X27303Y11981D01*
X27500D01*
X27369D02*
X27238Y11850D01*
X27106Y12244D02*
X26844D01*
Y12178D01*
X27106Y11916D01*
Y11850D01*
X52371Y12079D02*
Y12472D01*
X52174D01*
X52109Y12407D01*
Y12276D01*
X52174Y12210D01*
X52371D01*
X52240D02*
X52109Y12079D01*
X51715Y12472D02*
X51978D01*
Y12079D01*
X51715D01*
X51978Y12276D02*
X51846D01*
X51584Y12472D02*
Y12210D01*
X51453Y12079D01*
X51322Y12210D01*
Y12472D01*
X50797Y12079D02*
X50666D01*
X50731D01*
Y12472D01*
X50797Y12407D01*
X36671Y17672D02*
Y17279D01*
X36474D01*
X36409Y17344D01*
Y17410D01*
X36474Y17476D01*
X36671D01*
X36474D01*
X36409Y17541D01*
Y17607D01*
X36474Y17672D01*
X36671D01*
X37809Y16557D02*
X37874Y16622D01*
X38006D01*
X38071Y16557D01*
Y16491D01*
X38006Y16426D01*
X37874D01*
X37809Y16360D01*
Y16294D01*
X37874Y16229D01*
X38006D01*
X38071Y16294D01*
X37678Y16622D02*
X37415D01*
X37546D01*
Y16229D01*
X37284D02*
Y16491D01*
X37153Y16622D01*
X37022Y16491D01*
Y16229D01*
Y16426D01*
X37284D01*
X36891Y16229D02*
Y16622D01*
X36694D01*
X36628Y16557D01*
Y16426D01*
X36694Y16360D01*
X36891D01*
X36759D02*
X36628Y16229D01*
X36497Y16622D02*
X36235D01*
X36366D01*
Y16229D01*
X36671Y15279D02*
Y15541D01*
X36540Y15672D01*
X36409Y15541D01*
Y15279D01*
Y15476D01*
X36671D01*
X37721Y14622D02*
Y14229D01*
X37524D01*
X37459Y14294D01*
Y14557D01*
X37524Y14622D01*
X37721D01*
X37131D02*
X37262D01*
X37328Y14557D01*
Y14294D01*
X37262Y14229D01*
X37131D01*
X37065Y14294D01*
Y14557D01*
X37131Y14622D01*
X36934D02*
Y14229D01*
X36803Y14360D01*
X36672Y14229D01*
Y14622D01*
X36541Y14229D02*
Y14622D01*
X36278Y14229D01*
Y14622D01*
X37109Y13557D02*
X37174Y13622D01*
X37306D01*
X37371Y13557D01*
Y13294D01*
X37306Y13229D01*
X37174D01*
X37109Y13294D01*
Y13426D01*
X37240D01*
X36978Y13229D02*
Y13622D01*
X36715Y13229D01*
Y13622D01*
X36584D02*
Y13229D01*
X36387D01*
X36322Y13294D01*
Y13557D01*
X36387Y13622D01*
X36584D01*
X33721Y13229D02*
Y13622D01*
X33524D01*
X33459Y13557D01*
Y13426D01*
X33524Y13360D01*
X33721D01*
X33590D02*
X33459Y13229D01*
X33328Y13622D02*
X33196D01*
X33262D01*
Y13229D01*
X33328D01*
X33196D01*
X32737Y13557D02*
X32803Y13622D01*
X32934D01*
X33000Y13557D01*
Y13294D01*
X32934Y13229D01*
X32803D01*
X32737Y13294D01*
Y13426D01*
X32869D01*
X32606Y13622D02*
Y13229D01*
Y13426D01*
X32344D01*
Y13622D01*
Y13229D01*
X32213Y13622D02*
X31950D01*
X32081D01*
Y13229D01*
X33821Y14672D02*
Y14344D01*
X33756Y14279D01*
X33624D01*
X33559Y14344D01*
Y14672D01*
X33428Y14279D02*
Y14672D01*
X33231D01*
X33165Y14607D01*
Y14476D01*
X33231Y14410D01*
X33428D01*
X33559Y16607D02*
X33624Y16672D01*
X33756D01*
X33821Y16607D01*
Y16344D01*
X33756Y16279D01*
X33624D01*
X33559Y16344D01*
Y16476D01*
X33690D01*
X33428Y16279D02*
Y16672D01*
X33165Y16279D01*
Y16672D01*
X33034D02*
Y16279D01*
X32837D01*
X32772Y16344D01*
Y16607D01*
X32837Y16672D01*
X33034D01*
X33771Y15672D02*
Y15279D01*
X33509D01*
X33115Y15672D02*
X33378D01*
Y15279D01*
X33115D01*
X33378Y15476D02*
X33246D01*
X32722Y15672D02*
X32984D01*
Y15476D01*
X32853D01*
X32984D01*
Y15279D01*
X32591Y15672D02*
X32328D01*
X32459D01*
Y15279D01*
X33850Y17644D02*
Y17250D01*
X33588D01*
X33194Y17644D02*
X33456D01*
Y17250D01*
X33194D01*
X33456Y17447D02*
X33325D01*
X33063Y17644D02*
Y17250D01*
X32866D01*
X32800Y17316D01*
Y17578D01*
X32866Y17644D01*
X33063D01*
X42900Y25988D02*
Y26460D01*
X49400Y25938D02*
Y26410D01*
X31600Y20538D02*
Y21010D01*
X47400Y19838D02*
Y20310D01*
X40800Y19838D02*
Y20310D01*
X27000Y20338D02*
Y20810D01*
X31464Y24774D02*
X31936D01*
X24164Y23174D02*
X24636D01*
X30600Y25638D02*
Y26110D01*
X34015Y25824D02*
X35300D01*
X34800D02*
X36101D01*
Y20824D02*
Y25824D01*
X34015Y20824D02*
X36101D01*
X34015D02*
Y25824D01*
X35838Y26418D02*
X35969D01*
X35903D01*
Y26090D01*
X35969Y26024D01*
X36034D01*
X36100Y26090D01*
X35706Y26024D02*
X35575D01*
X35641D01*
Y26418D01*
X35706Y26352D01*
X43450Y25374D02*
Y25768D01*
X43253D01*
X43188Y25702D01*
Y25571D01*
X43253Y25505D01*
X43450D01*
X43319D02*
X43188Y25374D01*
X43056Y25440D02*
X42991Y25374D01*
X42860D01*
X42794Y25440D01*
Y25702D01*
X42860Y25768D01*
X42991D01*
X43056Y25702D01*
Y25636D01*
X42991Y25571D01*
X42794D01*
X49850Y25274D02*
Y25668D01*
X49653D01*
X49588Y25602D01*
Y25471D01*
X49653Y25405D01*
X49850D01*
X49719D02*
X49588Y25274D01*
X49456Y25602D02*
X49391Y25668D01*
X49260D01*
X49194Y25602D01*
Y25536D01*
X49260Y25471D01*
X49194Y25405D01*
Y25340D01*
X49260Y25274D01*
X49391D01*
X49456Y25340D01*
Y25405D01*
X49391Y25471D01*
X49456Y25536D01*
Y25602D01*
X49391Y25471D02*
X49260D01*
X32050Y19974D02*
Y20368D01*
X31853D01*
X31788Y20302D01*
Y20171D01*
X31853Y20105D01*
X32050D01*
X31919D02*
X31788Y19974D01*
X31656D02*
X31525D01*
X31591D01*
Y20368D01*
X31656Y20302D01*
X48100Y20624D02*
Y21018D01*
X47903D01*
X47838Y20952D01*
Y20821D01*
X47903Y20755D01*
X48100D01*
X47969D02*
X47838Y20624D01*
X47444D02*
X47706D01*
X47444Y20886D01*
Y20952D01*
X47510Y21018D01*
X47641D01*
X47706Y20952D01*
X41350Y20524D02*
Y20918D01*
X41153D01*
X41088Y20852D01*
Y20721D01*
X41153Y20655D01*
X41350D01*
X41219D02*
X41088Y20524D01*
X40956Y20852D02*
X40891Y20918D01*
X40760D01*
X40694Y20852D01*
Y20786D01*
X40760Y20721D01*
X40825D01*
X40760D01*
X40694Y20655D01*
Y20590D01*
X40760Y20524D01*
X40891D01*
X40956Y20590D01*
X31150Y26324D02*
Y26718D01*
X30953D01*
X30888Y26652D01*
Y26521D01*
X30953Y26455D01*
X31150D01*
X31019D02*
X30888Y26324D01*
X30560D02*
Y26718D01*
X30756Y26521D01*
X30494D01*
X31500Y23324D02*
X31894D01*
Y23521D01*
X31828Y23586D01*
X31697D01*
X31631Y23521D01*
Y23324D01*
Y23455D02*
X31500Y23586D01*
X31894Y23980D02*
Y23718D01*
X31697D01*
X31762Y23849D01*
Y23914D01*
X31697Y23980D01*
X31566D01*
X31500Y23914D01*
Y23783D01*
X31566Y23718D01*
X24700Y21824D02*
Y22218D01*
X24503D01*
X24438Y22152D01*
Y22021D01*
X24503Y21955D01*
X24700D01*
X24569D02*
X24438Y21824D01*
X24044Y22218D02*
X24175Y22152D01*
X24306Y22021D01*
Y21890D01*
X24241Y21824D01*
X24110D01*
X24044Y21890D01*
Y21955D01*
X24110Y22021D01*
X24306D01*
X27500Y19724D02*
Y20118D01*
X27303D01*
X27238Y20052D01*
Y19921D01*
X27303Y19855D01*
X27500D01*
X27369D02*
X27238Y19724D01*
X27106Y20118D02*
X26844D01*
Y20052D01*
X27106Y19790D01*
Y19724D01*
X52371Y19953D02*
Y20346D01*
X52174D01*
X52109Y20281D01*
Y20150D01*
X52174Y20084D01*
X52371D01*
X52240D02*
X52109Y19953D01*
X51715Y20346D02*
X51978D01*
Y19953D01*
X51715D01*
X51978Y20150D02*
X51846D01*
X51584Y20346D02*
Y20084D01*
X51453Y19953D01*
X51322Y20084D01*
Y20346D01*
X50797Y19953D02*
X50666D01*
X50731D01*
Y20346D01*
X50797Y20281D01*
X36671Y25546D02*
Y25153D01*
X36474D01*
X36409Y25218D01*
Y25284D01*
X36474Y25350D01*
X36671D01*
X36474D01*
X36409Y25415D01*
Y25481D01*
X36474Y25546D01*
X36671D01*
X37809Y24431D02*
X37874Y24496D01*
X38006D01*
X38071Y24431D01*
Y24365D01*
X38006Y24300D01*
X37874D01*
X37809Y24234D01*
Y24168D01*
X37874Y24103D01*
X38006D01*
X38071Y24168D01*
X37678Y24496D02*
X37415D01*
X37546D01*
Y24103D01*
X37284D02*
Y24365D01*
X37153Y24496D01*
X37022Y24365D01*
Y24103D01*
Y24300D01*
X37284D01*
X36891Y24103D02*
Y24496D01*
X36694D01*
X36628Y24431D01*
Y24300D01*
X36694Y24234D01*
X36891D01*
X36759D02*
X36628Y24103D01*
X36497Y24496D02*
X36235D01*
X36366D01*
Y24103D01*
X36671Y23153D02*
Y23415D01*
X36540Y23546D01*
X36409Y23415D01*
Y23153D01*
Y23350D01*
X36671D01*
X37721Y22496D02*
Y22103D01*
X37524D01*
X37459Y22168D01*
Y22431D01*
X37524Y22496D01*
X37721D01*
X37131D02*
X37262D01*
X37328Y22431D01*
Y22168D01*
X37262Y22103D01*
X37131D01*
X37065Y22168D01*
Y22431D01*
X37131Y22496D01*
X36934D02*
Y22103D01*
X36803Y22234D01*
X36672Y22103D01*
Y22496D01*
X36541Y22103D02*
Y22496D01*
X36278Y22103D01*
Y22496D01*
X37109Y21431D02*
X37174Y21496D01*
X37306D01*
X37371Y21431D01*
Y21168D01*
X37306Y21103D01*
X37174D01*
X37109Y21168D01*
Y21300D01*
X37240D01*
X36978Y21103D02*
Y21496D01*
X36715Y21103D01*
Y21496D01*
X36584D02*
Y21103D01*
X36387D01*
X36322Y21168D01*
Y21431D01*
X36387Y21496D01*
X36584D01*
X33721Y21103D02*
Y21496D01*
X33524D01*
X33459Y21431D01*
Y21300D01*
X33524Y21234D01*
X33721D01*
X33590D02*
X33459Y21103D01*
X33328Y21496D02*
X33196D01*
X33262D01*
Y21103D01*
X33328D01*
X33196D01*
X32737Y21431D02*
X32803Y21496D01*
X32934D01*
X33000Y21431D01*
Y21168D01*
X32934Y21103D01*
X32803D01*
X32737Y21168D01*
Y21300D01*
X32869D01*
X32606Y21496D02*
Y21103D01*
Y21300D01*
X32344D01*
Y21496D01*
Y21103D01*
X32213Y21496D02*
X31950D01*
X32081D01*
Y21103D01*
X33821Y22546D02*
Y22218D01*
X33756Y22153D01*
X33624D01*
X33559Y22218D01*
Y22546D01*
X33428Y22153D02*
Y22546D01*
X33231D01*
X33165Y22481D01*
Y22350D01*
X33231Y22284D01*
X33428D01*
X33559Y24481D02*
X33624Y24546D01*
X33756D01*
X33821Y24481D01*
Y24218D01*
X33756Y24153D01*
X33624D01*
X33559Y24218D01*
Y24350D01*
X33690D01*
X33428Y24153D02*
Y24546D01*
X33165Y24153D01*
Y24546D01*
X33034D02*
Y24153D01*
X32837D01*
X32772Y24218D01*
Y24481D01*
X32837Y24546D01*
X33034D01*
X33771Y23546D02*
Y23153D01*
X33509D01*
X33115Y23546D02*
X33378D01*
Y23153D01*
X33115D01*
X33378Y23350D02*
X33246D01*
X32722Y23546D02*
X32984D01*
Y23350D01*
X32853D01*
X32984D01*
Y23153D01*
X32591Y23546D02*
X32328D01*
X32459D01*
Y23153D01*
X33850Y25518D02*
Y25124D01*
X33588D01*
X33194Y25518D02*
X33456D01*
Y25124D01*
X33194D01*
X33456Y25321D02*
X33325D01*
X33063Y25518D02*
Y25124D01*
X32866D01*
X32800Y25190D01*
Y25452D01*
X32866Y25518D01*
X33063D01*
X42900Y33862D02*
Y34334D01*
X49400Y33812D02*
Y34284D01*
X31600Y28412D02*
Y28884D01*
X47400Y27712D02*
Y28184D01*
X40800Y27712D02*
Y28184D01*
X27000Y28212D02*
Y28684D01*
X31464Y32648D02*
X31936D01*
X24164Y31048D02*
X24636D01*
X30600Y33512D02*
Y33984D01*
X34015Y33698D02*
X35300D01*
X34800D02*
X36101D01*
Y28698D02*
Y33698D01*
X34015Y28698D02*
X36101D01*
X34015D02*
Y33698D01*
X35838Y34292D02*
X35969D01*
X35903D01*
Y33964D01*
X35969Y33898D01*
X36034D01*
X36100Y33964D01*
X35706Y33898D02*
X35575D01*
X35641D01*
Y34292D01*
X35706Y34226D01*
X43450Y33248D02*
Y33642D01*
X43253D01*
X43188Y33576D01*
Y33445D01*
X43253Y33379D01*
X43450D01*
X43319D02*
X43188Y33248D01*
X43056Y33314D02*
X42991Y33248D01*
X42860D01*
X42794Y33314D01*
Y33576D01*
X42860Y33642D01*
X42991D01*
X43056Y33576D01*
Y33510D01*
X42991Y33445D01*
X42794D01*
X49850Y33148D02*
Y33542D01*
X49653D01*
X49588Y33476D01*
Y33345D01*
X49653Y33279D01*
X49850D01*
X49719D02*
X49588Y33148D01*
X49456Y33476D02*
X49391Y33542D01*
X49260D01*
X49194Y33476D01*
Y33410D01*
X49260Y33345D01*
X49194Y33279D01*
Y33214D01*
X49260Y33148D01*
X49391D01*
X49456Y33214D01*
Y33279D01*
X49391Y33345D01*
X49456Y33410D01*
Y33476D01*
X49391Y33345D02*
X49260D01*
X32050Y27848D02*
Y28242D01*
X31853D01*
X31788Y28176D01*
Y28045D01*
X31853Y27979D01*
X32050D01*
X31919D02*
X31788Y27848D01*
X31656D02*
X31525D01*
X31591D01*
Y28242D01*
X31656Y28176D01*
X48100Y28498D02*
Y28892D01*
X47903D01*
X47838Y28826D01*
Y28695D01*
X47903Y28629D01*
X48100D01*
X47969D02*
X47838Y28498D01*
X47444D02*
X47706D01*
X47444Y28760D01*
Y28826D01*
X47510Y28892D01*
X47641D01*
X47706Y28826D01*
X41350Y28398D02*
Y28792D01*
X41153D01*
X41088Y28726D01*
Y28595D01*
X41153Y28529D01*
X41350D01*
X41219D02*
X41088Y28398D01*
X40956Y28726D02*
X40891Y28792D01*
X40760D01*
X40694Y28726D01*
Y28660D01*
X40760Y28595D01*
X40825D01*
X40760D01*
X40694Y28529D01*
Y28464D01*
X40760Y28398D01*
X40891D01*
X40956Y28464D01*
X31150Y34198D02*
Y34592D01*
X30953D01*
X30888Y34526D01*
Y34395D01*
X30953Y34329D01*
X31150D01*
X31019D02*
X30888Y34198D01*
X30560D02*
Y34592D01*
X30756Y34395D01*
X30494D01*
X31500Y31198D02*
X31894D01*
Y31395D01*
X31828Y31460D01*
X31697D01*
X31631Y31395D01*
Y31198D01*
Y31329D02*
X31500Y31460D01*
X31894Y31854D02*
Y31592D01*
X31697D01*
X31762Y31723D01*
Y31788D01*
X31697Y31854D01*
X31566D01*
X31500Y31788D01*
Y31657D01*
X31566Y31592D01*
X24700Y29698D02*
Y30092D01*
X24503D01*
X24438Y30026D01*
Y29895D01*
X24503Y29829D01*
X24700D01*
X24569D02*
X24438Y29698D01*
X24044Y30092D02*
X24175Y30026D01*
X24306Y29895D01*
Y29764D01*
X24241Y29698D01*
X24110D01*
X24044Y29764D01*
Y29829D01*
X24110Y29895D01*
X24306D01*
X27500Y27598D02*
Y27992D01*
X27303D01*
X27238Y27926D01*
Y27795D01*
X27303Y27729D01*
X27500D01*
X27369D02*
X27238Y27598D01*
X27106Y27992D02*
X26844D01*
Y27926D01*
X27106Y27664D01*
Y27598D01*
X52371Y27827D02*
Y28220D01*
X52174D01*
X52109Y28155D01*
Y28024D01*
X52174Y27958D01*
X52371D01*
X52240D02*
X52109Y27827D01*
X51715Y28220D02*
X51978D01*
Y27827D01*
X51715D01*
X51978Y28024D02*
X51846D01*
X51584Y28220D02*
Y27958D01*
X51453Y27827D01*
X51322Y27958D01*
Y28220D01*
X50797Y27827D02*
X50666D01*
X50731D01*
Y28220D01*
X50797Y28155D01*
X36671Y33420D02*
Y33027D01*
X36474D01*
X36409Y33092D01*
Y33158D01*
X36474Y33224D01*
X36671D01*
X36474D01*
X36409Y33289D01*
Y33355D01*
X36474Y33420D01*
X36671D01*
X37809Y32305D02*
X37874Y32370D01*
X38006D01*
X38071Y32305D01*
Y32239D01*
X38006Y32174D01*
X37874D01*
X37809Y32108D01*
Y32042D01*
X37874Y31977D01*
X38006D01*
X38071Y32042D01*
X37678Y32370D02*
X37415D01*
X37546D01*
Y31977D01*
X37284D02*
Y32239D01*
X37153Y32370D01*
X37022Y32239D01*
Y31977D01*
Y32174D01*
X37284D01*
X36891Y31977D02*
Y32370D01*
X36694D01*
X36628Y32305D01*
Y32174D01*
X36694Y32108D01*
X36891D01*
X36759D02*
X36628Y31977D01*
X36497Y32370D02*
X36235D01*
X36366D01*
Y31977D01*
X36671Y31027D02*
Y31289D01*
X36540Y31420D01*
X36409Y31289D01*
Y31027D01*
Y31224D01*
X36671D01*
X37721Y30370D02*
Y29977D01*
X37524D01*
X37459Y30042D01*
Y30305D01*
X37524Y30370D01*
X37721D01*
X37131D02*
X37262D01*
X37328Y30305D01*
Y30042D01*
X37262Y29977D01*
X37131D01*
X37065Y30042D01*
Y30305D01*
X37131Y30370D01*
X36934D02*
Y29977D01*
X36803Y30108D01*
X36672Y29977D01*
Y30370D01*
X36541Y29977D02*
Y30370D01*
X36278Y29977D01*
Y30370D01*
X37109Y29305D02*
X37174Y29370D01*
X37306D01*
X37371Y29305D01*
Y29042D01*
X37306Y28977D01*
X37174D01*
X37109Y29042D01*
Y29174D01*
X37240D01*
X36978Y28977D02*
Y29370D01*
X36715Y28977D01*
Y29370D01*
X36584D02*
Y28977D01*
X36387D01*
X36322Y29042D01*
Y29305D01*
X36387Y29370D01*
X36584D01*
X33721Y28977D02*
Y29370D01*
X33524D01*
X33459Y29305D01*
Y29174D01*
X33524Y29108D01*
X33721D01*
X33590D02*
X33459Y28977D01*
X33328Y29370D02*
X33196D01*
X33262D01*
Y28977D01*
X33328D01*
X33196D01*
X32737Y29305D02*
X32803Y29370D01*
X32934D01*
X33000Y29305D01*
Y29042D01*
X32934Y28977D01*
X32803D01*
X32737Y29042D01*
Y29174D01*
X32869D01*
X32606Y29370D02*
Y28977D01*
Y29174D01*
X32344D01*
Y29370D01*
Y28977D01*
X32213Y29370D02*
X31950D01*
X32081D01*
Y28977D01*
X33821Y30420D02*
Y30092D01*
X33756Y30027D01*
X33624D01*
X33559Y30092D01*
Y30420D01*
X33428Y30027D02*
Y30420D01*
X33231D01*
X33165Y30355D01*
Y30224D01*
X33231Y30158D01*
X33428D01*
X33559Y32355D02*
X33624Y32420D01*
X33756D01*
X33821Y32355D01*
Y32092D01*
X33756Y32027D01*
X33624D01*
X33559Y32092D01*
Y32224D01*
X33690D01*
X33428Y32027D02*
Y32420D01*
X33165Y32027D01*
Y32420D01*
X33034D02*
Y32027D01*
X32837D01*
X32772Y32092D01*
Y32355D01*
X32837Y32420D01*
X33034D01*
X33771Y31420D02*
Y31027D01*
X33509D01*
X33115Y31420D02*
X33378D01*
Y31027D01*
X33115D01*
X33378Y31224D02*
X33246D01*
X32722Y31420D02*
X32984D01*
Y31224D01*
X32853D01*
X32984D01*
Y31027D01*
X32591Y31420D02*
X32328D01*
X32459D01*
Y31027D01*
X33850Y33392D02*
Y32998D01*
X33588D01*
X33194Y33392D02*
X33456D01*
Y32998D01*
X33194D01*
X33456Y33195D02*
X33325D01*
X33063Y33392D02*
Y32998D01*
X32866D01*
X32800Y33064D01*
Y33326D01*
X32866Y33392D01*
X33063D01*
X42900Y41736D02*
Y42208D01*
X49400Y41686D02*
Y42158D01*
X31600Y36286D02*
Y36758D01*
X47400Y35586D02*
Y36058D01*
X40800Y35586D02*
Y36058D01*
X27000Y36086D02*
Y36558D01*
X31464Y40522D02*
X31936D01*
X24164Y38922D02*
X24636D01*
X30600Y41386D02*
Y41858D01*
X34015Y41572D02*
X35300D01*
X34800D02*
X36101D01*
Y36572D02*
Y41572D01*
X34015Y36572D02*
X36101D01*
X34015D02*
Y41572D01*
X35838Y42166D02*
X35969D01*
X35903D01*
Y41838D01*
X35969Y41772D01*
X36034D01*
X36100Y41838D01*
X35706Y41772D02*
X35575D01*
X35641D01*
Y42166D01*
X35706Y42100D01*
X43450Y41122D02*
Y41516D01*
X43253D01*
X43188Y41450D01*
Y41319D01*
X43253Y41253D01*
X43450D01*
X43319D02*
X43188Y41122D01*
X43056Y41188D02*
X42991Y41122D01*
X42860D01*
X42794Y41188D01*
Y41450D01*
X42860Y41516D01*
X42991D01*
X43056Y41450D01*
Y41384D01*
X42991Y41319D01*
X42794D01*
X49850Y41022D02*
Y41416D01*
X49653D01*
X49588Y41350D01*
Y41219D01*
X49653Y41153D01*
X49850D01*
X49719D02*
X49588Y41022D01*
X49456Y41350D02*
X49391Y41416D01*
X49260D01*
X49194Y41350D01*
Y41284D01*
X49260Y41219D01*
X49194Y41153D01*
Y41088D01*
X49260Y41022D01*
X49391D01*
X49456Y41088D01*
Y41153D01*
X49391Y41219D01*
X49456Y41284D01*
Y41350D01*
X49391Y41219D02*
X49260D01*
X32050Y35722D02*
Y36116D01*
X31853D01*
X31788Y36050D01*
Y35919D01*
X31853Y35853D01*
X32050D01*
X31919D02*
X31788Y35722D01*
X31656D02*
X31525D01*
X31591D01*
Y36116D01*
X31656Y36050D01*
X48100Y36372D02*
Y36766D01*
X47903D01*
X47838Y36700D01*
Y36569D01*
X47903Y36503D01*
X48100D01*
X47969D02*
X47838Y36372D01*
X47444D02*
X47706D01*
X47444Y36634D01*
Y36700D01*
X47510Y36766D01*
X47641D01*
X47706Y36700D01*
X41350Y36272D02*
Y36666D01*
X41153D01*
X41088Y36600D01*
Y36469D01*
X41153Y36403D01*
X41350D01*
X41219D02*
X41088Y36272D01*
X40956Y36600D02*
X40891Y36666D01*
X40760D01*
X40694Y36600D01*
Y36534D01*
X40760Y36469D01*
X40825D01*
X40760D01*
X40694Y36403D01*
Y36338D01*
X40760Y36272D01*
X40891D01*
X40956Y36338D01*
X31150Y42072D02*
Y42466D01*
X30953D01*
X30888Y42400D01*
Y42269D01*
X30953Y42203D01*
X31150D01*
X31019D02*
X30888Y42072D01*
X30560D02*
Y42466D01*
X30756Y42269D01*
X30494D01*
X31500Y39072D02*
X31894D01*
Y39269D01*
X31828Y39334D01*
X31697D01*
X31631Y39269D01*
Y39072D01*
Y39203D02*
X31500Y39334D01*
X31894Y39728D02*
Y39466D01*
X31697D01*
X31762Y39597D01*
Y39662D01*
X31697Y39728D01*
X31566D01*
X31500Y39662D01*
Y39531D01*
X31566Y39466D01*
X24700Y37572D02*
Y37966D01*
X24503D01*
X24438Y37900D01*
Y37769D01*
X24503Y37703D01*
X24700D01*
X24569D02*
X24438Y37572D01*
X24044Y37966D02*
X24175Y37900D01*
X24306Y37769D01*
Y37638D01*
X24241Y37572D01*
X24110D01*
X24044Y37638D01*
Y37703D01*
X24110Y37769D01*
X24306D01*
X27500Y35472D02*
Y35866D01*
X27303D01*
X27238Y35800D01*
Y35669D01*
X27303Y35603D01*
X27500D01*
X27369D02*
X27238Y35472D01*
X27106Y35866D02*
X26844D01*
Y35800D01*
X27106Y35538D01*
Y35472D01*
X52371Y35701D02*
Y36094D01*
X52174D01*
X52109Y36029D01*
Y35898D01*
X52174Y35832D01*
X52371D01*
X52240D02*
X52109Y35701D01*
X51715Y36094D02*
X51978D01*
Y35701D01*
X51715D01*
X51978Y35898D02*
X51846D01*
X51584Y36094D02*
Y35832D01*
X51453Y35701D01*
X51322Y35832D01*
Y36094D01*
X50797Y35701D02*
X50666D01*
X50731D01*
Y36094D01*
X50797Y36029D01*
X36671Y41294D02*
Y40901D01*
X36474D01*
X36409Y40966D01*
Y41032D01*
X36474Y41098D01*
X36671D01*
X36474D01*
X36409Y41163D01*
Y41229D01*
X36474Y41294D01*
X36671D01*
X37809Y40179D02*
X37874Y40244D01*
X38006D01*
X38071Y40179D01*
Y40113D01*
X38006Y40048D01*
X37874D01*
X37809Y39982D01*
Y39916D01*
X37874Y39851D01*
X38006D01*
X38071Y39916D01*
X37678Y40244D02*
X37415D01*
X37546D01*
Y39851D01*
X37284D02*
Y40113D01*
X37153Y40244D01*
X37022Y40113D01*
Y39851D01*
Y40048D01*
X37284D01*
X36891Y39851D02*
Y40244D01*
X36694D01*
X36628Y40179D01*
Y40048D01*
X36694Y39982D01*
X36891D01*
X36759D02*
X36628Y39851D01*
X36497Y40244D02*
X36235D01*
X36366D01*
Y39851D01*
X36671Y38901D02*
Y39163D01*
X36540Y39294D01*
X36409Y39163D01*
Y38901D01*
Y39098D01*
X36671D01*
X37721Y38244D02*
Y37851D01*
X37524D01*
X37459Y37916D01*
Y38179D01*
X37524Y38244D01*
X37721D01*
X37131D02*
X37262D01*
X37328Y38179D01*
Y37916D01*
X37262Y37851D01*
X37131D01*
X37065Y37916D01*
Y38179D01*
X37131Y38244D01*
X36934D02*
Y37851D01*
X36803Y37982D01*
X36672Y37851D01*
Y38244D01*
X36541Y37851D02*
Y38244D01*
X36278Y37851D01*
Y38244D01*
X37109Y37179D02*
X37174Y37244D01*
X37306D01*
X37371Y37179D01*
Y36916D01*
X37306Y36851D01*
X37174D01*
X37109Y36916D01*
Y37048D01*
X37240D01*
X36978Y36851D02*
Y37244D01*
X36715Y36851D01*
Y37244D01*
X36584D02*
Y36851D01*
X36387D01*
X36322Y36916D01*
Y37179D01*
X36387Y37244D01*
X36584D01*
X33721Y36851D02*
Y37244D01*
X33524D01*
X33459Y37179D01*
Y37048D01*
X33524Y36982D01*
X33721D01*
X33590D02*
X33459Y36851D01*
X33328Y37244D02*
X33196D01*
X33262D01*
Y36851D01*
X33328D01*
X33196D01*
X32737Y37179D02*
X32803Y37244D01*
X32934D01*
X33000Y37179D01*
Y36916D01*
X32934Y36851D01*
X32803D01*
X32737Y36916D01*
Y37048D01*
X32869D01*
X32606Y37244D02*
Y36851D01*
Y37048D01*
X32344D01*
Y37244D01*
Y36851D01*
X32213Y37244D02*
X31950D01*
X32081D01*
Y36851D01*
X33821Y38294D02*
Y37966D01*
X33756Y37901D01*
X33624D01*
X33559Y37966D01*
Y38294D01*
X33428Y37901D02*
Y38294D01*
X33231D01*
X33165Y38229D01*
Y38098D01*
X33231Y38032D01*
X33428D01*
X33559Y40229D02*
X33624Y40294D01*
X33756D01*
X33821Y40229D01*
Y39966D01*
X33756Y39901D01*
X33624D01*
X33559Y39966D01*
Y40098D01*
X33690D01*
X33428Y39901D02*
Y40294D01*
X33165Y39901D01*
Y40294D01*
X33034D02*
Y39901D01*
X32837D01*
X32772Y39966D01*
Y40229D01*
X32837Y40294D01*
X33034D01*
X33771Y39294D02*
Y38901D01*
X33509D01*
X33115Y39294D02*
X33378D01*
Y38901D01*
X33115D01*
X33378Y39098D02*
X33246D01*
X32722Y39294D02*
X32984D01*
Y39098D01*
X32853D01*
X32984D01*
Y38901D01*
X32591Y39294D02*
X32328D01*
X32459D01*
Y38901D01*
X33850Y41266D02*
Y40872D01*
X33588D01*
X33194Y41266D02*
X33456D01*
Y40872D01*
X33194D01*
X33456Y41069D02*
X33325D01*
X33063Y41266D02*
Y40872D01*
X32866D01*
X32800Y40938D01*
Y41200D01*
X32866Y41266D01*
X33063D01*
X42900Y49610D02*
Y50082D01*
X49400Y49560D02*
Y50032D01*
X31600Y44160D02*
Y44632D01*
X47400Y43460D02*
Y43932D01*
X40800Y43460D02*
Y43932D01*
X27000Y43960D02*
Y44432D01*
X31464Y48396D02*
X31936D01*
X24164Y46796D02*
X24636D01*
X30600Y49260D02*
Y49732D01*
X34015Y49446D02*
X35300D01*
X34800D02*
X36101D01*
Y44446D02*
Y49446D01*
X34015Y44446D02*
X36101D01*
X34015D02*
Y49446D01*
X35838Y50040D02*
X35969D01*
X35903D01*
Y49712D01*
X35969Y49646D01*
X36034D01*
X36100Y49712D01*
X35706Y49646D02*
X35575D01*
X35641D01*
Y50040D01*
X35706Y49974D01*
X43450Y48996D02*
Y49390D01*
X43253D01*
X43188Y49324D01*
Y49193D01*
X43253Y49127D01*
X43450D01*
X43319D02*
X43188Y48996D01*
X43056Y49062D02*
X42991Y48996D01*
X42860D01*
X42794Y49062D01*
Y49324D01*
X42860Y49390D01*
X42991D01*
X43056Y49324D01*
Y49258D01*
X42991Y49193D01*
X42794D01*
X49850Y48896D02*
Y49290D01*
X49653D01*
X49588Y49224D01*
Y49093D01*
X49653Y49027D01*
X49850D01*
X49719D02*
X49588Y48896D01*
X49456Y49224D02*
X49391Y49290D01*
X49260D01*
X49194Y49224D01*
Y49158D01*
X49260Y49093D01*
X49194Y49027D01*
Y48962D01*
X49260Y48896D01*
X49391D01*
X49456Y48962D01*
Y49027D01*
X49391Y49093D01*
X49456Y49158D01*
Y49224D01*
X49391Y49093D02*
X49260D01*
X32050Y43596D02*
Y43990D01*
X31853D01*
X31788Y43924D01*
Y43793D01*
X31853Y43727D01*
X32050D01*
X31919D02*
X31788Y43596D01*
X31656D02*
X31525D01*
X31591D01*
Y43990D01*
X31656Y43924D01*
X48100Y44246D02*
Y44640D01*
X47903D01*
X47838Y44574D01*
Y44443D01*
X47903Y44377D01*
X48100D01*
X47969D02*
X47838Y44246D01*
X47444D02*
X47706D01*
X47444Y44508D01*
Y44574D01*
X47510Y44640D01*
X47641D01*
X47706Y44574D01*
X41350Y44146D02*
Y44540D01*
X41153D01*
X41088Y44474D01*
Y44343D01*
X41153Y44277D01*
X41350D01*
X41219D02*
X41088Y44146D01*
X40956Y44474D02*
X40891Y44540D01*
X40760D01*
X40694Y44474D01*
Y44408D01*
X40760Y44343D01*
X40825D01*
X40760D01*
X40694Y44277D01*
Y44212D01*
X40760Y44146D01*
X40891D01*
X40956Y44212D01*
X31150Y49946D02*
Y50340D01*
X30953D01*
X30888Y50274D01*
Y50143D01*
X30953Y50077D01*
X31150D01*
X31019D02*
X30888Y49946D01*
X30560D02*
Y50340D01*
X30756Y50143D01*
X30494D01*
X31500Y46946D02*
X31894D01*
Y47143D01*
X31828Y47208D01*
X31697D01*
X31631Y47143D01*
Y46946D01*
Y47077D02*
X31500Y47208D01*
X31894Y47602D02*
Y47340D01*
X31697D01*
X31762Y47471D01*
Y47536D01*
X31697Y47602D01*
X31566D01*
X31500Y47536D01*
Y47405D01*
X31566Y47340D01*
X24700Y45446D02*
Y45840D01*
X24503D01*
X24438Y45774D01*
Y45643D01*
X24503Y45577D01*
X24700D01*
X24569D02*
X24438Y45446D01*
X24044Y45840D02*
X24175Y45774D01*
X24306Y45643D01*
Y45512D01*
X24241Y45446D01*
X24110D01*
X24044Y45512D01*
Y45577D01*
X24110Y45643D01*
X24306D01*
X27500Y43346D02*
Y43740D01*
X27303D01*
X27238Y43674D01*
Y43543D01*
X27303Y43477D01*
X27500D01*
X27369D02*
X27238Y43346D01*
X27106Y43740D02*
X26844D01*
Y43674D01*
X27106Y43412D01*
Y43346D01*
X52371Y43575D02*
Y43968D01*
X52174D01*
X52109Y43903D01*
Y43772D01*
X52174Y43706D01*
X52371D01*
X52240D02*
X52109Y43575D01*
X51715Y43968D02*
X51978D01*
Y43575D01*
X51715D01*
X51978Y43772D02*
X51846D01*
X51584Y43968D02*
Y43706D01*
X51453Y43575D01*
X51322Y43706D01*
Y43968D01*
X50797Y43575D02*
X50666D01*
X50731D01*
Y43968D01*
X50797Y43903D01*
X36671Y49168D02*
Y48775D01*
X36474D01*
X36409Y48840D01*
Y48906D01*
X36474Y48972D01*
X36671D01*
X36474D01*
X36409Y49037D01*
Y49103D01*
X36474Y49168D01*
X36671D01*
X37809Y48053D02*
X37874Y48118D01*
X38006D01*
X38071Y48053D01*
Y47987D01*
X38006Y47922D01*
X37874D01*
X37809Y47856D01*
Y47790D01*
X37874Y47725D01*
X38006D01*
X38071Y47790D01*
X37678Y48118D02*
X37415D01*
X37546D01*
Y47725D01*
X37284D02*
Y47987D01*
X37153Y48118D01*
X37022Y47987D01*
Y47725D01*
Y47922D01*
X37284D01*
X36891Y47725D02*
Y48118D01*
X36694D01*
X36628Y48053D01*
Y47922D01*
X36694Y47856D01*
X36891D01*
X36759D02*
X36628Y47725D01*
X36497Y48118D02*
X36235D01*
X36366D01*
Y47725D01*
X36671Y46775D02*
Y47037D01*
X36540Y47168D01*
X36409Y47037D01*
Y46775D01*
Y46972D01*
X36671D01*
X37721Y46118D02*
Y45725D01*
X37524D01*
X37459Y45790D01*
Y46053D01*
X37524Y46118D01*
X37721D01*
X37131D02*
X37262D01*
X37328Y46053D01*
Y45790D01*
X37262Y45725D01*
X37131D01*
X37065Y45790D01*
Y46053D01*
X37131Y46118D01*
X36934D02*
Y45725D01*
X36803Y45856D01*
X36672Y45725D01*
Y46118D01*
X36541Y45725D02*
Y46118D01*
X36278Y45725D01*
Y46118D01*
X37109Y45053D02*
X37174Y45118D01*
X37306D01*
X37371Y45053D01*
Y44790D01*
X37306Y44725D01*
X37174D01*
X37109Y44790D01*
Y44922D01*
X37240D01*
X36978Y44725D02*
Y45118D01*
X36715Y44725D01*
Y45118D01*
X36584D02*
Y44725D01*
X36387D01*
X36322Y44790D01*
Y45053D01*
X36387Y45118D01*
X36584D01*
X33721Y44725D02*
Y45118D01*
X33524D01*
X33459Y45053D01*
Y44922D01*
X33524Y44856D01*
X33721D01*
X33590D02*
X33459Y44725D01*
X33328Y45118D02*
X33196D01*
X33262D01*
Y44725D01*
X33328D01*
X33196D01*
X32737Y45053D02*
X32803Y45118D01*
X32934D01*
X33000Y45053D01*
Y44790D01*
X32934Y44725D01*
X32803D01*
X32737Y44790D01*
Y44922D01*
X32869D01*
X32606Y45118D02*
Y44725D01*
Y44922D01*
X32344D01*
Y45118D01*
Y44725D01*
X32213Y45118D02*
X31950D01*
X32081D01*
Y44725D01*
X33821Y46168D02*
Y45840D01*
X33756Y45775D01*
X33624D01*
X33559Y45840D01*
Y46168D01*
X33428Y45775D02*
Y46168D01*
X33231D01*
X33165Y46103D01*
Y45972D01*
X33231Y45906D01*
X33428D01*
X33559Y48103D02*
X33624Y48168D01*
X33756D01*
X33821Y48103D01*
Y47840D01*
X33756Y47775D01*
X33624D01*
X33559Y47840D01*
Y47972D01*
X33690D01*
X33428Y47775D02*
Y48168D01*
X33165Y47775D01*
Y48168D01*
X33034D02*
Y47775D01*
X32837D01*
X32772Y47840D01*
Y48103D01*
X32837Y48168D01*
X33034D01*
X33771Y47168D02*
Y46775D01*
X33509D01*
X33115Y47168D02*
X33378D01*
Y46775D01*
X33115D01*
X33378Y46972D02*
X33246D01*
X32722Y47168D02*
X32984D01*
Y46972D01*
X32853D01*
X32984D01*
Y46775D01*
X32591Y47168D02*
X32328D01*
X32459D01*
Y46775D01*
X33850Y49140D02*
Y48746D01*
X33588D01*
X33194Y49140D02*
X33456D01*
Y48746D01*
X33194D01*
X33456Y48943D02*
X33325D01*
X33063Y49140D02*
Y48746D01*
X32866D01*
X32800Y48812D01*
Y49074D01*
X32866Y49140D01*
X33063D01*
M02*
