G04 Layer_Physical_Order=1*
G04 Layer_Color=255*
%FSLAX24Y24*%
%MOIN*%
G70*
G01*
G75*
%ADD10C,0.0100*%
%ADD11R,0.0433X0.0571*%
%ADD12R,0.0571X0.0433*%
%ADD13C,0.0150*%
%ADD14R,0.0787X0.0472*%
%ADD15O,0.0787X0.0472*%
%ADD16O,0.1181X0.0984*%
%ADD17O,0.0984X0.0787*%
%ADD18C,0.0354*%
%ADD19C,0.0984*%
G36*
X54100Y19250D02*
Y11550D01*
X22700D01*
Y19300D01*
X54050D01*
X54100Y19250D01*
D02*
G37*
%LPC*%
G36*
X26700Y13523D02*
Y13300D01*
X26923D01*
X26920Y13322D01*
X26892Y13390D01*
X26848Y13448D01*
X26790Y13492D01*
X26722Y13520D01*
X26700Y13523D01*
D02*
G37*
G36*
X35707Y13789D02*
X35600D01*
Y13500D01*
X36040D01*
X36035Y13538D01*
X36001Y13620D01*
X35947Y13690D01*
X35877Y13744D01*
X35795Y13778D01*
X35707Y13789D01*
D02*
G37*
G36*
X35500D02*
X35393D01*
X35305Y13778D01*
X35223Y13744D01*
X35153Y13690D01*
X35099Y13620D01*
X35077Y13567D01*
X35023D01*
X35001Y13620D01*
X34947Y13690D01*
X34877Y13744D01*
X34795Y13778D01*
X34707Y13789D01*
X34393D01*
X34305Y13778D01*
X34223Y13744D01*
X34153Y13690D01*
X34099Y13620D01*
X34065Y13538D01*
X34053Y13450D01*
X34065Y13362D01*
X34099Y13280D01*
X34153Y13210D01*
X34223Y13156D01*
X34305Y13122D01*
X34393Y13111D01*
X34707D01*
X34795Y13122D01*
X34877Y13156D01*
X34947Y13210D01*
X35001Y13280D01*
X35023Y13333D01*
X35077D01*
X35099Y13280D01*
X35153Y13210D01*
X35223Y13156D01*
X35305Y13122D01*
X35393Y13111D01*
X35500D01*
Y13450D01*
Y13789D01*
D02*
G37*
G36*
X26600Y13523D02*
X26578Y13520D01*
X26510Y13492D01*
X26452Y13448D01*
X26408Y13390D01*
X26380Y13322D01*
X26377Y13300D01*
X26600D01*
Y13523D01*
D02*
G37*
G36*
Y13200D02*
X26377D01*
X26380Y13178D01*
X26408Y13110D01*
X26452Y13052D01*
X26510Y13008D01*
X26578Y12980D01*
X26600Y12977D01*
Y13200D01*
D02*
G37*
G36*
X26923D02*
X26700D01*
Y12977D01*
X26722Y12980D01*
X26790Y13008D01*
X26848Y13052D01*
X26892Y13110D01*
X26920Y13178D01*
X26923Y13200D01*
D02*
G37*
G36*
X36040Y13400D02*
X35600D01*
Y13111D01*
X35707D01*
X35795Y13122D01*
X35877Y13156D01*
X35947Y13210D01*
X36001Y13280D01*
X36035Y13362D01*
X36040Y13400D01*
D02*
G37*
G36*
X26804Y14577D02*
X26607D01*
X26478Y14560D01*
X26358Y14510D01*
X26255Y14431D01*
X26175Y14328D01*
X26126Y14208D01*
X26109Y14079D01*
X26126Y13950D01*
X26175Y13830D01*
X26255Y13727D01*
X26358Y13647D01*
X26478Y13598D01*
X26607Y13581D01*
X26804D01*
X26932Y13598D01*
X27053Y13647D01*
X27156Y13727D01*
X27235Y13830D01*
X27285Y13950D01*
X27301Y14079D01*
X27285Y14208D01*
X27235Y14328D01*
X27156Y14431D01*
X27053Y14510D01*
X26932Y14560D01*
X26804Y14577D01*
D02*
G37*
G36*
X50209Y14969D02*
X50012D01*
X49896Y14958D01*
X49785Y14924D01*
X49682Y14869D01*
X49591Y14795D01*
X49517Y14705D01*
X49463Y14602D01*
X49429Y14490D01*
X49417Y14374D01*
X49429Y14258D01*
X49463Y14146D01*
X49517Y14043D01*
X49591Y13953D01*
X49682Y13879D01*
X49785Y13824D01*
X49896Y13790D01*
X50012Y13779D01*
X50209D01*
X50325Y13790D01*
X50437Y13824D01*
X50540Y13879D01*
X50630Y13953D01*
X50704Y14043D01*
X50759Y14146D01*
X50793Y14258D01*
X50804Y14374D01*
X50793Y14490D01*
X50759Y14602D01*
X50704Y14705D01*
X50630Y14795D01*
X50540Y14869D01*
X50437Y14924D01*
X50325Y14958D01*
X50209Y14969D01*
D02*
G37*
G36*
X35707Y14789D02*
X35393D01*
X35305Y14778D01*
X35223Y14744D01*
X35153Y14690D01*
X35099Y14620D01*
X35077Y14567D01*
X35023D01*
X35001Y14620D01*
X34947Y14690D01*
X34877Y14744D01*
X34795Y14778D01*
X34707Y14789D01*
X34393D01*
X34305Y14778D01*
X34223Y14744D01*
X34153Y14690D01*
X34099Y14620D01*
X34065Y14538D01*
X34053Y14450D01*
X34065Y14362D01*
X34099Y14280D01*
X34153Y14210D01*
X34223Y14156D01*
X34305Y14122D01*
X34393Y14111D01*
X34707D01*
X34795Y14122D01*
X34877Y14156D01*
X34947Y14210D01*
X35001Y14280D01*
X35023Y14333D01*
X35077D01*
X35099Y14280D01*
X35153Y14210D01*
X35223Y14156D01*
X35305Y14122D01*
X35393Y14111D01*
X35707D01*
X35795Y14122D01*
X35877Y14156D01*
X35947Y14210D01*
X36001Y14280D01*
X36035Y14362D01*
X36047Y14450D01*
X36035Y14538D01*
X36001Y14620D01*
X35947Y14690D01*
X35877Y14744D01*
X35795Y14778D01*
X35707Y14789D01*
D02*
G37*
G36*
X26804Y15679D02*
X26607D01*
X26478Y15662D01*
X26358Y15612D01*
X26255Y15533D01*
X26175Y15430D01*
X26126Y15310D01*
X26109Y15181D01*
X26126Y15052D01*
X26175Y14932D01*
X26255Y14829D01*
X26358Y14750D01*
X26478Y14700D01*
X26607Y14683D01*
X26804D01*
X26932Y14700D01*
X27053Y14750D01*
X27156Y14829D01*
X27235Y14932D01*
X27285Y15052D01*
X27301Y15181D01*
X27285Y15310D01*
X27235Y15430D01*
X27156Y15533D01*
X27053Y15612D01*
X26932Y15662D01*
X26804Y15679D01*
D02*
G37*
G36*
X45288Y14969D02*
X45091D01*
X44975Y14958D01*
X44863Y14924D01*
X44760Y14869D01*
X44670Y14795D01*
X44596Y14705D01*
X44541Y14602D01*
X44507Y14490D01*
X44496Y14374D01*
X44507Y14258D01*
X44541Y14146D01*
X44596Y14043D01*
X44670Y13953D01*
X44760Y13879D01*
X44863Y13824D01*
X44975Y13790D01*
X45091Y13779D01*
X45288D01*
X45404Y13790D01*
X45515Y13824D01*
X45618Y13879D01*
X45709Y13953D01*
X45783Y14043D01*
X45837Y14146D01*
X45871Y14258D01*
X45883Y14374D01*
X45871Y14490D01*
X45837Y14602D01*
X45783Y14705D01*
X45709Y14795D01*
X45618Y14869D01*
X45515Y14924D01*
X45404Y14958D01*
X45288Y14969D01*
D02*
G37*
G36*
X30859Y14577D02*
X30662D01*
X30533Y14560D01*
X30413Y14510D01*
X30310Y14431D01*
X30231Y14328D01*
X30181Y14208D01*
X30164Y14079D01*
X30181Y13950D01*
X30231Y13830D01*
X30310Y13727D01*
X30413Y13647D01*
X30533Y13598D01*
X30662Y13581D01*
X30859D01*
X30988Y13598D01*
X31108Y13647D01*
X31211Y13727D01*
X31290Y13830D01*
X31340Y13950D01*
X31357Y14079D01*
X31340Y14208D01*
X31290Y14328D01*
X31211Y14431D01*
X31108Y14510D01*
X30988Y14560D01*
X30859Y14577D01*
D02*
G37*
G36*
X38792Y14969D02*
X38595D01*
X38479Y14958D01*
X38367Y14924D01*
X38264Y14869D01*
X38174Y14795D01*
X38100Y14705D01*
X38045Y14602D01*
X38011Y14490D01*
X38000Y14374D01*
X38011Y14258D01*
X38045Y14146D01*
X38100Y14043D01*
X38174Y13953D01*
X38264Y13879D01*
X38367Y13824D01*
X38479Y13790D01*
X38595Y13779D01*
X38792D01*
X38908Y13790D01*
X39019Y13824D01*
X39122Y13879D01*
X39212Y13953D01*
X39286Y14043D01*
X39341Y14146D01*
X39375Y14258D01*
X39387Y14374D01*
X39375Y14490D01*
X39341Y14602D01*
X39286Y14705D01*
X39212Y14795D01*
X39122Y14869D01*
X39019Y14924D01*
X38908Y14958D01*
X38792Y14969D01*
D02*
G37*
G36*
X43713D02*
X43516D01*
X43400Y14958D01*
X43288Y14924D01*
X43186Y14869D01*
X43095Y14795D01*
X43021Y14705D01*
X42966Y14602D01*
X42933Y14490D01*
X42921Y14374D01*
X42933Y14258D01*
X42966Y14146D01*
X43021Y14043D01*
X43095Y13953D01*
X43186Y13879D01*
X43288Y13824D01*
X43400Y13790D01*
X43516Y13779D01*
X43713D01*
X43829Y13790D01*
X43941Y13824D01*
X44044Y13879D01*
X44134Y13953D01*
X44208Y14043D01*
X44263Y14146D01*
X44297Y14258D01*
X44308Y14374D01*
X44297Y14490D01*
X44263Y14602D01*
X44208Y14705D01*
X44134Y14795D01*
X44044Y14869D01*
X43941Y14924D01*
X43829Y14958D01*
X43713Y14969D01*
D02*
G37*
G36*
X46400Y12150D02*
X46177D01*
X46180Y12128D01*
X46208Y12060D01*
X46252Y12002D01*
X46310Y11958D01*
X46378Y11930D01*
X46400Y11927D01*
Y12150D01*
D02*
G37*
G36*
X46723D02*
X46500D01*
Y11927D01*
X46522Y11930D01*
X46590Y11958D01*
X46648Y12002D01*
X46692Y12060D01*
X46720Y12128D01*
X46723Y12150D01*
D02*
G37*
G36*
X39800Y12473D02*
X39778Y12470D01*
X39710Y12442D01*
X39652Y12398D01*
X39608Y12340D01*
X39580Y12272D01*
X39577Y12250D01*
X39800D01*
Y12473D01*
D02*
G37*
G36*
X40123Y12150D02*
X39900D01*
Y11927D01*
X39922Y11930D01*
X39990Y11958D01*
X40048Y12002D01*
X40092Y12060D01*
X40120Y12128D01*
X40123Y12150D01*
D02*
G37*
G36*
X23437Y12882D02*
X23321Y12871D01*
X23210Y12837D01*
X23107Y12782D01*
X23017Y12708D01*
X22943Y12618D01*
X22888Y12515D01*
X22854Y12403D01*
X22842Y12287D01*
X22854Y12171D01*
X22888Y12060D01*
X22943Y11957D01*
X23017Y11867D01*
X23107Y11793D01*
X23210Y11738D01*
X23321Y11704D01*
X23437Y11692D01*
X23553Y11704D01*
X23665Y11738D01*
X23768Y11793D01*
X23858Y11867D01*
X23932Y11957D01*
X23987Y12060D01*
X24021Y12171D01*
X24032Y12287D01*
X24021Y12403D01*
X23987Y12515D01*
X23932Y12618D01*
X23858Y12708D01*
X23768Y12782D01*
X23665Y12837D01*
X23553Y12871D01*
X23437Y12882D01*
D02*
G37*
G36*
X53359D02*
X53243Y12871D01*
X53131Y12837D01*
X53028Y12782D01*
X52938Y12708D01*
X52864Y12618D01*
X52809Y12515D01*
X52775Y12403D01*
X52764Y12287D01*
X52775Y12171D01*
X52809Y12060D01*
X52864Y11957D01*
X52938Y11867D01*
X53028Y11793D01*
X53131Y11738D01*
X53243Y11704D01*
X53359Y11692D01*
X53475Y11704D01*
X53586Y11738D01*
X53689Y11793D01*
X53779Y11867D01*
X53853Y11957D01*
X53908Y12060D01*
X53942Y12171D01*
X53954Y12287D01*
X53942Y12403D01*
X53908Y12515D01*
X53853Y12618D01*
X53779Y12708D01*
X53689Y12782D01*
X53586Y12837D01*
X53475Y12871D01*
X53359Y12882D01*
D02*
G37*
G36*
X39800Y12150D02*
X39577D01*
X39580Y12128D01*
X39608Y12060D01*
X39652Y12002D01*
X39710Y11958D01*
X39778Y11930D01*
X39800Y11927D01*
Y12150D01*
D02*
G37*
G36*
X39900Y12473D02*
Y12250D01*
X40123D01*
X40120Y12272D01*
X40092Y12340D01*
X40048Y12398D01*
X39990Y12442D01*
X39922Y12470D01*
X39900Y12473D01*
D02*
G37*
G36*
X32823Y12850D02*
X32600D01*
Y12627D01*
X32622Y12630D01*
X32690Y12658D01*
X32748Y12702D01*
X32792Y12760D01*
X32820Y12828D01*
X32823Y12850D01*
D02*
G37*
G36*
X32500Y13173D02*
X32478Y13170D01*
X32410Y13142D01*
X32352Y13098D01*
X32308Y13040D01*
X32280Y12972D01*
X32277Y12950D01*
X32500D01*
Y13173D01*
D02*
G37*
G36*
X32600D02*
Y12950D01*
X32823D01*
X32820Y12972D01*
X32792Y13040D01*
X32748Y13098D01*
X32690Y13142D01*
X32622Y13170D01*
X32600Y13173D01*
D02*
G37*
G36*
X32500Y12850D02*
X32277D01*
X32280Y12828D01*
X32308Y12760D01*
X32352Y12702D01*
X32410Y12658D01*
X32478Y12630D01*
X32500Y12627D01*
Y12850D01*
D02*
G37*
G36*
X46400Y12473D02*
X46378Y12470D01*
X46310Y12442D01*
X46252Y12398D01*
X46208Y12340D01*
X46180Y12272D01*
X46177Y12250D01*
X46400D01*
Y12473D01*
D02*
G37*
G36*
X46500D02*
Y12250D01*
X46723D01*
X46720Y12272D01*
X46692Y12340D01*
X46648Y12398D01*
X46590Y12442D01*
X46522Y12470D01*
X46500Y12473D01*
D02*
G37*
G36*
X33250Y18903D02*
X29000D01*
X28941Y18891D01*
X28892Y18858D01*
X28400Y18366D01*
X28040D01*
Y18134D01*
X26631D01*
X26572Y18122D01*
X26523Y18089D01*
X25258Y16825D01*
X25225Y16775D01*
X25214Y16717D01*
Y15991D01*
X24981D01*
Y15827D01*
X24774D01*
X24716Y15816D01*
X24666Y15783D01*
X24242Y15358D01*
X24209Y15309D01*
X24197Y15250D01*
Y14500D01*
X24209Y14441D01*
X24242Y14392D01*
X26642Y11992D01*
X26691Y11959D01*
X26750Y11947D01*
X28700D01*
X28759Y11959D01*
X28808Y11992D01*
X29112Y12295D01*
X29460D01*
Y12528D01*
X30531D01*
X30589Y12539D01*
X30639Y12573D01*
X32208Y14142D01*
X32241Y14191D01*
X32253Y14250D01*
Y14570D01*
X32485D01*
Y15204D01*
X31715D01*
Y14570D01*
X31947D01*
Y14313D01*
X30467Y12834D01*
X29460D01*
Y13066D01*
X28827D01*
Y12443D01*
X28723Y12339D01*
X28673Y12360D01*
Y13066D01*
X28040D01*
Y12982D01*
X28000Y12951D01*
X27990Y12951D01*
X27919Y12960D01*
X27847Y12951D01*
X27780Y12923D01*
X27722Y12878D01*
X27677Y12820D01*
X27649Y12753D01*
X27640Y12681D01*
X27649Y12608D01*
X27677Y12541D01*
X27722Y12483D01*
X27780Y12439D01*
X27847Y12411D01*
X27919Y12401D01*
X27990Y12410D01*
X28000Y12411D01*
X28040Y12380D01*
Y12303D01*
X28040Y12295D01*
X28021Y12253D01*
X26813D01*
X24503Y14563D01*
Y15187D01*
X24838Y15521D01*
X24981D01*
Y15358D01*
X25752D01*
Y15991D01*
X25519D01*
Y16653D01*
X26694Y17828D01*
X28040D01*
Y17595D01*
X28673D01*
Y18207D01*
X28781Y18315D01*
X28827Y18296D01*
Y17595D01*
X29460D01*
Y17776D01*
X29510Y17801D01*
X29541Y17777D01*
X29608Y17749D01*
X29681Y17740D01*
X29753Y17749D01*
X29820Y17777D01*
X29878Y17822D01*
X29923Y17880D01*
X29951Y17947D01*
X29960Y18019D01*
X29951Y18092D01*
X29923Y18159D01*
X29878Y18217D01*
X29820Y18261D01*
X29753Y18289D01*
X29681Y18299D01*
X29608Y18289D01*
X29541Y18261D01*
X29510Y18238D01*
X29460Y18262D01*
Y18366D01*
X28898D01*
X28879Y18412D01*
X29063Y18597D01*
X33187D01*
X34127Y17657D01*
X34099Y17620D01*
X34065Y17538D01*
X34053Y17450D01*
X34065Y17362D01*
X34099Y17280D01*
X34153Y17210D01*
X34223Y17156D01*
X34231Y17153D01*
X34221Y17103D01*
X31300D01*
X31241Y17091D01*
X31192Y17058D01*
X31161Y17028D01*
X31108Y17069D01*
X30988Y17119D01*
X30859Y17136D01*
X30662D01*
X30533Y17119D01*
X30413Y17069D01*
X30310Y16990D01*
X30231Y16887D01*
X30181Y16767D01*
X30164Y16638D01*
X30181Y16509D01*
X30231Y16389D01*
X30310Y16286D01*
X30413Y16207D01*
X30533Y16157D01*
X30662Y16140D01*
X30859D01*
X30988Y16157D01*
X31108Y16207D01*
X31211Y16286D01*
X31290Y16389D01*
X31340Y16509D01*
X31357Y16638D01*
X31341Y16756D01*
X31371Y16792D01*
X31377Y16797D01*
X32235D01*
X32251Y16750D01*
X32252Y16747D01*
X32208Y16690D01*
X32180Y16622D01*
X32170Y16550D01*
X32178Y16494D01*
X31992Y16308D01*
X31959Y16259D01*
X31947Y16200D01*
Y15991D01*
X31715D01*
Y15358D01*
X32485D01*
Y15991D01*
X32253D01*
Y16137D01*
X32394Y16278D01*
X32450Y16270D01*
X32522Y16280D01*
X32590Y16308D01*
X32648Y16352D01*
X32692Y16410D01*
X32720Y16478D01*
X32730Y16550D01*
X32720Y16622D01*
X32692Y16690D01*
X32648Y16747D01*
X32649Y16750D01*
X32665Y16797D01*
X34221D01*
X34231Y16747D01*
X34223Y16744D01*
X34153Y16690D01*
X34099Y16620D01*
X34065Y16538D01*
X34060Y16500D01*
X34550D01*
Y16450D01*
X34600D01*
Y16111D01*
X34707D01*
X34795Y16122D01*
X34877Y16156D01*
X34947Y16210D01*
X35001Y16280D01*
X35023Y16333D01*
X35077D01*
X35099Y16280D01*
X35153Y16210D01*
X35223Y16156D01*
X35305Y16122D01*
X35393Y16111D01*
X35707D01*
X35795Y16122D01*
X35877Y16156D01*
X35947Y16210D01*
X36001Y16280D01*
X36035Y16362D01*
X36047Y16450D01*
X36035Y16538D01*
X36001Y16620D01*
X35947Y16690D01*
X35877Y16744D01*
X35795Y16778D01*
X35707Y16789D01*
X35427D01*
X35158Y17058D01*
X35150Y17064D01*
X35165Y17114D01*
X36044D01*
Y17786D01*
X35168D01*
X35149Y17832D01*
X35463Y18147D01*
X38537D01*
X41871Y14812D01*
Y13200D01*
X41883Y13141D01*
X41916Y13092D01*
X42546Y12462D01*
X42527Y12416D01*
X42273D01*
X42163Y12526D01*
X42167Y12550D01*
X42157Y12622D01*
X42129Y12690D01*
X42085Y12748D01*
X42027Y12792D01*
X41959Y12820D01*
X41887Y12830D01*
X41815Y12820D01*
X41747Y12792D01*
X41689Y12748D01*
X41645Y12690D01*
X41617Y12622D01*
X41607Y12550D01*
X41617Y12478D01*
X41645Y12410D01*
X41689Y12352D01*
X41747Y12308D01*
X41815Y12280D01*
X41887Y12270D01*
X41911Y12274D01*
X42090Y12095D01*
Y11645D01*
X42723D01*
Y12220D01*
X42769Y12239D01*
X42877Y12131D01*
Y11645D01*
X43510D01*
Y12131D01*
X43976Y12597D01*
X49137D01*
X49218Y12516D01*
X49197Y12466D01*
X49184Y12466D01*
X48590D01*
Y12425D01*
X48569Y12412D01*
X48540Y12404D01*
X48490Y12442D01*
X48422Y12470D01*
X48350Y12480D01*
X48278Y12470D01*
X48210Y12442D01*
X48152Y12398D01*
X48108Y12340D01*
X48080Y12272D01*
X48070Y12200D01*
X48080Y12128D01*
X48108Y12060D01*
X48152Y12002D01*
X48210Y11958D01*
X48278Y11930D01*
X48350Y11920D01*
X48422Y11930D01*
X48490Y11958D01*
X48540Y11996D01*
X48569Y11988D01*
X48590Y11975D01*
Y11695D01*
X49223D01*
Y12427D01*
X49223Y12440D01*
X49244Y12449D01*
X49273Y12461D01*
X49377Y12357D01*
Y11695D01*
X50010D01*
Y12466D01*
X49700D01*
X49308Y12858D01*
X49259Y12891D01*
X49200Y12903D01*
X43913D01*
X43854Y12891D01*
X43805Y12858D01*
X43363Y12416D01*
X43025D01*
X42177Y13263D01*
Y14876D01*
X42166Y14934D01*
X42133Y14984D01*
X38708Y18408D01*
X38659Y18441D01*
X38600Y18453D01*
X35400D01*
X35341Y18441D01*
X35292Y18408D01*
X34673Y17789D01*
X34427D01*
X33358Y18858D01*
X33309Y18891D01*
X33250Y18903D01*
D02*
G37*
G36*
X30859Y15679D02*
X30662D01*
X30533Y15662D01*
X30413Y15612D01*
X30310Y15533D01*
X30231Y15430D01*
X30181Y15310D01*
X30164Y15181D01*
X30181Y15052D01*
X30231Y14932D01*
X30310Y14829D01*
X30413Y14750D01*
X30533Y14700D01*
X30662Y14683D01*
X30859D01*
X30988Y14700D01*
X31108Y14750D01*
X31211Y14829D01*
X31290Y14932D01*
X31340Y15052D01*
X31357Y15181D01*
X31340Y15310D01*
X31290Y15430D01*
X31211Y15533D01*
X31108Y15612D01*
X30988Y15662D01*
X30859Y15679D01*
D02*
G37*
G36*
X53359Y19182D02*
X53243Y19170D01*
X53131Y19136D01*
X53028Y19081D01*
X52938Y19007D01*
X52864Y18917D01*
X52809Y18814D01*
X52775Y18703D01*
X52764Y18587D01*
X52775Y18471D01*
X52809Y18359D01*
X52864Y18256D01*
X52938Y18166D01*
X53028Y18092D01*
X53131Y18037D01*
X53243Y18003D01*
X53359Y17992D01*
X53475Y18003D01*
X53586Y18037D01*
X53689Y18092D01*
X53779Y18166D01*
X53853Y18256D01*
X53908Y18359D01*
X53942Y18471D01*
X53954Y18587D01*
X53942Y18703D01*
X53908Y18814D01*
X53853Y18917D01*
X53779Y19007D01*
X53689Y19081D01*
X53586Y19136D01*
X53475Y19170D01*
X53359Y19182D01*
D02*
G37*
G36*
X48350Y18250D02*
X48127D01*
X48130Y18228D01*
X48158Y18160D01*
X48202Y18102D01*
X48260Y18058D01*
X48328Y18030D01*
X48350Y18027D01*
Y18250D01*
D02*
G37*
G36*
X48673D02*
X48450D01*
Y18027D01*
X48472Y18030D01*
X48540Y18058D01*
X48598Y18102D01*
X48642Y18160D01*
X48670Y18228D01*
X48673Y18250D01*
D02*
G37*
G36*
X23437Y19182D02*
X23321Y19170D01*
X23210Y19136D01*
X23107Y19081D01*
X23017Y19007D01*
X22943Y18917D01*
X22888Y18814D01*
X22854Y18703D01*
X22842Y18587D01*
X22854Y18471D01*
X22888Y18359D01*
X22943Y18256D01*
X23017Y18166D01*
X23107Y18092D01*
X23210Y18037D01*
X23321Y18003D01*
X23437Y17992D01*
X23553Y18003D01*
X23665Y18037D01*
X23768Y18092D01*
X23858Y18166D01*
X23932Y18256D01*
X23987Y18359D01*
X24021Y18471D01*
X24032Y18587D01*
X24021Y18703D01*
X23987Y18814D01*
X23932Y18917D01*
X23858Y19007D01*
X23768Y19081D01*
X23665Y19136D01*
X23553Y19170D01*
X23437Y19182D01*
D02*
G37*
G36*
X31873Y17950D02*
X31650D01*
Y17727D01*
X31672Y17730D01*
X31740Y17758D01*
X31798Y17802D01*
X31842Y17860D01*
X31870Y17928D01*
X31873Y17950D01*
D02*
G37*
G36*
X32400Y18023D02*
X32378Y18020D01*
X32310Y17992D01*
X32252Y17948D01*
X32208Y17890D01*
X32180Y17822D01*
X32177Y17800D01*
X32400D01*
Y18023D01*
D02*
G37*
G36*
X32500D02*
Y17800D01*
X32723D01*
X32720Y17822D01*
X32692Y17890D01*
X32648Y17948D01*
X32590Y17992D01*
X32522Y18020D01*
X32500Y18023D01*
D02*
G37*
G36*
X31550Y18273D02*
X31528Y18270D01*
X31460Y18242D01*
X31402Y18198D01*
X31358Y18140D01*
X31330Y18072D01*
X31327Y18050D01*
X31550D01*
Y18273D01*
D02*
G37*
G36*
X48450Y18573D02*
Y18350D01*
X48673D01*
X48670Y18372D01*
X48642Y18440D01*
X48598Y18498D01*
X48540Y18542D01*
X48472Y18570D01*
X48450Y18573D01*
D02*
G37*
G36*
X41900Y18623D02*
X41878Y18620D01*
X41810Y18592D01*
X41752Y18548D01*
X41708Y18490D01*
X41680Y18422D01*
X41677Y18400D01*
X41900D01*
Y18623D01*
D02*
G37*
G36*
X42000D02*
Y18400D01*
X42223D01*
X42220Y18422D01*
X42192Y18490D01*
X42148Y18548D01*
X42090Y18592D01*
X42022Y18620D01*
X42000Y18623D01*
D02*
G37*
G36*
X48350Y18573D02*
X48328Y18570D01*
X48260Y18542D01*
X48202Y18498D01*
X48158Y18440D01*
X48130Y18372D01*
X48127Y18350D01*
X48350D01*
Y18573D01*
D02*
G37*
G36*
X31650Y18273D02*
Y18050D01*
X31873D01*
X31870Y18072D01*
X31842Y18140D01*
X31798Y18198D01*
X31740Y18242D01*
X31672Y18270D01*
X31650Y18273D01*
D02*
G37*
G36*
X41900Y18300D02*
X41677D01*
X41680Y18278D01*
X41708Y18210D01*
X41752Y18152D01*
X41810Y18108D01*
X41878Y18080D01*
X41900Y18077D01*
Y18300D01*
D02*
G37*
G36*
X42223D02*
X42000D01*
Y18077D01*
X42022Y18080D01*
X42090Y18108D01*
X42148Y18152D01*
X42192Y18210D01*
X42220Y18278D01*
X42223Y18300D01*
D02*
G37*
G36*
X23850Y15923D02*
Y15700D01*
X24073D01*
X24070Y15722D01*
X24042Y15790D01*
X23998Y15848D01*
X23940Y15892D01*
X23872Y15920D01*
X23850Y15923D01*
D02*
G37*
G36*
X23750D02*
X23728Y15920D01*
X23660Y15892D01*
X23602Y15848D01*
X23558Y15790D01*
X23530Y15722D01*
X23527Y15700D01*
X23750D01*
Y15923D01*
D02*
G37*
G36*
X43713Y16938D02*
X43516D01*
X43400Y16926D01*
X43288Y16892D01*
X43186Y16837D01*
X43095Y16763D01*
X43021Y16673D01*
X42966Y16570D01*
X42933Y16459D01*
X42921Y16343D01*
X42933Y16226D01*
X42966Y16115D01*
X43021Y16012D01*
X43095Y15922D01*
X43186Y15848D01*
X43288Y15793D01*
X43400Y15759D01*
X43516Y15748D01*
X43713D01*
X43829Y15759D01*
X43941Y15793D01*
X44044Y15848D01*
X44134Y15922D01*
X44208Y16012D01*
X44263Y16115D01*
X44297Y16226D01*
X44308Y16343D01*
X44297Y16459D01*
X44263Y16570D01*
X44208Y16673D01*
X44134Y16763D01*
X44044Y16837D01*
X43941Y16892D01*
X43829Y16926D01*
X43713Y16938D01*
D02*
G37*
G36*
X38792D02*
X38595D01*
X38479Y16926D01*
X38367Y16892D01*
X38264Y16837D01*
X38174Y16763D01*
X38100Y16673D01*
X38045Y16570D01*
X38011Y16459D01*
X38000Y16343D01*
X38011Y16226D01*
X38045Y16115D01*
X38100Y16012D01*
X38174Y15922D01*
X38264Y15848D01*
X38367Y15793D01*
X38479Y15759D01*
X38595Y15748D01*
X38792D01*
X38908Y15759D01*
X39019Y15793D01*
X39122Y15848D01*
X39212Y15922D01*
X39286Y16012D01*
X39341Y16115D01*
X39375Y16226D01*
X39387Y16343D01*
X39375Y16459D01*
X39341Y16570D01*
X39286Y16673D01*
X39212Y16763D01*
X39122Y16837D01*
X39019Y16892D01*
X38908Y16926D01*
X38792Y16938D01*
D02*
G37*
G36*
X23750Y15600D02*
X23527D01*
X23530Y15578D01*
X23558Y15510D01*
X23602Y15452D01*
X23660Y15408D01*
X23728Y15380D01*
X23750Y15377D01*
Y15600D01*
D02*
G37*
G36*
X25752Y15204D02*
X24981D01*
Y15178D01*
X24950Y15157D01*
X24931Y15152D01*
X24865Y15160D01*
X24793Y15151D01*
X24725Y15123D01*
X24667Y15078D01*
X24623Y15020D01*
X24595Y14953D01*
X24585Y14881D01*
X24595Y14808D01*
X24623Y14741D01*
X24667Y14683D01*
X24725Y14639D01*
X24793Y14611D01*
X24865Y14601D01*
X24931Y14610D01*
X24950Y14604D01*
X24981Y14584D01*
Y14570D01*
X25752D01*
Y15204D01*
D02*
G37*
G36*
X35707Y15789D02*
X35393D01*
X35305Y15778D01*
X35223Y15744D01*
X35153Y15690D01*
X35099Y15620D01*
X35077Y15567D01*
X35023D01*
X35001Y15620D01*
X34947Y15690D01*
X34877Y15744D01*
X34795Y15778D01*
X34707Y15789D01*
X34393D01*
X34305Y15778D01*
X34223Y15744D01*
X34153Y15690D01*
X34099Y15620D01*
X34065Y15538D01*
X34053Y15450D01*
X34065Y15362D01*
X34099Y15280D01*
X34153Y15210D01*
X34223Y15156D01*
X34305Y15122D01*
X34393Y15111D01*
X34707D01*
X34795Y15122D01*
X34877Y15156D01*
X34947Y15210D01*
X35001Y15280D01*
X35023Y15333D01*
X35077D01*
X35099Y15280D01*
X35153Y15210D01*
X35223Y15156D01*
X35305Y15122D01*
X35393Y15111D01*
X35707D01*
X35795Y15122D01*
X35877Y15156D01*
X35947Y15210D01*
X36001Y15280D01*
X36035Y15362D01*
X36047Y15450D01*
X36035Y15538D01*
X36001Y15620D01*
X35947Y15690D01*
X35877Y15744D01*
X35795Y15778D01*
X35707Y15789D01*
D02*
G37*
G36*
X24073Y15600D02*
X23850D01*
Y15377D01*
X23872Y15380D01*
X23940Y15408D01*
X23998Y15452D01*
X24042Y15510D01*
X24070Y15578D01*
X24073Y15600D01*
D02*
G37*
G36*
X32400Y17700D02*
X32177D01*
X32180Y17678D01*
X32208Y17610D01*
X32252Y17552D01*
X32310Y17508D01*
X32378Y17480D01*
X32400Y17477D01*
Y17700D01*
D02*
G37*
G36*
X32723D02*
X32500D01*
Y17477D01*
X32522Y17480D01*
X32590Y17508D01*
X32648Y17552D01*
X32692Y17610D01*
X32720Y17678D01*
X32723Y17700D01*
D02*
G37*
G36*
X31550Y17950D02*
X31327D01*
X31330Y17928D01*
X31358Y17860D01*
X31402Y17802D01*
X31460Y17758D01*
X31528Y17730D01*
X31550Y17727D01*
Y17950D01*
D02*
G37*
G36*
X26804Y17136D02*
X26607D01*
X26478Y17119D01*
X26358Y17069D01*
X26255Y16990D01*
X26175Y16887D01*
X26126Y16767D01*
X26109Y16638D01*
X26126Y16509D01*
X26175Y16389D01*
X26255Y16286D01*
X26358Y16207D01*
X26478Y16157D01*
X26607Y16140D01*
X26804D01*
X26932Y16157D01*
X27053Y16207D01*
X27156Y16286D01*
X27235Y16389D01*
X27285Y16509D01*
X27301Y16638D01*
X27285Y16767D01*
X27235Y16887D01*
X27156Y16990D01*
X27053Y17069D01*
X26932Y17119D01*
X26804Y17136D01*
D02*
G37*
G36*
X50209Y16938D02*
X50012D01*
X49896Y16926D01*
X49785Y16892D01*
X49682Y16837D01*
X49591Y16763D01*
X49517Y16673D01*
X49463Y16570D01*
X49429Y16459D01*
X49417Y16343D01*
X49429Y16226D01*
X49463Y16115D01*
X49517Y16012D01*
X49591Y15922D01*
X49682Y15848D01*
X49785Y15793D01*
X49896Y15759D01*
X50012Y15748D01*
X50209D01*
X50325Y15759D01*
X50437Y15793D01*
X50540Y15848D01*
X50630Y15922D01*
X50704Y16012D01*
X50759Y16115D01*
X50793Y16226D01*
X50804Y16343D01*
X50793Y16459D01*
X50759Y16570D01*
X50704Y16673D01*
X50630Y16763D01*
X50540Y16837D01*
X50437Y16892D01*
X50325Y16926D01*
X50209Y16938D01*
D02*
G37*
G36*
X45288D02*
X45091D01*
X44975Y16926D01*
X44863Y16892D01*
X44760Y16837D01*
X44670Y16763D01*
X44596Y16673D01*
X44541Y16570D01*
X44507Y16459D01*
X44496Y16343D01*
X44507Y16226D01*
X44541Y16115D01*
X44596Y16012D01*
X44670Y15922D01*
X44760Y15848D01*
X44863Y15793D01*
X44975Y15759D01*
X45091Y15748D01*
X45288D01*
X45404Y15759D01*
X45515Y15793D01*
X45618Y15848D01*
X45709Y15922D01*
X45783Y16012D01*
X45837Y16115D01*
X45871Y16226D01*
X45883Y16343D01*
X45871Y16459D01*
X45837Y16570D01*
X45783Y16673D01*
X45709Y16763D01*
X45618Y16837D01*
X45515Y16892D01*
X45404Y16926D01*
X45288Y16938D01*
D02*
G37*
G36*
X34500Y16400D02*
X34060D01*
X34065Y16362D01*
X34099Y16280D01*
X34153Y16210D01*
X34223Y16156D01*
X34305Y16122D01*
X34393Y16111D01*
X34500D01*
Y16400D01*
D02*
G37*
%LPD*%
G36*
X28450Y18050D02*
Y17950D01*
X28400Y18100D01*
X28450Y18050D01*
D02*
G37*
G36*
X54100Y27124D02*
Y19424D01*
X22700D01*
Y27174D01*
X54050D01*
X54100Y27124D01*
D02*
G37*
%LPC*%
G36*
X26700Y21397D02*
Y21174D01*
X26923D01*
X26920Y21196D01*
X26892Y21264D01*
X26848Y21322D01*
X26790Y21366D01*
X26722Y21394D01*
X26700Y21397D01*
D02*
G37*
G36*
X35707Y21663D02*
X35600D01*
Y21374D01*
X36040D01*
X36035Y21412D01*
X36001Y21494D01*
X35947Y21564D01*
X35877Y21618D01*
X35795Y21652D01*
X35707Y21663D01*
D02*
G37*
G36*
X35500D02*
X35393D01*
X35305Y21652D01*
X35223Y21618D01*
X35153Y21564D01*
X35099Y21494D01*
X35077Y21441D01*
X35023D01*
X35001Y21494D01*
X34947Y21564D01*
X34877Y21618D01*
X34795Y21652D01*
X34707Y21663D01*
X34393D01*
X34305Y21652D01*
X34223Y21618D01*
X34153Y21564D01*
X34099Y21494D01*
X34065Y21412D01*
X34053Y21324D01*
X34065Y21236D01*
X34099Y21154D01*
X34153Y21084D01*
X34223Y21030D01*
X34305Y20996D01*
X34393Y20985D01*
X34707D01*
X34795Y20996D01*
X34877Y21030D01*
X34947Y21084D01*
X35001Y21154D01*
X35023Y21207D01*
X35077D01*
X35099Y21154D01*
X35153Y21084D01*
X35223Y21030D01*
X35305Y20996D01*
X35393Y20985D01*
X35500D01*
Y21324D01*
Y21663D01*
D02*
G37*
G36*
X26600Y21397D02*
X26578Y21394D01*
X26510Y21366D01*
X26452Y21322D01*
X26408Y21264D01*
X26380Y21196D01*
X26377Y21174D01*
X26600D01*
Y21397D01*
D02*
G37*
G36*
Y21074D02*
X26377D01*
X26380Y21052D01*
X26408Y20984D01*
X26452Y20926D01*
X26510Y20882D01*
X26578Y20854D01*
X26600Y20851D01*
Y21074D01*
D02*
G37*
G36*
X26923D02*
X26700D01*
Y20851D01*
X26722Y20854D01*
X26790Y20882D01*
X26848Y20926D01*
X26892Y20984D01*
X26920Y21052D01*
X26923Y21074D01*
D02*
G37*
G36*
X36040Y21274D02*
X35600D01*
Y20985D01*
X35707D01*
X35795Y20996D01*
X35877Y21030D01*
X35947Y21084D01*
X36001Y21154D01*
X36035Y21236D01*
X36040Y21274D01*
D02*
G37*
G36*
X26804Y22451D02*
X26607D01*
X26478Y22434D01*
X26358Y22384D01*
X26255Y22305D01*
X26175Y22202D01*
X26126Y22082D01*
X26109Y21953D01*
X26126Y21824D01*
X26175Y21704D01*
X26255Y21601D01*
X26358Y21522D01*
X26478Y21472D01*
X26607Y21455D01*
X26804D01*
X26932Y21472D01*
X27053Y21522D01*
X27156Y21601D01*
X27235Y21704D01*
X27285Y21824D01*
X27301Y21953D01*
X27285Y22082D01*
X27235Y22202D01*
X27156Y22305D01*
X27053Y22384D01*
X26932Y22434D01*
X26804Y22451D01*
D02*
G37*
G36*
X50209Y22843D02*
X50012D01*
X49896Y22832D01*
X49785Y22798D01*
X49682Y22743D01*
X49591Y22669D01*
X49517Y22579D01*
X49463Y22476D01*
X49429Y22364D01*
X49417Y22248D01*
X49429Y22132D01*
X49463Y22020D01*
X49517Y21917D01*
X49591Y21827D01*
X49682Y21753D01*
X49785Y21698D01*
X49896Y21664D01*
X50012Y21653D01*
X50209D01*
X50325Y21664D01*
X50437Y21698D01*
X50540Y21753D01*
X50630Y21827D01*
X50704Y21917D01*
X50759Y22020D01*
X50793Y22132D01*
X50804Y22248D01*
X50793Y22364D01*
X50759Y22476D01*
X50704Y22579D01*
X50630Y22669D01*
X50540Y22743D01*
X50437Y22798D01*
X50325Y22832D01*
X50209Y22843D01*
D02*
G37*
G36*
X35707Y22663D02*
X35393D01*
X35305Y22652D01*
X35223Y22618D01*
X35153Y22564D01*
X35099Y22494D01*
X35077Y22441D01*
X35023D01*
X35001Y22494D01*
X34947Y22564D01*
X34877Y22618D01*
X34795Y22652D01*
X34707Y22663D01*
X34393D01*
X34305Y22652D01*
X34223Y22618D01*
X34153Y22564D01*
X34099Y22494D01*
X34065Y22412D01*
X34053Y22324D01*
X34065Y22236D01*
X34099Y22154D01*
X34153Y22084D01*
X34223Y22030D01*
X34305Y21996D01*
X34393Y21985D01*
X34707D01*
X34795Y21996D01*
X34877Y22030D01*
X34947Y22084D01*
X35001Y22154D01*
X35023Y22207D01*
X35077D01*
X35099Y22154D01*
X35153Y22084D01*
X35223Y22030D01*
X35305Y21996D01*
X35393Y21985D01*
X35707D01*
X35795Y21996D01*
X35877Y22030D01*
X35947Y22084D01*
X36001Y22154D01*
X36035Y22236D01*
X36047Y22324D01*
X36035Y22412D01*
X36001Y22494D01*
X35947Y22564D01*
X35877Y22618D01*
X35795Y22652D01*
X35707Y22663D01*
D02*
G37*
G36*
X26804Y23553D02*
X26607D01*
X26478Y23536D01*
X26358Y23486D01*
X26255Y23407D01*
X26175Y23304D01*
X26126Y23184D01*
X26109Y23055D01*
X26126Y22926D01*
X26175Y22806D01*
X26255Y22703D01*
X26358Y22624D01*
X26478Y22574D01*
X26607Y22557D01*
X26804D01*
X26932Y22574D01*
X27053Y22624D01*
X27156Y22703D01*
X27235Y22806D01*
X27285Y22926D01*
X27301Y23055D01*
X27285Y23184D01*
X27235Y23304D01*
X27156Y23407D01*
X27053Y23486D01*
X26932Y23536D01*
X26804Y23553D01*
D02*
G37*
G36*
X45288Y22843D02*
X45091D01*
X44975Y22832D01*
X44863Y22798D01*
X44760Y22743D01*
X44670Y22669D01*
X44596Y22579D01*
X44541Y22476D01*
X44507Y22364D01*
X44496Y22248D01*
X44507Y22132D01*
X44541Y22020D01*
X44596Y21917D01*
X44670Y21827D01*
X44760Y21753D01*
X44863Y21698D01*
X44975Y21664D01*
X45091Y21653D01*
X45288D01*
X45404Y21664D01*
X45515Y21698D01*
X45618Y21753D01*
X45709Y21827D01*
X45783Y21917D01*
X45837Y22020D01*
X45871Y22132D01*
X45883Y22248D01*
X45871Y22364D01*
X45837Y22476D01*
X45783Y22579D01*
X45709Y22669D01*
X45618Y22743D01*
X45515Y22798D01*
X45404Y22832D01*
X45288Y22843D01*
D02*
G37*
G36*
X30859Y22451D02*
X30662D01*
X30533Y22434D01*
X30413Y22384D01*
X30310Y22305D01*
X30231Y22202D01*
X30181Y22082D01*
X30164Y21953D01*
X30181Y21824D01*
X30231Y21704D01*
X30310Y21601D01*
X30413Y21522D01*
X30533Y21472D01*
X30662Y21455D01*
X30859D01*
X30988Y21472D01*
X31108Y21522D01*
X31211Y21601D01*
X31290Y21704D01*
X31340Y21824D01*
X31357Y21953D01*
X31340Y22082D01*
X31290Y22202D01*
X31211Y22305D01*
X31108Y22384D01*
X30988Y22434D01*
X30859Y22451D01*
D02*
G37*
G36*
X38792Y22843D02*
X38595D01*
X38479Y22832D01*
X38367Y22798D01*
X38264Y22743D01*
X38174Y22669D01*
X38100Y22579D01*
X38045Y22476D01*
X38011Y22364D01*
X38000Y22248D01*
X38011Y22132D01*
X38045Y22020D01*
X38100Y21917D01*
X38174Y21827D01*
X38264Y21753D01*
X38367Y21698D01*
X38479Y21664D01*
X38595Y21653D01*
X38792D01*
X38908Y21664D01*
X39019Y21698D01*
X39122Y21753D01*
X39212Y21827D01*
X39286Y21917D01*
X39341Y22020D01*
X39375Y22132D01*
X39387Y22248D01*
X39375Y22364D01*
X39341Y22476D01*
X39286Y22579D01*
X39212Y22669D01*
X39122Y22743D01*
X39019Y22798D01*
X38908Y22832D01*
X38792Y22843D01*
D02*
G37*
G36*
X43713D02*
X43516D01*
X43400Y22832D01*
X43288Y22798D01*
X43186Y22743D01*
X43095Y22669D01*
X43021Y22579D01*
X42966Y22476D01*
X42933Y22364D01*
X42921Y22248D01*
X42933Y22132D01*
X42966Y22020D01*
X43021Y21917D01*
X43095Y21827D01*
X43186Y21753D01*
X43288Y21698D01*
X43400Y21664D01*
X43516Y21653D01*
X43713D01*
X43829Y21664D01*
X43941Y21698D01*
X44044Y21753D01*
X44134Y21827D01*
X44208Y21917D01*
X44263Y22020D01*
X44297Y22132D01*
X44308Y22248D01*
X44297Y22364D01*
X44263Y22476D01*
X44208Y22579D01*
X44134Y22669D01*
X44044Y22743D01*
X43941Y22798D01*
X43829Y22832D01*
X43713Y22843D01*
D02*
G37*
G36*
X46400Y20024D02*
X46177D01*
X46180Y20002D01*
X46208Y19934D01*
X46252Y19876D01*
X46310Y19832D01*
X46378Y19804D01*
X46400Y19801D01*
Y20024D01*
D02*
G37*
G36*
X46723D02*
X46500D01*
Y19801D01*
X46522Y19804D01*
X46590Y19832D01*
X46648Y19876D01*
X46692Y19934D01*
X46720Y20002D01*
X46723Y20024D01*
D02*
G37*
G36*
X39800Y20347D02*
X39778Y20344D01*
X39710Y20316D01*
X39652Y20272D01*
X39608Y20214D01*
X39580Y20146D01*
X39577Y20124D01*
X39800D01*
Y20347D01*
D02*
G37*
G36*
X40123Y20024D02*
X39900D01*
Y19801D01*
X39922Y19804D01*
X39990Y19832D01*
X40048Y19876D01*
X40092Y19934D01*
X40120Y20002D01*
X40123Y20024D01*
D02*
G37*
G36*
X23437Y20756D02*
X23321Y20745D01*
X23210Y20711D01*
X23107Y20656D01*
X23017Y20582D01*
X22943Y20492D01*
X22888Y20389D01*
X22854Y20277D01*
X22842Y20161D01*
X22854Y20045D01*
X22888Y19934D01*
X22943Y19831D01*
X23017Y19741D01*
X23107Y19667D01*
X23210Y19612D01*
X23321Y19578D01*
X23437Y19566D01*
X23553Y19578D01*
X23665Y19612D01*
X23768Y19667D01*
X23858Y19741D01*
X23932Y19831D01*
X23987Y19934D01*
X24021Y20045D01*
X24032Y20161D01*
X24021Y20277D01*
X23987Y20389D01*
X23932Y20492D01*
X23858Y20582D01*
X23768Y20656D01*
X23665Y20711D01*
X23553Y20745D01*
X23437Y20756D01*
D02*
G37*
G36*
X53359D02*
X53243Y20745D01*
X53131Y20711D01*
X53028Y20656D01*
X52938Y20582D01*
X52864Y20492D01*
X52809Y20389D01*
X52775Y20277D01*
X52764Y20161D01*
X52775Y20045D01*
X52809Y19934D01*
X52864Y19831D01*
X52938Y19741D01*
X53028Y19667D01*
X53131Y19612D01*
X53243Y19578D01*
X53359Y19566D01*
X53475Y19578D01*
X53586Y19612D01*
X53689Y19667D01*
X53779Y19741D01*
X53853Y19831D01*
X53908Y19934D01*
X53942Y20045D01*
X53954Y20161D01*
X53942Y20277D01*
X53908Y20389D01*
X53853Y20492D01*
X53779Y20582D01*
X53689Y20656D01*
X53586Y20711D01*
X53475Y20745D01*
X53359Y20756D01*
D02*
G37*
G36*
X39800Y20024D02*
X39577D01*
X39580Y20002D01*
X39608Y19934D01*
X39652Y19876D01*
X39710Y19832D01*
X39778Y19804D01*
X39800Y19801D01*
Y20024D01*
D02*
G37*
G36*
X39900Y20347D02*
Y20124D01*
X40123D01*
X40120Y20146D01*
X40092Y20214D01*
X40048Y20272D01*
X39990Y20316D01*
X39922Y20344D01*
X39900Y20347D01*
D02*
G37*
G36*
X32823Y20724D02*
X32600D01*
Y20501D01*
X32622Y20504D01*
X32690Y20532D01*
X32748Y20576D01*
X32792Y20634D01*
X32820Y20702D01*
X32823Y20724D01*
D02*
G37*
G36*
X32500Y21047D02*
X32478Y21044D01*
X32410Y21016D01*
X32352Y20972D01*
X32308Y20914D01*
X32280Y20846D01*
X32277Y20824D01*
X32500D01*
Y21047D01*
D02*
G37*
G36*
X32600D02*
Y20824D01*
X32823D01*
X32820Y20846D01*
X32792Y20914D01*
X32748Y20972D01*
X32690Y21016D01*
X32622Y21044D01*
X32600Y21047D01*
D02*
G37*
G36*
X32500Y20724D02*
X32277D01*
X32280Y20702D01*
X32308Y20634D01*
X32352Y20576D01*
X32410Y20532D01*
X32478Y20504D01*
X32500Y20501D01*
Y20724D01*
D02*
G37*
G36*
X46400Y20347D02*
X46378Y20344D01*
X46310Y20316D01*
X46252Y20272D01*
X46208Y20214D01*
X46180Y20146D01*
X46177Y20124D01*
X46400D01*
Y20347D01*
D02*
G37*
G36*
X46500D02*
Y20124D01*
X46723D01*
X46720Y20146D01*
X46692Y20214D01*
X46648Y20272D01*
X46590Y20316D01*
X46522Y20344D01*
X46500Y20347D01*
D02*
G37*
G36*
X33250Y26777D02*
X29000D01*
X28941Y26765D01*
X28892Y26732D01*
X28400Y26240D01*
X28040D01*
Y26008D01*
X26631D01*
X26572Y25996D01*
X26523Y25963D01*
X25258Y24699D01*
X25225Y24649D01*
X25214Y24591D01*
Y23865D01*
X24981D01*
Y23701D01*
X24774D01*
X24716Y23690D01*
X24666Y23657D01*
X24242Y23232D01*
X24209Y23183D01*
X24197Y23124D01*
Y22374D01*
X24209Y22315D01*
X24242Y22266D01*
X26642Y19866D01*
X26691Y19833D01*
X26750Y19821D01*
X28700D01*
X28759Y19833D01*
X28808Y19866D01*
X29112Y20169D01*
X29460D01*
Y20402D01*
X30531D01*
X30589Y20413D01*
X30639Y20447D01*
X32208Y22016D01*
X32241Y22065D01*
X32253Y22124D01*
Y22444D01*
X32485D01*
Y23078D01*
X31715D01*
Y22444D01*
X31947D01*
Y22187D01*
X30467Y20708D01*
X29460D01*
Y20940D01*
X28827D01*
Y20317D01*
X28723Y20213D01*
X28673Y20234D01*
Y20940D01*
X28040D01*
Y20856D01*
X28000Y20825D01*
X27990Y20825D01*
X27919Y20834D01*
X27847Y20825D01*
X27780Y20797D01*
X27722Y20752D01*
X27677Y20694D01*
X27649Y20627D01*
X27640Y20555D01*
X27649Y20482D01*
X27677Y20415D01*
X27722Y20357D01*
X27780Y20313D01*
X27847Y20285D01*
X27919Y20275D01*
X27990Y20284D01*
X28000Y20285D01*
X28040Y20254D01*
Y20177D01*
X28040Y20169D01*
X28021Y20127D01*
X26813D01*
X24503Y22437D01*
Y23061D01*
X24838Y23395D01*
X24981D01*
Y23232D01*
X25752D01*
Y23865D01*
X25519D01*
Y24527D01*
X26694Y25702D01*
X28040D01*
Y25469D01*
X28673D01*
Y26081D01*
X28781Y26189D01*
X28827Y26170D01*
Y25469D01*
X29460D01*
Y25650D01*
X29510Y25675D01*
X29541Y25651D01*
X29608Y25623D01*
X29681Y25614D01*
X29753Y25623D01*
X29820Y25651D01*
X29878Y25696D01*
X29923Y25754D01*
X29951Y25821D01*
X29960Y25893D01*
X29951Y25966D01*
X29923Y26033D01*
X29878Y26091D01*
X29820Y26135D01*
X29753Y26163D01*
X29681Y26173D01*
X29608Y26163D01*
X29541Y26135D01*
X29510Y26112D01*
X29460Y26137D01*
Y26240D01*
X28898D01*
X28879Y26286D01*
X29063Y26471D01*
X33187D01*
X34127Y25531D01*
X34099Y25494D01*
X34065Y25412D01*
X34053Y25324D01*
X34065Y25236D01*
X34099Y25154D01*
X34153Y25084D01*
X34223Y25030D01*
X34231Y25027D01*
X34221Y24977D01*
X31300D01*
X31241Y24965D01*
X31192Y24932D01*
X31161Y24902D01*
X31108Y24943D01*
X30988Y24993D01*
X30859Y25010D01*
X30662D01*
X30533Y24993D01*
X30413Y24943D01*
X30310Y24864D01*
X30231Y24761D01*
X30181Y24641D01*
X30164Y24512D01*
X30181Y24383D01*
X30231Y24263D01*
X30310Y24160D01*
X30413Y24081D01*
X30533Y24031D01*
X30662Y24014D01*
X30859D01*
X30988Y24031D01*
X31108Y24081D01*
X31211Y24160D01*
X31290Y24263D01*
X31340Y24383D01*
X31357Y24512D01*
X31341Y24630D01*
X31371Y24666D01*
X31377Y24671D01*
X32235D01*
X32251Y24624D01*
X32252Y24621D01*
X32208Y24564D01*
X32180Y24496D01*
X32170Y24424D01*
X32178Y24368D01*
X31992Y24182D01*
X31959Y24133D01*
X31947Y24074D01*
Y23865D01*
X31715D01*
Y23232D01*
X32485D01*
Y23865D01*
X32253D01*
Y24011D01*
X32394Y24152D01*
X32450Y24144D01*
X32522Y24154D01*
X32590Y24182D01*
X32648Y24226D01*
X32692Y24284D01*
X32720Y24352D01*
X32730Y24424D01*
X32720Y24496D01*
X32692Y24564D01*
X32648Y24621D01*
X32649Y24624D01*
X32665Y24671D01*
X34221D01*
X34231Y24621D01*
X34223Y24618D01*
X34153Y24564D01*
X34099Y24494D01*
X34065Y24412D01*
X34060Y24374D01*
X34550D01*
Y24324D01*
X34600D01*
Y23985D01*
X34707D01*
X34795Y23996D01*
X34877Y24030D01*
X34947Y24084D01*
X35001Y24154D01*
X35023Y24207D01*
X35077D01*
X35099Y24154D01*
X35153Y24084D01*
X35223Y24030D01*
X35305Y23996D01*
X35393Y23985D01*
X35707D01*
X35795Y23996D01*
X35877Y24030D01*
X35947Y24084D01*
X36001Y24154D01*
X36035Y24236D01*
X36047Y24324D01*
X36035Y24412D01*
X36001Y24494D01*
X35947Y24564D01*
X35877Y24618D01*
X35795Y24652D01*
X35707Y24663D01*
X35427D01*
X35158Y24932D01*
X35150Y24938D01*
X35165Y24988D01*
X36044D01*
Y25660D01*
X35168D01*
X35149Y25706D01*
X35463Y26021D01*
X38537D01*
X41871Y22686D01*
Y21074D01*
X41883Y21015D01*
X41916Y20966D01*
X42546Y20336D01*
X42527Y20290D01*
X42273D01*
X42163Y20400D01*
X42167Y20424D01*
X42157Y20496D01*
X42129Y20564D01*
X42085Y20622D01*
X42027Y20666D01*
X41959Y20694D01*
X41887Y20704D01*
X41815Y20694D01*
X41747Y20666D01*
X41689Y20622D01*
X41645Y20564D01*
X41617Y20496D01*
X41607Y20424D01*
X41617Y20352D01*
X41645Y20284D01*
X41689Y20226D01*
X41747Y20182D01*
X41815Y20154D01*
X41887Y20144D01*
X41911Y20148D01*
X42090Y19969D01*
Y19519D01*
X42723D01*
Y20094D01*
X42769Y20113D01*
X42877Y20005D01*
Y19519D01*
X43510D01*
Y20005D01*
X43976Y20471D01*
X49137D01*
X49218Y20390D01*
X49197Y20340D01*
X49184Y20340D01*
X48590D01*
Y20299D01*
X48569Y20286D01*
X48540Y20278D01*
X48490Y20316D01*
X48422Y20344D01*
X48350Y20354D01*
X48278Y20344D01*
X48210Y20316D01*
X48152Y20272D01*
X48108Y20214D01*
X48080Y20146D01*
X48070Y20074D01*
X48080Y20002D01*
X48108Y19934D01*
X48152Y19876D01*
X48210Y19832D01*
X48278Y19804D01*
X48350Y19794D01*
X48422Y19804D01*
X48490Y19832D01*
X48540Y19870D01*
X48569Y19862D01*
X48590Y19849D01*
Y19569D01*
X49223D01*
Y20301D01*
X49223Y20314D01*
X49244Y20323D01*
X49273Y20335D01*
X49377Y20231D01*
Y19569D01*
X50010D01*
Y20340D01*
X49700D01*
X49308Y20732D01*
X49259Y20765D01*
X49200Y20777D01*
X43913D01*
X43854Y20765D01*
X43805Y20732D01*
X43363Y20290D01*
X43025D01*
X42177Y21137D01*
Y22750D01*
X42166Y22808D01*
X42133Y22858D01*
X38708Y26282D01*
X38659Y26315D01*
X38600Y26327D01*
X35400D01*
X35341Y26315D01*
X35292Y26282D01*
X34673Y25663D01*
X34427D01*
X33358Y26732D01*
X33309Y26765D01*
X33250Y26777D01*
D02*
G37*
G36*
X30859Y23553D02*
X30662D01*
X30533Y23536D01*
X30413Y23486D01*
X30310Y23407D01*
X30231Y23304D01*
X30181Y23184D01*
X30164Y23055D01*
X30181Y22926D01*
X30231Y22806D01*
X30310Y22703D01*
X30413Y22624D01*
X30533Y22574D01*
X30662Y22557D01*
X30859D01*
X30988Y22574D01*
X31108Y22624D01*
X31211Y22703D01*
X31290Y22806D01*
X31340Y22926D01*
X31357Y23055D01*
X31340Y23184D01*
X31290Y23304D01*
X31211Y23407D01*
X31108Y23486D01*
X30988Y23536D01*
X30859Y23553D01*
D02*
G37*
G36*
X53359Y27056D02*
X53243Y27044D01*
X53131Y27010D01*
X53028Y26955D01*
X52938Y26881D01*
X52864Y26791D01*
X52809Y26688D01*
X52775Y26577D01*
X52764Y26461D01*
X52775Y26345D01*
X52809Y26233D01*
X52864Y26130D01*
X52938Y26040D01*
X53028Y25966D01*
X53131Y25911D01*
X53243Y25877D01*
X53359Y25866D01*
X53475Y25877D01*
X53586Y25911D01*
X53689Y25966D01*
X53779Y26040D01*
X53853Y26130D01*
X53908Y26233D01*
X53942Y26345D01*
X53954Y26461D01*
X53942Y26577D01*
X53908Y26688D01*
X53853Y26791D01*
X53779Y26881D01*
X53689Y26955D01*
X53586Y27010D01*
X53475Y27044D01*
X53359Y27056D01*
D02*
G37*
G36*
X48350Y26124D02*
X48127D01*
X48130Y26102D01*
X48158Y26034D01*
X48202Y25976D01*
X48260Y25932D01*
X48328Y25904D01*
X48350Y25901D01*
Y26124D01*
D02*
G37*
G36*
X48673D02*
X48450D01*
Y25901D01*
X48472Y25904D01*
X48540Y25932D01*
X48598Y25976D01*
X48642Y26034D01*
X48670Y26102D01*
X48673Y26124D01*
D02*
G37*
G36*
X23437Y27056D02*
X23321Y27044D01*
X23210Y27010D01*
X23107Y26955D01*
X23017Y26881D01*
X22943Y26791D01*
X22888Y26688D01*
X22854Y26577D01*
X22842Y26461D01*
X22854Y26345D01*
X22888Y26233D01*
X22943Y26130D01*
X23017Y26040D01*
X23107Y25966D01*
X23210Y25911D01*
X23321Y25877D01*
X23437Y25866D01*
X23553Y25877D01*
X23665Y25911D01*
X23768Y25966D01*
X23858Y26040D01*
X23932Y26130D01*
X23987Y26233D01*
X24021Y26345D01*
X24032Y26461D01*
X24021Y26577D01*
X23987Y26688D01*
X23932Y26791D01*
X23858Y26881D01*
X23768Y26955D01*
X23665Y27010D01*
X23553Y27044D01*
X23437Y27056D01*
D02*
G37*
G36*
X31873Y25824D02*
X31650D01*
Y25601D01*
X31672Y25604D01*
X31740Y25632D01*
X31798Y25676D01*
X31842Y25734D01*
X31870Y25802D01*
X31873Y25824D01*
D02*
G37*
G36*
X32400Y25897D02*
X32378Y25894D01*
X32310Y25866D01*
X32252Y25822D01*
X32208Y25764D01*
X32180Y25696D01*
X32177Y25674D01*
X32400D01*
Y25897D01*
D02*
G37*
G36*
X32500D02*
Y25674D01*
X32723D01*
X32720Y25696D01*
X32692Y25764D01*
X32648Y25822D01*
X32590Y25866D01*
X32522Y25894D01*
X32500Y25897D01*
D02*
G37*
G36*
X31550Y26147D02*
X31528Y26144D01*
X31460Y26116D01*
X31402Y26072D01*
X31358Y26014D01*
X31330Y25946D01*
X31327Y25924D01*
X31550D01*
Y26147D01*
D02*
G37*
G36*
X48450Y26447D02*
Y26224D01*
X48673D01*
X48670Y26246D01*
X48642Y26314D01*
X48598Y26372D01*
X48540Y26416D01*
X48472Y26444D01*
X48450Y26447D01*
D02*
G37*
G36*
X41900Y26497D02*
X41878Y26494D01*
X41810Y26466D01*
X41752Y26422D01*
X41708Y26364D01*
X41680Y26296D01*
X41677Y26274D01*
X41900D01*
Y26497D01*
D02*
G37*
G36*
X42000D02*
Y26274D01*
X42223D01*
X42220Y26296D01*
X42192Y26364D01*
X42148Y26422D01*
X42090Y26466D01*
X42022Y26494D01*
X42000Y26497D01*
D02*
G37*
G36*
X48350Y26447D02*
X48328Y26444D01*
X48260Y26416D01*
X48202Y26372D01*
X48158Y26314D01*
X48130Y26246D01*
X48127Y26224D01*
X48350D01*
Y26447D01*
D02*
G37*
G36*
X31650Y26147D02*
Y25924D01*
X31873D01*
X31870Y25946D01*
X31842Y26014D01*
X31798Y26072D01*
X31740Y26116D01*
X31672Y26144D01*
X31650Y26147D01*
D02*
G37*
G36*
X41900Y26174D02*
X41677D01*
X41680Y26152D01*
X41708Y26084D01*
X41752Y26026D01*
X41810Y25982D01*
X41878Y25954D01*
X41900Y25951D01*
Y26174D01*
D02*
G37*
G36*
X42223D02*
X42000D01*
Y25951D01*
X42022Y25954D01*
X42090Y25982D01*
X42148Y26026D01*
X42192Y26084D01*
X42220Y26152D01*
X42223Y26174D01*
D02*
G37*
G36*
X23850Y23797D02*
Y23574D01*
X24073D01*
X24070Y23596D01*
X24042Y23664D01*
X23998Y23722D01*
X23940Y23766D01*
X23872Y23794D01*
X23850Y23797D01*
D02*
G37*
G36*
X23750D02*
X23728Y23794D01*
X23660Y23766D01*
X23602Y23722D01*
X23558Y23664D01*
X23530Y23596D01*
X23527Y23574D01*
X23750D01*
Y23797D01*
D02*
G37*
G36*
X43713Y24812D02*
X43516D01*
X43400Y24800D01*
X43288Y24766D01*
X43186Y24711D01*
X43095Y24637D01*
X43021Y24547D01*
X42966Y24444D01*
X42933Y24333D01*
X42921Y24217D01*
X42933Y24100D01*
X42966Y23989D01*
X43021Y23886D01*
X43095Y23796D01*
X43186Y23722D01*
X43288Y23667D01*
X43400Y23633D01*
X43516Y23622D01*
X43713D01*
X43829Y23633D01*
X43941Y23667D01*
X44044Y23722D01*
X44134Y23796D01*
X44208Y23886D01*
X44263Y23989D01*
X44297Y24100D01*
X44308Y24217D01*
X44297Y24333D01*
X44263Y24444D01*
X44208Y24547D01*
X44134Y24637D01*
X44044Y24711D01*
X43941Y24766D01*
X43829Y24800D01*
X43713Y24812D01*
D02*
G37*
G36*
X38792D02*
X38595D01*
X38479Y24800D01*
X38367Y24766D01*
X38264Y24711D01*
X38174Y24637D01*
X38100Y24547D01*
X38045Y24444D01*
X38011Y24333D01*
X38000Y24217D01*
X38011Y24100D01*
X38045Y23989D01*
X38100Y23886D01*
X38174Y23796D01*
X38264Y23722D01*
X38367Y23667D01*
X38479Y23633D01*
X38595Y23622D01*
X38792D01*
X38908Y23633D01*
X39019Y23667D01*
X39122Y23722D01*
X39212Y23796D01*
X39286Y23886D01*
X39341Y23989D01*
X39375Y24100D01*
X39387Y24217D01*
X39375Y24333D01*
X39341Y24444D01*
X39286Y24547D01*
X39212Y24637D01*
X39122Y24711D01*
X39019Y24766D01*
X38908Y24800D01*
X38792Y24812D01*
D02*
G37*
G36*
X23750Y23474D02*
X23527D01*
X23530Y23452D01*
X23558Y23384D01*
X23602Y23326D01*
X23660Y23282D01*
X23728Y23254D01*
X23750Y23251D01*
Y23474D01*
D02*
G37*
G36*
X25752Y23078D02*
X24981D01*
Y23052D01*
X24950Y23031D01*
X24931Y23026D01*
X24865Y23034D01*
X24793Y23025D01*
X24725Y22997D01*
X24667Y22952D01*
X24623Y22894D01*
X24595Y22827D01*
X24585Y22755D01*
X24595Y22682D01*
X24623Y22615D01*
X24667Y22557D01*
X24725Y22513D01*
X24793Y22485D01*
X24865Y22475D01*
X24931Y22484D01*
X24950Y22478D01*
X24981Y22458D01*
Y22444D01*
X25752D01*
Y23078D01*
D02*
G37*
G36*
X35707Y23663D02*
X35393D01*
X35305Y23652D01*
X35223Y23618D01*
X35153Y23564D01*
X35099Y23494D01*
X35077Y23441D01*
X35023D01*
X35001Y23494D01*
X34947Y23564D01*
X34877Y23618D01*
X34795Y23652D01*
X34707Y23663D01*
X34393D01*
X34305Y23652D01*
X34223Y23618D01*
X34153Y23564D01*
X34099Y23494D01*
X34065Y23412D01*
X34053Y23324D01*
X34065Y23236D01*
X34099Y23154D01*
X34153Y23084D01*
X34223Y23030D01*
X34305Y22996D01*
X34393Y22985D01*
X34707D01*
X34795Y22996D01*
X34877Y23030D01*
X34947Y23084D01*
X35001Y23154D01*
X35023Y23207D01*
X35077D01*
X35099Y23154D01*
X35153Y23084D01*
X35223Y23030D01*
X35305Y22996D01*
X35393Y22985D01*
X35707D01*
X35795Y22996D01*
X35877Y23030D01*
X35947Y23084D01*
X36001Y23154D01*
X36035Y23236D01*
X36047Y23324D01*
X36035Y23412D01*
X36001Y23494D01*
X35947Y23564D01*
X35877Y23618D01*
X35795Y23652D01*
X35707Y23663D01*
D02*
G37*
G36*
X24073Y23474D02*
X23850D01*
Y23251D01*
X23872Y23254D01*
X23940Y23282D01*
X23998Y23326D01*
X24042Y23384D01*
X24070Y23452D01*
X24073Y23474D01*
D02*
G37*
G36*
X32400Y25574D02*
X32177D01*
X32180Y25552D01*
X32208Y25484D01*
X32252Y25426D01*
X32310Y25382D01*
X32378Y25354D01*
X32400Y25351D01*
Y25574D01*
D02*
G37*
G36*
X32723D02*
X32500D01*
Y25351D01*
X32522Y25354D01*
X32590Y25382D01*
X32648Y25426D01*
X32692Y25484D01*
X32720Y25552D01*
X32723Y25574D01*
D02*
G37*
G36*
X31550Y25824D02*
X31327D01*
X31330Y25802D01*
X31358Y25734D01*
X31402Y25676D01*
X31460Y25632D01*
X31528Y25604D01*
X31550Y25601D01*
Y25824D01*
D02*
G37*
G36*
X26804Y25010D02*
X26607D01*
X26478Y24993D01*
X26358Y24943D01*
X26255Y24864D01*
X26175Y24761D01*
X26126Y24641D01*
X26109Y24512D01*
X26126Y24383D01*
X26175Y24263D01*
X26255Y24160D01*
X26358Y24081D01*
X26478Y24031D01*
X26607Y24014D01*
X26804D01*
X26932Y24031D01*
X27053Y24081D01*
X27156Y24160D01*
X27235Y24263D01*
X27285Y24383D01*
X27301Y24512D01*
X27285Y24641D01*
X27235Y24761D01*
X27156Y24864D01*
X27053Y24943D01*
X26932Y24993D01*
X26804Y25010D01*
D02*
G37*
G36*
X50209Y24812D02*
X50012D01*
X49896Y24800D01*
X49785Y24766D01*
X49682Y24711D01*
X49591Y24637D01*
X49517Y24547D01*
X49463Y24444D01*
X49429Y24333D01*
X49417Y24217D01*
X49429Y24100D01*
X49463Y23989D01*
X49517Y23886D01*
X49591Y23796D01*
X49682Y23722D01*
X49785Y23667D01*
X49896Y23633D01*
X50012Y23622D01*
X50209D01*
X50325Y23633D01*
X50437Y23667D01*
X50540Y23722D01*
X50630Y23796D01*
X50704Y23886D01*
X50759Y23989D01*
X50793Y24100D01*
X50804Y24217D01*
X50793Y24333D01*
X50759Y24444D01*
X50704Y24547D01*
X50630Y24637D01*
X50540Y24711D01*
X50437Y24766D01*
X50325Y24800D01*
X50209Y24812D01*
D02*
G37*
G36*
X45288D02*
X45091D01*
X44975Y24800D01*
X44863Y24766D01*
X44760Y24711D01*
X44670Y24637D01*
X44596Y24547D01*
X44541Y24444D01*
X44507Y24333D01*
X44496Y24217D01*
X44507Y24100D01*
X44541Y23989D01*
X44596Y23886D01*
X44670Y23796D01*
X44760Y23722D01*
X44863Y23667D01*
X44975Y23633D01*
X45091Y23622D01*
X45288D01*
X45404Y23633D01*
X45515Y23667D01*
X45618Y23722D01*
X45709Y23796D01*
X45783Y23886D01*
X45837Y23989D01*
X45871Y24100D01*
X45883Y24217D01*
X45871Y24333D01*
X45837Y24444D01*
X45783Y24547D01*
X45709Y24637D01*
X45618Y24711D01*
X45515Y24766D01*
X45404Y24800D01*
X45288Y24812D01*
D02*
G37*
G36*
X34500Y24274D02*
X34060D01*
X34065Y24236D01*
X34099Y24154D01*
X34153Y24084D01*
X34223Y24030D01*
X34305Y23996D01*
X34393Y23985D01*
X34500D01*
Y24274D01*
D02*
G37*
%LPD*%
G36*
X28450Y25924D02*
Y25824D01*
X28400Y25974D01*
X28450Y25924D01*
D02*
G37*
G36*
X54100Y34998D02*
Y27298D01*
X22700D01*
Y35048D01*
X54050D01*
X54100Y34998D01*
D02*
G37*
%LPC*%
G36*
X26700Y29271D02*
Y29048D01*
X26923D01*
X26920Y29070D01*
X26892Y29138D01*
X26848Y29196D01*
X26790Y29240D01*
X26722Y29268D01*
X26700Y29271D01*
D02*
G37*
G36*
X35707Y29537D02*
X35600D01*
Y29248D01*
X36040D01*
X36035Y29286D01*
X36001Y29368D01*
X35947Y29438D01*
X35877Y29492D01*
X35795Y29526D01*
X35707Y29537D01*
D02*
G37*
G36*
X35500D02*
X35393D01*
X35305Y29526D01*
X35223Y29492D01*
X35153Y29438D01*
X35099Y29368D01*
X35077Y29315D01*
X35023D01*
X35001Y29368D01*
X34947Y29438D01*
X34877Y29492D01*
X34795Y29526D01*
X34707Y29537D01*
X34393D01*
X34305Y29526D01*
X34223Y29492D01*
X34153Y29438D01*
X34099Y29368D01*
X34065Y29286D01*
X34053Y29198D01*
X34065Y29110D01*
X34099Y29028D01*
X34153Y28958D01*
X34223Y28904D01*
X34305Y28870D01*
X34393Y28859D01*
X34707D01*
X34795Y28870D01*
X34877Y28904D01*
X34947Y28958D01*
X35001Y29028D01*
X35023Y29081D01*
X35077D01*
X35099Y29028D01*
X35153Y28958D01*
X35223Y28904D01*
X35305Y28870D01*
X35393Y28859D01*
X35500D01*
Y29198D01*
Y29537D01*
D02*
G37*
G36*
X26600Y29271D02*
X26578Y29268D01*
X26510Y29240D01*
X26452Y29196D01*
X26408Y29138D01*
X26380Y29070D01*
X26377Y29048D01*
X26600D01*
Y29271D01*
D02*
G37*
G36*
Y28948D02*
X26377D01*
X26380Y28926D01*
X26408Y28858D01*
X26452Y28800D01*
X26510Y28756D01*
X26578Y28728D01*
X26600Y28725D01*
Y28948D01*
D02*
G37*
G36*
X26923D02*
X26700D01*
Y28725D01*
X26722Y28728D01*
X26790Y28756D01*
X26848Y28800D01*
X26892Y28858D01*
X26920Y28926D01*
X26923Y28948D01*
D02*
G37*
G36*
X36040Y29148D02*
X35600D01*
Y28859D01*
X35707D01*
X35795Y28870D01*
X35877Y28904D01*
X35947Y28958D01*
X36001Y29028D01*
X36035Y29110D01*
X36040Y29148D01*
D02*
G37*
G36*
X26804Y30325D02*
X26607D01*
X26478Y30308D01*
X26358Y30258D01*
X26255Y30179D01*
X26175Y30076D01*
X26126Y29956D01*
X26109Y29827D01*
X26126Y29698D01*
X26175Y29578D01*
X26255Y29475D01*
X26358Y29396D01*
X26478Y29346D01*
X26607Y29329D01*
X26804D01*
X26932Y29346D01*
X27053Y29396D01*
X27156Y29475D01*
X27235Y29578D01*
X27285Y29698D01*
X27301Y29827D01*
X27285Y29956D01*
X27235Y30076D01*
X27156Y30179D01*
X27053Y30258D01*
X26932Y30308D01*
X26804Y30325D01*
D02*
G37*
G36*
X50209Y30717D02*
X50012D01*
X49896Y30706D01*
X49785Y30672D01*
X49682Y30617D01*
X49591Y30543D01*
X49517Y30453D01*
X49463Y30350D01*
X49429Y30238D01*
X49417Y30122D01*
X49429Y30006D01*
X49463Y29894D01*
X49517Y29791D01*
X49591Y29701D01*
X49682Y29627D01*
X49785Y29572D01*
X49896Y29538D01*
X50012Y29527D01*
X50209D01*
X50325Y29538D01*
X50437Y29572D01*
X50540Y29627D01*
X50630Y29701D01*
X50704Y29791D01*
X50759Y29894D01*
X50793Y30006D01*
X50804Y30122D01*
X50793Y30238D01*
X50759Y30350D01*
X50704Y30453D01*
X50630Y30543D01*
X50540Y30617D01*
X50437Y30672D01*
X50325Y30706D01*
X50209Y30717D01*
D02*
G37*
G36*
X35707Y30537D02*
X35393D01*
X35305Y30526D01*
X35223Y30492D01*
X35153Y30438D01*
X35099Y30368D01*
X35077Y30315D01*
X35023D01*
X35001Y30368D01*
X34947Y30438D01*
X34877Y30492D01*
X34795Y30526D01*
X34707Y30537D01*
X34393D01*
X34305Y30526D01*
X34223Y30492D01*
X34153Y30438D01*
X34099Y30368D01*
X34065Y30286D01*
X34053Y30198D01*
X34065Y30110D01*
X34099Y30028D01*
X34153Y29958D01*
X34223Y29904D01*
X34305Y29870D01*
X34393Y29859D01*
X34707D01*
X34795Y29870D01*
X34877Y29904D01*
X34947Y29958D01*
X35001Y30028D01*
X35023Y30081D01*
X35077D01*
X35099Y30028D01*
X35153Y29958D01*
X35223Y29904D01*
X35305Y29870D01*
X35393Y29859D01*
X35707D01*
X35795Y29870D01*
X35877Y29904D01*
X35947Y29958D01*
X36001Y30028D01*
X36035Y30110D01*
X36047Y30198D01*
X36035Y30286D01*
X36001Y30368D01*
X35947Y30438D01*
X35877Y30492D01*
X35795Y30526D01*
X35707Y30537D01*
D02*
G37*
G36*
X26804Y31427D02*
X26607D01*
X26478Y31410D01*
X26358Y31360D01*
X26255Y31281D01*
X26175Y31178D01*
X26126Y31058D01*
X26109Y30929D01*
X26126Y30800D01*
X26175Y30680D01*
X26255Y30577D01*
X26358Y30498D01*
X26478Y30448D01*
X26607Y30431D01*
X26804D01*
X26932Y30448D01*
X27053Y30498D01*
X27156Y30577D01*
X27235Y30680D01*
X27285Y30800D01*
X27301Y30929D01*
X27285Y31058D01*
X27235Y31178D01*
X27156Y31281D01*
X27053Y31360D01*
X26932Y31410D01*
X26804Y31427D01*
D02*
G37*
G36*
X45288Y30717D02*
X45091D01*
X44975Y30706D01*
X44863Y30672D01*
X44760Y30617D01*
X44670Y30543D01*
X44596Y30453D01*
X44541Y30350D01*
X44507Y30238D01*
X44496Y30122D01*
X44507Y30006D01*
X44541Y29894D01*
X44596Y29791D01*
X44670Y29701D01*
X44760Y29627D01*
X44863Y29572D01*
X44975Y29538D01*
X45091Y29527D01*
X45288D01*
X45404Y29538D01*
X45515Y29572D01*
X45618Y29627D01*
X45709Y29701D01*
X45783Y29791D01*
X45837Y29894D01*
X45871Y30006D01*
X45883Y30122D01*
X45871Y30238D01*
X45837Y30350D01*
X45783Y30453D01*
X45709Y30543D01*
X45618Y30617D01*
X45515Y30672D01*
X45404Y30706D01*
X45288Y30717D01*
D02*
G37*
G36*
X30859Y30325D02*
X30662D01*
X30533Y30308D01*
X30413Y30258D01*
X30310Y30179D01*
X30231Y30076D01*
X30181Y29956D01*
X30164Y29827D01*
X30181Y29698D01*
X30231Y29578D01*
X30310Y29475D01*
X30413Y29396D01*
X30533Y29346D01*
X30662Y29329D01*
X30859D01*
X30988Y29346D01*
X31108Y29396D01*
X31211Y29475D01*
X31290Y29578D01*
X31340Y29698D01*
X31357Y29827D01*
X31340Y29956D01*
X31290Y30076D01*
X31211Y30179D01*
X31108Y30258D01*
X30988Y30308D01*
X30859Y30325D01*
D02*
G37*
G36*
X38792Y30717D02*
X38595D01*
X38479Y30706D01*
X38367Y30672D01*
X38264Y30617D01*
X38174Y30543D01*
X38100Y30453D01*
X38045Y30350D01*
X38011Y30238D01*
X38000Y30122D01*
X38011Y30006D01*
X38045Y29894D01*
X38100Y29791D01*
X38174Y29701D01*
X38264Y29627D01*
X38367Y29572D01*
X38479Y29538D01*
X38595Y29527D01*
X38792D01*
X38908Y29538D01*
X39019Y29572D01*
X39122Y29627D01*
X39212Y29701D01*
X39286Y29791D01*
X39341Y29894D01*
X39375Y30006D01*
X39387Y30122D01*
X39375Y30238D01*
X39341Y30350D01*
X39286Y30453D01*
X39212Y30543D01*
X39122Y30617D01*
X39019Y30672D01*
X38908Y30706D01*
X38792Y30717D01*
D02*
G37*
G36*
X43713D02*
X43516D01*
X43400Y30706D01*
X43288Y30672D01*
X43186Y30617D01*
X43095Y30543D01*
X43021Y30453D01*
X42966Y30350D01*
X42933Y30238D01*
X42921Y30122D01*
X42933Y30006D01*
X42966Y29894D01*
X43021Y29791D01*
X43095Y29701D01*
X43186Y29627D01*
X43288Y29572D01*
X43400Y29538D01*
X43516Y29527D01*
X43713D01*
X43829Y29538D01*
X43941Y29572D01*
X44044Y29627D01*
X44134Y29701D01*
X44208Y29791D01*
X44263Y29894D01*
X44297Y30006D01*
X44308Y30122D01*
X44297Y30238D01*
X44263Y30350D01*
X44208Y30453D01*
X44134Y30543D01*
X44044Y30617D01*
X43941Y30672D01*
X43829Y30706D01*
X43713Y30717D01*
D02*
G37*
G36*
X46400Y27898D02*
X46177D01*
X46180Y27876D01*
X46208Y27808D01*
X46252Y27750D01*
X46310Y27706D01*
X46378Y27678D01*
X46400Y27675D01*
Y27898D01*
D02*
G37*
G36*
X46723D02*
X46500D01*
Y27675D01*
X46522Y27678D01*
X46590Y27706D01*
X46648Y27750D01*
X46692Y27808D01*
X46720Y27876D01*
X46723Y27898D01*
D02*
G37*
G36*
X39800Y28221D02*
X39778Y28218D01*
X39710Y28190D01*
X39652Y28146D01*
X39608Y28088D01*
X39580Y28020D01*
X39577Y27998D01*
X39800D01*
Y28221D01*
D02*
G37*
G36*
X40123Y27898D02*
X39900D01*
Y27675D01*
X39922Y27678D01*
X39990Y27706D01*
X40048Y27750D01*
X40092Y27808D01*
X40120Y27876D01*
X40123Y27898D01*
D02*
G37*
G36*
X23437Y28630D02*
X23321Y28619D01*
X23210Y28585D01*
X23107Y28530D01*
X23017Y28456D01*
X22943Y28366D01*
X22888Y28263D01*
X22854Y28152D01*
X22842Y28035D01*
X22854Y27919D01*
X22888Y27808D01*
X22943Y27705D01*
X23017Y27615D01*
X23107Y27541D01*
X23210Y27486D01*
X23321Y27452D01*
X23437Y27440D01*
X23553Y27452D01*
X23665Y27486D01*
X23768Y27541D01*
X23858Y27615D01*
X23932Y27705D01*
X23987Y27808D01*
X24021Y27919D01*
X24032Y28035D01*
X24021Y28152D01*
X23987Y28263D01*
X23932Y28366D01*
X23858Y28456D01*
X23768Y28530D01*
X23665Y28585D01*
X23553Y28619D01*
X23437Y28630D01*
D02*
G37*
G36*
X53359D02*
X53243Y28619D01*
X53131Y28585D01*
X53028Y28530D01*
X52938Y28456D01*
X52864Y28366D01*
X52809Y28263D01*
X52775Y28152D01*
X52764Y28035D01*
X52775Y27919D01*
X52809Y27808D01*
X52864Y27705D01*
X52938Y27615D01*
X53028Y27541D01*
X53131Y27486D01*
X53243Y27452D01*
X53359Y27440D01*
X53475Y27452D01*
X53586Y27486D01*
X53689Y27541D01*
X53779Y27615D01*
X53853Y27705D01*
X53908Y27808D01*
X53942Y27919D01*
X53954Y28035D01*
X53942Y28152D01*
X53908Y28263D01*
X53853Y28366D01*
X53779Y28456D01*
X53689Y28530D01*
X53586Y28585D01*
X53475Y28619D01*
X53359Y28630D01*
D02*
G37*
G36*
X39800Y27898D02*
X39577D01*
X39580Y27876D01*
X39608Y27808D01*
X39652Y27750D01*
X39710Y27706D01*
X39778Y27678D01*
X39800Y27675D01*
Y27898D01*
D02*
G37*
G36*
X39900Y28221D02*
Y27998D01*
X40123D01*
X40120Y28020D01*
X40092Y28088D01*
X40048Y28146D01*
X39990Y28190D01*
X39922Y28218D01*
X39900Y28221D01*
D02*
G37*
G36*
X32823Y28598D02*
X32600D01*
Y28375D01*
X32622Y28378D01*
X32690Y28406D01*
X32748Y28450D01*
X32792Y28508D01*
X32820Y28576D01*
X32823Y28598D01*
D02*
G37*
G36*
X32500Y28921D02*
X32478Y28918D01*
X32410Y28890D01*
X32352Y28846D01*
X32308Y28788D01*
X32280Y28720D01*
X32277Y28698D01*
X32500D01*
Y28921D01*
D02*
G37*
G36*
X32600D02*
Y28698D01*
X32823D01*
X32820Y28720D01*
X32792Y28788D01*
X32748Y28846D01*
X32690Y28890D01*
X32622Y28918D01*
X32600Y28921D01*
D02*
G37*
G36*
X32500Y28598D02*
X32277D01*
X32280Y28576D01*
X32308Y28508D01*
X32352Y28450D01*
X32410Y28406D01*
X32478Y28378D01*
X32500Y28375D01*
Y28598D01*
D02*
G37*
G36*
X46400Y28221D02*
X46378Y28218D01*
X46310Y28190D01*
X46252Y28146D01*
X46208Y28088D01*
X46180Y28020D01*
X46177Y27998D01*
X46400D01*
Y28221D01*
D02*
G37*
G36*
X46500D02*
Y27998D01*
X46723D01*
X46720Y28020D01*
X46692Y28088D01*
X46648Y28146D01*
X46590Y28190D01*
X46522Y28218D01*
X46500Y28221D01*
D02*
G37*
G36*
X33250Y34651D02*
X29000D01*
X28941Y34639D01*
X28892Y34606D01*
X28400Y34114D01*
X28040D01*
Y33882D01*
X26631D01*
X26572Y33870D01*
X26523Y33837D01*
X25258Y32573D01*
X25225Y32523D01*
X25214Y32465D01*
Y31739D01*
X24981D01*
Y31575D01*
X24774D01*
X24716Y31564D01*
X24666Y31531D01*
X24242Y31106D01*
X24209Y31057D01*
X24197Y30998D01*
Y30248D01*
X24209Y30189D01*
X24242Y30140D01*
X26642Y27740D01*
X26691Y27707D01*
X26750Y27695D01*
X28700D01*
X28759Y27707D01*
X28808Y27740D01*
X29112Y28043D01*
X29460D01*
Y28276D01*
X30531D01*
X30589Y28287D01*
X30639Y28321D01*
X32208Y29890D01*
X32241Y29939D01*
X32253Y29998D01*
Y30319D01*
X32485D01*
Y30952D01*
X31715D01*
Y30319D01*
X31947D01*
Y30061D01*
X30467Y28582D01*
X29460D01*
Y28814D01*
X28827D01*
Y28191D01*
X28723Y28087D01*
X28673Y28108D01*
Y28814D01*
X28040D01*
Y28730D01*
X28000Y28699D01*
X27990Y28699D01*
X27919Y28708D01*
X27847Y28699D01*
X27780Y28671D01*
X27722Y28626D01*
X27677Y28569D01*
X27649Y28501D01*
X27640Y28429D01*
X27649Y28356D01*
X27677Y28289D01*
X27722Y28231D01*
X27780Y28187D01*
X27847Y28159D01*
X27919Y28149D01*
X27990Y28158D01*
X28000Y28159D01*
X28040Y28128D01*
Y28051D01*
X28040Y28043D01*
X28021Y28001D01*
X26813D01*
X24503Y30311D01*
Y30935D01*
X24838Y31270D01*
X24981D01*
Y31106D01*
X25752D01*
Y31739D01*
X25519D01*
Y32401D01*
X26694Y33576D01*
X28040D01*
Y33343D01*
X28673D01*
Y33955D01*
X28781Y34063D01*
X28827Y34044D01*
Y33343D01*
X29460D01*
Y33524D01*
X29510Y33549D01*
X29541Y33525D01*
X29608Y33497D01*
X29681Y33488D01*
X29753Y33497D01*
X29820Y33525D01*
X29878Y33570D01*
X29923Y33628D01*
X29951Y33695D01*
X29960Y33767D01*
X29951Y33840D01*
X29923Y33907D01*
X29878Y33965D01*
X29820Y34009D01*
X29753Y34037D01*
X29681Y34047D01*
X29608Y34037D01*
X29541Y34009D01*
X29510Y33986D01*
X29460Y34011D01*
Y34114D01*
X28898D01*
X28879Y34160D01*
X29063Y34345D01*
X33187D01*
X34127Y33405D01*
X34099Y33368D01*
X34065Y33286D01*
X34053Y33198D01*
X34065Y33110D01*
X34099Y33028D01*
X34153Y32958D01*
X34223Y32904D01*
X34231Y32901D01*
X34221Y32851D01*
X31300D01*
X31241Y32839D01*
X31192Y32806D01*
X31161Y32776D01*
X31108Y32817D01*
X30988Y32867D01*
X30859Y32884D01*
X30662D01*
X30533Y32867D01*
X30413Y32817D01*
X30310Y32738D01*
X30231Y32635D01*
X30181Y32515D01*
X30164Y32386D01*
X30181Y32257D01*
X30231Y32137D01*
X30310Y32034D01*
X30413Y31955D01*
X30533Y31905D01*
X30662Y31888D01*
X30859D01*
X30988Y31905D01*
X31108Y31955D01*
X31211Y32034D01*
X31290Y32137D01*
X31340Y32257D01*
X31357Y32386D01*
X31341Y32504D01*
X31371Y32540D01*
X31377Y32545D01*
X32235D01*
X32251Y32498D01*
X32252Y32495D01*
X32208Y32438D01*
X32180Y32370D01*
X32170Y32298D01*
X32178Y32242D01*
X31992Y32056D01*
X31959Y32007D01*
X31947Y31948D01*
Y31739D01*
X31715D01*
Y31106D01*
X32485D01*
Y31739D01*
X32253D01*
Y31885D01*
X32394Y32026D01*
X32450Y32018D01*
X32522Y32028D01*
X32590Y32056D01*
X32648Y32100D01*
X32692Y32158D01*
X32720Y32226D01*
X32730Y32298D01*
X32720Y32370D01*
X32692Y32438D01*
X32648Y32495D01*
X32649Y32498D01*
X32665Y32545D01*
X34221D01*
X34231Y32495D01*
X34223Y32492D01*
X34153Y32438D01*
X34099Y32368D01*
X34065Y32286D01*
X34060Y32248D01*
X34550D01*
Y32198D01*
X34600D01*
Y31859D01*
X34707D01*
X34795Y31870D01*
X34877Y31904D01*
X34947Y31958D01*
X35001Y32028D01*
X35023Y32081D01*
X35077D01*
X35099Y32028D01*
X35153Y31958D01*
X35223Y31904D01*
X35305Y31870D01*
X35393Y31859D01*
X35707D01*
X35795Y31870D01*
X35877Y31904D01*
X35947Y31958D01*
X36001Y32028D01*
X36035Y32110D01*
X36047Y32198D01*
X36035Y32286D01*
X36001Y32368D01*
X35947Y32438D01*
X35877Y32492D01*
X35795Y32526D01*
X35707Y32537D01*
X35427D01*
X35158Y32806D01*
X35150Y32812D01*
X35165Y32862D01*
X36044D01*
Y33534D01*
X35168D01*
X35149Y33580D01*
X35463Y33895D01*
X38537D01*
X41871Y30560D01*
Y28948D01*
X41883Y28890D01*
X41916Y28840D01*
X42546Y28210D01*
X42527Y28164D01*
X42273D01*
X42163Y28274D01*
X42167Y28298D01*
X42157Y28370D01*
X42129Y28438D01*
X42085Y28496D01*
X42027Y28540D01*
X41959Y28568D01*
X41887Y28578D01*
X41815Y28568D01*
X41747Y28540D01*
X41689Y28496D01*
X41645Y28438D01*
X41617Y28370D01*
X41607Y28298D01*
X41617Y28226D01*
X41645Y28158D01*
X41689Y28100D01*
X41747Y28056D01*
X41815Y28028D01*
X41887Y28018D01*
X41911Y28022D01*
X42090Y27843D01*
Y27393D01*
X42723D01*
Y27968D01*
X42769Y27987D01*
X42877Y27879D01*
Y27393D01*
X43510D01*
Y27879D01*
X43976Y28345D01*
X49137D01*
X49218Y28264D01*
X49197Y28214D01*
X49184Y28214D01*
X48590D01*
Y28173D01*
X48569Y28160D01*
X48540Y28152D01*
X48490Y28190D01*
X48422Y28218D01*
X48350Y28228D01*
X48278Y28218D01*
X48210Y28190D01*
X48152Y28146D01*
X48108Y28088D01*
X48080Y28020D01*
X48070Y27948D01*
X48080Y27876D01*
X48108Y27808D01*
X48152Y27750D01*
X48210Y27706D01*
X48278Y27678D01*
X48350Y27668D01*
X48422Y27678D01*
X48490Y27706D01*
X48540Y27744D01*
X48569Y27736D01*
X48590Y27723D01*
Y27443D01*
X49223D01*
Y28175D01*
X49223Y28188D01*
X49244Y28197D01*
X49273Y28209D01*
X49377Y28105D01*
Y27443D01*
X50010D01*
Y28214D01*
X49700D01*
X49308Y28606D01*
X49259Y28639D01*
X49200Y28651D01*
X43913D01*
X43854Y28639D01*
X43805Y28606D01*
X43363Y28164D01*
X43025D01*
X42177Y29011D01*
Y30624D01*
X42166Y30682D01*
X42133Y30732D01*
X38708Y34156D01*
X38659Y34189D01*
X38600Y34201D01*
X35400D01*
X35341Y34189D01*
X35292Y34156D01*
X34673Y33537D01*
X34427D01*
X33358Y34606D01*
X33309Y34639D01*
X33250Y34651D01*
D02*
G37*
G36*
X30859Y31427D02*
X30662D01*
X30533Y31410D01*
X30413Y31360D01*
X30310Y31281D01*
X30231Y31178D01*
X30181Y31058D01*
X30164Y30929D01*
X30181Y30800D01*
X30231Y30680D01*
X30310Y30577D01*
X30413Y30498D01*
X30533Y30448D01*
X30662Y30431D01*
X30859D01*
X30988Y30448D01*
X31108Y30498D01*
X31211Y30577D01*
X31290Y30680D01*
X31340Y30800D01*
X31357Y30929D01*
X31340Y31058D01*
X31290Y31178D01*
X31211Y31281D01*
X31108Y31360D01*
X30988Y31410D01*
X30859Y31427D01*
D02*
G37*
G36*
X53359Y34930D02*
X53243Y34918D01*
X53131Y34884D01*
X53028Y34829D01*
X52938Y34755D01*
X52864Y34665D01*
X52809Y34562D01*
X52775Y34451D01*
X52764Y34335D01*
X52775Y34219D01*
X52809Y34107D01*
X52864Y34004D01*
X52938Y33914D01*
X53028Y33840D01*
X53131Y33785D01*
X53243Y33751D01*
X53359Y33740D01*
X53475Y33751D01*
X53586Y33785D01*
X53689Y33840D01*
X53779Y33914D01*
X53853Y34004D01*
X53908Y34107D01*
X53942Y34219D01*
X53954Y34335D01*
X53942Y34451D01*
X53908Y34562D01*
X53853Y34665D01*
X53779Y34755D01*
X53689Y34829D01*
X53586Y34884D01*
X53475Y34918D01*
X53359Y34930D01*
D02*
G37*
G36*
X48350Y33998D02*
X48127D01*
X48130Y33976D01*
X48158Y33908D01*
X48202Y33850D01*
X48260Y33806D01*
X48328Y33778D01*
X48350Y33775D01*
Y33998D01*
D02*
G37*
G36*
X48673D02*
X48450D01*
Y33775D01*
X48472Y33778D01*
X48540Y33806D01*
X48598Y33850D01*
X48642Y33908D01*
X48670Y33976D01*
X48673Y33998D01*
D02*
G37*
G36*
X23437Y34930D02*
X23321Y34918D01*
X23210Y34884D01*
X23107Y34829D01*
X23017Y34755D01*
X22943Y34665D01*
X22888Y34562D01*
X22854Y34451D01*
X22842Y34335D01*
X22854Y34219D01*
X22888Y34107D01*
X22943Y34004D01*
X23017Y33914D01*
X23107Y33840D01*
X23210Y33785D01*
X23321Y33751D01*
X23437Y33740D01*
X23553Y33751D01*
X23665Y33785D01*
X23768Y33840D01*
X23858Y33914D01*
X23932Y34004D01*
X23987Y34107D01*
X24021Y34219D01*
X24032Y34335D01*
X24021Y34451D01*
X23987Y34562D01*
X23932Y34665D01*
X23858Y34755D01*
X23768Y34829D01*
X23665Y34884D01*
X23553Y34918D01*
X23437Y34930D01*
D02*
G37*
G36*
X31873Y33698D02*
X31650D01*
Y33475D01*
X31672Y33478D01*
X31740Y33506D01*
X31798Y33550D01*
X31842Y33608D01*
X31870Y33676D01*
X31873Y33698D01*
D02*
G37*
G36*
X32400Y33771D02*
X32378Y33768D01*
X32310Y33740D01*
X32252Y33696D01*
X32208Y33638D01*
X32180Y33570D01*
X32177Y33548D01*
X32400D01*
Y33771D01*
D02*
G37*
G36*
X32500D02*
Y33548D01*
X32723D01*
X32720Y33570D01*
X32692Y33638D01*
X32648Y33696D01*
X32590Y33740D01*
X32522Y33768D01*
X32500Y33771D01*
D02*
G37*
G36*
X31550Y34021D02*
X31528Y34018D01*
X31460Y33990D01*
X31402Y33946D01*
X31358Y33888D01*
X31330Y33820D01*
X31327Y33798D01*
X31550D01*
Y34021D01*
D02*
G37*
G36*
X48450Y34321D02*
Y34098D01*
X48673D01*
X48670Y34120D01*
X48642Y34188D01*
X48598Y34246D01*
X48540Y34290D01*
X48472Y34318D01*
X48450Y34321D01*
D02*
G37*
G36*
X41900Y34371D02*
X41878Y34368D01*
X41810Y34340D01*
X41752Y34296D01*
X41708Y34238D01*
X41680Y34170D01*
X41677Y34148D01*
X41900D01*
Y34371D01*
D02*
G37*
G36*
X42000D02*
Y34148D01*
X42223D01*
X42220Y34170D01*
X42192Y34238D01*
X42148Y34296D01*
X42090Y34340D01*
X42022Y34368D01*
X42000Y34371D01*
D02*
G37*
G36*
X48350Y34321D02*
X48328Y34318D01*
X48260Y34290D01*
X48202Y34246D01*
X48158Y34188D01*
X48130Y34120D01*
X48127Y34098D01*
X48350D01*
Y34321D01*
D02*
G37*
G36*
X31650Y34021D02*
Y33798D01*
X31873D01*
X31870Y33820D01*
X31842Y33888D01*
X31798Y33946D01*
X31740Y33990D01*
X31672Y34018D01*
X31650Y34021D01*
D02*
G37*
G36*
X41900Y34048D02*
X41677D01*
X41680Y34026D01*
X41708Y33958D01*
X41752Y33900D01*
X41810Y33856D01*
X41878Y33828D01*
X41900Y33825D01*
Y34048D01*
D02*
G37*
G36*
X42223D02*
X42000D01*
Y33825D01*
X42022Y33828D01*
X42090Y33856D01*
X42148Y33900D01*
X42192Y33958D01*
X42220Y34026D01*
X42223Y34048D01*
D02*
G37*
G36*
X23850Y31671D02*
Y31448D01*
X24073D01*
X24070Y31470D01*
X24042Y31538D01*
X23998Y31596D01*
X23940Y31640D01*
X23872Y31668D01*
X23850Y31671D01*
D02*
G37*
G36*
X23750D02*
X23728Y31668D01*
X23660Y31640D01*
X23602Y31596D01*
X23558Y31538D01*
X23530Y31470D01*
X23527Y31448D01*
X23750D01*
Y31671D01*
D02*
G37*
G36*
X43713Y32686D02*
X43516D01*
X43400Y32674D01*
X43288Y32640D01*
X43186Y32585D01*
X43095Y32511D01*
X43021Y32421D01*
X42966Y32318D01*
X42933Y32207D01*
X42921Y32091D01*
X42933Y31974D01*
X42966Y31863D01*
X43021Y31760D01*
X43095Y31670D01*
X43186Y31596D01*
X43288Y31541D01*
X43400Y31507D01*
X43516Y31496D01*
X43713D01*
X43829Y31507D01*
X43941Y31541D01*
X44044Y31596D01*
X44134Y31670D01*
X44208Y31760D01*
X44263Y31863D01*
X44297Y31974D01*
X44308Y32091D01*
X44297Y32207D01*
X44263Y32318D01*
X44208Y32421D01*
X44134Y32511D01*
X44044Y32585D01*
X43941Y32640D01*
X43829Y32674D01*
X43713Y32686D01*
D02*
G37*
G36*
X38792D02*
X38595D01*
X38479Y32674D01*
X38367Y32640D01*
X38264Y32585D01*
X38174Y32511D01*
X38100Y32421D01*
X38045Y32318D01*
X38011Y32207D01*
X38000Y32091D01*
X38011Y31974D01*
X38045Y31863D01*
X38100Y31760D01*
X38174Y31670D01*
X38264Y31596D01*
X38367Y31541D01*
X38479Y31507D01*
X38595Y31496D01*
X38792D01*
X38908Y31507D01*
X39019Y31541D01*
X39122Y31596D01*
X39212Y31670D01*
X39286Y31760D01*
X39341Y31863D01*
X39375Y31974D01*
X39387Y32091D01*
X39375Y32207D01*
X39341Y32318D01*
X39286Y32421D01*
X39212Y32511D01*
X39122Y32585D01*
X39019Y32640D01*
X38908Y32674D01*
X38792Y32686D01*
D02*
G37*
G36*
X23750Y31348D02*
X23527D01*
X23530Y31326D01*
X23558Y31258D01*
X23602Y31200D01*
X23660Y31156D01*
X23728Y31128D01*
X23750Y31125D01*
Y31348D01*
D02*
G37*
G36*
X25752Y30952D02*
X24981D01*
Y30926D01*
X24950Y30905D01*
X24931Y30900D01*
X24865Y30908D01*
X24793Y30899D01*
X24725Y30871D01*
X24667Y30826D01*
X24623Y30769D01*
X24595Y30701D01*
X24585Y30629D01*
X24595Y30556D01*
X24623Y30489D01*
X24667Y30431D01*
X24725Y30387D01*
X24793Y30359D01*
X24865Y30349D01*
X24931Y30358D01*
X24950Y30352D01*
X24981Y30332D01*
Y30319D01*
X25752D01*
Y30952D01*
D02*
G37*
G36*
X35707Y31537D02*
X35393D01*
X35305Y31526D01*
X35223Y31492D01*
X35153Y31438D01*
X35099Y31368D01*
X35077Y31315D01*
X35023D01*
X35001Y31368D01*
X34947Y31438D01*
X34877Y31492D01*
X34795Y31526D01*
X34707Y31537D01*
X34393D01*
X34305Y31526D01*
X34223Y31492D01*
X34153Y31438D01*
X34099Y31368D01*
X34065Y31286D01*
X34053Y31198D01*
X34065Y31110D01*
X34099Y31028D01*
X34153Y30958D01*
X34223Y30904D01*
X34305Y30870D01*
X34393Y30859D01*
X34707D01*
X34795Y30870D01*
X34877Y30904D01*
X34947Y30958D01*
X35001Y31028D01*
X35023Y31081D01*
X35077D01*
X35099Y31028D01*
X35153Y30958D01*
X35223Y30904D01*
X35305Y30870D01*
X35393Y30859D01*
X35707D01*
X35795Y30870D01*
X35877Y30904D01*
X35947Y30958D01*
X36001Y31028D01*
X36035Y31110D01*
X36047Y31198D01*
X36035Y31286D01*
X36001Y31368D01*
X35947Y31438D01*
X35877Y31492D01*
X35795Y31526D01*
X35707Y31537D01*
D02*
G37*
G36*
X24073Y31348D02*
X23850D01*
Y31125D01*
X23872Y31128D01*
X23940Y31156D01*
X23998Y31200D01*
X24042Y31258D01*
X24070Y31326D01*
X24073Y31348D01*
D02*
G37*
G36*
X32400Y33448D02*
X32177D01*
X32180Y33426D01*
X32208Y33358D01*
X32252Y33300D01*
X32310Y33256D01*
X32378Y33228D01*
X32400Y33225D01*
Y33448D01*
D02*
G37*
G36*
X32723D02*
X32500D01*
Y33225D01*
X32522Y33228D01*
X32590Y33256D01*
X32648Y33300D01*
X32692Y33358D01*
X32720Y33426D01*
X32723Y33448D01*
D02*
G37*
G36*
X31550Y33698D02*
X31327D01*
X31330Y33676D01*
X31358Y33608D01*
X31402Y33550D01*
X31460Y33506D01*
X31528Y33478D01*
X31550Y33475D01*
Y33698D01*
D02*
G37*
G36*
X26804Y32884D02*
X26607D01*
X26478Y32867D01*
X26358Y32817D01*
X26255Y32738D01*
X26175Y32635D01*
X26126Y32515D01*
X26109Y32386D01*
X26126Y32257D01*
X26175Y32137D01*
X26255Y32034D01*
X26358Y31955D01*
X26478Y31905D01*
X26607Y31888D01*
X26804D01*
X26932Y31905D01*
X27053Y31955D01*
X27156Y32034D01*
X27235Y32137D01*
X27285Y32257D01*
X27301Y32386D01*
X27285Y32515D01*
X27235Y32635D01*
X27156Y32738D01*
X27053Y32817D01*
X26932Y32867D01*
X26804Y32884D01*
D02*
G37*
G36*
X50209Y32686D02*
X50012D01*
X49896Y32674D01*
X49785Y32640D01*
X49682Y32585D01*
X49591Y32511D01*
X49517Y32421D01*
X49463Y32318D01*
X49429Y32207D01*
X49417Y32091D01*
X49429Y31974D01*
X49463Y31863D01*
X49517Y31760D01*
X49591Y31670D01*
X49682Y31596D01*
X49785Y31541D01*
X49896Y31507D01*
X50012Y31496D01*
X50209D01*
X50325Y31507D01*
X50437Y31541D01*
X50540Y31596D01*
X50630Y31670D01*
X50704Y31760D01*
X50759Y31863D01*
X50793Y31974D01*
X50804Y32091D01*
X50793Y32207D01*
X50759Y32318D01*
X50704Y32421D01*
X50630Y32511D01*
X50540Y32585D01*
X50437Y32640D01*
X50325Y32674D01*
X50209Y32686D01*
D02*
G37*
G36*
X45288D02*
X45091D01*
X44975Y32674D01*
X44863Y32640D01*
X44760Y32585D01*
X44670Y32511D01*
X44596Y32421D01*
X44541Y32318D01*
X44507Y32207D01*
X44496Y32091D01*
X44507Y31974D01*
X44541Y31863D01*
X44596Y31760D01*
X44670Y31670D01*
X44760Y31596D01*
X44863Y31541D01*
X44975Y31507D01*
X45091Y31496D01*
X45288D01*
X45404Y31507D01*
X45515Y31541D01*
X45618Y31596D01*
X45709Y31670D01*
X45783Y31760D01*
X45837Y31863D01*
X45871Y31974D01*
X45883Y32091D01*
X45871Y32207D01*
X45837Y32318D01*
X45783Y32421D01*
X45709Y32511D01*
X45618Y32585D01*
X45515Y32640D01*
X45404Y32674D01*
X45288Y32686D01*
D02*
G37*
G36*
X34500Y32148D02*
X34060D01*
X34065Y32110D01*
X34099Y32028D01*
X34153Y31958D01*
X34223Y31904D01*
X34305Y31870D01*
X34393Y31859D01*
X34500D01*
Y32148D01*
D02*
G37*
%LPD*%
G36*
X28450Y33798D02*
Y33698D01*
X28400Y33848D01*
X28450Y33798D01*
D02*
G37*
G36*
X54100Y42872D02*
Y35172D01*
X22700D01*
Y42922D01*
X54050D01*
X54100Y42872D01*
D02*
G37*
%LPC*%
G36*
X26700Y37145D02*
Y36922D01*
X26923D01*
X26920Y36944D01*
X26892Y37012D01*
X26848Y37070D01*
X26790Y37114D01*
X26722Y37142D01*
X26700Y37145D01*
D02*
G37*
G36*
X35707Y37411D02*
X35600D01*
Y37122D01*
X36040D01*
X36035Y37160D01*
X36001Y37242D01*
X35947Y37312D01*
X35877Y37366D01*
X35795Y37400D01*
X35707Y37411D01*
D02*
G37*
G36*
X35500D02*
X35393D01*
X35305Y37400D01*
X35223Y37366D01*
X35153Y37312D01*
X35099Y37242D01*
X35077Y37189D01*
X35023D01*
X35001Y37242D01*
X34947Y37312D01*
X34877Y37366D01*
X34795Y37400D01*
X34707Y37411D01*
X34393D01*
X34305Y37400D01*
X34223Y37366D01*
X34153Y37312D01*
X34099Y37242D01*
X34065Y37160D01*
X34053Y37072D01*
X34065Y36984D01*
X34099Y36902D01*
X34153Y36832D01*
X34223Y36778D01*
X34305Y36744D01*
X34393Y36733D01*
X34707D01*
X34795Y36744D01*
X34877Y36778D01*
X34947Y36832D01*
X35001Y36902D01*
X35023Y36955D01*
X35077D01*
X35099Y36902D01*
X35153Y36832D01*
X35223Y36778D01*
X35305Y36744D01*
X35393Y36733D01*
X35500D01*
Y37072D01*
Y37411D01*
D02*
G37*
G36*
X26600Y37145D02*
X26578Y37142D01*
X26510Y37114D01*
X26452Y37070D01*
X26408Y37012D01*
X26380Y36944D01*
X26377Y36922D01*
X26600D01*
Y37145D01*
D02*
G37*
G36*
Y36822D02*
X26377D01*
X26380Y36800D01*
X26408Y36732D01*
X26452Y36674D01*
X26510Y36630D01*
X26578Y36602D01*
X26600Y36599D01*
Y36822D01*
D02*
G37*
G36*
X26923D02*
X26700D01*
Y36599D01*
X26722Y36602D01*
X26790Y36630D01*
X26848Y36674D01*
X26892Y36732D01*
X26920Y36800D01*
X26923Y36822D01*
D02*
G37*
G36*
X36040Y37022D02*
X35600D01*
Y36733D01*
X35707D01*
X35795Y36744D01*
X35877Y36778D01*
X35947Y36832D01*
X36001Y36902D01*
X36035Y36984D01*
X36040Y37022D01*
D02*
G37*
G36*
X26804Y38199D02*
X26607D01*
X26478Y38182D01*
X26358Y38132D01*
X26255Y38053D01*
X26175Y37950D01*
X26126Y37830D01*
X26109Y37701D01*
X26126Y37572D01*
X26175Y37452D01*
X26255Y37349D01*
X26358Y37270D01*
X26478Y37220D01*
X26607Y37203D01*
X26804D01*
X26932Y37220D01*
X27053Y37270D01*
X27156Y37349D01*
X27235Y37452D01*
X27285Y37572D01*
X27301Y37701D01*
X27285Y37830D01*
X27235Y37950D01*
X27156Y38053D01*
X27053Y38132D01*
X26932Y38182D01*
X26804Y38199D01*
D02*
G37*
G36*
X50209Y38591D02*
X50012D01*
X49896Y38580D01*
X49785Y38546D01*
X49682Y38491D01*
X49591Y38417D01*
X49517Y38327D01*
X49463Y38224D01*
X49429Y38112D01*
X49417Y37996D01*
X49429Y37880D01*
X49463Y37768D01*
X49517Y37666D01*
X49591Y37575D01*
X49682Y37501D01*
X49785Y37446D01*
X49896Y37413D01*
X50012Y37401D01*
X50209D01*
X50325Y37413D01*
X50437Y37446D01*
X50540Y37501D01*
X50630Y37575D01*
X50704Y37666D01*
X50759Y37768D01*
X50793Y37880D01*
X50804Y37996D01*
X50793Y38112D01*
X50759Y38224D01*
X50704Y38327D01*
X50630Y38417D01*
X50540Y38491D01*
X50437Y38546D01*
X50325Y38580D01*
X50209Y38591D01*
D02*
G37*
G36*
X35707Y38411D02*
X35393D01*
X35305Y38400D01*
X35223Y38366D01*
X35153Y38312D01*
X35099Y38242D01*
X35077Y38189D01*
X35023D01*
X35001Y38242D01*
X34947Y38312D01*
X34877Y38366D01*
X34795Y38400D01*
X34707Y38411D01*
X34393D01*
X34305Y38400D01*
X34223Y38366D01*
X34153Y38312D01*
X34099Y38242D01*
X34065Y38160D01*
X34053Y38072D01*
X34065Y37984D01*
X34099Y37902D01*
X34153Y37832D01*
X34223Y37778D01*
X34305Y37744D01*
X34393Y37733D01*
X34707D01*
X34795Y37744D01*
X34877Y37778D01*
X34947Y37832D01*
X35001Y37902D01*
X35023Y37955D01*
X35077D01*
X35099Y37902D01*
X35153Y37832D01*
X35223Y37778D01*
X35305Y37744D01*
X35393Y37733D01*
X35707D01*
X35795Y37744D01*
X35877Y37778D01*
X35947Y37832D01*
X36001Y37902D01*
X36035Y37984D01*
X36047Y38072D01*
X36035Y38160D01*
X36001Y38242D01*
X35947Y38312D01*
X35877Y38366D01*
X35795Y38400D01*
X35707Y38411D01*
D02*
G37*
G36*
X26804Y39301D02*
X26607D01*
X26478Y39284D01*
X26358Y39234D01*
X26255Y39155D01*
X26175Y39052D01*
X26126Y38932D01*
X26109Y38803D01*
X26126Y38674D01*
X26175Y38554D01*
X26255Y38451D01*
X26358Y38372D01*
X26478Y38322D01*
X26607Y38305D01*
X26804D01*
X26932Y38322D01*
X27053Y38372D01*
X27156Y38451D01*
X27235Y38554D01*
X27285Y38674D01*
X27301Y38803D01*
X27285Y38932D01*
X27235Y39052D01*
X27156Y39155D01*
X27053Y39234D01*
X26932Y39284D01*
X26804Y39301D01*
D02*
G37*
G36*
X45288Y38591D02*
X45091D01*
X44975Y38580D01*
X44863Y38546D01*
X44760Y38491D01*
X44670Y38417D01*
X44596Y38327D01*
X44541Y38224D01*
X44507Y38112D01*
X44496Y37996D01*
X44507Y37880D01*
X44541Y37768D01*
X44596Y37666D01*
X44670Y37575D01*
X44760Y37501D01*
X44863Y37446D01*
X44975Y37413D01*
X45091Y37401D01*
X45288D01*
X45404Y37413D01*
X45515Y37446D01*
X45618Y37501D01*
X45709Y37575D01*
X45783Y37666D01*
X45837Y37768D01*
X45871Y37880D01*
X45883Y37996D01*
X45871Y38112D01*
X45837Y38224D01*
X45783Y38327D01*
X45709Y38417D01*
X45618Y38491D01*
X45515Y38546D01*
X45404Y38580D01*
X45288Y38591D01*
D02*
G37*
G36*
X30859Y38199D02*
X30662D01*
X30533Y38182D01*
X30413Y38132D01*
X30310Y38053D01*
X30231Y37950D01*
X30181Y37830D01*
X30164Y37701D01*
X30181Y37572D01*
X30231Y37452D01*
X30310Y37349D01*
X30413Y37270D01*
X30533Y37220D01*
X30662Y37203D01*
X30859D01*
X30988Y37220D01*
X31108Y37270D01*
X31211Y37349D01*
X31290Y37452D01*
X31340Y37572D01*
X31357Y37701D01*
X31340Y37830D01*
X31290Y37950D01*
X31211Y38053D01*
X31108Y38132D01*
X30988Y38182D01*
X30859Y38199D01*
D02*
G37*
G36*
X38792Y38591D02*
X38595D01*
X38479Y38580D01*
X38367Y38546D01*
X38264Y38491D01*
X38174Y38417D01*
X38100Y38327D01*
X38045Y38224D01*
X38011Y38112D01*
X38000Y37996D01*
X38011Y37880D01*
X38045Y37768D01*
X38100Y37666D01*
X38174Y37575D01*
X38264Y37501D01*
X38367Y37446D01*
X38479Y37413D01*
X38595Y37401D01*
X38792D01*
X38908Y37413D01*
X39019Y37446D01*
X39122Y37501D01*
X39212Y37575D01*
X39286Y37666D01*
X39341Y37768D01*
X39375Y37880D01*
X39387Y37996D01*
X39375Y38112D01*
X39341Y38224D01*
X39286Y38327D01*
X39212Y38417D01*
X39122Y38491D01*
X39019Y38546D01*
X38908Y38580D01*
X38792Y38591D01*
D02*
G37*
G36*
X43713D02*
X43516D01*
X43400Y38580D01*
X43288Y38546D01*
X43186Y38491D01*
X43095Y38417D01*
X43021Y38327D01*
X42966Y38224D01*
X42933Y38112D01*
X42921Y37996D01*
X42933Y37880D01*
X42966Y37768D01*
X43021Y37666D01*
X43095Y37575D01*
X43186Y37501D01*
X43288Y37446D01*
X43400Y37413D01*
X43516Y37401D01*
X43713D01*
X43829Y37413D01*
X43941Y37446D01*
X44044Y37501D01*
X44134Y37575D01*
X44208Y37666D01*
X44263Y37768D01*
X44297Y37880D01*
X44308Y37996D01*
X44297Y38112D01*
X44263Y38224D01*
X44208Y38327D01*
X44134Y38417D01*
X44044Y38491D01*
X43941Y38546D01*
X43829Y38580D01*
X43713Y38591D01*
D02*
G37*
G36*
X46400Y35772D02*
X46177D01*
X46180Y35750D01*
X46208Y35682D01*
X46252Y35624D01*
X46310Y35580D01*
X46378Y35552D01*
X46400Y35549D01*
Y35772D01*
D02*
G37*
G36*
X46723D02*
X46500D01*
Y35549D01*
X46522Y35552D01*
X46590Y35580D01*
X46648Y35624D01*
X46692Y35682D01*
X46720Y35750D01*
X46723Y35772D01*
D02*
G37*
G36*
X39800Y36095D02*
X39778Y36092D01*
X39710Y36064D01*
X39652Y36020D01*
X39608Y35962D01*
X39580Y35894D01*
X39577Y35872D01*
X39800D01*
Y36095D01*
D02*
G37*
G36*
X40123Y35772D02*
X39900D01*
Y35549D01*
X39922Y35552D01*
X39990Y35580D01*
X40048Y35624D01*
X40092Y35682D01*
X40120Y35750D01*
X40123Y35772D01*
D02*
G37*
G36*
X23437Y36504D02*
X23321Y36493D01*
X23210Y36459D01*
X23107Y36404D01*
X23017Y36330D01*
X22943Y36240D01*
X22888Y36137D01*
X22854Y36026D01*
X22842Y35909D01*
X22854Y35793D01*
X22888Y35682D01*
X22943Y35579D01*
X23017Y35489D01*
X23107Y35415D01*
X23210Y35360D01*
X23321Y35326D01*
X23437Y35314D01*
X23553Y35326D01*
X23665Y35360D01*
X23768Y35415D01*
X23858Y35489D01*
X23932Y35579D01*
X23987Y35682D01*
X24021Y35793D01*
X24032Y35909D01*
X24021Y36026D01*
X23987Y36137D01*
X23932Y36240D01*
X23858Y36330D01*
X23768Y36404D01*
X23665Y36459D01*
X23553Y36493D01*
X23437Y36504D01*
D02*
G37*
G36*
X53359D02*
X53243Y36493D01*
X53131Y36459D01*
X53028Y36404D01*
X52938Y36330D01*
X52864Y36240D01*
X52809Y36137D01*
X52775Y36026D01*
X52764Y35909D01*
X52775Y35793D01*
X52809Y35682D01*
X52864Y35579D01*
X52938Y35489D01*
X53028Y35415D01*
X53131Y35360D01*
X53243Y35326D01*
X53359Y35314D01*
X53475Y35326D01*
X53586Y35360D01*
X53689Y35415D01*
X53779Y35489D01*
X53853Y35579D01*
X53908Y35682D01*
X53942Y35793D01*
X53954Y35909D01*
X53942Y36026D01*
X53908Y36137D01*
X53853Y36240D01*
X53779Y36330D01*
X53689Y36404D01*
X53586Y36459D01*
X53475Y36493D01*
X53359Y36504D01*
D02*
G37*
G36*
X39800Y35772D02*
X39577D01*
X39580Y35750D01*
X39608Y35682D01*
X39652Y35624D01*
X39710Y35580D01*
X39778Y35552D01*
X39800Y35549D01*
Y35772D01*
D02*
G37*
G36*
X39900Y36095D02*
Y35872D01*
X40123D01*
X40120Y35894D01*
X40092Y35962D01*
X40048Y36020D01*
X39990Y36064D01*
X39922Y36092D01*
X39900Y36095D01*
D02*
G37*
G36*
X32823Y36472D02*
X32600D01*
Y36249D01*
X32622Y36252D01*
X32690Y36280D01*
X32748Y36324D01*
X32792Y36382D01*
X32820Y36450D01*
X32823Y36472D01*
D02*
G37*
G36*
X32500Y36795D02*
X32478Y36792D01*
X32410Y36764D01*
X32352Y36720D01*
X32308Y36662D01*
X32280Y36594D01*
X32277Y36572D01*
X32500D01*
Y36795D01*
D02*
G37*
G36*
X32600D02*
Y36572D01*
X32823D01*
X32820Y36594D01*
X32792Y36662D01*
X32748Y36720D01*
X32690Y36764D01*
X32622Y36792D01*
X32600Y36795D01*
D02*
G37*
G36*
X32500Y36472D02*
X32277D01*
X32280Y36450D01*
X32308Y36382D01*
X32352Y36324D01*
X32410Y36280D01*
X32478Y36252D01*
X32500Y36249D01*
Y36472D01*
D02*
G37*
G36*
X46400Y36095D02*
X46378Y36092D01*
X46310Y36064D01*
X46252Y36020D01*
X46208Y35962D01*
X46180Y35894D01*
X46177Y35872D01*
X46400D01*
Y36095D01*
D02*
G37*
G36*
X46500D02*
Y35872D01*
X46723D01*
X46720Y35894D01*
X46692Y35962D01*
X46648Y36020D01*
X46590Y36064D01*
X46522Y36092D01*
X46500Y36095D01*
D02*
G37*
G36*
X33250Y42525D02*
X29000D01*
X28941Y42513D01*
X28892Y42480D01*
X28400Y41988D01*
X28040D01*
Y41756D01*
X26631D01*
X26572Y41744D01*
X26523Y41711D01*
X25258Y40447D01*
X25225Y40397D01*
X25214Y40339D01*
Y39613D01*
X24981D01*
Y39449D01*
X24774D01*
X24716Y39438D01*
X24666Y39405D01*
X24242Y38980D01*
X24209Y38931D01*
X24197Y38872D01*
Y38122D01*
X24209Y38064D01*
X24242Y38014D01*
X26642Y35614D01*
X26691Y35581D01*
X26750Y35569D01*
X28700D01*
X28759Y35581D01*
X28808Y35614D01*
X29112Y35917D01*
X29460D01*
Y36150D01*
X30531D01*
X30589Y36161D01*
X30639Y36195D01*
X32208Y37764D01*
X32241Y37814D01*
X32253Y37872D01*
Y38193D01*
X32485D01*
Y38826D01*
X31715D01*
Y38193D01*
X31947D01*
Y37935D01*
X30467Y36456D01*
X29460D01*
Y36688D01*
X28827D01*
Y36065D01*
X28723Y35961D01*
X28673Y35982D01*
Y36688D01*
X28040D01*
Y36604D01*
X28000Y36573D01*
X27990Y36573D01*
X27919Y36582D01*
X27847Y36573D01*
X27780Y36545D01*
X27722Y36500D01*
X27677Y36443D01*
X27649Y36375D01*
X27640Y36303D01*
X27649Y36230D01*
X27677Y36163D01*
X27722Y36105D01*
X27780Y36061D01*
X27847Y36033D01*
X27919Y36023D01*
X27990Y36032D01*
X28000Y36033D01*
X28040Y36002D01*
Y35925D01*
X28040Y35917D01*
X28021Y35875D01*
X26813D01*
X24503Y38185D01*
Y38809D01*
X24838Y39144D01*
X24981D01*
Y38980D01*
X25752D01*
Y39613D01*
X25519D01*
Y40275D01*
X26694Y41450D01*
X28040D01*
Y41217D01*
X28673D01*
Y41829D01*
X28781Y41937D01*
X28827Y41918D01*
Y41217D01*
X29460D01*
Y41398D01*
X29510Y41423D01*
X29541Y41399D01*
X29608Y41371D01*
X29681Y41362D01*
X29753Y41371D01*
X29820Y41399D01*
X29878Y41444D01*
X29923Y41502D01*
X29951Y41569D01*
X29960Y41641D01*
X29951Y41714D01*
X29923Y41781D01*
X29878Y41839D01*
X29820Y41883D01*
X29753Y41911D01*
X29681Y41921D01*
X29608Y41911D01*
X29541Y41883D01*
X29510Y41860D01*
X29460Y41885D01*
Y41988D01*
X28898D01*
X28879Y42034D01*
X29063Y42219D01*
X33187D01*
X34127Y41279D01*
X34099Y41242D01*
X34065Y41160D01*
X34053Y41072D01*
X34065Y40984D01*
X34099Y40902D01*
X34153Y40832D01*
X34223Y40778D01*
X34231Y40775D01*
X34221Y40725D01*
X31300D01*
X31241Y40713D01*
X31192Y40680D01*
X31161Y40650D01*
X31108Y40691D01*
X30988Y40741D01*
X30859Y40758D01*
X30662D01*
X30533Y40741D01*
X30413Y40691D01*
X30310Y40612D01*
X30231Y40509D01*
X30181Y40389D01*
X30164Y40260D01*
X30181Y40131D01*
X30231Y40011D01*
X30310Y39908D01*
X30413Y39829D01*
X30533Y39779D01*
X30662Y39762D01*
X30859D01*
X30988Y39779D01*
X31108Y39829D01*
X31211Y39908D01*
X31290Y40011D01*
X31340Y40131D01*
X31357Y40260D01*
X31341Y40378D01*
X31371Y40414D01*
X31377Y40419D01*
X32235D01*
X32251Y40372D01*
X32252Y40369D01*
X32208Y40312D01*
X32180Y40244D01*
X32170Y40172D01*
X32178Y40116D01*
X31992Y39930D01*
X31959Y39881D01*
X31947Y39822D01*
Y39613D01*
X31715D01*
Y38980D01*
X32485D01*
Y39613D01*
X32253D01*
Y39759D01*
X32394Y39900D01*
X32450Y39892D01*
X32522Y39902D01*
X32590Y39930D01*
X32648Y39974D01*
X32692Y40032D01*
X32720Y40100D01*
X32730Y40172D01*
X32720Y40244D01*
X32692Y40312D01*
X32648Y40369D01*
X32649Y40372D01*
X32665Y40419D01*
X34221D01*
X34231Y40369D01*
X34223Y40366D01*
X34153Y40312D01*
X34099Y40242D01*
X34065Y40160D01*
X34060Y40122D01*
X34550D01*
Y40072D01*
X34600D01*
Y39733D01*
X34707D01*
X34795Y39744D01*
X34877Y39778D01*
X34947Y39832D01*
X35001Y39902D01*
X35023Y39955D01*
X35077D01*
X35099Y39902D01*
X35153Y39832D01*
X35223Y39778D01*
X35305Y39744D01*
X35393Y39733D01*
X35707D01*
X35795Y39744D01*
X35877Y39778D01*
X35947Y39832D01*
X36001Y39902D01*
X36035Y39984D01*
X36047Y40072D01*
X36035Y40160D01*
X36001Y40242D01*
X35947Y40312D01*
X35877Y40366D01*
X35795Y40400D01*
X35707Y40411D01*
X35427D01*
X35158Y40680D01*
X35150Y40686D01*
X35165Y40736D01*
X36044D01*
Y41408D01*
X35168D01*
X35149Y41454D01*
X35463Y41769D01*
X38537D01*
X41871Y38434D01*
Y36822D01*
X41883Y36764D01*
X41916Y36714D01*
X42546Y36084D01*
X42527Y36038D01*
X42273D01*
X42163Y36148D01*
X42167Y36172D01*
X42157Y36244D01*
X42129Y36312D01*
X42085Y36370D01*
X42027Y36414D01*
X41959Y36442D01*
X41887Y36452D01*
X41815Y36442D01*
X41747Y36414D01*
X41689Y36370D01*
X41645Y36312D01*
X41617Y36244D01*
X41607Y36172D01*
X41617Y36100D01*
X41645Y36032D01*
X41689Y35974D01*
X41747Y35930D01*
X41815Y35902D01*
X41887Y35892D01*
X41911Y35896D01*
X42090Y35717D01*
Y35267D01*
X42723D01*
Y35842D01*
X42769Y35861D01*
X42877Y35753D01*
Y35267D01*
X43510D01*
Y35753D01*
X43976Y36219D01*
X49137D01*
X49218Y36138D01*
X49197Y36088D01*
X49184Y36088D01*
X48590D01*
Y36047D01*
X48569Y36034D01*
X48540Y36026D01*
X48490Y36064D01*
X48422Y36092D01*
X48350Y36102D01*
X48278Y36092D01*
X48210Y36064D01*
X48152Y36020D01*
X48108Y35962D01*
X48080Y35894D01*
X48070Y35822D01*
X48080Y35750D01*
X48108Y35682D01*
X48152Y35624D01*
X48210Y35580D01*
X48278Y35552D01*
X48350Y35542D01*
X48422Y35552D01*
X48490Y35580D01*
X48540Y35618D01*
X48569Y35610D01*
X48590Y35597D01*
Y35317D01*
X49223D01*
Y36049D01*
X49223Y36062D01*
X49244Y36071D01*
X49273Y36083D01*
X49377Y35979D01*
Y35317D01*
X50010D01*
Y36088D01*
X49700D01*
X49308Y36480D01*
X49259Y36513D01*
X49200Y36525D01*
X43913D01*
X43854Y36513D01*
X43805Y36480D01*
X43363Y36038D01*
X43025D01*
X42177Y36885D01*
Y38498D01*
X42166Y38556D01*
X42133Y38606D01*
X38708Y42030D01*
X38659Y42063D01*
X38600Y42075D01*
X35400D01*
X35341Y42063D01*
X35292Y42030D01*
X34673Y41411D01*
X34427D01*
X33358Y42480D01*
X33309Y42513D01*
X33250Y42525D01*
D02*
G37*
G36*
X30859Y39301D02*
X30662D01*
X30533Y39284D01*
X30413Y39234D01*
X30310Y39155D01*
X30231Y39052D01*
X30181Y38932D01*
X30164Y38803D01*
X30181Y38674D01*
X30231Y38554D01*
X30310Y38451D01*
X30413Y38372D01*
X30533Y38322D01*
X30662Y38305D01*
X30859D01*
X30988Y38322D01*
X31108Y38372D01*
X31211Y38451D01*
X31290Y38554D01*
X31340Y38674D01*
X31357Y38803D01*
X31340Y38932D01*
X31290Y39052D01*
X31211Y39155D01*
X31108Y39234D01*
X30988Y39284D01*
X30859Y39301D01*
D02*
G37*
G36*
X53359Y42804D02*
X53243Y42792D01*
X53131Y42758D01*
X53028Y42703D01*
X52938Y42629D01*
X52864Y42539D01*
X52809Y42436D01*
X52775Y42325D01*
X52764Y42209D01*
X52775Y42093D01*
X52809Y41981D01*
X52864Y41878D01*
X52938Y41788D01*
X53028Y41714D01*
X53131Y41659D01*
X53243Y41625D01*
X53359Y41614D01*
X53475Y41625D01*
X53586Y41659D01*
X53689Y41714D01*
X53779Y41788D01*
X53853Y41878D01*
X53908Y41981D01*
X53942Y42093D01*
X53954Y42209D01*
X53942Y42325D01*
X53908Y42436D01*
X53853Y42539D01*
X53779Y42629D01*
X53689Y42703D01*
X53586Y42758D01*
X53475Y42792D01*
X53359Y42804D01*
D02*
G37*
G36*
X48350Y41872D02*
X48127D01*
X48130Y41850D01*
X48158Y41782D01*
X48202Y41724D01*
X48260Y41680D01*
X48328Y41652D01*
X48350Y41649D01*
Y41872D01*
D02*
G37*
G36*
X48673D02*
X48450D01*
Y41649D01*
X48472Y41652D01*
X48540Y41680D01*
X48598Y41724D01*
X48642Y41782D01*
X48670Y41850D01*
X48673Y41872D01*
D02*
G37*
G36*
X23437Y42804D02*
X23321Y42792D01*
X23210Y42758D01*
X23107Y42703D01*
X23017Y42629D01*
X22943Y42539D01*
X22888Y42436D01*
X22854Y42325D01*
X22842Y42209D01*
X22854Y42093D01*
X22888Y41981D01*
X22943Y41878D01*
X23017Y41788D01*
X23107Y41714D01*
X23210Y41659D01*
X23321Y41625D01*
X23437Y41614D01*
X23553Y41625D01*
X23665Y41659D01*
X23768Y41714D01*
X23858Y41788D01*
X23932Y41878D01*
X23987Y41981D01*
X24021Y42093D01*
X24032Y42209D01*
X24021Y42325D01*
X23987Y42436D01*
X23932Y42539D01*
X23858Y42629D01*
X23768Y42703D01*
X23665Y42758D01*
X23553Y42792D01*
X23437Y42804D01*
D02*
G37*
G36*
X31873Y41572D02*
X31650D01*
Y41349D01*
X31672Y41352D01*
X31740Y41380D01*
X31798Y41424D01*
X31842Y41482D01*
X31870Y41550D01*
X31873Y41572D01*
D02*
G37*
G36*
X32400Y41645D02*
X32378Y41642D01*
X32310Y41614D01*
X32252Y41570D01*
X32208Y41512D01*
X32180Y41444D01*
X32177Y41422D01*
X32400D01*
Y41645D01*
D02*
G37*
G36*
X32500D02*
Y41422D01*
X32723D01*
X32720Y41444D01*
X32692Y41512D01*
X32648Y41570D01*
X32590Y41614D01*
X32522Y41642D01*
X32500Y41645D01*
D02*
G37*
G36*
X31550Y41895D02*
X31528Y41892D01*
X31460Y41864D01*
X31402Y41820D01*
X31358Y41762D01*
X31330Y41694D01*
X31327Y41672D01*
X31550D01*
Y41895D01*
D02*
G37*
G36*
X48450Y42195D02*
Y41972D01*
X48673D01*
X48670Y41994D01*
X48642Y42062D01*
X48598Y42120D01*
X48540Y42164D01*
X48472Y42192D01*
X48450Y42195D01*
D02*
G37*
G36*
X41900Y42245D02*
X41878Y42242D01*
X41810Y42214D01*
X41752Y42170D01*
X41708Y42112D01*
X41680Y42044D01*
X41677Y42022D01*
X41900D01*
Y42245D01*
D02*
G37*
G36*
X42000D02*
Y42022D01*
X42223D01*
X42220Y42044D01*
X42192Y42112D01*
X42148Y42170D01*
X42090Y42214D01*
X42022Y42242D01*
X42000Y42245D01*
D02*
G37*
G36*
X48350Y42195D02*
X48328Y42192D01*
X48260Y42164D01*
X48202Y42120D01*
X48158Y42062D01*
X48130Y41994D01*
X48127Y41972D01*
X48350D01*
Y42195D01*
D02*
G37*
G36*
X31650Y41895D02*
Y41672D01*
X31873D01*
X31870Y41694D01*
X31842Y41762D01*
X31798Y41820D01*
X31740Y41864D01*
X31672Y41892D01*
X31650Y41895D01*
D02*
G37*
G36*
X41900Y41922D02*
X41677D01*
X41680Y41900D01*
X41708Y41832D01*
X41752Y41774D01*
X41810Y41730D01*
X41878Y41702D01*
X41900Y41699D01*
Y41922D01*
D02*
G37*
G36*
X42223D02*
X42000D01*
Y41699D01*
X42022Y41702D01*
X42090Y41730D01*
X42148Y41774D01*
X42192Y41832D01*
X42220Y41900D01*
X42223Y41922D01*
D02*
G37*
G36*
X23850Y39545D02*
Y39322D01*
X24073D01*
X24070Y39344D01*
X24042Y39412D01*
X23998Y39470D01*
X23940Y39514D01*
X23872Y39542D01*
X23850Y39545D01*
D02*
G37*
G36*
X23750D02*
X23728Y39542D01*
X23660Y39514D01*
X23602Y39470D01*
X23558Y39412D01*
X23530Y39344D01*
X23527Y39322D01*
X23750D01*
Y39545D01*
D02*
G37*
G36*
X43713Y40560D02*
X43516D01*
X43400Y40548D01*
X43288Y40514D01*
X43186Y40459D01*
X43095Y40385D01*
X43021Y40295D01*
X42966Y40192D01*
X42933Y40081D01*
X42921Y39965D01*
X42933Y39848D01*
X42966Y39737D01*
X43021Y39634D01*
X43095Y39544D01*
X43186Y39470D01*
X43288Y39415D01*
X43400Y39381D01*
X43516Y39370D01*
X43713D01*
X43829Y39381D01*
X43941Y39415D01*
X44044Y39470D01*
X44134Y39544D01*
X44208Y39634D01*
X44263Y39737D01*
X44297Y39848D01*
X44308Y39965D01*
X44297Y40081D01*
X44263Y40192D01*
X44208Y40295D01*
X44134Y40385D01*
X44044Y40459D01*
X43941Y40514D01*
X43829Y40548D01*
X43713Y40560D01*
D02*
G37*
G36*
X38792D02*
X38595D01*
X38479Y40548D01*
X38367Y40514D01*
X38264Y40459D01*
X38174Y40385D01*
X38100Y40295D01*
X38045Y40192D01*
X38011Y40081D01*
X38000Y39965D01*
X38011Y39848D01*
X38045Y39737D01*
X38100Y39634D01*
X38174Y39544D01*
X38264Y39470D01*
X38367Y39415D01*
X38479Y39381D01*
X38595Y39370D01*
X38792D01*
X38908Y39381D01*
X39019Y39415D01*
X39122Y39470D01*
X39212Y39544D01*
X39286Y39634D01*
X39341Y39737D01*
X39375Y39848D01*
X39387Y39965D01*
X39375Y40081D01*
X39341Y40192D01*
X39286Y40295D01*
X39212Y40385D01*
X39122Y40459D01*
X39019Y40514D01*
X38908Y40548D01*
X38792Y40560D01*
D02*
G37*
G36*
X23750Y39222D02*
X23527D01*
X23530Y39200D01*
X23558Y39132D01*
X23602Y39074D01*
X23660Y39030D01*
X23728Y39002D01*
X23750Y38999D01*
Y39222D01*
D02*
G37*
G36*
X25752Y38826D02*
X24981D01*
Y38800D01*
X24950Y38779D01*
X24931Y38774D01*
X24865Y38782D01*
X24793Y38773D01*
X24725Y38745D01*
X24667Y38700D01*
X24623Y38643D01*
X24595Y38575D01*
X24585Y38503D01*
X24595Y38430D01*
X24623Y38363D01*
X24667Y38305D01*
X24725Y38261D01*
X24793Y38233D01*
X24865Y38223D01*
X24931Y38232D01*
X24950Y38226D01*
X24981Y38206D01*
Y38193D01*
X25752D01*
Y38826D01*
D02*
G37*
G36*
X35707Y39411D02*
X35393D01*
X35305Y39400D01*
X35223Y39366D01*
X35153Y39312D01*
X35099Y39242D01*
X35077Y39189D01*
X35023D01*
X35001Y39242D01*
X34947Y39312D01*
X34877Y39366D01*
X34795Y39400D01*
X34707Y39411D01*
X34393D01*
X34305Y39400D01*
X34223Y39366D01*
X34153Y39312D01*
X34099Y39242D01*
X34065Y39160D01*
X34053Y39072D01*
X34065Y38984D01*
X34099Y38902D01*
X34153Y38832D01*
X34223Y38778D01*
X34305Y38744D01*
X34393Y38733D01*
X34707D01*
X34795Y38744D01*
X34877Y38778D01*
X34947Y38832D01*
X35001Y38902D01*
X35023Y38955D01*
X35077D01*
X35099Y38902D01*
X35153Y38832D01*
X35223Y38778D01*
X35305Y38744D01*
X35393Y38733D01*
X35707D01*
X35795Y38744D01*
X35877Y38778D01*
X35947Y38832D01*
X36001Y38902D01*
X36035Y38984D01*
X36047Y39072D01*
X36035Y39160D01*
X36001Y39242D01*
X35947Y39312D01*
X35877Y39366D01*
X35795Y39400D01*
X35707Y39411D01*
D02*
G37*
G36*
X24073Y39222D02*
X23850D01*
Y38999D01*
X23872Y39002D01*
X23940Y39030D01*
X23998Y39074D01*
X24042Y39132D01*
X24070Y39200D01*
X24073Y39222D01*
D02*
G37*
G36*
X32400Y41322D02*
X32177D01*
X32180Y41300D01*
X32208Y41232D01*
X32252Y41174D01*
X32310Y41130D01*
X32378Y41102D01*
X32400Y41099D01*
Y41322D01*
D02*
G37*
G36*
X32723D02*
X32500D01*
Y41099D01*
X32522Y41102D01*
X32590Y41130D01*
X32648Y41174D01*
X32692Y41232D01*
X32720Y41300D01*
X32723Y41322D01*
D02*
G37*
G36*
X31550Y41572D02*
X31327D01*
X31330Y41550D01*
X31358Y41482D01*
X31402Y41424D01*
X31460Y41380D01*
X31528Y41352D01*
X31550Y41349D01*
Y41572D01*
D02*
G37*
G36*
X26804Y40758D02*
X26607D01*
X26478Y40741D01*
X26358Y40691D01*
X26255Y40612D01*
X26175Y40509D01*
X26126Y40389D01*
X26109Y40260D01*
X26126Y40131D01*
X26175Y40011D01*
X26255Y39908D01*
X26358Y39829D01*
X26478Y39779D01*
X26607Y39762D01*
X26804D01*
X26932Y39779D01*
X27053Y39829D01*
X27156Y39908D01*
X27235Y40011D01*
X27285Y40131D01*
X27301Y40260D01*
X27285Y40389D01*
X27235Y40509D01*
X27156Y40612D01*
X27053Y40691D01*
X26932Y40741D01*
X26804Y40758D01*
D02*
G37*
G36*
X50209Y40560D02*
X50012D01*
X49896Y40548D01*
X49785Y40514D01*
X49682Y40459D01*
X49591Y40385D01*
X49517Y40295D01*
X49463Y40192D01*
X49429Y40081D01*
X49417Y39965D01*
X49429Y39848D01*
X49463Y39737D01*
X49517Y39634D01*
X49591Y39544D01*
X49682Y39470D01*
X49785Y39415D01*
X49896Y39381D01*
X50012Y39370D01*
X50209D01*
X50325Y39381D01*
X50437Y39415D01*
X50540Y39470D01*
X50630Y39544D01*
X50704Y39634D01*
X50759Y39737D01*
X50793Y39848D01*
X50804Y39965D01*
X50793Y40081D01*
X50759Y40192D01*
X50704Y40295D01*
X50630Y40385D01*
X50540Y40459D01*
X50437Y40514D01*
X50325Y40548D01*
X50209Y40560D01*
D02*
G37*
G36*
X45288D02*
X45091D01*
X44975Y40548D01*
X44863Y40514D01*
X44760Y40459D01*
X44670Y40385D01*
X44596Y40295D01*
X44541Y40192D01*
X44507Y40081D01*
X44496Y39965D01*
X44507Y39848D01*
X44541Y39737D01*
X44596Y39634D01*
X44670Y39544D01*
X44760Y39470D01*
X44863Y39415D01*
X44975Y39381D01*
X45091Y39370D01*
X45288D01*
X45404Y39381D01*
X45515Y39415D01*
X45618Y39470D01*
X45709Y39544D01*
X45783Y39634D01*
X45837Y39737D01*
X45871Y39848D01*
X45883Y39965D01*
X45871Y40081D01*
X45837Y40192D01*
X45783Y40295D01*
X45709Y40385D01*
X45618Y40459D01*
X45515Y40514D01*
X45404Y40548D01*
X45288Y40560D01*
D02*
G37*
G36*
X34500Y40022D02*
X34060D01*
X34065Y39984D01*
X34099Y39902D01*
X34153Y39832D01*
X34223Y39778D01*
X34305Y39744D01*
X34393Y39733D01*
X34500D01*
Y40022D01*
D02*
G37*
%LPD*%
G36*
X28450Y41672D02*
Y41572D01*
X28400Y41722D01*
X28450Y41672D01*
D02*
G37*
G36*
X54100Y50746D02*
Y43046D01*
X22700D01*
Y50796D01*
X54050D01*
X54100Y50746D01*
D02*
G37*
%LPC*%
G36*
X26700Y45019D02*
Y44796D01*
X26923D01*
X26920Y44818D01*
X26892Y44886D01*
X26848Y44944D01*
X26790Y44988D01*
X26722Y45016D01*
X26700Y45019D01*
D02*
G37*
G36*
X35707Y45285D02*
X35600D01*
Y44996D01*
X36040D01*
X36035Y45034D01*
X36001Y45116D01*
X35947Y45186D01*
X35877Y45240D01*
X35795Y45274D01*
X35707Y45285D01*
D02*
G37*
G36*
X35500D02*
X35393D01*
X35305Y45274D01*
X35223Y45240D01*
X35153Y45186D01*
X35099Y45116D01*
X35077Y45063D01*
X35023D01*
X35001Y45116D01*
X34947Y45186D01*
X34877Y45240D01*
X34795Y45274D01*
X34707Y45285D01*
X34393D01*
X34305Y45274D01*
X34223Y45240D01*
X34153Y45186D01*
X34099Y45116D01*
X34065Y45034D01*
X34053Y44946D01*
X34065Y44858D01*
X34099Y44777D01*
X34153Y44706D01*
X34223Y44652D01*
X34305Y44619D01*
X34393Y44607D01*
X34707D01*
X34795Y44619D01*
X34877Y44652D01*
X34947Y44706D01*
X35001Y44777D01*
X35023Y44829D01*
X35077D01*
X35099Y44777D01*
X35153Y44706D01*
X35223Y44652D01*
X35305Y44619D01*
X35393Y44607D01*
X35500D01*
Y44946D01*
Y45285D01*
D02*
G37*
G36*
X26600Y45019D02*
X26578Y45016D01*
X26510Y44988D01*
X26452Y44944D01*
X26408Y44886D01*
X26380Y44818D01*
X26377Y44796D01*
X26600D01*
Y45019D01*
D02*
G37*
G36*
Y44696D02*
X26377D01*
X26380Y44674D01*
X26408Y44606D01*
X26452Y44548D01*
X26510Y44504D01*
X26578Y44476D01*
X26600Y44473D01*
Y44696D01*
D02*
G37*
G36*
X26923D02*
X26700D01*
Y44473D01*
X26722Y44476D01*
X26790Y44504D01*
X26848Y44548D01*
X26892Y44606D01*
X26920Y44674D01*
X26923Y44696D01*
D02*
G37*
G36*
X36040Y44896D02*
X35600D01*
Y44607D01*
X35707D01*
X35795Y44619D01*
X35877Y44652D01*
X35947Y44706D01*
X36001Y44777D01*
X36035Y44858D01*
X36040Y44896D01*
D02*
G37*
G36*
X26804Y46073D02*
X26607D01*
X26478Y46056D01*
X26358Y46006D01*
X26255Y45927D01*
X26175Y45824D01*
X26126Y45704D01*
X26109Y45575D01*
X26126Y45446D01*
X26175Y45326D01*
X26255Y45223D01*
X26358Y45144D01*
X26478Y45094D01*
X26607Y45077D01*
X26804D01*
X26932Y45094D01*
X27053Y45144D01*
X27156Y45223D01*
X27235Y45326D01*
X27285Y45446D01*
X27301Y45575D01*
X27285Y45704D01*
X27235Y45824D01*
X27156Y45927D01*
X27053Y46006D01*
X26932Y46056D01*
X26804Y46073D01*
D02*
G37*
G36*
X50209Y46465D02*
X50012D01*
X49896Y46454D01*
X49785Y46420D01*
X49682Y46365D01*
X49591Y46291D01*
X49517Y46201D01*
X49463Y46098D01*
X49429Y45986D01*
X49417Y45870D01*
X49429Y45754D01*
X49463Y45642D01*
X49517Y45540D01*
X49591Y45449D01*
X49682Y45375D01*
X49785Y45320D01*
X49896Y45287D01*
X50012Y45275D01*
X50209D01*
X50325Y45287D01*
X50437Y45320D01*
X50540Y45375D01*
X50630Y45449D01*
X50704Y45540D01*
X50759Y45642D01*
X50793Y45754D01*
X50804Y45870D01*
X50793Y45986D01*
X50759Y46098D01*
X50704Y46201D01*
X50630Y46291D01*
X50540Y46365D01*
X50437Y46420D01*
X50325Y46454D01*
X50209Y46465D01*
D02*
G37*
G36*
X35707Y46285D02*
X35393D01*
X35305Y46274D01*
X35223Y46240D01*
X35153Y46186D01*
X35099Y46116D01*
X35077Y46063D01*
X35023D01*
X35001Y46116D01*
X34947Y46186D01*
X34877Y46240D01*
X34795Y46274D01*
X34707Y46285D01*
X34393D01*
X34305Y46274D01*
X34223Y46240D01*
X34153Y46186D01*
X34099Y46116D01*
X34065Y46034D01*
X34053Y45946D01*
X34065Y45858D01*
X34099Y45777D01*
X34153Y45706D01*
X34223Y45652D01*
X34305Y45619D01*
X34393Y45607D01*
X34707D01*
X34795Y45619D01*
X34877Y45652D01*
X34947Y45706D01*
X35001Y45777D01*
X35023Y45829D01*
X35077D01*
X35099Y45777D01*
X35153Y45706D01*
X35223Y45652D01*
X35305Y45619D01*
X35393Y45607D01*
X35707D01*
X35795Y45619D01*
X35877Y45652D01*
X35947Y45706D01*
X36001Y45777D01*
X36035Y45858D01*
X36047Y45946D01*
X36035Y46034D01*
X36001Y46116D01*
X35947Y46186D01*
X35877Y46240D01*
X35795Y46274D01*
X35707Y46285D01*
D02*
G37*
G36*
X26804Y47175D02*
X26607D01*
X26478Y47158D01*
X26358Y47108D01*
X26255Y47029D01*
X26175Y46926D01*
X26126Y46806D01*
X26109Y46677D01*
X26126Y46548D01*
X26175Y46428D01*
X26255Y46325D01*
X26358Y46246D01*
X26478Y46196D01*
X26607Y46179D01*
X26804D01*
X26932Y46196D01*
X27053Y46246D01*
X27156Y46325D01*
X27235Y46428D01*
X27285Y46548D01*
X27301Y46677D01*
X27285Y46806D01*
X27235Y46926D01*
X27156Y47029D01*
X27053Y47108D01*
X26932Y47158D01*
X26804Y47175D01*
D02*
G37*
G36*
X45288Y46465D02*
X45091D01*
X44975Y46454D01*
X44863Y46420D01*
X44760Y46365D01*
X44670Y46291D01*
X44596Y46201D01*
X44541Y46098D01*
X44507Y45986D01*
X44496Y45870D01*
X44507Y45754D01*
X44541Y45642D01*
X44596Y45540D01*
X44670Y45449D01*
X44760Y45375D01*
X44863Y45320D01*
X44975Y45287D01*
X45091Y45275D01*
X45288D01*
X45404Y45287D01*
X45515Y45320D01*
X45618Y45375D01*
X45709Y45449D01*
X45783Y45540D01*
X45837Y45642D01*
X45871Y45754D01*
X45883Y45870D01*
X45871Y45986D01*
X45837Y46098D01*
X45783Y46201D01*
X45709Y46291D01*
X45618Y46365D01*
X45515Y46420D01*
X45404Y46454D01*
X45288Y46465D01*
D02*
G37*
G36*
X30859Y46073D02*
X30662D01*
X30533Y46056D01*
X30413Y46006D01*
X30310Y45927D01*
X30231Y45824D01*
X30181Y45704D01*
X30164Y45575D01*
X30181Y45446D01*
X30231Y45326D01*
X30310Y45223D01*
X30413Y45144D01*
X30533Y45094D01*
X30662Y45077D01*
X30859D01*
X30988Y45094D01*
X31108Y45144D01*
X31211Y45223D01*
X31290Y45326D01*
X31340Y45446D01*
X31357Y45575D01*
X31340Y45704D01*
X31290Y45824D01*
X31211Y45927D01*
X31108Y46006D01*
X30988Y46056D01*
X30859Y46073D01*
D02*
G37*
G36*
X38792Y46465D02*
X38595D01*
X38479Y46454D01*
X38367Y46420D01*
X38264Y46365D01*
X38174Y46291D01*
X38100Y46201D01*
X38045Y46098D01*
X38011Y45986D01*
X38000Y45870D01*
X38011Y45754D01*
X38045Y45642D01*
X38100Y45540D01*
X38174Y45449D01*
X38264Y45375D01*
X38367Y45320D01*
X38479Y45287D01*
X38595Y45275D01*
X38792D01*
X38908Y45287D01*
X39019Y45320D01*
X39122Y45375D01*
X39212Y45449D01*
X39286Y45540D01*
X39341Y45642D01*
X39375Y45754D01*
X39387Y45870D01*
X39375Y45986D01*
X39341Y46098D01*
X39286Y46201D01*
X39212Y46291D01*
X39122Y46365D01*
X39019Y46420D01*
X38908Y46454D01*
X38792Y46465D01*
D02*
G37*
G36*
X43713D02*
X43516D01*
X43400Y46454D01*
X43288Y46420D01*
X43186Y46365D01*
X43095Y46291D01*
X43021Y46201D01*
X42966Y46098D01*
X42933Y45986D01*
X42921Y45870D01*
X42933Y45754D01*
X42966Y45642D01*
X43021Y45540D01*
X43095Y45449D01*
X43186Y45375D01*
X43288Y45320D01*
X43400Y45287D01*
X43516Y45275D01*
X43713D01*
X43829Y45287D01*
X43941Y45320D01*
X44044Y45375D01*
X44134Y45449D01*
X44208Y45540D01*
X44263Y45642D01*
X44297Y45754D01*
X44308Y45870D01*
X44297Y45986D01*
X44263Y46098D01*
X44208Y46201D01*
X44134Y46291D01*
X44044Y46365D01*
X43941Y46420D01*
X43829Y46454D01*
X43713Y46465D01*
D02*
G37*
G36*
X46400Y43646D02*
X46177D01*
X46180Y43624D01*
X46208Y43556D01*
X46252Y43498D01*
X46310Y43454D01*
X46378Y43426D01*
X46400Y43423D01*
Y43646D01*
D02*
G37*
G36*
X46723D02*
X46500D01*
Y43423D01*
X46522Y43426D01*
X46590Y43454D01*
X46648Y43498D01*
X46692Y43556D01*
X46720Y43624D01*
X46723Y43646D01*
D02*
G37*
G36*
X39800Y43969D02*
X39778Y43966D01*
X39710Y43938D01*
X39652Y43894D01*
X39608Y43836D01*
X39580Y43768D01*
X39577Y43746D01*
X39800D01*
Y43969D01*
D02*
G37*
G36*
X40123Y43646D02*
X39900D01*
Y43423D01*
X39922Y43426D01*
X39990Y43454D01*
X40048Y43498D01*
X40092Y43556D01*
X40120Y43624D01*
X40123Y43646D01*
D02*
G37*
G36*
X23437Y44378D02*
X23321Y44367D01*
X23210Y44333D01*
X23107Y44278D01*
X23017Y44204D01*
X22943Y44114D01*
X22888Y44011D01*
X22854Y43900D01*
X22842Y43783D01*
X22854Y43667D01*
X22888Y43556D01*
X22943Y43453D01*
X23017Y43363D01*
X23107Y43289D01*
X23210Y43234D01*
X23321Y43200D01*
X23437Y43188D01*
X23553Y43200D01*
X23665Y43234D01*
X23768Y43289D01*
X23858Y43363D01*
X23932Y43453D01*
X23987Y43556D01*
X24021Y43667D01*
X24032Y43783D01*
X24021Y43900D01*
X23987Y44011D01*
X23932Y44114D01*
X23858Y44204D01*
X23768Y44278D01*
X23665Y44333D01*
X23553Y44367D01*
X23437Y44378D01*
D02*
G37*
G36*
X53359D02*
X53243Y44367D01*
X53131Y44333D01*
X53028Y44278D01*
X52938Y44204D01*
X52864Y44114D01*
X52809Y44011D01*
X52775Y43900D01*
X52764Y43783D01*
X52775Y43667D01*
X52809Y43556D01*
X52864Y43453D01*
X52938Y43363D01*
X53028Y43289D01*
X53131Y43234D01*
X53243Y43200D01*
X53359Y43188D01*
X53475Y43200D01*
X53586Y43234D01*
X53689Y43289D01*
X53779Y43363D01*
X53853Y43453D01*
X53908Y43556D01*
X53942Y43667D01*
X53954Y43783D01*
X53942Y43900D01*
X53908Y44011D01*
X53853Y44114D01*
X53779Y44204D01*
X53689Y44278D01*
X53586Y44333D01*
X53475Y44367D01*
X53359Y44378D01*
D02*
G37*
G36*
X39800Y43646D02*
X39577D01*
X39580Y43624D01*
X39608Y43556D01*
X39652Y43498D01*
X39710Y43454D01*
X39778Y43426D01*
X39800Y43423D01*
Y43646D01*
D02*
G37*
G36*
X39900Y43969D02*
Y43746D01*
X40123D01*
X40120Y43768D01*
X40092Y43836D01*
X40048Y43894D01*
X39990Y43938D01*
X39922Y43966D01*
X39900Y43969D01*
D02*
G37*
G36*
X32823Y44346D02*
X32600D01*
Y44123D01*
X32622Y44126D01*
X32690Y44154D01*
X32748Y44198D01*
X32792Y44256D01*
X32820Y44324D01*
X32823Y44346D01*
D02*
G37*
G36*
X32500Y44669D02*
X32478Y44666D01*
X32410Y44638D01*
X32352Y44594D01*
X32308Y44536D01*
X32280Y44468D01*
X32277Y44446D01*
X32500D01*
Y44669D01*
D02*
G37*
G36*
X32600D02*
Y44446D01*
X32823D01*
X32820Y44468D01*
X32792Y44536D01*
X32748Y44594D01*
X32690Y44638D01*
X32622Y44666D01*
X32600Y44669D01*
D02*
G37*
G36*
X32500Y44346D02*
X32277D01*
X32280Y44324D01*
X32308Y44256D01*
X32352Y44198D01*
X32410Y44154D01*
X32478Y44126D01*
X32500Y44123D01*
Y44346D01*
D02*
G37*
G36*
X46400Y43969D02*
X46378Y43966D01*
X46310Y43938D01*
X46252Y43894D01*
X46208Y43836D01*
X46180Y43768D01*
X46177Y43746D01*
X46400D01*
Y43969D01*
D02*
G37*
G36*
X46500D02*
Y43746D01*
X46723D01*
X46720Y43768D01*
X46692Y43836D01*
X46648Y43894D01*
X46590Y43938D01*
X46522Y43966D01*
X46500Y43969D01*
D02*
G37*
G36*
X33250Y50399D02*
X29000D01*
X28941Y50387D01*
X28892Y50354D01*
X28400Y49862D01*
X28040D01*
Y49630D01*
X26631D01*
X26572Y49618D01*
X26523Y49585D01*
X25258Y48321D01*
X25225Y48271D01*
X25214Y48213D01*
Y47487D01*
X24981D01*
Y47323D01*
X24774D01*
X24716Y47312D01*
X24666Y47279D01*
X24242Y46854D01*
X24209Y46805D01*
X24197Y46746D01*
Y45996D01*
X24209Y45938D01*
X24242Y45888D01*
X26642Y43488D01*
X26691Y43455D01*
X26750Y43443D01*
X28700D01*
X28759Y43455D01*
X28808Y43488D01*
X29112Y43791D01*
X29460D01*
Y44024D01*
X30531D01*
X30589Y44035D01*
X30639Y44069D01*
X32208Y45638D01*
X32241Y45688D01*
X32253Y45746D01*
Y46067D01*
X32485D01*
Y46700D01*
X31715D01*
Y46067D01*
X31947D01*
Y45809D01*
X30467Y44330D01*
X29460D01*
Y44562D01*
X28827D01*
Y43940D01*
X28723Y43835D01*
X28673Y43856D01*
Y44562D01*
X28040D01*
Y44478D01*
X28000Y44447D01*
X27990Y44447D01*
X27919Y44456D01*
X27847Y44447D01*
X27780Y44419D01*
X27722Y44374D01*
X27677Y44317D01*
X27649Y44249D01*
X27640Y44177D01*
X27649Y44104D01*
X27677Y44037D01*
X27722Y43979D01*
X27780Y43935D01*
X27847Y43907D01*
X27919Y43897D01*
X27990Y43906D01*
X28000Y43907D01*
X28040Y43876D01*
Y43799D01*
X28040Y43791D01*
X28021Y43749D01*
X26813D01*
X24503Y46059D01*
Y46683D01*
X24838Y47018D01*
X24981D01*
Y46854D01*
X25752D01*
Y47487D01*
X25519D01*
Y48149D01*
X26694Y49324D01*
X28040D01*
Y49091D01*
X28673D01*
Y49703D01*
X28781Y49811D01*
X28827Y49792D01*
Y49091D01*
X29460D01*
Y49272D01*
X29510Y49297D01*
X29541Y49273D01*
X29608Y49245D01*
X29681Y49236D01*
X29753Y49245D01*
X29820Y49273D01*
X29878Y49318D01*
X29923Y49376D01*
X29951Y49443D01*
X29960Y49515D01*
X29951Y49588D01*
X29923Y49655D01*
X29878Y49713D01*
X29820Y49757D01*
X29753Y49785D01*
X29681Y49795D01*
X29608Y49785D01*
X29541Y49757D01*
X29510Y49734D01*
X29460Y49759D01*
Y49862D01*
X28898D01*
X28879Y49908D01*
X29063Y50093D01*
X33187D01*
X34127Y49153D01*
X34099Y49116D01*
X34065Y49034D01*
X34053Y48946D01*
X34065Y48858D01*
X34099Y48776D01*
X34153Y48706D01*
X34223Y48652D01*
X34231Y48649D01*
X34221Y48599D01*
X31300D01*
X31241Y48587D01*
X31192Y48554D01*
X31161Y48524D01*
X31108Y48565D01*
X30988Y48615D01*
X30859Y48632D01*
X30662D01*
X30533Y48615D01*
X30413Y48565D01*
X30310Y48486D01*
X30231Y48383D01*
X30181Y48263D01*
X30164Y48134D01*
X30181Y48005D01*
X30231Y47885D01*
X30310Y47782D01*
X30413Y47703D01*
X30533Y47653D01*
X30662Y47636D01*
X30859D01*
X30988Y47653D01*
X31108Y47703D01*
X31211Y47782D01*
X31290Y47885D01*
X31340Y48005D01*
X31357Y48134D01*
X31341Y48252D01*
X31371Y48288D01*
X31377Y48293D01*
X32235D01*
X32251Y48246D01*
X32252Y48243D01*
X32208Y48186D01*
X32180Y48118D01*
X32170Y48046D01*
X32178Y47990D01*
X31992Y47804D01*
X31959Y47755D01*
X31947Y47696D01*
Y47487D01*
X31715D01*
Y46854D01*
X32485D01*
Y47487D01*
X32253D01*
Y47633D01*
X32394Y47774D01*
X32450Y47767D01*
X32522Y47776D01*
X32590Y47804D01*
X32648Y47848D01*
X32692Y47906D01*
X32720Y47974D01*
X32730Y48046D01*
X32720Y48118D01*
X32692Y48186D01*
X32648Y48243D01*
X32649Y48246D01*
X32665Y48293D01*
X34221D01*
X34231Y48243D01*
X34223Y48240D01*
X34153Y48186D01*
X34099Y48116D01*
X34065Y48034D01*
X34060Y47996D01*
X34550D01*
Y47946D01*
X34600D01*
Y47607D01*
X34707D01*
X34795Y47618D01*
X34877Y47652D01*
X34947Y47706D01*
X35001Y47776D01*
X35023Y47829D01*
X35077D01*
X35099Y47776D01*
X35153Y47706D01*
X35223Y47652D01*
X35305Y47618D01*
X35393Y47607D01*
X35707D01*
X35795Y47618D01*
X35877Y47652D01*
X35947Y47706D01*
X36001Y47776D01*
X36035Y47858D01*
X36047Y47946D01*
X36035Y48034D01*
X36001Y48116D01*
X35947Y48186D01*
X35877Y48240D01*
X35795Y48274D01*
X35707Y48285D01*
X35427D01*
X35158Y48554D01*
X35150Y48560D01*
X35165Y48610D01*
X36044D01*
Y49282D01*
X35168D01*
X35149Y49328D01*
X35463Y49643D01*
X38537D01*
X41871Y46308D01*
Y44696D01*
X41883Y44638D01*
X41916Y44588D01*
X42546Y43958D01*
X42527Y43912D01*
X42273D01*
X42163Y44022D01*
X42167Y44046D01*
X42157Y44118D01*
X42129Y44186D01*
X42085Y44244D01*
X42027Y44288D01*
X41959Y44316D01*
X41887Y44326D01*
X41815Y44316D01*
X41747Y44288D01*
X41689Y44244D01*
X41645Y44186D01*
X41617Y44118D01*
X41607Y44046D01*
X41617Y43974D01*
X41645Y43906D01*
X41689Y43848D01*
X41747Y43804D01*
X41815Y43776D01*
X41887Y43767D01*
X41911Y43770D01*
X42090Y43591D01*
Y43141D01*
X42723D01*
Y43716D01*
X42769Y43735D01*
X42877Y43627D01*
Y43141D01*
X43510D01*
Y43627D01*
X43976Y44093D01*
X49137D01*
X49218Y44012D01*
X49197Y43962D01*
X49184Y43962D01*
X48590D01*
Y43921D01*
X48569Y43908D01*
X48540Y43900D01*
X48490Y43938D01*
X48422Y43966D01*
X48350Y43976D01*
X48278Y43966D01*
X48210Y43938D01*
X48152Y43894D01*
X48108Y43836D01*
X48080Y43768D01*
X48070Y43696D01*
X48080Y43624D01*
X48108Y43556D01*
X48152Y43498D01*
X48210Y43454D01*
X48278Y43426D01*
X48350Y43417D01*
X48422Y43426D01*
X48490Y43454D01*
X48540Y43492D01*
X48569Y43484D01*
X48590Y43471D01*
Y43191D01*
X49223D01*
Y43923D01*
X49223Y43936D01*
X49244Y43945D01*
X49273Y43957D01*
X49377Y43853D01*
Y43191D01*
X50010D01*
Y43962D01*
X49700D01*
X49308Y44354D01*
X49259Y44387D01*
X49200Y44399D01*
X43913D01*
X43854Y44387D01*
X43805Y44354D01*
X43363Y43912D01*
X43025D01*
X42177Y44759D01*
Y46372D01*
X42166Y46430D01*
X42133Y46480D01*
X38708Y49904D01*
X38659Y49937D01*
X38600Y49949D01*
X35400D01*
X35341Y49937D01*
X35292Y49904D01*
X34673Y49285D01*
X34427D01*
X33358Y50354D01*
X33309Y50387D01*
X33250Y50399D01*
D02*
G37*
G36*
X30859Y47175D02*
X30662D01*
X30533Y47158D01*
X30413Y47108D01*
X30310Y47029D01*
X30231Y46926D01*
X30181Y46806D01*
X30164Y46677D01*
X30181Y46548D01*
X30231Y46428D01*
X30310Y46325D01*
X30413Y46246D01*
X30533Y46196D01*
X30662Y46179D01*
X30859D01*
X30988Y46196D01*
X31108Y46246D01*
X31211Y46325D01*
X31290Y46428D01*
X31340Y46548D01*
X31357Y46677D01*
X31340Y46806D01*
X31290Y46926D01*
X31211Y47029D01*
X31108Y47108D01*
X30988Y47158D01*
X30859Y47175D01*
D02*
G37*
G36*
X53359Y50678D02*
X53243Y50666D01*
X53131Y50632D01*
X53028Y50577D01*
X52938Y50503D01*
X52864Y50413D01*
X52809Y50310D01*
X52775Y50199D01*
X52764Y50083D01*
X52775Y49967D01*
X52809Y49855D01*
X52864Y49752D01*
X52938Y49662D01*
X53028Y49588D01*
X53131Y49533D01*
X53243Y49499D01*
X53359Y49488D01*
X53475Y49499D01*
X53586Y49533D01*
X53689Y49588D01*
X53779Y49662D01*
X53853Y49752D01*
X53908Y49855D01*
X53942Y49967D01*
X53954Y50083D01*
X53942Y50199D01*
X53908Y50310D01*
X53853Y50413D01*
X53779Y50503D01*
X53689Y50577D01*
X53586Y50632D01*
X53475Y50666D01*
X53359Y50678D01*
D02*
G37*
G36*
X48350Y49746D02*
X48127D01*
X48130Y49724D01*
X48158Y49656D01*
X48202Y49598D01*
X48260Y49554D01*
X48328Y49526D01*
X48350Y49523D01*
Y49746D01*
D02*
G37*
G36*
X48673D02*
X48450D01*
Y49523D01*
X48472Y49526D01*
X48540Y49554D01*
X48598Y49598D01*
X48642Y49656D01*
X48670Y49724D01*
X48673Y49746D01*
D02*
G37*
G36*
X23437Y50678D02*
X23321Y50666D01*
X23210Y50632D01*
X23107Y50577D01*
X23017Y50503D01*
X22943Y50413D01*
X22888Y50310D01*
X22854Y50199D01*
X22842Y50083D01*
X22854Y49967D01*
X22888Y49855D01*
X22943Y49752D01*
X23017Y49662D01*
X23107Y49588D01*
X23210Y49533D01*
X23321Y49499D01*
X23437Y49488D01*
X23553Y49499D01*
X23665Y49533D01*
X23768Y49588D01*
X23858Y49662D01*
X23932Y49752D01*
X23987Y49855D01*
X24021Y49967D01*
X24032Y50083D01*
X24021Y50199D01*
X23987Y50310D01*
X23932Y50413D01*
X23858Y50503D01*
X23768Y50577D01*
X23665Y50632D01*
X23553Y50666D01*
X23437Y50678D01*
D02*
G37*
G36*
X31873Y49446D02*
X31650D01*
Y49223D01*
X31672Y49226D01*
X31740Y49254D01*
X31798Y49298D01*
X31842Y49356D01*
X31870Y49424D01*
X31873Y49446D01*
D02*
G37*
G36*
X32400Y49519D02*
X32378Y49516D01*
X32310Y49488D01*
X32252Y49444D01*
X32208Y49386D01*
X32180Y49318D01*
X32177Y49296D01*
X32400D01*
Y49519D01*
D02*
G37*
G36*
X32500D02*
Y49296D01*
X32723D01*
X32720Y49318D01*
X32692Y49386D01*
X32648Y49444D01*
X32590Y49488D01*
X32522Y49516D01*
X32500Y49519D01*
D02*
G37*
G36*
X31550Y49769D02*
X31528Y49766D01*
X31460Y49738D01*
X31402Y49694D01*
X31358Y49636D01*
X31330Y49568D01*
X31327Y49546D01*
X31550D01*
Y49769D01*
D02*
G37*
G36*
X48450Y50069D02*
Y49846D01*
X48673D01*
X48670Y49868D01*
X48642Y49936D01*
X48598Y49994D01*
X48540Y50038D01*
X48472Y50066D01*
X48450Y50069D01*
D02*
G37*
G36*
X41900Y50119D02*
X41878Y50116D01*
X41810Y50088D01*
X41752Y50044D01*
X41708Y49986D01*
X41680Y49918D01*
X41677Y49896D01*
X41900D01*
Y50119D01*
D02*
G37*
G36*
X42000D02*
Y49896D01*
X42223D01*
X42220Y49918D01*
X42192Y49986D01*
X42148Y50044D01*
X42090Y50088D01*
X42022Y50116D01*
X42000Y50119D01*
D02*
G37*
G36*
X48350Y50069D02*
X48328Y50066D01*
X48260Y50038D01*
X48202Y49994D01*
X48158Y49936D01*
X48130Y49868D01*
X48127Y49846D01*
X48350D01*
Y50069D01*
D02*
G37*
G36*
X31650Y49769D02*
Y49546D01*
X31873D01*
X31870Y49568D01*
X31842Y49636D01*
X31798Y49694D01*
X31740Y49738D01*
X31672Y49766D01*
X31650Y49769D01*
D02*
G37*
G36*
X41900Y49796D02*
X41677D01*
X41680Y49774D01*
X41708Y49706D01*
X41752Y49648D01*
X41810Y49604D01*
X41878Y49576D01*
X41900Y49573D01*
Y49796D01*
D02*
G37*
G36*
X42223D02*
X42000D01*
Y49573D01*
X42022Y49576D01*
X42090Y49604D01*
X42148Y49648D01*
X42192Y49706D01*
X42220Y49774D01*
X42223Y49796D01*
D02*
G37*
G36*
X23850Y47419D02*
Y47196D01*
X24073D01*
X24070Y47218D01*
X24042Y47286D01*
X23998Y47344D01*
X23940Y47388D01*
X23872Y47416D01*
X23850Y47419D01*
D02*
G37*
G36*
X23750D02*
X23728Y47416D01*
X23660Y47388D01*
X23602Y47344D01*
X23558Y47286D01*
X23530Y47218D01*
X23527Y47196D01*
X23750D01*
Y47419D01*
D02*
G37*
G36*
X43713Y48434D02*
X43516D01*
X43400Y48422D01*
X43288Y48388D01*
X43186Y48333D01*
X43095Y48259D01*
X43021Y48169D01*
X42966Y48066D01*
X42933Y47955D01*
X42921Y47839D01*
X42933Y47723D01*
X42966Y47611D01*
X43021Y47508D01*
X43095Y47418D01*
X43186Y47344D01*
X43288Y47289D01*
X43400Y47255D01*
X43516Y47244D01*
X43713D01*
X43829Y47255D01*
X43941Y47289D01*
X44044Y47344D01*
X44134Y47418D01*
X44208Y47508D01*
X44263Y47611D01*
X44297Y47723D01*
X44308Y47839D01*
X44297Y47955D01*
X44263Y48066D01*
X44208Y48169D01*
X44134Y48259D01*
X44044Y48333D01*
X43941Y48388D01*
X43829Y48422D01*
X43713Y48434D01*
D02*
G37*
G36*
X38792D02*
X38595D01*
X38479Y48422D01*
X38367Y48388D01*
X38264Y48333D01*
X38174Y48259D01*
X38100Y48169D01*
X38045Y48066D01*
X38011Y47955D01*
X38000Y47839D01*
X38011Y47723D01*
X38045Y47611D01*
X38100Y47508D01*
X38174Y47418D01*
X38264Y47344D01*
X38367Y47289D01*
X38479Y47255D01*
X38595Y47244D01*
X38792D01*
X38908Y47255D01*
X39019Y47289D01*
X39122Y47344D01*
X39212Y47418D01*
X39286Y47508D01*
X39341Y47611D01*
X39375Y47723D01*
X39387Y47839D01*
X39375Y47955D01*
X39341Y48066D01*
X39286Y48169D01*
X39212Y48259D01*
X39122Y48333D01*
X39019Y48388D01*
X38908Y48422D01*
X38792Y48434D01*
D02*
G37*
G36*
X23750Y47096D02*
X23527D01*
X23530Y47074D01*
X23558Y47006D01*
X23602Y46948D01*
X23660Y46904D01*
X23728Y46876D01*
X23750Y46873D01*
Y47096D01*
D02*
G37*
G36*
X25752Y46700D02*
X24981D01*
Y46674D01*
X24950Y46653D01*
X24931Y46648D01*
X24865Y46656D01*
X24793Y46647D01*
X24725Y46619D01*
X24667Y46574D01*
X24623Y46517D01*
X24595Y46449D01*
X24585Y46377D01*
X24595Y46304D01*
X24623Y46237D01*
X24667Y46179D01*
X24725Y46135D01*
X24793Y46107D01*
X24865Y46097D01*
X24931Y46106D01*
X24950Y46100D01*
X24981Y46080D01*
Y46067D01*
X25752D01*
Y46700D01*
D02*
G37*
G36*
X35707Y47285D02*
X35393D01*
X35305Y47274D01*
X35223Y47240D01*
X35153Y47186D01*
X35099Y47116D01*
X35077Y47063D01*
X35023D01*
X35001Y47116D01*
X34947Y47186D01*
X34877Y47240D01*
X34795Y47274D01*
X34707Y47285D01*
X34393D01*
X34305Y47274D01*
X34223Y47240D01*
X34153Y47186D01*
X34099Y47116D01*
X34065Y47034D01*
X34053Y46946D01*
X34065Y46858D01*
X34099Y46776D01*
X34153Y46706D01*
X34223Y46652D01*
X34305Y46618D01*
X34393Y46607D01*
X34707D01*
X34795Y46618D01*
X34877Y46652D01*
X34947Y46706D01*
X35001Y46776D01*
X35023Y46829D01*
X35077D01*
X35099Y46776D01*
X35153Y46706D01*
X35223Y46652D01*
X35305Y46618D01*
X35393Y46607D01*
X35707D01*
X35795Y46618D01*
X35877Y46652D01*
X35947Y46706D01*
X36001Y46776D01*
X36035Y46858D01*
X36047Y46946D01*
X36035Y47034D01*
X36001Y47116D01*
X35947Y47186D01*
X35877Y47240D01*
X35795Y47274D01*
X35707Y47285D01*
D02*
G37*
G36*
X24073Y47096D02*
X23850D01*
Y46873D01*
X23872Y46876D01*
X23940Y46904D01*
X23998Y46948D01*
X24042Y47006D01*
X24070Y47074D01*
X24073Y47096D01*
D02*
G37*
G36*
X32400Y49196D02*
X32177D01*
X32180Y49174D01*
X32208Y49106D01*
X32252Y49048D01*
X32310Y49004D01*
X32378Y48976D01*
X32400Y48973D01*
Y49196D01*
D02*
G37*
G36*
X32723D02*
X32500D01*
Y48973D01*
X32522Y48976D01*
X32590Y49004D01*
X32648Y49048D01*
X32692Y49106D01*
X32720Y49174D01*
X32723Y49196D01*
D02*
G37*
G36*
X31550Y49446D02*
X31327D01*
X31330Y49424D01*
X31358Y49356D01*
X31402Y49298D01*
X31460Y49254D01*
X31528Y49226D01*
X31550Y49223D01*
Y49446D01*
D02*
G37*
G36*
X26804Y48632D02*
X26607D01*
X26478Y48615D01*
X26358Y48565D01*
X26255Y48486D01*
X26175Y48383D01*
X26126Y48263D01*
X26109Y48134D01*
X26126Y48005D01*
X26175Y47885D01*
X26255Y47782D01*
X26358Y47703D01*
X26478Y47653D01*
X26607Y47636D01*
X26804D01*
X26932Y47653D01*
X27053Y47703D01*
X27156Y47782D01*
X27235Y47885D01*
X27285Y48005D01*
X27301Y48134D01*
X27285Y48263D01*
X27235Y48383D01*
X27156Y48486D01*
X27053Y48565D01*
X26932Y48615D01*
X26804Y48632D01*
D02*
G37*
G36*
X50209Y48434D02*
X50012D01*
X49896Y48422D01*
X49785Y48388D01*
X49682Y48333D01*
X49591Y48259D01*
X49517Y48169D01*
X49463Y48066D01*
X49429Y47955D01*
X49417Y47839D01*
X49429Y47723D01*
X49463Y47611D01*
X49517Y47508D01*
X49591Y47418D01*
X49682Y47344D01*
X49785Y47289D01*
X49896Y47255D01*
X50012Y47244D01*
X50209D01*
X50325Y47255D01*
X50437Y47289D01*
X50540Y47344D01*
X50630Y47418D01*
X50704Y47508D01*
X50759Y47611D01*
X50793Y47723D01*
X50804Y47839D01*
X50793Y47955D01*
X50759Y48066D01*
X50704Y48169D01*
X50630Y48259D01*
X50540Y48333D01*
X50437Y48388D01*
X50325Y48422D01*
X50209Y48434D01*
D02*
G37*
G36*
X45288D02*
X45091D01*
X44975Y48422D01*
X44863Y48388D01*
X44760Y48333D01*
X44670Y48259D01*
X44596Y48169D01*
X44541Y48066D01*
X44507Y47955D01*
X44496Y47839D01*
X44507Y47723D01*
X44541Y47611D01*
X44596Y47508D01*
X44670Y47418D01*
X44760Y47344D01*
X44863Y47289D01*
X44975Y47255D01*
X45091Y47244D01*
X45288D01*
X45404Y47255D01*
X45515Y47289D01*
X45618Y47344D01*
X45709Y47418D01*
X45783Y47508D01*
X45837Y47611D01*
X45871Y47723D01*
X45883Y47839D01*
X45871Y47955D01*
X45837Y48066D01*
X45783Y48169D01*
X45709Y48259D01*
X45618Y48333D01*
X45515Y48388D01*
X45404Y48422D01*
X45288Y48434D01*
D02*
G37*
G36*
X34500Y47896D02*
X34060D01*
X34065Y47858D01*
X34099Y47776D01*
X34153Y47706D01*
X34223Y47652D01*
X34305Y47618D01*
X34393Y47607D01*
X34500D01*
Y47896D01*
D02*
G37*
%LPD*%
G36*
X28450Y49546D02*
Y49446D01*
X28400Y49596D01*
X28450Y49546D01*
D02*
G37*
D10*
X22650Y11500D02*
X54146D01*
X34550Y17450D02*
X35400Y18300D01*
X38600D01*
X42024Y14876D01*
Y13200D02*
Y14876D01*
Y13200D02*
X43194Y12031D01*
X43913Y12750D01*
X49200D01*
X49694Y12256D01*
Y12081D02*
Y12256D01*
X24774Y15674D02*
X25367D01*
X24350Y15250D02*
X24774Y15674D01*
X24350Y14500D02*
Y15250D01*
Y14500D02*
X26750Y12100D01*
X24865Y14881D02*
X25302D01*
X29244Y18019D02*
X29681D01*
X27919Y12681D02*
X28356D01*
X31300Y16950D02*
X35050D01*
X30988Y16638D02*
X31300Y16950D01*
X30760Y16638D02*
X30988D01*
X35050Y16950D02*
X35550Y16450D01*
X26631Y17981D02*
X28356D01*
X25367Y16717D02*
X26631Y17981D01*
X25367Y15674D02*
Y16717D01*
X48787Y12200D02*
X48906Y12081D01*
X48350Y12200D02*
X48787D01*
X26750Y12100D02*
X28700D01*
X32100Y16200D02*
X32450Y16550D01*
X32100Y15674D02*
Y16200D01*
X29000Y18750D02*
X33250D01*
X28356Y18106D02*
X29000Y18750D01*
X28356Y17981D02*
Y18106D01*
X32100Y14887D02*
X32187D01*
X28700Y12100D02*
X29144Y12544D01*
Y12681D01*
X30531D01*
X32100Y14250D01*
Y14887D01*
X33250Y18750D02*
X34550Y17450D01*
Y25324D02*
X35400Y26174D01*
X38600D01*
X42024Y22750D01*
Y21074D02*
Y22750D01*
Y21074D02*
X43194Y19905D01*
X43913Y20624D01*
X49200D01*
X49694Y20130D01*
Y19955D02*
Y20130D01*
X24774Y23548D02*
X25367D01*
X24350Y23124D02*
X24774Y23548D01*
X24350Y22374D02*
Y23124D01*
Y22374D02*
X26750Y19974D01*
X24865Y22755D02*
X25302D01*
X29244Y25893D02*
X29681D01*
X27919Y20555D02*
X28356D01*
X31300Y24824D02*
X35050D01*
X30988Y24512D02*
X31300Y24824D01*
X30760Y24512D02*
X30988D01*
X35050Y24824D02*
X35550Y24324D01*
X26631Y25855D02*
X28356D01*
X25367Y24591D02*
X26631Y25855D01*
X25367Y23548D02*
Y24591D01*
X48787Y20074D02*
X48906Y19955D01*
X48350Y20074D02*
X48787D01*
X26750Y19974D02*
X28700D01*
X32100Y24074D02*
X32450Y24424D01*
X32100Y23548D02*
Y24074D01*
X29000Y26624D02*
X33250D01*
X28356Y25980D02*
X29000Y26624D01*
X28356Y25855D02*
Y25980D01*
X32100Y22761D02*
X32187D01*
X28700Y19974D02*
X29144Y20418D01*
Y20555D01*
X30531D01*
X32100Y22124D01*
Y22761D01*
X33250Y26624D02*
X34550Y25324D01*
Y33198D02*
X35400Y34048D01*
X38600D01*
X42024Y30624D01*
Y28948D02*
Y30624D01*
Y28948D02*
X43194Y27779D01*
X43913Y28498D01*
X49200D01*
X49694Y28004D01*
Y27829D02*
Y28004D01*
X24774Y31422D02*
X25367D01*
X24350Y30998D02*
X24774Y31422D01*
X24350Y30248D02*
Y30998D01*
Y30248D02*
X26750Y27848D01*
X24865Y30629D02*
X25302D01*
X29244Y33767D02*
X29681D01*
X27919Y28429D02*
X28356D01*
X31300Y32698D02*
X35050D01*
X30988Y32386D02*
X31300Y32698D01*
X30760Y32386D02*
X30988D01*
X35050Y32698D02*
X35550Y32198D01*
X26631Y33729D02*
X28356D01*
X25367Y32465D02*
X26631Y33729D01*
X25367Y31422D02*
Y32465D01*
X48787Y27948D02*
X48906Y27829D01*
X48350Y27948D02*
X48787D01*
X26750Y27848D02*
X28700D01*
X32100Y31948D02*
X32450Y32298D01*
X32100Y31422D02*
Y31948D01*
X29000Y34498D02*
X33250D01*
X28356Y33854D02*
X29000Y34498D01*
X28356Y33729D02*
Y33854D01*
X32100Y30635D02*
X32187D01*
X28700Y27848D02*
X29144Y28292D01*
Y28429D01*
X30531D01*
X32100Y29998D01*
Y30635D01*
X33250Y34498D02*
X34550Y33198D01*
Y41072D02*
X35400Y41922D01*
X38600D01*
X42024Y38498D01*
Y36822D02*
Y38498D01*
Y36822D02*
X43194Y35653D01*
X43913Y36372D01*
X49200D01*
X49694Y35878D01*
Y35703D02*
Y35878D01*
X24774Y39296D02*
X25367D01*
X24350Y38872D02*
X24774Y39296D01*
X24350Y38122D02*
Y38872D01*
Y38122D02*
X26750Y35722D01*
X24865Y38503D02*
X25302D01*
X29244Y41641D02*
X29681D01*
X27919Y36303D02*
X28356D01*
X31300Y40572D02*
X35050D01*
X30988Y40260D02*
X31300Y40572D01*
X30760Y40260D02*
X30988D01*
X35050Y40572D02*
X35550Y40072D01*
X26631Y41603D02*
X28356D01*
X25367Y40339D02*
X26631Y41603D01*
X25367Y39296D02*
Y40339D01*
X48787Y35822D02*
X48906Y35703D01*
X48350Y35822D02*
X48787D01*
X26750Y35722D02*
X28700D01*
X32100Y39822D02*
X32450Y40172D01*
X32100Y39296D02*
Y39822D01*
X29000Y42372D02*
X33250D01*
X28356Y41728D02*
X29000Y42372D01*
X28356Y41603D02*
Y41728D01*
X32100Y38509D02*
X32187D01*
X28700Y35722D02*
X29144Y36166D01*
Y36303D01*
X30531D01*
X32100Y37872D01*
Y38509D01*
X33250Y42372D02*
X34550Y41072D01*
Y48946D02*
X35400Y49796D01*
X38600D01*
X42024Y46372D01*
Y44696D02*
Y46372D01*
Y44696D02*
X43194Y43527D01*
X43913Y44246D01*
X49200D01*
X49694Y43752D01*
Y43577D02*
Y43752D01*
X24774Y47170D02*
X25367D01*
X24350Y46746D02*
X24774Y47170D01*
X24350Y45996D02*
Y46746D01*
Y45996D02*
X26750Y43596D01*
X24865Y46377D02*
X25302D01*
X29244Y49515D02*
X29681D01*
X27919Y44177D02*
X28356D01*
X31300Y48446D02*
X35050D01*
X30988Y48134D02*
X31300Y48446D01*
X30760Y48134D02*
X30988D01*
X35050Y48446D02*
X35550Y47946D01*
X26631Y49477D02*
X28356D01*
X25367Y48213D02*
X26631Y49477D01*
X25367Y47170D02*
Y48213D01*
X48787Y43696D02*
X48906Y43577D01*
X48350Y43696D02*
X48787D01*
X26750Y43596D02*
X28700D01*
X32100Y47696D02*
X32450Y48046D01*
X32100Y47170D02*
Y47696D01*
X29000Y50246D02*
X33250D01*
X28356Y49602D02*
X29000Y50246D01*
X28356Y49477D02*
Y49602D01*
X32100Y46383D02*
X32187D01*
X28700Y43596D02*
X29144Y44040D01*
Y44177D01*
X30531D01*
X32100Y45746D01*
Y46383D01*
X33250Y50246D02*
X34550Y48946D01*
X54146Y11500D02*
Y50870D01*
X22650D02*
X54146D01*
X22650Y11500D02*
Y50870D01*
Y19374D02*
X54146D01*
X22650Y11500D02*
X54146D01*
Y19374D01*
X22650Y11500D02*
Y19374D01*
Y27248D02*
X54146D01*
X22650Y19374D02*
X54146D01*
Y27248D01*
X22650Y19374D02*
Y27248D01*
Y35122D02*
X54146D01*
X22650Y27248D02*
X54146D01*
Y35122D01*
X22650Y27248D02*
Y35122D01*
Y42996D02*
X54146D01*
X22650Y35122D02*
X54146D01*
Y42996D01*
X22650Y35122D02*
Y42996D01*
Y50870D02*
X54146D01*
X22650Y42996D02*
X54146D01*
Y50870D01*
X22650Y42996D02*
Y50870D01*
D11*
X48906Y12081D02*
D03*
X49694D02*
D03*
X42406Y12031D02*
D03*
X43194D02*
D03*
X29144Y17981D02*
D03*
X28356D02*
D03*
Y12681D02*
D03*
X29144D02*
D03*
X48906Y19955D02*
D03*
X49694D02*
D03*
X42406Y19905D02*
D03*
X43194D02*
D03*
X29144Y25855D02*
D03*
X28356D02*
D03*
Y20555D02*
D03*
X29144D02*
D03*
X48906Y27829D02*
D03*
X49694D02*
D03*
X42406Y27779D02*
D03*
X43194D02*
D03*
X29144Y33729D02*
D03*
X28356D02*
D03*
Y28429D02*
D03*
X29144D02*
D03*
X48906Y35703D02*
D03*
X49694D02*
D03*
X42406Y35653D02*
D03*
X43194D02*
D03*
X29144Y41603D02*
D03*
X28356D02*
D03*
Y36303D02*
D03*
X29144D02*
D03*
X48906Y43577D02*
D03*
X49694D02*
D03*
X42406Y43527D02*
D03*
X43194D02*
D03*
X29144Y49477D02*
D03*
X28356D02*
D03*
Y44177D02*
D03*
X29144D02*
D03*
D12*
X25367Y14887D02*
D03*
Y15674D02*
D03*
X32100D02*
D03*
Y14887D02*
D03*
X25367Y22761D02*
D03*
Y23548D02*
D03*
X32100D02*
D03*
Y22761D02*
D03*
X25367Y30635D02*
D03*
Y31422D02*
D03*
X32100D02*
D03*
Y30635D02*
D03*
X25367Y38509D02*
D03*
Y39296D02*
D03*
X32100D02*
D03*
Y38509D02*
D03*
X25367Y46383D02*
D03*
Y47170D02*
D03*
X32100D02*
D03*
Y46383D02*
D03*
D13*
X41887Y12550D02*
X42406Y12031D01*
X41887Y20424D02*
X42406Y19905D01*
X41887Y28298D02*
X42406Y27779D01*
X41887Y36172D02*
X42406Y35653D01*
X41887Y44046D02*
X42406Y43527D01*
D14*
X35550Y17450D02*
D03*
Y25324D02*
D03*
Y33198D02*
D03*
Y41072D02*
D03*
Y48946D02*
D03*
D15*
Y16450D02*
D03*
Y15450D02*
D03*
Y14450D02*
D03*
Y13450D02*
D03*
X34550Y17450D02*
D03*
Y16450D02*
D03*
Y15450D02*
D03*
Y14450D02*
D03*
Y13450D02*
D03*
X35550Y24324D02*
D03*
Y23324D02*
D03*
Y22324D02*
D03*
Y21324D02*
D03*
X34550Y25324D02*
D03*
Y24324D02*
D03*
Y23324D02*
D03*
Y22324D02*
D03*
Y21324D02*
D03*
X35550Y32198D02*
D03*
Y31198D02*
D03*
Y30198D02*
D03*
Y29198D02*
D03*
X34550Y33198D02*
D03*
Y32198D02*
D03*
Y31198D02*
D03*
Y30198D02*
D03*
Y29198D02*
D03*
X35550Y40072D02*
D03*
Y39072D02*
D03*
Y38072D02*
D03*
Y37072D02*
D03*
X34550Y41072D02*
D03*
Y40072D02*
D03*
Y39072D02*
D03*
Y38072D02*
D03*
Y37072D02*
D03*
X35550Y47946D02*
D03*
Y46946D02*
D03*
Y45946D02*
D03*
Y44946D02*
D03*
X34550Y48946D02*
D03*
Y47946D02*
D03*
Y46946D02*
D03*
Y45946D02*
D03*
Y44946D02*
D03*
D16*
X50111Y16343D02*
D03*
Y14374D02*
D03*
X45189D02*
D03*
Y16343D02*
D03*
X43615D02*
D03*
Y14374D02*
D03*
X38693D02*
D03*
Y16343D02*
D03*
X50111Y24217D02*
D03*
Y22248D02*
D03*
X45189D02*
D03*
Y24217D02*
D03*
X43615D02*
D03*
Y22248D02*
D03*
X38693D02*
D03*
Y24217D02*
D03*
X50111Y32091D02*
D03*
Y30122D02*
D03*
X45189D02*
D03*
Y32091D02*
D03*
X43615D02*
D03*
Y30122D02*
D03*
X38693D02*
D03*
Y32091D02*
D03*
X50111Y39965D02*
D03*
Y37996D02*
D03*
X45189D02*
D03*
Y39965D02*
D03*
X43615D02*
D03*
Y37996D02*
D03*
X38693D02*
D03*
Y39965D02*
D03*
X50111Y47839D02*
D03*
Y45870D02*
D03*
X45189D02*
D03*
Y47839D02*
D03*
X43615D02*
D03*
Y45870D02*
D03*
X38693D02*
D03*
Y47839D02*
D03*
D17*
X30760Y16638D02*
D03*
Y15181D02*
D03*
Y14079D02*
D03*
X26705D02*
D03*
Y15181D02*
D03*
Y16638D02*
D03*
X30760Y24512D02*
D03*
Y23055D02*
D03*
Y21953D02*
D03*
X26705D02*
D03*
Y23055D02*
D03*
Y24512D02*
D03*
X30760Y32386D02*
D03*
Y30929D02*
D03*
Y29827D02*
D03*
X26705D02*
D03*
Y30929D02*
D03*
Y32386D02*
D03*
X30760Y40260D02*
D03*
Y38803D02*
D03*
Y37701D02*
D03*
X26705D02*
D03*
Y38803D02*
D03*
Y40260D02*
D03*
X30760Y48134D02*
D03*
Y46677D02*
D03*
Y45575D02*
D03*
X26705D02*
D03*
Y46677D02*
D03*
Y48134D02*
D03*
D18*
X24865Y14881D02*
D03*
X29681Y18019D02*
D03*
X27919Y12681D02*
D03*
X32450Y17750D02*
D03*
X48350Y12200D02*
D03*
X41887Y12550D02*
D03*
X39850Y12200D02*
D03*
X46450D02*
D03*
X48400Y18300D02*
D03*
X41950Y18350D02*
D03*
X32550Y12900D02*
D03*
X26650Y13250D02*
D03*
X23800Y15650D02*
D03*
X31600Y18000D02*
D03*
X32450Y16550D02*
D03*
X24865Y22755D02*
D03*
X29681Y25893D02*
D03*
X27919Y20555D02*
D03*
X32450Y25624D02*
D03*
X48350Y20074D02*
D03*
X41887Y20424D02*
D03*
X39850Y20074D02*
D03*
X46450D02*
D03*
X48400Y26174D02*
D03*
X41950Y26224D02*
D03*
X32550Y20774D02*
D03*
X26650Y21124D02*
D03*
X23800Y23524D02*
D03*
X31600Y25874D02*
D03*
X32450Y24424D02*
D03*
X24865Y30629D02*
D03*
X29681Y33767D02*
D03*
X27919Y28429D02*
D03*
X32450Y33498D02*
D03*
X48350Y27948D02*
D03*
X41887Y28298D02*
D03*
X39850Y27948D02*
D03*
X46450D02*
D03*
X48400Y34048D02*
D03*
X41950Y34098D02*
D03*
X32550Y28648D02*
D03*
X26650Y28998D02*
D03*
X23800Y31398D02*
D03*
X31600Y33748D02*
D03*
X32450Y32298D02*
D03*
X24865Y38503D02*
D03*
X29681Y41641D02*
D03*
X27919Y36303D02*
D03*
X32450Y41372D02*
D03*
X48350Y35822D02*
D03*
X41887Y36172D02*
D03*
X39850Y35822D02*
D03*
X46450D02*
D03*
X48400Y41922D02*
D03*
X41950Y41972D02*
D03*
X32550Y36522D02*
D03*
X26650Y36872D02*
D03*
X23800Y39272D02*
D03*
X31600Y41622D02*
D03*
X32450Y40172D02*
D03*
X24865Y46377D02*
D03*
X29681Y49515D02*
D03*
X27919Y44177D02*
D03*
X32450Y49246D02*
D03*
X48350Y43696D02*
D03*
X41887Y44046D02*
D03*
X39850Y43696D02*
D03*
X46450D02*
D03*
X48400Y49796D02*
D03*
X41950Y49846D02*
D03*
X32550Y44396D02*
D03*
X26650Y44746D02*
D03*
X23800Y47146D02*
D03*
X31600Y49496D02*
D03*
X32450Y48046D02*
D03*
D19*
X23437Y12287D02*
D03*
Y18587D02*
D03*
X53359Y12287D02*
D03*
Y18587D02*
D03*
X23437Y20161D02*
D03*
Y26461D02*
D03*
X53359Y20161D02*
D03*
Y26461D02*
D03*
X23437Y28035D02*
D03*
Y34335D02*
D03*
X53359Y28035D02*
D03*
Y34335D02*
D03*
X23437Y35909D02*
D03*
Y42209D02*
D03*
X53359Y35909D02*
D03*
Y42209D02*
D03*
X23437Y43783D02*
D03*
Y50083D02*
D03*
X53359Y43783D02*
D03*
Y50083D02*
D03*
M02*
