G04 Layer_Physical_Order=2*
G04 Layer_Color=16711680*
%FSLAX24Y24*%
%MOIN*%
G70*
G01*
G75*
%ADD10C,0.0100*%
%ADD13C,0.0150*%
%ADD14R,0.0787X0.0472*%
%ADD15O,0.0787X0.0472*%
%ADD16O,0.1181X0.0984*%
%ADD17O,0.0984X0.0787*%
%ADD18C,0.0354*%
%ADD19C,0.0984*%
%ADD20R,0.0472X0.0551*%
%ADD21R,0.0551X0.0472*%
%ADD22C,0.0250*%
G36*
X54100Y19250D02*
Y11550D01*
X22700D01*
Y19300D01*
X54050D01*
X54100Y19250D01*
D02*
G37*
%LPC*%
G36*
X26700Y13523D02*
Y13300D01*
X26923D01*
X26920Y13322D01*
X26892Y13390D01*
X26848Y13448D01*
X26790Y13492D01*
X26722Y13520D01*
X26700Y13523D01*
D02*
G37*
G36*
X35707Y13789D02*
X35600D01*
Y13500D01*
X36040D01*
X36035Y13538D01*
X36001Y13620D01*
X35947Y13690D01*
X35877Y13744D01*
X35795Y13778D01*
X35707Y13789D01*
D02*
G37*
G36*
X26600Y13523D02*
X26578Y13520D01*
X26510Y13492D01*
X26452Y13448D01*
X26408Y13390D01*
X26380Y13322D01*
X26377Y13300D01*
X26600D01*
Y13523D01*
D02*
G37*
G36*
X32600Y13173D02*
Y12950D01*
X32823D01*
X32820Y12972D01*
X32792Y13040D01*
X32748Y13098D01*
X32690Y13142D01*
X32622Y13170D01*
X32600Y13173D01*
D02*
G37*
G36*
X36040Y13400D02*
X35600D01*
Y13111D01*
X35707D01*
X35795Y13122D01*
X35877Y13156D01*
X35947Y13210D01*
X36001Y13280D01*
X36035Y13362D01*
X36040Y13400D01*
D02*
G37*
G36*
X43713Y14969D02*
X43516D01*
X43400Y14958D01*
X43288Y14924D01*
X43186Y14869D01*
X43095Y14795D01*
X43021Y14705D01*
X42966Y14602D01*
X42933Y14490D01*
X42921Y14374D01*
X42933Y14258D01*
X42966Y14146D01*
X43021Y14043D01*
X43095Y13953D01*
X43186Y13879D01*
X43288Y13824D01*
X43400Y13790D01*
X43516Y13779D01*
X43713D01*
X43829Y13790D01*
X43941Y13824D01*
X44044Y13879D01*
X44134Y13953D01*
X44208Y14043D01*
X44263Y14146D01*
X44297Y14258D01*
X44308Y14374D01*
X44297Y14490D01*
X44263Y14602D01*
X44208Y14705D01*
X44134Y14795D01*
X44044Y14869D01*
X43941Y14924D01*
X43829Y14958D01*
X43713Y14969D01*
D02*
G37*
G36*
X23750Y15923D02*
X23728Y15920D01*
X23660Y15892D01*
X23602Y15848D01*
X23558Y15790D01*
X23530Y15722D01*
X23527Y15700D01*
X23750D01*
Y15923D01*
D02*
G37*
G36*
X24776Y15991D02*
X24450D01*
Y15704D01*
X24776D01*
Y15991D01*
D02*
G37*
G36*
X23750Y15600D02*
X23527D01*
X23530Y15578D01*
X23558Y15510D01*
X23602Y15452D01*
X23660Y15408D01*
X23728Y15380D01*
X23750Y15377D01*
Y15600D01*
D02*
G37*
G36*
X34707Y17789D02*
X34393D01*
X34305Y17778D01*
X34223Y17744D01*
X34153Y17690D01*
X34099Y17620D01*
X34065Y17538D01*
X34053Y17450D01*
X34065Y17362D01*
X34099Y17280D01*
X34153Y17210D01*
X34223Y17156D01*
X34305Y17122D01*
X34393Y17111D01*
X34707D01*
X34795Y17122D01*
X34877Y17156D01*
X34947Y17210D01*
X35001Y17280D01*
X35006Y17293D01*
X35056Y17283D01*
Y17114D01*
X36044D01*
Y17297D01*
X39587D01*
X41592Y15292D01*
X41641Y15259D01*
X41700Y15247D01*
X44100D01*
X44617Y14730D01*
X44596Y14705D01*
X44541Y14602D01*
X44507Y14490D01*
X44496Y14374D01*
X44507Y14258D01*
X44541Y14146D01*
X44596Y14043D01*
X44670Y13953D01*
X44760Y13879D01*
X44863Y13824D01*
X44975Y13790D01*
X45091Y13779D01*
X45288D01*
X45404Y13790D01*
X45515Y13824D01*
X45618Y13879D01*
X45709Y13953D01*
X45783Y14043D01*
X45837Y14146D01*
X45871Y14258D01*
X45883Y14374D01*
X45871Y14490D01*
X45837Y14602D01*
X45783Y14705D01*
X45709Y14795D01*
X45618Y14869D01*
X45515Y14924D01*
X45404Y14958D01*
X45288Y14969D01*
X45091D01*
X44975Y14958D01*
X44863Y14924D01*
X44858Y14921D01*
X44272Y15508D01*
X44222Y15541D01*
X44163Y15553D01*
X41763D01*
X39758Y17558D01*
X39709Y17591D01*
X39650Y17603D01*
X36044D01*
Y17786D01*
X35056D01*
Y17617D01*
X35006Y17607D01*
X35001Y17620D01*
X34947Y17690D01*
X34877Y17744D01*
X34795Y17778D01*
X34707Y17789D01*
D02*
G37*
G36*
X50209Y14969D02*
X50012D01*
X49896Y14958D01*
X49785Y14924D01*
X49682Y14869D01*
X49591Y14795D01*
X49517Y14705D01*
X49463Y14602D01*
X49429Y14490D01*
X49417Y14374D01*
X49429Y14258D01*
X49463Y14146D01*
X49517Y14043D01*
X49591Y13953D01*
X49682Y13879D01*
X49785Y13824D01*
X49896Y13790D01*
X50012Y13779D01*
X50209D01*
X50325Y13790D01*
X50437Y13824D01*
X50540Y13879D01*
X50630Y13953D01*
X50704Y14043D01*
X50759Y14146D01*
X50793Y14258D01*
X50804Y14374D01*
X50793Y14490D01*
X50759Y14602D01*
X50704Y14705D01*
X50630Y14795D01*
X50540Y14869D01*
X50437Y14924D01*
X50325Y14958D01*
X50209Y14969D01*
D02*
G37*
G36*
X41887Y12830D02*
X41815Y12820D01*
X41747Y12792D01*
X41689Y12748D01*
X41675Y12728D01*
X41504D01*
X41436Y12715D01*
X41378Y12676D01*
X41278Y12576D01*
X40832D01*
X40818Y12576D01*
X40782D01*
X40768Y12576D01*
X40496D01*
Y12200D01*
Y11824D01*
X40768D01*
X40782Y11824D01*
X40818D01*
X40832Y11824D01*
X41491D01*
Y12284D01*
X41578Y12372D01*
X41675D01*
X41689Y12352D01*
X41747Y12308D01*
X41815Y12280D01*
X41887Y12270D01*
X41959Y12280D01*
X42027Y12308D01*
X42085Y12352D01*
X42129Y12410D01*
X42157Y12478D01*
X42167Y12550D01*
X42157Y12622D01*
X42129Y12690D01*
X42085Y12748D01*
X42027Y12792D01*
X41959Y12820D01*
X41887Y12830D01*
D02*
G37*
G36*
X39800Y12150D02*
X39577D01*
X39580Y12128D01*
X39608Y12060D01*
X39652Y12002D01*
X39710Y11958D01*
X39778Y11930D01*
X39800Y11927D01*
Y12150D01*
D02*
G37*
G36*
X46400D02*
X46177D01*
X46180Y12128D01*
X46208Y12060D01*
X46252Y12002D01*
X46310Y11958D01*
X46378Y11930D01*
X46400Y11927D01*
Y12150D01*
D02*
G37*
G36*
X47418Y12576D02*
X47382D01*
X47368Y12576D01*
X47096D01*
Y12200D01*
Y11824D01*
X47368D01*
X47382Y11824D01*
X47418D01*
X47432Y11824D01*
X48091D01*
Y12001D01*
X48141Y12018D01*
X48152Y12002D01*
X48210Y11958D01*
X48278Y11930D01*
X48350Y11920D01*
X48422Y11930D01*
X48490Y11958D01*
X48548Y12002D01*
X48592Y12060D01*
X48620Y12128D01*
X48630Y12200D01*
X48620Y12272D01*
X48592Y12340D01*
X48548Y12398D01*
X48490Y12442D01*
X48422Y12470D01*
X48350Y12480D01*
X48278Y12470D01*
X48210Y12442D01*
X48152Y12398D01*
X48141Y12382D01*
X48091Y12399D01*
Y12576D01*
X47432D01*
X47418Y12576D01*
D02*
G37*
G36*
X23437Y12882D02*
X23321Y12871D01*
X23210Y12837D01*
X23107Y12782D01*
X23017Y12708D01*
X22943Y12618D01*
X22888Y12515D01*
X22854Y12403D01*
X22842Y12287D01*
X22854Y12171D01*
X22888Y12060D01*
X22943Y11957D01*
X23017Y11867D01*
X23107Y11793D01*
X23210Y11738D01*
X23321Y11704D01*
X23437Y11692D01*
X23553Y11704D01*
X23665Y11738D01*
X23768Y11793D01*
X23858Y11867D01*
X23932Y11957D01*
X23987Y12060D01*
X24021Y12171D01*
X24032Y12287D01*
X24021Y12403D01*
X23987Y12515D01*
X23932Y12618D01*
X23858Y12708D01*
X23768Y12782D01*
X23665Y12837D01*
X23553Y12871D01*
X23437Y12882D01*
D02*
G37*
G36*
X53359D02*
X53243Y12871D01*
X53131Y12837D01*
X53028Y12782D01*
X52938Y12708D01*
X52864Y12618D01*
X52809Y12515D01*
X52775Y12403D01*
X52764Y12287D01*
X52775Y12171D01*
X52809Y12060D01*
X52864Y11957D01*
X52938Y11867D01*
X53028Y11793D01*
X53131Y11738D01*
X53243Y11704D01*
X53359Y11692D01*
X53475Y11704D01*
X53586Y11738D01*
X53689Y11793D01*
X53779Y11867D01*
X53853Y11957D01*
X53908Y12060D01*
X53942Y12171D01*
X53954Y12287D01*
X53942Y12403D01*
X53908Y12515D01*
X53853Y12618D01*
X53779Y12708D01*
X53689Y12782D01*
X53586Y12837D01*
X53475Y12871D01*
X53359Y12882D01*
D02*
G37*
G36*
X39800Y12473D02*
X39778Y12470D01*
X39710Y12442D01*
X39652Y12398D01*
X39608Y12340D01*
X39580Y12272D01*
X39577Y12250D01*
X39800D01*
Y12473D01*
D02*
G37*
G36*
X40396Y12576D02*
X40109D01*
Y12429D01*
X40006D01*
X39990Y12442D01*
X39922Y12470D01*
X39900Y12473D01*
Y12200D01*
Y11927D01*
X39922Y11930D01*
X39990Y11958D01*
X40006Y11971D01*
X40109D01*
Y11824D01*
X40396D01*
Y12200D01*
Y12576D01*
D02*
G37*
G36*
X46996D02*
X46709D01*
Y12429D01*
X46606D01*
X46590Y12442D01*
X46522Y12470D01*
X46500Y12473D01*
Y12200D01*
Y11927D01*
X46522Y11930D01*
X46590Y11958D01*
X46606Y11971D01*
X46709D01*
Y11824D01*
X46996D01*
Y12200D01*
Y12576D01*
D02*
G37*
G36*
X26923Y13200D02*
X26377D01*
X26380Y13178D01*
X26402Y13126D01*
X26382Y13086D01*
X26371Y13076D01*
X26309D01*
Y12750D01*
X26646D01*
Y12700D01*
X26696D01*
Y12324D01*
X26968D01*
X26982Y12324D01*
X27018D01*
X27032Y12324D01*
X27691D01*
Y12444D01*
X27741Y12469D01*
X27780Y12439D01*
X27847Y12411D01*
X27919Y12401D01*
X27992Y12411D01*
X28059Y12439D01*
X28117Y12483D01*
X28161Y12541D01*
X28189Y12608D01*
X28199Y12681D01*
X28189Y12753D01*
X28161Y12820D01*
X28117Y12878D01*
X28059Y12923D01*
X27992Y12951D01*
X27919Y12960D01*
X27847Y12951D01*
X27780Y12923D01*
X27741Y12893D01*
X27691Y12917D01*
Y13076D01*
X27032D01*
X27018Y13076D01*
X26982D01*
X26968Y13076D01*
X26929D01*
X26918Y13086D01*
X26898Y13126D01*
X26920Y13178D01*
X26923Y13200D01*
D02*
G37*
G36*
X46400Y12473D02*
X46378Y12470D01*
X46310Y12442D01*
X46252Y12398D01*
X46208Y12340D01*
X46180Y12272D01*
X46177Y12250D01*
X46400D01*
Y12473D01*
D02*
G37*
G36*
X26596Y12650D02*
X26309D01*
Y12324D01*
X26596D01*
Y12650D01*
D02*
G37*
G36*
X53359Y19182D02*
X53243Y19170D01*
X53131Y19136D01*
X53028Y19081D01*
X52938Y19007D01*
X52864Y18917D01*
X52809Y18814D01*
X52775Y18703D01*
X52764Y18587D01*
X52775Y18471D01*
X52809Y18359D01*
X52864Y18256D01*
X52938Y18166D01*
X53028Y18092D01*
X53131Y18037D01*
X53243Y18003D01*
X53359Y17992D01*
X53475Y18003D01*
X53586Y18037D01*
X53689Y18092D01*
X53779Y18166D01*
X53853Y18256D01*
X53908Y18359D01*
X53942Y18471D01*
X53954Y18587D01*
X53942Y18703D01*
X53908Y18814D01*
X53853Y18917D01*
X53779Y19007D01*
X53689Y19081D01*
X53586Y19136D01*
X53475Y19170D01*
X53359Y19182D01*
D02*
G37*
G36*
X48350Y18250D02*
X48127D01*
X48130Y18228D01*
X48158Y18160D01*
X48202Y18102D01*
X48260Y18058D01*
X48328Y18030D01*
X48350Y18027D01*
Y18250D01*
D02*
G37*
G36*
X31650Y18273D02*
Y18050D01*
X31873D01*
X31870Y18072D01*
X31842Y18140D01*
X31798Y18198D01*
X31740Y18242D01*
X31672Y18270D01*
X31650Y18273D01*
D02*
G37*
G36*
X31873Y17950D02*
X31650D01*
Y17727D01*
X31672Y17730D01*
X31740Y17758D01*
X31798Y17802D01*
X31842Y17860D01*
X31870Y17928D01*
X31873Y17950D01*
D02*
G37*
G36*
X32500Y18023D02*
Y17800D01*
X32723D01*
X32720Y17822D01*
X32692Y17890D01*
X32648Y17948D01*
X32590Y17992D01*
X32522Y18020D01*
X32500Y18023D01*
D02*
G37*
G36*
X23437Y19182D02*
X23321Y19170D01*
X23210Y19136D01*
X23107Y19081D01*
X23017Y19007D01*
X22943Y18917D01*
X22888Y18814D01*
X22854Y18703D01*
X22842Y18587D01*
X22854Y18471D01*
X22888Y18359D01*
X22943Y18256D01*
X23017Y18166D01*
X23107Y18092D01*
X23210Y18037D01*
X23321Y18003D01*
X23437Y17992D01*
X23553Y18003D01*
X23665Y18037D01*
X23768Y18092D01*
X23858Y18166D01*
X23932Y18256D01*
X23987Y18359D01*
X24021Y18471D01*
X24032Y18587D01*
X24021Y18703D01*
X23987Y18814D01*
X23932Y18917D01*
X23858Y19007D01*
X23768Y19081D01*
X23665Y19136D01*
X23553Y19170D01*
X23437Y19182D01*
D02*
G37*
G36*
X41900Y18623D02*
X41878Y18620D01*
X41810Y18592D01*
X41752Y18548D01*
X41708Y18490D01*
X41680Y18422D01*
X41677Y18400D01*
X41900D01*
Y18623D01*
D02*
G37*
G36*
X48996Y18676D02*
X48709D01*
Y18529D01*
X48556D01*
X48540Y18542D01*
X48472Y18570D01*
X48450Y18573D01*
Y18300D01*
Y18027D01*
X48472Y18030D01*
X48540Y18058D01*
X48556Y18071D01*
X48709D01*
Y17924D01*
X48996D01*
Y18300D01*
Y18676D01*
D02*
G37*
G36*
X42496Y18726D02*
X42209D01*
Y18579D01*
X42106D01*
X42090Y18592D01*
X42022Y18620D01*
X42000Y18623D01*
Y18350D01*
Y18077D01*
X42022Y18080D01*
X42090Y18108D01*
X42106Y18121D01*
X42209D01*
Y17974D01*
X42496D01*
Y18350D01*
Y18726D01*
D02*
G37*
G36*
X41900Y18300D02*
X41677D01*
X41680Y18278D01*
X41708Y18210D01*
X41752Y18152D01*
X41810Y18108D01*
X41878Y18080D01*
X41900Y18077D01*
Y18300D01*
D02*
G37*
G36*
X30618Y18376D02*
X30582D01*
X30568Y18376D01*
X29909D01*
Y18256D01*
X29859Y18232D01*
X29820Y18261D01*
X29753Y18289D01*
X29681Y18299D01*
X29608Y18289D01*
X29541Y18261D01*
X29483Y18217D01*
X29439Y18159D01*
X29411Y18092D01*
X29401Y18019D01*
X29411Y17947D01*
X29439Y17880D01*
X29483Y17822D01*
X29541Y17777D01*
X29608Y17749D01*
X29681Y17740D01*
X29753Y17749D01*
X29820Y17777D01*
X29859Y17807D01*
X29909Y17783D01*
Y17624D01*
X30568D01*
X30582Y17624D01*
X30618D01*
X30632Y17624D01*
X30904D01*
Y18000D01*
Y18376D01*
X30632D01*
X30618Y18376D01*
D02*
G37*
G36*
X48350Y18573D02*
X48328Y18570D01*
X48260Y18542D01*
X48202Y18498D01*
X48158Y18440D01*
X48130Y18372D01*
X48127Y18350D01*
X48350D01*
Y18573D01*
D02*
G37*
G36*
X49418Y18676D02*
X49382D01*
X49368Y18676D01*
X49096D01*
Y18300D01*
Y17924D01*
X49368D01*
X49382Y17924D01*
X49418D01*
X49432Y17924D01*
X49805D01*
X49881Y17849D01*
Y16922D01*
X49785Y16892D01*
X49682Y16837D01*
X49591Y16763D01*
X49517Y16673D01*
X49463Y16570D01*
X49429Y16459D01*
X49417Y16343D01*
X49429Y16226D01*
X49463Y16115D01*
X49517Y16012D01*
X49591Y15922D01*
X49682Y15848D01*
X49785Y15793D01*
X49896Y15759D01*
X50012Y15748D01*
X50209D01*
X50325Y15759D01*
X50437Y15793D01*
X50540Y15848D01*
X50630Y15922D01*
X50704Y16012D01*
X50759Y16115D01*
X50793Y16226D01*
X50804Y16343D01*
X50793Y16459D01*
X50759Y16570D01*
X50704Y16673D01*
X50630Y16763D01*
X50540Y16837D01*
X50437Y16892D01*
X50340Y16922D01*
Y17944D01*
X50323Y18031D01*
X50273Y18106D01*
X50091Y18288D01*
Y18676D01*
X49432D01*
X49418Y18676D01*
D02*
G37*
G36*
X27100Y17553D02*
X26150D01*
X26091Y17541D01*
X26042Y17508D01*
X25792Y17258D01*
X25759Y17209D01*
X25747Y17150D01*
Y15986D01*
X25759Y15928D01*
X25792Y15878D01*
X26203Y15467D01*
X26175Y15430D01*
X26126Y15310D01*
X26109Y15181D01*
X26126Y15052D01*
X26175Y14932D01*
X26255Y14829D01*
X26358Y14750D01*
X26478Y14700D01*
X26607Y14683D01*
X26804D01*
X26932Y14700D01*
X27053Y14750D01*
X27156Y14829D01*
X27235Y14932D01*
X27285Y15052D01*
X27301Y15181D01*
X27285Y15310D01*
X27235Y15430D01*
X27156Y15533D01*
X27053Y15612D01*
X26932Y15662D01*
X26804Y15679D01*
X26607D01*
X26478Y15662D01*
X26451Y15651D01*
X26053Y16050D01*
Y17087D01*
X26213Y17247D01*
X27037D01*
X28385Y15899D01*
X28365Y15853D01*
X27706D01*
X27207Y16352D01*
X27235Y16389D01*
X27285Y16509D01*
X27301Y16638D01*
X27285Y16767D01*
X27235Y16887D01*
X27156Y16990D01*
X27053Y17069D01*
X26932Y17119D01*
X26804Y17136D01*
X26607D01*
X26478Y17119D01*
X26358Y17069D01*
X26255Y16990D01*
X26175Y16887D01*
X26126Y16767D01*
X26109Y16638D01*
X26126Y16509D01*
X26175Y16389D01*
X26255Y16286D01*
X26358Y16207D01*
X26478Y16157D01*
X26607Y16140D01*
X26804D01*
X26932Y16157D01*
X26959Y16168D01*
X27535Y15592D01*
X27584Y15559D01*
X27643Y15547D01*
X30257D01*
X30282Y15497D01*
X30231Y15430D01*
X30181Y15310D01*
X30164Y15181D01*
X30181Y15052D01*
X30231Y14932D01*
X30310Y14829D01*
X30413Y14750D01*
X30533Y14700D01*
X30662Y14683D01*
X30859D01*
X30988Y14700D01*
X31108Y14750D01*
X31211Y14829D01*
X31290Y14932D01*
X31330Y15028D01*
X31456D01*
X33142Y13342D01*
X33191Y13309D01*
X33250Y13297D01*
X34092D01*
X34099Y13280D01*
X34153Y13210D01*
X34223Y13156D01*
X34305Y13122D01*
X34393Y13111D01*
X34707D01*
X34795Y13122D01*
X34877Y13156D01*
X34947Y13210D01*
X35001Y13280D01*
X35023Y13333D01*
X35077D01*
X35099Y13280D01*
X35153Y13210D01*
X35223Y13156D01*
X35305Y13122D01*
X35393Y13111D01*
X35500D01*
Y13450D01*
Y13789D01*
X35393D01*
X35305Y13778D01*
X35223Y13744D01*
X35153Y13690D01*
X35099Y13620D01*
X35077Y13567D01*
X35023D01*
X35001Y13620D01*
X34947Y13690D01*
X34877Y13744D01*
X34795Y13778D01*
X34707Y13789D01*
X34393D01*
X34305Y13778D01*
X34223Y13744D01*
X34153Y13690D01*
X34099Y13620D01*
X34092Y13603D01*
X33313D01*
X31627Y15289D01*
X31577Y15322D01*
X31519Y15334D01*
X31330D01*
X31290Y15430D01*
X31219Y15522D01*
X31236Y15572D01*
X31912D01*
X33142Y14342D01*
X33191Y14309D01*
X33250Y14297D01*
X34092D01*
X34099Y14280D01*
X34153Y14210D01*
X34223Y14156D01*
X34305Y14122D01*
X34393Y14111D01*
X34707D01*
X34795Y14122D01*
X34877Y14156D01*
X34947Y14210D01*
X35001Y14280D01*
X35023Y14333D01*
X35077D01*
X35099Y14280D01*
X35153Y14210D01*
X35223Y14156D01*
X35305Y14122D01*
X35393Y14111D01*
X35707D01*
X35795Y14122D01*
X35877Y14156D01*
X35934Y14200D01*
X36197Y13937D01*
Y13263D01*
X35561Y12627D01*
X32732D01*
X32715Y12677D01*
X32748Y12702D01*
X32792Y12760D01*
X32820Y12828D01*
X32823Y12850D01*
X32550D01*
Y12900D01*
X32500D01*
Y13173D01*
X32478Y13170D01*
X32410Y13142D01*
X32394Y13129D01*
X32291D01*
Y13276D01*
X32004D01*
Y12900D01*
X31904D01*
Y13276D01*
X31618D01*
Y13276D01*
X31582D01*
Y13276D01*
X31086D01*
X30913Y13449D01*
Y13588D01*
X30988Y13598D01*
X31108Y13647D01*
X31211Y13727D01*
X31290Y13830D01*
X31340Y13950D01*
X31357Y14079D01*
X31340Y14208D01*
X31290Y14328D01*
X31211Y14431D01*
X31108Y14510D01*
X30988Y14560D01*
X30859Y14577D01*
X30662D01*
X30533Y14560D01*
X30413Y14510D01*
X30310Y14431D01*
X30231Y14328D01*
X30181Y14208D01*
X30164Y14079D01*
X30181Y13950D01*
X30231Y13830D01*
X30310Y13727D01*
X30413Y13647D01*
X30533Y13598D01*
X30607Y13588D01*
Y13385D01*
X30619Y13327D01*
X30652Y13277D01*
X30909Y13020D01*
Y12627D01*
X29539D01*
X27979Y14187D01*
X27930Y14220D01*
X27871Y14232D01*
X27275D01*
X27235Y14328D01*
X27156Y14431D01*
X27053Y14510D01*
X26932Y14560D01*
X26804Y14577D01*
X26607D01*
X26478Y14560D01*
X26358Y14510D01*
X26255Y14431D01*
X26175Y14328D01*
X26126Y14208D01*
X26109Y14079D01*
X26126Y13950D01*
X26175Y13830D01*
X26255Y13727D01*
X26358Y13647D01*
X26478Y13598D01*
X26607Y13581D01*
X26804D01*
X26932Y13598D01*
X27053Y13647D01*
X27156Y13727D01*
X27235Y13830D01*
X27275Y13926D01*
X27808D01*
X29367Y12366D01*
X29417Y12333D01*
X29476Y12321D01*
X35624D01*
X35683Y12333D01*
X35733Y12366D01*
X36458Y13092D01*
X36491Y13141D01*
X36503Y13200D01*
Y14000D01*
X36491Y14059D01*
X36458Y14108D01*
X36036Y14530D01*
X36035Y14538D01*
X36001Y14620D01*
X35947Y14690D01*
X35877Y14744D01*
X35795Y14778D01*
X35707Y14789D01*
X35393D01*
X35305Y14778D01*
X35223Y14744D01*
X35153Y14690D01*
X35099Y14620D01*
X35077Y14567D01*
X35023D01*
X35001Y14620D01*
X34947Y14690D01*
X34877Y14744D01*
X34795Y14778D01*
X34707Y14789D01*
X34393D01*
X34305Y14778D01*
X34223Y14744D01*
X34153Y14690D01*
X34099Y14620D01*
X34092Y14603D01*
X33313D01*
X32665Y15251D01*
X32685Y15297D01*
X34092D01*
X34099Y15280D01*
X34153Y15210D01*
X34223Y15156D01*
X34305Y15122D01*
X34393Y15111D01*
X34707D01*
X34795Y15122D01*
X34877Y15156D01*
X34947Y15210D01*
X35001Y15280D01*
X35023Y15333D01*
X35077D01*
X35099Y15280D01*
X35153Y15210D01*
X35223Y15156D01*
X35305Y15122D01*
X35393Y15111D01*
X35707D01*
X35795Y15122D01*
X35877Y15156D01*
X35947Y15210D01*
X36001Y15280D01*
X36008Y15297D01*
X37554D01*
X38121Y14730D01*
X38100Y14705D01*
X38045Y14602D01*
X38011Y14490D01*
X38000Y14374D01*
X38011Y14258D01*
X38045Y14146D01*
X38100Y14043D01*
X38174Y13953D01*
X38264Y13879D01*
X38367Y13824D01*
X38479Y13790D01*
X38595Y13779D01*
X38792D01*
X38908Y13790D01*
X39019Y13824D01*
X39122Y13879D01*
X39212Y13953D01*
X39286Y14043D01*
X39341Y14146D01*
X39375Y14258D01*
X39387Y14374D01*
X39375Y14490D01*
X39341Y14602D01*
X39286Y14705D01*
X39212Y14795D01*
X39122Y14869D01*
X39019Y14924D01*
X38908Y14958D01*
X38792Y14969D01*
X38595D01*
X38479Y14958D01*
X38367Y14924D01*
X38362Y14921D01*
X37725Y15558D01*
X37676Y15591D01*
X37617Y15603D01*
X36008D01*
X36001Y15620D01*
X35947Y15690D01*
X35877Y15744D01*
X35795Y15778D01*
X35707Y15789D01*
X35393D01*
X35305Y15778D01*
X35223Y15744D01*
X35153Y15690D01*
X35099Y15620D01*
X35077Y15567D01*
X35023D01*
X35001Y15620D01*
X34947Y15690D01*
X34877Y15744D01*
X34795Y15778D01*
X34707Y15789D01*
X34393D01*
X34305Y15778D01*
X34223Y15744D01*
X34153Y15690D01*
X34099Y15620D01*
X34092Y15603D01*
X32596D01*
X32166Y16033D01*
X32117Y16066D01*
X32058Y16078D01*
X28639D01*
X27208Y17508D01*
X27159Y17541D01*
X27100Y17553D01*
D02*
G37*
G36*
X24350Y15991D02*
X24024D01*
Y15884D01*
X23951D01*
X23940Y15892D01*
X23872Y15920D01*
X23850Y15923D01*
Y15650D01*
Y15377D01*
X23872Y15380D01*
X23940Y15408D01*
X23962Y15425D01*
X24024D01*
Y15332D01*
X24024Y15318D01*
Y15282D01*
X24024Y15268D01*
Y14609D01*
X24776D01*
X24776Y14609D01*
Y14609D01*
X24824Y14606D01*
X24865Y14601D01*
X24937Y14611D01*
X25005Y14639D01*
X25063Y14683D01*
X25107Y14741D01*
X25135Y14808D01*
X25145Y14881D01*
X25135Y14953D01*
X25107Y15020D01*
X25063Y15078D01*
X25005Y15123D01*
X24937Y15151D01*
X24865Y15160D01*
X24826Y15155D01*
X24776Y15194D01*
Y15268D01*
X24776Y15282D01*
Y15318D01*
X24776Y15332D01*
Y15604D01*
X24400D01*
Y15654D01*
X24350D01*
Y15991D01*
D02*
G37*
G36*
X38792Y16938D02*
X38595D01*
X38479Y16926D01*
X38367Y16892D01*
X38264Y16837D01*
X38174Y16763D01*
X38100Y16673D01*
X38045Y16570D01*
X38011Y16459D01*
X38000Y16343D01*
X38011Y16226D01*
X38045Y16115D01*
X38100Y16012D01*
X38174Y15922D01*
X38264Y15848D01*
X38367Y15793D01*
X38479Y15759D01*
X38595Y15748D01*
X38792D01*
X38908Y15759D01*
X39019Y15793D01*
X39122Y15848D01*
X39212Y15922D01*
X39286Y16012D01*
X39341Y16115D01*
X39375Y16226D01*
X39387Y16343D01*
X39375Y16459D01*
X39341Y16570D01*
X39286Y16673D01*
X39212Y16763D01*
X39122Y16837D01*
X39019Y16892D01*
X38908Y16926D01*
X38792Y16938D01*
D02*
G37*
G36*
X42918Y18726D02*
X42882D01*
X42868Y18726D01*
X42596D01*
Y18350D01*
Y17974D01*
X42868D01*
X42882Y17974D01*
X42918D01*
X42932Y17974D01*
X43305D01*
X43385Y17895D01*
Y16922D01*
X43288Y16892D01*
X43186Y16837D01*
X43095Y16763D01*
X43021Y16673D01*
X42966Y16570D01*
X42933Y16459D01*
X42921Y16343D01*
X42933Y16226D01*
X42966Y16115D01*
X43021Y16012D01*
X43095Y15922D01*
X43186Y15848D01*
X43288Y15793D01*
X43400Y15759D01*
X43516Y15748D01*
X43713D01*
X43829Y15759D01*
X43941Y15793D01*
X44044Y15848D01*
X44134Y15922D01*
X44208Y16012D01*
X44263Y16115D01*
X44297Y16226D01*
X44308Y16343D01*
X44297Y16459D01*
X44263Y16570D01*
X44208Y16673D01*
X44134Y16763D01*
X44044Y16837D01*
X43941Y16892D01*
X43844Y16922D01*
Y17990D01*
X43827Y18078D01*
X43777Y18152D01*
X43591Y18338D01*
Y18726D01*
X42932D01*
X42918Y18726D01*
D02*
G37*
G36*
X45288Y16938D02*
X45091D01*
X44975Y16926D01*
X44863Y16892D01*
X44760Y16837D01*
X44670Y16763D01*
X44596Y16673D01*
X44541Y16570D01*
X44507Y16459D01*
X44496Y16343D01*
X44507Y16226D01*
X44541Y16115D01*
X44596Y16012D01*
X44670Y15922D01*
X44760Y15848D01*
X44863Y15793D01*
X44975Y15759D01*
X45091Y15748D01*
X45288D01*
X45404Y15759D01*
X45515Y15793D01*
X45618Y15848D01*
X45709Y15922D01*
X45783Y16012D01*
X45837Y16115D01*
X45871Y16226D01*
X45883Y16343D01*
X45871Y16459D01*
X45837Y16570D01*
X45783Y16673D01*
X45709Y16763D01*
X45618Y16837D01*
X45515Y16892D01*
X45404Y16926D01*
X45288Y16938D01*
D02*
G37*
G36*
X32723Y17700D02*
X32500D01*
Y17477D01*
X32522Y17480D01*
X32590Y17508D01*
X32648Y17552D01*
X32692Y17610D01*
X32720Y17678D01*
X32723Y17700D01*
D02*
G37*
G36*
X32400Y18023D02*
X32378Y18020D01*
X32310Y17992D01*
X32274Y17964D01*
X32262Y17962D01*
X32188Y17912D01*
X31866Y17591D01*
X31750D01*
Y17254D01*
X31700D01*
Y17204D01*
X31324D01*
X31324Y16924D01*
X31286Y16896D01*
X31281Y16898D01*
X31211Y16990D01*
X31108Y17069D01*
X30988Y17119D01*
X30859Y17136D01*
X30662D01*
X30533Y17119D01*
X30413Y17069D01*
X30310Y16990D01*
X30231Y16887D01*
X30181Y16767D01*
X30164Y16638D01*
X30181Y16509D01*
X30231Y16389D01*
X30310Y16286D01*
X30413Y16207D01*
X30533Y16157D01*
X30662Y16140D01*
X30859D01*
X30988Y16157D01*
X31108Y16207D01*
X31211Y16286D01*
X31274Y16369D01*
X31324Y16352D01*
Y16209D01*
X32076D01*
Y16397D01*
X32218D01*
X32252Y16352D01*
X32310Y16308D01*
X32378Y16280D01*
X32450Y16270D01*
X32522Y16280D01*
X32590Y16308D01*
X32648Y16352D01*
X32692Y16410D01*
X32720Y16478D01*
X32730Y16550D01*
X32720Y16622D01*
X32692Y16690D01*
X32648Y16748D01*
X32590Y16792D01*
X32522Y16820D01*
X32450Y16830D01*
X32378Y16820D01*
X32310Y16792D01*
X32252Y16748D01*
X32218Y16703D01*
X32076D01*
Y16868D01*
X32076Y16882D01*
Y16918D01*
X32076Y16932D01*
Y17151D01*
X32400Y17476D01*
Y17750D01*
Y18023D01*
D02*
G37*
G36*
X31004Y18376D02*
Y18000D01*
Y17624D01*
X31247Y17624D01*
X31261D01*
X31276Y17620D01*
X31307Y17607D01*
X31307Y17607D01*
X31307Y17607D01*
X31320Y17576D01*
X31324Y17561D01*
X31324Y17547D01*
Y17304D01*
X31650D01*
Y17591D01*
X31368Y17591D01*
X31354D01*
X31339Y17595D01*
X31308Y17608D01*
X31308Y17608D01*
X31308Y17608D01*
X31295Y17639D01*
X31291Y17654D01*
X31291Y17668D01*
Y17771D01*
X31444D01*
X31460Y17758D01*
X31528Y17730D01*
X31550Y17727D01*
Y18000D01*
Y18273D01*
X31528Y18270D01*
X31460Y18242D01*
X31444Y18229D01*
X31291D01*
Y18376D01*
X31004D01*
D02*
G37*
G36*
X34500Y16400D02*
X34060D01*
X34065Y16362D01*
X34099Y16280D01*
X34153Y16210D01*
X34223Y16156D01*
X34305Y16122D01*
X34393Y16111D01*
X34500D01*
Y16400D01*
D02*
G37*
G36*
Y16789D02*
X34393D01*
X34305Y16778D01*
X34223Y16744D01*
X34153Y16690D01*
X34099Y16620D01*
X34065Y16538D01*
X34060Y16500D01*
X34500D01*
Y16789D01*
D02*
G37*
G36*
X35707D02*
X35393D01*
X35305Y16778D01*
X35223Y16744D01*
X35153Y16690D01*
X35099Y16620D01*
X35077Y16567D01*
X35023D01*
X35001Y16620D01*
X34947Y16690D01*
X34877Y16744D01*
X34795Y16778D01*
X34707Y16789D01*
X34600D01*
Y16450D01*
Y16111D01*
X34707D01*
X34795Y16122D01*
X34877Y16156D01*
X34947Y16210D01*
X35001Y16280D01*
X35023Y16333D01*
X35077D01*
X35099Y16280D01*
X35153Y16210D01*
X35223Y16156D01*
X35305Y16122D01*
X35393Y16111D01*
X35707D01*
X35795Y16122D01*
X35877Y16156D01*
X35947Y16210D01*
X36001Y16280D01*
X36035Y16362D01*
X36047Y16450D01*
X36035Y16538D01*
X36001Y16620D01*
X35947Y16690D01*
X35877Y16744D01*
X35795Y16778D01*
X35707Y16789D01*
D02*
G37*
%LPD*%
G36*
X54100Y27124D02*
Y19424D01*
X22700D01*
Y27174D01*
X54050D01*
X54100Y27124D01*
D02*
G37*
%LPC*%
G36*
X26700Y21397D02*
Y21174D01*
X26923D01*
X26920Y21196D01*
X26892Y21264D01*
X26848Y21322D01*
X26790Y21366D01*
X26722Y21394D01*
X26700Y21397D01*
D02*
G37*
G36*
X35707Y21663D02*
X35600D01*
Y21374D01*
X36040D01*
X36035Y21412D01*
X36001Y21494D01*
X35947Y21564D01*
X35877Y21618D01*
X35795Y21652D01*
X35707Y21663D01*
D02*
G37*
G36*
X26600Y21397D02*
X26578Y21394D01*
X26510Y21366D01*
X26452Y21322D01*
X26408Y21264D01*
X26380Y21196D01*
X26377Y21174D01*
X26600D01*
Y21397D01*
D02*
G37*
G36*
X32600Y21047D02*
Y20824D01*
X32823D01*
X32820Y20846D01*
X32792Y20914D01*
X32748Y20972D01*
X32690Y21016D01*
X32622Y21044D01*
X32600Y21047D01*
D02*
G37*
G36*
X36040Y21274D02*
X35600D01*
Y20985D01*
X35707D01*
X35795Y20996D01*
X35877Y21030D01*
X35947Y21084D01*
X36001Y21154D01*
X36035Y21236D01*
X36040Y21274D01*
D02*
G37*
G36*
X43713Y22843D02*
X43516D01*
X43400Y22832D01*
X43288Y22798D01*
X43186Y22743D01*
X43095Y22669D01*
X43021Y22579D01*
X42966Y22476D01*
X42933Y22364D01*
X42921Y22248D01*
X42933Y22132D01*
X42966Y22020D01*
X43021Y21917D01*
X43095Y21827D01*
X43186Y21753D01*
X43288Y21698D01*
X43400Y21664D01*
X43516Y21653D01*
X43713D01*
X43829Y21664D01*
X43941Y21698D01*
X44044Y21753D01*
X44134Y21827D01*
X44208Y21917D01*
X44263Y22020D01*
X44297Y22132D01*
X44308Y22248D01*
X44297Y22364D01*
X44263Y22476D01*
X44208Y22579D01*
X44134Y22669D01*
X44044Y22743D01*
X43941Y22798D01*
X43829Y22832D01*
X43713Y22843D01*
D02*
G37*
G36*
X23750Y23797D02*
X23728Y23794D01*
X23660Y23766D01*
X23602Y23722D01*
X23558Y23664D01*
X23530Y23596D01*
X23527Y23574D01*
X23750D01*
Y23797D01*
D02*
G37*
G36*
X24776Y23865D02*
X24450D01*
Y23578D01*
X24776D01*
Y23865D01*
D02*
G37*
G36*
X23750Y23474D02*
X23527D01*
X23530Y23452D01*
X23558Y23384D01*
X23602Y23326D01*
X23660Y23282D01*
X23728Y23254D01*
X23750Y23251D01*
Y23474D01*
D02*
G37*
G36*
X34707Y25663D02*
X34393D01*
X34305Y25652D01*
X34223Y25618D01*
X34153Y25564D01*
X34099Y25494D01*
X34065Y25412D01*
X34053Y25324D01*
X34065Y25236D01*
X34099Y25154D01*
X34153Y25084D01*
X34223Y25030D01*
X34305Y24996D01*
X34393Y24985D01*
X34707D01*
X34795Y24996D01*
X34877Y25030D01*
X34947Y25084D01*
X35001Y25154D01*
X35006Y25167D01*
X35056Y25157D01*
Y24988D01*
X36044D01*
Y25171D01*
X39587D01*
X41592Y23166D01*
X41641Y23133D01*
X41700Y23121D01*
X44100D01*
X44617Y22604D01*
X44596Y22579D01*
X44541Y22476D01*
X44507Y22364D01*
X44496Y22248D01*
X44507Y22132D01*
X44541Y22020D01*
X44596Y21917D01*
X44670Y21827D01*
X44760Y21753D01*
X44863Y21698D01*
X44975Y21664D01*
X45091Y21653D01*
X45288D01*
X45404Y21664D01*
X45515Y21698D01*
X45618Y21753D01*
X45709Y21827D01*
X45783Y21917D01*
X45837Y22020D01*
X45871Y22132D01*
X45883Y22248D01*
X45871Y22364D01*
X45837Y22476D01*
X45783Y22579D01*
X45709Y22669D01*
X45618Y22743D01*
X45515Y22798D01*
X45404Y22832D01*
X45288Y22843D01*
X45091D01*
X44975Y22832D01*
X44863Y22798D01*
X44858Y22795D01*
X44272Y23382D01*
X44222Y23415D01*
X44163Y23427D01*
X41763D01*
X39758Y25432D01*
X39709Y25465D01*
X39650Y25477D01*
X36044D01*
Y25660D01*
X35056D01*
Y25491D01*
X35006Y25481D01*
X35001Y25494D01*
X34947Y25564D01*
X34877Y25618D01*
X34795Y25652D01*
X34707Y25663D01*
D02*
G37*
G36*
X50209Y22843D02*
X50012D01*
X49896Y22832D01*
X49785Y22798D01*
X49682Y22743D01*
X49591Y22669D01*
X49517Y22579D01*
X49463Y22476D01*
X49429Y22364D01*
X49417Y22248D01*
X49429Y22132D01*
X49463Y22020D01*
X49517Y21917D01*
X49591Y21827D01*
X49682Y21753D01*
X49785Y21698D01*
X49896Y21664D01*
X50012Y21653D01*
X50209D01*
X50325Y21664D01*
X50437Y21698D01*
X50540Y21753D01*
X50630Y21827D01*
X50704Y21917D01*
X50759Y22020D01*
X50793Y22132D01*
X50804Y22248D01*
X50793Y22364D01*
X50759Y22476D01*
X50704Y22579D01*
X50630Y22669D01*
X50540Y22743D01*
X50437Y22798D01*
X50325Y22832D01*
X50209Y22843D01*
D02*
G37*
G36*
X41887Y20704D02*
X41815Y20694D01*
X41747Y20666D01*
X41689Y20622D01*
X41675Y20602D01*
X41504D01*
X41436Y20589D01*
X41378Y20550D01*
X41278Y20450D01*
X40832D01*
X40818Y20450D01*
X40782D01*
X40768Y20450D01*
X40496D01*
Y20074D01*
Y19698D01*
X40768D01*
X40782Y19698D01*
X40818D01*
X40832Y19698D01*
X41491D01*
Y20158D01*
X41578Y20246D01*
X41675D01*
X41689Y20226D01*
X41747Y20182D01*
X41815Y20154D01*
X41887Y20144D01*
X41959Y20154D01*
X42027Y20182D01*
X42085Y20226D01*
X42129Y20284D01*
X42157Y20352D01*
X42167Y20424D01*
X42157Y20496D01*
X42129Y20564D01*
X42085Y20622D01*
X42027Y20666D01*
X41959Y20694D01*
X41887Y20704D01*
D02*
G37*
G36*
X39800Y20024D02*
X39577D01*
X39580Y20002D01*
X39608Y19934D01*
X39652Y19876D01*
X39710Y19832D01*
X39778Y19804D01*
X39800Y19801D01*
Y20024D01*
D02*
G37*
G36*
X46400D02*
X46177D01*
X46180Y20002D01*
X46208Y19934D01*
X46252Y19876D01*
X46310Y19832D01*
X46378Y19804D01*
X46400Y19801D01*
Y20024D01*
D02*
G37*
G36*
X47418Y20450D02*
X47382D01*
X47368Y20450D01*
X47096D01*
Y20074D01*
Y19698D01*
X47368D01*
X47382Y19698D01*
X47418D01*
X47432Y19698D01*
X48091D01*
Y19875D01*
X48141Y19892D01*
X48152Y19876D01*
X48210Y19832D01*
X48278Y19804D01*
X48350Y19794D01*
X48422Y19804D01*
X48490Y19832D01*
X48548Y19876D01*
X48592Y19934D01*
X48620Y20002D01*
X48630Y20074D01*
X48620Y20146D01*
X48592Y20214D01*
X48548Y20272D01*
X48490Y20316D01*
X48422Y20344D01*
X48350Y20354D01*
X48278Y20344D01*
X48210Y20316D01*
X48152Y20272D01*
X48141Y20256D01*
X48091Y20273D01*
Y20450D01*
X47432D01*
X47418Y20450D01*
D02*
G37*
G36*
X23437Y20756D02*
X23321Y20745D01*
X23210Y20711D01*
X23107Y20656D01*
X23017Y20582D01*
X22943Y20492D01*
X22888Y20389D01*
X22854Y20277D01*
X22842Y20161D01*
X22854Y20045D01*
X22888Y19934D01*
X22943Y19831D01*
X23017Y19741D01*
X23107Y19667D01*
X23210Y19612D01*
X23321Y19578D01*
X23437Y19566D01*
X23553Y19578D01*
X23665Y19612D01*
X23768Y19667D01*
X23858Y19741D01*
X23932Y19831D01*
X23987Y19934D01*
X24021Y20045D01*
X24032Y20161D01*
X24021Y20277D01*
X23987Y20389D01*
X23932Y20492D01*
X23858Y20582D01*
X23768Y20656D01*
X23665Y20711D01*
X23553Y20745D01*
X23437Y20756D01*
D02*
G37*
G36*
X53359D02*
X53243Y20745D01*
X53131Y20711D01*
X53028Y20656D01*
X52938Y20582D01*
X52864Y20492D01*
X52809Y20389D01*
X52775Y20277D01*
X52764Y20161D01*
X52775Y20045D01*
X52809Y19934D01*
X52864Y19831D01*
X52938Y19741D01*
X53028Y19667D01*
X53131Y19612D01*
X53243Y19578D01*
X53359Y19566D01*
X53475Y19578D01*
X53586Y19612D01*
X53689Y19667D01*
X53779Y19741D01*
X53853Y19831D01*
X53908Y19934D01*
X53942Y20045D01*
X53954Y20161D01*
X53942Y20277D01*
X53908Y20389D01*
X53853Y20492D01*
X53779Y20582D01*
X53689Y20656D01*
X53586Y20711D01*
X53475Y20745D01*
X53359Y20756D01*
D02*
G37*
G36*
X39800Y20347D02*
X39778Y20344D01*
X39710Y20316D01*
X39652Y20272D01*
X39608Y20214D01*
X39580Y20146D01*
X39577Y20124D01*
X39800D01*
Y20347D01*
D02*
G37*
G36*
X40396Y20450D02*
X40109D01*
Y20303D01*
X40006D01*
X39990Y20316D01*
X39922Y20344D01*
X39900Y20347D01*
Y20074D01*
Y19801D01*
X39922Y19804D01*
X39990Y19832D01*
X40006Y19845D01*
X40109D01*
Y19698D01*
X40396D01*
Y20074D01*
Y20450D01*
D02*
G37*
G36*
X46996D02*
X46709D01*
Y20303D01*
X46606D01*
X46590Y20316D01*
X46522Y20344D01*
X46500Y20347D01*
Y20074D01*
Y19801D01*
X46522Y19804D01*
X46590Y19832D01*
X46606Y19845D01*
X46709D01*
Y19698D01*
X46996D01*
Y20074D01*
Y20450D01*
D02*
G37*
G36*
X26923Y21074D02*
X26377D01*
X26380Y21052D01*
X26402Y21000D01*
X26382Y20960D01*
X26371Y20950D01*
X26309D01*
Y20624D01*
X26646D01*
Y20574D01*
X26696D01*
Y20198D01*
X26968D01*
X26982Y20198D01*
X27018D01*
X27032Y20198D01*
X27691D01*
Y20318D01*
X27741Y20343D01*
X27780Y20313D01*
X27847Y20285D01*
X27919Y20275D01*
X27992Y20285D01*
X28059Y20313D01*
X28117Y20357D01*
X28161Y20415D01*
X28189Y20482D01*
X28199Y20555D01*
X28189Y20627D01*
X28161Y20694D01*
X28117Y20752D01*
X28059Y20797D01*
X27992Y20825D01*
X27919Y20834D01*
X27847Y20825D01*
X27780Y20797D01*
X27741Y20767D01*
X27691Y20791D01*
Y20950D01*
X27032D01*
X27018Y20950D01*
X26982D01*
X26968Y20950D01*
X26929D01*
X26918Y20960D01*
X26898Y21000D01*
X26920Y21052D01*
X26923Y21074D01*
D02*
G37*
G36*
X46400Y20347D02*
X46378Y20344D01*
X46310Y20316D01*
X46252Y20272D01*
X46208Y20214D01*
X46180Y20146D01*
X46177Y20124D01*
X46400D01*
Y20347D01*
D02*
G37*
G36*
X26596Y20524D02*
X26309D01*
Y20198D01*
X26596D01*
Y20524D01*
D02*
G37*
G36*
X53359Y27056D02*
X53243Y27044D01*
X53131Y27010D01*
X53028Y26955D01*
X52938Y26881D01*
X52864Y26791D01*
X52809Y26688D01*
X52775Y26577D01*
X52764Y26461D01*
X52775Y26345D01*
X52809Y26233D01*
X52864Y26130D01*
X52938Y26040D01*
X53028Y25966D01*
X53131Y25911D01*
X53243Y25877D01*
X53359Y25866D01*
X53475Y25877D01*
X53586Y25911D01*
X53689Y25966D01*
X53779Y26040D01*
X53853Y26130D01*
X53908Y26233D01*
X53942Y26345D01*
X53954Y26461D01*
X53942Y26577D01*
X53908Y26688D01*
X53853Y26791D01*
X53779Y26881D01*
X53689Y26955D01*
X53586Y27010D01*
X53475Y27044D01*
X53359Y27056D01*
D02*
G37*
G36*
X48350Y26124D02*
X48127D01*
X48130Y26102D01*
X48158Y26034D01*
X48202Y25976D01*
X48260Y25932D01*
X48328Y25904D01*
X48350Y25901D01*
Y26124D01*
D02*
G37*
G36*
X31650Y26147D02*
Y25924D01*
X31873D01*
X31870Y25946D01*
X31842Y26014D01*
X31798Y26072D01*
X31740Y26116D01*
X31672Y26144D01*
X31650Y26147D01*
D02*
G37*
G36*
X31873Y25824D02*
X31650D01*
Y25601D01*
X31672Y25604D01*
X31740Y25632D01*
X31798Y25676D01*
X31842Y25734D01*
X31870Y25802D01*
X31873Y25824D01*
D02*
G37*
G36*
X32500Y25897D02*
Y25674D01*
X32723D01*
X32720Y25696D01*
X32692Y25764D01*
X32648Y25822D01*
X32590Y25866D01*
X32522Y25894D01*
X32500Y25897D01*
D02*
G37*
G36*
X23437Y27056D02*
X23321Y27044D01*
X23210Y27010D01*
X23107Y26955D01*
X23017Y26881D01*
X22943Y26791D01*
X22888Y26688D01*
X22854Y26577D01*
X22842Y26461D01*
X22854Y26345D01*
X22888Y26233D01*
X22943Y26130D01*
X23017Y26040D01*
X23107Y25966D01*
X23210Y25911D01*
X23321Y25877D01*
X23437Y25866D01*
X23553Y25877D01*
X23665Y25911D01*
X23768Y25966D01*
X23858Y26040D01*
X23932Y26130D01*
X23987Y26233D01*
X24021Y26345D01*
X24032Y26461D01*
X24021Y26577D01*
X23987Y26688D01*
X23932Y26791D01*
X23858Y26881D01*
X23768Y26955D01*
X23665Y27010D01*
X23553Y27044D01*
X23437Y27056D01*
D02*
G37*
G36*
X41900Y26497D02*
X41878Y26494D01*
X41810Y26466D01*
X41752Y26422D01*
X41708Y26364D01*
X41680Y26296D01*
X41677Y26274D01*
X41900D01*
Y26497D01*
D02*
G37*
G36*
X48996Y26550D02*
X48709D01*
Y26403D01*
X48556D01*
X48540Y26416D01*
X48472Y26444D01*
X48450Y26447D01*
Y26174D01*
Y25901D01*
X48472Y25904D01*
X48540Y25932D01*
X48556Y25945D01*
X48709D01*
Y25798D01*
X48996D01*
Y26174D01*
Y26550D01*
D02*
G37*
G36*
X42496Y26600D02*
X42209D01*
Y26453D01*
X42106D01*
X42090Y26466D01*
X42022Y26494D01*
X42000Y26497D01*
Y26224D01*
Y25951D01*
X42022Y25954D01*
X42090Y25982D01*
X42106Y25995D01*
X42209D01*
Y25848D01*
X42496D01*
Y26224D01*
Y26600D01*
D02*
G37*
G36*
X41900Y26174D02*
X41677D01*
X41680Y26152D01*
X41708Y26084D01*
X41752Y26026D01*
X41810Y25982D01*
X41878Y25954D01*
X41900Y25951D01*
Y26174D01*
D02*
G37*
G36*
X30618Y26250D02*
X30582D01*
X30568Y26250D01*
X29909D01*
Y26130D01*
X29859Y26106D01*
X29820Y26135D01*
X29753Y26163D01*
X29681Y26173D01*
X29608Y26163D01*
X29541Y26135D01*
X29483Y26091D01*
X29439Y26033D01*
X29411Y25966D01*
X29401Y25893D01*
X29411Y25821D01*
X29439Y25754D01*
X29483Y25696D01*
X29541Y25651D01*
X29608Y25623D01*
X29681Y25614D01*
X29753Y25623D01*
X29820Y25651D01*
X29859Y25681D01*
X29909Y25657D01*
Y25498D01*
X30568D01*
X30582Y25498D01*
X30618D01*
X30632Y25498D01*
X30904D01*
Y25874D01*
Y26250D01*
X30632D01*
X30618Y26250D01*
D02*
G37*
G36*
X48350Y26447D02*
X48328Y26444D01*
X48260Y26416D01*
X48202Y26372D01*
X48158Y26314D01*
X48130Y26246D01*
X48127Y26224D01*
X48350D01*
Y26447D01*
D02*
G37*
G36*
X49418Y26550D02*
X49382D01*
X49368Y26550D01*
X49096D01*
Y26174D01*
Y25798D01*
X49368D01*
X49382Y25798D01*
X49418D01*
X49432Y25798D01*
X49805D01*
X49881Y25723D01*
Y24796D01*
X49785Y24766D01*
X49682Y24711D01*
X49591Y24637D01*
X49517Y24547D01*
X49463Y24444D01*
X49429Y24333D01*
X49417Y24217D01*
X49429Y24100D01*
X49463Y23989D01*
X49517Y23886D01*
X49591Y23796D01*
X49682Y23722D01*
X49785Y23667D01*
X49896Y23633D01*
X50012Y23622D01*
X50209D01*
X50325Y23633D01*
X50437Y23667D01*
X50540Y23722D01*
X50630Y23796D01*
X50704Y23886D01*
X50759Y23989D01*
X50793Y24100D01*
X50804Y24217D01*
X50793Y24333D01*
X50759Y24444D01*
X50704Y24547D01*
X50630Y24637D01*
X50540Y24711D01*
X50437Y24766D01*
X50340Y24796D01*
Y25818D01*
X50323Y25906D01*
X50273Y25980D01*
X50091Y26162D01*
Y26550D01*
X49432D01*
X49418Y26550D01*
D02*
G37*
G36*
X27100Y25427D02*
X26150D01*
X26091Y25415D01*
X26042Y25382D01*
X25792Y25132D01*
X25759Y25083D01*
X25747Y25024D01*
Y23860D01*
X25759Y23802D01*
X25792Y23752D01*
X26203Y23341D01*
X26175Y23304D01*
X26126Y23184D01*
X26109Y23055D01*
X26126Y22926D01*
X26175Y22806D01*
X26255Y22703D01*
X26358Y22624D01*
X26478Y22574D01*
X26607Y22557D01*
X26804D01*
X26932Y22574D01*
X27053Y22624D01*
X27156Y22703D01*
X27235Y22806D01*
X27285Y22926D01*
X27301Y23055D01*
X27285Y23184D01*
X27235Y23304D01*
X27156Y23407D01*
X27053Y23486D01*
X26932Y23536D01*
X26804Y23553D01*
X26607D01*
X26478Y23536D01*
X26451Y23525D01*
X26053Y23924D01*
Y24961D01*
X26213Y25121D01*
X27037D01*
X28385Y23773D01*
X28365Y23727D01*
X27706D01*
X27207Y24226D01*
X27235Y24263D01*
X27285Y24383D01*
X27301Y24512D01*
X27285Y24641D01*
X27235Y24761D01*
X27156Y24864D01*
X27053Y24943D01*
X26932Y24993D01*
X26804Y25010D01*
X26607D01*
X26478Y24993D01*
X26358Y24943D01*
X26255Y24864D01*
X26175Y24761D01*
X26126Y24641D01*
X26109Y24512D01*
X26126Y24383D01*
X26175Y24263D01*
X26255Y24160D01*
X26358Y24081D01*
X26478Y24031D01*
X26607Y24014D01*
X26804D01*
X26932Y24031D01*
X26959Y24042D01*
X27535Y23466D01*
X27584Y23433D01*
X27643Y23421D01*
X30257D01*
X30282Y23371D01*
X30231Y23304D01*
X30181Y23184D01*
X30164Y23055D01*
X30181Y22926D01*
X30231Y22806D01*
X30310Y22703D01*
X30413Y22624D01*
X30533Y22574D01*
X30662Y22557D01*
X30859D01*
X30988Y22574D01*
X31108Y22624D01*
X31211Y22703D01*
X31290Y22806D01*
X31330Y22902D01*
X31456D01*
X33142Y21216D01*
X33191Y21183D01*
X33250Y21171D01*
X34092D01*
X34099Y21154D01*
X34153Y21084D01*
X34223Y21030D01*
X34305Y20996D01*
X34393Y20985D01*
X34707D01*
X34795Y20996D01*
X34877Y21030D01*
X34947Y21084D01*
X35001Y21154D01*
X35023Y21207D01*
X35077D01*
X35099Y21154D01*
X35153Y21084D01*
X35223Y21030D01*
X35305Y20996D01*
X35393Y20985D01*
X35500D01*
Y21324D01*
Y21663D01*
X35393D01*
X35305Y21652D01*
X35223Y21618D01*
X35153Y21564D01*
X35099Y21494D01*
X35077Y21441D01*
X35023D01*
X35001Y21494D01*
X34947Y21564D01*
X34877Y21618D01*
X34795Y21652D01*
X34707Y21663D01*
X34393D01*
X34305Y21652D01*
X34223Y21618D01*
X34153Y21564D01*
X34099Y21494D01*
X34092Y21477D01*
X33313D01*
X31627Y23163D01*
X31577Y23196D01*
X31519Y23208D01*
X31330D01*
X31290Y23304D01*
X31219Y23396D01*
X31236Y23446D01*
X31912D01*
X33142Y22216D01*
X33191Y22183D01*
X33250Y22171D01*
X34092D01*
X34099Y22154D01*
X34153Y22084D01*
X34223Y22030D01*
X34305Y21996D01*
X34393Y21985D01*
X34707D01*
X34795Y21996D01*
X34877Y22030D01*
X34947Y22084D01*
X35001Y22154D01*
X35023Y22207D01*
X35077D01*
X35099Y22154D01*
X35153Y22084D01*
X35223Y22030D01*
X35305Y21996D01*
X35393Y21985D01*
X35707D01*
X35795Y21996D01*
X35877Y22030D01*
X35934Y22074D01*
X36197Y21811D01*
Y21137D01*
X35561Y20501D01*
X32732D01*
X32715Y20551D01*
X32748Y20576D01*
X32792Y20634D01*
X32820Y20702D01*
X32823Y20724D01*
X32550D01*
Y20774D01*
X32500D01*
Y21047D01*
X32478Y21044D01*
X32410Y21016D01*
X32394Y21003D01*
X32291D01*
Y21150D01*
X32004D01*
Y20774D01*
X31904D01*
Y21150D01*
X31618D01*
Y21150D01*
X31582D01*
Y21150D01*
X31086D01*
X30913Y21323D01*
Y21462D01*
X30988Y21472D01*
X31108Y21522D01*
X31211Y21601D01*
X31290Y21704D01*
X31340Y21824D01*
X31357Y21953D01*
X31340Y22082D01*
X31290Y22202D01*
X31211Y22305D01*
X31108Y22384D01*
X30988Y22434D01*
X30859Y22451D01*
X30662D01*
X30533Y22434D01*
X30413Y22384D01*
X30310Y22305D01*
X30231Y22202D01*
X30181Y22082D01*
X30164Y21953D01*
X30181Y21824D01*
X30231Y21704D01*
X30310Y21601D01*
X30413Y21522D01*
X30533Y21472D01*
X30607Y21462D01*
Y21259D01*
X30619Y21201D01*
X30652Y21151D01*
X30909Y20894D01*
Y20501D01*
X29539D01*
X27979Y22061D01*
X27930Y22094D01*
X27871Y22106D01*
X27275D01*
X27235Y22202D01*
X27156Y22305D01*
X27053Y22384D01*
X26932Y22434D01*
X26804Y22451D01*
X26607D01*
X26478Y22434D01*
X26358Y22384D01*
X26255Y22305D01*
X26175Y22202D01*
X26126Y22082D01*
X26109Y21953D01*
X26126Y21824D01*
X26175Y21704D01*
X26255Y21601D01*
X26358Y21522D01*
X26478Y21472D01*
X26607Y21455D01*
X26804D01*
X26932Y21472D01*
X27053Y21522D01*
X27156Y21601D01*
X27235Y21704D01*
X27275Y21800D01*
X27808D01*
X29367Y20240D01*
X29417Y20207D01*
X29476Y20195D01*
X35624D01*
X35683Y20207D01*
X35733Y20240D01*
X36458Y20966D01*
X36491Y21015D01*
X36503Y21074D01*
Y21874D01*
X36491Y21933D01*
X36458Y21982D01*
X36036Y22404D01*
X36035Y22412D01*
X36001Y22494D01*
X35947Y22564D01*
X35877Y22618D01*
X35795Y22652D01*
X35707Y22663D01*
X35393D01*
X35305Y22652D01*
X35223Y22618D01*
X35153Y22564D01*
X35099Y22494D01*
X35077Y22441D01*
X35023D01*
X35001Y22494D01*
X34947Y22564D01*
X34877Y22618D01*
X34795Y22652D01*
X34707Y22663D01*
X34393D01*
X34305Y22652D01*
X34223Y22618D01*
X34153Y22564D01*
X34099Y22494D01*
X34092Y22477D01*
X33313D01*
X32665Y23125D01*
X32685Y23171D01*
X34092D01*
X34099Y23154D01*
X34153Y23084D01*
X34223Y23030D01*
X34305Y22996D01*
X34393Y22985D01*
X34707D01*
X34795Y22996D01*
X34877Y23030D01*
X34947Y23084D01*
X35001Y23154D01*
X35023Y23207D01*
X35077D01*
X35099Y23154D01*
X35153Y23084D01*
X35223Y23030D01*
X35305Y22996D01*
X35393Y22985D01*
X35707D01*
X35795Y22996D01*
X35877Y23030D01*
X35947Y23084D01*
X36001Y23154D01*
X36008Y23171D01*
X37554D01*
X38121Y22604D01*
X38100Y22579D01*
X38045Y22476D01*
X38011Y22364D01*
X38000Y22248D01*
X38011Y22132D01*
X38045Y22020D01*
X38100Y21917D01*
X38174Y21827D01*
X38264Y21753D01*
X38367Y21698D01*
X38479Y21664D01*
X38595Y21653D01*
X38792D01*
X38908Y21664D01*
X39019Y21698D01*
X39122Y21753D01*
X39212Y21827D01*
X39286Y21917D01*
X39341Y22020D01*
X39375Y22132D01*
X39387Y22248D01*
X39375Y22364D01*
X39341Y22476D01*
X39286Y22579D01*
X39212Y22669D01*
X39122Y22743D01*
X39019Y22798D01*
X38908Y22832D01*
X38792Y22843D01*
X38595D01*
X38479Y22832D01*
X38367Y22798D01*
X38362Y22795D01*
X37725Y23432D01*
X37676Y23465D01*
X37617Y23477D01*
X36008D01*
X36001Y23494D01*
X35947Y23564D01*
X35877Y23618D01*
X35795Y23652D01*
X35707Y23663D01*
X35393D01*
X35305Y23652D01*
X35223Y23618D01*
X35153Y23564D01*
X35099Y23494D01*
X35077Y23441D01*
X35023D01*
X35001Y23494D01*
X34947Y23564D01*
X34877Y23618D01*
X34795Y23652D01*
X34707Y23663D01*
X34393D01*
X34305Y23652D01*
X34223Y23618D01*
X34153Y23564D01*
X34099Y23494D01*
X34092Y23477D01*
X32596D01*
X32166Y23907D01*
X32117Y23940D01*
X32058Y23952D01*
X28639D01*
X27208Y25382D01*
X27159Y25415D01*
X27100Y25427D01*
D02*
G37*
G36*
X24350Y23865D02*
X24024D01*
Y23758D01*
X23951D01*
X23940Y23766D01*
X23872Y23794D01*
X23850Y23797D01*
Y23524D01*
Y23251D01*
X23872Y23254D01*
X23940Y23282D01*
X23962Y23299D01*
X24024D01*
Y23206D01*
X24024Y23192D01*
Y23156D01*
X24024Y23142D01*
Y22483D01*
X24776D01*
X24776Y22483D01*
Y22483D01*
X24824Y22481D01*
X24865Y22475D01*
X24937Y22485D01*
X25005Y22513D01*
X25063Y22557D01*
X25107Y22615D01*
X25135Y22682D01*
X25145Y22755D01*
X25135Y22827D01*
X25107Y22894D01*
X25063Y22952D01*
X25005Y22997D01*
X24937Y23025D01*
X24865Y23034D01*
X24826Y23029D01*
X24776Y23068D01*
Y23142D01*
X24776Y23156D01*
Y23192D01*
X24776Y23206D01*
Y23478D01*
X24400D01*
Y23528D01*
X24350D01*
Y23865D01*
D02*
G37*
G36*
X38792Y24812D02*
X38595D01*
X38479Y24800D01*
X38367Y24766D01*
X38264Y24711D01*
X38174Y24637D01*
X38100Y24547D01*
X38045Y24444D01*
X38011Y24333D01*
X38000Y24217D01*
X38011Y24100D01*
X38045Y23989D01*
X38100Y23886D01*
X38174Y23796D01*
X38264Y23722D01*
X38367Y23667D01*
X38479Y23633D01*
X38595Y23622D01*
X38792D01*
X38908Y23633D01*
X39019Y23667D01*
X39122Y23722D01*
X39212Y23796D01*
X39286Y23886D01*
X39341Y23989D01*
X39375Y24100D01*
X39387Y24217D01*
X39375Y24333D01*
X39341Y24444D01*
X39286Y24547D01*
X39212Y24637D01*
X39122Y24711D01*
X39019Y24766D01*
X38908Y24800D01*
X38792Y24812D01*
D02*
G37*
G36*
X42918Y26600D02*
X42882D01*
X42868Y26600D01*
X42596D01*
Y26224D01*
Y25848D01*
X42868D01*
X42882Y25848D01*
X42918D01*
X42932Y25848D01*
X43305D01*
X43385Y25769D01*
Y24796D01*
X43288Y24766D01*
X43186Y24711D01*
X43095Y24637D01*
X43021Y24547D01*
X42966Y24444D01*
X42933Y24333D01*
X42921Y24217D01*
X42933Y24100D01*
X42966Y23989D01*
X43021Y23886D01*
X43095Y23796D01*
X43186Y23722D01*
X43288Y23667D01*
X43400Y23633D01*
X43516Y23622D01*
X43713D01*
X43829Y23633D01*
X43941Y23667D01*
X44044Y23722D01*
X44134Y23796D01*
X44208Y23886D01*
X44263Y23989D01*
X44297Y24100D01*
X44308Y24217D01*
X44297Y24333D01*
X44263Y24444D01*
X44208Y24547D01*
X44134Y24637D01*
X44044Y24711D01*
X43941Y24766D01*
X43844Y24796D01*
Y25864D01*
X43827Y25952D01*
X43777Y26026D01*
X43591Y26212D01*
Y26600D01*
X42932D01*
X42918Y26600D01*
D02*
G37*
G36*
X45288Y24812D02*
X45091D01*
X44975Y24800D01*
X44863Y24766D01*
X44760Y24711D01*
X44670Y24637D01*
X44596Y24547D01*
X44541Y24444D01*
X44507Y24333D01*
X44496Y24217D01*
X44507Y24100D01*
X44541Y23989D01*
X44596Y23886D01*
X44670Y23796D01*
X44760Y23722D01*
X44863Y23667D01*
X44975Y23633D01*
X45091Y23622D01*
X45288D01*
X45404Y23633D01*
X45515Y23667D01*
X45618Y23722D01*
X45709Y23796D01*
X45783Y23886D01*
X45837Y23989D01*
X45871Y24100D01*
X45883Y24217D01*
X45871Y24333D01*
X45837Y24444D01*
X45783Y24547D01*
X45709Y24637D01*
X45618Y24711D01*
X45515Y24766D01*
X45404Y24800D01*
X45288Y24812D01*
D02*
G37*
G36*
X32723Y25574D02*
X32500D01*
Y25351D01*
X32522Y25354D01*
X32590Y25382D01*
X32648Y25426D01*
X32692Y25484D01*
X32720Y25552D01*
X32723Y25574D01*
D02*
G37*
G36*
X32400Y25897D02*
X32378Y25894D01*
X32310Y25866D01*
X32274Y25838D01*
X32262Y25836D01*
X32188Y25786D01*
X31866Y25465D01*
X31750D01*
Y25128D01*
X31700D01*
Y25078D01*
X31324D01*
X31324Y24798D01*
X31286Y24770D01*
X31281Y24772D01*
X31211Y24864D01*
X31108Y24943D01*
X30988Y24993D01*
X30859Y25010D01*
X30662D01*
X30533Y24993D01*
X30413Y24943D01*
X30310Y24864D01*
X30231Y24761D01*
X30181Y24641D01*
X30164Y24512D01*
X30181Y24383D01*
X30231Y24263D01*
X30310Y24160D01*
X30413Y24081D01*
X30533Y24031D01*
X30662Y24014D01*
X30859D01*
X30988Y24031D01*
X31108Y24081D01*
X31211Y24160D01*
X31274Y24243D01*
X31324Y24226D01*
Y24083D01*
X32076D01*
Y24271D01*
X32218D01*
X32252Y24226D01*
X32310Y24182D01*
X32378Y24154D01*
X32450Y24144D01*
X32522Y24154D01*
X32590Y24182D01*
X32648Y24226D01*
X32692Y24284D01*
X32720Y24352D01*
X32730Y24424D01*
X32720Y24496D01*
X32692Y24564D01*
X32648Y24622D01*
X32590Y24666D01*
X32522Y24694D01*
X32450Y24704D01*
X32378Y24694D01*
X32310Y24666D01*
X32252Y24622D01*
X32218Y24577D01*
X32076D01*
Y24742D01*
X32076Y24756D01*
Y24792D01*
X32076Y24806D01*
Y25025D01*
X32400Y25350D01*
Y25624D01*
Y25897D01*
D02*
G37*
G36*
X31004Y26250D02*
Y25874D01*
Y25498D01*
X31247Y25498D01*
X31261D01*
X31276Y25494D01*
X31307Y25481D01*
X31307Y25481D01*
X31307Y25481D01*
X31320Y25450D01*
X31324Y25435D01*
X31324Y25421D01*
Y25178D01*
X31650D01*
Y25465D01*
X31368Y25465D01*
X31354D01*
X31339Y25469D01*
X31308Y25482D01*
X31308Y25482D01*
X31308Y25482D01*
X31295Y25513D01*
X31291Y25528D01*
X31291Y25542D01*
Y25645D01*
X31444D01*
X31460Y25632D01*
X31528Y25604D01*
X31550Y25601D01*
Y25874D01*
Y26147D01*
X31528Y26144D01*
X31460Y26116D01*
X31444Y26103D01*
X31291D01*
Y26250D01*
X31004D01*
D02*
G37*
G36*
X34500Y24274D02*
X34060D01*
X34065Y24236D01*
X34099Y24154D01*
X34153Y24084D01*
X34223Y24030D01*
X34305Y23996D01*
X34393Y23985D01*
X34500D01*
Y24274D01*
D02*
G37*
G36*
Y24663D02*
X34393D01*
X34305Y24652D01*
X34223Y24618D01*
X34153Y24564D01*
X34099Y24494D01*
X34065Y24412D01*
X34060Y24374D01*
X34500D01*
Y24663D01*
D02*
G37*
G36*
X35707D02*
X35393D01*
X35305Y24652D01*
X35223Y24618D01*
X35153Y24564D01*
X35099Y24494D01*
X35077Y24441D01*
X35023D01*
X35001Y24494D01*
X34947Y24564D01*
X34877Y24618D01*
X34795Y24652D01*
X34707Y24663D01*
X34600D01*
Y24324D01*
Y23985D01*
X34707D01*
X34795Y23996D01*
X34877Y24030D01*
X34947Y24084D01*
X35001Y24154D01*
X35023Y24207D01*
X35077D01*
X35099Y24154D01*
X35153Y24084D01*
X35223Y24030D01*
X35305Y23996D01*
X35393Y23985D01*
X35707D01*
X35795Y23996D01*
X35877Y24030D01*
X35947Y24084D01*
X36001Y24154D01*
X36035Y24236D01*
X36047Y24324D01*
X36035Y24412D01*
X36001Y24494D01*
X35947Y24564D01*
X35877Y24618D01*
X35795Y24652D01*
X35707Y24663D01*
D02*
G37*
%LPD*%
G36*
X54100Y34998D02*
Y27298D01*
X22700D01*
Y35048D01*
X54050D01*
X54100Y34998D01*
D02*
G37*
%LPC*%
G36*
X26700Y29271D02*
Y29048D01*
X26923D01*
X26920Y29070D01*
X26892Y29138D01*
X26848Y29196D01*
X26790Y29240D01*
X26722Y29268D01*
X26700Y29271D01*
D02*
G37*
G36*
X35707Y29537D02*
X35600D01*
Y29248D01*
X36040D01*
X36035Y29286D01*
X36001Y29368D01*
X35947Y29438D01*
X35877Y29492D01*
X35795Y29526D01*
X35707Y29537D01*
D02*
G37*
G36*
X26600Y29271D02*
X26578Y29268D01*
X26510Y29240D01*
X26452Y29196D01*
X26408Y29138D01*
X26380Y29070D01*
X26377Y29048D01*
X26600D01*
Y29271D01*
D02*
G37*
G36*
X32600Y28921D02*
Y28698D01*
X32823D01*
X32820Y28720D01*
X32792Y28788D01*
X32748Y28846D01*
X32690Y28890D01*
X32622Y28918D01*
X32600Y28921D01*
D02*
G37*
G36*
X36040Y29148D02*
X35600D01*
Y28859D01*
X35707D01*
X35795Y28870D01*
X35877Y28904D01*
X35947Y28958D01*
X36001Y29028D01*
X36035Y29110D01*
X36040Y29148D01*
D02*
G37*
G36*
X43713Y30717D02*
X43516D01*
X43400Y30706D01*
X43288Y30672D01*
X43186Y30617D01*
X43095Y30543D01*
X43021Y30453D01*
X42966Y30350D01*
X42933Y30238D01*
X42921Y30122D01*
X42933Y30006D01*
X42966Y29894D01*
X43021Y29791D01*
X43095Y29701D01*
X43186Y29627D01*
X43288Y29572D01*
X43400Y29538D01*
X43516Y29527D01*
X43713D01*
X43829Y29538D01*
X43941Y29572D01*
X44044Y29627D01*
X44134Y29701D01*
X44208Y29791D01*
X44263Y29894D01*
X44297Y30006D01*
X44308Y30122D01*
X44297Y30238D01*
X44263Y30350D01*
X44208Y30453D01*
X44134Y30543D01*
X44044Y30617D01*
X43941Y30672D01*
X43829Y30706D01*
X43713Y30717D01*
D02*
G37*
G36*
X23750Y31671D02*
X23728Y31668D01*
X23660Y31640D01*
X23602Y31596D01*
X23558Y31538D01*
X23530Y31470D01*
X23527Y31448D01*
X23750D01*
Y31671D01*
D02*
G37*
G36*
X24776Y31739D02*
X24450D01*
Y31452D01*
X24776D01*
Y31739D01*
D02*
G37*
G36*
X23750Y31348D02*
X23527D01*
X23530Y31326D01*
X23558Y31258D01*
X23602Y31200D01*
X23660Y31156D01*
X23728Y31128D01*
X23750Y31125D01*
Y31348D01*
D02*
G37*
G36*
X34707Y33537D02*
X34393D01*
X34305Y33526D01*
X34223Y33492D01*
X34153Y33438D01*
X34099Y33368D01*
X34065Y33286D01*
X34053Y33198D01*
X34065Y33110D01*
X34099Y33028D01*
X34153Y32958D01*
X34223Y32904D01*
X34305Y32870D01*
X34393Y32859D01*
X34707D01*
X34795Y32870D01*
X34877Y32904D01*
X34947Y32958D01*
X35001Y33028D01*
X35006Y33041D01*
X35056Y33031D01*
Y32862D01*
X36044D01*
Y33045D01*
X39587D01*
X41592Y31040D01*
X41641Y31007D01*
X41700Y30995D01*
X44100D01*
X44617Y30478D01*
X44596Y30453D01*
X44541Y30350D01*
X44507Y30238D01*
X44496Y30122D01*
X44507Y30006D01*
X44541Y29894D01*
X44596Y29791D01*
X44670Y29701D01*
X44760Y29627D01*
X44863Y29572D01*
X44975Y29538D01*
X45091Y29527D01*
X45288D01*
X45404Y29538D01*
X45515Y29572D01*
X45618Y29627D01*
X45709Y29701D01*
X45783Y29791D01*
X45837Y29894D01*
X45871Y30006D01*
X45883Y30122D01*
X45871Y30238D01*
X45837Y30350D01*
X45783Y30453D01*
X45709Y30543D01*
X45618Y30617D01*
X45515Y30672D01*
X45404Y30706D01*
X45288Y30717D01*
X45091D01*
X44975Y30706D01*
X44863Y30672D01*
X44858Y30669D01*
X44272Y31256D01*
X44222Y31289D01*
X44163Y31301D01*
X41763D01*
X39758Y33306D01*
X39709Y33339D01*
X39650Y33351D01*
X36044D01*
Y33534D01*
X35056D01*
Y33365D01*
X35006Y33355D01*
X35001Y33368D01*
X34947Y33438D01*
X34877Y33492D01*
X34795Y33526D01*
X34707Y33537D01*
D02*
G37*
G36*
X50209Y30717D02*
X50012D01*
X49896Y30706D01*
X49785Y30672D01*
X49682Y30617D01*
X49591Y30543D01*
X49517Y30453D01*
X49463Y30350D01*
X49429Y30238D01*
X49417Y30122D01*
X49429Y30006D01*
X49463Y29894D01*
X49517Y29791D01*
X49591Y29701D01*
X49682Y29627D01*
X49785Y29572D01*
X49896Y29538D01*
X50012Y29527D01*
X50209D01*
X50325Y29538D01*
X50437Y29572D01*
X50540Y29627D01*
X50630Y29701D01*
X50704Y29791D01*
X50759Y29894D01*
X50793Y30006D01*
X50804Y30122D01*
X50793Y30238D01*
X50759Y30350D01*
X50704Y30453D01*
X50630Y30543D01*
X50540Y30617D01*
X50437Y30672D01*
X50325Y30706D01*
X50209Y30717D01*
D02*
G37*
G36*
X41887Y28578D02*
X41815Y28568D01*
X41747Y28540D01*
X41689Y28496D01*
X41675Y28476D01*
X41504D01*
X41436Y28463D01*
X41378Y28424D01*
X41278Y28324D01*
X40832D01*
X40818Y28324D01*
X40782D01*
X40768Y28324D01*
X40496D01*
Y27948D01*
Y27572D01*
X40768D01*
X40782Y27572D01*
X40818D01*
X40832Y27572D01*
X41491D01*
Y28032D01*
X41578Y28120D01*
X41675D01*
X41689Y28100D01*
X41747Y28056D01*
X41815Y28028D01*
X41887Y28018D01*
X41959Y28028D01*
X42027Y28056D01*
X42085Y28100D01*
X42129Y28158D01*
X42157Y28226D01*
X42167Y28298D01*
X42157Y28370D01*
X42129Y28438D01*
X42085Y28496D01*
X42027Y28540D01*
X41959Y28568D01*
X41887Y28578D01*
D02*
G37*
G36*
X39800Y27898D02*
X39577D01*
X39580Y27876D01*
X39608Y27808D01*
X39652Y27750D01*
X39710Y27706D01*
X39778Y27678D01*
X39800Y27675D01*
Y27898D01*
D02*
G37*
G36*
X46400D02*
X46177D01*
X46180Y27876D01*
X46208Y27808D01*
X46252Y27750D01*
X46310Y27706D01*
X46378Y27678D01*
X46400Y27675D01*
Y27898D01*
D02*
G37*
G36*
X47418Y28324D02*
X47382D01*
X47368Y28324D01*
X47096D01*
Y27948D01*
Y27572D01*
X47368D01*
X47382Y27572D01*
X47418D01*
X47432Y27572D01*
X48091D01*
Y27749D01*
X48141Y27766D01*
X48152Y27750D01*
X48210Y27706D01*
X48278Y27678D01*
X48350Y27668D01*
X48422Y27678D01*
X48490Y27706D01*
X48548Y27750D01*
X48592Y27808D01*
X48620Y27876D01*
X48630Y27948D01*
X48620Y28020D01*
X48592Y28088D01*
X48548Y28146D01*
X48490Y28190D01*
X48422Y28218D01*
X48350Y28228D01*
X48278Y28218D01*
X48210Y28190D01*
X48152Y28146D01*
X48141Y28130D01*
X48091Y28147D01*
Y28324D01*
X47432D01*
X47418Y28324D01*
D02*
G37*
G36*
X23437Y28630D02*
X23321Y28619D01*
X23210Y28585D01*
X23107Y28530D01*
X23017Y28456D01*
X22943Y28366D01*
X22888Y28263D01*
X22854Y28152D01*
X22842Y28035D01*
X22854Y27919D01*
X22888Y27808D01*
X22943Y27705D01*
X23017Y27615D01*
X23107Y27541D01*
X23210Y27486D01*
X23321Y27452D01*
X23437Y27440D01*
X23553Y27452D01*
X23665Y27486D01*
X23768Y27541D01*
X23858Y27615D01*
X23932Y27705D01*
X23987Y27808D01*
X24021Y27919D01*
X24032Y28035D01*
X24021Y28152D01*
X23987Y28263D01*
X23932Y28366D01*
X23858Y28456D01*
X23768Y28530D01*
X23665Y28585D01*
X23553Y28619D01*
X23437Y28630D01*
D02*
G37*
G36*
X53359D02*
X53243Y28619D01*
X53131Y28585D01*
X53028Y28530D01*
X52938Y28456D01*
X52864Y28366D01*
X52809Y28263D01*
X52775Y28152D01*
X52764Y28035D01*
X52775Y27919D01*
X52809Y27808D01*
X52864Y27705D01*
X52938Y27615D01*
X53028Y27541D01*
X53131Y27486D01*
X53243Y27452D01*
X53359Y27440D01*
X53475Y27452D01*
X53586Y27486D01*
X53689Y27541D01*
X53779Y27615D01*
X53853Y27705D01*
X53908Y27808D01*
X53942Y27919D01*
X53954Y28035D01*
X53942Y28152D01*
X53908Y28263D01*
X53853Y28366D01*
X53779Y28456D01*
X53689Y28530D01*
X53586Y28585D01*
X53475Y28619D01*
X53359Y28630D01*
D02*
G37*
G36*
X39800Y28221D02*
X39778Y28218D01*
X39710Y28190D01*
X39652Y28146D01*
X39608Y28088D01*
X39580Y28020D01*
X39577Y27998D01*
X39800D01*
Y28221D01*
D02*
G37*
G36*
X40396Y28324D02*
X40109D01*
Y28177D01*
X40006D01*
X39990Y28190D01*
X39922Y28218D01*
X39900Y28221D01*
Y27948D01*
Y27675D01*
X39922Y27678D01*
X39990Y27706D01*
X40006Y27719D01*
X40109D01*
Y27572D01*
X40396D01*
Y27948D01*
Y28324D01*
D02*
G37*
G36*
X46996D02*
X46709D01*
Y28177D01*
X46606D01*
X46590Y28190D01*
X46522Y28218D01*
X46500Y28221D01*
Y27948D01*
Y27675D01*
X46522Y27678D01*
X46590Y27706D01*
X46606Y27719D01*
X46709D01*
Y27572D01*
X46996D01*
Y27948D01*
Y28324D01*
D02*
G37*
G36*
X26923Y28948D02*
X26377D01*
X26380Y28926D01*
X26402Y28874D01*
X26382Y28834D01*
X26371Y28824D01*
X26309D01*
Y28498D01*
X26646D01*
Y28448D01*
X26696D01*
Y28072D01*
X26968D01*
X26982Y28072D01*
X27018D01*
X27032Y28072D01*
X27691D01*
Y28192D01*
X27741Y28217D01*
X27780Y28187D01*
X27847Y28159D01*
X27919Y28149D01*
X27992Y28159D01*
X28059Y28187D01*
X28117Y28231D01*
X28161Y28289D01*
X28189Y28356D01*
X28199Y28429D01*
X28189Y28501D01*
X28161Y28569D01*
X28117Y28626D01*
X28059Y28671D01*
X27992Y28699D01*
X27919Y28708D01*
X27847Y28699D01*
X27780Y28671D01*
X27741Y28641D01*
X27691Y28665D01*
Y28824D01*
X27032D01*
X27018Y28824D01*
X26982D01*
X26968Y28824D01*
X26929D01*
X26918Y28834D01*
X26898Y28874D01*
X26920Y28926D01*
X26923Y28948D01*
D02*
G37*
G36*
X46400Y28221D02*
X46378Y28218D01*
X46310Y28190D01*
X46252Y28146D01*
X46208Y28088D01*
X46180Y28020D01*
X46177Y27998D01*
X46400D01*
Y28221D01*
D02*
G37*
G36*
X26596Y28398D02*
X26309D01*
Y28072D01*
X26596D01*
Y28398D01*
D02*
G37*
G36*
X53359Y34930D02*
X53243Y34918D01*
X53131Y34884D01*
X53028Y34829D01*
X52938Y34755D01*
X52864Y34665D01*
X52809Y34562D01*
X52775Y34451D01*
X52764Y34335D01*
X52775Y34219D01*
X52809Y34107D01*
X52864Y34004D01*
X52938Y33914D01*
X53028Y33840D01*
X53131Y33785D01*
X53243Y33751D01*
X53359Y33740D01*
X53475Y33751D01*
X53586Y33785D01*
X53689Y33840D01*
X53779Y33914D01*
X53853Y34004D01*
X53908Y34107D01*
X53942Y34219D01*
X53954Y34335D01*
X53942Y34451D01*
X53908Y34562D01*
X53853Y34665D01*
X53779Y34755D01*
X53689Y34829D01*
X53586Y34884D01*
X53475Y34918D01*
X53359Y34930D01*
D02*
G37*
G36*
X48350Y33998D02*
X48127D01*
X48130Y33976D01*
X48158Y33908D01*
X48202Y33850D01*
X48260Y33806D01*
X48328Y33778D01*
X48350Y33775D01*
Y33998D01*
D02*
G37*
G36*
X31650Y34021D02*
Y33798D01*
X31873D01*
X31870Y33820D01*
X31842Y33888D01*
X31798Y33946D01*
X31740Y33990D01*
X31672Y34018D01*
X31650Y34021D01*
D02*
G37*
G36*
X31873Y33698D02*
X31650D01*
Y33475D01*
X31672Y33478D01*
X31740Y33506D01*
X31798Y33550D01*
X31842Y33608D01*
X31870Y33676D01*
X31873Y33698D01*
D02*
G37*
G36*
X32500Y33771D02*
Y33548D01*
X32723D01*
X32720Y33570D01*
X32692Y33638D01*
X32648Y33696D01*
X32590Y33740D01*
X32522Y33768D01*
X32500Y33771D01*
D02*
G37*
G36*
X23437Y34930D02*
X23321Y34918D01*
X23210Y34884D01*
X23107Y34829D01*
X23017Y34755D01*
X22943Y34665D01*
X22888Y34562D01*
X22854Y34451D01*
X22842Y34335D01*
X22854Y34219D01*
X22888Y34107D01*
X22943Y34004D01*
X23017Y33914D01*
X23107Y33840D01*
X23210Y33785D01*
X23321Y33751D01*
X23437Y33740D01*
X23553Y33751D01*
X23665Y33785D01*
X23768Y33840D01*
X23858Y33914D01*
X23932Y34004D01*
X23987Y34107D01*
X24021Y34219D01*
X24032Y34335D01*
X24021Y34451D01*
X23987Y34562D01*
X23932Y34665D01*
X23858Y34755D01*
X23768Y34829D01*
X23665Y34884D01*
X23553Y34918D01*
X23437Y34930D01*
D02*
G37*
G36*
X41900Y34371D02*
X41878Y34368D01*
X41810Y34340D01*
X41752Y34296D01*
X41708Y34238D01*
X41680Y34170D01*
X41677Y34148D01*
X41900D01*
Y34371D01*
D02*
G37*
G36*
X48996Y34424D02*
X48709D01*
Y34277D01*
X48556D01*
X48540Y34290D01*
X48472Y34318D01*
X48450Y34321D01*
Y34048D01*
Y33775D01*
X48472Y33778D01*
X48540Y33806D01*
X48556Y33819D01*
X48709D01*
Y33672D01*
X48996D01*
Y34048D01*
Y34424D01*
D02*
G37*
G36*
X42496Y34474D02*
X42209D01*
Y34327D01*
X42106D01*
X42090Y34340D01*
X42022Y34368D01*
X42000Y34371D01*
Y34098D01*
Y33825D01*
X42022Y33828D01*
X42090Y33856D01*
X42106Y33869D01*
X42209D01*
Y33722D01*
X42496D01*
Y34098D01*
Y34474D01*
D02*
G37*
G36*
X41900Y34048D02*
X41677D01*
X41680Y34026D01*
X41708Y33958D01*
X41752Y33900D01*
X41810Y33856D01*
X41878Y33828D01*
X41900Y33825D01*
Y34048D01*
D02*
G37*
G36*
X30618Y34124D02*
X30582D01*
X30568Y34124D01*
X29909D01*
Y34004D01*
X29859Y33980D01*
X29820Y34009D01*
X29753Y34037D01*
X29681Y34047D01*
X29608Y34037D01*
X29541Y34009D01*
X29483Y33965D01*
X29439Y33907D01*
X29411Y33840D01*
X29401Y33767D01*
X29411Y33695D01*
X29439Y33628D01*
X29483Y33570D01*
X29541Y33525D01*
X29608Y33497D01*
X29681Y33488D01*
X29753Y33497D01*
X29820Y33525D01*
X29859Y33555D01*
X29909Y33531D01*
Y33372D01*
X30568D01*
X30582Y33372D01*
X30618D01*
X30632Y33372D01*
X30904D01*
Y33748D01*
Y34124D01*
X30632D01*
X30618Y34124D01*
D02*
G37*
G36*
X48350Y34321D02*
X48328Y34318D01*
X48260Y34290D01*
X48202Y34246D01*
X48158Y34188D01*
X48130Y34120D01*
X48127Y34098D01*
X48350D01*
Y34321D01*
D02*
G37*
G36*
X49418Y34424D02*
X49382D01*
X49368Y34424D01*
X49096D01*
Y34048D01*
Y33672D01*
X49368D01*
X49382Y33672D01*
X49418D01*
X49432Y33672D01*
X49805D01*
X49881Y33597D01*
Y32670D01*
X49785Y32640D01*
X49682Y32585D01*
X49591Y32511D01*
X49517Y32421D01*
X49463Y32318D01*
X49429Y32207D01*
X49417Y32091D01*
X49429Y31974D01*
X49463Y31863D01*
X49517Y31760D01*
X49591Y31670D01*
X49682Y31596D01*
X49785Y31541D01*
X49896Y31507D01*
X50012Y31496D01*
X50209D01*
X50325Y31507D01*
X50437Y31541D01*
X50540Y31596D01*
X50630Y31670D01*
X50704Y31760D01*
X50759Y31863D01*
X50793Y31974D01*
X50804Y32091D01*
X50793Y32207D01*
X50759Y32318D01*
X50704Y32421D01*
X50630Y32511D01*
X50540Y32585D01*
X50437Y32640D01*
X50340Y32670D01*
Y33692D01*
X50323Y33780D01*
X50273Y33854D01*
X50091Y34036D01*
Y34424D01*
X49432D01*
X49418Y34424D01*
D02*
G37*
G36*
X27100Y33301D02*
X26150D01*
X26091Y33289D01*
X26042Y33256D01*
X25792Y33006D01*
X25759Y32957D01*
X25747Y32898D01*
Y31734D01*
X25759Y31676D01*
X25792Y31626D01*
X26203Y31215D01*
X26175Y31178D01*
X26126Y31058D01*
X26109Y30929D01*
X26126Y30800D01*
X26175Y30680D01*
X26255Y30577D01*
X26358Y30498D01*
X26478Y30448D01*
X26607Y30431D01*
X26804D01*
X26932Y30448D01*
X27053Y30498D01*
X27156Y30577D01*
X27235Y30680D01*
X27285Y30800D01*
X27301Y30929D01*
X27285Y31058D01*
X27235Y31178D01*
X27156Y31281D01*
X27053Y31360D01*
X26932Y31410D01*
X26804Y31427D01*
X26607D01*
X26478Y31410D01*
X26451Y31399D01*
X26053Y31798D01*
Y32835D01*
X26213Y32995D01*
X27037D01*
X28385Y31647D01*
X28365Y31601D01*
X27706D01*
X27207Y32100D01*
X27235Y32137D01*
X27285Y32257D01*
X27301Y32386D01*
X27285Y32515D01*
X27235Y32635D01*
X27156Y32738D01*
X27053Y32817D01*
X26932Y32867D01*
X26804Y32884D01*
X26607D01*
X26478Y32867D01*
X26358Y32817D01*
X26255Y32738D01*
X26175Y32635D01*
X26126Y32515D01*
X26109Y32386D01*
X26126Y32257D01*
X26175Y32137D01*
X26255Y32034D01*
X26358Y31955D01*
X26478Y31905D01*
X26607Y31888D01*
X26804D01*
X26932Y31905D01*
X26959Y31916D01*
X27535Y31340D01*
X27584Y31307D01*
X27643Y31295D01*
X30257D01*
X30282Y31245D01*
X30231Y31178D01*
X30181Y31058D01*
X30164Y30929D01*
X30181Y30800D01*
X30231Y30680D01*
X30310Y30577D01*
X30413Y30498D01*
X30533Y30448D01*
X30662Y30431D01*
X30859D01*
X30988Y30448D01*
X31108Y30498D01*
X31211Y30577D01*
X31290Y30680D01*
X31330Y30776D01*
X31456D01*
X33142Y29090D01*
X33191Y29057D01*
X33250Y29045D01*
X34092D01*
X34099Y29028D01*
X34153Y28958D01*
X34223Y28904D01*
X34305Y28870D01*
X34393Y28859D01*
X34707D01*
X34795Y28870D01*
X34877Y28904D01*
X34947Y28958D01*
X35001Y29028D01*
X35023Y29081D01*
X35077D01*
X35099Y29028D01*
X35153Y28958D01*
X35223Y28904D01*
X35305Y28870D01*
X35393Y28859D01*
X35500D01*
Y29198D01*
Y29537D01*
X35393D01*
X35305Y29526D01*
X35223Y29492D01*
X35153Y29438D01*
X35099Y29368D01*
X35077Y29315D01*
X35023D01*
X35001Y29368D01*
X34947Y29438D01*
X34877Y29492D01*
X34795Y29526D01*
X34707Y29537D01*
X34393D01*
X34305Y29526D01*
X34223Y29492D01*
X34153Y29438D01*
X34099Y29368D01*
X34092Y29351D01*
X33313D01*
X31627Y31037D01*
X31577Y31070D01*
X31519Y31082D01*
X31330D01*
X31290Y31178D01*
X31219Y31270D01*
X31236Y31320D01*
X31912D01*
X33142Y30090D01*
X33191Y30057D01*
X33250Y30045D01*
X34092D01*
X34099Y30028D01*
X34153Y29958D01*
X34223Y29904D01*
X34305Y29870D01*
X34393Y29859D01*
X34707D01*
X34795Y29870D01*
X34877Y29904D01*
X34947Y29958D01*
X35001Y30028D01*
X35023Y30081D01*
X35077D01*
X35099Y30028D01*
X35153Y29958D01*
X35223Y29904D01*
X35305Y29870D01*
X35393Y29859D01*
X35707D01*
X35795Y29870D01*
X35877Y29904D01*
X35934Y29948D01*
X36197Y29685D01*
Y29011D01*
X35561Y28375D01*
X32732D01*
X32715Y28425D01*
X32748Y28450D01*
X32792Y28508D01*
X32820Y28576D01*
X32823Y28598D01*
X32550D01*
Y28648D01*
X32500D01*
Y28921D01*
X32478Y28918D01*
X32410Y28890D01*
X32394Y28877D01*
X32291D01*
Y29024D01*
X32004D01*
Y28648D01*
X31904D01*
Y29024D01*
X31618D01*
Y29024D01*
X31582D01*
Y29024D01*
X31086D01*
X30913Y29197D01*
Y29336D01*
X30988Y29346D01*
X31108Y29396D01*
X31211Y29475D01*
X31290Y29578D01*
X31340Y29698D01*
X31357Y29827D01*
X31340Y29956D01*
X31290Y30076D01*
X31211Y30179D01*
X31108Y30258D01*
X30988Y30308D01*
X30859Y30325D01*
X30662D01*
X30533Y30308D01*
X30413Y30258D01*
X30310Y30179D01*
X30231Y30076D01*
X30181Y29956D01*
X30164Y29827D01*
X30181Y29698D01*
X30231Y29578D01*
X30310Y29475D01*
X30413Y29396D01*
X30533Y29346D01*
X30607Y29336D01*
Y29133D01*
X30619Y29075D01*
X30652Y29025D01*
X30909Y28768D01*
Y28375D01*
X29539D01*
X27979Y29935D01*
X27930Y29968D01*
X27871Y29980D01*
X27275D01*
X27235Y30076D01*
X27156Y30179D01*
X27053Y30258D01*
X26932Y30308D01*
X26804Y30325D01*
X26607D01*
X26478Y30308D01*
X26358Y30258D01*
X26255Y30179D01*
X26175Y30076D01*
X26126Y29956D01*
X26109Y29827D01*
X26126Y29698D01*
X26175Y29578D01*
X26255Y29475D01*
X26358Y29396D01*
X26478Y29346D01*
X26607Y29329D01*
X26804D01*
X26932Y29346D01*
X27053Y29396D01*
X27156Y29475D01*
X27235Y29578D01*
X27275Y29674D01*
X27808D01*
X29367Y28114D01*
X29417Y28081D01*
X29476Y28070D01*
X35624D01*
X35683Y28081D01*
X35733Y28114D01*
X36458Y28840D01*
X36491Y28890D01*
X36503Y28948D01*
Y29748D01*
X36491Y29807D01*
X36458Y29856D01*
X36036Y30278D01*
X36035Y30286D01*
X36001Y30368D01*
X35947Y30438D01*
X35877Y30492D01*
X35795Y30526D01*
X35707Y30537D01*
X35393D01*
X35305Y30526D01*
X35223Y30492D01*
X35153Y30438D01*
X35099Y30368D01*
X35077Y30315D01*
X35023D01*
X35001Y30368D01*
X34947Y30438D01*
X34877Y30492D01*
X34795Y30526D01*
X34707Y30537D01*
X34393D01*
X34305Y30526D01*
X34223Y30492D01*
X34153Y30438D01*
X34099Y30368D01*
X34092Y30351D01*
X33313D01*
X32665Y30999D01*
X32685Y31045D01*
X34092D01*
X34099Y31028D01*
X34153Y30958D01*
X34223Y30904D01*
X34305Y30870D01*
X34393Y30859D01*
X34707D01*
X34795Y30870D01*
X34877Y30904D01*
X34947Y30958D01*
X35001Y31028D01*
X35023Y31081D01*
X35077D01*
X35099Y31028D01*
X35153Y30958D01*
X35223Y30904D01*
X35305Y30870D01*
X35393Y30859D01*
X35707D01*
X35795Y30870D01*
X35877Y30904D01*
X35947Y30958D01*
X36001Y31028D01*
X36008Y31045D01*
X37554D01*
X38121Y30478D01*
X38100Y30453D01*
X38045Y30350D01*
X38011Y30238D01*
X38000Y30122D01*
X38011Y30006D01*
X38045Y29894D01*
X38100Y29791D01*
X38174Y29701D01*
X38264Y29627D01*
X38367Y29572D01*
X38479Y29538D01*
X38595Y29527D01*
X38792D01*
X38908Y29538D01*
X39019Y29572D01*
X39122Y29627D01*
X39212Y29701D01*
X39286Y29791D01*
X39341Y29894D01*
X39375Y30006D01*
X39387Y30122D01*
X39375Y30238D01*
X39341Y30350D01*
X39286Y30453D01*
X39212Y30543D01*
X39122Y30617D01*
X39019Y30672D01*
X38908Y30706D01*
X38792Y30717D01*
X38595D01*
X38479Y30706D01*
X38367Y30672D01*
X38362Y30669D01*
X37725Y31306D01*
X37676Y31339D01*
X37617Y31351D01*
X36008D01*
X36001Y31368D01*
X35947Y31438D01*
X35877Y31492D01*
X35795Y31526D01*
X35707Y31537D01*
X35393D01*
X35305Y31526D01*
X35223Y31492D01*
X35153Y31438D01*
X35099Y31368D01*
X35077Y31315D01*
X35023D01*
X35001Y31368D01*
X34947Y31438D01*
X34877Y31492D01*
X34795Y31526D01*
X34707Y31537D01*
X34393D01*
X34305Y31526D01*
X34223Y31492D01*
X34153Y31438D01*
X34099Y31368D01*
X34092Y31351D01*
X32596D01*
X32166Y31781D01*
X32117Y31814D01*
X32058Y31826D01*
X28639D01*
X27208Y33256D01*
X27159Y33289D01*
X27100Y33301D01*
D02*
G37*
G36*
X24350Y31739D02*
X24024D01*
Y31632D01*
X23951D01*
X23940Y31640D01*
X23872Y31668D01*
X23850Y31671D01*
Y31398D01*
Y31125D01*
X23872Y31128D01*
X23940Y31156D01*
X23962Y31173D01*
X24024D01*
Y31080D01*
X24024Y31066D01*
Y31030D01*
X24024Y31016D01*
Y30357D01*
X24776D01*
X24776Y30357D01*
Y30357D01*
X24824Y30355D01*
X24865Y30349D01*
X24937Y30359D01*
X25005Y30387D01*
X25063Y30431D01*
X25107Y30489D01*
X25135Y30556D01*
X25145Y30629D01*
X25135Y30701D01*
X25107Y30769D01*
X25063Y30826D01*
X25005Y30871D01*
X24937Y30899D01*
X24865Y30908D01*
X24826Y30903D01*
X24776Y30942D01*
Y31016D01*
X24776Y31030D01*
Y31066D01*
X24776Y31080D01*
Y31352D01*
X24400D01*
Y31402D01*
X24350D01*
Y31739D01*
D02*
G37*
G36*
X38792Y32686D02*
X38595D01*
X38479Y32674D01*
X38367Y32640D01*
X38264Y32585D01*
X38174Y32511D01*
X38100Y32421D01*
X38045Y32318D01*
X38011Y32207D01*
X38000Y32091D01*
X38011Y31974D01*
X38045Y31863D01*
X38100Y31760D01*
X38174Y31670D01*
X38264Y31596D01*
X38367Y31541D01*
X38479Y31507D01*
X38595Y31496D01*
X38792D01*
X38908Y31507D01*
X39019Y31541D01*
X39122Y31596D01*
X39212Y31670D01*
X39286Y31760D01*
X39341Y31863D01*
X39375Y31974D01*
X39387Y32091D01*
X39375Y32207D01*
X39341Y32318D01*
X39286Y32421D01*
X39212Y32511D01*
X39122Y32585D01*
X39019Y32640D01*
X38908Y32674D01*
X38792Y32686D01*
D02*
G37*
G36*
X42918Y34474D02*
X42882D01*
X42868Y34474D01*
X42596D01*
Y34098D01*
Y33722D01*
X42868D01*
X42882Y33722D01*
X42918D01*
X42932Y33722D01*
X43305D01*
X43385Y33643D01*
Y32670D01*
X43288Y32640D01*
X43186Y32585D01*
X43095Y32511D01*
X43021Y32421D01*
X42966Y32318D01*
X42933Y32207D01*
X42921Y32091D01*
X42933Y31974D01*
X42966Y31863D01*
X43021Y31760D01*
X43095Y31670D01*
X43186Y31596D01*
X43288Y31541D01*
X43400Y31507D01*
X43516Y31496D01*
X43713D01*
X43829Y31507D01*
X43941Y31541D01*
X44044Y31596D01*
X44134Y31670D01*
X44208Y31760D01*
X44263Y31863D01*
X44297Y31974D01*
X44308Y32091D01*
X44297Y32207D01*
X44263Y32318D01*
X44208Y32421D01*
X44134Y32511D01*
X44044Y32585D01*
X43941Y32640D01*
X43844Y32670D01*
Y33738D01*
X43827Y33826D01*
X43777Y33900D01*
X43591Y34086D01*
Y34474D01*
X42932D01*
X42918Y34474D01*
D02*
G37*
G36*
X45288Y32686D02*
X45091D01*
X44975Y32674D01*
X44863Y32640D01*
X44760Y32585D01*
X44670Y32511D01*
X44596Y32421D01*
X44541Y32318D01*
X44507Y32207D01*
X44496Y32091D01*
X44507Y31974D01*
X44541Y31863D01*
X44596Y31760D01*
X44670Y31670D01*
X44760Y31596D01*
X44863Y31541D01*
X44975Y31507D01*
X45091Y31496D01*
X45288D01*
X45404Y31507D01*
X45515Y31541D01*
X45618Y31596D01*
X45709Y31670D01*
X45783Y31760D01*
X45837Y31863D01*
X45871Y31974D01*
X45883Y32091D01*
X45871Y32207D01*
X45837Y32318D01*
X45783Y32421D01*
X45709Y32511D01*
X45618Y32585D01*
X45515Y32640D01*
X45404Y32674D01*
X45288Y32686D01*
D02*
G37*
G36*
X32723Y33448D02*
X32500D01*
Y33225D01*
X32522Y33228D01*
X32590Y33256D01*
X32648Y33300D01*
X32692Y33358D01*
X32720Y33426D01*
X32723Y33448D01*
D02*
G37*
G36*
X32400Y33771D02*
X32378Y33768D01*
X32310Y33740D01*
X32274Y33712D01*
X32262Y33710D01*
X32188Y33660D01*
X31866Y33339D01*
X31750D01*
Y33002D01*
X31700D01*
Y32952D01*
X31324D01*
X31324Y32672D01*
X31286Y32644D01*
X31281Y32646D01*
X31211Y32738D01*
X31108Y32817D01*
X30988Y32867D01*
X30859Y32884D01*
X30662D01*
X30533Y32867D01*
X30413Y32817D01*
X30310Y32738D01*
X30231Y32635D01*
X30181Y32515D01*
X30164Y32386D01*
X30181Y32257D01*
X30231Y32137D01*
X30310Y32034D01*
X30413Y31955D01*
X30533Y31905D01*
X30662Y31888D01*
X30859D01*
X30988Y31905D01*
X31108Y31955D01*
X31211Y32034D01*
X31274Y32117D01*
X31324Y32100D01*
Y31957D01*
X32076D01*
Y32145D01*
X32218D01*
X32252Y32100D01*
X32310Y32056D01*
X32378Y32028D01*
X32450Y32018D01*
X32522Y32028D01*
X32590Y32056D01*
X32648Y32100D01*
X32692Y32158D01*
X32720Y32226D01*
X32730Y32298D01*
X32720Y32370D01*
X32692Y32438D01*
X32648Y32496D01*
X32590Y32540D01*
X32522Y32568D01*
X32450Y32578D01*
X32378Y32568D01*
X32310Y32540D01*
X32252Y32496D01*
X32218Y32451D01*
X32076D01*
Y32616D01*
X32076Y32630D01*
Y32666D01*
X32076Y32680D01*
Y32899D01*
X32400Y33224D01*
Y33498D01*
Y33771D01*
D02*
G37*
G36*
X31004Y34124D02*
Y33748D01*
Y33372D01*
X31247Y33372D01*
X31261D01*
X31276Y33368D01*
X31307Y33355D01*
X31307Y33355D01*
X31307Y33355D01*
X31320Y33324D01*
X31324Y33309D01*
X31324Y33295D01*
Y33052D01*
X31650D01*
Y33339D01*
X31368Y33339D01*
X31354D01*
X31339Y33343D01*
X31308Y33356D01*
X31308Y33356D01*
X31308Y33356D01*
X31295Y33387D01*
X31291Y33402D01*
X31291Y33416D01*
Y33519D01*
X31444D01*
X31460Y33506D01*
X31528Y33478D01*
X31550Y33475D01*
Y33748D01*
Y34021D01*
X31528Y34018D01*
X31460Y33990D01*
X31444Y33977D01*
X31291D01*
Y34124D01*
X31004D01*
D02*
G37*
G36*
X34500Y32148D02*
X34060D01*
X34065Y32110D01*
X34099Y32028D01*
X34153Y31958D01*
X34223Y31904D01*
X34305Y31870D01*
X34393Y31859D01*
X34500D01*
Y32148D01*
D02*
G37*
G36*
Y32537D02*
X34393D01*
X34305Y32526D01*
X34223Y32492D01*
X34153Y32438D01*
X34099Y32368D01*
X34065Y32286D01*
X34060Y32248D01*
X34500D01*
Y32537D01*
D02*
G37*
G36*
X35707D02*
X35393D01*
X35305Y32526D01*
X35223Y32492D01*
X35153Y32438D01*
X35099Y32368D01*
X35077Y32315D01*
X35023D01*
X35001Y32368D01*
X34947Y32438D01*
X34877Y32492D01*
X34795Y32526D01*
X34707Y32537D01*
X34600D01*
Y32198D01*
Y31859D01*
X34707D01*
X34795Y31870D01*
X34877Y31904D01*
X34947Y31958D01*
X35001Y32028D01*
X35023Y32081D01*
X35077D01*
X35099Y32028D01*
X35153Y31958D01*
X35223Y31904D01*
X35305Y31870D01*
X35393Y31859D01*
X35707D01*
X35795Y31870D01*
X35877Y31904D01*
X35947Y31958D01*
X36001Y32028D01*
X36035Y32110D01*
X36047Y32198D01*
X36035Y32286D01*
X36001Y32368D01*
X35947Y32438D01*
X35877Y32492D01*
X35795Y32526D01*
X35707Y32537D01*
D02*
G37*
%LPD*%
G36*
X54100Y42872D02*
Y35172D01*
X22700D01*
Y42922D01*
X54050D01*
X54100Y42872D01*
D02*
G37*
%LPC*%
G36*
X26700Y37145D02*
Y36922D01*
X26923D01*
X26920Y36944D01*
X26892Y37012D01*
X26848Y37070D01*
X26790Y37114D01*
X26722Y37142D01*
X26700Y37145D01*
D02*
G37*
G36*
X35707Y37411D02*
X35600D01*
Y37122D01*
X36040D01*
X36035Y37160D01*
X36001Y37242D01*
X35947Y37312D01*
X35877Y37366D01*
X35795Y37400D01*
X35707Y37411D01*
D02*
G37*
G36*
X26600Y37145D02*
X26578Y37142D01*
X26510Y37114D01*
X26452Y37070D01*
X26408Y37012D01*
X26380Y36944D01*
X26377Y36922D01*
X26600D01*
Y37145D01*
D02*
G37*
G36*
X32600Y36795D02*
Y36572D01*
X32823D01*
X32820Y36594D01*
X32792Y36662D01*
X32748Y36720D01*
X32690Y36764D01*
X32622Y36792D01*
X32600Y36795D01*
D02*
G37*
G36*
X36040Y37022D02*
X35600D01*
Y36733D01*
X35707D01*
X35795Y36744D01*
X35877Y36778D01*
X35947Y36832D01*
X36001Y36902D01*
X36035Y36984D01*
X36040Y37022D01*
D02*
G37*
G36*
X43713Y38591D02*
X43516D01*
X43400Y38580D01*
X43288Y38546D01*
X43186Y38491D01*
X43095Y38417D01*
X43021Y38327D01*
X42966Y38224D01*
X42933Y38112D01*
X42921Y37996D01*
X42933Y37880D01*
X42966Y37768D01*
X43021Y37666D01*
X43095Y37575D01*
X43186Y37501D01*
X43288Y37446D01*
X43400Y37413D01*
X43516Y37401D01*
X43713D01*
X43829Y37413D01*
X43941Y37446D01*
X44044Y37501D01*
X44134Y37575D01*
X44208Y37666D01*
X44263Y37768D01*
X44297Y37880D01*
X44308Y37996D01*
X44297Y38112D01*
X44263Y38224D01*
X44208Y38327D01*
X44134Y38417D01*
X44044Y38491D01*
X43941Y38546D01*
X43829Y38580D01*
X43713Y38591D01*
D02*
G37*
G36*
X23750Y39545D02*
X23728Y39542D01*
X23660Y39514D01*
X23602Y39470D01*
X23558Y39412D01*
X23530Y39344D01*
X23527Y39322D01*
X23750D01*
Y39545D01*
D02*
G37*
G36*
X24776Y39613D02*
X24450D01*
Y39326D01*
X24776D01*
Y39613D01*
D02*
G37*
G36*
X23750Y39222D02*
X23527D01*
X23530Y39200D01*
X23558Y39132D01*
X23602Y39074D01*
X23660Y39030D01*
X23728Y39002D01*
X23750Y38999D01*
Y39222D01*
D02*
G37*
G36*
X34707Y41411D02*
X34393D01*
X34305Y41400D01*
X34223Y41366D01*
X34153Y41312D01*
X34099Y41242D01*
X34065Y41160D01*
X34053Y41072D01*
X34065Y40984D01*
X34099Y40902D01*
X34153Y40832D01*
X34223Y40778D01*
X34305Y40744D01*
X34393Y40733D01*
X34707D01*
X34795Y40744D01*
X34877Y40778D01*
X34947Y40832D01*
X35001Y40902D01*
X35006Y40915D01*
X35056Y40905D01*
Y40736D01*
X36044D01*
Y40919D01*
X39587D01*
X41592Y38914D01*
X41641Y38881D01*
X41700Y38869D01*
X44100D01*
X44617Y38352D01*
X44596Y38327D01*
X44541Y38224D01*
X44507Y38112D01*
X44496Y37996D01*
X44507Y37880D01*
X44541Y37768D01*
X44596Y37666D01*
X44670Y37575D01*
X44760Y37501D01*
X44863Y37446D01*
X44975Y37413D01*
X45091Y37401D01*
X45288D01*
X45404Y37413D01*
X45515Y37446D01*
X45618Y37501D01*
X45709Y37575D01*
X45783Y37666D01*
X45837Y37768D01*
X45871Y37880D01*
X45883Y37996D01*
X45871Y38112D01*
X45837Y38224D01*
X45783Y38327D01*
X45709Y38417D01*
X45618Y38491D01*
X45515Y38546D01*
X45404Y38580D01*
X45288Y38591D01*
X45091D01*
X44975Y38580D01*
X44863Y38546D01*
X44858Y38543D01*
X44272Y39130D01*
X44222Y39163D01*
X44163Y39175D01*
X41763D01*
X39758Y41180D01*
X39709Y41213D01*
X39650Y41225D01*
X36044D01*
Y41408D01*
X35056D01*
Y41239D01*
X35006Y41229D01*
X35001Y41242D01*
X34947Y41312D01*
X34877Y41366D01*
X34795Y41400D01*
X34707Y41411D01*
D02*
G37*
G36*
X50209Y38591D02*
X50012D01*
X49896Y38580D01*
X49785Y38546D01*
X49682Y38491D01*
X49591Y38417D01*
X49517Y38327D01*
X49463Y38224D01*
X49429Y38112D01*
X49417Y37996D01*
X49429Y37880D01*
X49463Y37768D01*
X49517Y37666D01*
X49591Y37575D01*
X49682Y37501D01*
X49785Y37446D01*
X49896Y37413D01*
X50012Y37401D01*
X50209D01*
X50325Y37413D01*
X50437Y37446D01*
X50540Y37501D01*
X50630Y37575D01*
X50704Y37666D01*
X50759Y37768D01*
X50793Y37880D01*
X50804Y37996D01*
X50793Y38112D01*
X50759Y38224D01*
X50704Y38327D01*
X50630Y38417D01*
X50540Y38491D01*
X50437Y38546D01*
X50325Y38580D01*
X50209Y38591D01*
D02*
G37*
G36*
X41887Y36452D02*
X41815Y36442D01*
X41747Y36414D01*
X41689Y36370D01*
X41675Y36350D01*
X41504D01*
X41436Y36337D01*
X41378Y36298D01*
X41278Y36198D01*
X40832D01*
X40818Y36198D01*
X40782D01*
X40768Y36198D01*
X40496D01*
Y35822D01*
Y35446D01*
X40768D01*
X40782Y35446D01*
X40818D01*
X40832Y35446D01*
X41491D01*
Y35906D01*
X41578Y35994D01*
X41675D01*
X41689Y35974D01*
X41747Y35930D01*
X41815Y35902D01*
X41887Y35892D01*
X41959Y35902D01*
X42027Y35930D01*
X42085Y35974D01*
X42129Y36032D01*
X42157Y36100D01*
X42167Y36172D01*
X42157Y36244D01*
X42129Y36312D01*
X42085Y36370D01*
X42027Y36414D01*
X41959Y36442D01*
X41887Y36452D01*
D02*
G37*
G36*
X39800Y35772D02*
X39577D01*
X39580Y35750D01*
X39608Y35682D01*
X39652Y35624D01*
X39710Y35580D01*
X39778Y35552D01*
X39800Y35549D01*
Y35772D01*
D02*
G37*
G36*
X46400D02*
X46177D01*
X46180Y35750D01*
X46208Y35682D01*
X46252Y35624D01*
X46310Y35580D01*
X46378Y35552D01*
X46400Y35549D01*
Y35772D01*
D02*
G37*
G36*
X47418Y36198D02*
X47382D01*
X47368Y36198D01*
X47096D01*
Y35822D01*
Y35446D01*
X47368D01*
X47382Y35446D01*
X47418D01*
X47432Y35446D01*
X48091D01*
Y35623D01*
X48141Y35640D01*
X48152Y35624D01*
X48210Y35580D01*
X48278Y35552D01*
X48350Y35542D01*
X48422Y35552D01*
X48490Y35580D01*
X48548Y35624D01*
X48592Y35682D01*
X48620Y35750D01*
X48630Y35822D01*
X48620Y35894D01*
X48592Y35962D01*
X48548Y36020D01*
X48490Y36064D01*
X48422Y36092D01*
X48350Y36102D01*
X48278Y36092D01*
X48210Y36064D01*
X48152Y36020D01*
X48141Y36004D01*
X48091Y36021D01*
Y36198D01*
X47432D01*
X47418Y36198D01*
D02*
G37*
G36*
X23437Y36504D02*
X23321Y36493D01*
X23210Y36459D01*
X23107Y36404D01*
X23017Y36330D01*
X22943Y36240D01*
X22888Y36137D01*
X22854Y36026D01*
X22842Y35909D01*
X22854Y35793D01*
X22888Y35682D01*
X22943Y35579D01*
X23017Y35489D01*
X23107Y35415D01*
X23210Y35360D01*
X23321Y35326D01*
X23437Y35314D01*
X23553Y35326D01*
X23665Y35360D01*
X23768Y35415D01*
X23858Y35489D01*
X23932Y35579D01*
X23987Y35682D01*
X24021Y35793D01*
X24032Y35909D01*
X24021Y36026D01*
X23987Y36137D01*
X23932Y36240D01*
X23858Y36330D01*
X23768Y36404D01*
X23665Y36459D01*
X23553Y36493D01*
X23437Y36504D01*
D02*
G37*
G36*
X53359D02*
X53243Y36493D01*
X53131Y36459D01*
X53028Y36404D01*
X52938Y36330D01*
X52864Y36240D01*
X52809Y36137D01*
X52775Y36026D01*
X52764Y35909D01*
X52775Y35793D01*
X52809Y35682D01*
X52864Y35579D01*
X52938Y35489D01*
X53028Y35415D01*
X53131Y35360D01*
X53243Y35326D01*
X53359Y35314D01*
X53475Y35326D01*
X53586Y35360D01*
X53689Y35415D01*
X53779Y35489D01*
X53853Y35579D01*
X53908Y35682D01*
X53942Y35793D01*
X53954Y35909D01*
X53942Y36026D01*
X53908Y36137D01*
X53853Y36240D01*
X53779Y36330D01*
X53689Y36404D01*
X53586Y36459D01*
X53475Y36493D01*
X53359Y36504D01*
D02*
G37*
G36*
X39800Y36095D02*
X39778Y36092D01*
X39710Y36064D01*
X39652Y36020D01*
X39608Y35962D01*
X39580Y35894D01*
X39577Y35872D01*
X39800D01*
Y36095D01*
D02*
G37*
G36*
X40396Y36198D02*
X40109D01*
Y36051D01*
X40006D01*
X39990Y36064D01*
X39922Y36092D01*
X39900Y36095D01*
Y35822D01*
Y35549D01*
X39922Y35552D01*
X39990Y35580D01*
X40006Y35593D01*
X40109D01*
Y35446D01*
X40396D01*
Y35822D01*
Y36198D01*
D02*
G37*
G36*
X46996D02*
X46709D01*
Y36051D01*
X46606D01*
X46590Y36064D01*
X46522Y36092D01*
X46500Y36095D01*
Y35822D01*
Y35549D01*
X46522Y35552D01*
X46590Y35580D01*
X46606Y35593D01*
X46709D01*
Y35446D01*
X46996D01*
Y35822D01*
Y36198D01*
D02*
G37*
G36*
X26923Y36822D02*
X26377D01*
X26380Y36800D01*
X26402Y36748D01*
X26382Y36708D01*
X26371Y36698D01*
X26309D01*
Y36372D01*
X26646D01*
Y36322D01*
X26696D01*
Y35946D01*
X26968D01*
X26982Y35946D01*
X27018D01*
X27032Y35946D01*
X27691D01*
Y36066D01*
X27741Y36091D01*
X27780Y36061D01*
X27847Y36033D01*
X27919Y36023D01*
X27992Y36033D01*
X28059Y36061D01*
X28117Y36105D01*
X28161Y36163D01*
X28189Y36230D01*
X28199Y36303D01*
X28189Y36375D01*
X28161Y36443D01*
X28117Y36500D01*
X28059Y36545D01*
X27992Y36573D01*
X27919Y36582D01*
X27847Y36573D01*
X27780Y36545D01*
X27741Y36515D01*
X27691Y36539D01*
Y36698D01*
X27032D01*
X27018Y36698D01*
X26982D01*
X26968Y36698D01*
X26929D01*
X26918Y36708D01*
X26898Y36748D01*
X26920Y36800D01*
X26923Y36822D01*
D02*
G37*
G36*
X46400Y36095D02*
X46378Y36092D01*
X46310Y36064D01*
X46252Y36020D01*
X46208Y35962D01*
X46180Y35894D01*
X46177Y35872D01*
X46400D01*
Y36095D01*
D02*
G37*
G36*
X26596Y36272D02*
X26309D01*
Y35946D01*
X26596D01*
Y36272D01*
D02*
G37*
G36*
X53359Y42804D02*
X53243Y42792D01*
X53131Y42758D01*
X53028Y42703D01*
X52938Y42629D01*
X52864Y42539D01*
X52809Y42436D01*
X52775Y42325D01*
X52764Y42209D01*
X52775Y42093D01*
X52809Y41981D01*
X52864Y41878D01*
X52938Y41788D01*
X53028Y41714D01*
X53131Y41659D01*
X53243Y41625D01*
X53359Y41614D01*
X53475Y41625D01*
X53586Y41659D01*
X53689Y41714D01*
X53779Y41788D01*
X53853Y41878D01*
X53908Y41981D01*
X53942Y42093D01*
X53954Y42209D01*
X53942Y42325D01*
X53908Y42436D01*
X53853Y42539D01*
X53779Y42629D01*
X53689Y42703D01*
X53586Y42758D01*
X53475Y42792D01*
X53359Y42804D01*
D02*
G37*
G36*
X48350Y41872D02*
X48127D01*
X48130Y41850D01*
X48158Y41782D01*
X48202Y41724D01*
X48260Y41680D01*
X48328Y41652D01*
X48350Y41649D01*
Y41872D01*
D02*
G37*
G36*
X31650Y41895D02*
Y41672D01*
X31873D01*
X31870Y41694D01*
X31842Y41762D01*
X31798Y41820D01*
X31740Y41864D01*
X31672Y41892D01*
X31650Y41895D01*
D02*
G37*
G36*
X31873Y41572D02*
X31650D01*
Y41349D01*
X31672Y41352D01*
X31740Y41380D01*
X31798Y41424D01*
X31842Y41482D01*
X31870Y41550D01*
X31873Y41572D01*
D02*
G37*
G36*
X32500Y41645D02*
Y41422D01*
X32723D01*
X32720Y41444D01*
X32692Y41512D01*
X32648Y41570D01*
X32590Y41614D01*
X32522Y41642D01*
X32500Y41645D01*
D02*
G37*
G36*
X23437Y42804D02*
X23321Y42792D01*
X23210Y42758D01*
X23107Y42703D01*
X23017Y42629D01*
X22943Y42539D01*
X22888Y42436D01*
X22854Y42325D01*
X22842Y42209D01*
X22854Y42093D01*
X22888Y41981D01*
X22943Y41878D01*
X23017Y41788D01*
X23107Y41714D01*
X23210Y41659D01*
X23321Y41625D01*
X23437Y41614D01*
X23553Y41625D01*
X23665Y41659D01*
X23768Y41714D01*
X23858Y41788D01*
X23932Y41878D01*
X23987Y41981D01*
X24021Y42093D01*
X24032Y42209D01*
X24021Y42325D01*
X23987Y42436D01*
X23932Y42539D01*
X23858Y42629D01*
X23768Y42703D01*
X23665Y42758D01*
X23553Y42792D01*
X23437Y42804D01*
D02*
G37*
G36*
X41900Y42245D02*
X41878Y42242D01*
X41810Y42214D01*
X41752Y42170D01*
X41708Y42112D01*
X41680Y42044D01*
X41677Y42022D01*
X41900D01*
Y42245D01*
D02*
G37*
G36*
X48996Y42298D02*
X48709D01*
Y42151D01*
X48556D01*
X48540Y42164D01*
X48472Y42192D01*
X48450Y42195D01*
Y41922D01*
Y41649D01*
X48472Y41652D01*
X48540Y41680D01*
X48556Y41693D01*
X48709D01*
Y41546D01*
X48996D01*
Y41922D01*
Y42298D01*
D02*
G37*
G36*
X42496Y42348D02*
X42209D01*
Y42201D01*
X42106D01*
X42090Y42214D01*
X42022Y42242D01*
X42000Y42245D01*
Y41972D01*
Y41699D01*
X42022Y41702D01*
X42090Y41730D01*
X42106Y41743D01*
X42209D01*
Y41596D01*
X42496D01*
Y41972D01*
Y42348D01*
D02*
G37*
G36*
X41900Y41922D02*
X41677D01*
X41680Y41900D01*
X41708Y41832D01*
X41752Y41774D01*
X41810Y41730D01*
X41878Y41702D01*
X41900Y41699D01*
Y41922D01*
D02*
G37*
G36*
X30618Y41998D02*
X30582D01*
X30568Y41998D01*
X29909D01*
Y41878D01*
X29859Y41854D01*
X29820Y41883D01*
X29753Y41911D01*
X29681Y41921D01*
X29608Y41911D01*
X29541Y41883D01*
X29483Y41839D01*
X29439Y41781D01*
X29411Y41714D01*
X29401Y41641D01*
X29411Y41569D01*
X29439Y41502D01*
X29483Y41444D01*
X29541Y41399D01*
X29608Y41371D01*
X29681Y41362D01*
X29753Y41371D01*
X29820Y41399D01*
X29859Y41429D01*
X29909Y41405D01*
Y41246D01*
X30568D01*
X30582Y41246D01*
X30618D01*
X30632Y41246D01*
X30904D01*
Y41622D01*
Y41998D01*
X30632D01*
X30618Y41998D01*
D02*
G37*
G36*
X48350Y42195D02*
X48328Y42192D01*
X48260Y42164D01*
X48202Y42120D01*
X48158Y42062D01*
X48130Y41994D01*
X48127Y41972D01*
X48350D01*
Y42195D01*
D02*
G37*
G36*
X49418Y42298D02*
X49382D01*
X49368Y42298D01*
X49096D01*
Y41922D01*
Y41546D01*
X49368D01*
X49382Y41546D01*
X49418D01*
X49432Y41546D01*
X49805D01*
X49881Y41471D01*
Y40544D01*
X49785Y40514D01*
X49682Y40459D01*
X49591Y40385D01*
X49517Y40295D01*
X49463Y40192D01*
X49429Y40081D01*
X49417Y39965D01*
X49429Y39848D01*
X49463Y39737D01*
X49517Y39634D01*
X49591Y39544D01*
X49682Y39470D01*
X49785Y39415D01*
X49896Y39381D01*
X50012Y39370D01*
X50209D01*
X50325Y39381D01*
X50437Y39415D01*
X50540Y39470D01*
X50630Y39544D01*
X50704Y39634D01*
X50759Y39737D01*
X50793Y39848D01*
X50804Y39965D01*
X50793Y40081D01*
X50759Y40192D01*
X50704Y40295D01*
X50630Y40385D01*
X50540Y40459D01*
X50437Y40514D01*
X50340Y40544D01*
Y41566D01*
X50323Y41654D01*
X50273Y41728D01*
X50091Y41910D01*
Y42298D01*
X49432D01*
X49418Y42298D01*
D02*
G37*
G36*
X27100Y41175D02*
X26150D01*
X26091Y41163D01*
X26042Y41130D01*
X25792Y40880D01*
X25759Y40831D01*
X25747Y40772D01*
Y39608D01*
X25759Y39550D01*
X25792Y39500D01*
X26203Y39089D01*
X26175Y39052D01*
X26126Y38932D01*
X26109Y38803D01*
X26126Y38674D01*
X26175Y38554D01*
X26255Y38451D01*
X26358Y38372D01*
X26478Y38322D01*
X26607Y38305D01*
X26804D01*
X26932Y38322D01*
X27053Y38372D01*
X27156Y38451D01*
X27235Y38554D01*
X27285Y38674D01*
X27301Y38803D01*
X27285Y38932D01*
X27235Y39052D01*
X27156Y39155D01*
X27053Y39234D01*
X26932Y39284D01*
X26804Y39301D01*
X26607D01*
X26478Y39284D01*
X26451Y39273D01*
X26053Y39672D01*
Y40709D01*
X26213Y40869D01*
X27037D01*
X28385Y39521D01*
X28365Y39475D01*
X27706D01*
X27207Y39974D01*
X27235Y40011D01*
X27285Y40131D01*
X27301Y40260D01*
X27285Y40389D01*
X27235Y40509D01*
X27156Y40612D01*
X27053Y40691D01*
X26932Y40741D01*
X26804Y40758D01*
X26607D01*
X26478Y40741D01*
X26358Y40691D01*
X26255Y40612D01*
X26175Y40509D01*
X26126Y40389D01*
X26109Y40260D01*
X26126Y40131D01*
X26175Y40011D01*
X26255Y39908D01*
X26358Y39829D01*
X26478Y39779D01*
X26607Y39762D01*
X26804D01*
X26932Y39779D01*
X26959Y39790D01*
X27535Y39214D01*
X27584Y39181D01*
X27643Y39169D01*
X30257D01*
X30282Y39119D01*
X30231Y39052D01*
X30181Y38932D01*
X30164Y38803D01*
X30181Y38674D01*
X30231Y38554D01*
X30310Y38451D01*
X30413Y38372D01*
X30533Y38322D01*
X30662Y38305D01*
X30859D01*
X30988Y38322D01*
X31108Y38372D01*
X31211Y38451D01*
X31290Y38554D01*
X31330Y38650D01*
X31456D01*
X33142Y36964D01*
X33191Y36931D01*
X33250Y36919D01*
X34092D01*
X34099Y36902D01*
X34153Y36832D01*
X34223Y36778D01*
X34305Y36744D01*
X34393Y36733D01*
X34707D01*
X34795Y36744D01*
X34877Y36778D01*
X34947Y36832D01*
X35001Y36902D01*
X35023Y36955D01*
X35077D01*
X35099Y36902D01*
X35153Y36832D01*
X35223Y36778D01*
X35305Y36744D01*
X35393Y36733D01*
X35500D01*
Y37072D01*
Y37411D01*
X35393D01*
X35305Y37400D01*
X35223Y37366D01*
X35153Y37312D01*
X35099Y37242D01*
X35077Y37189D01*
X35023D01*
X35001Y37242D01*
X34947Y37312D01*
X34877Y37366D01*
X34795Y37400D01*
X34707Y37411D01*
X34393D01*
X34305Y37400D01*
X34223Y37366D01*
X34153Y37312D01*
X34099Y37242D01*
X34092Y37225D01*
X33313D01*
X31627Y38911D01*
X31577Y38944D01*
X31519Y38956D01*
X31330D01*
X31290Y39052D01*
X31219Y39144D01*
X31236Y39194D01*
X31912D01*
X33142Y37964D01*
X33191Y37931D01*
X33250Y37919D01*
X34092D01*
X34099Y37902D01*
X34153Y37832D01*
X34223Y37778D01*
X34305Y37744D01*
X34393Y37733D01*
X34707D01*
X34795Y37744D01*
X34877Y37778D01*
X34947Y37832D01*
X35001Y37902D01*
X35023Y37955D01*
X35077D01*
X35099Y37902D01*
X35153Y37832D01*
X35223Y37778D01*
X35305Y37744D01*
X35393Y37733D01*
X35707D01*
X35795Y37744D01*
X35877Y37778D01*
X35934Y37822D01*
X36197Y37559D01*
Y36885D01*
X35561Y36249D01*
X32732D01*
X32715Y36299D01*
X32748Y36324D01*
X32792Y36382D01*
X32820Y36450D01*
X32823Y36472D01*
X32550D01*
Y36522D01*
X32500D01*
Y36795D01*
X32478Y36792D01*
X32410Y36764D01*
X32394Y36751D01*
X32291D01*
Y36898D01*
X32004D01*
Y36522D01*
X31904D01*
Y36898D01*
X31618D01*
Y36898D01*
X31582D01*
Y36898D01*
X31086D01*
X30913Y37071D01*
Y37210D01*
X30988Y37220D01*
X31108Y37270D01*
X31211Y37349D01*
X31290Y37452D01*
X31340Y37572D01*
X31357Y37701D01*
X31340Y37830D01*
X31290Y37950D01*
X31211Y38053D01*
X31108Y38132D01*
X30988Y38182D01*
X30859Y38199D01*
X30662D01*
X30533Y38182D01*
X30413Y38132D01*
X30310Y38053D01*
X30231Y37950D01*
X30181Y37830D01*
X30164Y37701D01*
X30181Y37572D01*
X30231Y37452D01*
X30310Y37349D01*
X30413Y37270D01*
X30533Y37220D01*
X30607Y37210D01*
Y37007D01*
X30619Y36949D01*
X30652Y36899D01*
X30909Y36642D01*
Y36249D01*
X29539D01*
X27979Y37809D01*
X27930Y37842D01*
X27871Y37854D01*
X27275D01*
X27235Y37950D01*
X27156Y38053D01*
X27053Y38132D01*
X26932Y38182D01*
X26804Y38199D01*
X26607D01*
X26478Y38182D01*
X26358Y38132D01*
X26255Y38053D01*
X26175Y37950D01*
X26126Y37830D01*
X26109Y37701D01*
X26126Y37572D01*
X26175Y37452D01*
X26255Y37349D01*
X26358Y37270D01*
X26478Y37220D01*
X26607Y37203D01*
X26804D01*
X26932Y37220D01*
X27053Y37270D01*
X27156Y37349D01*
X27235Y37452D01*
X27275Y37548D01*
X27808D01*
X29367Y35988D01*
X29417Y35955D01*
X29476Y35944D01*
X35624D01*
X35683Y35955D01*
X35733Y35988D01*
X36458Y36714D01*
X36491Y36764D01*
X36503Y36822D01*
Y37622D01*
X36491Y37681D01*
X36458Y37730D01*
X36036Y38152D01*
X36035Y38160D01*
X36001Y38242D01*
X35947Y38312D01*
X35877Y38366D01*
X35795Y38400D01*
X35707Y38411D01*
X35393D01*
X35305Y38400D01*
X35223Y38366D01*
X35153Y38312D01*
X35099Y38242D01*
X35077Y38189D01*
X35023D01*
X35001Y38242D01*
X34947Y38312D01*
X34877Y38366D01*
X34795Y38400D01*
X34707Y38411D01*
X34393D01*
X34305Y38400D01*
X34223Y38366D01*
X34153Y38312D01*
X34099Y38242D01*
X34092Y38225D01*
X33313D01*
X32665Y38873D01*
X32685Y38919D01*
X34092D01*
X34099Y38902D01*
X34153Y38832D01*
X34223Y38778D01*
X34305Y38744D01*
X34393Y38733D01*
X34707D01*
X34795Y38744D01*
X34877Y38778D01*
X34947Y38832D01*
X35001Y38902D01*
X35023Y38955D01*
X35077D01*
X35099Y38902D01*
X35153Y38832D01*
X35223Y38778D01*
X35305Y38744D01*
X35393Y38733D01*
X35707D01*
X35795Y38744D01*
X35877Y38778D01*
X35947Y38832D01*
X36001Y38902D01*
X36008Y38919D01*
X37554D01*
X38121Y38352D01*
X38100Y38327D01*
X38045Y38224D01*
X38011Y38112D01*
X38000Y37996D01*
X38011Y37880D01*
X38045Y37768D01*
X38100Y37666D01*
X38174Y37575D01*
X38264Y37501D01*
X38367Y37446D01*
X38479Y37413D01*
X38595Y37401D01*
X38792D01*
X38908Y37413D01*
X39019Y37446D01*
X39122Y37501D01*
X39212Y37575D01*
X39286Y37666D01*
X39341Y37768D01*
X39375Y37880D01*
X39387Y37996D01*
X39375Y38112D01*
X39341Y38224D01*
X39286Y38327D01*
X39212Y38417D01*
X39122Y38491D01*
X39019Y38546D01*
X38908Y38580D01*
X38792Y38591D01*
X38595D01*
X38479Y38580D01*
X38367Y38546D01*
X38362Y38543D01*
X37725Y39180D01*
X37676Y39213D01*
X37617Y39225D01*
X36008D01*
X36001Y39242D01*
X35947Y39312D01*
X35877Y39366D01*
X35795Y39400D01*
X35707Y39411D01*
X35393D01*
X35305Y39400D01*
X35223Y39366D01*
X35153Y39312D01*
X35099Y39242D01*
X35077Y39189D01*
X35023D01*
X35001Y39242D01*
X34947Y39312D01*
X34877Y39366D01*
X34795Y39400D01*
X34707Y39411D01*
X34393D01*
X34305Y39400D01*
X34223Y39366D01*
X34153Y39312D01*
X34099Y39242D01*
X34092Y39225D01*
X32596D01*
X32166Y39655D01*
X32117Y39688D01*
X32058Y39700D01*
X28639D01*
X27208Y41130D01*
X27159Y41163D01*
X27100Y41175D01*
D02*
G37*
G36*
X24350Y39613D02*
X24024D01*
Y39506D01*
X23951D01*
X23940Y39514D01*
X23872Y39542D01*
X23850Y39545D01*
Y39272D01*
Y38999D01*
X23872Y39002D01*
X23940Y39030D01*
X23962Y39047D01*
X24024D01*
Y38954D01*
X24024Y38940D01*
Y38904D01*
X24024Y38890D01*
Y38231D01*
X24776D01*
X24776Y38231D01*
Y38231D01*
X24824Y38229D01*
X24865Y38223D01*
X24937Y38233D01*
X25005Y38261D01*
X25063Y38305D01*
X25107Y38363D01*
X25135Y38430D01*
X25145Y38503D01*
X25135Y38575D01*
X25107Y38643D01*
X25063Y38700D01*
X25005Y38745D01*
X24937Y38773D01*
X24865Y38782D01*
X24826Y38777D01*
X24776Y38816D01*
Y38890D01*
X24776Y38904D01*
Y38940D01*
X24776Y38954D01*
Y39226D01*
X24400D01*
Y39276D01*
X24350D01*
Y39613D01*
D02*
G37*
G36*
X38792Y40560D02*
X38595D01*
X38479Y40548D01*
X38367Y40514D01*
X38264Y40459D01*
X38174Y40385D01*
X38100Y40295D01*
X38045Y40192D01*
X38011Y40081D01*
X38000Y39965D01*
X38011Y39848D01*
X38045Y39737D01*
X38100Y39634D01*
X38174Y39544D01*
X38264Y39470D01*
X38367Y39415D01*
X38479Y39381D01*
X38595Y39370D01*
X38792D01*
X38908Y39381D01*
X39019Y39415D01*
X39122Y39470D01*
X39212Y39544D01*
X39286Y39634D01*
X39341Y39737D01*
X39375Y39848D01*
X39387Y39965D01*
X39375Y40081D01*
X39341Y40192D01*
X39286Y40295D01*
X39212Y40385D01*
X39122Y40459D01*
X39019Y40514D01*
X38908Y40548D01*
X38792Y40560D01*
D02*
G37*
G36*
X42918Y42348D02*
X42882D01*
X42868Y42348D01*
X42596D01*
Y41972D01*
Y41596D01*
X42868D01*
X42882Y41596D01*
X42918D01*
X42932Y41596D01*
X43305D01*
X43385Y41517D01*
Y40544D01*
X43288Y40514D01*
X43186Y40459D01*
X43095Y40385D01*
X43021Y40295D01*
X42966Y40192D01*
X42933Y40081D01*
X42921Y39965D01*
X42933Y39848D01*
X42966Y39737D01*
X43021Y39634D01*
X43095Y39544D01*
X43186Y39470D01*
X43288Y39415D01*
X43400Y39381D01*
X43516Y39370D01*
X43713D01*
X43829Y39381D01*
X43941Y39415D01*
X44044Y39470D01*
X44134Y39544D01*
X44208Y39634D01*
X44263Y39737D01*
X44297Y39848D01*
X44308Y39965D01*
X44297Y40081D01*
X44263Y40192D01*
X44208Y40295D01*
X44134Y40385D01*
X44044Y40459D01*
X43941Y40514D01*
X43844Y40544D01*
Y41612D01*
X43827Y41700D01*
X43777Y41774D01*
X43591Y41960D01*
Y42348D01*
X42932D01*
X42918Y42348D01*
D02*
G37*
G36*
X45288Y40560D02*
X45091D01*
X44975Y40548D01*
X44863Y40514D01*
X44760Y40459D01*
X44670Y40385D01*
X44596Y40295D01*
X44541Y40192D01*
X44507Y40081D01*
X44496Y39965D01*
X44507Y39848D01*
X44541Y39737D01*
X44596Y39634D01*
X44670Y39544D01*
X44760Y39470D01*
X44863Y39415D01*
X44975Y39381D01*
X45091Y39370D01*
X45288D01*
X45404Y39381D01*
X45515Y39415D01*
X45618Y39470D01*
X45709Y39544D01*
X45783Y39634D01*
X45837Y39737D01*
X45871Y39848D01*
X45883Y39965D01*
X45871Y40081D01*
X45837Y40192D01*
X45783Y40295D01*
X45709Y40385D01*
X45618Y40459D01*
X45515Y40514D01*
X45404Y40548D01*
X45288Y40560D01*
D02*
G37*
G36*
X32723Y41322D02*
X32500D01*
Y41099D01*
X32522Y41102D01*
X32590Y41130D01*
X32648Y41174D01*
X32692Y41232D01*
X32720Y41300D01*
X32723Y41322D01*
D02*
G37*
G36*
X32400Y41645D02*
X32378Y41642D01*
X32310Y41614D01*
X32274Y41586D01*
X32262Y41584D01*
X32188Y41534D01*
X31866Y41213D01*
X31750D01*
Y40876D01*
X31700D01*
Y40826D01*
X31324D01*
X31324Y40546D01*
X31286Y40518D01*
X31281Y40520D01*
X31211Y40612D01*
X31108Y40691D01*
X30988Y40741D01*
X30859Y40758D01*
X30662D01*
X30533Y40741D01*
X30413Y40691D01*
X30310Y40612D01*
X30231Y40509D01*
X30181Y40389D01*
X30164Y40260D01*
X30181Y40131D01*
X30231Y40011D01*
X30310Y39908D01*
X30413Y39829D01*
X30533Y39779D01*
X30662Y39762D01*
X30859D01*
X30988Y39779D01*
X31108Y39829D01*
X31211Y39908D01*
X31274Y39991D01*
X31324Y39974D01*
Y39832D01*
X32076D01*
Y40019D01*
X32218D01*
X32252Y39974D01*
X32310Y39930D01*
X32378Y39902D01*
X32450Y39892D01*
X32522Y39902D01*
X32590Y39930D01*
X32648Y39974D01*
X32692Y40032D01*
X32720Y40100D01*
X32730Y40172D01*
X32720Y40244D01*
X32692Y40312D01*
X32648Y40370D01*
X32590Y40414D01*
X32522Y40442D01*
X32450Y40452D01*
X32378Y40442D01*
X32310Y40414D01*
X32252Y40370D01*
X32218Y40325D01*
X32076D01*
Y40490D01*
X32076Y40504D01*
Y40540D01*
X32076Y40554D01*
Y40773D01*
X32400Y41098D01*
Y41372D01*
Y41645D01*
D02*
G37*
G36*
X31004Y41998D02*
Y41622D01*
Y41246D01*
X31247Y41246D01*
X31261D01*
X31276Y41242D01*
X31307Y41229D01*
X31307Y41229D01*
X31307Y41229D01*
X31320Y41198D01*
X31324Y41183D01*
X31324Y41169D01*
Y40926D01*
X31650D01*
Y41213D01*
X31368Y41213D01*
X31354D01*
X31339Y41217D01*
X31308Y41230D01*
X31308Y41230D01*
X31308Y41230D01*
X31295Y41261D01*
X31291Y41276D01*
X31291Y41290D01*
Y41393D01*
X31444D01*
X31460Y41380D01*
X31528Y41352D01*
X31550Y41349D01*
Y41622D01*
Y41895D01*
X31528Y41892D01*
X31460Y41864D01*
X31444Y41851D01*
X31291D01*
Y41998D01*
X31004D01*
D02*
G37*
G36*
X34500Y40022D02*
X34060D01*
X34065Y39984D01*
X34099Y39902D01*
X34153Y39832D01*
X34223Y39778D01*
X34305Y39744D01*
X34393Y39733D01*
X34500D01*
Y40022D01*
D02*
G37*
G36*
Y40411D02*
X34393D01*
X34305Y40400D01*
X34223Y40366D01*
X34153Y40312D01*
X34099Y40242D01*
X34065Y40160D01*
X34060Y40122D01*
X34500D01*
Y40411D01*
D02*
G37*
G36*
X35707D02*
X35393D01*
X35305Y40400D01*
X35223Y40366D01*
X35153Y40312D01*
X35099Y40242D01*
X35077Y40189D01*
X35023D01*
X35001Y40242D01*
X34947Y40312D01*
X34877Y40366D01*
X34795Y40400D01*
X34707Y40411D01*
X34600D01*
Y40072D01*
Y39733D01*
X34707D01*
X34795Y39744D01*
X34877Y39778D01*
X34947Y39832D01*
X35001Y39902D01*
X35023Y39955D01*
X35077D01*
X35099Y39902D01*
X35153Y39832D01*
X35223Y39778D01*
X35305Y39744D01*
X35393Y39733D01*
X35707D01*
X35795Y39744D01*
X35877Y39778D01*
X35947Y39832D01*
X36001Y39902D01*
X36035Y39984D01*
X36047Y40072D01*
X36035Y40160D01*
X36001Y40242D01*
X35947Y40312D01*
X35877Y40366D01*
X35795Y40400D01*
X35707Y40411D01*
D02*
G37*
%LPD*%
G36*
X54100Y50746D02*
Y43046D01*
X22700D01*
Y50796D01*
X54050D01*
X54100Y50746D01*
D02*
G37*
%LPC*%
G36*
X26700Y45019D02*
Y44796D01*
X26923D01*
X26920Y44818D01*
X26892Y44886D01*
X26848Y44944D01*
X26790Y44988D01*
X26722Y45016D01*
X26700Y45019D01*
D02*
G37*
G36*
X35707Y45285D02*
X35600D01*
Y44996D01*
X36040D01*
X36035Y45034D01*
X36001Y45116D01*
X35947Y45186D01*
X35877Y45240D01*
X35795Y45274D01*
X35707Y45285D01*
D02*
G37*
G36*
X26600Y45019D02*
X26578Y45016D01*
X26510Y44988D01*
X26452Y44944D01*
X26408Y44886D01*
X26380Y44818D01*
X26377Y44796D01*
X26600D01*
Y45019D01*
D02*
G37*
G36*
X32600Y44669D02*
Y44446D01*
X32823D01*
X32820Y44468D01*
X32792Y44536D01*
X32748Y44594D01*
X32690Y44638D01*
X32622Y44666D01*
X32600Y44669D01*
D02*
G37*
G36*
X36040Y44896D02*
X35600D01*
Y44607D01*
X35707D01*
X35795Y44619D01*
X35877Y44652D01*
X35947Y44706D01*
X36001Y44777D01*
X36035Y44858D01*
X36040Y44896D01*
D02*
G37*
G36*
X43713Y46465D02*
X43516D01*
X43400Y46454D01*
X43288Y46420D01*
X43186Y46365D01*
X43095Y46291D01*
X43021Y46201D01*
X42966Y46098D01*
X42933Y45986D01*
X42921Y45870D01*
X42933Y45754D01*
X42966Y45642D01*
X43021Y45540D01*
X43095Y45449D01*
X43186Y45375D01*
X43288Y45320D01*
X43400Y45287D01*
X43516Y45275D01*
X43713D01*
X43829Y45287D01*
X43941Y45320D01*
X44044Y45375D01*
X44134Y45449D01*
X44208Y45540D01*
X44263Y45642D01*
X44297Y45754D01*
X44308Y45870D01*
X44297Y45986D01*
X44263Y46098D01*
X44208Y46201D01*
X44134Y46291D01*
X44044Y46365D01*
X43941Y46420D01*
X43829Y46454D01*
X43713Y46465D01*
D02*
G37*
G36*
X23750Y47419D02*
X23728Y47416D01*
X23660Y47388D01*
X23602Y47344D01*
X23558Y47286D01*
X23530Y47218D01*
X23527Y47196D01*
X23750D01*
Y47419D01*
D02*
G37*
G36*
X24776Y47487D02*
X24450D01*
Y47200D01*
X24776D01*
Y47487D01*
D02*
G37*
G36*
X23750Y47096D02*
X23527D01*
X23530Y47074D01*
X23558Y47006D01*
X23602Y46948D01*
X23660Y46904D01*
X23728Y46876D01*
X23750Y46873D01*
Y47096D01*
D02*
G37*
G36*
X34707Y49285D02*
X34393D01*
X34305Y49274D01*
X34223Y49240D01*
X34153Y49186D01*
X34099Y49116D01*
X34065Y49034D01*
X34053Y48946D01*
X34065Y48858D01*
X34099Y48776D01*
X34153Y48706D01*
X34223Y48652D01*
X34305Y48618D01*
X34393Y48607D01*
X34707D01*
X34795Y48618D01*
X34877Y48652D01*
X34947Y48706D01*
X35001Y48776D01*
X35006Y48789D01*
X35056Y48779D01*
Y48610D01*
X36044D01*
Y48793D01*
X39587D01*
X41592Y46788D01*
X41641Y46755D01*
X41700Y46743D01*
X44100D01*
X44617Y46226D01*
X44596Y46201D01*
X44541Y46098D01*
X44507Y45986D01*
X44496Y45870D01*
X44507Y45754D01*
X44541Y45642D01*
X44596Y45540D01*
X44670Y45449D01*
X44760Y45375D01*
X44863Y45320D01*
X44975Y45287D01*
X45091Y45275D01*
X45288D01*
X45404Y45287D01*
X45515Y45320D01*
X45618Y45375D01*
X45709Y45449D01*
X45783Y45540D01*
X45837Y45642D01*
X45871Y45754D01*
X45883Y45870D01*
X45871Y45986D01*
X45837Y46098D01*
X45783Y46201D01*
X45709Y46291D01*
X45618Y46365D01*
X45515Y46420D01*
X45404Y46454D01*
X45288Y46465D01*
X45091D01*
X44975Y46454D01*
X44863Y46420D01*
X44858Y46417D01*
X44272Y47004D01*
X44222Y47037D01*
X44163Y47049D01*
X41763D01*
X39758Y49054D01*
X39709Y49087D01*
X39650Y49099D01*
X36044D01*
Y49282D01*
X35056D01*
Y49113D01*
X35006Y49103D01*
X35001Y49116D01*
X34947Y49186D01*
X34877Y49240D01*
X34795Y49274D01*
X34707Y49285D01*
D02*
G37*
G36*
X50209Y46465D02*
X50012D01*
X49896Y46454D01*
X49785Y46420D01*
X49682Y46365D01*
X49591Y46291D01*
X49517Y46201D01*
X49463Y46098D01*
X49429Y45986D01*
X49417Y45870D01*
X49429Y45754D01*
X49463Y45642D01*
X49517Y45540D01*
X49591Y45449D01*
X49682Y45375D01*
X49785Y45320D01*
X49896Y45287D01*
X50012Y45275D01*
X50209D01*
X50325Y45287D01*
X50437Y45320D01*
X50540Y45375D01*
X50630Y45449D01*
X50704Y45540D01*
X50759Y45642D01*
X50793Y45754D01*
X50804Y45870D01*
X50793Y45986D01*
X50759Y46098D01*
X50704Y46201D01*
X50630Y46291D01*
X50540Y46365D01*
X50437Y46420D01*
X50325Y46454D01*
X50209Y46465D01*
D02*
G37*
G36*
X41887Y44326D02*
X41815Y44316D01*
X41747Y44288D01*
X41689Y44244D01*
X41675Y44224D01*
X41504D01*
X41436Y44211D01*
X41378Y44172D01*
X41278Y44072D01*
X40832D01*
X40818Y44072D01*
X40782D01*
X40768Y44072D01*
X40496D01*
Y43696D01*
Y43320D01*
X40768D01*
X40782Y43320D01*
X40818D01*
X40832Y43320D01*
X41491D01*
Y43780D01*
X41578Y43868D01*
X41675D01*
X41689Y43848D01*
X41747Y43804D01*
X41815Y43776D01*
X41887Y43767D01*
X41959Y43776D01*
X42027Y43804D01*
X42085Y43848D01*
X42129Y43906D01*
X42157Y43974D01*
X42167Y44046D01*
X42157Y44118D01*
X42129Y44186D01*
X42085Y44244D01*
X42027Y44288D01*
X41959Y44316D01*
X41887Y44326D01*
D02*
G37*
G36*
X39800Y43646D02*
X39577D01*
X39580Y43624D01*
X39608Y43556D01*
X39652Y43498D01*
X39710Y43454D01*
X39778Y43426D01*
X39800Y43423D01*
Y43646D01*
D02*
G37*
G36*
X46400D02*
X46177D01*
X46180Y43624D01*
X46208Y43556D01*
X46252Y43498D01*
X46310Y43454D01*
X46378Y43426D01*
X46400Y43423D01*
Y43646D01*
D02*
G37*
G36*
X47418Y44072D02*
X47382D01*
X47368Y44072D01*
X47096D01*
Y43696D01*
Y43320D01*
X47368D01*
X47382Y43320D01*
X47418D01*
X47432Y43320D01*
X48091D01*
Y43497D01*
X48141Y43514D01*
X48152Y43498D01*
X48210Y43454D01*
X48278Y43426D01*
X48350Y43417D01*
X48422Y43426D01*
X48490Y43454D01*
X48548Y43498D01*
X48592Y43556D01*
X48620Y43624D01*
X48630Y43696D01*
X48620Y43768D01*
X48592Y43836D01*
X48548Y43894D01*
X48490Y43938D01*
X48422Y43966D01*
X48350Y43976D01*
X48278Y43966D01*
X48210Y43938D01*
X48152Y43894D01*
X48141Y43878D01*
X48091Y43895D01*
Y44072D01*
X47432D01*
X47418Y44072D01*
D02*
G37*
G36*
X23437Y44378D02*
X23321Y44367D01*
X23210Y44333D01*
X23107Y44278D01*
X23017Y44204D01*
X22943Y44114D01*
X22888Y44011D01*
X22854Y43900D01*
X22842Y43783D01*
X22854Y43667D01*
X22888Y43556D01*
X22943Y43453D01*
X23017Y43363D01*
X23107Y43289D01*
X23210Y43234D01*
X23321Y43200D01*
X23437Y43188D01*
X23553Y43200D01*
X23665Y43234D01*
X23768Y43289D01*
X23858Y43363D01*
X23932Y43453D01*
X23987Y43556D01*
X24021Y43667D01*
X24032Y43783D01*
X24021Y43900D01*
X23987Y44011D01*
X23932Y44114D01*
X23858Y44204D01*
X23768Y44278D01*
X23665Y44333D01*
X23553Y44367D01*
X23437Y44378D01*
D02*
G37*
G36*
X53359D02*
X53243Y44367D01*
X53131Y44333D01*
X53028Y44278D01*
X52938Y44204D01*
X52864Y44114D01*
X52809Y44011D01*
X52775Y43900D01*
X52764Y43783D01*
X52775Y43667D01*
X52809Y43556D01*
X52864Y43453D01*
X52938Y43363D01*
X53028Y43289D01*
X53131Y43234D01*
X53243Y43200D01*
X53359Y43188D01*
X53475Y43200D01*
X53586Y43234D01*
X53689Y43289D01*
X53779Y43363D01*
X53853Y43453D01*
X53908Y43556D01*
X53942Y43667D01*
X53954Y43783D01*
X53942Y43900D01*
X53908Y44011D01*
X53853Y44114D01*
X53779Y44204D01*
X53689Y44278D01*
X53586Y44333D01*
X53475Y44367D01*
X53359Y44378D01*
D02*
G37*
G36*
X39800Y43969D02*
X39778Y43966D01*
X39710Y43938D01*
X39652Y43894D01*
X39608Y43836D01*
X39580Y43768D01*
X39577Y43746D01*
X39800D01*
Y43969D01*
D02*
G37*
G36*
X40396Y44072D02*
X40109D01*
Y43925D01*
X40006D01*
X39990Y43938D01*
X39922Y43966D01*
X39900Y43969D01*
Y43696D01*
Y43423D01*
X39922Y43426D01*
X39990Y43454D01*
X40006Y43467D01*
X40109D01*
Y43320D01*
X40396D01*
Y43696D01*
Y44072D01*
D02*
G37*
G36*
X46996D02*
X46709D01*
Y43925D01*
X46606D01*
X46590Y43938D01*
X46522Y43966D01*
X46500Y43969D01*
Y43696D01*
Y43423D01*
X46522Y43426D01*
X46590Y43454D01*
X46606Y43467D01*
X46709D01*
Y43320D01*
X46996D01*
Y43696D01*
Y44072D01*
D02*
G37*
G36*
X26923Y44696D02*
X26377D01*
X26380Y44674D01*
X26402Y44622D01*
X26382Y44582D01*
X26371Y44572D01*
X26309D01*
Y44246D01*
X26646D01*
Y44196D01*
X26696D01*
Y43820D01*
X26968D01*
X26982Y43820D01*
X27018D01*
X27032Y43820D01*
X27691D01*
Y43941D01*
X27741Y43965D01*
X27780Y43935D01*
X27847Y43907D01*
X27919Y43897D01*
X27992Y43907D01*
X28059Y43935D01*
X28117Y43979D01*
X28161Y44037D01*
X28189Y44104D01*
X28199Y44177D01*
X28189Y44249D01*
X28161Y44317D01*
X28117Y44374D01*
X28059Y44419D01*
X27992Y44447D01*
X27919Y44456D01*
X27847Y44447D01*
X27780Y44419D01*
X27741Y44389D01*
X27691Y44413D01*
Y44572D01*
X27032D01*
X27018Y44572D01*
X26982D01*
X26968Y44572D01*
X26929D01*
X26918Y44582D01*
X26898Y44622D01*
X26920Y44674D01*
X26923Y44696D01*
D02*
G37*
G36*
X46400Y43969D02*
X46378Y43966D01*
X46310Y43938D01*
X46252Y43894D01*
X46208Y43836D01*
X46180Y43768D01*
X46177Y43746D01*
X46400D01*
Y43969D01*
D02*
G37*
G36*
X26596Y44146D02*
X26309D01*
Y43820D01*
X26596D01*
Y44146D01*
D02*
G37*
G36*
X53359Y50678D02*
X53243Y50666D01*
X53131Y50632D01*
X53028Y50577D01*
X52938Y50503D01*
X52864Y50413D01*
X52809Y50310D01*
X52775Y50199D01*
X52764Y50083D01*
X52775Y49967D01*
X52809Y49855D01*
X52864Y49752D01*
X52938Y49662D01*
X53028Y49588D01*
X53131Y49533D01*
X53243Y49499D01*
X53359Y49488D01*
X53475Y49499D01*
X53586Y49533D01*
X53689Y49588D01*
X53779Y49662D01*
X53853Y49752D01*
X53908Y49855D01*
X53942Y49967D01*
X53954Y50083D01*
X53942Y50199D01*
X53908Y50310D01*
X53853Y50413D01*
X53779Y50503D01*
X53689Y50577D01*
X53586Y50632D01*
X53475Y50666D01*
X53359Y50678D01*
D02*
G37*
G36*
X48350Y49746D02*
X48127D01*
X48130Y49724D01*
X48158Y49656D01*
X48202Y49598D01*
X48260Y49554D01*
X48328Y49526D01*
X48350Y49523D01*
Y49746D01*
D02*
G37*
G36*
X31650Y49769D02*
Y49546D01*
X31873D01*
X31870Y49568D01*
X31842Y49636D01*
X31798Y49694D01*
X31740Y49738D01*
X31672Y49766D01*
X31650Y49769D01*
D02*
G37*
G36*
X31873Y49446D02*
X31650D01*
Y49223D01*
X31672Y49226D01*
X31740Y49254D01*
X31798Y49298D01*
X31842Y49356D01*
X31870Y49424D01*
X31873Y49446D01*
D02*
G37*
G36*
X32500Y49519D02*
Y49296D01*
X32723D01*
X32720Y49318D01*
X32692Y49386D01*
X32648Y49444D01*
X32590Y49488D01*
X32522Y49516D01*
X32500Y49519D01*
D02*
G37*
G36*
X23437Y50678D02*
X23321Y50666D01*
X23210Y50632D01*
X23107Y50577D01*
X23017Y50503D01*
X22943Y50413D01*
X22888Y50310D01*
X22854Y50199D01*
X22842Y50083D01*
X22854Y49967D01*
X22888Y49855D01*
X22943Y49752D01*
X23017Y49662D01*
X23107Y49588D01*
X23210Y49533D01*
X23321Y49499D01*
X23437Y49488D01*
X23553Y49499D01*
X23665Y49533D01*
X23768Y49588D01*
X23858Y49662D01*
X23932Y49752D01*
X23987Y49855D01*
X24021Y49967D01*
X24032Y50083D01*
X24021Y50199D01*
X23987Y50310D01*
X23932Y50413D01*
X23858Y50503D01*
X23768Y50577D01*
X23665Y50632D01*
X23553Y50666D01*
X23437Y50678D01*
D02*
G37*
G36*
X41900Y50119D02*
X41878Y50116D01*
X41810Y50088D01*
X41752Y50044D01*
X41708Y49986D01*
X41680Y49918D01*
X41677Y49896D01*
X41900D01*
Y50119D01*
D02*
G37*
G36*
X48996Y50172D02*
X48709D01*
Y50025D01*
X48556D01*
X48540Y50038D01*
X48472Y50066D01*
X48450Y50069D01*
Y49796D01*
Y49523D01*
X48472Y49526D01*
X48540Y49554D01*
X48556Y49567D01*
X48709D01*
Y49420D01*
X48996D01*
Y49796D01*
Y50172D01*
D02*
G37*
G36*
X42496Y50222D02*
X42209D01*
Y50075D01*
X42106D01*
X42090Y50088D01*
X42022Y50116D01*
X42000Y50119D01*
Y49846D01*
Y49573D01*
X42022Y49576D01*
X42090Y49604D01*
X42106Y49617D01*
X42209D01*
Y49470D01*
X42496D01*
Y49846D01*
Y50222D01*
D02*
G37*
G36*
X41900Y49796D02*
X41677D01*
X41680Y49774D01*
X41708Y49706D01*
X41752Y49648D01*
X41810Y49604D01*
X41878Y49576D01*
X41900Y49573D01*
Y49796D01*
D02*
G37*
G36*
X30618Y49872D02*
X30582D01*
X30568Y49872D01*
X29909D01*
Y49752D01*
X29859Y49728D01*
X29820Y49757D01*
X29753Y49785D01*
X29681Y49795D01*
X29608Y49785D01*
X29541Y49757D01*
X29483Y49713D01*
X29439Y49655D01*
X29411Y49588D01*
X29401Y49515D01*
X29411Y49443D01*
X29439Y49376D01*
X29483Y49318D01*
X29541Y49273D01*
X29608Y49245D01*
X29681Y49236D01*
X29753Y49245D01*
X29820Y49273D01*
X29859Y49303D01*
X29909Y49279D01*
Y49120D01*
X30568D01*
X30582Y49120D01*
X30618D01*
X30632Y49120D01*
X30904D01*
Y49496D01*
Y49872D01*
X30632D01*
X30618Y49872D01*
D02*
G37*
G36*
X48350Y50069D02*
X48328Y50066D01*
X48260Y50038D01*
X48202Y49994D01*
X48158Y49936D01*
X48130Y49868D01*
X48127Y49846D01*
X48350D01*
Y50069D01*
D02*
G37*
G36*
X49418Y50172D02*
X49382D01*
X49368Y50172D01*
X49096D01*
Y49796D01*
Y49420D01*
X49368D01*
X49382Y49420D01*
X49418D01*
X49432Y49420D01*
X49805D01*
X49881Y49345D01*
Y48418D01*
X49785Y48388D01*
X49682Y48333D01*
X49591Y48259D01*
X49517Y48169D01*
X49463Y48066D01*
X49429Y47955D01*
X49417Y47839D01*
X49429Y47723D01*
X49463Y47611D01*
X49517Y47508D01*
X49591Y47418D01*
X49682Y47344D01*
X49785Y47289D01*
X49896Y47255D01*
X50012Y47244D01*
X50209D01*
X50325Y47255D01*
X50437Y47289D01*
X50540Y47344D01*
X50630Y47418D01*
X50704Y47508D01*
X50759Y47611D01*
X50793Y47723D01*
X50804Y47839D01*
X50793Y47955D01*
X50759Y48066D01*
X50704Y48169D01*
X50630Y48259D01*
X50540Y48333D01*
X50437Y48388D01*
X50340Y48418D01*
Y49440D01*
X50323Y49528D01*
X50273Y49602D01*
X50091Y49784D01*
Y50172D01*
X49432D01*
X49418Y50172D01*
D02*
G37*
G36*
X27100Y49049D02*
X26150D01*
X26091Y49037D01*
X26042Y49004D01*
X25792Y48754D01*
X25759Y48705D01*
X25747Y48646D01*
Y47482D01*
X25759Y47424D01*
X25792Y47374D01*
X26203Y46963D01*
X26175Y46926D01*
X26126Y46806D01*
X26109Y46677D01*
X26126Y46548D01*
X26175Y46428D01*
X26255Y46325D01*
X26358Y46246D01*
X26478Y46196D01*
X26607Y46179D01*
X26804D01*
X26932Y46196D01*
X27053Y46246D01*
X27156Y46325D01*
X27235Y46428D01*
X27285Y46548D01*
X27301Y46677D01*
X27285Y46806D01*
X27235Y46926D01*
X27156Y47029D01*
X27053Y47108D01*
X26932Y47158D01*
X26804Y47175D01*
X26607D01*
X26478Y47158D01*
X26451Y47147D01*
X26053Y47546D01*
Y48583D01*
X26213Y48743D01*
X27037D01*
X28385Y47395D01*
X28365Y47349D01*
X27706D01*
X27207Y47848D01*
X27235Y47885D01*
X27285Y48005D01*
X27301Y48134D01*
X27285Y48263D01*
X27235Y48383D01*
X27156Y48486D01*
X27053Y48565D01*
X26932Y48615D01*
X26804Y48632D01*
X26607D01*
X26478Y48615D01*
X26358Y48565D01*
X26255Y48486D01*
X26175Y48383D01*
X26126Y48263D01*
X26109Y48134D01*
X26126Y48005D01*
X26175Y47885D01*
X26255Y47782D01*
X26358Y47703D01*
X26478Y47653D01*
X26607Y47636D01*
X26804D01*
X26932Y47653D01*
X26959Y47664D01*
X27535Y47088D01*
X27584Y47055D01*
X27643Y47043D01*
X30257D01*
X30282Y46993D01*
X30231Y46926D01*
X30181Y46806D01*
X30164Y46677D01*
X30181Y46548D01*
X30231Y46428D01*
X30310Y46325D01*
X30413Y46246D01*
X30533Y46196D01*
X30662Y46179D01*
X30859D01*
X30988Y46196D01*
X31108Y46246D01*
X31211Y46325D01*
X31290Y46428D01*
X31330Y46524D01*
X31456D01*
X33142Y44838D01*
X33191Y44805D01*
X33250Y44793D01*
X34092D01*
X34099Y44777D01*
X34153Y44706D01*
X34223Y44652D01*
X34305Y44619D01*
X34393Y44607D01*
X34707D01*
X34795Y44619D01*
X34877Y44652D01*
X34947Y44706D01*
X35001Y44777D01*
X35023Y44829D01*
X35077D01*
X35099Y44777D01*
X35153Y44706D01*
X35223Y44652D01*
X35305Y44619D01*
X35393Y44607D01*
X35500D01*
Y44946D01*
Y45285D01*
X35393D01*
X35305Y45274D01*
X35223Y45240D01*
X35153Y45186D01*
X35099Y45116D01*
X35077Y45063D01*
X35023D01*
X35001Y45116D01*
X34947Y45186D01*
X34877Y45240D01*
X34795Y45274D01*
X34707Y45285D01*
X34393D01*
X34305Y45274D01*
X34223Y45240D01*
X34153Y45186D01*
X34099Y45116D01*
X34092Y45099D01*
X33313D01*
X31627Y46785D01*
X31577Y46818D01*
X31519Y46830D01*
X31330D01*
X31290Y46926D01*
X31219Y47018D01*
X31236Y47068D01*
X31912D01*
X33142Y45838D01*
X33191Y45805D01*
X33250Y45793D01*
X34092D01*
X34099Y45777D01*
X34153Y45706D01*
X34223Y45652D01*
X34305Y45619D01*
X34393Y45607D01*
X34707D01*
X34795Y45619D01*
X34877Y45652D01*
X34947Y45706D01*
X35001Y45777D01*
X35023Y45829D01*
X35077D01*
X35099Y45777D01*
X35153Y45706D01*
X35223Y45652D01*
X35305Y45619D01*
X35393Y45607D01*
X35707D01*
X35795Y45619D01*
X35877Y45652D01*
X35934Y45696D01*
X36197Y45433D01*
Y44759D01*
X35561Y44123D01*
X32732D01*
X32715Y44173D01*
X32748Y44198D01*
X32792Y44256D01*
X32820Y44324D01*
X32823Y44346D01*
X32550D01*
Y44396D01*
X32500D01*
Y44669D01*
X32478Y44666D01*
X32410Y44638D01*
X32394Y44625D01*
X32291D01*
Y44772D01*
X32004D01*
Y44396D01*
X31904D01*
Y44772D01*
X31618D01*
Y44772D01*
X31582D01*
Y44772D01*
X31086D01*
X30913Y44945D01*
Y45084D01*
X30988Y45094D01*
X31108Y45144D01*
X31211Y45223D01*
X31290Y45326D01*
X31340Y45446D01*
X31357Y45575D01*
X31340Y45704D01*
X31290Y45824D01*
X31211Y45927D01*
X31108Y46006D01*
X30988Y46056D01*
X30859Y46073D01*
X30662D01*
X30533Y46056D01*
X30413Y46006D01*
X30310Y45927D01*
X30231Y45824D01*
X30181Y45704D01*
X30164Y45575D01*
X30181Y45446D01*
X30231Y45326D01*
X30310Y45223D01*
X30413Y45144D01*
X30533Y45094D01*
X30607Y45084D01*
Y44882D01*
X30619Y44823D01*
X30652Y44773D01*
X30909Y44516D01*
Y44123D01*
X29539D01*
X27979Y45683D01*
X27930Y45716D01*
X27871Y45728D01*
X27275D01*
X27235Y45824D01*
X27156Y45927D01*
X27053Y46006D01*
X26932Y46056D01*
X26804Y46073D01*
X26607D01*
X26478Y46056D01*
X26358Y46006D01*
X26255Y45927D01*
X26175Y45824D01*
X26126Y45704D01*
X26109Y45575D01*
X26126Y45446D01*
X26175Y45326D01*
X26255Y45223D01*
X26358Y45144D01*
X26478Y45094D01*
X26607Y45077D01*
X26804D01*
X26932Y45094D01*
X27053Y45144D01*
X27156Y45223D01*
X27235Y45326D01*
X27275Y45422D01*
X27808D01*
X29367Y43862D01*
X29417Y43829D01*
X29476Y43818D01*
X35624D01*
X35683Y43829D01*
X35733Y43862D01*
X36458Y44588D01*
X36491Y44638D01*
X36503Y44696D01*
Y45496D01*
X36491Y45555D01*
X36458Y45604D01*
X36036Y46026D01*
X36035Y46034D01*
X36001Y46116D01*
X35947Y46186D01*
X35877Y46240D01*
X35795Y46274D01*
X35707Y46285D01*
X35393D01*
X35305Y46274D01*
X35223Y46240D01*
X35153Y46186D01*
X35099Y46116D01*
X35077Y46063D01*
X35023D01*
X35001Y46116D01*
X34947Y46186D01*
X34877Y46240D01*
X34795Y46274D01*
X34707Y46285D01*
X34393D01*
X34305Y46274D01*
X34223Y46240D01*
X34153Y46186D01*
X34099Y46116D01*
X34092Y46099D01*
X33313D01*
X32665Y46747D01*
X32685Y46793D01*
X34092D01*
X34099Y46776D01*
X34153Y46706D01*
X34223Y46652D01*
X34305Y46618D01*
X34393Y46607D01*
X34707D01*
X34795Y46618D01*
X34877Y46652D01*
X34947Y46706D01*
X35001Y46776D01*
X35023Y46829D01*
X35077D01*
X35099Y46776D01*
X35153Y46706D01*
X35223Y46652D01*
X35305Y46618D01*
X35393Y46607D01*
X35707D01*
X35795Y46618D01*
X35877Y46652D01*
X35947Y46706D01*
X36001Y46776D01*
X36008Y46793D01*
X37554D01*
X38121Y46226D01*
X38100Y46201D01*
X38045Y46098D01*
X38011Y45986D01*
X38000Y45870D01*
X38011Y45754D01*
X38045Y45642D01*
X38100Y45540D01*
X38174Y45449D01*
X38264Y45375D01*
X38367Y45320D01*
X38479Y45287D01*
X38595Y45275D01*
X38792D01*
X38908Y45287D01*
X39019Y45320D01*
X39122Y45375D01*
X39212Y45449D01*
X39286Y45540D01*
X39341Y45642D01*
X39375Y45754D01*
X39387Y45870D01*
X39375Y45986D01*
X39341Y46098D01*
X39286Y46201D01*
X39212Y46291D01*
X39122Y46365D01*
X39019Y46420D01*
X38908Y46454D01*
X38792Y46465D01*
X38595D01*
X38479Y46454D01*
X38367Y46420D01*
X38362Y46417D01*
X37725Y47054D01*
X37676Y47087D01*
X37617Y47099D01*
X36008D01*
X36001Y47116D01*
X35947Y47186D01*
X35877Y47240D01*
X35795Y47274D01*
X35707Y47285D01*
X35393D01*
X35305Y47274D01*
X35223Y47240D01*
X35153Y47186D01*
X35099Y47116D01*
X35077Y47063D01*
X35023D01*
X35001Y47116D01*
X34947Y47186D01*
X34877Y47240D01*
X34795Y47274D01*
X34707Y47285D01*
X34393D01*
X34305Y47274D01*
X34223Y47240D01*
X34153Y47186D01*
X34099Y47116D01*
X34092Y47099D01*
X32596D01*
X32166Y47529D01*
X32117Y47562D01*
X32058Y47574D01*
X28639D01*
X27208Y49004D01*
X27159Y49037D01*
X27100Y49049D01*
D02*
G37*
G36*
X24350Y47487D02*
X24024D01*
Y47380D01*
X23951D01*
X23940Y47388D01*
X23872Y47416D01*
X23850Y47419D01*
Y47146D01*
Y46873D01*
X23872Y46876D01*
X23940Y46904D01*
X23962Y46921D01*
X24024D01*
Y46828D01*
X24024Y46814D01*
Y46778D01*
X24024Y46764D01*
Y46106D01*
X24776D01*
X24776Y46106D01*
Y46106D01*
X24824Y46103D01*
X24865Y46097D01*
X24937Y46107D01*
X25005Y46135D01*
X25063Y46179D01*
X25107Y46237D01*
X25135Y46304D01*
X25145Y46377D01*
X25135Y46449D01*
X25107Y46517D01*
X25063Y46574D01*
X25005Y46619D01*
X24937Y46647D01*
X24865Y46656D01*
X24826Y46651D01*
X24776Y46690D01*
Y46764D01*
X24776Y46778D01*
Y46814D01*
X24776Y46828D01*
Y47100D01*
X24400D01*
Y47150D01*
X24350D01*
Y47487D01*
D02*
G37*
G36*
X38792Y48434D02*
X38595D01*
X38479Y48422D01*
X38367Y48388D01*
X38264Y48333D01*
X38174Y48259D01*
X38100Y48169D01*
X38045Y48066D01*
X38011Y47955D01*
X38000Y47839D01*
X38011Y47723D01*
X38045Y47611D01*
X38100Y47508D01*
X38174Y47418D01*
X38264Y47344D01*
X38367Y47289D01*
X38479Y47255D01*
X38595Y47244D01*
X38792D01*
X38908Y47255D01*
X39019Y47289D01*
X39122Y47344D01*
X39212Y47418D01*
X39286Y47508D01*
X39341Y47611D01*
X39375Y47723D01*
X39387Y47839D01*
X39375Y47955D01*
X39341Y48066D01*
X39286Y48169D01*
X39212Y48259D01*
X39122Y48333D01*
X39019Y48388D01*
X38908Y48422D01*
X38792Y48434D01*
D02*
G37*
G36*
X42918Y50222D02*
X42882D01*
X42868Y50222D01*
X42596D01*
Y49846D01*
Y49470D01*
X42868D01*
X42882Y49470D01*
X42918D01*
X42932Y49470D01*
X43305D01*
X43385Y49391D01*
Y48418D01*
X43288Y48388D01*
X43186Y48333D01*
X43095Y48259D01*
X43021Y48169D01*
X42966Y48066D01*
X42933Y47955D01*
X42921Y47839D01*
X42933Y47723D01*
X42966Y47611D01*
X43021Y47508D01*
X43095Y47418D01*
X43186Y47344D01*
X43288Y47289D01*
X43400Y47255D01*
X43516Y47244D01*
X43713D01*
X43829Y47255D01*
X43941Y47289D01*
X44044Y47344D01*
X44134Y47418D01*
X44208Y47508D01*
X44263Y47611D01*
X44297Y47723D01*
X44308Y47839D01*
X44297Y47955D01*
X44263Y48066D01*
X44208Y48169D01*
X44134Y48259D01*
X44044Y48333D01*
X43941Y48388D01*
X43844Y48418D01*
Y49486D01*
X43827Y49574D01*
X43777Y49648D01*
X43591Y49834D01*
Y50222D01*
X42932D01*
X42918Y50222D01*
D02*
G37*
G36*
X45288Y48434D02*
X45091D01*
X44975Y48422D01*
X44863Y48388D01*
X44760Y48333D01*
X44670Y48259D01*
X44596Y48169D01*
X44541Y48066D01*
X44507Y47955D01*
X44496Y47839D01*
X44507Y47723D01*
X44541Y47611D01*
X44596Y47508D01*
X44670Y47418D01*
X44760Y47344D01*
X44863Y47289D01*
X44975Y47255D01*
X45091Y47244D01*
X45288D01*
X45404Y47255D01*
X45515Y47289D01*
X45618Y47344D01*
X45709Y47418D01*
X45783Y47508D01*
X45837Y47611D01*
X45871Y47723D01*
X45883Y47839D01*
X45871Y47955D01*
X45837Y48066D01*
X45783Y48169D01*
X45709Y48259D01*
X45618Y48333D01*
X45515Y48388D01*
X45404Y48422D01*
X45288Y48434D01*
D02*
G37*
G36*
X32723Y49196D02*
X32500D01*
Y48973D01*
X32522Y48976D01*
X32590Y49004D01*
X32648Y49048D01*
X32692Y49106D01*
X32720Y49174D01*
X32723Y49196D01*
D02*
G37*
G36*
X32400Y49519D02*
X32378Y49516D01*
X32310Y49488D01*
X32274Y49460D01*
X32262Y49458D01*
X32188Y49408D01*
X31866Y49087D01*
X31750D01*
Y48750D01*
X31700D01*
Y48700D01*
X31324D01*
X31324Y48420D01*
X31286Y48392D01*
X31281Y48394D01*
X31211Y48486D01*
X31108Y48565D01*
X30988Y48615D01*
X30859Y48632D01*
X30662D01*
X30533Y48615D01*
X30413Y48565D01*
X30310Y48486D01*
X30231Y48383D01*
X30181Y48263D01*
X30164Y48134D01*
X30181Y48005D01*
X30231Y47885D01*
X30310Y47782D01*
X30413Y47703D01*
X30533Y47653D01*
X30662Y47636D01*
X30859D01*
X30988Y47653D01*
X31108Y47703D01*
X31211Y47782D01*
X31274Y47865D01*
X31324Y47848D01*
Y47706D01*
X32076D01*
Y47893D01*
X32218D01*
X32252Y47848D01*
X32310Y47804D01*
X32378Y47776D01*
X32450Y47767D01*
X32522Y47776D01*
X32590Y47804D01*
X32648Y47848D01*
X32692Y47906D01*
X32720Y47974D01*
X32730Y48046D01*
X32720Y48118D01*
X32692Y48186D01*
X32648Y48244D01*
X32590Y48288D01*
X32522Y48316D01*
X32450Y48326D01*
X32378Y48316D01*
X32310Y48288D01*
X32252Y48244D01*
X32218Y48199D01*
X32076D01*
Y48364D01*
X32076Y48378D01*
Y48414D01*
X32076Y48428D01*
Y48647D01*
X32400Y48972D01*
Y49246D01*
Y49519D01*
D02*
G37*
G36*
X31004Y49872D02*
Y49496D01*
Y49120D01*
X31247Y49120D01*
X31261D01*
X31276Y49116D01*
X31307Y49103D01*
X31307Y49103D01*
X31307Y49103D01*
X31320Y49072D01*
X31324Y49057D01*
X31324Y49043D01*
Y48800D01*
X31650D01*
Y49087D01*
X31368Y49087D01*
X31354D01*
X31339Y49091D01*
X31308Y49104D01*
X31308Y49104D01*
X31308Y49104D01*
X31295Y49135D01*
X31291Y49150D01*
X31291Y49164D01*
Y49267D01*
X31444D01*
X31460Y49254D01*
X31528Y49226D01*
X31550Y49223D01*
Y49496D01*
Y49769D01*
X31528Y49766D01*
X31460Y49738D01*
X31444Y49725D01*
X31291D01*
Y49872D01*
X31004D01*
D02*
G37*
G36*
X34500Y47896D02*
X34060D01*
X34065Y47858D01*
X34099Y47776D01*
X34153Y47706D01*
X34223Y47652D01*
X34305Y47618D01*
X34393Y47607D01*
X34500D01*
Y47896D01*
D02*
G37*
G36*
Y48285D02*
X34393D01*
X34305Y48274D01*
X34223Y48240D01*
X34153Y48186D01*
X34099Y48116D01*
X34065Y48034D01*
X34060Y47996D01*
X34500D01*
Y48285D01*
D02*
G37*
G36*
X35707D02*
X35393D01*
X35305Y48274D01*
X35223Y48240D01*
X35153Y48186D01*
X35099Y48116D01*
X35077Y48063D01*
X35023D01*
X35001Y48116D01*
X34947Y48186D01*
X34877Y48240D01*
X34795Y48274D01*
X34707Y48285D01*
X34600D01*
Y47946D01*
Y47607D01*
X34707D01*
X34795Y47618D01*
X34877Y47652D01*
X34947Y47706D01*
X35001Y47776D01*
X35023Y47829D01*
X35077D01*
X35099Y47776D01*
X35153Y47706D01*
X35223Y47652D01*
X35305Y47618D01*
X35393Y47607D01*
X35707D01*
X35795Y47618D01*
X35877Y47652D01*
X35947Y47706D01*
X36001Y47776D01*
X36035Y47858D01*
X36047Y47946D01*
X36035Y48034D01*
X36001Y48116D01*
X35947Y48186D01*
X35877Y48240D01*
X35795Y48274D01*
X35707Y48285D01*
D02*
G37*
%LPD*%
D10*
X24300Y14900D02*
X24846D01*
X29700Y18000D02*
X30246D01*
X27354Y12700D02*
X27900D01*
X27919Y12681D01*
X36350Y13200D02*
Y14000D01*
X35624Y12474D02*
X36350Y13200D01*
X29476Y12474D02*
X35624D01*
X35900Y14450D02*
X36350Y14000D01*
X35550Y14450D02*
X35900D01*
X30760Y15181D02*
X31519D01*
X33250Y13450D01*
X34550D01*
X25900Y15986D02*
X26705Y15181D01*
X25900Y15986D02*
Y17150D01*
X26150Y17400D01*
X27100D01*
X28575Y15925D01*
X32058D01*
X32533Y15450D01*
X34550D01*
X31975Y15725D02*
X33250Y14450D01*
X30437Y15725D02*
X31975D01*
X30412Y15700D02*
X30437Y15725D01*
X27643Y15700D02*
X30412D01*
X26705Y16638D02*
X27643Y15700D01*
X33250Y14450D02*
X34550D01*
X26705Y14079D02*
X27871D01*
X29476Y12474D01*
X35550Y15450D02*
X37617D01*
X38693Y14374D01*
X35550Y17450D02*
X39650D01*
X41700Y15400D01*
X44163D01*
X45189Y14374D01*
X47754Y12200D02*
X48350D01*
X30760Y13385D02*
Y14079D01*
Y13385D02*
X31246Y12900D01*
X31700Y16546D02*
X31704Y16550D01*
X32450D01*
X24300Y22774D02*
X24846D01*
X29700Y25874D02*
X30246D01*
X27354Y20574D02*
X27900D01*
X27919Y20555D01*
X36350Y21074D02*
Y21874D01*
X35624Y20348D02*
X36350Y21074D01*
X29476Y20348D02*
X35624D01*
X35900Y22324D02*
X36350Y21874D01*
X35550Y22324D02*
X35900D01*
X30760Y23055D02*
X31519D01*
X33250Y21324D01*
X34550D01*
X25900Y23860D02*
X26705Y23055D01*
X25900Y23860D02*
Y25024D01*
X26150Y25274D01*
X27100D01*
X28575Y23799D01*
X32058D01*
X32533Y23324D01*
X34550D01*
X31975Y23599D02*
X33250Y22324D01*
X30437Y23599D02*
X31975D01*
X30412Y23574D02*
X30437Y23599D01*
X27643Y23574D02*
X30412D01*
X26705Y24512D02*
X27643Y23574D01*
X33250Y22324D02*
X34550D01*
X26705Y21953D02*
X27871D01*
X29476Y20348D01*
X35550Y23324D02*
X37617D01*
X38693Y22248D01*
X35550Y25324D02*
X39650D01*
X41700Y23274D01*
X44163D01*
X45189Y22248D01*
X47754Y20074D02*
X48350D01*
X30760Y21259D02*
Y21953D01*
Y21259D02*
X31246Y20774D01*
X31700Y24420D02*
X31704Y24424D01*
X32450D01*
X24300Y30648D02*
X24846D01*
X29700Y33748D02*
X30246D01*
X27354Y28448D02*
X27900D01*
X27919Y28429D01*
X36350Y28948D02*
Y29748D01*
X35624Y28222D02*
X36350Y28948D01*
X29476Y28222D02*
X35624D01*
X35900Y30198D02*
X36350Y29748D01*
X35550Y30198D02*
X35900D01*
X30760Y30929D02*
X31519D01*
X33250Y29198D01*
X34550D01*
X25900Y31734D02*
X26705Y30929D01*
X25900Y31734D02*
Y32898D01*
X26150Y33148D01*
X27100D01*
X28575Y31673D01*
X32058D01*
X32533Y31198D01*
X34550D01*
X31975Y31473D02*
X33250Y30198D01*
X30437Y31473D02*
X31975D01*
X30412Y31448D02*
X30437Y31473D01*
X27643Y31448D02*
X30412D01*
X26705Y32386D02*
X27643Y31448D01*
X33250Y30198D02*
X34550D01*
X26705Y29827D02*
X27871D01*
X29476Y28222D01*
X35550Y31198D02*
X37617D01*
X38693Y30122D01*
X35550Y33198D02*
X39650D01*
X41700Y31148D01*
X44163D01*
X45189Y30122D01*
X47754Y27948D02*
X48350D01*
X30760Y29133D02*
Y29827D01*
Y29133D02*
X31246Y28648D01*
X31700Y32294D02*
X31704Y32298D01*
X32450D01*
X24300Y38522D02*
X24846D01*
X29700Y41622D02*
X30246D01*
X27354Y36322D02*
X27900D01*
X27919Y36303D01*
X36350Y36822D02*
Y37622D01*
X35624Y36096D02*
X36350Y36822D01*
X29476Y36096D02*
X35624D01*
X35900Y38072D02*
X36350Y37622D01*
X35550Y38072D02*
X35900D01*
X30760Y38803D02*
X31519D01*
X33250Y37072D01*
X34550D01*
X25900Y39608D02*
X26705Y38803D01*
X25900Y39608D02*
Y40772D01*
X26150Y41022D01*
X27100D01*
X28575Y39547D01*
X32058D01*
X32533Y39072D01*
X34550D01*
X31975Y39347D02*
X33250Y38072D01*
X30437Y39347D02*
X31975D01*
X30412Y39322D02*
X30437Y39347D01*
X27643Y39322D02*
X30412D01*
X26705Y40260D02*
X27643Y39322D01*
X33250Y38072D02*
X34550D01*
X26705Y37701D02*
X27871D01*
X29476Y36096D01*
X35550Y39072D02*
X37617D01*
X38693Y37996D01*
X35550Y41072D02*
X39650D01*
X41700Y39022D01*
X44163D01*
X45189Y37996D01*
X47754Y35822D02*
X48350D01*
X30760Y37007D02*
Y37701D01*
Y37007D02*
X31246Y36522D01*
X31700Y40168D02*
X31704Y40172D01*
X32450D01*
X24300Y46396D02*
X24846D01*
X29700Y49496D02*
X30246D01*
X27354Y44196D02*
X27900D01*
X27919Y44177D01*
X36350Y44696D02*
Y45496D01*
X35624Y43970D02*
X36350Y44696D01*
X29476Y43970D02*
X35624D01*
X35900Y45946D02*
X36350Y45496D01*
X35550Y45946D02*
X35900D01*
X30760Y46677D02*
X31519D01*
X33250Y44946D01*
X34550D01*
X25900Y47482D02*
X26705Y46677D01*
X25900Y47482D02*
Y48646D01*
X26150Y48896D01*
X27100D01*
X28575Y47421D01*
X32058D01*
X32533Y46946D01*
X34550D01*
X31975Y47221D02*
X33250Y45946D01*
X30437Y47221D02*
X31975D01*
X30412Y47196D02*
X30437Y47221D01*
X27643Y47196D02*
X30412D01*
X26705Y48134D02*
X27643Y47196D01*
X33250Y45946D02*
X34550D01*
X26705Y45575D02*
X27871D01*
X29476Y43970D01*
X35550Y46946D02*
X37617D01*
X38693Y45870D01*
X35550Y48946D02*
X39650D01*
X41700Y46896D01*
X44163D01*
X45189Y45870D01*
X47754Y43696D02*
X48350D01*
X30760Y44882D02*
Y45575D01*
Y44882D02*
X31246Y44396D01*
X31700Y48042D02*
X31704Y48046D01*
X32450D01*
X54146Y11500D02*
Y50870D01*
X22650D02*
X54146D01*
X22650Y11500D02*
Y50870D01*
Y19374D02*
X54146D01*
X22650Y11500D02*
X54146D01*
Y19374D01*
X22650Y11500D02*
Y19374D01*
Y27248D02*
X54146D01*
X22650Y19374D02*
X54146D01*
Y27248D01*
X22650Y19374D02*
Y27248D01*
Y35122D02*
X54146D01*
X22650Y27248D02*
X54146D01*
Y35122D01*
X22650Y27248D02*
Y35122D01*
Y42996D02*
X54146D01*
X22650Y35122D02*
X54146D01*
Y42996D01*
X22650Y35122D02*
Y42996D01*
Y50870D02*
X54146D01*
X22650Y42996D02*
X54146D01*
Y50870D01*
X22650Y42996D02*
Y50870D01*
D13*
X41154Y12200D02*
X41504Y12550D01*
X41887D01*
X41154Y20074D02*
X41504Y20424D01*
X41887D01*
X41154Y27948D02*
X41504Y28298D01*
X41887D01*
X41154Y35822D02*
X41504Y36172D01*
X41887D01*
X41154Y43696D02*
X41504Y44046D01*
X41887D01*
D14*
X35550Y17450D02*
D03*
Y25324D02*
D03*
Y33198D02*
D03*
Y41072D02*
D03*
Y48946D02*
D03*
D15*
Y16450D02*
D03*
Y15450D02*
D03*
Y14450D02*
D03*
Y13450D02*
D03*
X34550Y17450D02*
D03*
Y16450D02*
D03*
Y15450D02*
D03*
Y14450D02*
D03*
Y13450D02*
D03*
X35550Y24324D02*
D03*
Y23324D02*
D03*
Y22324D02*
D03*
Y21324D02*
D03*
X34550Y25324D02*
D03*
Y24324D02*
D03*
Y23324D02*
D03*
Y22324D02*
D03*
Y21324D02*
D03*
X35550Y32198D02*
D03*
Y31198D02*
D03*
Y30198D02*
D03*
Y29198D02*
D03*
X34550Y33198D02*
D03*
Y32198D02*
D03*
Y31198D02*
D03*
Y30198D02*
D03*
Y29198D02*
D03*
X35550Y40072D02*
D03*
Y39072D02*
D03*
Y38072D02*
D03*
Y37072D02*
D03*
X34550Y41072D02*
D03*
Y40072D02*
D03*
Y39072D02*
D03*
Y38072D02*
D03*
Y37072D02*
D03*
X35550Y47946D02*
D03*
Y46946D02*
D03*
Y45946D02*
D03*
Y44946D02*
D03*
X34550Y48946D02*
D03*
Y47946D02*
D03*
Y46946D02*
D03*
Y45946D02*
D03*
Y44946D02*
D03*
D16*
X50111Y16343D02*
D03*
Y14374D02*
D03*
X45189D02*
D03*
Y16343D02*
D03*
X43615D02*
D03*
Y14374D02*
D03*
X38693D02*
D03*
Y16343D02*
D03*
X50111Y24217D02*
D03*
Y22248D02*
D03*
X45189D02*
D03*
Y24217D02*
D03*
X43615D02*
D03*
Y22248D02*
D03*
X38693D02*
D03*
Y24217D02*
D03*
X50111Y32091D02*
D03*
Y30122D02*
D03*
X45189D02*
D03*
Y32091D02*
D03*
X43615D02*
D03*
Y30122D02*
D03*
X38693D02*
D03*
Y32091D02*
D03*
X50111Y39965D02*
D03*
Y37996D02*
D03*
X45189D02*
D03*
Y39965D02*
D03*
X43615D02*
D03*
Y37996D02*
D03*
X38693D02*
D03*
Y39965D02*
D03*
X50111Y47839D02*
D03*
Y45870D02*
D03*
X45189D02*
D03*
Y47839D02*
D03*
X43615D02*
D03*
Y45870D02*
D03*
X38693D02*
D03*
Y47839D02*
D03*
D17*
X30760Y16638D02*
D03*
Y15181D02*
D03*
Y14079D02*
D03*
X26705D02*
D03*
Y15181D02*
D03*
Y16638D02*
D03*
X30760Y24512D02*
D03*
Y23055D02*
D03*
Y21953D02*
D03*
X26705D02*
D03*
Y23055D02*
D03*
Y24512D02*
D03*
X30760Y32386D02*
D03*
Y30929D02*
D03*
Y29827D02*
D03*
X26705D02*
D03*
Y30929D02*
D03*
Y32386D02*
D03*
X30760Y40260D02*
D03*
Y38803D02*
D03*
Y37701D02*
D03*
X26705D02*
D03*
Y38803D02*
D03*
Y40260D02*
D03*
X30760Y48134D02*
D03*
Y46677D02*
D03*
Y45575D02*
D03*
X26705D02*
D03*
Y46677D02*
D03*
Y48134D02*
D03*
D18*
X24865Y14881D02*
D03*
X29681Y18019D02*
D03*
X27919Y12681D02*
D03*
X32450Y17750D02*
D03*
X48350Y12200D02*
D03*
X41887Y12550D02*
D03*
X39850Y12200D02*
D03*
X46450D02*
D03*
X48400Y18300D02*
D03*
X41950Y18350D02*
D03*
X32550Y12900D02*
D03*
X26650Y13250D02*
D03*
X23800Y15650D02*
D03*
X31600Y18000D02*
D03*
X32450Y16550D02*
D03*
X24865Y22755D02*
D03*
X29681Y25893D02*
D03*
X27919Y20555D02*
D03*
X32450Y25624D02*
D03*
X48350Y20074D02*
D03*
X41887Y20424D02*
D03*
X39850Y20074D02*
D03*
X46450D02*
D03*
X48400Y26174D02*
D03*
X41950Y26224D02*
D03*
X32550Y20774D02*
D03*
X26650Y21124D02*
D03*
X23800Y23524D02*
D03*
X31600Y25874D02*
D03*
X32450Y24424D02*
D03*
X24865Y30629D02*
D03*
X29681Y33767D02*
D03*
X27919Y28429D02*
D03*
X32450Y33498D02*
D03*
X48350Y27948D02*
D03*
X41887Y28298D02*
D03*
X39850Y27948D02*
D03*
X46450D02*
D03*
X48400Y34048D02*
D03*
X41950Y34098D02*
D03*
X32550Y28648D02*
D03*
X26650Y28998D02*
D03*
X23800Y31398D02*
D03*
X31600Y33748D02*
D03*
X32450Y32298D02*
D03*
X24865Y38503D02*
D03*
X29681Y41641D02*
D03*
X27919Y36303D02*
D03*
X32450Y41372D02*
D03*
X48350Y35822D02*
D03*
X41887Y36172D02*
D03*
X39850Y35822D02*
D03*
X46450D02*
D03*
X48400Y41922D02*
D03*
X41950Y41972D02*
D03*
X32550Y36522D02*
D03*
X26650Y36872D02*
D03*
X23800Y39272D02*
D03*
X31600Y41622D02*
D03*
X32450Y40172D02*
D03*
X24865Y46377D02*
D03*
X29681Y49515D02*
D03*
X27919Y44177D02*
D03*
X32450Y49246D02*
D03*
X48350Y43696D02*
D03*
X41887Y44046D02*
D03*
X39850Y43696D02*
D03*
X46450D02*
D03*
X48400Y49796D02*
D03*
X41950Y49846D02*
D03*
X32550Y44396D02*
D03*
X26650Y44746D02*
D03*
X23800Y47146D02*
D03*
X31600Y49496D02*
D03*
X32450Y48046D02*
D03*
D19*
X23437Y12287D02*
D03*
Y18587D02*
D03*
X53359Y12287D02*
D03*
Y18587D02*
D03*
X23437Y20161D02*
D03*
Y26461D02*
D03*
X53359Y20161D02*
D03*
Y26461D02*
D03*
X23437Y28035D02*
D03*
Y34335D02*
D03*
X53359Y28035D02*
D03*
Y34335D02*
D03*
X23437Y35909D02*
D03*
Y42209D02*
D03*
X53359Y35909D02*
D03*
Y42209D02*
D03*
X23437Y43783D02*
D03*
Y50083D02*
D03*
X53359Y43783D02*
D03*
Y50083D02*
D03*
D20*
X42546Y18350D02*
D03*
X43254D02*
D03*
X49046Y18300D02*
D03*
X49754D02*
D03*
X31954Y12900D02*
D03*
X31246D02*
D03*
X47754Y12200D02*
D03*
X47046D02*
D03*
X41154D02*
D03*
X40446D02*
D03*
X27354Y12700D02*
D03*
X26646D02*
D03*
X30246Y18000D02*
D03*
X30954D02*
D03*
X42546Y26224D02*
D03*
X43254D02*
D03*
X49046Y26174D02*
D03*
X49754D02*
D03*
X31954Y20774D02*
D03*
X31246D02*
D03*
X47754Y20074D02*
D03*
X47046D02*
D03*
X41154D02*
D03*
X40446D02*
D03*
X27354Y20574D02*
D03*
X26646D02*
D03*
X30246Y25874D02*
D03*
X30954D02*
D03*
X42546Y34098D02*
D03*
X43254D02*
D03*
X49046Y34048D02*
D03*
X49754D02*
D03*
X31954Y28648D02*
D03*
X31246D02*
D03*
X47754Y27948D02*
D03*
X47046D02*
D03*
X41154D02*
D03*
X40446D02*
D03*
X27354Y28448D02*
D03*
X26646D02*
D03*
X30246Y33748D02*
D03*
X30954D02*
D03*
X42546Y41972D02*
D03*
X43254D02*
D03*
X49046Y41922D02*
D03*
X49754D02*
D03*
X31954Y36522D02*
D03*
X31246D02*
D03*
X47754Y35822D02*
D03*
X47046D02*
D03*
X41154D02*
D03*
X40446D02*
D03*
X27354Y36322D02*
D03*
X26646D02*
D03*
X30246Y41622D02*
D03*
X30954D02*
D03*
X42546Y49846D02*
D03*
X43254D02*
D03*
X49046Y49796D02*
D03*
X49754D02*
D03*
X31954Y44396D02*
D03*
X31246D02*
D03*
X47754Y43696D02*
D03*
X47046D02*
D03*
X41154D02*
D03*
X40446D02*
D03*
X27354Y44196D02*
D03*
X26646D02*
D03*
X30246Y49496D02*
D03*
X30954D02*
D03*
D21*
X31700Y16546D02*
D03*
Y17254D02*
D03*
X24400Y14946D02*
D03*
Y15654D02*
D03*
X31700Y24420D02*
D03*
Y25128D02*
D03*
X24400Y22820D02*
D03*
Y23528D02*
D03*
X31700Y32294D02*
D03*
Y33002D02*
D03*
X24400Y30694D02*
D03*
Y31402D02*
D03*
X31700Y40168D02*
D03*
Y40876D02*
D03*
X24400Y38568D02*
D03*
Y39276D02*
D03*
X31700Y48042D02*
D03*
Y48750D02*
D03*
X24400Y46442D02*
D03*
Y47150D02*
D03*
D22*
X32350Y17750D02*
X32450D01*
X31854Y17254D02*
X32350Y17750D01*
X31700Y17254D02*
X31854D01*
X43254Y18350D02*
X43615Y17990D01*
Y16343D02*
Y17990D01*
X49754Y18300D02*
X50111Y17944D01*
Y16343D02*
Y17944D01*
X39850Y12200D02*
X40446D01*
X46450D02*
X47046D01*
X48400Y18300D02*
X49046D01*
X41950Y18350D02*
X42546D01*
X31954Y12900D02*
X32550D01*
X26646Y13246D02*
X26650Y13250D01*
X26646Y12700D02*
Y13246D01*
X23800Y15650D02*
X23804Y15654D01*
X24400D01*
X31600Y18000D02*
X31600Y18000D01*
X30954Y18000D02*
X31600D01*
X32350Y25624D02*
X32450D01*
X31854Y25128D02*
X32350Y25624D01*
X31700Y25128D02*
X31854D01*
X43254Y26224D02*
X43615Y25864D01*
Y24217D02*
Y25864D01*
X49754Y26174D02*
X50111Y25818D01*
Y24217D02*
Y25818D01*
X39850Y20074D02*
X40446D01*
X46450D02*
X47046D01*
X48400Y26174D02*
X49046D01*
X41950Y26224D02*
X42546D01*
X31954Y20774D02*
X32550D01*
X26646Y21120D02*
X26650Y21124D01*
X26646Y20574D02*
Y21120D01*
X23800Y23524D02*
X23804Y23528D01*
X24400D01*
X31600Y25874D02*
X31600Y25874D01*
X30954Y25874D02*
X31600D01*
X32350Y33498D02*
X32450D01*
X31854Y33002D02*
X32350Y33498D01*
X31700Y33002D02*
X31854D01*
X43254Y34098D02*
X43615Y33738D01*
Y32091D02*
Y33738D01*
X49754Y34048D02*
X50111Y33692D01*
Y32091D02*
Y33692D01*
X39850Y27948D02*
X40446D01*
X46450D02*
X47046D01*
X48400Y34048D02*
X49046D01*
X41950Y34098D02*
X42546D01*
X31954Y28648D02*
X32550D01*
X26646Y28994D02*
X26650Y28998D01*
X26646Y28448D02*
Y28994D01*
X23800Y31398D02*
X23804Y31402D01*
X24400D01*
X31600Y33748D02*
X31600Y33748D01*
X30954Y33748D02*
X31600D01*
X32350Y41372D02*
X32450D01*
X31854Y40876D02*
X32350Y41372D01*
X31700Y40876D02*
X31854D01*
X43254Y41972D02*
X43615Y41612D01*
Y39965D02*
Y41612D01*
X49754Y41922D02*
X50111Y41566D01*
Y39965D02*
Y41566D01*
X39850Y35822D02*
X40446D01*
X46450D02*
X47046D01*
X48400Y41922D02*
X49046D01*
X41950Y41972D02*
X42546D01*
X31954Y36522D02*
X32550D01*
X26646Y36868D02*
X26650Y36872D01*
X26646Y36322D02*
Y36868D01*
X23800Y39272D02*
X23804Y39276D01*
X24400D01*
X31600Y41622D02*
X31600Y41622D01*
X30954Y41622D02*
X31600D01*
X32350Y49246D02*
X32450D01*
X31854Y48750D02*
X32350Y49246D01*
X31700Y48750D02*
X31854D01*
X43254Y49846D02*
X43615Y49486D01*
Y47839D02*
Y49486D01*
X49754Y49796D02*
X50111Y49440D01*
Y47839D02*
Y49440D01*
X39850Y43696D02*
X40446D01*
X46450D02*
X47046D01*
X48400Y49796D02*
X49046D01*
X41950Y49846D02*
X42546D01*
X31954Y44396D02*
X32550D01*
X26646Y44742D02*
X26650Y44746D01*
X26646Y44196D02*
Y44742D01*
X23800Y47146D02*
X23804Y47150D01*
X24400D01*
X31600Y49496D02*
X31600Y49496D01*
X30954Y49496D02*
X31600D01*
M02*
