G04 Layer_Color=128*
%FSLAX24Y24*%
%MOIN*%
G70*
G01*
G75*
%ADD10C,0.0100*%
%ADD34C,0.0020*%
D10*
X54146Y11500D02*
Y50870D01*
X22650D02*
X54146D01*
X22650Y11500D02*
Y50870D01*
Y19374D02*
X54146D01*
X22650Y11500D02*
X54146D01*
Y19374D01*
X22650Y11500D02*
Y19374D01*
Y27248D02*
X54146D01*
X22650Y19374D02*
X54146D01*
Y27248D01*
X22650Y19374D02*
Y27248D01*
Y35122D02*
X54146D01*
X22650Y27248D02*
X54146D01*
Y35122D01*
X22650Y27248D02*
Y35122D01*
Y42996D02*
X54146D01*
X22650Y35122D02*
X54146D01*
Y42996D01*
X22650Y35122D02*
Y42996D01*
Y50870D02*
X54146D01*
X22650Y42996D02*
X54146D01*
Y50870D01*
X22650Y42996D02*
Y50870D01*
D34*
X35412Y17450D02*
X35688D01*
X35550Y17312D02*
Y17588D01*
X35412Y16450D02*
X35688D01*
X35550Y16312D02*
Y16588D01*
X35412Y15450D02*
X35688D01*
X35550Y15312D02*
Y15588D01*
X35412Y14450D02*
X35688D01*
X35550Y14312D02*
Y14588D01*
X35412Y13450D02*
X35688D01*
X35550Y13312D02*
Y13588D01*
X34412Y17450D02*
X34688D01*
X34550Y17312D02*
Y17588D01*
X34412Y16450D02*
X34688D01*
X34550Y16312D02*
Y16588D01*
X34412Y15450D02*
X34688D01*
X34550Y15312D02*
Y15588D01*
X34412Y14450D02*
X34688D01*
X34550Y14312D02*
Y14588D01*
X34412Y13450D02*
X34688D01*
X34550Y13312D02*
Y13588D01*
X49874Y16343D02*
X50347D01*
X50111Y16106D02*
Y16579D01*
X49874Y14374D02*
X50347D01*
X50111Y14138D02*
Y14610D01*
X44953Y14374D02*
X45426D01*
X45189Y14138D02*
Y14610D01*
X44953Y16343D02*
X45426D01*
X45189Y16106D02*
Y16579D01*
X30524Y16638D02*
X30996D01*
X30760Y16402D02*
Y16874D01*
X30524Y15181D02*
X30996D01*
X30760Y14945D02*
Y15417D01*
X30524Y14079D02*
X30996D01*
X30760Y13843D02*
Y14315D01*
X26469Y14079D02*
X26941D01*
X26705Y13843D02*
Y14315D01*
X26469Y15181D02*
X26941D01*
X26705Y14945D02*
Y15417D01*
X26469Y16638D02*
X26941D01*
X26705Y16402D02*
Y16874D01*
X43378Y16343D02*
X43851D01*
X43615Y16106D02*
Y16579D01*
X43378Y14374D02*
X43851D01*
X43615Y14138D02*
Y14610D01*
X38457Y14374D02*
X38930D01*
X38693Y14138D02*
Y14610D01*
X38457Y16343D02*
X38930D01*
X38693Y16106D02*
Y16579D01*
X24786Y14881D02*
X24944D01*
X24865Y14802D02*
Y14959D01*
X29602Y18019D02*
X29759D01*
X29681Y17941D02*
Y18098D01*
X27841Y12681D02*
X27998D01*
X27919Y12602D02*
Y12759D01*
X32371Y17750D02*
X32529D01*
X32450Y17671D02*
Y17829D01*
X48271Y12200D02*
X48429D01*
X48350Y12121D02*
Y12279D01*
X41808Y12550D02*
X41966D01*
X41887Y12471D02*
Y12629D01*
X39771Y12200D02*
X39929D01*
X39850Y12121D02*
Y12279D01*
X46371Y12200D02*
X46529D01*
X46450Y12121D02*
Y12279D01*
X48321Y18300D02*
X48479D01*
X48400Y18221D02*
Y18379D01*
X41871Y18350D02*
X42029D01*
X41950Y18271D02*
Y18429D01*
X32471Y12900D02*
X32629D01*
X32550Y12821D02*
Y12979D01*
X26571Y13250D02*
X26729D01*
X26650Y13171D02*
Y13329D01*
X23721Y15650D02*
X23879D01*
X23800Y15571D02*
Y15729D01*
X31521Y18000D02*
X31679D01*
X31600Y17921D02*
Y18079D01*
X32371Y16550D02*
X32529D01*
X32450Y16471D02*
Y16629D01*
X23044Y12287D02*
X23831D01*
X23437Y11894D02*
Y12681D01*
X23044Y18587D02*
X23831D01*
X23437Y18193D02*
Y18980D01*
X52965Y12287D02*
X53752D01*
X53359Y11894D02*
Y12681D01*
X52965Y18587D02*
X53752D01*
X53359Y18193D02*
Y18980D01*
X35412Y25324D02*
X35688D01*
X35550Y25186D02*
Y25462D01*
X35412Y24324D02*
X35688D01*
X35550Y24186D02*
Y24462D01*
X35412Y23324D02*
X35688D01*
X35550Y23186D02*
Y23462D01*
X35412Y22324D02*
X35688D01*
X35550Y22186D02*
Y22462D01*
X35412Y21324D02*
X35688D01*
X35550Y21186D02*
Y21462D01*
X34412Y25324D02*
X34688D01*
X34550Y25186D02*
Y25462D01*
X34412Y24324D02*
X34688D01*
X34550Y24186D02*
Y24462D01*
X34412Y23324D02*
X34688D01*
X34550Y23186D02*
Y23462D01*
X34412Y22324D02*
X34688D01*
X34550Y22186D02*
Y22462D01*
X34412Y21324D02*
X34688D01*
X34550Y21186D02*
Y21462D01*
X49874Y24217D02*
X50347D01*
X50111Y23980D02*
Y24453D01*
X49874Y22248D02*
X50347D01*
X50111Y22012D02*
Y22484D01*
X44953Y22248D02*
X45426D01*
X45189Y22012D02*
Y22484D01*
X44953Y24217D02*
X45426D01*
X45189Y23980D02*
Y24453D01*
X30524Y24512D02*
X30996D01*
X30760Y24276D02*
Y24748D01*
X30524Y23055D02*
X30996D01*
X30760Y22819D02*
Y23291D01*
X30524Y21953D02*
X30996D01*
X30760Y21717D02*
Y22189D01*
X26469Y21953D02*
X26941D01*
X26705Y21717D02*
Y22189D01*
X26469Y23055D02*
X26941D01*
X26705Y22819D02*
Y23291D01*
X26469Y24512D02*
X26941D01*
X26705Y24276D02*
Y24748D01*
X43378Y24217D02*
X43851D01*
X43615Y23980D02*
Y24453D01*
X43378Y22248D02*
X43851D01*
X43615Y22012D02*
Y22484D01*
X38457Y22248D02*
X38930D01*
X38693Y22012D02*
Y22484D01*
X38457Y24217D02*
X38930D01*
X38693Y23980D02*
Y24453D01*
X24786Y22755D02*
X24944D01*
X24865Y22676D02*
Y22833D01*
X29602Y25893D02*
X29759D01*
X29681Y25815D02*
Y25972D01*
X27841Y20555D02*
X27998D01*
X27919Y20476D02*
Y20633D01*
X32371Y25624D02*
X32529D01*
X32450Y25545D02*
Y25703D01*
X48271Y20074D02*
X48429D01*
X48350Y19995D02*
Y20153D01*
X41808Y20424D02*
X41966D01*
X41887Y20345D02*
Y20503D01*
X39771Y20074D02*
X39929D01*
X39850Y19995D02*
Y20153D01*
X46371Y20074D02*
X46529D01*
X46450Y19995D02*
Y20153D01*
X48321Y26174D02*
X48479D01*
X48400Y26095D02*
Y26253D01*
X41871Y26224D02*
X42029D01*
X41950Y26145D02*
Y26303D01*
X32471Y20774D02*
X32629D01*
X32550Y20695D02*
Y20853D01*
X26571Y21124D02*
X26729D01*
X26650Y21045D02*
Y21203D01*
X23721Y23524D02*
X23879D01*
X23800Y23445D02*
Y23603D01*
X31521Y25874D02*
X31679D01*
X31600Y25795D02*
Y25953D01*
X32371Y24424D02*
X32529D01*
X32450Y24345D02*
Y24503D01*
X23044Y20161D02*
X23831D01*
X23437Y19768D02*
Y20555D01*
X23044Y26461D02*
X23831D01*
X23437Y26067D02*
Y26854D01*
X52965Y20161D02*
X53752D01*
X53359Y19768D02*
Y20555D01*
X52965Y26461D02*
X53752D01*
X53359Y26067D02*
Y26854D01*
X35412Y33198D02*
X35688D01*
X35550Y33060D02*
Y33336D01*
X35412Y32198D02*
X35688D01*
X35550Y32060D02*
Y32336D01*
X35412Y31198D02*
X35688D01*
X35550Y31060D02*
Y31336D01*
X35412Y30198D02*
X35688D01*
X35550Y30060D02*
Y30336D01*
X35412Y29198D02*
X35688D01*
X35550Y29060D02*
Y29336D01*
X34412Y33198D02*
X34688D01*
X34550Y33060D02*
Y33336D01*
X34412Y32198D02*
X34688D01*
X34550Y32060D02*
Y32336D01*
X34412Y31198D02*
X34688D01*
X34550Y31060D02*
Y31336D01*
X34412Y30198D02*
X34688D01*
X34550Y30060D02*
Y30336D01*
X34412Y29198D02*
X34688D01*
X34550Y29060D02*
Y29336D01*
X49874Y32091D02*
X50347D01*
X50111Y31854D02*
Y32327D01*
X49874Y30122D02*
X50347D01*
X50111Y29886D02*
Y30358D01*
X44953Y30122D02*
X45426D01*
X45189Y29886D02*
Y30358D01*
X44953Y32091D02*
X45426D01*
X45189Y31854D02*
Y32327D01*
X30524Y32386D02*
X30996D01*
X30760Y32150D02*
Y32622D01*
X30524Y30929D02*
X30996D01*
X30760Y30693D02*
Y31165D01*
X30524Y29827D02*
X30996D01*
X30760Y29591D02*
Y30063D01*
X26469Y29827D02*
X26941D01*
X26705Y29591D02*
Y30063D01*
X26469Y30929D02*
X26941D01*
X26705Y30693D02*
Y31165D01*
X26469Y32386D02*
X26941D01*
X26705Y32150D02*
Y32622D01*
X43378Y32091D02*
X43851D01*
X43615Y31854D02*
Y32327D01*
X43378Y30122D02*
X43851D01*
X43615Y29886D02*
Y30358D01*
X38457Y30122D02*
X38930D01*
X38693Y29886D02*
Y30358D01*
X38457Y32091D02*
X38930D01*
X38693Y31854D02*
Y32327D01*
X24786Y30629D02*
X24944D01*
X24865Y30550D02*
Y30707D01*
X29602Y33767D02*
X29759D01*
X29681Y33689D02*
Y33846D01*
X27841Y28429D02*
X27998D01*
X27919Y28350D02*
Y28507D01*
X32371Y33498D02*
X32529D01*
X32450Y33419D02*
Y33577D01*
X48271Y27948D02*
X48429D01*
X48350Y27869D02*
Y28027D01*
X41808Y28298D02*
X41966D01*
X41887Y28219D02*
Y28377D01*
X39771Y27948D02*
X39929D01*
X39850Y27869D02*
Y28027D01*
X46371Y27948D02*
X46529D01*
X46450Y27869D02*
Y28027D01*
X48321Y34048D02*
X48479D01*
X48400Y33969D02*
Y34127D01*
X41871Y34098D02*
X42029D01*
X41950Y34019D02*
Y34177D01*
X32471Y28648D02*
X32629D01*
X32550Y28569D02*
Y28727D01*
X26571Y28998D02*
X26729D01*
X26650Y28919D02*
Y29077D01*
X23721Y31398D02*
X23879D01*
X23800Y31319D02*
Y31477D01*
X31521Y33748D02*
X31679D01*
X31600Y33669D02*
Y33827D01*
X32371Y32298D02*
X32529D01*
X32450Y32219D02*
Y32377D01*
X23044Y28035D02*
X23831D01*
X23437Y27642D02*
Y28429D01*
X23044Y34335D02*
X23831D01*
X23437Y33941D02*
Y34728D01*
X52965Y28035D02*
X53752D01*
X53359Y27642D02*
Y28429D01*
X52965Y34335D02*
X53752D01*
X53359Y33941D02*
Y34728D01*
X35412Y41072D02*
X35688D01*
X35550Y40934D02*
Y41210D01*
X35412Y40072D02*
X35688D01*
X35550Y39934D02*
Y40210D01*
X35412Y39072D02*
X35688D01*
X35550Y38934D02*
Y39210D01*
X35412Y38072D02*
X35688D01*
X35550Y37934D02*
Y38210D01*
X35412Y37072D02*
X35688D01*
X35550Y36934D02*
Y37210D01*
X34412Y41072D02*
X34688D01*
X34550Y40934D02*
Y41210D01*
X34412Y40072D02*
X34688D01*
X34550Y39934D02*
Y40210D01*
X34412Y39072D02*
X34688D01*
X34550Y38934D02*
Y39210D01*
X34412Y38072D02*
X34688D01*
X34550Y37934D02*
Y38210D01*
X34412Y37072D02*
X34688D01*
X34550Y36934D02*
Y37210D01*
X49874Y39965D02*
X50347D01*
X50111Y39728D02*
Y40201D01*
X49874Y37996D02*
X50347D01*
X50111Y37760D02*
Y38232D01*
X44953Y37996D02*
X45426D01*
X45189Y37760D02*
Y38232D01*
X44953Y39965D02*
X45426D01*
X45189Y39728D02*
Y40201D01*
X30524Y40260D02*
X30996D01*
X30760Y40024D02*
Y40496D01*
X30524Y38803D02*
X30996D01*
X30760Y38567D02*
Y39039D01*
X30524Y37701D02*
X30996D01*
X30760Y37465D02*
Y37937D01*
X26469Y37701D02*
X26941D01*
X26705Y37465D02*
Y37937D01*
X26469Y38803D02*
X26941D01*
X26705Y38567D02*
Y39039D01*
X26469Y40260D02*
X26941D01*
X26705Y40024D02*
Y40496D01*
X43378Y39965D02*
X43851D01*
X43615Y39728D02*
Y40201D01*
X43378Y37996D02*
X43851D01*
X43615Y37760D02*
Y38232D01*
X38457Y37996D02*
X38930D01*
X38693Y37760D02*
Y38232D01*
X38457Y39965D02*
X38930D01*
X38693Y39728D02*
Y40201D01*
X24786Y38503D02*
X24944D01*
X24865Y38424D02*
Y38582D01*
X29602Y41641D02*
X29759D01*
X29681Y41563D02*
Y41720D01*
X27841Y36303D02*
X27998D01*
X27919Y36224D02*
Y36381D01*
X32371Y41372D02*
X32529D01*
X32450Y41293D02*
Y41451D01*
X48271Y35822D02*
X48429D01*
X48350Y35743D02*
Y35901D01*
X41808Y36172D02*
X41966D01*
X41887Y36093D02*
Y36251D01*
X39771Y35822D02*
X39929D01*
X39850Y35743D02*
Y35901D01*
X46371Y35822D02*
X46529D01*
X46450Y35743D02*
Y35901D01*
X48321Y41922D02*
X48479D01*
X48400Y41843D02*
Y42001D01*
X41871Y41972D02*
X42029D01*
X41950Y41893D02*
Y42051D01*
X32471Y36522D02*
X32629D01*
X32550Y36443D02*
Y36601D01*
X26571Y36872D02*
X26729D01*
X26650Y36793D02*
Y36951D01*
X23721Y39272D02*
X23879D01*
X23800Y39193D02*
Y39351D01*
X31521Y41622D02*
X31679D01*
X31600Y41543D02*
Y41701D01*
X32371Y40172D02*
X32529D01*
X32450Y40093D02*
Y40251D01*
X23044Y35909D02*
X23831D01*
X23437Y35516D02*
Y36303D01*
X23044Y42209D02*
X23831D01*
X23437Y41815D02*
Y42602D01*
X52965Y35909D02*
X53752D01*
X53359Y35516D02*
Y36303D01*
X52965Y42209D02*
X53752D01*
X53359Y41815D02*
Y42602D01*
X35412Y48946D02*
X35688D01*
X35550Y48808D02*
Y49084D01*
X35412Y47946D02*
X35688D01*
X35550Y47808D02*
Y48084D01*
X35412Y46946D02*
X35688D01*
X35550Y46808D02*
Y47084D01*
X35412Y45946D02*
X35688D01*
X35550Y45808D02*
Y46084D01*
X35412Y44946D02*
X35688D01*
X35550Y44808D02*
Y45084D01*
X34412Y48946D02*
X34688D01*
X34550Y48808D02*
Y49084D01*
X34412Y47946D02*
X34688D01*
X34550Y47808D02*
Y48084D01*
X34412Y46946D02*
X34688D01*
X34550Y46808D02*
Y47084D01*
X34412Y45946D02*
X34688D01*
X34550Y45808D02*
Y46084D01*
X34412Y44946D02*
X34688D01*
X34550Y44808D02*
Y45084D01*
X49874Y47839D02*
X50347D01*
X50111Y47602D02*
Y48075D01*
X49874Y45870D02*
X50347D01*
X50111Y45634D02*
Y46106D01*
X44953Y45870D02*
X45426D01*
X45189Y45634D02*
Y46106D01*
X44953Y47839D02*
X45426D01*
X45189Y47602D02*
Y48075D01*
X30524Y48134D02*
X30996D01*
X30760Y47898D02*
Y48370D01*
X30524Y46677D02*
X30996D01*
X30760Y46441D02*
Y46913D01*
X30524Y45575D02*
X30996D01*
X30760Y45339D02*
Y45811D01*
X26469Y45575D02*
X26941D01*
X26705Y45339D02*
Y45811D01*
X26469Y46677D02*
X26941D01*
X26705Y46441D02*
Y46913D01*
X26469Y48134D02*
X26941D01*
X26705Y47898D02*
Y48370D01*
X43378Y47839D02*
X43851D01*
X43615Y47602D02*
Y48075D01*
X43378Y45870D02*
X43851D01*
X43615Y45634D02*
Y46106D01*
X38457Y45870D02*
X38930D01*
X38693Y45634D02*
Y46106D01*
X38457Y47839D02*
X38930D01*
X38693Y47602D02*
Y48075D01*
X24786Y46377D02*
X24944D01*
X24865Y46298D02*
Y46456D01*
X29602Y49515D02*
X29759D01*
X29681Y49437D02*
Y49594D01*
X27841Y44177D02*
X27998D01*
X27919Y44098D02*
Y44256D01*
X32371Y49246D02*
X32529D01*
X32450Y49167D02*
Y49325D01*
X48271Y43696D02*
X48429D01*
X48350Y43617D02*
Y43775D01*
X41808Y44046D02*
X41966D01*
X41887Y43967D02*
Y44125D01*
X39771Y43696D02*
X39929D01*
X39850Y43617D02*
Y43775D01*
X46371Y43696D02*
X46529D01*
X46450Y43617D02*
Y43775D01*
X48321Y49796D02*
X48479D01*
X48400Y49717D02*
Y49875D01*
X41871Y49846D02*
X42029D01*
X41950Y49767D02*
Y49925D01*
X32471Y44396D02*
X32629D01*
X32550Y44317D02*
Y44475D01*
X26571Y44746D02*
X26729D01*
X26650Y44667D02*
Y44825D01*
X23721Y47146D02*
X23879D01*
X23800Y47067D02*
Y47225D01*
X31521Y49496D02*
X31679D01*
X31600Y49417D02*
Y49575D01*
X32371Y48046D02*
X32529D01*
X32450Y47967D02*
Y48125D01*
X23044Y43783D02*
X23831D01*
X23437Y43390D02*
Y44177D01*
X23044Y50083D02*
X23831D01*
X23437Y49689D02*
Y50476D01*
X52965Y43783D02*
X53752D01*
X53359Y43390D02*
Y44177D01*
X52965Y50083D02*
X53752D01*
X53359Y49689D02*
Y50476D01*
M02*
